<?xml version="1.0" encoding="UTF-8"?>
<svg viewBox="0 0 8000 1400" version="1.1" xmlns="http://www.w3.org/2000/svg" xmlns:xlink="http://www.w3.org/1999/xlink">
    <title>Artboard</title>
    <g id="Artboard" stroke="none" stroke-width="1" fill="none" fill-rule="evenodd">
        <g id="Layer_2">
            <path d="M0,0 L0,1400 L8000,1400 L8000,0 L0,0 Z M372.3,648.9 L134.9,648.9 L134.9,411.6 L372.3,411.6 L372.3,648.9 Z M372.4,380.2 L134.9,380.2 L134.9,142.7 L372.4,142.7 L372.4,380.2 Z M639.9,649.8 L402.4,649.8 L402.4,408.7 L639.9,408.7 L639.9,649.8 Z M639.9,380.2 L402.4,380.2 L402.4,142.7 L639.9,142.7 L639.9,380.2 Z M2350.7,144.3 L2588.9,144.3 L2588.9,382.5 L2350.7,382.5 L2350.7,144.3 Z M2589.2,649.8 L2350.9,649.8 L2350.9,411.6 L2589.2,411.6 L2589.2,649.8 Z M2855.9,649.1 L2618.4,649.1 L2618.4,411.6 L2855.9,411.6 L2855.9,649.1 Z M2855.9,381.8 L2618.4,381.8 L2618.4,144.3 L2855.9,144.3 L2855.9,381.8 Z M5381.6,648.4 L5143.6,648.4 L5143.6,412.7 L5381.6,412.7 L5381.6,648.4 Z M5381.6,382.4 L5143.6,382.4 L5143.6,144.4 L5381.6,144.4 L5381.6,382.4 Z M5649.1,648.4 L5411.1,648.4 L5411.1,410.4 L5649.1,410.4 L5649.1,648.4 Z M5649.1,382.4 L5411.1,382.4 L5411.1,144.4 L5649.1,144.4 L5649.1,382.4 Z M7597.1,649.3 L7359.6,649.3 L7359.6,411.8 L7597.1,411.8 L7597.1,649.3 Z M7597.1,381.8 L7359.6,381.8 L7359.6,144.3 L7597.1,144.3 L7597.1,381.8 Z M7865.1,649.8 L7627.1,649.8 L7627.1,411.8 L7865.1,411.8 L7865.1,649.8 Z M7865.1,382.4 L7627.1,382.4 L7627.1,144.4 L7865.1,144.4 L7865.1,382.4 Z" id="Shape" fill="#FFFFFF" fill-rule="nonzero"></path>
            <g id="Group" transform="translate(80.000000, 80.000000)">
                <path d="M25.4,34.9 L25.4,64.4 L25.4,569.9 L25.4,599.4 L589.8,599.4 L589.8,569.9 L589.8,64.3 L589.8,34.8 L25.4,34.8 L25.4,34.9 Z M560.4,569.8 L54.9,569.8 L54.9,64.3 L560.4,64.3 L560.4,569.8 Z" id="Shape" fill="#FFFFFF" fill-rule="nonzero"></path>
                <polygon id="Path" fill="#FFFFFF" fill-rule="nonzero" points="560.4 302.4 322.4 302.4 322.4 64.3 292.9 64.3 292.9 302.4 54.9 302.4 54.9 331.8 292.9 331.8 292.9 569.8 322.4 569.8 322.4 331.8 560.4 331.8"></polygon>
                <rect id="Rectangle" fill="#F2F2F2" fill-rule="nonzero" x="292.4" y="64.3" width="15.3" height="505.5"></rect>
                <rect id="Rectangle" fill="#F2F2F2" fill-rule="nonzero" transform="translate(441.342000, 309.432600) rotate(90.000000) translate(-441.342000, -309.432600) " x="433.692" y="190.4326" width="15.3" height="238"></rect>
                <rect id="Rectangle" fill="#F2F2F2" fill-rule="nonzero" transform="translate(173.859700, 309.514900) rotate(90.000000) translate(-173.859700, -309.514900) " x="166.2097" y="190.5149" width="15.3" height="238"></rect>
                <path d="M25.4,34.9 L25.4,64.4 L25.4,569.9 L25.4,599.4 L589.8,599.4 L589.8,569.9 L589.8,64.3 L589.8,34.8 L25.4,34.8 L25.4,34.9 Z M560.4,569.8 L54.9,569.8 L54.9,64.3 L560.4,64.3 L560.4,569.8 Z" id="Shape" stroke="#E6E6E6" stroke-width="3"></path>
                <rect id="Rectangle" fill="#F2F2F2" fill-rule="nonzero" x="0" y="17.4" width="615.3" height="17.4"></rect>
                <rect id="Rectangle" fill="#F2F2F2" fill-rule="nonzero" x="0" y="599.3" width="615.3" height="17.4"></rect>
                <polygon id="Path" stroke="#E6E6E6" stroke-width="3" points="560.4 302.4 322.4 302.4 322.4 64.3 292.9 64.3 292.9 302.4 54.9 302.4 54.9 331.8 292.9 331.8 292.9 569.8 322.4 569.8 322.4 331.8 560.4 331.8"></polygon>
                <rect id="Rectangle" stroke="#E6E6E6" stroke-width="3" x="0" y="599.3" width="615.3" height="34.9"></rect>
                <rect id="Rectangle" stroke="#E6E6E6" stroke-width="3" x="0" y="0" width="615.3" height="34.9"></rect>
            </g>
            <g id="Plant_on_windowsill_4_" transform="translate(449.000000, 296.000000)">
                <g id="Group" fill="#FFFFFF" fill-rule="nonzero" stroke="#8DD9C2" stroke-linecap="round" stroke-linejoin="round" stroke-width="3">
                    <path d="M24.3,218.7 C24.4,218.5 24.5,217.9 24.6,217.5 C24.7,217 24.8,216.5 24.9,216 C25.1,215 25.2,213.9 25.4,212.8 C25.6,211.7 25.7,210.7 25.8,209.6 C25.9,208.5 26,207.4 26.1,206.3 C26.4,201.9 26.6,197.4 26.6,192.9 C26.6,190.6 26.6,188.4 26.4,186.1 L26.2,182.7 L26,181 L25.8,179.3 L25.1,172.5 L24.1,165.7 L23.8,164 L23.5,162.3 L22.8,158.9 C22.3,156.6 21.9,154.4 21.3,152.1 L19.5,145.4 C18.9,143.2 18.1,141 17.4,138.7 C16.1,134.2 14.2,129.9 12.5,125.5 C11.7,123.3 10.6,121.2 9.6,119 L6.6,112.6 L10.8,118.3 C12.2,120.2 13.7,122.1 15,124.1 C17.6,128.1 20.3,132.1 22.6,136.3 C23.8,138.4 25,140.5 26.1,142.6 L29.3,149.1 C30.4,151.3 31.3,153.5 32.3,155.7 L33.7,159.1 L34.4,160.8 L35,162.5 L37.5,169.4 L39.7,176.4 L40.2,178.2 L40.7,180 L41.7,183.6 C42.4,186 42.9,188.4 43.4,190.8 C44.5,195.7 45.3,200.6 45.9,205.6 C46.1,206.9 46.2,208.1 46.3,209.4 C46.4,210.7 46.5,211.9 46.6,213.2 C46.7,214.5 46.8,215.8 46.8,217.1 C46.8,217.8 46.9,218.4 46.8,219.1 C46.8,219.8 46.8,220.4 46.8,221.4 L24.3,218.7 Z" id="Path"></path>
                    <path d="M66.8,200.6 C67.5,196.6 68.2,192.5 68.8,188.4 C69.4,184.3 70.1,180.2 70.7,176 C71.9,167.7 73,159.4 74,151.1 C76,134.5 77.7,117.8 78.8,101.1 C79.9,84.4 80.6,67.6 80.3,50.9 C80.2,42.5 79.8,34.1 79.1,25.8 C78.4,17.4 77.3,9.1 75.6,0.8 C78.2,8.8 80.3,17 82,25.3 C83.7,33.6 85.1,42 86.1,50.4 C88.3,67.2 89.6,84.2 90.4,101.1 C91.2,118.1 91.4,135.1 91.3,152.1 C91.2,160.6 91.1,169.1 90.8,177.6 C90.7,181.9 90.5,186.1 90.3,190.4 C90.1,194.7 89.9,198.9 89.6,203.3 L66.8,200.6 Z" id="Path"></path>
                    <path d="M18.4,237.6 C18.5,237.4 18.6,236.8 18.7,236.4 C18.8,235.9 18.9,235.4 19,234.9 C19.2,233.9 19.3,232.8 19.5,231.7 C19.7,230.6 19.8,229.6 19.9,228.5 C20,227.4 20.1,226.3 20.2,225.2 C20.5,220.8 20.7,216.3 20.7,211.8 C20.7,209.5 20.7,207.3 20.5,205 L20.3,201.6 L20.2,199.9 L20,198.2 L19.3,191.4 L18.3,184.6 L18,182.9 L17.7,181.2 L17,177.8 C16.5,175.5 16.1,173.3 15.5,171 L13.7,164.3 C13.1,162.1 12.3,159.9 11.6,157.6 C10.3,153.1 8.4,148.8 6.7,144.4 C5.9,142.2 4.8,140.1 3.8,137.9 L0.8,131.5 L5,137.2 C6.4,139.1 7.9,141 9.2,143 C11.8,147 14.5,151 16.8,155.2 C18,157.3 19.2,159.4 20.3,161.5 L23.5,168 C24.6,170.2 25.5,172.4 26.5,174.6 L27.9,178 L28.6,179.7 L29.2,181.4 L31.7,188.3 L33.9,195.3 L34.4,197.1 L34.9,198.9 L35.9,202.5 C36.6,204.9 37.1,207.3 37.6,209.7 C38.7,214.6 39.5,219.5 40.1,224.5 C40.3,225.8 40.4,227 40.5,228.3 C40.6,229.6 40.7,230.8 40.8,232.1 C40.9,233.4 41,234.7 41,236 C41,236.7 41.1,237.3 41,238 C41,238.7 41,239.3 41,240.3 L18.4,237.6 Z" id="Path"></path>
                    <path d="M56.3,238.1 C56.1,233.7 55.8,229 55.5,224.5 C55.2,219.9 54.9,215.4 54.5,210.8 C53.8,201.7 52.9,192.5 52,183.4 C50.1,165.1 47.7,146.9 44.8,128.7 C41.8,110.6 38.3,92.5 33.7,74.6 C31.4,65.7 28.8,56.8 25.9,48.1 C22.9,39.4 19.6,30.7 15.5,22.3 C20.6,30.2 25,38.5 29.1,46.9 C33.2,55.3 36.9,64 40.3,72.7 C47.1,90.1 52.9,107.9 58.2,125.9 C63.4,143.8 68.1,161.9 72.2,180.1 C74.3,189.2 76.3,198.3 78.2,207.5 C79.1,212.1 80,216.7 80.9,221.3 C81.8,225.9 82.6,230.5 83.4,235.2 L56.3,238.1 Z" id="Path"></path>
                    <path d="M108,224 C107.9,223 108,222.4 108,221.7 C108,221 108,220.3 108,219.7 C108,218.4 108.1,217.1 108.2,215.8 C108.3,214.5 108.4,213.2 108.5,212 C108.6,210.7 108.7,209.5 108.9,208.2 C109.6,203.2 110.3,198.2 111.4,193.4 C111.9,191 112.4,188.5 113.1,186.2 L114.1,182.6 L114.6,180.8 L115.1,179 L117.3,172 L119.8,165.1 L120.4,163.4 L121.1,161.7 L122.5,158.3 C123.5,156.1 124.4,153.8 125.5,151.7 L128.7,145.2 C129.8,143.1 131.1,141 132.2,138.9 C134.5,134.7 137.2,130.7 139.8,126.7 C141,124.7 142.6,122.8 144,120.9 L148.2,115.2 L145.2,121.6 C144.2,123.8 143.1,125.8 142.3,128.1 C140.6,132.5 138.8,136.8 137.4,141.3 C136.7,143.5 135.9,145.7 135.3,148 L133.5,154.7 C132.9,156.9 132.4,159.2 132,161.5 L131.3,164.9 L131,166.6 L130.7,168.3 L129.7,175.1 L129,181.9 L128.8,183.6 L128.7,185.3 L128.5,188.7 C128.3,191 128.3,193.2 128.3,195.5 C128.2,200 128.4,204.5 128.8,208.9 C128.9,210 129,211.1 129.1,212.2 C129.2,213.3 129.3,214.4 129.5,215.4 C129.6,216.5 129.8,217.5 130,218.6 C130.1,219.1 130.2,219.6 130.3,220.1 C130.4,220.6 130.5,221.1 130.6,221.3 L108,224 Z" id="Path"></path>
                    <path d="M116.8,240.5 C116.7,239.5 116.8,238.9 116.8,238.2 C116.8,237.5 116.8,236.8 116.8,236.2 C116.8,234.9 116.9,233.6 117,232.3 C117.1,231 117.2,229.7 117.3,228.5 C117.4,227.2 117.5,226 117.7,224.7 C118.4,219.7 119.1,214.7 120.2,209.9 C120.7,207.5 121.2,205 121.9,202.7 L122.9,199.1 L123.4,197.3 L123.9,195.5 L126.1,188.5 L128.6,181.6 L129.2,179.9 L129.9,178.2 L131.3,174.8 C132.3,172.6 133.2,170.3 134.3,168.2 L137.5,161.7 C138.6,159.6 139.9,157.5 141,155.4 C143.3,151.2 146,147.2 148.6,143.2 C149.8,141.2 151.4,139.3 152.8,137.4 L157,131.7 L154,138.1 C153,140.3 151.9,142.3 151.1,144.6 C149.4,149 147.6,153.3 146.2,157.8 C145.5,160 144.7,162.2 144.1,164.5 L142.3,171.2 C141.7,173.4 141.2,175.7 140.8,178 L140.1,181.4 L139.8,183.1 L139.5,184.8 L138.5,191.6 L137.8,198.4 L137.6,200.1 L137.5,201.8 L137.3,205.2 C137.1,207.5 137.1,209.7 137.1,212 C137,216.5 137.2,221 137.6,225.4 C137.7,226.5 137.8,227.6 137.9,228.7 C138,229.8 138.1,230.9 138.3,231.9 C138.4,233 138.6,234 138.8,235.1 C138.9,235.6 139,236.1 139.1,236.6 C139.2,237.1 139.3,237.6 139.4,237.8 L116.8,240.5 Z" id="Path"></path>
                    <path d="M87.6,242.7 C87.5,241.5 87.4,240.5 87.3,239.5 L87.1,236.4 C87,234.4 86.8,232.3 86.7,230.3 C86.5,226.2 86.3,222.2 86.2,218.2 C86,210.1 86,202.1 86.3,194.1 C86.8,178 88,162.1 90.2,146.2 C91.3,138.3 92.6,130.4 94.1,122.6 C94.5,120.6 94.9,118.7 95.3,116.7 L96.6,110.9 C97.6,107 98.4,103.2 99.5,99.3 C103.6,83.9 108.9,68.9 115.4,54.6 C110.7,69.7 107.3,85 105.1,100.5 C104.5,104.4 104.1,108.3 103.6,112.1 L103,117.9 C102.8,119.8 102.6,121.8 102.5,123.7 C101.9,131.5 101.6,139.3 101.5,147 C101.3,162.5 102,178.1 103.4,193.5 C104.1,201.2 105,208.9 106.1,216.5 C106.6,220.3 107.3,224.1 107.9,227.9 C108.2,229.8 108.6,231.7 108.9,233.5 L109.5,236.3 C109.7,237.2 109.9,238.2 110.1,238.9 L87.6,242.7 Z" id="Path"></path>
                    <path d="M42.4,239.1 C42.5,238.3 42.5,237.3 42.5,236.4 L42.6,233.6 C42.7,231.7 42.7,229.8 42.7,227.9 C42.7,224.1 42.7,220.2 42.6,216.4 C42.4,208.7 42.1,201 41.5,193.3 C40.3,177.9 38.4,162.4 35.6,147.1 C34.2,139.5 32.6,131.8 30.7,124.3 C30.3,122.4 29.8,120.5 29.3,118.6 L27.8,112.9 C26.7,109.2 25.7,105.4 24.4,101.7 C19.7,86.8 13.8,72.2 6.7,58.1 C15.5,71.2 23.2,85.1 29.8,99.6 C31.5,103.2 33,106.9 34.6,110.5 L36.8,116 C37.6,117.8 38.3,119.7 39,121.6 C41.9,129 44.4,136.6 46.8,144.2 C51.6,159.5 55.5,175 58.6,190.8 C60.2,198.7 61.5,206.6 62.7,214.6 C63.3,218.6 63.8,222.6 64.3,226.6 C64.5,228.6 64.7,230.6 64.9,232.7 L65.2,235.8 C65.3,236.9 65.4,237.8 65.4,239 L42.4,239 L42.4,239.1 Z" id="Path"></path>
                    <path d="M92.6,239.1 C92.7,237.9 92.7,236.9 92.8,235.9 L93.1,232.8 C93.3,230.8 93.5,228.7 93.7,226.7 C94.2,222.7 94.7,218.7 95.3,214.7 C96.5,206.7 97.8,198.8 99.4,190.9 C102.6,175.2 106.4,159.6 111.2,144.3 C113.6,136.7 116.1,129.1 119,121.7 C119.7,119.8 120.4,118 121.2,116.1 L123.4,110.6 C125,106.9 126.5,103.3 128.2,99.7 C134.8,85.2 142.5,71.3 151.3,58.2 C144.2,72.3 138.3,86.8 133.6,101.8 C132.4,105.5 131.3,109.3 130.2,113 L128.7,118.7 C128.2,120.6 127.7,122.5 127.3,124.4 C125.4,132 123.8,139.6 122.4,147.2 C119.6,162.5 117.7,177.9 116.5,193.4 C115.9,201.1 115.5,208.8 115.4,216.5 C115.3,220.3 115.3,224.2 115.3,228 C115.3,229.9 115.3,231.8 115.4,233.7 L115.5,236.5 C115.5,237.4 115.6,238.4 115.6,239.2 L92.6,239.2 L92.6,239.1 Z" id="Path"></path>
                    <path d="M67.5,239 C67.8,235 68,230.8 68.2,226.6 C68.4,222.4 68.5,218.3 68.7,214.1 C69,205.8 69.1,197.4 69.2,189 C69.3,172.3 69.1,155.5 68.4,138.8 C67.6,122.1 66.4,105.4 64.3,88.7 C63.3,80.4 61.9,72.1 60.3,63.9 C58.6,55.7 56.6,47.5 54,39.5 C57.5,47.2 60.5,55.1 63.1,63.2 C65.7,71.3 68,79.4 70,87.7 C74.1,104.2 77.2,120.9 79.9,137.7 C82.6,154.5 84.7,171.3 86.5,188.2 C87.4,196.7 88.2,205.1 88.9,213.6 C89.3,217.8 89.6,222.1 89.9,226.3 C90.2,230.6 90.5,234.8 90.7,239.2 L67.5,239 Z" id="Path"></path>
                </g>
                <g id="Group" transform="translate(4.000000, 235.000000)">
                    <polygon id="Path" fill="#FFFFFF" fill-rule="nonzero" points="129.2 117.9 20.7 117.9 11.5 17.9 138.5 17.9"></polygon>
                    <polygon id="Path" fill="#EDEFF0" fill-rule="nonzero" points="11.5 17.9 20.7 117.9 40.8 117.9 31.6 17.9"></polygon>
                    <polygon id="Path" stroke="#E6E6E6" stroke-width="3" points="129.2 117.9 20.7 117.9 11.5 17.9 138.5 17.9"></polygon>
                    <rect id="Rectangle" fill="#FFFFFF" fill-rule="nonzero" x="0.3" y="0.1" width="149.4" height="17.8"></rect>
                    <rect id="Rectangle" fill="#EDEFF0" fill-rule="nonzero" x="0.3" y="9" width="149.4" height="8.9"></rect>
                    <rect id="Rectangle" stroke="#E6E6E6" stroke-width="3" x="0.3" y="0.1" width="149.4" height="17.8"></rect>
                </g>
            </g>
            <g id="Group" transform="translate(2296.000000, 80.000000)">
                <path d="M25.4,34.9 L25.4,64.4 L25.4,569.9 L25.4,599.4 L589.8,599.4 L589.8,569.9 L589.8,64.3 L589.8,34.8 L25.4,34.8 L25.4,34.9 Z M560.4,569.8 L54.9,569.8 L54.9,64.3 L560.4,64.3 L560.4,569.8 Z" id="Shape" fill="#FFFFFF" fill-rule="nonzero"></path>
                <polygon id="Path" fill="#FFFFFF" fill-rule="nonzero" points="560.4 302.4 322.4 302.4 322.4 64.3 292.9 64.3 292.9 302.4 54.9 302.4 54.9 331.8 292.9 331.8 292.9 569.8 322.4 569.8 322.4 331.8 560.4 331.8"></polygon>
                <rect id="Rectangle" fill="#F2F2F2" fill-rule="nonzero" x="292.4" y="64.3" width="15.3" height="505.5"></rect>
                <rect id="Rectangle" fill="#F2F2F2" fill-rule="nonzero" transform="translate(441.356000, 309.518800) rotate(90.000000) translate(-441.356000, -309.518800) " x="433.706" y="190.5188" width="15.3" height="238"></rect>
                <rect id="Rectangle" fill="#F2F2F2" fill-rule="nonzero" transform="translate(173.873500, 309.501000) rotate(90.000000) translate(-173.873500, -309.501000) " x="166.2235" y="190.501" width="15.3" height="238"></rect>
                <path d="M25.4,34.9 L25.4,64.4 L25.4,569.9 L25.4,599.4 L589.8,599.4 L589.8,569.9 L589.8,64.3 L589.8,34.8 L25.4,34.8 L25.4,34.9 Z M560.4,569.8 L54.9,569.8 L54.9,64.3 L560.4,64.3 L560.4,569.8 Z" id="Shape" stroke="#E6E6E6" stroke-width="3"></path>
                <rect id="Rectangle" fill="#F2F2F2" fill-rule="nonzero" x="0" y="17.4" width="615.3" height="17.4"></rect>
                <rect id="Rectangle" fill="#F2F2F2" fill-rule="nonzero" x="0" y="599.3" width="615.3" height="17.4"></rect>
                <polygon id="Path" stroke="#E6E6E6" stroke-width="3" points="560.4 302.4 322.4 302.4 322.4 64.3 292.9 64.3 292.9 302.4 54.9 302.4 54.9 331.8 292.9 331.8 292.9 569.8 322.4 569.8 322.4 331.8 560.4 331.8"></polygon>
                <rect id="Rectangle" stroke="#E6E6E6" stroke-width="3" x="0" y="599.3" width="615.3" height="34.9"></rect>
                <rect id="Rectangle" stroke="#E6E6E6" stroke-width="3" x="0" y="0" width="615.3" height="34.9"></rect>
            </g>
            <g id="Group" transform="translate(5088.000000, 79.000000)">
                <path d="M26.1,35.9 L26.1,65.4 L26.1,570.9 L26.1,600.4 L590.5,600.4 L590.5,570.9 L590.5,65.3 L590.5,35.8 L26.1,35.8 L26.1,35.9 Z M55.6,65.3 L561.1,65.3 L561.1,570.8 L55.6,570.8 L55.6,65.3 Z" id="Shape" fill="#FFFFFF" fill-rule="nonzero"></path>
                <polygon id="Path" fill="#FFFFFF" fill-rule="nonzero" points="55.6 303.4 293.6 303.4 293.6 65.3 323.1 65.3 323.1 303.4 561.1 303.4 561.1 332.8 323.1 332.8 323.1 570.8 293.6 570.8 293.6 332.8 55.6 332.8"></polygon>
                <rect id="Rectangle" fill="#F2F2F2" fill-rule="nonzero" transform="translate(316.005100, 318.134800) rotate(-180.000000) translate(-316.005100, -318.134800) " x="308.3551" y="65.3847998" width="15.3" height="505.5"></rect>
                <rect id="Rectangle" fill="#F2F2F2" fill-rule="nonzero" transform="translate(174.568800, 310.506000) rotate(90.000000) translate(-174.568800, -310.506000) " x="166.9188" y="191.506" width="15.3" height="238"></rect>
                <rect id="Rectangle" fill="#F2F2F2" fill-rule="nonzero" transform="translate(442.050800, 310.523500) rotate(90.000000) translate(-442.050800, -310.523500) " x="434.4008" y="191.5235" width="15.3" height="238"></rect>
                <path d="M26.1,35.9 L26.1,65.4 L26.1,570.9 L26.1,600.4 L590.5,600.4 L590.5,570.9 L590.5,65.3 L590.5,35.8 L26.1,35.8 L26.1,35.9 Z M55.6,65.3 L561.1,65.3 L561.1,570.8 L55.6,570.8 L55.6,65.3 Z" id="Shape" stroke="#E6E6E6" stroke-width="3"></path>
                <rect id="Rectangle" fill="#F2F2F2" fill-rule="nonzero" transform="translate(308.345300, 27.209300) rotate(-180.000000) translate(-308.345300, -27.209300) " x="0.695300005" y="18.5092998" width="615.3" height="17.4"></rect>
                <rect id="Rectangle" fill="#F2F2F2" fill-rule="nonzero" transform="translate(308.345300, 609.060200) rotate(-180.000000) translate(-308.345300, -609.060200) " x="0.695300031" y="600.3602" width="615.3" height="17.4"></rect>
                <polygon id="Path" stroke="#E6E6E6" stroke-width="3" points="55.6 303.4 293.6 303.4 293.6 65.3 323.1 65.3 323.1 303.4 561.1 303.4 561.1 332.8 323.1 332.8 323.1 570.8 293.6 570.8 293.6 332.8 55.6 332.8"></polygon>
                <rect id="Rectangle" stroke="#E6E6E6" stroke-width="3" transform="translate(308.345300, 617.746700) rotate(-180.000000) translate(-308.345300, -617.746700) " x="0.695300031" y="600.2967" width="615.3" height="34.9"></rect>
                <rect id="Rectangle" stroke="#E6E6E6" stroke-width="3" transform="translate(308.345300, 18.422900) rotate(-180.000000) translate(-308.345300, -18.422900) " x="0.695300004" y="0.972899758" width="615.3" height="34.9"></rect>
            </g>
            <g id="Shelf_Right_1_" transform="translate(6214.000000, 118.000000)">
                <g id="Group" transform="translate(0.000000, 182.000000)">
                    <rect id="Rectangle" fill="#FFFFFF" fill-rule="nonzero" x="0.3" y="0.8" width="417.8" height="18.1"></rect>
                    <rect id="Rectangle" stroke="#E6E6E6" stroke-width="3" x="0.3" y="0.8" width="417.8" height="18.1"></rect>
                    <rect id="Rectangle" fill="#EDEFF0" fill-rule="nonzero" transform="translate(27.431900, 27.036900) rotate(90.000000) translate(-27.431900, -27.036900) " x="19.2819" y="17.9869" width="16.3" height="18.1"></rect>
                    <rect id="Rectangle" fill="#EDEFF0" fill-rule="nonzero" transform="translate(390.994899, 27.073400) rotate(90.000000) translate(-390.994899, -27.073400) " x="382.844899" y="18.0234" width="16.3" height="18.1"></rect>
                    <rect id="Rectangle" stroke="#E6E6E6" stroke-width="3" transform="translate(27.460400, 35.165300) rotate(90.000000) translate(-27.460400, -35.165300) " x="11.2104" y="26.1153" width="32.5" height="18.1"></rect>
                    <rect id="Rectangle" stroke="#E6E6E6" stroke-width="3" transform="translate(391.023300, 35.202300) rotate(90.000000) translate(-391.023300, -35.202300) " x="374.7733" y="26.1523" width="32.5" height="18.1"></rect>
                </g>
                <g id="Group" transform="translate(36.000000, 0.000000)" stroke="#E6E6E6" stroke-width="3">
                    <rect id="Rectangle" x="0.5" y="0.3" width="41.2" height="182.5"></rect>
                    <rect id="Rectangle" transform="translate(21.108500, 72.184700) rotate(90.000000) translate(-21.108500, -72.184700) " x="-40.7415" y="61.5847" width="123.7" height="21.2"></rect>
                    <circle id="Oval" cx="21.1" cy="159.8" r="7.5"></circle>
                </g>
                <g id="Group" transform="translate(77.000000, 0.000000)" stroke="#E6E6E6" stroke-width="3">
                    <rect id="Rectangle" x="0.7" y="0.3" width="41.2" height="182.5"></rect>
                    <rect id="Rectangle" transform="translate(21.308700, 72.184500) rotate(90.000000) translate(-21.308700, -72.184500) " x="-40.5413" y="61.5845" width="123.7" height="21.2"></rect>
                    <circle id="Oval" cx="21.3" cy="159.8" r="7.5"></circle>
                </g>
                <g id="Group" transform="translate(118.000000, 0.000000)" stroke="#E6E6E6" stroke-width="3">
                    <rect id="Rectangle" x="0.9" y="0.3" width="41.2" height="182.5"></rect>
                    <rect id="Rectangle" transform="translate(21.508900, 72.184300) rotate(90.000000) translate(-21.508900, -72.184300) " x="-40.3411" y="61.5843" width="123.7" height="21.2"></rect>
                    <circle id="Oval" cx="21.5" cy="159.8" r="7.5"></circle>
                </g>
                <g id="Group" transform="translate(160.000000, 0.000000)" stroke="#E6E6E6" stroke-width="3">
                    <rect id="Rectangle" x="0.1" y="0.3" width="41.2" height="182.5"></rect>
                    <rect id="Rectangle" transform="translate(20.709100, 72.184100) rotate(90.000000) translate(-20.709100, -72.184100) " x="-41.1409" y="61.5841" width="123.7" height="21.2"></rect>
                    <circle id="Oval" cx="20.7" cy="159.8" r="7.5"></circle>
                </g>
                <g id="Group" transform="translate(201.000000, 0.000000)" stroke="#E6E6E6" stroke-width="3">
                    <rect id="Rectangle" x="0.3" y="0.3" width="41.2" height="182.5"></rect>
                    <rect id="Rectangle" transform="translate(20.909300, 72.183900) rotate(90.000000) translate(-20.909300, -72.183900) " x="-40.9407" y="61.5839" width="123.7" height="21.2"></rect>
                    <circle id="Oval" cx="20.9" cy="159.8" r="7.5"></circle>
                </g>
                <g id="Group" transform="translate(242.000000, 0.000000)" stroke="#E6E6E6" stroke-width="3">
                    <rect id="Rectangle" x="0.5" y="0.3" width="41.2" height="182.5"></rect>
                    <rect id="Rectangle" transform="translate(21.109500, 72.183700) rotate(90.000000) translate(-21.109500, -72.183700) " x="-40.7405" y="61.5837" width="123.7" height="21.2"></rect>
                    <circle id="Oval" cx="21.1" cy="159.8" r="7.5"></circle>
                </g>
                <g id="Group" transform="translate(283.000000, 0.000000)" stroke="#E6E6E6" stroke-width="3">
                    <rect id="Rectangle" x="0.7" y="0.3" width="41.2" height="182.5"></rect>
                    <rect id="Rectangle" transform="translate(21.309700, 72.183500) rotate(90.000000) translate(-21.309700, -72.183500) " x="-40.5403" y="61.5835" width="123.7" height="21.2"></rect>
                    <circle id="Oval" cx="21.3" cy="159.8" r="7.5"></circle>
                </g>
                <g id="Group" transform="translate(324.000000, 0.000000)" stroke="#E6E6E6" stroke-width="3">
                    <rect id="Rectangle" x="0.9" y="0.3" width="41.2" height="182.5"></rect>
                    <rect id="Rectangle" transform="translate(21.509900, 72.183300) rotate(90.000000) translate(-21.509900, -72.183300) " x="-40.3401" y="61.5833" width="123.7" height="21.2"></rect>
                    <circle id="Oval" cx="21.5" cy="159.8" r="7.5"></circle>
                </g>
            </g>
            <g id="Shelf_Right_4_" transform="translate(6711.000000, 118.000000)">
                <g id="Group" transform="translate(0.000000, 182.000000)">
                    <rect id="Rectangle" fill="#FFFFFF" fill-rule="nonzero" x="0" y="0.8" width="417.8" height="18.1"></rect>
                    <rect id="Rectangle" stroke="#E6E6E6" stroke-width="3" x="0" y="0.8" width="417.8" height="18.1"></rect>
                    <rect id="Rectangle" fill="#EDEFF0" fill-rule="nonzero" transform="translate(27.125800, 27.042600) rotate(90.000000) translate(-27.125800, -27.042600) " x="18.9758" y="17.9926" width="16.3" height="18.1"></rect>
                    <rect id="Rectangle" fill="#EDEFF0" fill-rule="nonzero" transform="translate(390.688799, 27.079600) rotate(90.000000) translate(-390.688799, -27.079600) " x="382.538799" y="18.0296" width="16.3" height="18.1"></rect>
                    <rect id="Rectangle" stroke="#E6E6E6" stroke-width="3" transform="translate(27.154700, 35.171000) rotate(90.000000) translate(-27.154700, -35.171000) " x="10.9047" y="26.121" width="32.5" height="18.1"></rect>
                    <rect id="Rectangle" stroke="#E6E6E6" stroke-width="3" transform="translate(390.717700, 35.108000) rotate(90.000000) translate(-390.717700, -35.108000) " x="374.4677" y="26.058" width="32.5" height="18.1"></rect>
                </g>
                <g id="Group" transform="translate(209.000000, 61.000000)" stroke="#E6E6E6" stroke-width="3">
                    <rect id="Rectangle" x="0.8" y="0" width="31.5" height="121.9"></rect>
                    <rect id="Rectangle" x="0.8" y="12" width="31.5" height="7.4"></rect>
                    <line x1="16.5" y1="34.8" x2="16.5" y2="73" id="Path"></line>
                </g>
                <g id="Group" transform="translate(272.000000, 61.000000)" stroke="#E6E6E6" stroke-width="3">
                    <rect id="Rectangle" x="0.7" y="0" width="31.5" height="121.9"></rect>
                    <rect id="Rectangle" x="0.7" y="12" width="31.5" height="7.4"></rect>
                    <line x1="16.5" y1="34.8" x2="16.5" y2="73" id="Path"></line>
                </g>
                <g id="Group" transform="translate(304.000000, 61.000000)" stroke="#E6E6E6" stroke-width="3">
                    <rect id="Rectangle" x="0.2" y="0" width="31.5" height="121.9"></rect>
                    <rect id="Rectangle" x="0.2" y="12" width="31.5" height="7.4"></rect>
                    <line x1="15.9" y1="34.8" x2="15.9" y2="73" id="Path"></line>
                </g>
                <g id="Group" transform="translate(241.000000, 35.000000)" stroke="#E6E6E6" stroke-width="3">
                    <rect id="Rectangle" x="0.3" y="0" width="31.5" height="147.8"></rect>
                    <line x1="16" y1="16.6" x2="16" y2="73" id="Path"></line>
                </g>
                <g id="Group" transform="translate(36.000000, 0.000000)" stroke="#E6E6E6" stroke-width="3">
                    <rect id="Rectangle" x="0.2" y="0.3" width="41.2" height="182.5"></rect>
                    <rect id="Rectangle" transform="translate(20.802300, 72.190300) rotate(90.000000) translate(-20.802300, -72.190300) " x="-41.0477" y="61.5903" width="123.7" height="21.2"></rect>
                    <circle id="Oval" cx="20.8" cy="159.8" r="7.5"></circle>
                </g>
                <g id="Group" transform="translate(77.000000, 0.000000)" stroke="#E6E6E6" stroke-width="3">
                    <rect id="Rectangle" x="0.4" y="0.3" width="41.2" height="182.5"></rect>
                    <rect id="Rectangle" transform="translate(21.002500, 72.190100) rotate(90.000000) translate(-21.002500, -72.190100) " x="-40.8475" y="61.5901" width="123.7" height="21.2"></rect>
                    <circle id="Oval" cx="21" cy="159.8" r="7.5"></circle>
                </g>
                <g id="Group" transform="translate(118.000000, 0.000000)" stroke="#E6E6E6" stroke-width="3">
                    <rect id="Rectangle" x="0.6" y="0.3" width="41.2" height="182.5"></rect>
                    <rect id="Rectangle" transform="translate(21.202700, 72.189900) rotate(90.000000) translate(-21.202700, -72.189900) " x="-40.6473" y="61.5899" width="123.7" height="21.2"></rect>
                    <circle id="Oval" cx="21.2" cy="159.8" r="7.5"></circle>
                </g>
            </g>
            <g id="Shelf_Right_3_" transform="translate(3019.000000, 118.000000)">
                <g id="Group" transform="translate(0.000000, 148.000000)">
                    <rect id="Rectangle" fill="#FFFFFF" fill-rule="nonzero" transform="translate(209.599800, 9.116100) rotate(-180.000000) translate(-209.599800, -9.116100) " x="0.699800012" y="0.066099855" width="417.8" height="18.1"></rect>
                    <rect id="Rectangle" stroke="#E6E6E6" stroke-width="3" transform="translate(209.599800, 9.116100) rotate(-180.000000) translate(-209.599800, -9.116100) " x="0.699800012" y="0.066099855" width="417.8" height="18.1"></rect>
                    <rect id="Rectangle" fill="#EDEFF0" fill-rule="nonzero" transform="translate(391.381900, 26.319400) rotate(90.000000) translate(-391.381900, -26.319400) " x="383.2319" y="17.2694" width="16.3" height="18.1"></rect>
                    <rect id="Rectangle" fill="#EDEFF0" fill-rule="nonzero" transform="translate(27.818900, 26.282400) rotate(90.000000) translate(-27.818900, -26.282400) " x="19.6689001" y="17.2324" width="16.3" height="18.1"></rect>
                    <rect id="Rectangle" stroke="#E6E6E6" stroke-width="3" transform="translate(391.410600, 34.448000) rotate(90.000000) translate(-391.410600, -34.448000) " x="375.1606" y="25.398" width="32.5" height="18.1"></rect>
                    <rect id="Rectangle" stroke="#E6E6E6" stroke-width="3" transform="translate(27.847600, 34.411000) rotate(90.000000) translate(-27.847600, -34.411000) " x="11.5976" y="25.361" width="32.5" height="18.1"></rect>
                </g>
                <g id="Group" transform="translate(177.000000, 26.000000)" stroke="#E6E6E6" stroke-width="3">
                    <rect id="Rectangle" transform="translate(16.010100, 61.181100) rotate(-180.000000) translate(-16.010100, -61.181100) " x="0.260100009" y="0.231099856" width="31.5" height="121.9"></rect>
                    <rect id="Rectangle" transform="translate(16.010100, 15.942500) rotate(-180.000000) translate(-16.010100, -15.942500) " x="0.260100007" y="12.2424999" width="31.5" height="7.4"></rect>
                    <line x1="16" y1="35.1" x2="16" y2="73.2" id="Path"></line>
                </g>
                <g id="Group" transform="translate(114.000000, 26.000000)" stroke="#E6E6E6" stroke-width="3">
                    <rect id="Rectangle" transform="translate(16.035500, 61.181100) rotate(-180.000000) translate(-16.035500, -61.181100) " x="0.285500009" y="0.231099859" width="31.5" height="121.9"></rect>
                    <rect id="Rectangle" transform="translate(16.035500, 15.942500) rotate(-180.000000) translate(-16.035500, -15.942500) " x="0.285500007" y="12.2424999" width="31.5" height="7.4"></rect>
                    <line x1="16.1" y1="35.1" x2="16.1" y2="73.2" id="Path"></line>
                </g>
                <g id="Group" transform="translate(82.000000, 26.000000)" stroke="#E6E6E6" stroke-width="3">
                    <rect id="Rectangle" transform="translate(16.598500, 61.181100) rotate(-180.000000) translate(-16.598500, -61.181100) " x="0.848500009" y="0.23109986" width="31.5" height="121.9"></rect>
                    <rect id="Rectangle" transform="translate(16.598500, 15.942500) rotate(-180.000000) translate(-16.598500, -15.942500) " x="0.848500007" y="12.2424999" width="31.5" height="7.4"></rect>
                    <line x1="16.6" y1="35.1" x2="16.6" y2="73.2" id="Path"></line>
                </g>
                <g id="Group" transform="translate(145.000000, 0.000000)" stroke="#E6E6E6" stroke-width="3">
                    <rect id="Rectangle" transform="translate(16.573000, 74.186200) rotate(-180.000000) translate(-16.573000, -74.186200) " x="0.823000009" y="0.286199857" width="31.5" height="147.8"></rect>
                    <line x1="16.6" y1="16.9" x2="16.6" y2="73.3" id="Path"></line>
                </g>
                <g id="Group" transform="translate(303.000000, 26.000000)" stroke="#E6E6E6" stroke-width="3">
                    <rect id="Rectangle" transform="translate(16.730100, 61.181100) rotate(-180.000000) translate(-16.730100, -61.181100) " x="0.980100009" y="0.23109985" width="31.5" height="121.9"></rect>
                    <rect id="Rectangle" transform="translate(16.730100, 15.942500) rotate(-180.000000) translate(-16.730100, -15.942500) " x="0.980100007" y="12.2424999" width="31.5" height="7.4"></rect>
                    <line x1="16.8" y1="35.1" x2="16.8" y2="73.2" id="Path"></line>
                </g>
                <g id="Group" transform="translate(241.000000, 26.000000)" stroke="#E6E6E6" stroke-width="3">
                    <rect id="Rectangle" transform="translate(15.855600, 61.181100) rotate(-180.000000) translate(-15.855600, -61.181100) " x="0.105600009" y="0.231099853" width="31.5" height="121.9"></rect>
                    <line x1="15.9" y1="35.1" x2="15.9" y2="73.2" id="Path"></line>
                </g>
                <g id="Group" transform="translate(209.000000, 26.000000)" stroke="#E6E6E6" stroke-width="3">
                    <rect id="Rectangle" transform="translate(16.418100, 61.181100) rotate(-180.000000) translate(-16.418100, -61.181100) " x="0.668100009" y="0.231099854" width="31.5" height="121.9"></rect>
                    <rect id="Rectangle" transform="translate(16.418100, 15.942500) rotate(-180.000000) translate(-16.418100, -15.942500) " x="0.668100007" y="12.2424999" width="31.5" height="7.4"></rect>
                    <line x1="16.4" y1="35.1" x2="16.4" y2="73.2" id="Path"></line>
                </g>
                <g id="Group" transform="translate(272.000000, 0.000000)" stroke="#E6E6E6" stroke-width="3">
                    <rect id="Rectangle" transform="translate(16.292600, 74.186200) rotate(-180.000000) translate(-16.292600, -74.186200) " x="0.542600009" y="0.286199852" width="31.5" height="147.8"></rect>
                    <line x1="16.3" y1="16.9" x2="16.3" y2="73.3" id="Path"></line>
                </g>
            </g>
            <g id="Group" transform="translate(3605.000000, 204.000000)">
                <g transform="translate(167.000000, 98.000000)" stroke="#FCEE21" stroke-width="3">
                    <g id="Path">
                        <path d="M79.9,9.4 L5.2,9.4 C2.7,9.4 0.8,7.4 0.8,5 L0.8,5 C0.8,2.5 2.8,0.6 5.2,0.6 L79.9,0.6 C82.4,0.6 84.3,2.6 84.3,5 L84.3,5 C84.3,7.4 82.3,9.4 79.9,9.4 Z"></path>
                        <path d="M11.5,9.4 L11.5,20.4 C11.5,28.6 14.7,36.1 20,41.7 C29.2,51.4 34.7,44.1 34.7,57.5 L34.7,65.8 L50.2,65.8 L50.2,57.5 C50.2,44.1 55.7,51.4 64.9,41.7 C70.2,36.2 73.4,28.7 73.4,20.4 L73.4,9.4 L11.5,9.4 Z"></path>
                        <path d="M58.4,78.8 L26.7,78.8 L26.7,71.6 C26.7,68.4 29.3,65.8 32.5,65.8 L52.6,65.8 C55.8,65.8 58.4,68.4 58.4,71.6 L58.4,78.8 L58.4,78.8 Z"></path>
                        <path d="M66.5,85.6 L18.6,85.6 L18.6,85.6 C18.6,81.9 21.6,78.8 25.4,78.8 L59.7,78.8 C63.4,78.8 66.5,81.8 66.5,85.6 L66.5,85.6 Z"></path>
                    </g>
                    <circle id="Oval" cx="42.5" cy="28.3" r="10.8"></circle>
                </g>
                <g transform="translate(0.000000, 183.000000)" id="Rectangle">
                    <rect fill="#FFFFFF" fill-rule="nonzero" x="0.6" y="0.5" width="417.8" height="18.1"></rect>
                    <rect stroke="#E6E6E6" stroke-width="3" x="0.6" y="0.5" width="417.8" height="18.1"></rect>
                    <rect fill="#EDEFF0" fill-rule="nonzero" transform="translate(27.773300, 26.702600) rotate(90.000000) translate(-27.773300, -26.702600) " x="19.6233" y="17.6526" width="16.3" height="18.1"></rect>
                    <rect fill="#EDEFF0" fill-rule="nonzero" transform="translate(391.336300, 26.739600) rotate(90.000000) translate(-391.336300, -26.739600) " x="383.1863" y="17.6896" width="16.3" height="18.1"></rect>
                    <rect stroke="#E6E6E6" stroke-width="3" transform="translate(27.702000, 34.831300) rotate(90.000000) translate(-27.702000, -34.831300) " x="11.452" y="25.7813" width="32.5" height="18.1"></rect>
                    <rect stroke="#E6E6E6" stroke-width="3" transform="translate(391.265200, 34.768300) rotate(90.000000) translate(-391.265200, -34.768300) " x="375.0152" y="25.7183" width="32.5" height="18.1"></rect>
                </g>
                <g transform="translate(31.000000, 0.000000)" stroke="#E6E6E6" stroke-width="3">
                    <g>
                        <rect id="Rectangle" x="0.1" y="0.9" width="41.2" height="182.5"></rect>
                        <rect id="Rectangle" transform="translate(20.688300, 72.812300) rotate(90.000000) translate(-20.688300, -72.812300) " x="-41.1617" y="62.2123" width="123.7" height="21.2"></rect>
                        <circle id="Oval" cx="20.7" cy="160.4" r="7.5"></circle>
                    </g>
                    <g transform="translate(41.000000, 0.000000)">
                        <rect id="Rectangle" x="0.3" y="0.9" width="41.2" height="182.5"></rect>
                        <rect id="Rectangle" transform="translate(20.888500, 72.812100) rotate(90.000000) translate(-20.888500, -72.812100) " x="-40.9615" y="62.2121" width="123.7" height="21.2"></rect>
                        <circle id="Oval" cx="20.9" cy="160.4" r="7.5"></circle>
                    </g>
                    <g transform="translate(82.000000, 0.000000)">
                        <rect id="Rectangle" x="0.5" y="0.9" width="41.2" height="182.5"></rect>
                        <rect id="Rectangle" transform="translate(21.088700, 72.811900) rotate(90.000000) translate(-21.088700, -72.811900) " x="-40.7613" y="62.2119" width="123.7" height="21.2"></rect>
                        <circle id="Oval" cx="21.1" cy="160.4" r="7.5"></circle>
                    </g>
                    <g transform="translate(234.000000, 0.000000)">
                        <rect id="Rectangle" x="0.7" y="0.9" width="41.2" height="182.5"></rect>
                        <rect id="Rectangle" transform="translate(21.313300, 72.787300) rotate(90.000000) translate(-21.313300, -72.787300) " x="-40.5367" y="62.1873" width="123.7" height="21.2"></rect>
                        <circle id="Oval" cx="21.3" cy="160.4" r="7.5"></circle>
                    </g>
                    <g transform="translate(275.000000, 0.000000)">
                        <rect id="Rectangle" x="0.9" y="0.9" width="41.2" height="182.5"></rect>
                        <rect id="Rectangle" transform="translate(21.513500, 72.787100) rotate(90.000000) translate(-21.513500, -72.787100) " x="-40.3365" y="62.1871" width="123.7" height="21.2"></rect>
                        <circle id="Oval" cx="21.5" cy="160.4" r="7.5"></circle>
                    </g>
                    <g transform="translate(317.000000, 0.000000)">
                        <rect id="Rectangle" x="0.1" y="0.9" width="41.2" height="182.5"></rect>
                        <rect id="Rectangle" transform="translate(20.713700, 72.786900) rotate(90.000000) translate(-20.713700, -72.786900) " x="-41.1363" y="62.1869" width="123.7" height="21.2"></rect>
                        <circle id="Oval" cx="20.7" cy="160.4" r="7.5"></circle>
                    </g>
                </g>
            </g>
            <g id="Clock_1_" transform="translate(4239.000000, 187.000000)">
                <circle id="Oval" stroke="#97A2A6" stroke-width="3" stroke-linecap="round" stroke-linejoin="round" cx="121.7" cy="121.6" r="103.7"></circle>
                <path d="M121.7,29.1 C70.7,29.1 29.2,70.6 29.2,121.6 C29.2,172.6 70.7,214.1 121.7,214.1 C172.7,214.1 214.2,172.6 214.2,121.6 C214.2,70.6 172.7,29.1 121.7,29.1 Z M121.7,204.9 C75.8,204.9 38.4,167.5 38.4,121.6 C38.4,75.7 75.8,38.3 121.7,38.3 C167.6,38.3 205,75.7 205,121.6 C205,167.5 167.6,204.9 121.7,204.9 Z" id="Shape" fill="#EDEFF0" fill-rule="nonzero"></path>
                <circle id="Oval" stroke="#97A2A6" stroke-width="3.00007575" stroke-linecap="round" stroke-linejoin="round" transform="translate(121.783550, 121.529550) rotate(-22.500428) translate(-121.783550, -121.529550) " cx="121.78355" cy="121.52955" r="92.5023356"></circle>
                <g id="Group" transform="translate(39.000000, 39.000000)" stroke="#97A2A6" stroke-linecap="round" stroke-linejoin="round" stroke-width="3">
                    <line x1="82.7" y1="0.2" x2="82.7" y2="12.3" id="Path"></line>
                    <line x1="41.5" y1="11.3" x2="47.5" y2="21.7" id="Path"></line>
                    <line x1="11.3" y1="41.4" x2="21.8" y2="47.5" id="Path"></line>
                    <line x1="0.3" y1="82.6" x2="12.3" y2="82.6" id="Path"></line>
                    <line x1="11.3" y1="123.8" x2="21.8" y2="117.8" id="Path"></line>
                    <line x1="41.5" y1="154" x2="47.5" y2="143.5" id="Path"></line>
                    <line x1="82.7" y1="165" x2="82.7" y2="153" id="Path"></line>
                    <line x1="123.9" y1="154" x2="117.8" y2="143.5" id="Path"></line>
                    <line x1="154.1" y1="123.8" x2="143.6" y2="117.8" id="Path"></line>
                    <line x1="165.1" y1="82.6" x2="153" y2="82.6" id="Path"></line>
                    <line x1="154.1" y1="41.4" x2="143.6" y2="47.5" id="Path"></line>
                    <line x1="123.9" y1="11.3" x2="117.8" y2="21.7" id="Path"></line>
                </g>
                <polyline id="Path" stroke="#97A2A6" stroke-width="3" stroke-linecap="round" stroke-linejoin="round" points="121.7 77.2 121.7 121.6 164.8 162.8"></polyline>
            </g>
            <g id="Shelf_Left_2_" transform="translate(865.000000, 26.000000)">
                <g id="Cactus_Plant_3_" transform="translate(7.000000, 104.000000)">
                    <g id="Group" fill="#FFFFFF" fill-rule="nonzero" stroke="#8DD9C2" stroke-linecap="round" stroke-linejoin="round" stroke-width="3">
                        <path d="M69.4,46.7 C69.4,74.9 55.1,107.8 37.4,107.8 C19.7,107.8 5.4,74.9 5.4,46.7 C5.4,18.5 19.7,5.6 37.4,5.6 C55.1,5.6 69.4,18.5 69.4,46.7 Z" id="Path"></path>
                        <path d="M50,46.7 C50,74.9 44.4,107.8 37.4,107.8 C30.4,107.8 24.8,74.9 24.8,46.7 C24.8,18.5 30.4,5.6 37.4,5.6 C44.4,5.6 50,18.5 50,46.7 Z" id="Path"></path>
                        <g id="Path">
                            <line x1="26.8" y1="22" x2="21.6" y2="20.4"></line>
                            <line x1="25.3" y1="33.3" x2="19.5" y2="32.2"></line>
                            <line x1="24.8" y1="46.7" x2="19.5" y2="46.7"></line>
                            <line x1="25.1" y1="57.6" x2="19.5" y2="58.8"></line>
                            <line x1="26.1" y1="71.2" x2="21.6" y2="72.2"></line>
                            <line x1="23.8" y1="8.6" x2="19.5" y2="4.4"></line>
                            <line x1="32.7" y1="6" x2="30.9" y2="0.5"></line>
                            <line x1="14.9" y1="15.5" x2="10.6" y2="12.7"></line>
                            <line x1="9.6" y1="24.1" x2="4.5" y2="24.1"></line>
                            <line x1="5.9" y1="38.3" x2="0.7" y2="38.3"></line>
                            <line x1="5.4" y1="50.3" x2="0.7" y2="52.1"></line>
                            <line x1="6.5" y1="60.3" x2="1.7" y2="64.4"></line>
                            <line x1="8.7" y1="71.2" x2="4.1" y2="74"></line>
                        </g>
                        <g transform="translate(42.000000, 0.000000)" id="Path">
                            <line x1="6" y1="22" x2="11.3" y2="20.4"></line>
                            <line x1="7.5" y1="33.3" x2="13.3" y2="32.2"></line>
                            <line x1="8" y1="46.7" x2="13.3" y2="46.7"></line>
                            <line x1="7.8" y1="57.6" x2="13.3" y2="58.8"></line>
                            <line x1="6.7" y1="71.2" x2="11.3" y2="72.2"></line>
                            <line x1="9" y1="8.6" x2="13.3" y2="4.4"></line>
                            <line x1="0.2" y1="6" x2="2" y2="0.5"></line>
                            <line x1="18" y1="15.5" x2="22.2" y2="12.7"></line>
                            <line x1="23.3" y1="24.1" x2="28.3" y2="24.1"></line>
                            <line x1="26.9" y1="38.3" x2="32.2" y2="38.3"></line>
                            <line x1="27.4" y1="50.3" x2="32.2" y2="52.1"></line>
                            <line x1="26.4" y1="60.3" x2="31.2" y2="64.4"></line>
                            <line x1="24.2" y1="71.2" x2="28.8" y2="74"></line>
                        </g>
                    </g>
                    <g id="Group" transform="translate(5.000000, 86.000000)">
                        <polygon id="Path" fill="#FFFFFF" fill-rule="nonzero" points="55.3 50.1 9.5 50.1 5.6 7.9 59.2 7.9"></polygon>
                        <polygon id="Path" fill="#EDEFF0" fill-rule="nonzero" points="5.6 7.9 9.5 50.1 19.5 50.1 15.6 7.9"></polygon>
                        <polygon id="Path" stroke="#E6E6E6" stroke-width="3" points="55.3 50.1 9.5 50.1 5.6 7.9 59.2 7.9"></polygon>
                        <rect id="Rectangle" fill="#FFFFFF" fill-rule="nonzero" x="0.9" y="0.4" width="63" height="7.5"></rect>
                        <rect id="Rectangle" stroke="#E6E6E6" stroke-width="3" x="0.9" y="0.4" width="63" height="7.5"></rect>
                    </g>
                </g>
                <g id="Picture_Stars_5_" transform="translate(61.000000, 0.000000)">
                    <rect id="Rectangle" stroke="#E6E6E6" stroke-width="3" x="34.1" y="54" width="150.5" height="186.1"></rect>
                    <rect id="Rectangle" fill="#EDEFF0" fill-rule="nonzero" transform="translate(109.303300, 147.091000) rotate(90.000000) translate(-109.303300, -147.091000) " x="26.2533" y="81.841" width="166.1" height="130.5"></rect>
                    <g id="Group" fill="#FFFFFF" fill-rule="nonzero">
                        <rect id="Rectangle" transform="translate(95.597000, 152.890800) rotate(30.000728) translate(-95.597000, -152.890800) " x="83.9972552" y="-16.7054688" width="23.1994896" height="339.192538"></rect>
                        <rect id="Rectangle" transform="translate(122.952300, 157.193900) rotate(30.000728) translate(-122.952300, -157.193900) " x="117.152428" y="-12.4023688" width="11.5997448" height="339.192538"></rect>
                    </g>
                    <rect id="Rectangle" stroke="#E6E6E6" stroke-width="3" transform="translate(109.303300, 147.091000) rotate(90.000000) translate(-109.303300, -147.091000) " x="26.2533" y="81.841" width="166.1" height="130.5"></rect>
                    <path d="M83.9,150.6 L95.7,150.6 L95.7,199.1 C95.7,200.1 96.5,200.8 97.4,200.8 L117.4,200.8 C118.4,200.8 119.1,200 119.1,199.1 L119.1,150.8 L132.6,150.8 C133.5,150.8 134.2,150.1 134.3,149.3 L136.4,131.4 C136.5,130.9 136.3,130.4 136,130 C135.7,129.6 135.2,129.4 134.7,129.4 L119.1,129.4 L119.1,118.2 C119.1,114.8 120.9,113.1 124.5,113.1 C125,113.1 134.7,113.1 134.7,113.1 C135.7,113.1 136.4,112.3 136.4,111.4 L136.4,95 C136.4,94 135.6,93.3 134.7,93.3 L120.6,93.3 C120.5,93.3 120.3,93.3 120,93.3 C117.6,93.3 109.1,93.8 102.4,99.9 C95,106.7 96,114.9 96.3,116.3 L96.3,129.4 L83.9,129.4 C82.9,129.4 82.2,130.2 82.2,131.1 L82.2,148.7 C82.2,149.8 82.9,150.6 83.9,150.6 Z" id="Path" stroke="#2470A9" stroke-width="3"></path>
                </g>
                <g id="Group" transform="translate(0.000000, 240.000000)">
                    <rect id="Rectangle" fill="#FFFFFF" fill-rule="nonzero" x="0.3" y="0.1" width="417.8" height="18.1"></rect>
                    <rect id="Rectangle" stroke="#E6E6E6" stroke-width="3" x="0.3" y="0.1" width="417.8" height="18.1"></rect>
                    <rect id="Rectangle" fill="#EDEFF0" fill-rule="nonzero" transform="translate(27.339500, 26.361700) rotate(90.000000) translate(-27.339500, -26.361700) " x="19.1895" y="17.3117" width="16.3" height="18.1"></rect>
                    <rect id="Rectangle" fill="#EDEFF0" fill-rule="nonzero" transform="translate(390.902400, 26.298700) rotate(90.000000) translate(-390.902400, -26.298700) " x="382.7524" y="17.2487" width="16.3" height="18.1"></rect>
                    <rect id="Rectangle" stroke="#E6E6E6" stroke-width="3" transform="translate(27.368100, 34.390400) rotate(90.000000) translate(-27.368100, -34.390400) " x="11.1181" y="25.3404" width="32.5" height="18.1"></rect>
                    <rect id="Rectangle" stroke="#E6E6E6" stroke-width="3" transform="translate(390.931100, 34.427400) rotate(90.000000) translate(-390.931100, -34.427400) " x="374.6811" y="25.3774" width="32.5" height="18.1"></rect>
                </g>
                <g id="Group" transform="translate(260.000000, 118.000000)" stroke="#E6E6E6" stroke-width="3">
                    <rect id="Rectangle" x="0.1" y="0.2" width="31.5" height="121.9"></rect>
                    <rect id="Rectangle" x="0.1" y="12.3" width="31.5" height="7.4"></rect>
                    <line x1="15.8" y1="35.1" x2="15.8" y2="73.2" id="Path"></line>
                </g>
                <g id="Group" transform="translate(323.000000, 118.000000)" stroke="#E6E6E6" stroke-width="3">
                    <rect id="Rectangle" x="0" y="0.2" width="31.5" height="121.9"></rect>
                    <rect id="Rectangle" x="0" y="12.3" width="31.5" height="7.4"></rect>
                    <line x1="15.7" y1="35.1" x2="15.7" y2="73.2" id="Path"></line>
                </g>
                <g id="Group" transform="translate(354.000000, 118.000000)" stroke="#E6E6E6" stroke-width="3">
                    <rect id="Rectangle" x="0.5" y="0.2" width="31.5" height="121.9"></rect>
                    <rect id="Rectangle" x="0.5" y="12.3" width="31.5" height="7.4"></rect>
                    <line x1="16.2" y1="35.1" x2="16.2" y2="73.2" id="Path"></line>
                </g>
                <g id="Group" transform="translate(291.000000, 92.000000)" stroke="#E6E6E6" stroke-width="3">
                    <rect id="Rectangle" x="0.5" y="0.3" width="31.5" height="147.8"></rect>
                    <line x1="16.3" y1="16.9" x2="16.3" y2="73.3" id="Path"></line>
                </g>
            </g>
            <g id="Group" transform="translate(7304.000000, 79.000000)">
                <path d="M26.1,35.9 L26.1,65.4 L26.1,570.9 L26.1,600.4 L590.5,600.4 L590.5,570.9 L590.5,65.3 L590.5,35.8 L26.1,35.8 L26.1,35.9 Z M55.6,65.3 L561.1,65.3 L561.1,570.8 L55.6,570.8 L55.6,65.3 Z" id="Shape" fill="#FFFFFF" fill-rule="nonzero"></path>
                <polygon id="Path" fill="#FFFFFF" fill-rule="nonzero" points="55.6 303.4 293.6 303.4 293.6 65.3 323.1 65.3 323.1 303.4 561.1 303.4 561.1 332.8 323.1 332.8 323.1 570.8 293.6 570.8 293.6 332.8 55.6 332.8"></polygon>
                <rect id="Rectangle" fill="#F2F2F2" fill-rule="nonzero" transform="translate(315.932400, 318.134800) rotate(-180.000000) translate(-315.932400, -318.134800) " x="308.2824" y="65.3847997" width="15.3" height="505.5"></rect>
                <rect id="Rectangle" fill="#F2F2F2" fill-rule="nonzero" transform="translate(174.582500, 310.492300) rotate(90.000000) translate(-174.582500, -310.492300) " x="166.9325" y="191.4923" width="15.3" height="238"></rect>
                <rect id="Rectangle" fill="#F2F2F2" fill-rule="nonzero" transform="translate(442.064900, 310.509900) rotate(90.000000) translate(-442.064900, -310.509900) " x="434.4149" y="191.5099" width="15.3" height="238"></rect>
                <path d="M26.1,35.9 L26.1,65.4 L26.1,570.9 L26.1,600.4 L590.5,600.4 L590.5,570.9 L590.5,65.3 L590.5,35.8 L26.1,35.8 L26.1,35.9 Z M55.6,65.3 L561.1,65.3 L561.1,570.8 L55.6,570.8 L55.6,65.3 Z" id="Shape" stroke="#E6E6E6" stroke-width="3"></path>
                <rect id="Rectangle" fill="#F2F2F2" fill-rule="nonzero" transform="translate(308.372700, 27.209300) rotate(-180.000000) translate(-308.372700, -27.209300) " x="0.722700005" y="18.5092997" width="615.3" height="17.4"></rect>
                <rect id="Rectangle" fill="#F2F2F2" fill-rule="nonzero" transform="translate(308.372700, 609.060200) rotate(-180.000000) translate(-308.372700, -609.060200) " x="0.722700031" y="600.3602" width="615.3" height="17.4"></rect>
                <polygon id="Path" stroke="#E6E6E6" stroke-width="3" points="55.6 303.4 293.6 303.4 293.6 65.3 323.1 65.3 323.1 303.4 561.1 303.4 561.1 332.8 323.1 332.8 323.1 570.8 293.6 570.8 293.6 332.8 55.6 332.8"></polygon>
                <rect id="Rectangle" stroke="#E6E6E6" stroke-width="3" transform="translate(308.372700, 617.746700) rotate(-180.000000) translate(-308.372700, -617.746700) " x="0.722700031" y="600.2967" width="615.3" height="34.9"></rect>
                <rect id="Rectangle" stroke="#E6E6E6" stroke-width="3" transform="translate(308.372700, 18.422900) rotate(-180.000000) translate(-308.372700, -18.422900) " x="0.722700004" y="0.972899658" width="615.3" height="34.9"></rect>
            </g>
            <g id="Cactus_Plant_4_" transform="translate(7654.000000, 442.000000)">
                <g id="Group" transform="translate(0.000000, 10.000000)" fill="#FFFFFF" fill-rule="nonzero" stroke="#8DD9C2" stroke-linecap="round" stroke-linejoin="round" stroke-width="3">
                    <path d="M50.9,16.1 C66.2,31.4 76.2,56.9 66.6,66.4 C57,76 31.5,65.9 16.2,50.7 C0.9,35.4 1.7,20.7 11.3,11.2 C20.9,1.6 35.6,0.9 50.9,16.1 Z" id="Path"></path>
                    <path d="M40.4,26.6 C55.7,41.9 70.4,62.7 66.6,66.5 C62.8,70.3 42,55.5 26.7,40.3 C11.4,25 7.5,15 11.3,11.3 C15.1,7.4 25.1,11.3 40.4,26.6 Z" id="Path"></path>
                    <g transform="translate(0.000000, 11.000000)" id="Path">
                        <line x1="14.5" y1="14.8" x2="10.7" y2="16.7"></line>
                        <line x1="19.7" y1="21.7" x2="16" y2="24.3"></line>
                        <line x1="26.8" y1="29.2" x2="23.9" y2="32.1"></line>
                        <line x1="32.8" y1="35" x2="30.4" y2="38.6"></line>
                        <line x1="40.7" y1="41.8" x2="38.8" y2="44.8"></line>
                        <line x1="5.6" y1="9.1" x2="1" y2="9.2"></line>
                        <line x1="9" y1="2.9" x2="5" y2="0.9"></line>
                        <line x1="4.5" y1="17.7" x2="0.7" y2="18.5"></line>
                        <line x1="6.3" y1="25.3" x2="3.6" y2="28"></line>
                        <line x1="12" y1="34.9" x2="9.2" y2="37.8"></line>
                        <line x1="18.2" y1="41.6" x2="16.6" y2="45.2"></line>
                        <line x1="24.2" y1="46.5" x2="23.8" y2="51.3"></line>
                        <line x1="31.3" y1="51.2" x2="30.3" y2="55.2"></line>
                    </g>
                    <g transform="translate(12.000000, 0.000000)" id="Path">
                        <line x1="13.9" y1="14.3" x2="15.9" y2="10.6"></line>
                        <line x1="20.8" y1="19.6" x2="23.4" y2="15.9"></line>
                        <line x1="28.4" y1="26.6" x2="31.3" y2="23.7"></line>
                        <line x1="34.1" y1="32.6" x2="37.8" y2="30.3"></line>
                        <line x1="40.9" y1="40.5" x2="43.9" y2="38.6"></line>
                        <line x1="8.3" y1="5.5" x2="8.3" y2="0.8"></line>
                        <line x1="2.1" y1="8.8" x2="0.1" y2="4.8"></line>
                        <line x1="16.9" y1="4.3" x2="17.6" y2="0.5"></line>
                        <line x1="24.4" y1="6.1" x2="27.1" y2="3.4"></line>
                        <line x1="34.1" y1="11.8" x2="36.9" y2="9"></line>
                        <line x1="40.8" y1="18" x2="44.4" y2="16.4"></line>
                        <line x1="45.7" y1="24" x2="50.4" y2="23.6"></line>
                        <line x1="50.3" y1="31.1" x2="54.4" y2="30.1"></line>
                    </g>
                </g>
                <g id="Group" transform="translate(47.000000, 0.000000)" fill="#FFFFFF" fill-rule="nonzero" stroke="#8DD9C2" stroke-linecap="round" stroke-linejoin="round" stroke-width="3">
                    <path d="M120.7,81.6 C120.7,130.8 95.7,188.1 64.9,188.1 C34.1,188.1 9.1,130.8 9.1,81.6 C9.1,32.4 34.1,10 64.9,10 C95.7,10 120.7,32.4 120.7,81.6 Z" id="Path"></path>
                    <path d="M86.9,81.6 C86.9,130.8 77.1,188.1 64.9,188.1 C52.7,188.1 42.9,130.8 42.9,81.6 C42.9,32.4 52.7,10 64.9,10 C77.1,10 86.9,32.4 86.9,81.6 Z" id="Path"></path>
                    <g id="Path">
                        <line x1="46.5" y1="38.5" x2="37.3" y2="35.6"></line>
                        <line x1="43.9" y1="58.1" x2="33.7" y2="56.3"></line>
                        <line x1="43" y1="81.6" x2="33.7" y2="81.6"></line>
                        <line x1="43.4" y1="100.5" x2="33.7" y2="102.6"></line>
                        <line x1="45.2" y1="124.2" x2="37.3" y2="126"></line>
                        <line x1="41.3" y1="15.1" x2="33.7" y2="7.7"></line>
                        <line x1="56.7" y1="10.5" x2="53.5" y2="0.9"></line>
                        <line x1="25.7" y1="27.1" x2="18.2" y2="22.2"></line>
                        <line x1="9.2" y1="87.7" x2="0.9" y2="90.9"></line>
                        <line x1="11" y1="105.3" x2="2.7" y2="112.3"></line>
                        <line x1="14.8" y1="124.2" x2="6.8" y2="129.1"></line>
                    </g>
                    <g transform="translate(73.000000, 0.000000)" id="Path">
                        <line x1="10.4" y1="38.5" x2="19.6" y2="35.6"></line>
                        <line x1="13" y1="58.1" x2="23.2" y2="56.3"></line>
                        <line x1="13.9" y1="81.6" x2="23.2" y2="81.6"></line>
                        <line x1="13.4" y1="100.5" x2="23.2" y2="102.6"></line>
                        <line x1="11.7" y1="124.2" x2="19.6" y2="126"></line>
                        <line x1="15.6" y1="15.1" x2="23.2" y2="7.7"></line>
                        <line x1="0.2" y1="10.5" x2="3.4" y2="0.9"></line>
                        <line x1="31.2" y1="27.1" x2="38.6" y2="22.2"></line>
                        <line x1="40.5" y1="42.2" x2="49.3" y2="42.2"></line>
                        <line x1="46.9" y1="66.9" x2="56" y2="66.9"></line>
                        <line x1="47.7" y1="87.7" x2="56" y2="90.9"></line>
                        <line x1="45.9" y1="105.3" x2="54.2" y2="112.3"></line>
                        <line x1="42" y1="124.2" x2="50" y2="129.1"></line>
                    </g>
                </g>
                <g id="Group" transform="translate(57.000000, 150.000000)">
                    <polygon id="Path" fill="#FFFFFF" fill-rule="nonzero" points="94.8 87.3 15 87.3 8.2 13.7 101.6 13.7"></polygon>
                    <polygon id="Path" fill="#EDEFF0" fill-rule="nonzero" points="8.2 13.7 15 87.3 32.5 87.3 25.7 13.7"></polygon>
                    <polygon id="Path" stroke="#E6E6E6" stroke-width="3" points="94.8 87.3 15 87.3 8.2 13.7 101.6 13.7"></polygon>
                    <rect id="Rectangle" fill="#FFFFFF" fill-rule="nonzero" x="0" y="0.6" width="109.9" height="13.1"></rect>
                    <rect id="Rectangle" stroke="#E6E6E6" stroke-width="3" x="0" y="0.6" width="109.9" height="13.1"></rect>
                </g>
            </g>
            <g id="Picture_Heart_2_" transform="translate(1419.000000, 76.000000)">
                <rect id="Rectangle" stroke="#E6E6E6" stroke-width="3" x="34.1" y="54.6" width="150.5" height="186.1"></rect>
                <rect id="Rectangle" fill="#EDEFF0" fill-rule="nonzero" transform="translate(109.289700, 147.689500) rotate(90.000000) translate(-109.289700, -147.689500) " x="26.2397" y="82.4395" width="166.1" height="130.5"></rect>
                <g id="Group" fill="#FFFFFF" fill-rule="nonzero">
                    <rect id="Rectangle" transform="translate(95.579900, 153.491500) rotate(30.000728) translate(-95.579900, -153.491500) " x="83.9801552" y="-16.1047688" width="23.1994896" height="339.192538"></rect>
                    <rect id="Rectangle" transform="translate(122.935200, 157.794700) rotate(30.000728) translate(-122.935200, -157.794700) " x="117.135328" y="-11.8015688" width="11.5997448" height="339.192538"></rect>
                </g>
                <rect id="Rectangle" stroke="#EDEFF0" stroke-width="3" transform="translate(109.289700, 147.689500) rotate(90.000000) translate(-109.289700, -147.689500) " x="26.2397" y="82.4395" width="166.1" height="130.5"></rect>
                <g id="Group" transform="translate(62.000000, 100.000000)" stroke="#63D9B6" stroke-linecap="round" stroke-linejoin="round" stroke-width="3">
                    <path d="M24.4,0.7 L70.2,0.7 C83.5,0.7 94.3,11.5 94.3,24.8 L94.3,70.6 C94.3,83.9 83.5,94.7 70.2,94.7 L24.4,94.7 C11.1,94.7 0.3,83.9 0.3,70.6 L0.3,24.8 C0.3,11.4 11.1,0.7 24.4,0.7 Z" id="Path"></path>
                    <circle id="Oval" cx="47.3" cy="47.6" r="24"></circle>
                    <circle id="Oval" cx="75.1" cy="18.8" r="5"></circle>
                </g>
            </g>
            <g id="Picture_Like_2_" transform="translate(1654.000000, 26.000000)">
                <g id="Picture_Stars_1_">
                    <rect id="Rectangle" stroke="#E6E6E6" stroke-width="3" x="33.5" y="54" width="150.5" height="186.1"></rect>
                    <rect id="Rectangle" fill="#EDEFF0" fill-rule="nonzero" transform="translate(108.782600, 147.011600) rotate(90.000000) translate(-108.782600, -147.011600) " x="25.7326" y="81.7616" width="166.1" height="130.5"></rect>
                    <g id="Group" fill="#FFFFFF" fill-rule="nonzero">
                        <rect id="Rectangle" transform="translate(95.075800, 152.901100) rotate(30.000728) translate(-95.075800, -152.901100) " x="83.4760552" y="-16.6951688" width="23.1994896" height="339.192538"></rect>
                        <rect id="Rectangle" transform="translate(122.431100, 157.204200) rotate(30.000728) translate(-122.431100, -157.204200) " x="116.631228" y="-12.3920688" width="11.5997448" height="339.192538"></rect>
                    </g>
                    <rect id="Rectangle" stroke="#EDEFF0" stroke-width="3" transform="translate(108.782600, 147.011600) rotate(90.000000) translate(-108.782600, -147.011600) " x="25.7326" y="81.7616" width="166.1" height="130.5"></rect>
                </g>
                <path d="M152.2,138.8 L152.2,138.8 L133.7,138.8 L109.7,138.8 L109.7,156.3 L133.3,156.3 C131.2,162 127.1,166.7 122,169.8 L122,169.8 L122,169.8 C118.1,172.1 113.6,173.4 108.7,173.4 C97.4,173.4 87.8,166.3 84.1,156.3 C83,153.4 82.4,150.3 82.4,147.1 C82.4,144.1 82.9,141.2 83.8,138.6 C87.3,128.3 97.1,120.9 108.7,120.9 C113.8,120.9 118.6,122.4 122.6,124.9 L137,113 C129.3,106.6 119.5,102.8 108.8,102.8 C91.7,102.8 76.9,112.5 69.5,126.7 C66.3,132.8 64.6,139.7 64.6,147 C64.6,154.6 66.5,161.7 69.9,167.9 C77.4,181.7 92,191.2 108.8,191.2 C119.3,191.2 128.9,187.6 136.5,181.5 L136.5,181.5 L136.5,181.5 L136.5,181.5 L136.5,181.5 C144.3,175.2 149.9,166.4 152.1,156.3 C152.7,153.3 153.1,150.2 153.1,147.1 C153,144.2 152.7,141.5 152.2,138.8 Z" id="Path" stroke="#2470A9" stroke-width="3"></path>
            </g>
            <g id="Group" transform="translate(1898.000000, 60.000000)">
                <g id="Picture_Stars_3_">
                    <rect id="Rectangle" stroke="#E6E6E6" stroke-width="3" x="56.7" y="90.3" width="252.9" height="312.8"></rect>
                    <rect id="Rectangle" fill="#EDEFF0" fill-rule="nonzero" transform="translate(183.193500, 246.680000) rotate(90.000000) translate(-183.193500, -246.680000) " x="43.6435" y="137.03" width="279.1" height="219.3"></rect>
                    <g id="Group" fill="#FFFFFF" fill-rule="nonzero">
                        <rect id="Rectangle" transform="translate(160.025900, 256.606400) rotate(30.000728) translate(-160.025900, -256.606400) " x="140.526329" y="-28.4373288" width="38.999142" height="570.087458"></rect>
                        <rect id="Rectangle" transform="translate(206.114100, 263.642200) rotate(30.000728) translate(-206.114100, -263.642200) " x="196.364315" y="-21.4015288" width="19.499571" height="570.087458"></rect>
                    </g>
                    <rect id="Rectangle" stroke="#EDEFF0" stroke-width="3" transform="translate(183.193500, 246.680000) rotate(90.000000) translate(-183.193500, -246.680000) " x="43.6435" y="137.03" width="279.1" height="219.3"></rect>
                </g>
                <g transform="translate(103.000000, 167.000000)" id="Path" stroke="#F7931E" stroke-linecap="round" stroke-linejoin="round" stroke-width="3">
                    <path d="M37.8,51.4 L6,51.4 C4.6,51.4 3.4,52.5 3.4,54 L3.4,156.2 C3.4,157.6 4.5,158.8 6,158.8 L37.8,158.8 C39.2,158.8 40.4,157.7 40.4,156.2 L40.4,54 C40.4,52.6 39.2,51.4 37.8,51.4 L37.8,51.4 Z"></path>
                    <path d="M21.9,0.6 C10.3,0.6 0.9,10 0.9,21.6 C0.9,33.2 10.3,42.6 21.9,42.6 C33.5,42.6 42.9,33.2 42.9,21.6 C42.9,10 33.5,0.6 21.9,0.6 L21.9,0.6 Z"></path>
                    <path d="M118.7,48.9 C105.9,48.9 96.5,54.4 90.7,60.6 L90.7,54 C90.7,52.6 89.6,51.4 88.1,51.4 L57.6,51.4 C56.2,51.4 55,52.5 55,54 L55,156.2 C55,157.6 56.1,158.8 57.6,158.8 L89.4,158.8 C90.8,158.8 92,157.7 92,156.2 L92,105.6 C92,88.6 96.6,81.9 108.5,81.9 C121.4,81.9 122.5,92.5 122.5,106.5 L122.5,156.2 C122.5,157.6 123.6,158.8 125.1,158.8 L156.9,158.8 C158.3,158.8 159.5,157.7 159.5,156.2 L159.5,100.1 C159.4,74.8 154.6,48.9 118.7,48.9 L118.7,48.9 Z"></path>
                </g>
            </g>
            <g id="Group" transform="translate(4608.000000, 88.000000)">
                <g id="Picture_Stars_4_">
                    <rect id="Rectangle" stroke="#E6E6E6" stroke-width="3" x="68.2" y="109.7" width="306.9" height="379.5"></rect>
                    <rect id="Rectangle" fill="#EDEFF0" fill-rule="nonzero" transform="translate(221.681300, 299.482000) rotate(90.000000) translate(-221.681300, -299.482000) " x="52.3313" y="166.432" width="338.7" height="266.1"></rect>
                    <g id="Group" fill="#FFFFFF" fill-rule="nonzero">
                        <rect id="Rectangle" transform="translate(193.670200, 311.521300) rotate(30.000728) translate(-193.670200, -311.521300) " x="169.970721" y="-34.3710901" width="47.3989572" height="691.78478"></rect>
                        <rect id="Rectangle" transform="translate(249.431400, 320.084600) rotate(30.000728) translate(-249.431400, -320.084600) " x="237.581661" y="-25.8077901" width="23.6994786" height="691.78478"></rect>
                    </g>
                    <rect id="Rectangle" stroke="#EDEFF0" stroke-width="3" transform="translate(221.681300, 299.482000) rotate(90.000000) translate(-221.681300, -299.482000) " x="52.3313" y="166.432" width="338.7" height="266.1"></rect>
                </g>
                <path d="M319.8,234.8 C315.3,236.8 310.6,238.4 305.8,239.5 C311.1,234.5 315.1,228.2 317.3,221.2 L317.3,221.2 C317.9,219.2 315.8,217.5 314,218.5 L314,218.5 C307.3,222.5 300.1,225.4 292.6,227.3 C292.2,227.4 291.7,227.5 291.3,227.5 C289.9,227.5 288.6,227 287.6,226.1 C279.6,219.1 269.3,215.2 258.7,215.2 C254.1,215.2 249.4,215.9 244.9,217.3 C230.7,221.7 219.8,233.4 216.4,247.8 C215.1,253.2 214.8,258.6 215.4,263.9 C215.5,264.5 215.2,264.9 215,265.1 C214.7,265.4 214.3,265.6 213.8,265.6 C213.7,265.6 213.7,265.6 213.6,265.6 C182.6,262.7 154.6,247.8 134.8,223.5 L134.8,223.5 C133.8,222.3 131.9,222.4 131.1,223.8 L131.1,223.8 C127.2,230.4 125.2,238 125.2,245.8 C125.2,257.7 130,268.8 138.2,277 C134.7,276.2 131.4,274.9 128.2,273.1 L128.2,273.1 C126.7,272.3 124.8,273.3 124.8,275.1 L124.8,275.1 C124.6,292.7 134.9,308.4 150.3,315.4 C150,315.4 149.7,315.4 149.4,315.4 C147,315.4 144.5,315.2 142,314.7 L142,314.7 C140.3,314.4 138.9,316 139.4,317.6 L139.4,317.6 C144.4,333.2 157.9,344.8 174,347.4 C160.6,356.4 145,361.1 128.8,361.1 L123.7,361.1 C122.1,361.1 120.8,362.1 120.4,363.6 C120,365.1 120.7,366.7 122.1,367.4 C140.4,378 161.2,383.7 182.4,383.7 C200.9,383.7 218.3,380 233.9,372.8 C248.3,366.2 260.9,356.6 271.6,344.6 C281.5,333.3 289.3,320.3 294.7,305.9 C299.8,292.2 302.5,277.6 302.5,263.6 L302.5,263 C302.5,260.8 303.5,258.6 305.3,257.2 C312,251.7 317.9,245.3 322.7,238.1 L322.7,238.1 C323.9,236.2 321.9,233.8 319.8,234.8 L319.8,234.8 Z" id="Path" stroke="#2470A9" stroke-width="3"></path>
            </g>
            <g id="Group" transform="translate(5800.000000, 179.000000)" stroke="#2470A9" stroke-width="3">
                <g>
                    <g id="Logo_1_1_" transform="translate(58.000000, 59.000000)">
                        <line x1="11.7" y1="74.2" x2="64.2" y2="21.1" id="Path"></line>
                        <line x1="113.4" y1="62.5" x2="118.8" y2="108.6" id="Path"></line>
                        <path d="M82.2,144.9 C82.2,124.7 98.6,108.3 118.8,108.3 C139,108.3 155.4,124.7 155.4,144.9 L82.2,144.9 Z" id="Path"></path>
                        <polygon id="Path" points="79.8 145.2 8.4 70.7 0.1 78.7 74.9 156.6 160.6 156.6 160.6 145.2"></polygon>
                        <path d="M113.4,62.5 L62.5,19.6 C60.1,17.6 59.8,13.9 61.8,11.5 L61.8,11.5 C63.8,9.1 67.5,8.8 69.9,10.8 L120.8,53.7 C123.2,55.7 123.5,59.4 121.5,61.8 L121.5,61.8 C119.5,64.3 115.9,64.6 113.4,62.5 Z" id="Path"></path>
                        <path d="M120.8,53.7 L69.9,10.8 C67.5,8.8 67.2,5.1 69.2,2.7 L69.2,2.7 C71.2,0.3 74.9,0 77.3,2 L128.2,44.9 C130.6,46.9 130.9,50.6 128.9,53 L128.9,53 C126.9,55.5 123.2,55.8 120.8,53.7 Z" id="Path"></path>
                        <line x1="90.7" y1="71.5" x2="121" y2="71.5" id="Path"></line>
                        <line x1="92.1" y1="84.1" x2="122.3" y2="84.1" id="Path"></line>
                        <line x1="93.5" y1="96.3" x2="123.7" y2="96.3" id="Path"></line>
                    </g>
                    <circle id="Oval" cx="138.4" cy="137.7" r="137.6"></circle>
                </g>
                <line x1="138.4" y1="275.3" x2="138.4" y2="735.5" id="Path"></line>
            </g>
        </g>
    </g>
</svg>