<?xml version="1.0" encoding="UTF-8"?>
<svg viewBox="0 0 8000 1400" version="1.1" xmlns="http://www.w3.org/2000/svg" xmlns:xlink="http://www.w3.org/1999/xlink">
    <title>Artboard</title>
    <g id="Artboard" stroke="none" stroke-width="1" fill="none" fill-rule="evenodd">
        <g id="Layer_3_-_13.maerz" transform="translate(110.000000, 166.000000)" stroke="#EDEFF0" stroke-width="3">
            <g id="Layer_3">
                <g id="Group" transform="translate(2240.000000, 0.000000)">
                    <path d="M130.3,81.4 C129.3,56.1 108.5,36 83,36 C62.7,36 45.3,48.8 38.6,66.8 C36.7,66.5 34.8,66.3 32.9,66.3 C15.1,66.3 0.7,80.7 0.7,98.5 C0.7,116.3 15.1,130.7 32.9,130.7 C41.6,130.7 121.6,130.7 129.1,130.7 C142.7,130.7 153.700715,119.7 153.700715,106.1 C153.8,92.8 143.4,82 130.3,81.4 Z" id="Path"></path>
                    <path d="M366.5,212.8 C364.9,172.7 331.9,140.7 291.4,140.7 C259.1,140.7 231.6,161.1 221,189.6 C218.1,189.1 215,188.8 211.9,188.8 C183.7,188.8 160.8,211.7 160.8,239.9 C160.8,268.1 183.7,291 211.9,291 C225.7,291 352.7,291 364.6,291 C386.2,291 403.7,273.5 403.7,251.9 C403.7,230.9 387.2,213.8 366.5,212.8 Z" id="Path" fill="#FFFFFF" fill-rule="nonzero"></path>
                    <path d="M410,34.5 C409.2,15.5 393.6,0.3 374.4,0.3 C359.1,0.3 346,10 341,23.5 C339.6,23.2 338.2,23.1 336.7,23.1 C323.3,23.1 312.5,34 312.5,47.3 C312.5,60.6 323.4,71.5 336.7,71.5 C343.2,71.5 403.5,71.5 409.2,71.5 C419.5,71.5 427.8,63.2 427.8,52.9 C427.6,43.1 419.8,35 410,34.5 Z" id="Path"></path>
                    <path d="M497.5,49.9 C496.4,22.3 473.7,0.3 445.9,0.3 C423.7,0.3 404.8,14.3 397.4,34 C395.4,33.6 393.3,33.4 391.2,33.4 C371.8,33.4 356.1,49.1 356.1,68.5 C356.1,87.9 371.8,103.6 391.2,103.6 C400.7,103.6 488,103.6 496.3,103.6 C511.2,103.6 523.2,91.6 523.2,76.7 C523.1,62.3 511.8,50.6 497.5,49.9 Z" id="Path" fill="#FFFFFF" fill-rule="nonzero"></path>
                </g>
                <g id="Group">
                    <g transform="translate(0.000000, 54.000000)">
                        <rect id="Rectangle" x="23.5" y="269.8" width="287.4" height="160.1"></rect>
                        <rect id="Rectangle" x="0.8" y="237.2" width="332.8" height="32.6"></rect>
                        <g transform="translate(40.000000, 105.000000)" id="Rectangle">
                            <rect x="5.7" y="0.6" width="55.9" height="57"></rect>
                            <rect x="0.8" y="57.6" width="65.6" height="8.7"></rect>
                            <rect x="96.7" y="0.6" width="55.9" height="57"></rect>
                            <rect x="91.8" y="57.6" width="65.6" height="8.7"></rect>
                            <rect x="187.7" y="0.6" width="55.9" height="57"></rect>
                            <rect x="182.8" y="57.6" width="65.6" height="8.7"></rect>
                        </g>
                        <g transform="translate(50.000000, 300.000000)">
                            <rect id="Rectangle" x="7.5" y="0.5" width="119.9" height="83.9"></rect>
                            <rect id="Rectangle" x="0.3" y="84.4" width="134.3" height="12.8"></rect>
                            <g transform="translate(158.000000, 0.000000)">
                                <rect id="Rectangle" x="0.5" y="0.5" width="75.6" height="129.4"></rect>
                                <circle id="Oval" cx="63.6" cy="65.2" r="4.3"></circle>
                            </g>
                        </g>
                        <polygon id="Path" points="305.7 185.4 23.5 185.4 0.8 237.2 333.6 237.2"></polygon>
                        <rect id="Rectangle" x="8.6" y="59" width="312.1" height="32.6"></rect>
                        <polygon id="Path" points="294.5 0.8 29.9 0.8 8.6 59 320.6 59"></polygon>
                        <rect id="Rectangle" x="23.5" y="91.6" width="282.2" height="93.8"></rect>
                    </g>
                    <path d="M408.5,34.5 C407.7,15.5 392.1,0.3 372.9,0.3 C357.6,0.3 344.5,10 339.5,23.5 C338.1,23.2 336.7,23.1 335.2,23.1 C321.8,23.1 311,34 311,47.3 C311,60.6 321.9,71.5 335.2,71.5 C341.7,71.5 402,71.5 407.7,71.5 C418,71.5 426.3,63.2 426.3,52.9 C426.1,43.1 418.3,35 408.5,34.5 Z" id="Path"></path>
                    <path d="M496,49.9 C494.9,22.3 472.2,0.3 444.4,0.3 C422.2,0.3 403.3,14.3 395.9,34 C393.9,33.6 391.8,33.4 389.7,33.4 C370.3,33.4 354.6,49.1 354.6,68.5 C354.6,87.9 370.3,103.6 389.7,103.6 C399.2,103.6 486.5,103.6 494.8,103.6 C509.7,103.6 521.7,91.6 521.7,76.7 C521.6,62.3 510.3,50.6 496,49.9 Z" id="Path" fill="#FFFFFF" fill-rule="nonzero"></path>
                </g>
                <g id="Group" transform="translate(5026.000000, 0.000000)">
                    <path d="M393.6,81.4 C394.6,56.1 415.4,36 440.9,36 C461.2,36 478.6,48.8 485.3,66.8 C487.2,66.5 489.1,66.3 491,66.3 C508.8,66.3 523.2,80.7 523.2,98.5 C523.2,116.3 508.8,130.7 491,130.7 C482.3,130.7 402.3,130.7 394.8,130.7 C381.2,130.7 370.199285,119.7 370.199285,106.1 C370.1,92.8 380.5,82 393.6,81.4 Z" id="Path"></path>
                    <path d="M157.4,212.8 C159,172.7 192,140.7 232.5,140.7 C264.8,140.7 292.3,161.1 302.9,189.6 C305.8,189.1 308.9,188.8 312,188.8 C340.2,188.8 363.1,211.7 363.1,239.9 C363.1,268.1 340.2,291 312,291 C298.2,291 171.2,291 159.3,291 C137.7,291 120.2,273.5 120.2,251.9 C120.2,230.9 136.7,213.8 157.4,212.8 Z" id="Path" fill="#FFFFFF" fill-rule="nonzero"></path>
                    <path d="M113.9,34.5 C114.7,15.5 130.3,0.3 149.5,0.3 C164.8,0.3 177.9,10 182.9,23.5 C184.3,23.2 185.7,23.1 187.2,23.1 C200.6,23.1 211.4,34 211.4,47.3 C211.4,60.6 200.5,71.5 187.2,71.5 C180.7,71.5 120.4,71.5 114.7,71.5 C104.4,71.5 96.1,63.2 96.1,52.9 C96.3,43.1 104.1,35 113.9,34.5 Z" id="Path"></path>
                    <path d="M26.4,49.9 C27.5,22.3 50.2,0.3 78,0.3 C100.2,0.3 119.1,14.3 126.5,34 C128.5,33.6 130.6,33.4 132.7,33.4 C152.1,33.4 167.8,49.1 167.8,68.5 C167.8,87.9 152.1,103.6 132.7,103.6 C123.2,103.6 35.9,103.6 27.6,103.6 C12.7,103.6 0.7,91.6 0.7,76.7 C0.8,62.3 12.1,50.6 26.4,49.9 Z" id="Path" fill="#FFFFFF" fill-rule="nonzero"></path>
                </g>
                <g id="Group" transform="translate(7232.000000, 0.000000)">
                    <path d="M347.5,138.4 C349.1,98.4 382,66.5 422.4,66.5 C454.6,66.5 482,86.8 492.7,115.3 C495.6,114.8 498.7,114.5 501.8,114.5 C529.9,114.5 552.7,137.3 552.7,165.4 C552.7,193.5 529.9,216.3 501.8,216.3 C488.1,216.3 361.4,216.3 349.5,216.3 C328,216.3 310.498201,198.8 310.498201,177.3 C310.3,156.4 326.8,139.4 347.5,138.4 Z" id="Path" fill="#FFFFFF" fill-rule="nonzero"></path>
                    <path d="M37.9,220.4 C39.5,180.4 72.4,148.5 112.8,148.5 C145,148.5 172.4,168.8 183.1,197.3 C186,196.8 189.1,196.5 192.2,196.5 C220.3,196.5 243.1,219.3 243.1,247.4 C243.1,275.5 220.3,298.3 192.2,298.3 C178.5,298.3 51.8,298.3 39.9,298.3 C18.4,298.3 0.8982009,280.8 0.8982009,259.3 C0.7,238.5 17.2,221.4 37.9,220.4 Z" id="Path" fill="#FFFFFF" fill-rule="nonzero"></path>
                    <path d="M139.5,34.5 C140.3,15.5 155.9,0.3 175.1,0.3 C190.4,0.3 203.5,10 208.5,23.5 C209.9,23.2 211.3,23.1 212.8,23.1 C226.2,23.1 237,34 237,47.3 C237,60.6 226.1,71.5 212.8,71.5 C206.3,71.5 146,71.5 140.3,71.5 C130,71.5 121.7,63.2 121.7,52.9 C121.9,43.1 129.7,35 139.5,34.5 Z" id="Path"></path>
                    <path d="M52,49.9 C53.1,22.3 75.8,0.3 103.6,0.3 C125.8,0.3 144.7,14.3 152.1,34 C154.1,33.6 156.2,33.4 158.3,33.4 C177.7,33.4 193.4,49.1 193.4,68.5 C193.4,87.9 177.7,103.6 158.3,103.6 C148.8,103.6 61.5,103.6 53.2,103.6 C38.3,103.6 26.3,91.6 26.3,76.7 C26.4,62.3 37.7,50.6 52,49.9 Z" id="Path" fill="#FFFFFF" fill-rule="nonzero"></path>
                </g>
            </g>
        </g>
    </g>
</svg>