<svg xmlns="http://www.w3.org/2000/svg" version="1.1" xmlns:xlink="http://www.w3.org/1999/xlink" xmlns:svgjs="http://svgjs.com/svgjs" width="512" height="512" x="0" y="0" viewBox="0 0 511.999 511.999" style="enable-background:new 0 0 512 512" xml:space="preserve" class=""><g>
<g stroke-width="12" style="stroke-width: 12;">
	<circle style="stroke-width: 12;" cx="251.472" cy="257.709" r="212.821" fill="#edeff0" data-original="#f9f7f8" class="" stroke-width="12"></circle>
	<path style="stroke-width: 12;" d="M308.628,462.75c-18.19,5.087-37.355,7.787-57.164,7.787c-117.526,0-212.813-95.287-212.813-212.834
		c0-117.526,95.287-212.813,212.813-212.813c19.809,0,38.974,2.699,57.164,7.787c-89.785,24.959-155.649,107.31-155.649,205.027
		C152.979,355.44,218.844,437.791,308.628,462.75z" fill="#edeff0" data-original="#dedbee" class="" stroke-width="12"></path>
	<path style="stroke-width: 12;" d="M492.712,129.873l-29.395,6.809C423.51,67.239,351.181,20.924,270.884,14.515
		C136.787,3.811,18.982,104.199,8.278,238.297C3.431,299.018,21.295,358.96,58.576,407.081
		c37.025,47.788,90.057,79.995,149.324,90.689c1.035,0.187,2.064,0.32,3.089,0.401c17.478,1.394,33.349-12.135,33.603-30.866
		c0.208-15.284-11.114-28.175-26.149-30.932c-43.883-8.049-83.153-31.986-110.625-67.444
		c-27.756-35.825-41.055-80.458-37.446-125.676C78.344,143.395,166.07,68.639,265.928,76.61
		c53.391,4.262,102.043,32.232,132.967,74.994l-25.052,5.803c-7.205,1.669-9.901,10.512-4.853,15.917l79.592,85.219
		c6.684,7.156,18.607,4.394,21.464-4.971l34.022-111.536C506.227,134.961,499.917,128.204,492.712,129.873z" fill="#2470a9" data-original="#af66da" class="" stroke-width="12"></path>
	<g stroke-width="12" style="stroke-width: 12;">
		<path style="stroke-width: 12;" d="M92.192,407.081c-37.281-48.12-55.145-108.062-50.298-168.784
			c9.721-121.785,107.78-215.758,226.151-223.972C135.13,5.252,18.907,105.147,8.278,238.297
			c-4.847,60.722,13.016,120.664,50.298,168.784c37.025,47.789,90.057,79.996,149.324,90.689c1.035,0.187,2.064,0.32,3.089,0.401
			c5.916,0.471,11.644-0.771,16.648-3.341C174,481.891,126.301,451.105,92.192,407.081z" fill="#2470a9" data-original="#9857bd" class="" stroke-width="12"></path>
		<path style="stroke-width: 12;" d="M402.606,173.324c-5.048-5.405-2.352-14.248,4.853-15.917l25.052-5.803
			c-30.924-42.763-79.576-70.733-132.967-74.995c-10.636-0.849-21.131-0.751-31.41,0.207
			c52.522,4.848,100.264,32.616,130.761,74.788l-25.052,5.803c-7.205,1.669-9.901,10.512-4.853,15.917l79.592,85.219
			c6.684,7.156,18.607,4.395,21.464-4.971l1.849-6.061L402.606,173.324z" fill="#2470a9" data-original="#9857bd" class="" stroke-width="12"></path>
	</g>
	<path style="stroke-width: 12; stroke-linecap: round; stroke-linejoin: round; stroke-miterlimit: 10;" d="
		M31.758,363.821c7.35,15.2,16.31,29.7,26.82,43.26c37.02,47.79,90.05,80,149.32,90.69c1.04,0.19,2.07,0.32,3.09,0.4
		c17.48,1.39,33.35-12.13,33.6-30.87c0.21-15.28-11.11-28.17-26.14-30.93c-43.89-8.05-83.16-31.98-110.63-67.44
		c-27.76-35.83-41.05-80.46-37.44-125.68c7.97-99.86,95.69-174.61,195.55-166.64c34.16,2.73,66.37,15.15,93.25,34.96" fill="none" stroke="#23303d" stroke-width="12" stroke-linecap="round" stroke-linejoin="round" stroke-miterlimit="10" data-original="#000000" class=""></path>
	<path style="stroke-width: 12; stroke-linecap: round; stroke-linejoin: round; stroke-miterlimit: 10;" d="
		M18.818,331.291c-9.4-29.74-13.07-61.26-10.54-92.99c10.7-134.1,128.51-234.49,262.61-223.79
		c80.29,6.41,152.62,52.73,192.43,122.17l29.39-6.81c7.21-1.67,13.52,5.09,11.36,12.16l-34.02,111.54
		c-2.86,9.37-14.78,12.13-21.47,4.97l-79.59-85.22c-5.05-5.4-2.35-14.25,4.85-15.91l25.06-5.81c-4.33-5.99-9.01-11.69-14-17.08" fill="none" stroke="#23303d" stroke-width="12" stroke-linecap="round" stroke-linejoin="round" stroke-miterlimit="10" data-original="#000000" class=""></path>
	<g stroke-width="12" style="stroke-width: 12;">
		<g stroke-width="12" style="stroke-width: 12;">
			<path style="stroke-width: 12;" d="M461.351,462.944c-0.044,0-0.087,0-0.131,0c-8.186-0.07-14.766-6.764-14.695-14.951
				c0.07-8.095,0.141-17.09,0.21-26.464h-55.249c-5.244,0-10.099-2.771-12.765-7.287c-2.666-4.516-2.748-10.105-0.214-14.697
				c11.096-20.113,47.916-86.493,55.843-96.219c7.08-8.687,16.683-12.208,25.684-9.42c9.087,2.814,15.539,11.601,16.438,22.386
				c0.418,5.023,0.31,41.673,0.111,75.59h3.021c8.187,0,14.824,6.637,14.824,14.824c0,8.187-6.637,14.824-14.824,14.824h-3.219
				c-0.089,12.041-0.171,21.772-0.213,26.719C476.101,456.391,469.477,462.944,461.351,462.944z M416.671,391.882h30.259
				c0.117-20.153,0.196-39.582,0.188-53.415C439.273,351.783,428.095,371.432,416.671,391.882z" fill="#63d9b6" data-original="#9be69d" class="" stroke-width="12"></path>
		</g>
		<g stroke-width="12" style="stroke-width: 12;">
			<path style="stroke-width: 12;" d="M322.266,462.975c-27.159,0-29.182-0.676-31.161-1.335c-4.91-1.637-8.58-5.352-10.069-10.194
				c-2.32-7.541,1.836-13.591,3.4-15.869c1.399-2.037,3.434-4.702,6.515-8.736c7.13-9.336,20.403-26.715,42.644-58.493
				c6.496-9.282,10.686-17.569,12.462-24.645l0.456-3.566c-0.432-11.246-9.716-20.263-21.066-20.263
				c-10.054,0-18.754,7.141-20.687,16.98c-1.578,8.033-9.369,13.266-17.403,11.689c-8.033-1.578-13.267-9.37-11.689-17.403
				c4.657-23.706,25.591-40.913,49.778-40.913c27.973,0,50.73,22.757,50.73,50.73c0,0.628-0.04,1.256-0.12,1.879l-0.693,5.428
				c-0.063,0.494-0.151,0.985-0.263,1.47c-2.535,10.934-8.327,22.917-17.215,35.615c-15.517,22.171-26.752,37.462-34.62,47.947
				c12.847-0.013,28.823-0.132,43.849-0.321c0.063,0,0.127-0.001,0.19-0.001c8.1,0,14.717,6.514,14.819,14.638
				c0.103,8.186-6.45,14.906-14.637,15.009C347.512,462.871,332.945,462.975,322.266,462.975z" fill="#63d9b6" data-original="#9be69d" class="" stroke-width="12"></path>
		</g>
	</g>
	<g stroke-width="12" style="stroke-width: 12;">
		<g stroke-width="12" style="stroke-width: 12;">
			<path style="stroke-width: 12; stroke-linecap: round; stroke-linejoin: round; stroke-miterlimit: 10;" d="
				M416.671,391.882h30.259c0.117-20.153,0.196-39.582,0.188-53.415C439.273,351.783,428.095,371.432,416.671,391.882z
				 M476.738,334.771c-0.02-9.65-0.11-16.51-0.27-18.48c-0.9-10.78-7.35-19.57-16.43-22.39c-9.01-2.78-18.61,0.74-25.69,9.42
				c-7.93,9.73-44.75,76.11-55.84,96.22c-2.54,4.6-2.45,10.18,0.21,14.7c2.67,4.52,7.52,7.29,12.77,7.29h55.25
				c-0.07,9.37-0.14,18.37-0.21,26.46c-0.07,8.19,6.51,14.88,14.69,14.95c0.05,0,0.09,0,0.13,0c8.13,0,14.75-6.55,14.82-14.69
				c0.05-4.95,0.13-14.68,0.22-26.72h3.21c8.19,0,14.83-6.64,14.83-14.83c0-8.18-6.64-14.82-14.83-14.82h-3.02
				c0.04-7.36,0.08-14.85,0.11-22.12" fill="none" stroke="#23303d" stroke-width="12" stroke-linecap="round" stroke-linejoin="round" stroke-miterlimit="10" data-original="#000000" class=""></path>
		</g>
		<g stroke-width="12" style="stroke-width: 12;">
			<path style="stroke-width: 12; stroke-linecap: round; stroke-linejoin: round; stroke-miterlimit: 10;" d="
				M322.266,462.975c-27.159,0-29.182-0.676-31.161-1.335c-4.91-1.637-8.58-5.352-10.069-10.194
				c-2.32-7.541,1.836-13.591,3.4-15.869c1.399-2.037,3.434-4.702,6.515-8.736c7.13-9.336,20.403-26.715,42.644-58.493
				c6.496-9.282,10.686-17.569,12.462-24.645l0.456-3.566c-0.432-11.246-9.716-20.263-21.066-20.263
				c-10.054,0-18.754,7.141-20.687,16.98c-1.578,8.033-9.369,13.266-17.403,11.689c-8.033-1.578-13.267-9.37-11.689-17.403
				c4.657-23.706,25.591-40.913,49.778-40.913c27.973,0,50.73,22.757,50.73,50.73c0,0.628-0.04,1.256-0.12,1.879l-0.693,5.428
				c-0.063,0.494-0.151,0.985-0.263,1.47c-2.535,10.934-8.327,22.917-17.215,35.615c-15.517,22.171-26.752,37.462-34.62,47.947
				c12.847-0.013,28.823-0.132,43.849-0.321c0.063,0,0.127-0.001,0.19-0.001c8.1,0,14.717,6.514,14.819,14.638
				c0.103,8.186-6.45,14.906-14.637,15.009C347.512,462.871,332.945,462.975,322.266,462.975z" fill="none" stroke="#23303d" stroke-width="12" stroke-linecap="round" stroke-linejoin="round" stroke-miterlimit="10" data-original="#000000" class=""></path>
		</g>
	</g>
	<path style="stroke-width: 12;" d="M251.473,272.533h-46.982c-8.187,0-14.824-6.637-14.824-14.824c0-8.187,6.637-14.824,14.824-14.824
		h32.158V174.18c0-8.187,6.637-14.824,14.824-14.824s14.824,6.637,14.824,14.824v83.529
		C266.296,265.896,259.66,272.533,251.473,272.533z" fill="#4c5152" data-original="#7a6d79" class="" stroke-width="12"></path>
	<path style="stroke-width: 12; stroke-linecap: round; stroke-linejoin: round; stroke-miterlimit: 10;" d="
		M232.554,242.881h-28.066c-8.183,0-14.824,6.641-14.824,14.824c0,8.193,6.641,14.824,14.824,14.824h30.942" fill="none" stroke="#23303d" stroke-width="12" stroke-linecap="round" stroke-linejoin="round" stroke-miterlimit="10" data-original="#000000" class=""></path>
	<path style="stroke-width: 12; stroke-linecap: round; stroke-linejoin: round; stroke-miterlimit: 10;" d="
		M236.645,238.384v-64.207c0-8.183,6.641-14.824,14.824-14.824c8.193,0,14.824,6.641,14.824,14.824v64.207" fill="none" stroke="#23303d" stroke-width="12" stroke-linecap="round" stroke-linejoin="round" stroke-miterlimit="10" data-original="#000000" class=""></path>
	<circle style="stroke-width: 12;" cx="251.472" cy="256.001" r="23.031" fill="#e09932" data-original="#8ac9fe" class="" stroke-width="12"></circle>
	
		<circle style="stroke-width: 12; stroke-linecap: round; stroke-linejoin: round; stroke-miterlimit: 10;" cx="251.472" cy="256.001" r="23.031" fill="none" stroke="#23303d" stroke-width="12" stroke-linecap="round" stroke-linejoin="round" stroke-miterlimit="10" data-original="#000000" class=""></circle>
	<g stroke-width="12" style="stroke-width: 12;">
		
			<line style="stroke-width: 12; stroke-linecap: round; stroke-linejoin: round; stroke-miterlimit: 10;" x1="251.472" y1="101.466" x2="251.472" y2="125.314" fill="none" stroke="#23303d" stroke-width="12" stroke-linecap="round" stroke-linejoin="round" stroke-miterlimit="10" data-original="#000000" class=""></line>
		
			<line style="stroke-width: 12; stroke-linecap: round; stroke-linejoin: round; stroke-miterlimit: 10;" x1="251.472" y1="386.688" x2="251.472" y2="410.536" fill="none" stroke="#23303d" stroke-width="12" stroke-linecap="round" stroke-linejoin="round" stroke-miterlimit="10" data-original="#000000" class=""></line>
	</g>
	<g stroke-width="12" style="stroke-width: 12;">
		
			<line style="stroke-width: 12; stroke-linecap: round; stroke-linejoin: round; stroke-miterlimit: 10;" x1="406.008" y1="256.001" x2="382.16" y2="256.001" fill="none" stroke="#23303d" stroke-width="12" stroke-linecap="round" stroke-linejoin="round" stroke-miterlimit="10" data-original="#000000" class=""></line>
		
			<line style="stroke-width: 12; stroke-linecap: round; stroke-linejoin: round; stroke-miterlimit: 10;" x1="120.785" y1="256.001" x2="96.937" y2="256.001" fill="none" stroke="#23303d" stroke-width="12" stroke-linecap="round" stroke-linejoin="round" stroke-miterlimit="10" data-original="#000000" class=""></line>
	</g>
</g>















</g></svg>