<svg id="Layer_1" data-name="Layer 1" xmlns="http://www.w3.org/2000/svg" viewBox="0 0 250 250"><defs><style>.cls-1{fill:#2470a9;}.cls-2{fill:none;stroke:#fff;stroke-linecap:round;stroke-linejoin:round;stroke-width:3px;}.cls-3{fill:#63d9b6;}.cls-4{fill:#fff;}</style></defs><rect class="cls-1" x="-281.16" y="-11.16" width="812.32" height="812.32"/><path class="cls-2" d="M49.2,53.7a5,5,0,1,1-5-5"/><path class="cls-2" d="M233.88,83.24a5,5,0,1,1-5-5"/><circle class="cls-2" cx="184.94" cy="176.42" r="4.43"/><circle class="cls-2" cx="20.55" cy="122.67" r="4.43"/><line class="cls-2" x1="167.27" y1="46.52" x2="167.27" y2="59.84"/><line class="cls-2" x1="171.09" y1="53.18" x2="163.46" y2="53.18"/><line class="cls-2" x1="124.9" y1="192.42" x2="124.9" y2="205.74"/><line class="cls-2" x1="128.71" y1="199.08" x2="121.08" y2="199.08"/><circle class="cls-3" cx="48.57" cy="177.08" r="4.41"/><circle class="cls-3" cx="223.8" cy="153.04" r="4.41"/><circle class="cls-3" cx="107.27" cy="48.66" r="4.41"/><path class="cls-4" d="M102.87,122.52a16,16,0,0,1-1,5.58,12,12,0,0,1-7,7.19,14.92,14.92,0,0,1-5.58,1,14.6,14.6,0,0,1-5.52-1,12.23,12.23,0,0,1-7-7.2,17.09,17.09,0,0,1,0-11.18,12,12,0,0,1,2.7-4.36,11.78,11.78,0,0,1,4.26-2.79,16.13,16.13,0,0,1,11.1,0,12,12,0,0,1,4.28,2.83,12.15,12.15,0,0,1,2.72,4.36A16,16,0,0,1,102.87,122.52Zm-6.79,0a10.17,10.17,0,0,0-1.82-6.44,5.92,5.92,0,0,0-4.9-2.3,6.09,6.09,0,0,0-3.49,1,6.56,6.56,0,0,0-2.33,3,12.46,12.46,0,0,0-.82,4.68,12.16,12.16,0,0,0,.81,4.63,6.55,6.55,0,0,0,2.3,3,6,6,0,0,0,3.53,1.05,5.93,5.93,0,0,0,4.9-2.31A10.16,10.16,0,0,0,96.08,122.52Z"/><path class="cls-4" d="M124.9,127.43a7.86,7.86,0,0,1-5.39,7.81,18,18,0,0,1-6.48,1,15.82,15.82,0,0,1-6.24-1.11,9.22,9.22,0,0,1-3.85-2.79,5.65,5.65,0,0,1-1.23-3.36,2.61,2.61,0,0,1,.79-1.91,2.76,2.76,0,0,1,2-.79,2.36,2.36,0,0,1,1.63.52,6,6,0,0,1,1.09,1.46,7.28,7.28,0,0,0,2.49,2.7,7.45,7.45,0,0,0,4,.9A5.68,5.68,0,0,0,117,131a2.55,2.55,0,0,0,1.3-2.07,2.82,2.82,0,0,0-1.35-2.6,17.15,17.15,0,0,0-4.45-1.56,36.6,36.6,0,0,1-5.69-1.82,9.35,9.35,0,0,1-3.5-2.51,5.79,5.79,0,0,1-1.32-3.85,6.79,6.79,0,0,1,1.22-3.84,8.36,8.36,0,0,1,3.58-2.88,13.66,13.66,0,0,1,5.71-1.08,18.48,18.48,0,0,1,4.72.55,11.72,11.72,0,0,1,3.49,1.46,7.31,7.31,0,0,1,2.13,2,3.94,3.94,0,0,1,.73,2.18,2.52,2.52,0,0,1-.78,1.91,3.11,3.11,0,0,1-2.21.74,2.77,2.77,0,0,1-1.78-.59,12.63,12.63,0,0,1-1.67-1.79,5.92,5.92,0,0,0-1.81-1.58,5.63,5.63,0,0,0-2.82-.6,5.55,5.55,0,0,0-3.05.78,2.27,2.27,0,0,0-1.21,2,2.07,2.07,0,0,0,.89,1.74,7.25,7.25,0,0,0,2.4,1.13c1,.3,2.4.66,4.16,1.09a22.21,22.21,0,0,1,5.15,1.83,8.74,8.74,0,0,1,3,2.52A5.63,5.63,0,0,1,124.9,127.43Z"/><path class="cls-4" d="M149.8,127.9a5.88,5.88,0,0,1-.75,2.7,9.45,9.45,0,0,1-2.31,2.74,12,12,0,0,1-3.9,2.09,16.53,16.53,0,0,1-5.3.79q-6.27,0-9.79-3.65t-3.52-9.8a16.17,16.17,0,0,1,1.61-7.36,11.59,11.59,0,0,1,4.66-4.94,14.35,14.35,0,0,1,7.28-1.75,14.5,14.5,0,0,1,4.82.77,12.49,12.49,0,0,1,3.72,2,9.46,9.46,0,0,1,2.33,2.59,5.09,5.09,0,0,1,.8,2.56,2.71,2.71,0,0,1-.9,2.06,3.09,3.09,0,0,1-2.19.84,2.2,2.2,0,0,1-1.4-.43,7,7,0,0,1-1.25-1.4,10.11,10.11,0,0,0-2.59-2.82,6.34,6.34,0,0,0-8.27,1.4,10.13,10.13,0,0,0-1.83,6.4,12.57,12.57,0,0,0,.47,3.51,8,8,0,0,0,1.36,2.72,6,6,0,0,0,2.16,1.71,6.52,6.52,0,0,0,2.77.58,6.26,6.26,0,0,0,3.49-.94,8.25,8.25,0,0,0,2.56-2.87,6.58,6.58,0,0,1,1.34-1.79,2.53,2.53,0,0,1,1.76-.64,2.59,2.59,0,0,1,2,.94A3,3,0,0,1,149.8,127.9Z"/><path class="cls-4" d="M167.72,132.46a21.24,21.24,0,0,1-4.75,2.86,13.34,13.34,0,0,1-5.14,1,9.71,9.71,0,0,1-4.57-1,7.49,7.49,0,0,1-3-2.78,7.28,7.28,0,0,1-1.07-3.82,6.83,6.83,0,0,1,1.76-4.73,8.77,8.77,0,0,1,4.83-2.63l3.2-.67c1.7-.34,3.16-.66,4.37-1s2.53-.64,4-1a7.07,7.07,0,0,0-1.07-3.93c-.64-.83-2-1.25-4-1.25a8.19,8.19,0,0,0-3.87.72,6.25,6.25,0,0,0-2.23,2.15,22.38,22.38,0,0,1-1.32,1.9,2.15,2.15,0,0,1-1.64.46,2.91,2.91,0,0,1-2-.73,2.38,2.38,0,0,1-.83-1.88,5.72,5.72,0,0,1,1.26-3.46,9,9,0,0,1,3.94-2.78,17.64,17.64,0,0,1,6.66-1.09,19,19,0,0,1,7,1,6.54,6.54,0,0,1,3.6,3.34,14.59,14.59,0,0,1,1,6c0,1.59,0,2.93,0,4s0,2.34,0,3.69a13.37,13.37,0,0,0,.64,4,12.67,12.67,0,0,1,.63,2.66,2.5,2.5,0,0,1-1,1.9,3.27,3.27,0,0,1-2.22.85,3,3,0,0,1-2.06-1A14.63,14.63,0,0,1,167.72,132.46Zm-.45-9.79a33.83,33.83,0,0,1-4.32,1.15c-1.89.41-3.2.7-3.93.89a5.44,5.44,0,0,0-2.08,1.12,2.85,2.85,0,0,0-1,2.32,3.42,3.42,0,0,0,1.17,2.61,4.28,4.28,0,0,0,3,1.08,8.05,8.05,0,0,0,3.71-.88,5.88,5.88,0,0,0,2.49-2.27,10.37,10.37,0,0,0,.91-5Z"/><path class="cls-4" d="M182.42,126.51v5.65a4.36,4.36,0,0,1-1,3.08,3.21,3.21,0,0,1-2.45,1,3.09,3.09,0,0,1-2.41-1,4.47,4.47,0,0,1-.94-3.07V113.33q0-4.56,3.3-4.56a2.77,2.77,0,0,1,2.43,1.07,5.9,5.9,0,0,1,.81,3.14,11.78,11.78,0,0,1,2.49-3.14,5.16,5.16,0,0,1,3.41-1.07,8.75,8.75,0,0,1,4.14,1.07,3.17,3.17,0,0,1,2,2.82,2.84,2.84,0,0,1-2.7,2.85,8.36,8.36,0,0,1-1.79-.46,8.55,8.55,0,0,0-2.52-.46,3.69,3.69,0,0,0-2.43.78,5.13,5.13,0,0,0-1.46,2.32,17,17,0,0,0-.72,3.65C182.48,122.76,182.42,124.48,182.42,126.51Z"/><path class="cls-2" d="M191.59,87.18S140.13,67.6,96.93,68.61,46.27,95.05,49.1,125.73s32.74,50.1,53.93,50.66c26.69.7,53.45-9.09,53.45-9.09s43-14.53,56.71-31.68S226.51,101.51,191.59,87.18Z"/></svg>