<svg id="Layer_1" data-name="Layer 1" xmlns="http://www.w3.org/2000/svg" viewBox="0 0 250 250"><defs><style>.cls-1{fill:#2470a9;}.cls-2{fill:none;stroke:#fff;stroke-linecap:round;stroke-linejoin:round;stroke-width:2px;}.cls-3{fill:#63d9b6;}.cls-4{fill:#f7931e;}.cls-5{fill:#ff7680;}.cls-6{fill:#fff;}</style></defs><rect class="cls-1" width="250" height="250"/><path class="cls-2" d="M65.79,177.27a6.94,6.94,0,0,0,6.94,6.94H177.27a6.94,6.94,0,0,0,6.94-6.94V85.8H65.79Z"/><path class="cls-2" d="M177.27,65.79H72.73a6.94,6.94,0,0,0-6.94,6.94V85.8H184.21V72.73A6.94,6.94,0,0,0,177.27,65.79Z"/><circle class="cls-3" cx="76.92" cy="75.8" r="1.57"/><circle class="cls-4" cx="82.59" cy="75.8" r="1.57"/><circle class="cls-5" cx="88.26" cy="75.8" r="1.57"/><path class="cls-2" d="M200.23,117.43a3,3,0,1,1,3-3"/><path class="cls-2" d="M44.54,154.31a3,3,0,1,1,3-3"/><path class="cls-2" d="M134.08,49.82a3,3,0,1,1,3-3"/><line class="cls-2" x1="46.34" y1="60.95" x2="46.34" y2="70.63"/><line class="cls-2" x1="51.18" y1="65.79" x2="41.5" y2="65.79"/><line class="cls-2" x1="160.53" y1="194.03" x2="160.53" y2="203.71"/><line class="cls-2" x1="165.37" y1="198.87" x2="155.69" y2="198.87"/><circle class="cls-3" cx="189.96" cy="53.43" r="2.29"/><circle class="cls-3" cx="86.04" cy="46.78" r="2.29"/><circle class="cls-3" cx="81.26" cy="202.47" r="2.29"/><circle class="cls-3" cx="41.5" cy="111.37" r="2.29"/><circle class="cls-3" cx="200.23" cy="181.5" r="2.29"/><path class="cls-6" d="M144.16,110.38a1.44,1.44,0,1,0-1.44-1.43A1.43,1.43,0,0,0,144.16,110.38ZM146,122.75s-1.82-9.17-13.75-6.68c-1.21-4.14-1-7.18,1.66-10,3.59-3.8,9.22-1.71,9.22-1.71v-3.14a13.82,13.82,0,0,0-6-1c-7.68,0-11.93,5.74-13.75,9.6l-21.59,39.7,6.07-1.16L96.73,169.84l7.79-1.38,6-17C127.37,151.51,149,145.44,146,122.75Zm7.29-7.68-4.75-4.58-3.75,4.58Zm-40,31.53,1.54-.33c1-.22,2.38-.55,4-1,.83-.22,1.71-.49,2.65-.82s1.93-.67,2.87-1.11a23.13,23.13,0,0,0,3-1.43,19.21,19.21,0,0,0,2.82-1.88,6.41,6.41,0,0,0,.66-.55l.66-.55c.39-.39.83-.78,1.22-1.22a11.6,11.6,0,0,0,1.05-1.27l.5-.66.22-.33.22-.33c.11-.23.27-.45.38-.67a3.8,3.8,0,0,1,.39-.66l.17-.33.16-.33a3.73,3.73,0,0,0,.28-.66l.49-1.33c.11-.44.28-.88.39-1.27s.17-.83.28-1.16.11-.72.16-1.1a5.67,5.67,0,0,0,.11-.94c.06-.28.06-.55.11-.83.06-1,.06-1.55.06-1.55l.88.06s-.05.61-.11,1.6c-.05.28-.05.55-.11.83a5.67,5.67,0,0,1-.16,1c-.06.33-.17.72-.23,1.11s-.22.77-.33,1.21-.27.83-.44,1.33-.33.88-.55,1.38l-.33.66-.17.33-.16.33a7.81,7.81,0,0,0-.39.72c-.17.22-.28.44-.44.66s-.17.22-.22.33l-.22.33-.5.67a14,14,0,0,1-1.16,1.27c-.39.44-.83.77-1.27,1.21l-.66.55a7.48,7.48,0,0,1-.72.5,31.72,31.72,0,0,1-2.93,1.82c-1,.5-2,1-3,1.38s-2,.72-2.93,1-1.82.55-2.7.71c-1.66.39-3.1.72-4.09.89a10.28,10.28,0,0,1-1.43.44Z"/></svg>