<svg xmlns="http://www.w3.org/2000/svg" version="1.1" xmlns:xlink="http://www.w3.org/1999/xlink" xmlns:svgjs="http://svgjs.com/svgjs" width="512" height="512" x="0" y="0" viewBox="0 0 512.002 512.002" style="enable-background:new 0 0 512 512" xml:space="preserve" class=""><g>
<g stroke-width="12" style="stroke-width: 12;">
	<path style="stroke-width: 12;" d="M502.002,194.845c0,53.71-42.45,99.58-94.98,105.15h-10.03c0-0.35,0.02-47.11,0-47.46
		c-0.54-10.13-8.9-18.56-19.09-19.09c-0.35-0.02-0.69-0.03-1.04-0.03h-254.03c-11.14,0-20.162,9.03-20.162,20.16v46.42H90.732
		c-43.96,0-80.4-34.59-80.73-78.55c-0.33-44.31,35.49-80.33,79.72-80.33c2.67,0,5.3,0.15,7.89,0.4
		c5.795-55.319,45.125-103.563,97.95-120.83c14.06-4.61,29.08-7.1,44.69-7.1c15.16,0,29.77,2.35,43.48,6.72
		c36.56,11.556,67.683,38.236,84.82,72.51c8.83-2.4,18.14-3.69,27.73-3.69C453.262,89.125,502.002,138.005,502.002,194.845z" fill="#2470a9" data-original="#f9f5f3" stroke-width="12" class=""></path>
	<g stroke-width="12" style="stroke-width: 12;">
		<path style="stroke-width: 12;" d="M396.992,253.574c0-11.133-8.99-20.158-20.124-20.158H122.828
			c-11.133,0-20.158,9.025-20.158,20.158v46.42h294.322V253.574z" fill="#e09932" data-original="#ff7e96" stroke-width="12" class=""></path>
		<path style="stroke-width: 12; stroke-linecap: round; stroke-linejoin: round; stroke-miterlimit: 10;" d="
			M396.992,253.574c0-11.133-8.99-20.158-20.124-20.158H122.828c-11.133,0-20.158,9.025-20.158,20.158v46.42h294.322V253.574z" fill="none" stroke="#23303d" stroke-width="12" stroke-linecap="round" stroke-linejoin="round" stroke-miterlimit="10" data-original="#000000" class=""></path>
		<path style="stroke-width: 12;" d="M102.67,299.995v178.268c0,11.133,9.025,20.158,20.158,20.158h254.041
			c11.133,0,20.158-9.025,20.158-20.158l-0.035-178.268H102.67z" fill="#edeff0" data-original="#e0e7ef" stroke-width="12" class=""></path>
		<path style="stroke-width: 12; stroke-linecap: round; stroke-linejoin: round; stroke-miterlimit: 10;" d="
			M102.67,299.995v178.268c0,11.133,9.025,20.158,20.158,20.158h254.041c11.133,0,20.158-9.025,20.158-20.158l-0.035-178.268H102.67
			z" fill="none" stroke="#23303d" stroke-width="12" stroke-linecap="round" stroke-linejoin="round" stroke-miterlimit="10" data-original="#000000" class=""></path>
	</g>
	<path style="stroke-width: 12; stroke-linecap: round; stroke-linejoin: round; stroke-miterlimit: 10;" d="
		M283.732,20.305c36.572,11.85,67.598,38.065,84.82,72.51c8.83-2.4,18.14-3.69,27.73-3.69c56.98,0,105.72,48.88,105.72,105.72
		c0,53.71-42.45,99.58-94.98,105.15h-10.03c0-0.35,0.02-47.11,0-47.46c-0.52-10.3-8.79-18.57-19.09-19.09
		c-0.35-0.02-0.69-0.03-1.04-0.03h-254.03c-11.14,0-20.162,9.03-20.162,20.16v46.42H90.732c-43.96,0-80.4-34.59-80.73-78.55
		c-0.33-44.31,35.49-80.33,79.72-80.33c2.67,0,5.3,0.15,7.89,0.4c5.828-55.638,45.808-104.625,99.3-121.27" fill="none" stroke="#23303d" stroke-width="12" stroke-linecap="round" stroke-linejoin="round" stroke-miterlimit="10" data-original="#000000" class=""></path>
	
		<line style="stroke-width: 12; stroke-linecap: round; stroke-linejoin: round; stroke-miterlimit: 10;" x1="141.121" y1="266.541" x2="141.121" y2="266.541" fill="none" stroke="#23303d" stroke-width="12" stroke-linecap="round" stroke-linejoin="round" stroke-miterlimit="10" data-original="#000000" class=""></line>
	
		<line style="stroke-width: 12; stroke-linecap: round; stroke-linejoin: round; stroke-miterlimit: 10;" x1="177.414" y1="266.541" x2="177.414" y2="266.541" fill="none" stroke="#23303d" stroke-width="12" stroke-linecap="round" stroke-linejoin="round" stroke-miterlimit="10" data-original="#000000" class=""></line>
	<g stroke-width="12" style="stroke-width: 12;">
		<path style="stroke-width: 12; stroke-linecap: round; stroke-linejoin: round; stroke-miterlimit: 10;" d="
			M145.637,445.67l34.454-90.463c0.704-1.721,3.141-1.724,3.848-0.004l34.141,90.467" fill="none" stroke="#23303d" stroke-width="12" stroke-linecap="round" stroke-linejoin="round" stroke-miterlimit="10" data-original="#000000" class=""></path>
		
			<line style="stroke-width: 12; stroke-linecap: round; stroke-linejoin: round; stroke-miterlimit: 10;" x1="156.383" y1="423.14" x2="207.509" y2="423.14" fill="none" stroke="#23303d" stroke-width="12" stroke-linecap="round" stroke-linejoin="round" stroke-miterlimit="10" data-original="#000000" class=""></line>
	</g>
	<g stroke-width="12" style="stroke-width: 12;">
		
			<line style="stroke-width: 12; stroke-linecap: round; stroke-linejoin: round; stroke-miterlimit: 10;" x1="348.118" y1="353.914" x2="348.118" y2="445.67" fill="none" stroke="#23303d" stroke-width="12" stroke-linecap="round" stroke-linejoin="round" stroke-miterlimit="10" data-original="#000000" class=""></line>
	</g>
	<g stroke-width="12" style="stroke-width: 12;">
		
			<line style="stroke-width: 12; stroke-linecap: round; stroke-linejoin: round; stroke-miterlimit: 10;" x1="257.498" y1="353.914" x2="257.498" y2="445.67" fill="none" stroke="#23303d" stroke-width="12" stroke-linecap="round" stroke-linejoin="round" stroke-miterlimit="10" data-original="#000000" class=""></line>
		<path style="stroke-width: 12; stroke-linecap: round; stroke-linejoin: round; stroke-miterlimit: 10;" d="
			M309.447,379.808c0,14.3-12.1,25.893-26.401,25.893c-7.092,0-25.371,0.114-25.371,0.114s-0.114-18.799-0.114-26.008
			c0-5.92-0.064-25.893-0.064-25.893s17.169,0,25.549,0C297.347,353.914,309.447,365.507,309.447,379.808z" fill="none" stroke="#23303d" stroke-width="12" stroke-linecap="round" stroke-linejoin="round" stroke-miterlimit="10" data-original="#000000" class=""></path>
	</g>
	<g stroke-width="12" style="stroke-width: 12;">
		<path style="stroke-width: 12;" d="M378.577,233.415H296.46c0-25.155-20.4-45.555-45.555-45.555c-25.167,0-45.555,20.4-45.555,45.555
			h-82.128c0-16.049,2.961-31.402,8.378-45.544c14.647,7.996,33.309,4.082,43.402-9.779c10.094-13.839,8.109-32.793-3.97-44.288
			c13.492-10.834,29.238-18.987,46.419-23.619c2.164,16.542,16.307,29.305,33.454,29.305c17.137,0,31.29-12.774,33.443-29.316
			c17.181,4.643,32.916,12.796,46.419,23.63c-12.079,11.495-14.052,30.449-3.97,44.288c10.094,13.862,28.755,17.776,43.402,9.779
			C375.616,202.012,378.577,217.366,378.577,233.415z" fill="#63d9b6" data-original="#b7bcce" stroke-width="12" class=""></path>
	</g>
	<g stroke-width="12" style="stroke-width: 12;">
		<path style="stroke-width: 12; stroke-linecap: round; stroke-linejoin: round; stroke-miterlimit: 10;" d="
			M378.577,233.415H296.46c0-25.155-20.4-45.555-45.555-45.555c-25.167,0-45.555,20.4-45.555,45.555h-82.128
			c0-16.049,2.961-31.402,8.378-45.544c14.647,7.996,33.309,4.082,43.402-9.779c10.094-13.839,8.109-32.793-3.97-44.288
			c13.492-10.834,29.238-18.987,46.419-23.619c2.164,16.542,16.307,29.305,33.454,29.305c17.137,0,31.29-12.774,33.443-29.316
			c17.181,4.643,32.916,12.796,46.419,23.63c-12.079,11.495-14.052,30.449-3.97,44.288c10.094,13.862,28.755,17.776,43.402,9.779
			C375.616,202.012,378.577,217.366,378.577,233.415z" fill="none" stroke="#23303d" stroke-width="12" stroke-linecap="round" stroke-linejoin="round" stroke-miterlimit="10" data-original="#000000" class=""></path>
	</g>
	
		<line style="stroke-width: 12; stroke-linecap: round; stroke-linejoin: round; stroke-miterlimit: 10;" x1="240.255" y1="13.582" x2="240.255" y2="13.582" fill="none" stroke="#23303d" stroke-width="12" stroke-linecap="round" stroke-linejoin="round" stroke-miterlimit="10" data-original="#000000" class=""></line>
</g>















</g></svg>