<svg xmlns="http://www.w3.org/2000/svg" version="1.1" xmlns:xlink="http://www.w3.org/1999/xlink" xmlns:svgjs="http://svgjs.com/svgjs" width="512" height="512" x="0" y="0" viewBox="0 0 480 480" style="enable-background:new 0 0 512 512" xml:space="preserve" class=""><g><path d="m416 127.496094h-96c-33.28125 6.449218-56 19.28125-56 34.105468 0 21.199219 46.558594 38.398438 104 38.398438s104-17.207031 104-38.398438c0-14.824218-22.71875-27.65625-56-34.105468zm0 0" fill="#63d9b6" data-original="#eaeaea" class=""></path><path d="m392 399.496094h-96c-33.28125 6.449218-56 19.28125-56 34.105468 0 21.199219 46.558594 38.398438 104 38.398438s104-17.207031 104-38.398438c0-14.824218-22.71875-27.65625-56-34.105468zm0 0" fill="#63d9b6" data-original="#495867" class=""></path><path d="m160 224h-96c-33.28125 6.449219-56 19.28125-56 34.105469 0 21.199219 46.558594 38.398437 104 38.398437s104-17.207031 104-38.398437c0-14.824219-22.71875-27.65625-56-34.105469zm0 0" fill="#63d9b6" data-original="#577399" class=""></path><path d="m368 79.015625-20.960938-16c-14.925781 0-27.039062 12.105469-27.039062 27.039063v68.960937h96v-68.960937c0-14.925782-12.105469-27.039063-27.039062-27.039063zm0 0" fill="#97a2a6" data-original="#bdd5ea" class=""></path><path d="m347.039062 64 20.960938 16 20.960938-16c8.503906-7.433594 13.175781-19.128906 10.070312-31.910156-2.773438-11.417969-12.101562-20.648438-23.558594-23.25-20.921875-4.726563-39.472656 11.046875-39.472656 31.160156 0 9.617188 4.328125 18.136719 11.039062 24zm0 0" fill="#e09932" data-original="#ffdbac" class=""></path><path d="m368 80-16 24 16 32 16-32zm0 0" fill="#63d9b6" data-original="#577399" class=""></path><path d="m344 351.015625-20.960938-16c-14.925781 0-27.039062 12.105469-27.039062 27.039063v77.945312h96v-77.953125c0-14.925781-12.105469-27.039063-27.039062-27.039063zm0 0" fill="#97a2a6" data-original="#bdd5ea" class=""></path><path d="m323.039062 336 20.960938 16 20.960938-16c8.503906-7.433594 13.175781-19.128906 10.070312-31.910156-2.773438-11.417969-12.101562-20.648438-23.558594-23.25-20.921875-4.726563-39.472656 11.046875-39.472656 31.160156 0 9.617188 4.328125 18.136719 11.039062 24zm0 0" fill="#e09932" data-original="#ffdbac" class=""></path><path d="m344 352-16 24 16 32 16-32zm0 0" fill="#63d9b6" data-original="#577399" class=""></path><path d="m112 176-20.960938-16c-14.933593 0-27.039062 12.105469-27.039062 27.039062v76.960938h96v-76.960938c0-14.925781-12.105469-27.039062-27.039062-27.039062zm0 0" fill="#97a2a6" data-original="#bdd5ea" class=""></path><path d="m91.039062 160 20.960938 16 20.960938-16c8.503906-7.433594 13.175781-19.128906 10.070312-31.910156-2.773438-11.417969-12.101562-20.648438-23.558594-23.25-20.921875-4.726563-39.472656 11.046875-39.472656 31.160156 0 9.617188 4.328125 18.136719 11.039062 24zm0 0" fill="#e09932" data-original="#ffdbac" class=""></path><path d="m112 176-16 24 16 32 16-32zm0 0" fill="#63d9b6" data-original="#577399" class=""></path><path d="m424 121.007812v-33.296874c0-13.757813-8.488281-25.632813-20.648438-30.957032 4.601563-8.273437 5.894532-17.953125 3.441407-27.625-3.570313-13.992187-15.21875-25.03125-29.632813-28.113281-12.398437-2.742187-25.046875.136719-34.679687 7.871094-9.199219 7.394531-14.480469 18.265625-14.480469 29.824219 0 6.34375 1.640625 12.519531 4.671875 18.023437-12.175781 5.328125-20.671875 17.210937-20.671875 30.976563v33.296874c-35.679688 8.054688-56 22.679688-56 40.585938 0 30.140625 57.703125 46.40625 112 46.40625s112-16.265625 112-46.40625c0-17.898438-20.320312-32.53125-56-40.585938zm-71.503906-99.648437c5.832031-4.6875 13.566406-6.421875 21.273437-4.710937 8.429688 1.808593 15.46875 8.40625 17.511719 16.421874 2.109375 8.335938-.640625 16.714844-7.359375 22.449219l-15.921875 11.671875-15.902344-11.65625c-5.136718-4.328125-8.097656-10.445312-8.097656-16.824218 0-6.6875 3.097656-13.007813 8.496094-17.351563zm22.488281 86.472656-6.984375 13.398438-6.984375-13.398438 6.984375-13.398437zm-46.984375-20.121093c0-9.160157 7.328125-16.648438 16.726562-17.742188l13.007813 9.535156-12.832031 24.640625c-1.207032 2.3125-1.207032 5.078125 0 7.390625l16 30.722656c1.378906 2.644532 4.113281 4.300782 7.097656 4.300782s5.71875-1.65625 7.097656-4.300782l16-30.722656c1.207032-2.3125 1.207032-5.078125 0-7.390625l-12.832031-24.640625 13.007813-9.535156c9.398437 1.09375 16.726562 8.582031 16.726562 17.742188v72.289062h-80zm40 104.289062c-58.601562 0-96-18.007812-96-30.40625 0-7.417969 13.769531-17.53125 40-24.089844v30.496094c0 4.425781 3.585938 8 8 8h96c4.414062 0 8-3.574219 8-8v-30.496094c26.230469 6.558594 40 16.679688 40 24.089844 0 12.398438-37.398438 30.40625-96 30.40625zm0 0" fill="#2470a9" data-original="#000000" class=""></path><path d="m344 480c54.296875 0 112-16.265625 112-46.40625 0-17.90625-20.320312-32.53125-56-40.585938v-33.296874c0-13.757813-8.488281-25.632813-20.648438-30.957032 4.601563-8.273437 5.894532-17.953125 3.441407-27.625-3.570313-13.992187-15.21875-25.03125-29.632813-28.113281-12.40625-2.742187-25.039062.136719-34.679687 7.871094-9.199219 7.394531-14.480469 18.265625-14.480469 29.824219 0 6.34375 1.640625 12.519531 4.671875 18.023437-12.175781 5.328125-20.671875 17.210937-20.671875 30.976563v33.296874c-35.679688 8.054688-56 22.679688-56 40.585938 0 30.140625 57.703125 46.40625 112 46.40625zm-15.503906-186.640625c5.832031-4.6875 13.558594-6.421875 21.273437-4.710937 8.429688 1.808593 15.46875 8.40625 17.511719 16.421874 2.109375 8.335938-.640625 16.714844-7.359375 22.449219l-15.921875 11.671875-15.902344-11.65625c-5.136718-4.328125-8.097656-10.445312-8.097656-16.824218 0-6.6875 3.097656-13.007813 8.496094-17.351563zm22.488281 86.472656-6.984375 13.398438-6.984375-13.398438 6.984375-13.398437zm-46.984375-20.121093c0-9.160157 7.328125-16.648438 16.726562-17.742188l13.007813 9.535156-12.832031 24.640625c-1.207032 2.3125-1.207032 5.078125 0 7.390625l16 30.722656c1.378906 2.644532 4.113281 4.300782 7.097656 4.300782s5.71875-1.65625 7.097656-4.300782l16-30.722656c1.207032-2.3125 1.207032-5.078125 0-7.390625l-12.832031-24.640625 13.007813-9.535156c9.398437 1.09375 16.726562 8.582031 16.726562 17.742188v72.289062h-80zm-16 49.792968v30.496094c0 4.425781 3.585938 8 8 8h96c4.414062 0 8-3.574219 8-8v-30.496094c26.230469 6.558594 40 16.679688 40 24.089844 0 12.398438-37.398438 30.40625-96 30.40625s-96-18.007812-96-30.40625c0-7.417969 13.769531-17.53125 40-24.089844zm0 0" fill="#2470a9" data-original="#000000" class=""></path><path d="m168 217.007812v-33.296874c0-13.757813-8.488281-25.632813-20.648438-30.957032 4.601563-8.273437 5.894532-17.953125 3.441407-27.625-3.570313-13.992187-15.21875-25.03125-29.632813-28.113281-12.40625-2.75-25.046875.136719-34.679687 7.871094-9.199219 7.394531-14.480469 18.265625-14.480469 29.824219 0 6.34375 1.640625 12.519531 4.671875 18.023437-12.175781 5.328125-20.671875 17.210937-20.671875 30.976563v33.296874c-35.679688 8.054688-56 22.679688-56 40.585938 0 30.140625 57.703125 46.40625 112 46.40625s112-16.265625 112-46.40625c0-17.898438-20.320312-32.53125-56-40.585938zm-71.503906-99.648437c5.832031-4.6875 13.558594-6.421875 21.273437-4.710937 8.429688 1.808593 15.46875 8.40625 17.511719 16.421874 2.109375 8.335938-.640625 16.714844-7.359375 22.449219l-15.921875 11.671875-15.902344-11.65625c-5.136718-4.328125-8.097656-10.445312-8.097656-16.824218 0-6.6875 3.097656-13.007813 8.496094-17.351563zm22.488281 86.472656-6.984375 13.398438-6.984375-13.398438 6.984375-13.398437zm-46.984375-20.121093c0-9.160157 7.328125-16.648438 16.726562-17.742188l13.007813 9.535156-12.832031 24.640625c-1.207032 2.3125-1.207032 5.078125 0 7.390625l16 30.722656c1.378906 2.644532 4.113281 4.300782 7.097656 4.300782s5.71875-1.65625 7.097656-4.300782l16-30.722656c1.207032-2.3125 1.207032-5.078125 0-7.390625l-12.832031-24.640625 13.007813-9.535156c9.398437 1.09375 16.726562 8.582031 16.726562 17.742188v72.289062h-80zm40 104.289062c-58.601562 0-96-18.007812-96-30.40625 0-7.417969 13.769531-17.53125 40-24.089844v30.496094c0 4.425781 3.585938 8 8 8h96c4.414062 0 8-3.574219 8-8v-30.496094c26.230469 6.558594 40 16.679688 40 24.089844 0 12.398438-37.398438 30.40625-96 30.40625zm0 0" fill="#2470a9" data-original="#000000" class=""></path><path d="m208 0h16v16h-16zm0 0" fill="#2470a9" data-original="#000000" class=""></path><path d="m208 32h16v16h-16zm0 0" fill="#2470a9" data-original="#000000" class=""></path><path d="m208 64h16v16h-16zm0 0" fill="#2470a9" data-original="#000000" class=""></path><path d="m208 96h16v16h-16zm0 0" fill="#2470a9" data-original="#000000" class=""></path><path d="m208 128h16v16h-16zm0 0" fill="#2470a9" data-original="#000000" class=""></path><path d="m208 160h16v16h-16zm0 0" fill="#2470a9" data-original="#000000" class=""></path><path d="m208 192h16v16h-16zm0 0" fill="#2470a9" data-original="#000000" class=""></path><path d="m240 208h16v16h-16zm0 0" fill="#2470a9" data-original="#000000" class=""></path><path d="m272 240h16v16h-16zm0 0" fill="#2470a9" data-original="#000000" class=""></path><path d="m304 240h16v16h-16zm0 0" fill="#2470a9" data-original="#000000" class=""></path><path d="m336 240h16v16h-16zm0 0" fill="#2470a9" data-original="#000000" class=""></path><path d="m368 240h16v16h-16zm0 0" fill="#2470a9" data-original="#000000" class=""></path><path d="m400 240h16v16h-16zm0 0" fill="#2470a9" data-original="#000000" class=""></path><path d="m432 240h16v16h-16zm0 0" fill="#2470a9" data-original="#000000" class=""></path><path d="m464 240h16v16h-16zm0 0" fill="#2470a9" data-original="#000000" class=""></path><path d="m240 240h16v16h-16zm0 0" fill="#2470a9" data-original="#000000" class=""></path><path d="m240 272h16v16h-16zm0 0" fill="#2470a9" data-original="#000000" class=""></path><path d="m240 304h16v16h-16zm0 0" fill="#2470a9" data-original="#000000" class=""></path><path d="m240 336h16v16h-16zm0 0" fill="#2470a9" data-original="#000000" class=""></path><path d="m208 336h16v16h-16zm0 0" fill="#2470a9" data-original="#000000" class=""></path><path d="m176 336h16v16h-16zm0 0" fill="#2470a9" data-original="#000000" class=""></path><path d="m144 336h16v16h-16zm0 0" fill="#2470a9" data-original="#000000" class=""></path><path d="m112 336h16v16h-16zm0 0" fill="#2470a9" data-original="#000000" class=""></path><path d="m112 368h16v16h-16zm0 0" fill="#2470a9" data-original="#000000" class=""></path><path d="m112 400h16v16h-16zm0 0" fill="#2470a9" data-original="#000000" class=""></path><path d="m80 400h16v16h-16zm0 0" fill="#2470a9" data-original="#000000" class=""></path><path d="m48 400h16v16h-16zm0 0" fill="#2470a9" data-original="#000000" class=""></path><path d="m48 432h16v16h-16zm0 0" fill="#2470a9" data-original="#000000" class=""></path><path d="m48 464h16v16h-16zm0 0" fill="#2470a9" data-original="#000000" class=""></path></g></svg>