<svg xmlns="http://www.w3.org/2000/svg" version="1.1" xmlns:xlink="http://www.w3.org/1999/xlink" xmlns:svgjs="http://svgjs.com/svgjs" width="512" height="512" x="0" y="0" viewBox="0 0 512 512" style="enable-background:new 0 0 512 512" xml:space="preserve" class=""><g>
<g>
	<g>
		<path style="" d="M442.248,242.544l-56.791-56.75c-3.98-3.977-10.429-3.977-14.408,0l-56.797,56.757
			c-6.416,6.412-1.875,17.38,7.195,17.38h40.187c-0.351,47.572-32.545,89.897-77.64,102.841c-6.369,1.828-12.711-3.007-12.711-9.634
			V84.619h41.515c9.077,0,13.622-10.966,7.204-17.38l-56.797-56.757c-3.98-3.977-10.429-3.977-14.408,0l-56.797,56.757
			c-6.418,6.414-1.872,17.38,7.204,17.38h41.515v199.177c0,6.574-6.226,11.321-12.588,9.664
			c-46.309-12.058-79.856-54.987-80.184-103.53h42.6c9.074,0,13.616-10.972,7.198-17.386l-56.791-56.751
			c-3.98-3.977-10.429-3.977-14.408,0l-56.791,56.75c-6.419,6.414-1.876,17.386,7.198,17.386h40.43
			c-0.077,66.591,49.847,124.713,114.89,135.602c4.856,0.813,8.447,4.954,8.447,9.878v153.378c0,8.228,6.324,15.308,14.543,15.695
			c8.776,0.413,16.022-6.575,16.022-15.254V404.99c0-4.859,3.501-8.967,8.279-9.849c64.033-11.819,112.712-69.475,112.636-135.211
			h42.852C444.124,259.93,448.666,248.958,442.248,242.544z" fill="#2470a9" data-original="#ffe177" class=""></path>
		<g>
			<path style="" d="M280.002,67.239c6.418,6.414,1.872,17.38-7.204,17.38h40c9.077,0,13.622-10.966,7.204-17.38
				l-56.797-56.757c-3.979-3.977-10.429-3.977-14.408,0L236,23.269L280.002,67.239z" fill="#63d9b6" data-original="#ffd15b" class=""></path>
			<path style="" d="M442.248,242.544l-56.791-56.75c-3.98-3.977-10.429-3.977-14.408,0l-12.796,12.787l43.995,43.964
				c6.418,6.414,1.876,17.386-7.198,17.386h40C444.124,259.93,448.666,248.958,442.248,242.544z" fill="#63d9b6" data-original="#ffd15b" class=""></path>
			<path style="" d="M157.743,172.544c6.418,6.414,1.876,17.386-7.198,17.386h40c5.83,0,9.789-4.529,10.172-9.469
				v-1.576c-0.176-2.245-1.116-4.484-2.975-6.342l-56.791-56.751c-3.979-3.977-10.429-3.977-14.408,0l-12.796,12.787
				L157.743,172.544z" fill="#63d9b6" data-original="#ffd15b" class=""></path>
		</g>
	</g>
	<g>
		<path style="stroke-width:15;stroke-linecap:round;stroke-linejoin:round;stroke-miterlimit:10;" d="
			M404.506,204.827l-19.05-19.034c-3.98-3.977-10.429-3.977-14.408,0l-56.797,56.757c-6.416,6.412-1.875,17.38,7.195,17.38h40.187
			c-0.351,47.572-32.545,89.897-77.64,102.841c-6.37,1.828-12.711-3.007-12.711-9.634V84.619h41.515
			c9.077,0,13.622-10.966,7.204-17.38l-56.797-56.757c-3.979-3.977-10.429-3.977-14.408,0l-56.797,56.757
			c-6.418,6.414-1.872,17.38,7.204,17.38h41.515v199.177c0,6.574-6.226,11.321-12.588,9.664
			c-46.309-12.058-79.856-54.988-80.184-103.53h42.6c9.074,0,13.616-10.972,7.198-17.386l-56.791-56.751
			c-3.979-3.977-10.429-3.977-14.408,0l-18.391,18.378" fill="none" stroke="#23303d" stroke-width="15" stroke-linecap="round" stroke-linejoin="round" stroke-miterlimit="10" data-original="#000000" class=""></path>
		<path style="stroke-width:15;stroke-linecap:round;stroke-linejoin:round;stroke-miterlimit:10;" d="
			M87.143,155.166l-17.39,17.377c-6.419,6.414-1.876,17.386,7.198,17.386h40.431c-0.077,66.591,49.847,124.713,114.89,135.602
			c4.856,0.813,8.447,4.954,8.447,9.877v153.378c0,8.228,6.323,15.308,14.542,15.695c8.776,0.414,16.022-6.575,16.022-15.254V404.99
			c0-4.859,3.501-8.967,8.279-9.849c64.033-11.819,112.712-69.475,112.636-135.211h42.852c9.074,0,13.616-10.972,7.198-17.386
			l-14.068-14.056" fill="none" stroke="#23303d" stroke-width="15" stroke-linecap="round" stroke-linejoin="round" stroke-miterlimit="10" data-original="#000000" class=""></path>
		<g>
			<g>
				<g>
					<g>
						
							<line style="stroke-width:15;stroke-linecap:round;stroke-linejoin:round;stroke-miterlimit:10;" x1="413.875" y1="78.009" x2="413.875" y2="90.402" fill="none" stroke="#23303d" stroke-width="15" stroke-linecap="round" stroke-linejoin="round" stroke-miterlimit="10" data-original="#000000" class=""></line>
						
							<line style="stroke-width:15;stroke-linecap:round;stroke-linejoin:round;stroke-miterlimit:10;" x1="413.875" y1="125.133" x2="413.875" y2="137.526" fill="none" stroke="#23303d" stroke-width="15" stroke-linecap="round" stroke-linejoin="round" stroke-miterlimit="10" data-original="#000000" class=""></line>
					</g>
					<g>
						
							<line style="stroke-width:15;stroke-linecap:round;stroke-linejoin:round;stroke-miterlimit:10;" x1="443.401" y1="107.768" x2="431.009" y2="107.768" fill="none" stroke="#23303d" stroke-width="15" stroke-linecap="round" stroke-linejoin="round" stroke-miterlimit="10" data-original="#000000" class=""></line>
						
							<line style="stroke-width:15;stroke-linecap:round;stroke-linejoin:round;stroke-miterlimit:10;" x1="396.277" y1="107.768" x2="383.885" y2="107.768" fill="none" stroke="#23303d" stroke-width="15" stroke-linecap="round" stroke-linejoin="round" stroke-miterlimit="10" data-original="#000000" class=""></line>
					</g>
				</g>
			</g>
			<g>
				<g>
					<g>
						
							<line style="stroke-width:15;stroke-linecap:round;stroke-linejoin:round;stroke-miterlimit:10;" x1="98.589" y1="313.524" x2="98.589" y2="325.916" fill="none" stroke="#23303d" stroke-width="15" stroke-linecap="round" stroke-linejoin="round" stroke-miterlimit="10" data-original="#000000" class=""></line>
						
							<line style="stroke-width:15;stroke-linecap:round;stroke-linejoin:round;stroke-miterlimit:10;" x1="98.589" y1="360.648" x2="98.589" y2="373.04" fill="none" stroke="#23303d" stroke-width="15" stroke-linecap="round" stroke-linejoin="round" stroke-miterlimit="10" data-original="#000000" class=""></line>
					</g>
					<g>
						
							<line style="stroke-width:15;stroke-linecap:round;stroke-linejoin:round;stroke-miterlimit:10;" x1="128.115" y1="343.282" x2="115.723" y2="343.282" fill="none" stroke="#23303d" stroke-width="15" stroke-linecap="round" stroke-linejoin="round" stroke-miterlimit="10" data-original="#000000" class=""></line>
						
							<line style="stroke-width:15;stroke-linecap:round;stroke-linejoin:round;stroke-miterlimit:10;" x1="80.991" y1="343.282" x2="68.599" y2="343.282" fill="none" stroke="#23303d" stroke-width="15" stroke-linecap="round" stroke-linejoin="round" stroke-miterlimit="10" data-original="#000000" class=""></line>
					</g>
				</g>
			</g>
		</g>
		<g>
			
				<line style="stroke-width:15;stroke-linecap:round;stroke-linejoin:round;stroke-miterlimit:10;" x1="197.5" y1="373" x2="197.5" y2="459" fill="none" stroke="#23303d" stroke-width="15" stroke-linecap="round" stroke-linejoin="round" stroke-miterlimit="10" data-original="#000000" class=""></line>
			
				<line style="stroke-width:15;stroke-linecap:round;stroke-linejoin:round;stroke-miterlimit:10;" x1="314.5" y1="125.133" x2="314.5" y2="178.623" fill="none" stroke="#23303d" stroke-width="15" stroke-linecap="round" stroke-linejoin="round" stroke-miterlimit="10" data-original="#000000" class=""></line>
		</g>
	</g>
</g>















</g></svg>