<svg xmlns="http://www.w3.org/2000/svg" version="1.1" xmlns:xlink="http://www.w3.org/1999/xlink" xmlns:svgjs="http://svgjs.com/svgjs" width="512" height="512" x="0" y="0" viewBox="0 0 682.667 682.667" style="enable-background:new 0 0 512 512" xml:space="preserve" class=""><g><defs><clipPath id="a" clipPathUnits="userSpaceOnUse"><path d="M0 512h512V0H0Z" fill="#000000" data-original="#000000" class=""></path></clipPath></defs><g clip-path="url(#a)" transform="matrix(1.33333 0 0 -1.33333 0 682.667)"><path d="M0 0h-454.754c-11.666 0-21.123 9.457-21.123 21.123v397.828c0 11.666 9.457 21.123 21.123 21.123H0c11.666 0 21.123-9.457 21.123-21.123V21.123C21.123 9.457 11.666 0 0 0" style="fill-opacity:1;fill-rule:nonzero;stroke:none" transform="translate(483.377 35.963)" fill="#e8f3ff" data-original="#e8f3ff" class=""></path><path d="M0 0h-38.5c11.666 0 21.123-9.457 21.123-21.123v-397.828c0-11.666-9.457-21.123-21.123-21.123H0c11.666 0 21.123 9.457 21.123 21.123v397.828C21.123-9.457 11.666 0 0 0" style="fill-opacity:1;fill-rule:nonzero;stroke:none" transform="translate(483.377 476.037)" fill="#2470a9" data-original="#c1e2ff" class=""></path><path d="M0 0h-454.754c-11.666 0-21.123-9.457-21.123-21.123v-68.581h497v68.581C21.123-9.457 11.666 0 0 0" style="fill-opacity:1;fill-rule:nonzero;stroke:none" transform="translate(483.377 476.037)" fill="#2470a9" data-original="#c1e2ff" class=""></path><path d="M0 0v-68.581h38.5V0c0 11.666-9.457 21.123-21.123 21.123h-38.5C-9.457 21.123 0 11.666 0 0" style="fill-opacity:1;fill-rule:nonzero;stroke:none" transform="translate(466 454.914)" fill="#2470a9" data-original="#b3d8fb" class=""></path><path d="M0 0c0-10.059-8.154-18.213-18.213-18.213-10.058 0-18.213 8.154-18.213 18.213 0 10.059 8.155 18.213 18.213 18.213C-8.154 18.213 0 10.059 0 0" style="fill-opacity:1;fill-rule:nonzero;stroke:none" transform="translate(456.122 431.153)" fill="#63d9b6" data-original="#02c6db" class=""></path><path d="M0 0c0-10.059-8.154-18.213-18.213-18.213-10.058 0-18.213 8.154-18.213 18.213 0 10.059 8.155 18.213 18.213 18.213C-8.154 18.213 0 10.059 0 0" style="fill-opacity:1;fill-rule:nonzero;stroke:none" transform="translate(383.089 431.153)" fill="#63d9b6" data-original="#02c6db" class=""></path><path d="M0 0h-250.501" style="fill-opacity:1;fill-rule:nonzero;stroke:#000000;stroke-width:15;stroke-linecap:round;stroke-linejoin:round;stroke-miterlimit:10;stroke-dasharray:none;stroke-opacity:1" transform="translate(304.834 431.185)" data-original="#000000"></path><path d="M0 0h-454.754c-11.666 0-21.123 9.457-21.123 21.123v397.828c0 11.666 9.457 21.123 21.123 21.123H0c11.666 0 21.123-9.457 21.123-21.123V21.123C21.123 9.457 11.666 0 0 0Z" style="stroke-width:15;stroke-linecap:round;stroke-linejoin:round;stroke-miterlimit:10;stroke-dasharray:none;stroke-opacity:1" transform="translate(483.377 35.963)" fill="none" stroke="#000000" stroke-width="15" stroke-linecap="round" stroke-linejoin="round" stroke-miterlimit="10" stroke-dasharray="none" stroke-opacity="" data-original="#000000" class=""></path><path d="M0 0h497" style="stroke-width:15;stroke-linecap:round;stroke-linejoin:round;stroke-miterlimit:10;stroke-dasharray:none;stroke-opacity:1" transform="translate(7.5 386.334)" fill="none" stroke="#000000" stroke-width="15" stroke-linecap="round" stroke-linejoin="round" stroke-miterlimit="10" stroke-dasharray="none" stroke-opacity="" data-original="#000000" class=""></path><path d="M0 0c0-10.059-8.154-18.213-18.213-18.213-10.058 0-18.213 8.154-18.213 18.213 0 10.059 8.155 18.213 18.213 18.213C-8.154 18.213 0 10.059 0 0Z" style="stroke-width:15;stroke-linecap:round;stroke-linejoin:round;stroke-miterlimit:10;stroke-dasharray:none;stroke-opacity:1" transform="translate(456.122 431.153)" fill="none" stroke="#000000" stroke-width="15" stroke-linecap="round" stroke-linejoin="round" stroke-miterlimit="10" stroke-dasharray="none" stroke-opacity="" data-original="#000000" class=""></path><path d="M0 0c0-10.059-8.154-18.213-18.213-18.213-10.058 0-18.213 8.154-18.213 18.213 0 10.059 8.155 18.213 18.213 18.213C-8.154 18.213 0 10.059 0 0Z" style="stroke-width:15;stroke-linecap:round;stroke-linejoin:round;stroke-miterlimit:10;stroke-dasharray:none;stroke-opacity:1" transform="translate(383.089 431.153)" fill="none" stroke="#000000" stroke-width="15" stroke-linecap="round" stroke-linejoin="round" stroke-miterlimit="10" stroke-dasharray="none" stroke-opacity="" data-original="#000000" class=""></path><path d="M0 0h-225.262c-6.187 0-11.203 5.016-11.203 11.203v46.114c0 6.187 5.016 11.203 11.203 11.203H0c6.187 0 11.202-5.016 11.202-11.203V11.203C11.202 5.016 6.187 0 0 0" style="fill-opacity:1;fill-rule:nonzero;stroke:none" transform="translate(290.798 259.443)" fill="#63d9b6" data-original="#7fd061" class=""></path><path d="M0 0h-46.446c6.186 0 11.202-5.016 11.202-11.202v-46.115c0-6.187-5.016-11.202-11.202-11.202H0c6.187 0 11.202 5.015 11.202 11.202v46.115C11.202-5.016 6.187 0 0 0" style="fill-opacity:1;fill-rule:nonzero;stroke:none" transform="translate(290.798 327.963)" fill="#63d9b6" data-original="#51be26" class=""></path><path d="m0 0-27.062 27.062-9.12 1.4-161.548-161.549a38.24 38.24 0 0 1-7.032-9.681l-26.185-51.425c-4.05-6.337 3.355-13.743 9.693-9.693l51.425 26.185a38.215 38.215 0 0 1 9.681 7.032L1.4-9.121Z" style="fill-opacity:1;fill-rule:nonzero;stroke:none" transform="translate(458.917 241.004)" fill="#e38082" data-original="#fc5327" class=""></path><path d="m0 0-26.186-51.425c-4.049-6.337 3.356-13.742 9.694-9.693l51.425 26.185z" style="fill-opacity:1;fill-rule:nonzero;stroke:none" transform="translate(254.155 98.236)" fill="#e09932" data-original="#3c5959" class=""></path><path d="M0 0c7.021 7.021 7.021 18.403 0 25.424l-12.158 12.159c-7.021 7.02-18.404 7.02-25.424 0l-12.875-12.875 1.57-8.018 27.995-27.995 8.017-1.57z" style="fill-opacity:1;fill-rule:nonzero;stroke:none" transform="translate(499.234 270.8)" fill="#e09932" data-original="#fce25c" class=""></path><path d="m0 0 37.582-37.583L63.624-11.54 26.042 26.042Z" style="fill-opacity:1;fill-rule:nonzero;stroke:none" transform="translate(422.735 269.466)" fill="#0e80ac" data-original="#0e80ac"></path><path d="m0 0 25.018 25.017" style="stroke-width:15;stroke-linecap:round;stroke-linejoin:round;stroke-miterlimit:10;stroke-dasharray:none;stroke-opacity:1" transform="translate(435.3 206.867)" fill="none" stroke="#000000" stroke-width="15" stroke-linecap="round" stroke-linejoin="round" stroke-miterlimit="10" stroke-dasharray="none" stroke-opacity="" data-original="#000000" class=""></path><path d="m0 0-161.549-161.549a38.212 38.212 0 0 1-7.031-9.681l-26.186-51.425c-4.049-6.337 3.356-13.742 9.694-9.693l51.425 26.185a38.21 38.21 0 0 1 9.68 7.032L-12.229-87.393" style="stroke-width:15;stroke-linecap:round;stroke-linejoin:round;stroke-miterlimit:10;stroke-dasharray:none;stroke-opacity:1" transform="translate(422.735 269.466)" fill="none" stroke="#000000" stroke-width="15" stroke-linecap="round" stroke-linejoin="round" stroke-miterlimit="10" stroke-dasharray="none" stroke-opacity="" data-original="#000000" class=""></path><path d="m0 0-34.933 34.933" style="stroke-width:15;stroke-linecap:round;stroke-linejoin:round;stroke-miterlimit:10;stroke-dasharray:none;stroke-opacity:1" transform="translate(289.088 63.304)" fill="none" stroke="#000000" stroke-width="15" stroke-linecap="round" stroke-linejoin="round" stroke-miterlimit="10" stroke-dasharray="none" stroke-opacity="" data-original="#000000" class=""></path><path d="m0 0 12.875 12.875c7.021 7.021 7.021 18.403 0 25.424L.717 50.457c-7.021 7.021-18.404 7.021-25.424 0l-12.875-12.875" style="stroke-width:15;stroke-linecap:round;stroke-linejoin:round;stroke-miterlimit:10;stroke-dasharray:none;stroke-opacity:1" transform="translate(486.36 257.926)" fill="none" stroke="#000000" stroke-width="15" stroke-linecap="round" stroke-linejoin="round" stroke-miterlimit="10" stroke-dasharray="none" stroke-opacity="" data-original="#000000" class=""></path><path d="m0 0 37.582-37.583L63.624-11.54 26.042 26.042Z" style="stroke-width:15;stroke-linecap:round;stroke-linejoin:round;stroke-miterlimit:10;stroke-dasharray:none;stroke-opacity:1" transform="translate(422.735 269.466)" fill="none" stroke="#000000" stroke-width="15" stroke-linecap="round" stroke-linejoin="round" stroke-miterlimit="10" stroke-dasharray="none" stroke-opacity="" data-original="#000000" class=""></path><path d="M0 0v5.526c0 6.187 5.016 11.203 11.203 11.203h225.262c6.186 0 11.202-5.016 11.202-11.203v-46.114c0-6.187-5.016-11.203-11.202-11.203H11.203C5.016-51.791 0-46.775 0-40.588v5.525" style="stroke-width:15;stroke-linecap:round;stroke-linejoin:round;stroke-miterlimit:10;stroke-dasharray:none;stroke-opacity:1" transform="translate(54.333 311.234)" fill="none" stroke="#000000" stroke-width="15" stroke-linecap="round" stroke-linejoin="round" stroke-miterlimit="10" stroke-dasharray="none" stroke-opacity="" data-original="#000000" class=""></path><path d="M0 0h247.187" style="stroke-width:15;stroke-linecap:round;stroke-linejoin:round;stroke-miterlimit:10;stroke-dasharray:none;stroke-opacity:1" transform="translate(54.333 222.576)" fill="none" stroke="#000000" stroke-width="15" stroke-linecap="round" stroke-linejoin="round" stroke-miterlimit="10" stroke-dasharray="none" stroke-opacity="" data-original="#000000" class=""></path><path d="M0 0h247.187" style="stroke-width:15;stroke-linecap:round;stroke-linejoin:round;stroke-miterlimit:10;stroke-dasharray:none;stroke-opacity:1" transform="translate(54.333 185.36)" fill="none" stroke="#000000" stroke-width="15" stroke-linecap="round" stroke-linejoin="round" stroke-miterlimit="10" stroke-dasharray="none" stroke-opacity="" data-original="#000000" class=""></path><path d="M0 0h123.834" style="stroke-width:15;stroke-linecap:round;stroke-linejoin:round;stroke-miterlimit:10;stroke-dasharray:none;stroke-opacity:1" transform="translate(54.333 148.144)" fill="none" stroke="#000000" stroke-width="15" stroke-linecap="round" stroke-linejoin="round" stroke-miterlimit="10" stroke-dasharray="none" stroke-opacity="" data-original="#000000" class=""></path></g></g></svg>