<svg xmlns="http://www.w3.org/2000/svg" version="1.1" xmlns:xlink="http://www.w3.org/1999/xlink" xmlns:svgjs="http://svgjs.com/svgjs" width="512" height="512" x="0" y="0" viewBox="0 0 512 512" style="enable-background:new 0 0 512 512" xml:space="preserve" class=""><g>
<g stroke-width="12" style="stroke-width: 12;">
	<g stroke-width="12" style="stroke-width: 12;">
		<path style="stroke-width: 12;" d="M356.91,114.644L356.91,114.644c-4.806,12.681-18.516,19.575-31.561,15.871l-72.03-20.411
			c-11.29-2.429-23.051-1.055-33.48,3.872l-18.968,8.977c-4.928,2.33-7.032,8.218-4.702,13.146l17.292,36.55
			c4.983,10.552,0.478,23.147-10.074,28.13c-4.666,2.212-9.805,2.574-14.508,1.315c-4.692-1.255-8.963-4.124-11.875-8.392
			c-7.833-11.415-18.894-24.985-31.478-33.021c-20.005-12.762-31.93-41.995-31.93-41.995L10,93.871V16.607h48.833l86.591,32.439
			l51.145-14.254c9.971-1.937,20.285-0.937,29.703,2.862l115.47,43.308C355.231,86.073,362.023,101.154,356.91,114.644z" fill="#e09932" data-original="#ffdad5" stroke-width="12" class=""></path>
		<path style="stroke-width: 12; stroke-linecap: round; stroke-linejoin: round; stroke-miterlimit: 10;" d="
			M58.833,16.607l86.591,32.439l51.145-14.254c9.971-1.937,20.285-0.937,29.703,2.862l115.47,43.308
			c13.49,5.113,20.281,20.193,15.169,33.683l0,0c-4.806,12.681-18.516,19.575-31.561,15.871l-72.03-20.411
			c-11.29-2.429-23.051-1.055-33.48,3.872l-18.968,8.977c-4.928,2.33-7.032,8.218-4.702,13.146l17.292,36.55
			c4.983,10.552,0.478,23.147-10.074,28.13c-4.666,2.212-9.805,2.574-14.508,1.315c-4.692-1.255-8.963-4.124-11.875-8.392
			c-7.833-11.415-18.894-24.985-31.478-33.021c-20.005-12.762-31.93-41.995-31.93-41.995L10,93.871" fill="none" stroke="#23303d" stroke-width="12" stroke-linecap="round" stroke-linejoin="round" stroke-miterlimit="10" data-original="#000000" class=""></path>
	</g>
	<path style="stroke-width: 12;" d="M297.851,142.37v27.967c0,17.853-14.466,32.329-32.319,32.329h-27.976
		c-9.785,0-18.548-4.343-24.464-11.214c2.953-5.665,3.31-12.594,0.367-18.809l-17.294-36.546
		c-2.326-4.931-0.222-10.818,4.709-13.144l18.963-8.975c10.432-4.931,22.196-6.302,33.477-3.879l35.692,10.117
		C294.517,126.016,297.851,133.743,297.851,142.37z" fill="#63d9b6" data-original="#e7e7ef" stroke-width="12" class=""></path>
	<g stroke-width="12" style="stroke-width: 12;">
		<path style="stroke-width: 12;" d="M201.809,357.591h-28.986c-18.498,0-33.494-14.996-33.494-33.494v-28.986
			c0-18.498,14.996-33.494,33.494-33.494h28.986c18.498,0,33.494,14.996,33.494,33.494v28.986
			C235.302,342.595,220.307,357.591,201.809,357.591z" fill="#e38082" data-original="#ff7e96" stroke-width="12" class=""></path>
		<path style="stroke-width: 12;" d="M339.143,357.591h-28.986c-18.498,0-33.494-14.996-33.494-33.494v-28.986
			c0-18.498,14.996-33.494,33.494-33.494h28.986c18.498,0,33.494,14.996,33.494,33.494v28.986
			C372.637,342.595,357.641,357.591,339.143,357.591z" fill="#e38082" data-original="#ff7e96" stroke-width="12" class=""></path>
		<g stroke-width="12" style="stroke-width: 12;">
			<path style="stroke-width: 12;" d="M133.217,440.59h-28.986c-18.498,0-33.494-14.996-33.494-33.494v-28.986
				c0-18.498,14.996-33.494,33.494-33.494h28.986c18.498,0,33.494,14.996,33.494,33.494v28.986
				C166.71,425.595,151.715,440.59,133.217,440.59z" fill="#63d9b6" data-original="#e7e7ef" stroke-width="12" class=""></path>
			<path style="stroke-width: 12;" d="M270.467,440.59h-28.986c-18.498,0-33.494-14.996-33.494-33.494v-28.986
				c0-18.498,14.996-33.494,33.494-33.494h28.986c18.498,0,33.494,14.996,33.494,33.494v28.986
				C303.961,425.595,288.965,440.59,270.467,440.59z" fill="#e38082" data-original="#ff7e96" stroke-width="12" class=""></path>
			<path style="stroke-width: 12;" d="M407.769,440.59h-28.986c-18.498,0-33.494-14.996-33.494-33.494v-28.986
				c0-18.498,14.996-33.494,33.494-33.494h28.986c18.498,0,33.494,14.996,33.494,33.494v28.986
				C441.263,425.595,426.267,440.59,407.769,440.59z" fill="#63d9b6" data-original="#e7e7ef" stroke-width="12" class=""></path>
		</g>
	</g>
	<path style="stroke-width: 12;" d="M292.699,495.393h53.331c23.703,0,47.129-5.096,68.69-14.943L502,440.59H10l62.872,34.456
		c24.359,13.35,51.689,20.348,79.467,20.348h52.369H292.699z" fill="#2470a9" data-original="#a0c8ff" class="" stroke-width="12"></path>
	<path style="stroke-width: 12; stroke-linecap: round; stroke-linejoin: round; stroke-miterlimit: 10;" d="
		M297.851,142.37v27.967c0,17.853-14.466,32.329-32.319,32.329h-27.976c-9.785,0-18.548-4.343-24.464-11.214
		c2.953-5.665,3.31-12.594,0.367-18.809l-17.294-36.546c-2.326-4.931-0.222-10.818,4.709-13.144l18.963-8.975
		c10.432-4.931,22.196-6.302,33.477-3.879l35.692,10.117C294.517,126.016,297.851,133.743,297.851,142.37z" fill="none" stroke="#23303d" stroke-width="12" stroke-linecap="round" stroke-linejoin="round" stroke-miterlimit="10" data-original="#000000" class=""></path>
	<g stroke-width="12" style="stroke-width: 12;">
		<path style="stroke-width: 12; stroke-linecap: round; stroke-linejoin: round; stroke-miterlimit: 10;" d="
			M201.809,357.591h-28.986c-18.498,0-33.494-14.996-33.494-33.494v-28.986c0-18.498,14.996-33.494,33.494-33.494h28.986
			c18.498,0,33.494,14.996,33.494,33.494v28.986C235.302,342.595,220.307,357.591,201.809,357.591z" fill="none" stroke="#23303d" stroke-width="12" stroke-linecap="round" stroke-linejoin="round" stroke-miterlimit="10" data-original="#000000" class=""></path>
		<path style="stroke-width: 12; stroke-linecap: round; stroke-linejoin: round; stroke-miterlimit: 10;" d="
			M339.143,357.591h-28.986c-18.498,0-33.494-14.996-33.494-33.494v-28.986c0-18.498,14.996-33.494,33.494-33.494h28.986
			c18.498,0,33.494,14.996,33.494,33.494v28.986C372.637,342.595,357.641,357.591,339.143,357.591z" fill="none" stroke="#23303d" stroke-width="12" stroke-linecap="round" stroke-linejoin="round" stroke-miterlimit="10" data-original="#000000" class=""></path>
		<g stroke-width="12" style="stroke-width: 12;">
			<path style="stroke-width: 12; stroke-linecap: round; stroke-linejoin: round; stroke-miterlimit: 10;" d="
				M133.217,440.59h-28.986c-18.498,0-33.494-14.996-33.494-33.494v-28.986c0-18.498,14.996-33.494,33.494-33.494h28.986
				c18.498,0,33.494,14.996,33.494,33.494v28.986C166.71,425.595,151.715,440.59,133.217,440.59z" fill="none" stroke="#23303d" stroke-width="12" stroke-linecap="round" stroke-linejoin="round" stroke-miterlimit="10" data-original="#000000" class=""></path>
			<path style="stroke-width: 12; stroke-linecap: round; stroke-linejoin: round; stroke-miterlimit: 10;" d="
				M270.467,440.59h-28.986c-18.498,0-33.494-14.996-33.494-33.494v-28.986c0-18.498,14.996-33.494,33.494-33.494h28.986
				c18.498,0,33.494,14.996,33.494,33.494v28.986C303.961,425.595,288.965,440.59,270.467,440.59z" fill="none" stroke="#23303d" stroke-width="12" stroke-linecap="round" stroke-linejoin="round" stroke-miterlimit="10" data-original="#000000" class=""></path>
			<path style="stroke-width: 12; stroke-linecap: round; stroke-linejoin: round; stroke-miterlimit: 10;" d="
				M407.769,440.59h-28.986c-18.498,0-33.494-14.996-33.494-33.494v-28.986c0-18.498,14.996-33.494,33.494-33.494h28.986
				c18.498,0,33.494,14.996,33.494,33.494v28.986C441.263,425.595,426.267,440.59,407.769,440.59z" fill="none" stroke="#23303d" stroke-width="12" stroke-linecap="round" stroke-linejoin="round" stroke-miterlimit="10" data-original="#000000" class=""></path>
		</g>
	</g>
	<path style="stroke-width: 12; stroke-linecap: round; stroke-linejoin: round; stroke-miterlimit: 10;" d="
		M292.699,495.393h53.331c23.703,0,47.129-5.096,68.69-14.943L502,440.59H10l62.872,34.456
		c24.359,13.35,51.689,20.348,79.467,20.348h52.369" fill="none" stroke="#23303d" stroke-width="12" stroke-linecap="round" stroke-linejoin="round" stroke-miterlimit="10" data-original="#000000" class=""></path>
	
		<line style="stroke-width: 12; stroke-linecap: round; stroke-linejoin: round; stroke-miterlimit: 10;" x1="249.697" y1="495.393" x2="249.697" y2="495.393" fill="none" stroke="#23303d" stroke-width="12" stroke-linecap="round" stroke-linejoin="round" stroke-miterlimit="10" data-original="#000000" class=""></line>
</g>















</g></svg>