<svg xmlns="http://www.w3.org/2000/svg" version="1.1" xmlns:xlink="http://www.w3.org/1999/xlink" xmlns:svgjs="http://svgjs.com/svgjs" width="512" height="512" x="0" y="0" viewBox="0 0 682.66669 682.66669" style="enable-background:new 0 0 512 512" xml:space="preserve" class=""><g><defs id="defs13" stroke-width="12" style="stroke-width: 12;"><clipPath clipPathUnits="userSpaceOnUse" id="clipPath23" stroke-width="12" style="stroke-width: 12;"><path d="M 0,512 H 512 V 0 H 0 Z" id="path21" fill="#000000" data-original="#000000" stroke-width="12" style="stroke-width: 12;" class=""></path></clipPath></defs><g id="g15" transform="matrix(1.3333333,0,0,-1.3333333,0,682.66667)" stroke-width="12" style="stroke-width: 12;"><g id="g17" stroke-width="12" style="stroke-width: 12;"><g id="g19" clip-path="url(#clipPath23)" stroke-width="12" style="stroke-width: 12;"><g id="g25" transform="translate(40.75,336.0039)" stroke-width="12" style="stroke-width: 12;"><path d="M 0,0 C 16.913,0 30.75,13.837 30.75,30.75 V 59.997 L 53.251,140 h -54 L -30.75,59.997 V 30.75 c 0,-15.298 11.322,-28.08 26,-30.381 C -3.201,0.126 -1.615,0 0,0" style="fill-opacity: 1; fill-rule: evenodd; stroke: none; stroke-width: 12;" id="path27" fill="#2470a9" data-original="#ff5d7d" stroke-width="12" class=""></path></g><g id="g29" transform="translate(71.5,366.7534)" stroke-width="12" style="stroke-width: 12;"><path d="m 0,0 c 0,-16.912 13.837,-30.75 30.75,-30.75 16.913,0 30.75,13.838 30.75,30.75 v 29.248 l 15,80.003 H 22.501 L 0,29.248 Z" style="fill-opacity: 1; fill-rule: evenodd; stroke: none; stroke-width: 12;" id="path31" fill="#63d9b6" data-original="#ffc144" stroke-width="12" class=""></path></g><g id="g33" transform="translate(133,366.7534)" stroke-width="12" style="stroke-width: 12;"><path d="M 0,0 C 0,-16.912 13.837,-30.75 30.75,-30.75 47.663,-30.75 61.5,-16.912 61.5,0 V 29.248 L 69,109.251 H 15 L 0,29.248 Z" style="fill-opacity: 1; fill-rule: evenodd; stroke: none; stroke-width: 12;" id="path35" fill="#2470a9" data-original="#ff5d7d" stroke-width="12" class=""></path></g><g id="g37" transform="translate(194.5,366.7534)" stroke-width="12" style="stroke-width: 12;"><path d="M 0,0 C 0,-16.912 13.837,-30.75 30.75,-30.75 47.663,-30.75 61.5,-16.912 61.5,0 V 109.251 H 7.5 L 0,29.248 Z" style="fill-opacity: 1; fill-rule: evenodd; stroke: none; stroke-width: 12;" id="path39" fill="#63d9b6" data-original="#ffc144" stroke-width="12" class=""></path></g><g id="g41" transform="translate(256,476.0044)" stroke-width="12" style="stroke-width: 12;"><path d="M 0,0 V -109.251 C 0,-126.163 13.837,-140 30.75,-140 c 16.913,0 30.75,13.837 30.75,30.749 v 29.248 L 54,0 Z" style="fill-opacity: 1; fill-rule: evenodd; stroke: none; stroke-width: 12;" id="path43" fill="#2470a9" data-original="#ff5d7d" stroke-width="12" class=""></path></g><g id="g45" transform="translate(309.9995,476.0044)" stroke-width="12" style="stroke-width: 12;"><path d="m 0,0 7.5,-80.003 v -29.248 C 7.5,-126.163 21.338,-140 38.25,-140 55.163,-140 69,-126.163 69,-109.251 v 29.248 L 54,0 Z" style="fill-opacity: 1; fill-rule: evenodd; stroke: none; stroke-width: 12;" id="path47" fill="#63d9b6" data-original="#ffc144" stroke-width="12" class=""></path></g><g id="g49" transform="translate(363.9995,476.0044)" stroke-width="12" style="stroke-width: 12;"><path d="m 0,0 15,-80.003 v -29.248 C 15,-126.163 28.837,-140 45.75,-140 c 16.913,0 30.75,13.837 30.75,30.749 v 29.248 L 54,0 Z" style="fill-opacity: 1; fill-rule: evenodd; stroke: none; stroke-width: 12;" id="path51" fill="#2470a9" data-original="#ff5d7d" stroke-width="12" class=""></path></g><g id="g53" transform="translate(417.999,476.0044)" stroke-width="12" style="stroke-width: 12;"><path d="m 0,0 22.501,-80.003 v -29.248 c 0,-16.912 13.837,-30.749 30.75,-30.749 1.615,0 3.201,0.125 4.75,0.369 14.678,2.3 26,15.083 26,30.38 v 29.248 L 54,0 Z" style="fill-opacity: 1; fill-rule: evenodd; stroke: none; stroke-width: 12;" id="path55" fill="#63d9b6" data-original="#ffc144" stroke-width="12" class=""></path></g><g id="g57" transform="translate(440.5,366.7534)" stroke-width="12" style="stroke-width: 12;"><path d="m 0,0 c 0,-16.912 -13.837,-30.75 -30.75,-30.75 -16.913,0 -30.75,13.838 -30.75,30.75 0,-16.912 -13.837,-30.75 -30.75,-30.75 -16.913,0 -30.75,13.838 -30.75,30.75 0,-16.912 -13.837,-30.75 -30.75,-30.75 -16.913,0 -30.75,13.838 -30.75,30.75 0,-16.912 -13.837,-30.75 -30.75,-30.75 -16.913,0 -30.75,13.838 -30.75,30.75 0,-16.912 -13.837,-30.75 -30.75,-30.75 -16.913,0 -30.75,13.838 -30.75,30.75 0,-16.912 -13.837,-30.75 -30.75,-30.75 -16.913,0 -30.75,13.838 -30.75,30.75 0,-16.912 -13.837,-30.75 -30.75,-30.75 -1.615,0 -3.201,0.126 -4.75,0.371 v -180.378 h 362.977 l -11.394,30.885 c -1.768,5.322 3.36,10.333 8.612,8.551 L 35.5,-200.748 V -30.38 c -1.549,-0.244 -3.135,-0.37 -4.75,-0.37 C 13.837,-30.75 0,-16.912 0,0" style="fill-opacity: 1; fill-rule: evenodd; stroke: none; stroke-width: 12;" id="path59" fill="#ffffff" data-original="#ffffff" stroke-width="12" class=""></path></g><g id="g61" transform="translate(476,166.0059)" stroke-width="12" style="stroke-width: 12;"><path d="m 0,0 -79.805,29.426 c -5.252,1.783 -10.38,-3.229 -8.612,-8.551 l 11.394,-30.884 14.757,-40.001 7.404,-20.068 c 1.642,-5.827 8.049,-6.67 11.448,-3.272 l 14.447,14.448 24.079,-24.079 c 2.659,-2.66 6.971,-2.66 9.631,0 l 19.262,19.262 c 2.66,2.659 2.659,6.971 0,9.631 l -24.079,24.078 14.447,14.447 c 3.521,3.515 2.158,9.646 -2.687,11.254 z" style="fill-opacity: 1; fill-rule: evenodd; stroke: none; stroke-width: 12;" id="path63" fill="#2470a9" data-original="#e3eaef" stroke-width="12" class=""></path></g><g id="g65" transform="translate(413.7344,115.9961)" stroke-width="12" style="stroke-width: 12;"><path d="M 0,0 -14.758,40 H -377.734 V 20 c 0,-11 9,-20 20,-20 h 154.614 80.771 z" style="fill-opacity: 1; fill-rule: evenodd; stroke: none; stroke-width: 12;" id="path67" fill="#e09932" data-original="#a7bdcd" stroke-width="12" class=""></path></g><g id="g69" transform="translate(300.9995,35.9951)" stroke-width="12" style="stroke-width: 12;"><path d="M 0,0 -9.614,80.001 H -90.385 L -100,0 Z" style="fill-opacity: 1; fill-rule: evenodd; stroke: none; stroke-width: 12;" id="path71" fill="#97a2a6" data-original="#6d91ac" stroke-width="12" class=""></path></g><g id="g73" transform="translate(71.5,366.7539)" stroke-width="12" style="stroke-width: 12;"><path d="m 0,0 c 0,-16.913 -13.837,-30.75 -30.75,-30.75 -16.913,0 -30.75,13.837 -30.75,30.75 v 29.248 l 30.001,80.003 H 400.499 L 430.5,29.248 V 0 c 0,-16.913 -13.838,-30.75 -30.75,-30.75 -16.913,0 -30.75,13.837 -30.75,30.75 0,-16.913 -13.837,-30.75 -30.75,-30.75 -16.913,0 -30.75,13.837 -30.75,30.75 0,-16.913 -13.837,-30.75 -30.75,-30.75 -16.913,0 -30.75,13.837 -30.75,30.75 0,-16.913 -13.837,-30.75 -30.75,-30.75 -16.913,0 -30.75,13.837 -30.75,30.75 0,-16.913 -13.837,-30.75 -30.75,-30.75 C 136.837,-30.75 123,-16.913 123,0 123,-16.913 109.163,-30.75 92.25,-30.75 75.337,-30.75 61.5,-16.913 61.5,0 61.5,-16.913 47.663,-30.75 30.75,-30.75 13.837,-30.75 0,-16.913 0,0 Z" style="stroke-width: 12; stroke-linecap: round; stroke-linejoin: round; stroke-miterlimit: 22.926; stroke-dasharray: none; stroke-opacity: 1;" id="path75" fill="none" stroke="#000000" stroke-width="12" stroke-linecap="round" stroke-linejoin="round" stroke-miterlimit="22.926" stroke-dasharray="none" stroke-opacity="" data-original="#000000" class=""></path></g><g id="g77" transform="translate(418.1396,475.5044)" stroke-width="12" style="stroke-width: 12;"><path d="M 0,0 22.36,-79.503 V -108.75 M -324.279,0 -346.64,-79.503 v -29.247" style="stroke-width: 12; stroke-linecap: round; stroke-linejoin: round; stroke-miterlimit: 22.926; stroke-dasharray: none; stroke-opacity: 1;" id="path79" fill="none" stroke="#000000" stroke-width="12" stroke-linecap="round" stroke-linejoin="round" stroke-miterlimit="22.926" stroke-dasharray="none" stroke-opacity="" data-original="#000000" class=""></path></g><g id="g81" transform="translate(364.0933,475.5044)" stroke-width="12" style="stroke-width: 12;"><path d="M 0,0 14.907,-79.503 V -108.75 M -216.187,0 -231.093,-79.503 v -29.247" style="stroke-width: 12; stroke-linecap: round; stroke-linejoin: round; stroke-miterlimit: 22.926; stroke-dasharray: none; stroke-opacity: 1;" id="path83" fill="none" stroke="#000000" stroke-width="12" stroke-linecap="round" stroke-linejoin="round" stroke-miterlimit="22.926" stroke-dasharray="none" stroke-opacity="" data-original="#000000" class=""></path></g><g id="g85" transform="translate(310.0464,475.5044)" stroke-width="12" style="stroke-width: 12;"><path d="M 0,0 7.454,-79.503 V -108.75 M -108.093,0 l -7.453,-79.503 v -29.247" style="stroke-width: 12; stroke-linecap: round; stroke-linejoin: round; stroke-miterlimit: 22.926; stroke-dasharray: none; stroke-opacity: 1;" id="path87" fill="none" stroke="#000000" stroke-width="12" stroke-linecap="round" stroke-linejoin="round" stroke-miterlimit="22.926" stroke-dasharray="none" stroke-opacity="" data-original="#000000" class=""></path></g><g id="g89" transform="translate(256,366.7539)" stroke-width="12" style="stroke-width: 12;"><path d="M 0,0 V 108.75" style="stroke-width: 12; stroke-linecap: round; stroke-linejoin: round; stroke-miterlimit: 22.926; stroke-dasharray: none; stroke-opacity: 1;" id="path91" fill="none" stroke="#000000" stroke-width="12" stroke-linecap="round" stroke-linejoin="round" stroke-miterlimit="22.926" stroke-dasharray="none" stroke-opacity="" data-original="#000000" class=""></path></g><g id="g93" transform="translate(412.1719,115.9966)" stroke-width="12" style="stroke-width: 12;"><path d="m 0,0 h -356.172 c -10.999,0 -20,9 -20,20 v 198.127 m 440,0 V 51.759" style="stroke-width: 12; stroke-linecap: round; stroke-linejoin: round; stroke-miterlimit: 22.926; stroke-dasharray: none; stroke-opacity: 1;" id="path95" fill="none" stroke="#000000" stroke-width="12" stroke-linecap="round" stroke-linejoin="round" stroke-miterlimit="22.926" stroke-dasharray="none" stroke-opacity="" data-original="#000000" class=""></path></g><g id="g97" transform="translate(295.9961,155.9971)" stroke-width="12" style="stroke-width: 12;"><path d="M 0,0 H 101.893 M -258.908,0 H -90" style="stroke-width: 12; stroke-linecap: round; stroke-linejoin: round; stroke-miterlimit: 22.926; stroke-dasharray: none; stroke-opacity: 1;" id="path99" fill="none" stroke="#000000" stroke-width="12" stroke-linecap="round" stroke-linejoin="round" stroke-miterlimit="22.926" stroke-dasharray="none" stroke-opacity="" data-original="#000000" class=""></path></g><g id="g101" transform="translate(291.3857,115.5977)" stroke-width="12" style="stroke-width: 12;"><path d="M 0,0 9.614,-79.203 M -80.772,0 -90.386,-79.203" style="stroke-width: 12; stroke-linecap: round; stroke-linejoin: round; stroke-miterlimit: 22.926; stroke-dasharray: none; stroke-opacity: 1;" id="path103" fill="none" stroke="#000000" stroke-width="12" stroke-linecap="round" stroke-linejoin="round" stroke-miterlimit="22.926" stroke-dasharray="none" stroke-opacity="" data-original="#000000" class=""></path></g><g id="g105" transform="translate(160.9995,35.9956)" stroke-width="12" style="stroke-width: 12;"><path d="M 0,0 H 180" style="stroke-width: 12; stroke-linecap: round; stroke-linejoin: round; stroke-miterlimit: 22.926; stroke-dasharray: none; stroke-opacity: 1;" id="path107" fill="none" stroke="#000000" stroke-width="12" stroke-linecap="round" stroke-linejoin="round" stroke-miterlimit="22.926" stroke-dasharray="none" stroke-opacity="" data-original="#000000" class=""></path></g><g id="g109" transform="translate(175.9985,246.0005)" stroke-width="12" style="stroke-width: 12;"><path d="M 0,0 H -15.251" style="stroke-width: 12; stroke-linecap: round; stroke-linejoin: round; stroke-miterlimit: 22.926; stroke-dasharray: none; stroke-opacity: 1;" id="path111" fill="none" stroke="#000000" stroke-width="12" stroke-linecap="round" stroke-linejoin="round" stroke-miterlimit="22.926" stroke-dasharray="none" stroke-opacity="" data-original="#000000" class=""></path></g><g id="g113" transform="translate(270.9995,286.001)" stroke-width="12" style="stroke-width: 12;"><path d="M 0,0 V -60.001 C 0,-71.001 -9,-80 -20,-80 v 0 c -11,0 -20,9 -20,19.999 V 0" style="stroke-width: 12; stroke-linecap: round; stroke-linejoin: round; stroke-miterlimit: 22.926; stroke-dasharray: none; stroke-opacity: 1;" id="path115" fill="none" stroke="#000000" stroke-width="12" stroke-linecap="round" stroke-linejoin="round" stroke-miterlimit="22.926" stroke-dasharray="none" stroke-opacity="" data-original="#000000" class=""></path></g><g id="g117" transform="translate(155.998,286.001)" stroke-width="12" style="stroke-width: 12;"><path d="m 0,0 h 20 c 11,0 20,-9 20,-20 0,-11 -9,-20 -20,-20 11,0 20,-9 20,-20 0,-11 -9,-20 -20,-20 H 0 Z" style="stroke-width: 12; stroke-linecap: round; stroke-linejoin: round; stroke-miterlimit: 22.926; stroke-dasharray: none; stroke-opacity: 1;" id="path119" fill="none" stroke="#000000" stroke-width="12" stroke-linecap="round" stroke-linejoin="round" stroke-miterlimit="22.926" stroke-dasharray="none" stroke-opacity="" data-original="#000000" class=""></path></g><g id="g121" transform="translate(346.001,286.001)" stroke-width="12" style="stroke-width: 12;"><path d="m 0,0 v -28.625 c 0,-11 -9.001,-20 -20,-20 v 0 c -10.999,0 -20,9.002 -20,20 V 0" style="stroke-width: 12; stroke-linecap: round; stroke-linejoin: round; stroke-miterlimit: 22.926; stroke-dasharray: none; stroke-opacity: 1;" id="path123" fill="none" stroke="#000000" stroke-width="12" stroke-linecap="round" stroke-linejoin="round" stroke-miterlimit="22.926" stroke-dasharray="none" stroke-opacity="" data-original="#000000" class=""></path></g><g id="g125" transform="translate(326.0015,235.8765)" stroke-width="12" style="stroke-width: 12;"><path d="M 0,0 V -29.876" style="stroke-width: 12; stroke-linecap: round; stroke-linejoin: round; stroke-miterlimit: 22.926; stroke-dasharray: none; stroke-opacity: 1;" id="path127" fill="none" stroke="#000000" stroke-width="12" stroke-linecap="round" stroke-linejoin="round" stroke-miterlimit="22.926" stroke-dasharray="none" stroke-opacity="" data-original="#000000" class=""></path></g><g id="g129" transform="translate(396.1948,195.4321)" stroke-width="12" style="stroke-width: 12;"><path d="m 0,0 91.491,-33.735 c 4.845,-1.608 6.208,-7.739 2.687,-11.253 l -14.447,-14.448 24.08,-24.079 c 2.658,-2.659 2.658,-6.971 0,-9.631 l -19.263,-19.262 c -2.659,-2.659 -6.971,-2.659 -9.631,0 l -24.079,24.079 -14.446,-14.446 c -3.4,-3.399 -9.807,-2.556 -11.449,3.271 L -8.612,-8.55 C -10.379,-3.229 -5.251,1.783 0,0 Z" style="stroke-width: 12; stroke-linecap: round; stroke-linejoin: round; stroke-miterlimit: 22.926; stroke-dasharray: none; stroke-opacity: 1;" id="path131" fill="none" stroke="#000000" stroke-width="12" stroke-linecap="round" stroke-linejoin="round" stroke-miterlimit="22.926" stroke-dasharray="none" stroke-opacity="" data-original="#000000" class=""></path></g><g id="g133" transform="translate(250.9922,155.9971)" stroke-width="12" style="stroke-width: 12;"><path d="M 0,0 H 0.007" style="stroke-width: 12; stroke-linecap: round; stroke-linejoin: round; stroke-miterlimit: 2.613; stroke-dasharray: none; stroke-opacity: 1;" id="path135" fill="none" stroke="#000000" stroke-width="12" stroke-linecap="round" stroke-linejoin="round" stroke-miterlimit="2.613" stroke-dasharray="none" stroke-opacity="" data-original="#000000" class=""></path></g></g></g></g></g></svg>