<svg xmlns="http://www.w3.org/2000/svg" version="1.1" xmlns:xlink="http://www.w3.org/1999/xlink" xmlns:svgjs="http://svgjs.com/svgjs" width="512" height="512" x="0" y="0" viewBox="0 0 682.66669 682.66669" style="enable-background:new 0 0 512 512" xml:space="preserve" class=""><g><defs id="defs6988" stroke-width="12" style="stroke-width: 12;"><clipPath clipPathUnits="userSpaceOnUse" id="clipPath6998" stroke-width="12" style="stroke-width: 12;"><path d="M 0,512 H 512 V 0 H 0 Z" id="path6996" fill="#23303d" data-original="#000000" class="" stroke-width="12" style="stroke-width: 12;"></path></clipPath></defs><g id="g6990" transform="matrix(1.3333333,0,0,-1.3333333,0,682.66667)" stroke-width="12" style="stroke-width: 12;"><g id="g6992" stroke-width="12" style="stroke-width: 12;"><g id="g6994" clip-path="url(#clipPath6998)" stroke-width="12" style="stroke-width: 12;"><g id="g7000" transform="translate(55.2939,236.9893)" stroke-width="12" style="stroke-width: 12;"><path d="m 0,0 v -45.832 h 350.063 c 2.777,0 5.026,2.253 5.026,5.03 V 0 Z" style="fill-opacity: 1; fill-rule: nonzero; stroke: none; stroke-width: 12;" id="path7002" fill="#e09932" data-original="#eec06b" class="" stroke-width="12"></path></g><g id="g7004" transform="translate(384.2329,236.9893)" stroke-width="12" style="stroke-width: 12;"><path d="m 0,0 v -40.804 c 0,-2.776 -2.251,-5.028 -5.029,-5.028 h 26.153 c 2.777,0 5.026,2.253 5.026,5.03 V 0 Z" style="fill-opacity: 1; fill-rule: nonzero; stroke: none; stroke-width: 12;" id="path7006" fill="#e09932" data-original="#e9a52d" class="" stroke-width="12"></path></g><g id="g7008" transform="translate(491.1729,314.6602)" stroke-width="12" style="stroke-width: 12;"><path d="m 0,0 c -3.068,3.067 -6.578,5.702 -10.431,7.805 -6.457,3.52 -13.86,5.522 -21.736,5.522 h -115.886 v 36.526 c -127.448,129.342 -307.57,80.863 -307.57,-173.355 V -192.2 c 0,-30.235 24.05,-55.438 54.283,-55.829 30.717,-0.4 55.746,24.383 55.746,55.008 l -0.011,0.569 c 0,20.973 -17.007,37.98 -37.981,37.98 -11.05,0 -20.997,-4.724 -27.937,-12.259 v 62.518 c 0,14.659 11.883,26.542 26.542,26.542 h 352.816 c 25.125,0 45.492,20.368 45.492,45.493 C 13.327,-19.614 8.238,-8.238 0,0" style="fill-opacity: 1; fill-rule: nonzero; stroke: none; stroke-width: 12;" id="path7010" fill="#63d9b6" data-original="#88f2a9" class="" stroke-width="12"></path></g><g id="g7012" transform="translate(107.5869,160.1885)" stroke-width="12" style="stroke-width: 12;"><path d="M 0,0 C -2.404,0 -4.752,-0.237 -7.033,-0.665 7.028,-6.231 16.98,-19.941 16.98,-35.981 l 0.011,-0.568 c 0,-28.538 -21.732,-51.99 -49.548,-54.734 4.699,-1.407 9.657,-2.208 14.803,-2.275 30.717,-0.399 55.746,24.383 55.746,55.009 l -0.011,0.569 C 37.981,-17.007 20.974,0 0,0" style="fill-opacity: 1; fill-rule: nonzero; stroke: none; stroke-width: 12;" id="path7014" fill="#63d9b6" data-original="#77d192" class="" stroke-width="12"></path></g><g id="g7016" transform="translate(429.0112,236.9893)" stroke-width="12" style="stroke-width: 12;"><path d="m 0,0 h 29.997 c 25.125,0 45.492,20.368 45.492,45.493 0,12.564 -5.09,23.94 -13.327,32.178 -3.068,3.067 -6.579,5.702 -10.431,7.805 -6.457,3.519 -13.86,5.522 -21.736,5.522 h -8.444 c 0.371,-3.369 2.08,-6.472 4.847,-8.445 11.96,-8.534 19.091,-22.38 19.091,-37.06 C 45.489,20.369 25.124,0.003 0,0" style="fill-opacity: 1; fill-rule: nonzero; stroke: none; stroke-width: 12;" id="path7018" fill="#63d9b6" data-original="#77d192" class="" stroke-width="12"></path></g><g id="g7020" transform="translate(485.4087,319.541)" stroke-width="12" style="stroke-width: 12;"><path d="m 0,0 c -2.87,2.049 -4.617,5.308 -4.897,8.822 -0.445,5.599 -1.533,11.129 -3.239,16.472 -9.018,28.394 -34.086,47.839 -62.599,50.605 -4.162,0.405 -7.989,2.518 -10.354,5.967 -10.406,15.173 -23.616,28.275 -38.884,38.554 -20.951,14.105 -49.167,-1.007 -49.167,-26.264 V -14.899 c 0,-8.661 3.501,-16.476 9.163,-22.159 12.335,-12.355 32.206,-12.213 44.418,-10e-4 H 19.091 C 19.091,-21.985 11.725,-8.367 0,0" style="fill-opacity: 1; fill-rule: nonzero; stroke: none; stroke-width: 12;" id="path7022" fill="#63d9b6" data-original="#bbf8d3" class="" stroke-width="12"></path></g><g id="g7024" transform="translate(485.4087,319.541)" stroke-width="12" style="stroke-width: 12;"><path d="m 0,0 c -2.87,2.048 -4.617,5.308 -4.897,8.822 -0.445,5.599 -1.533,11.129 -3.239,16.472 -9.018,28.394 -34.086,47.84 -62.599,50.605 -4.162,0.405 -7.989,2.518 -10.354,5.967 -10.406,15.173 -23.616,28.275 -38.884,38.554 -10.455,7.039 -22.718,6.801 -32.382,1.657 -0.064,-0.034 -0.136,-0.075 -0.194,-0.106 0.868,-0.476 1.73,-0.982 2.576,-1.551 15.268,-10.279 28.478,-23.381 38.884,-38.554 2.365,-3.449 6.192,-5.562 10.354,-5.967 28.513,-2.765 53.581,-22.211 62.599,-50.605 1.706,-5.343 2.794,-10.873 3.24,-16.472 0.279,-3.514 2.026,-6.773 4.896,-8.821 11.961,-8.534 19.091,-22.38 19.091,-37.06 h 30 C 19.091,-21.985 11.725,-8.367 0,0" style="fill-opacity: 1; fill-rule: nonzero; stroke: none; stroke-width: 12;" id="path7026" fill="#63d9b6" data-original="#a2f5c3" class="" stroke-width="12"></path></g><g id="g7028" transform="translate(394.7617,371.9121)" stroke-width="12" style="stroke-width: 12;"><path d="m 0,0 c -17.241,0 -31.218,-13.977 -31.218,-31.217 0,-17.241 13.977,-31.219 31.218,-31.219 17.241,0 31.217,13.978 31.217,31.219 C 31.217,-13.977 17.241,0 0,0" style="fill-opacity: 1; fill-rule: nonzero; stroke: none; stroke-width: 12;" id="path7030" fill="#e09932" data-original="#eec06b" class="" stroke-width="12"></path></g><g id="g7032" transform="translate(312.0474,207.5684)" stroke-width="12" style="stroke-width: 12;"><path d="m 0,0 -36.335,26.622 c -2.731,2 -3.409,5.793 -1.541,8.615 l 29.119,43.999 -33.552,22.204 c 0,0 -36.486,-55.131 -36.516,-55.177 -9.48,-14.578 -5.918,-34.049 8.109,-44.327 l 47.331,-34.678 c 4.197,-3.075 9.189,-4.284 13.986,-3.78 5.367,0.564 10.49,3.274 13.98,7.914 C 11.313,-19.653 9.038,-6.621 0,0" style="fill-opacity: 1; fill-rule: nonzero; stroke: none; stroke-width: 12;" id="path7034" fill="#63d9b6" data-original="#88f2a9" class="" stroke-width="12"></path></g><g id="g7036" transform="translate(192.25,207.5068)" stroke-width="12" style="stroke-width: 12;"><path d="M 0,0 -24.359,29.732 -4.72,77.604 c 4.302,10.244 -0.514,22.035 -10.757,26.336 l -11.231,5.018 c -19.319,8.631 -42.045,2.298 -54.117,-15.08 l -16.157,-20.8 33.512,-32.566 c -4.544,-10.817 -2.747,-23.174 4.688,-32.248 l 27.66,-33.761 c 3.977,-4.855 9.751,-7.369 15.573,-7.369 4.484,0 8.997,1.493 12.736,4.556 C 5.782,-21.269 7.041,-8.594 0,0" style="fill-opacity: 1; fill-rule: nonzero; stroke: none; stroke-width: 12;" id="path7038" fill="#63d9b6" data-original="#88f2a9" class="" stroke-width="12"></path></g><g id="g7040" transform="translate(7.5,231.96)" stroke-width="12" style="stroke-width: 12;"><path d="m 0,0 v -35.771 c 0,-2.778 2.252,-5.031 5.03,-5.031 H 107.026 V 5.029 H 5.03 C 2.252,5.029 0,2.777 0,0" style="fill-opacity: 1; fill-rule: nonzero; stroke: none; stroke-width: 12;" id="path7042" fill="#e09932" data-original="#eec06b" class="" stroke-width="12"></path></g><g id="g7044" transform="translate(266.3701,191.1602)" stroke-width="12" style="stroke-width: 12;"><path d="M 0,0 H -69.89" style="stroke-width: 12; stroke-linecap: round; stroke-linejoin: round; stroke-miterlimit: 10; stroke-dasharray: none; stroke-opacity: 1;" id="path7046" fill="none" stroke="#23303d" stroke-width="12" stroke-linecap="round" stroke-linejoin="round" stroke-miterlimit="10" stroke-dasharray="none" stroke-opacity="" data-original="#000000" class=""></path></g><g id="g7048" transform="translate(227.9399,236.9902)" stroke-width="12" style="stroke-width: 12;"><path d="M 0,0 H -59.85" style="stroke-width: 12; stroke-linecap: round; stroke-linejoin: round; stroke-miterlimit: 10; stroke-dasharray: none; stroke-opacity: 1;" id="path7050" fill="none" stroke="#23303d" stroke-width="12" stroke-linecap="round" stroke-linejoin="round" stroke-miterlimit="10" stroke-dasharray="none" stroke-opacity="" data-original="#000000" class=""></path></g><g id="g7052" transform="translate(346.6699,191.1602)" stroke-width="12" style="stroke-width: 12;"><path d="M 0,0 H -26.15" style="stroke-width: 12; stroke-linecap: round; stroke-linejoin: round; stroke-miterlimit: 10; stroke-dasharray: none; stroke-opacity: 1;" id="path7054" fill="none" stroke="#23303d" stroke-width="12" stroke-linecap="round" stroke-linejoin="round" stroke-miterlimit="10" stroke-dasharray="none" stroke-opacity="" data-original="#000000" class=""></path></g><g id="g7056" transform="translate(410.3833,236.9893)" stroke-width="12" style="stroke-width: 12;"><path d="m 0,0 v -40.802 c 0,-2.78 -2.256,-5.03 -5.026,-5.03 h -23.687" style="stroke-width: 12; stroke-linecap: round; stroke-linejoin: round; stroke-miterlimit: 10; stroke-dasharray: none; stroke-opacity: 1;" id="path7058" fill="none" stroke="#23303d" stroke-width="12" stroke-linecap="round" stroke-linejoin="round" stroke-miterlimit="10" stroke-dasharray="none" stroke-opacity="" data-original="#000000" class=""></path></g><g id="g7060" transform="translate(67.8101,347.8799)" stroke-width="12" style="stroke-width: 12;"><path d="M 0,0 C 52.28,100.45 158.67,111.181 248.46,40.69" style="stroke-width: 12; stroke-linecap: round; stroke-linejoin: round; stroke-miterlimit: 10; stroke-dasharray: none; stroke-opacity: 1;" id="path7062" fill="none" stroke="#23303d" stroke-width="12" stroke-linecap="round" stroke-linejoin="round" stroke-miterlimit="10" stroke-dasharray="none" stroke-opacity="" data-original="#000000" class=""></path></g><g id="g7064" transform="translate(273.5601,236.9893)" stroke-width="12" style="stroke-width: 12;"><path d="m 0,0 h 185.448 c 25.119,0 45.492,20.373 45.492,45.493" style="stroke-width: 12; stroke-linecap: round; stroke-linejoin: round; stroke-miterlimit: 10; stroke-dasharray: none; stroke-opacity: 1;" id="path7066" fill="none" stroke="#23303d" stroke-width="12" stroke-linecap="round" stroke-linejoin="round" stroke-miterlimit="10" stroke-dasharray="none" stroke-opacity="" data-original="#000000" class=""></path></g><g id="g7068" transform="translate(37.6602,236.9902)" stroke-width="12" style="stroke-width: 12;"><path d="M 0,0 C 2.87,29.93 8.58,56.35 16.61,79.33" style="stroke-width: 12; stroke-linecap: round; stroke-linejoin: round; stroke-miterlimit: 10; stroke-dasharray: none; stroke-opacity: 1;" id="path7070" fill="none" stroke="#23303d" stroke-width="12" stroke-linecap="round" stroke-linejoin="round" stroke-miterlimit="10" stroke-dasharray="none" stroke-opacity="" data-original="#000000" class=""></path></g><g id="g7072" transform="translate(79.6494,191.1602)" stroke-width="12" style="stroke-width: 12;"><path d="m 0,0 v -43.231 c 6.94,7.53 16.888,12.259 27.937,12.259 20.971,0 37.981,-17.01 37.981,-37.98 l 0.011,-0.569 c 0,-30.629 -25.026,-55.409 -55.746,-55.008 -30.23,0.389 -54.282,25.589 -54.282,55.829 v 68.698" style="stroke-width: 12; stroke-linecap: round; stroke-linejoin: round; stroke-miterlimit: 10; stroke-dasharray: none; stroke-opacity: 1;" id="path7074" fill="none" stroke="#23303d" stroke-width="12" stroke-linecap="round" stroke-linejoin="round" stroke-miterlimit="10" stroke-dasharray="none" stroke-opacity="" data-original="#000000" class=""></path></g><g id="g7076" transform="translate(392.75,340.6953)" stroke-width="12" style="stroke-width: 12;"><path d="M 0,0 H 4.023" style="stroke-width: 12; stroke-linecap: round; stroke-linejoin: round; stroke-miterlimit: 10; stroke-dasharray: none; stroke-opacity: 1;" id="path7078" fill="none" stroke="#23303d" stroke-width="12" stroke-linecap="round" stroke-linejoin="round" stroke-miterlimit="10" stroke-dasharray="none" stroke-opacity="" data-original="#000000" class=""></path></g><g id="g7080" transform="translate(394.7617,371.9121)" stroke-width="12" style="stroke-width: 12;"><path d="m 0,0 c -17.241,0 -31.218,-13.977 -31.218,-31.217 0,-17.241 13.977,-31.219 31.218,-31.219 17.241,0 31.217,13.978 31.217,31.219 C 31.217,-13.977 17.241,0 0,0 Z" style="stroke-width: 12; stroke-linecap: round; stroke-linejoin: round; stroke-miterlimit: 10; stroke-dasharray: none; stroke-opacity: 1;" id="path7082" fill="none" stroke="#23303d" stroke-width="12" stroke-linecap="round" stroke-linejoin="round" stroke-miterlimit="10" stroke-dasharray="none" stroke-opacity="" data-original="#000000" class=""></path></g><g id="g7084" transform="translate(485.4087,319.541)" stroke-width="12" style="stroke-width: 12;"><path d="m 0,0 c -2.87,2.049 -4.617,5.308 -4.897,8.822 -0.445,5.599 -1.533,11.129 -3.239,16.472 -9.018,28.394 -34.086,47.839 -62.599,50.605 -4.162,0.405 -7.989,2.518 -10.354,5.967 -10.406,15.173 -23.616,28.275 -38.884,38.554 -20.951,14.105 -49.167,-1.007 -49.167,-26.264 V -14.899 c 0,-8.661 3.501,-16.476 9.163,-22.159 12.335,-12.355 32.206,-12.213 44.418,-10e-4 H 19.091 C 19.091,-21.985 11.725,-8.367 0,0 Z" style="stroke-width: 12; stroke-linecap: round; stroke-linejoin: round; stroke-miterlimit: 10; stroke-dasharray: none; stroke-opacity: 1;" id="path7086" fill="none" stroke="#23303d" stroke-width="12" stroke-linecap="round" stroke-linejoin="round" stroke-miterlimit="10" stroke-dasharray="none" stroke-opacity="" data-original="#000000" class=""></path></g><g id="g7088" transform="translate(107.5869,160.1885)" stroke-width="12" style="stroke-width: 12;"><path d="m 0,0 c -20.974,0 -37.981,-17.008 -37.981,-37.981 0,-14.617 9.516,-21.979 19.457,-21.979 10.644,0 19.268,8.624 19.268,19.269" style="stroke-width: 12; stroke-linecap: round; stroke-linejoin: round; stroke-miterlimit: 10; stroke-dasharray: none; stroke-opacity: 1;" id="path7090" fill="none" stroke="#23303d" stroke-width="12" stroke-linecap="round" stroke-linejoin="round" stroke-miterlimit="10" stroke-dasharray="none" stroke-opacity="" data-original="#000000" class=""></path></g><g id="g7092" transform="translate(257.5737,290.6279)" stroke-width="12" style="stroke-width: 12;"><path d="m 0,0 c 0,0 -24.322,-36.751 -24.351,-36.797 -9.481,-14.578 -5.919,-34.049 8.109,-44.327 l 47.33,-34.678 c 4.198,-3.075 9.189,-4.284 13.987,-3.78 5.367,0.564 10.49,3.274 13.979,7.914 6.733,8.955 4.457,21.987 -4.58,28.608 l -36.336,26.622 c -2.73,2 -3.409,5.793 -1.54,8.616 l 20.901,31.582" style="stroke-width: 12; stroke-linecap: round; stroke-linejoin: round; stroke-miterlimit: 10; stroke-dasharray: none; stroke-opacity: 1;" id="path7094" fill="none" stroke="#23303d" stroke-width="12" stroke-linecap="round" stroke-linejoin="round" stroke-miterlimit="10" stroke-dasharray="none" stroke-opacity="" data-original="#000000" class=""></path></g><g id="g7096" transform="translate(95.2681,280.585)" stroke-width="12" style="stroke-width: 12;"><path d="M 0,0 16.157,20.8 C 28.229,38.178 50.955,44.511 70.274,35.88 L 81.505,30.862 C 91.748,26.561 96.564,14.77 92.262,4.526 L 72.623,-43.346 96.982,-73.078 c 7.041,-8.594 5.782,-21.269 -2.813,-28.31 -3.739,-3.063 -8.252,-4.556 -12.736,-4.556 -5.822,0 -11.596,2.514 -15.573,7.369 L 38.2,-64.814 c -7.435,9.074 -9.232,21.431 -4.688,32.248 L 48.668,4.461" style="stroke-width: 12; stroke-linecap: round; stroke-linejoin: round; stroke-miterlimit: 10; stroke-dasharray: none; stroke-opacity: 1;" id="path7098" fill="none" stroke="#23303d" stroke-width="12" stroke-linecap="round" stroke-linejoin="round" stroke-miterlimit="10" stroke-dasharray="none" stroke-opacity="" data-original="#000000" class=""></path></g><g id="g7100" transform="translate(126.3398,236.9893)" stroke-width="12" style="stroke-width: 12;"><path d="m 0,0 h -113.81 c -2.78,0 -5.03,-2.249 -5.03,-5.029 v -35.772 c 0,-2.78 2.25,-5.03 5.03,-5.03 h 141.1" style="stroke-width: 12; stroke-linecap: round; stroke-linejoin: round; stroke-miterlimit: 10; stroke-dasharray: none; stroke-opacity: 1;" id="path7102" fill="none" stroke="#23303d" stroke-width="12" stroke-linecap="round" stroke-linejoin="round" stroke-miterlimit="10" stroke-dasharray="none" stroke-opacity="" data-original="#000000" class=""></path></g></g></g></g></g></svg>