<svg xmlns="http://www.w3.org/2000/svg" version="1.1" xmlns:xlink="http://www.w3.org/1999/xlink" xmlns:svgjs="http://svgjs.com/svgjs" width="512" height="512" x="0" y="0" viewBox="0 0 682.66669 682.66669" style="enable-background:new 0 0 512 512" xml:space="preserve" class=""><g><defs id="defs2221"><clipPath clipPathUnits="userSpaceOnUse" id="clipPath2231"><path d="M 0,512 H 512 V 0 H 0 Z" id="path2229" fill="#23303d" data-original="#000000"></path></clipPath></defs><g id="g2223" transform="matrix(1.3333333,0,0,-1.3333333,0,682.66667)"><g id="g2225"><g id="g2227" clip-path="url(#clipPath2231)"><g id="g2233" transform="translate(34,501.9999)"><path d="m 0,0 h 336 c 13.255,0 24,-10.745 24,-24 v -444 c 0,-13.255 -10.745,-24 -24,-24 H 0 c -13.255,0 -24,10.745 -24,24 v 444 c 0,13.255 10.745,24 24,24" style="fill-opacity:1;fill-rule:nonzero;stroke:none" id="path2235" fill="#2470a9" data-original="#79b2ff" class=""></path></g><g id="g2237" transform="translate(280.333,461.9999)"><path d="m 0,0 h 73.667 v -412 h -304 v 63 349 h 73.667" style="fill-opacity:1;fill-rule:nonzero;stroke:none" id="path2239" fill="#ffffff" data-original="#ffffff" class=""></path></g><g id="g2241" transform="translate(148.0834,429.9999)"><path d="m 0,0 h 107.833 c 11.736,0 21.25,9.514 21.25,21.25 V 72 H -21.25 V 21.25 C -21.25,9.514 -11.736,0 0,0" style="fill-opacity:1;fill-rule:nonzero;stroke:none" id="path2243" fill="#e38082" data-original="#ff6977" class=""></path></g><g id="g2245" transform="translate(394,227)"><path d="m 0,0 v -193 c 0,-13.255 -10.745,-24 -24,-24 h -336 c -13.255,0 -24,10.745 -24,24 v 444 c 0,13.255 10.745,24 24,24 h 336 c 13.255,0 24,-10.745 24,-24 V 78.758" style="stroke-width:20;stroke-linecap:round;stroke-linejoin:round;stroke-miterlimit:10;stroke-dasharray:none;stroke-opacity:1" id="path2247" fill="none" stroke="#23303d" stroke-width="20" stroke-linecap="round" stroke-linejoin="round" stroke-miterlimit="10" stroke-dasharray="none" stroke-opacity="" data-original="#000000" class=""></path></g><g id="g2249" transform="translate(148.0834,429.9999)"><path d="m 0,0 h 107.833 c 11.736,0 21.25,9.514 21.25,21.25 V 72 H -21.25 V 21.25 C -21.25,9.514 -11.736,0 0,0" style="fill-opacity:1;fill-rule:nonzero;stroke:none" id="path2251" fill="#bdd9ff" data-original="#bdd9ff" class=""></path></g><g id="g2253" transform="translate(148.0834,429.9999)"><path d="m 0,0 h 107.833 c 11.736,0 21.25,9.514 21.25,21.25 V 72 H -21.25 V 21.25 C -21.25,9.514 -11.736,0 0,0 Z" style="stroke-width:20;stroke-linecap:round;stroke-linejoin:round;stroke-miterlimit:10;stroke-dasharray:none;stroke-opacity:1" id="path2255" fill="none" stroke="#23303d" stroke-width="20" stroke-linecap="round" stroke-linejoin="round" stroke-miterlimit="10" stroke-dasharray="none" stroke-opacity="" data-original="#000000" class=""></path></g><g id="g2257" transform="translate(161.9998,50.0001)"><path d="m 0,0 h -112 v 63 349 h 73.667" style="stroke-width:20;stroke-linecap:round;stroke-linejoin:round;stroke-miterlimit:10;stroke-dasharray:none;stroke-opacity:1" id="path2259" fill="none" stroke="#23303d" stroke-width="20" stroke-linecap="round" stroke-linejoin="round" stroke-miterlimit="10" stroke-dasharray="none" stroke-opacity="" data-original="#000000" class=""></path></g><g id="g2261" transform="translate(354,201)"><path d="M 0,0 V -151 H -112" style="stroke-width:20;stroke-linecap:round;stroke-linejoin:round;stroke-miterlimit:10;stroke-dasharray:none;stroke-opacity:1" id="path2263" fill="none" stroke="#23303d" stroke-width="20" stroke-linecap="round" stroke-linejoin="round" stroke-miterlimit="10" stroke-dasharray="none" stroke-opacity="" data-original="#000000" class=""></path></g><g id="g2265" transform="translate(280.333,461.9999)"><path d="M 0,0 H 73.667 V -194.78" style="stroke-width:20;stroke-linecap:round;stroke-linejoin:round;stroke-miterlimit:10;stroke-dasharray:none;stroke-opacity:1" id="path2267" fill="none" stroke="#23303d" stroke-width="20" stroke-linecap="round" stroke-linejoin="round" stroke-miterlimit="10" stroke-dasharray="none" stroke-opacity="" data-original="#000000" class=""></path></g><g id="g2269" transform="translate(202,50.0001)"><path d="M 0,0 V 0" style="stroke-width:20;stroke-linecap:round;stroke-linejoin:round;stroke-miterlimit:10;stroke-dasharray:none;stroke-opacity:1" id="path2271" fill="none" stroke="#23303d" stroke-width="20" stroke-linecap="round" stroke-linejoin="round" stroke-miterlimit="10" stroke-dasharray="none" stroke-opacity="" data-original="#000000" class=""></path></g><g id="g2273" transform="translate(339.683,251.4406)"><path d="m 0,0 117.168,117.168 c 10.329,10.329 27.074,10.329 37.403,0 v 0 c 10.328,-10.328 10.328,-27.074 0,-37.402 L 37.403,-37.403 -30.016,-67.419 Z" style="fill-opacity:1;fill-rule:nonzero;stroke:none" id="path2275" fill="#e09932" data-original="#ffc15a" class=""></path></g><g id="g2277" transform="translate(377.0855,214.0381)"><path d="M 0,0 -37.403,37.403 -67.419,-30.016 Z" style="fill-opacity:1;fill-rule:nonzero;stroke:none" id="path2279" fill="#98a1b3" data-original="#98a1b3"></path></g><g id="g2281" transform="translate(481.3965,318.3492)"><path d="m 0,0 12.857,12.857 c 10.329,10.329 10.329,27.074 0,37.403 -10.328,10.328 -27.074,10.328 -37.402,0 L -37.403,37.403 Z" style="fill-opacity:1;fill-rule:nonzero;stroke:none" id="path2283" fill="#e38082" data-original="#ff6977" class=""></path></g><g id="g2285" transform="translate(456.9837,293.9363)"><path d="m 0,0 -79.898,-79.898 -67.419,-30.017 30.016,67.419 117.168,117.169 c 10.329,10.328 27.075,10.328 37.403,0 V 74.672 C 47.598,64.344 47.598,47.598 37.27,37.27 L 0,0" style="stroke-width:20;stroke-linecap:round;stroke-linejoin:round;stroke-miterlimit:10;stroke-dasharray:none;stroke-opacity:1" id="path2287" fill="none" stroke="#23303d" stroke-width="20" stroke-linecap="round" stroke-linejoin="round" stroke-miterlimit="10" stroke-dasharray="none" stroke-opacity="" data-original="#000000" class=""></path></g><g id="g2289" transform="translate(374.894,216.2297)"><path d="M 0,0 -34.32,34.32" style="stroke-width:20;stroke-linecap:round;stroke-linejoin:round;stroke-miterlimit:10;stroke-dasharray:none;stroke-opacity:1" id="path2291" fill="none" stroke="#23303d" stroke-width="20" stroke-linecap="round" stroke-linejoin="round" stroke-miterlimit="10" stroke-dasharray="none" stroke-opacity="" data-original="#000000" class=""></path></g><g id="g2293" transform="translate(481.3965,318.3492)"><path d="M 0,0 -37.403,37.403" style="stroke-width:20;stroke-linecap:round;stroke-linejoin:round;stroke-miterlimit:10;stroke-dasharray:none;stroke-opacity:1" id="path2295" fill="none" stroke="#23303d" stroke-width="20" stroke-linecap="round" stroke-linejoin="round" stroke-miterlimit="10" stroke-dasharray="none" stroke-opacity="" data-original="#000000" class=""></path></g><path d="M 162,318 H 98 v 64 h 64 z" style="fill-opacity:1;fill-rule:nonzero;stroke:none" id="path2297" fill="#63d9b6" data-original="#cbe558" class=""></path><path d="M 162,208 H 98 v 64 h 64 z" style="fill-opacity:1;fill-rule:nonzero;stroke:none" id="path2299" fill="#63d9b6" data-original="#cbe558" class=""></path><path d="M 162,98 H 98 v 64 h 64 z" style="fill-opacity:1;fill-rule:nonzero;stroke:none" id="path2301" fill="#e38082" data-original="#ff6977" class=""></path><path d="M 162,318 H 98 v 64 h 64 z" style="stroke-width:20;stroke-linecap:round;stroke-linejoin:round;stroke-miterlimit:10;stroke-dasharray:none;stroke-opacity:1" id="path2303" fill="none" stroke="#23303d" stroke-width="20" stroke-linecap="round" stroke-linejoin="round" stroke-miterlimit="10" stroke-dasharray="none" stroke-opacity="" data-original="#000000" class=""></path><path d="M 162,208 H 98 v 64 h 64 z" style="stroke-width:20;stroke-linecap:round;stroke-linejoin:round;stroke-miterlimit:10;stroke-dasharray:none;stroke-opacity:1" id="path2305" fill="none" stroke="#23303d" stroke-width="20" stroke-linecap="round" stroke-linejoin="round" stroke-miterlimit="10" stroke-dasharray="none" stroke-opacity="" data-original="#000000" class=""></path><path d="M 162,98 H 98 v 64 h 64 z" style="stroke-width:20;stroke-linecap:round;stroke-linejoin:round;stroke-miterlimit:10;stroke-dasharray:none;stroke-opacity:1" id="path2307" fill="none" stroke="#23303d" stroke-width="20" stroke-linecap="round" stroke-linejoin="round" stroke-miterlimit="10" stroke-dasharray="none" stroke-opacity="" data-original="#000000" class=""></path><g id="g2309" transform="translate(218.4026,349.6738)"><path d="M 0,0 22.247,-22.247 67.392,22.899" style="stroke-width:20;stroke-linecap:round;stroke-linejoin:round;stroke-miterlimit:10;stroke-dasharray:none;stroke-opacity:1" id="path2311" fill="none" stroke="#23303d" stroke-width="20" stroke-linecap="round" stroke-linejoin="round" stroke-miterlimit="10" stroke-dasharray="none" stroke-opacity="" data-original="#000000" class=""></path></g><g id="g2313" transform="translate(218.4026,239.6738)"><path d="M 0,0 22.247,-22.247 67.392,22.899" style="stroke-width:20;stroke-linecap:round;stroke-linejoin:round;stroke-miterlimit:10;stroke-dasharray:none;stroke-opacity:1" id="path2315" fill="none" stroke="#23303d" stroke-width="20" stroke-linecap="round" stroke-linejoin="round" stroke-miterlimit="10" stroke-dasharray="none" stroke-opacity="" data-original="#000000" class=""></path></g><g id="g2317" transform="translate(229.5259,107.4271)"><path d="M 0,0 45.146,45.146" style="stroke-width:20;stroke-linecap:round;stroke-linejoin:round;stroke-miterlimit:10;stroke-dasharray:none;stroke-opacity:1" id="path2319" fill="none" stroke="#23303d" stroke-width="20" stroke-linecap="round" stroke-linejoin="round" stroke-miterlimit="10" stroke-dasharray="none" stroke-opacity="" data-original="#000000" class=""></path></g><g id="g2321" transform="translate(229.5259,152.5729)"><path d="M 0,0 45.146,-45.146" style="stroke-width:20;stroke-linecap:round;stroke-linejoin:round;stroke-miterlimit:10;stroke-dasharray:none;stroke-opacity:1" id="path2323" fill="none" stroke="#23303d" stroke-width="20" stroke-linecap="round" stroke-linejoin="round" stroke-miterlimit="10" stroke-dasharray="none" stroke-opacity="" data-original="#000000" class=""></path></g></g></g></g></g></svg>