<svg xmlns="http://www.w3.org/2000/svg" version="1.1" xmlns:xlink="http://www.w3.org/1999/xlink" xmlns:svgjs="http://svgjs.com/svgjs" width="512" height="512" x="0" y="0" viewBox="0 0 682.66669 682.66669" style="enable-background:new 0 0 512 512" xml:space="preserve" class=""><g>
  <defs id="defs12124" stroke-width="12" style="stroke-width: 12;">
    <clipPath clipPathUnits="userSpaceOnUse" id="clipPath12134" stroke-width="12" style="stroke-width: 12;">
      <path d="M 0,512 H 512 V 0 H 0 Z" id="path12132" fill="#23303d" data-original="#000000" stroke-width="12" style="stroke-width: 12;"></path>
    </clipPath>
  </defs>
  <g id="g12126" transform="matrix(1.3333333,0,0,-1.3333333,0,682.66667)" stroke-width="12" style="stroke-width: 12;">
    <g id="g12128" stroke-width="12" style="stroke-width: 12;">
      <g id="g12130" clip-path="url(#clipPath12134)" stroke-width="12" style="stroke-width: 12;">
        <g id="g12136" transform="translate(495.4255,27.2128)" stroke-width="12" style="stroke-width: 12;">
          <path d="m 0,0 h -136.851 v 98.766 c 0,5.523 4.477,10 10,10 H -10 c 5.523,0 10,-4.477 10,-10 z" style="fill-opacity: 1; fill-rule: nonzero; stroke: none; stroke-width: 12;" id="path12138" fill="#edeff0" data-original="#5f9ad7" stroke-width="12" class=""></path>
        </g>
        <g id="g12140" transform="translate(395.5745,135.9788)" stroke-width="12" style="stroke-width: 12;">
          <path d="m 0,0 h -27 c -5.523,0 -10,-4.477 -10,-10 v -98.766 h 27 V -10 c 0,5.523 4.477,10 10,10" style="fill-opacity: 1; fill-rule: nonzero; stroke: none; stroke-width: 12;" id="path12142" fill="#edeff0" data-original="#3c87d0" stroke-width="12" class=""></path>
        </g>
        <g id="g12144" transform="translate(488.5,7.5)" stroke-width="12" style="stroke-width: 12;">
          <path d="m 0,0 h -123 c -8.837,0 -16,7.163 -16,16 v 12.936 c 0,2.209 1.791,4 4,4 H 12 c 2.209,0 4,-1.791 4,-4 V 16 C 16,7.163 8.837,0 0,0" style="fill-opacity: 1; fill-rule: nonzero; stroke: none; stroke-width: 12;" id="path12146" fill="#97a2a6" data-original="#9b959d" stroke-width="12" class=""></path>
        </g>
        <path d="m 72.5,58.831 h 25 V 7.978 h -25 z" style="fill-opacity: 1; fill-rule: nonzero; stroke: none; stroke-width: 12;" id="path12148" fill="#97a2a6" data-original="#857e87" stroke-width="12" class=""></path>
        <g id="g12150" transform="translate(152.5,41.2022)" stroke-width="12" style="stroke-width: 12;">
          <path d="m 0,0 h -135 c -5.523,0 -10,4.477 -10,10 v 74.777 c 0,5.522 4.477,10 10,10 H 0 c 5.523,0 10,-4.478 10,-10 V 10 C 10,4.477 5.523,0 0,0" style="fill-opacity: 1; fill-rule: nonzero; stroke: none; stroke-width: 12;" id="path12152" fill="#edeff0" data-original="#5f9ad7" stroke-width="12" class=""></path>
        </g>
        <g id="g12154" transform="translate(307.3617,127.979)" stroke-width="12" style="stroke-width: 12;">
          <path d="m 0,0 c 0,4.418 -3.582,8 -8,8 h -86.723 c -4.419,0 -8,-3.582 -8,-8 V -87.543 H 0 Z" style="fill-opacity: 1; fill-rule: nonzero; stroke: none; stroke-width: 12;" id="path12156" fill="#edeff0" data-original="#5f9ad7" stroke-width="12" class=""></path>
        </g>
        <g id="g12158" transform="translate(204.6383,40.436)" stroke-width="12" style="stroke-width: 12;">
          <path d="m 0,0 v -24.936 c 0,-4.418 3.582,-8 8,-8 h 86.723 c 4.419,0 8,3.582 8,8 V 0 Z" style="fill-opacity: 1; fill-rule: nonzero; stroke: none; stroke-width: 12;" id="path12160" fill="#97a2a6" data-original="#9b959d" stroke-width="12" class=""></path>
        </g>
        <g id="g12162" transform="translate(102.5,88.5905)" stroke-width="12" style="stroke-width: 12;">
          <path d="m 0,0 c 0,-9.665 -7.835,-17.5 -17.5,-17.5 -9.665,0 -17.5,7.835 -17.5,17.5 0,9.665 7.835,17.5 17.5,17.5 C -7.835,17.5 0,9.665 0,0" style="fill-opacity: 1; fill-rule: nonzero; stroke: none; stroke-width: 12;" id="path12164" fill="#2470a9" data-original="#dff6fd" stroke-width="12" class=""></path>
        </g>
        <g id="g12166" transform="translate(444.5,88.5905)" stroke-width="12" style="stroke-width: 12;">
          <path d="m 0,0 c 0,-9.665 -7.835,-17.5 -17.5,-17.5 -9.665,0 -17.5,7.835 -17.5,17.5 0,9.665 7.835,17.5 17.5,17.5 C -7.835,17.5 0,9.665 0,0" style="fill-opacity: 1; fill-rule: nonzero; stroke: none; stroke-width: 12;" id="path12168" fill="#2470a9" data-original="#dff6fd" stroke-width="12" class=""></path>
        </g>
        <g id="g12170" transform="translate(273.5,88.5905)" stroke-width="12" style="stroke-width: 12;">
          <path d="m 0,0 c 0,-9.665 -7.835,-17.5 -17.5,-17.5 -9.665,0 -17.5,7.835 -17.5,17.5 0,9.665 7.835,17.5 17.5,17.5 C -7.835,17.5 0,9.665 0,0" style="fill-opacity: 1; fill-rule: nonzero; stroke: none; stroke-width: 12;" id="path12172" fill="#2470a9" data-original="#dff6fd" stroke-width="12" class=""></path>
        </g>
        <g id="g12174" transform="translate(106.2067,409.191)" stroke-width="12" style="stroke-width: 12;">
          <path d="m 0,0 c 5.806,1.756 10.108,6.749 10.904,12.763 6.172,46.59 46.027,82.546 94.304,82.546 23.471,0 44.942,-8.511 61.532,-22.6 4.633,-3.934 11.058,-4.904 16.624,-2.462 10.15,4.453 21.362,6.929 33.156,6.929 40.727,0 74.557,-29.453 81.396,-68.219 0.907,-5.139 4.253,-9.569 9.02,-11.692 22.056,-9.824 37.437,-31.923 37.437,-57.626 v -0.001 c 0,-34.834 -28.239,-63.073 -63.074,-63.073 H 18.287 c -34.834,0 -63.073,28.239 -63.073,63.073 v 0.001 C -44.786,-31.888 -25.915,-7.837 0,0" style="fill-opacity: 1; fill-rule: nonzero; stroke: none; stroke-width: 12;" id="path12176" fill="#2470a9" data-original="#dff6fd" stroke-width="12" class=""></path>
        </g>
        <g id="g12178" transform="translate(211.41,504.5)" stroke-width="12" style="stroke-width: 12;">
          <path d="m 0,0 c 4.58,0 9.09,-0.32 13.5,-0.96 -42.04,-5.97 -75.22,-39.42 -80.8,-81.59 -0.8,-6.01 -5.1,-11 -10.9,-12.76 -12.96,-3.92 -24.16,-11.89 -32.11,-22.44 -7.96,-10.55 -12.68,-23.69 -12.68,-37.92 0,-34.84 28.24,-63.07 63.07,-63.07 h -27 c -34.83,0 -63.07,28.23 -63.07,63.07 0,14.23 4.72,27.37 12.68,37.92 7.95,10.55 19.15,18.52 32.11,22.44 5.8,1.76 10.1,6.75 10.9,12.76 C -88.13,-35.96 -48.27,0 0,0" style="fill-opacity: 1; fill-rule: nonzero; stroke: none; stroke-width: 12;" id="path12180" fill="#2470a9" data-original="#c8effe" stroke-width="12" class=""></path>
        </g>
        <g id="g12182" transform="translate(376.5,23.5)" stroke-width="12" style="stroke-width: 12;">
          <path d="m 0,0 v 12.936 c 0,2.209 1.791,4 4,4 h -27 c -2.209,0 -4,-1.791 -4,-4 V 0 c 0,-8.836 7.163,-16 16,-16 H 16 C 7.163,-16 0,-8.836 0,0" style="fill-opacity: 1; fill-rule: nonzero; stroke: none; stroke-width: 12;" id="path12184" fill="#97a2a6" data-original="#857e87" stroke-width="12" class=""></path>
        </g>
        <g id="g12186" transform="translate(34.5,51.2021)" stroke-width="12" style="stroke-width: 12;">
          <path d="m 0,0 v 74.777 c 0,5.522 4.477,10 10,10 h -27 c -5.523,0 -10,-4.478 -10,-10 V 0 c 0,-5.523 4.477,-10 10,-10 H 10 C 4.477,-10 0,-5.523 0,0" style="fill-opacity: 1; fill-rule: nonzero; stroke: none; stroke-width: 12;" id="path12188" fill="#edeff0" data-original="#3c87d0" stroke-width="12" class=""></path>
        </g>
        <g id="g12190" transform="translate(239.6383,135.979)" stroke-width="12" style="stroke-width: 12;">
          <path d="m 0,0 h -27 c -4.418,0 -8,-3.582 -8,-8 V -95.543 H -8 V -8 c 0,4.418 3.582,8 8,8" style="fill-opacity: 1; fill-rule: nonzero; stroke: none; stroke-width: 12;" id="path12192" fill="#edeff0" data-original="#3c87d0" stroke-width="12" class=""></path>
        </g>
        <g id="g12194" transform="translate(231.6383,15.5)" stroke-width="12" style="stroke-width: 12;">
          <path d="M 0,0 V 24.936 H -27 V 0 c 0,-4.418 3.582,-8 8,-8 H 8 C 3.582,-8 0,-4.418 0,0" style="fill-opacity: 1; fill-rule: nonzero; stroke: none; stroke-width: 12;" id="path12196" fill="#97a2a6" data-original="#857e87" stroke-width="12" class=""></path>
        </g>
        <g id="g12198" transform="translate(306,227.6918)" stroke-width="12" style="stroke-width: 12;">
          <path d="m 0,0 h -100 c -5.523,0 -10,4.477 -10,10 v 100 c 0,5.523 4.477,10 10,10 H 0 c 5.523,0 10,-4.477 10,-10 V 10 C 10,4.477 5.523,0 0,0" style="fill-opacity: 1; fill-rule: nonzero; stroke: none; stroke-width: 12;" id="path12200" fill="#63d9b6" data-original="#6ed5a1" stroke-width="12" class=""></path>
        </g>
        <g id="g12202" transform="translate(223,237.6919)" stroke-width="12" style="stroke-width: 12;">
          <path d="m 0,0 v 100 c 0,5.523 4.477,10 10,10 h -27 c -5.523,0 -10,-4.477 -10,-10 V 0 c 0,-5.523 4.477,-10 10,-10 H 10 C 4.477,-10 0,-5.523 0,0" style="fill-opacity: 1; fill-rule: nonzero; stroke: none; stroke-width: 12;" id="path12204" fill="#63d9b6" data-original="#46cc8d" stroke-width="12" class=""></path>
        </g>
        <g id="g12206" transform="translate(221,256.692)" stroke-width="12" style="stroke-width: 12;">
          <path d="m 0,0 v 62 c 0,2.209 1.791,4 4,4 h 62 c 2.209,0 4,-1.791 4,-4 V 0 c 0,-2.209 -1.791,-4 -4,-4 H 4 C 1.791,-4 0,-2.209 0,0" style="fill-opacity: 1; fill-rule: nonzero; stroke: none; stroke-width: 12;" id="path12208" fill="#2470a9" data-original="#dff6fd" stroke-width="12" class=""></path>
        </g>
        <g id="g12210" transform="translate(246,256.6919)" stroke-width="12" style="stroke-width: 12;">
          <path d="m 0,0 v 62 c 0,2.209 1.791,4 4,4 h -25 c -2.209,0 -4,-1.791 -4,-4 V 0 c 0,-2.209 1.791,-4 4,-4 H 4 C 1.791,-4 0,-2.209 0,0" style="fill-opacity: 1; fill-rule: nonzero; stroke: none; stroke-width: 12;" id="path12212" fill="#2470a9" data-original="#c8effe" stroke-width="12" class=""></path>
        </g>
        <g id="g12214" transform="translate(212.6383,135.979)" stroke-width="12" style="stroke-width: 12;">
          <path d="m 0,0 h 86.723 c 4.419,0 8,-3.582 8,-8 v -112.479 c 0,-4.418 -3.581,-8 -8,-8 H 0 c -4.418,0 -8,3.582 -8,8 V -8 c 0,4.418 3.582,8 8,8 z" style="stroke-width: 12; stroke-linecap: round; stroke-linejoin: round; stroke-miterlimit: 10; stroke-dasharray: none; stroke-opacity: 1;" id="path12216" fill="none" stroke="#23303d" stroke-width="12" stroke-linecap="round" stroke-linejoin="round" stroke-miterlimit="10" stroke-dasharray="none" stroke-opacity="" data-original="#000000" class=""></path>
        </g>
        <g id="g12218" transform="translate(358.57,40.44)" stroke-width="12" style="stroke-width: 12;">
          <path d="m 0,0 v 85.54 c 0,5.52 4.48,10 10,10 h 116.86 c 5.52,0 10,-4.48 10,-10 V 0" style="stroke-width: 12; stroke-linecap: round; stroke-linejoin: round; stroke-miterlimit: 10; stroke-dasharray: none; stroke-opacity: 1;" id="path12220" fill="none" stroke="#23303d" stroke-width="12" stroke-linecap="round" stroke-linejoin="round" stroke-miterlimit="10" stroke-dasharray="none" stroke-opacity="" data-original="#000000" class=""></path>
        </g>
        <g id="g12222" transform="translate(417.11,40.44)" stroke-width="12" style="stroke-width: 12;">
          <path d="m 0,0 h 83.39 c 2.21,0 4,-1.79 4,-4 v -12.94 c 0,-8.84 -7.16,-16 -16,-16 h -123 c -8.84,0 -16,7.16 -16,16 V -4 c 0,2.21 1.79,4 4,4 L -35,0" style="stroke-width: 12; stroke-linecap: round; stroke-linejoin: round; stroke-miterlimit: 10; stroke-dasharray: none; stroke-opacity: 1;" id="path12224" fill="none" stroke="#23303d" stroke-width="12" stroke-linecap="round" stroke-linejoin="round" stroke-miterlimit="10" stroke-dasharray="none" stroke-opacity="" data-original="#000000" class=""></path>
        </g>
        <g id="g12226" transform="translate(152.5,41.2022)" stroke-width="12" style="stroke-width: 12;">
          <path d="m 0,0 h -135 c -5.523,0 -10,4.477 -10,10 v 74.777 c 0,5.522 4.477,10 10,10 H 0 c 5.523,0 10,-4.478 10,-10 V 10 C 10,4.477 5.523,0 0,0 Z" style="stroke-width: 12; stroke-linecap: round; stroke-linejoin: round; stroke-miterlimit: 10; stroke-dasharray: none; stroke-opacity: 1;" id="path12228" fill="none" stroke="#23303d" stroke-width="12" stroke-linecap="round" stroke-linejoin="round" stroke-miterlimit="10" stroke-dasharray="none" stroke-opacity="" data-original="#000000" class=""></path>
        </g>
        <g id="g12230" transform="translate(122.5319,7.5)" stroke-width="12" style="stroke-width: 12;">
          <path d="M 0,0 H -75.064" style="stroke-width: 12; stroke-linecap: round; stroke-linejoin: round; stroke-miterlimit: 10; stroke-dasharray: none; stroke-opacity: 1;" id="path12232" fill="none" stroke="#23303d" stroke-width="12" stroke-linecap="round" stroke-linejoin="round" stroke-miterlimit="10" stroke-dasharray="none" stroke-opacity="" data-original="#000000" class=""></path>
        </g>
        <g id="g12234" transform="translate(307.1702,40.4362)" stroke-width="12" style="stroke-width: 12;">
          <path d="M 0,0 H -102.34" style="stroke-width: 12; stroke-linecap: round; stroke-linejoin: round; stroke-miterlimit: 10; stroke-dasharray: none; stroke-opacity: 1;" id="path12236" fill="none" stroke="#23303d" stroke-width="12" stroke-linecap="round" stroke-linejoin="round" stroke-miterlimit="10" stroke-dasharray="none" stroke-opacity="" data-original="#000000" class=""></path>
        </g>
        <g id="g12238" transform="translate(102.5,88.5905)" stroke-width="12" style="stroke-width: 12;">
          <path d="m 0,0 c 0,-9.665 -7.835,-17.5 -17.5,-17.5 -9.665,0 -17.5,7.835 -17.5,17.5 0,9.665 7.835,17.5 17.5,17.5 C -7.835,17.5 0,9.665 0,0 Z" style="stroke-width: 12; stroke-linecap: round; stroke-linejoin: round; stroke-miterlimit: 10; stroke-dasharray: none; stroke-opacity: 1;" id="path12240" fill="none" stroke="#23303d" stroke-width="12" stroke-linecap="round" stroke-linejoin="round" stroke-miterlimit="10" stroke-dasharray="none" stroke-opacity="" data-original="#000000" class=""></path>
        </g>
        <g id="g12242" transform="translate(444.5,88.5905)" stroke-width="12" style="stroke-width: 12;">
          <path d="m 0,0 c 0,-9.665 -7.835,-17.5 -17.5,-17.5 -9.665,0 -17.5,7.835 -17.5,17.5 0,9.665 7.835,17.5 17.5,17.5 C -7.835,17.5 0,9.665 0,0 Z" style="stroke-width: 12; stroke-linecap: round; stroke-linejoin: round; stroke-miterlimit: 10; stroke-dasharray: none; stroke-opacity: 1;" id="path12244" fill="none" stroke="#23303d" stroke-width="12" stroke-linecap="round" stroke-linejoin="round" stroke-miterlimit="10" stroke-dasharray="none" stroke-opacity="" data-original="#000000" class=""></path>
        </g>
        <g id="g12246" transform="translate(256,106.09)" stroke-width="12" style="stroke-width: 12;">
          <path d="M 0,0 V 121.6" style="stroke-width: 12; stroke-linecap: round; stroke-linejoin: round; stroke-miterlimit: 10; stroke-dasharray: none; stroke-opacity: 1;" id="path12248" fill="none" stroke="#23303d" stroke-width="12" stroke-linecap="round" stroke-linejoin="round" stroke-miterlimit="10" stroke-dasharray="none" stroke-opacity="" data-original="#000000" class=""></path>
        </g>
        <g id="g12250" transform="translate(273.5,88.5905)" stroke-width="12" style="stroke-width: 12;">
          <path d="m 0,0 c 0,-9.665 -7.835,-17.5 -17.5,-17.5 -9.665,0 -17.5,7.835 -17.5,17.5 0,9.665 7.835,17.5 17.5,17.5 C -7.835,17.5 0,9.665 0,0 Z" style="stroke-width: 12; stroke-linecap: round; stroke-linejoin: round; stroke-miterlimit: 10; stroke-dasharray: none; stroke-opacity: 1;" id="path12252" fill="none" stroke="#23303d" stroke-width="12" stroke-linecap="round" stroke-linejoin="round" stroke-miterlimit="10" stroke-dasharray="none" stroke-opacity="" data-original="#000000" class=""></path>
        </g>
        <g id="g12254" transform="translate(221,227.69)" stroke-width="12" style="stroke-width: 12;">
          <path d="m 0,0 v -35.68 c 0,-6.57 -5.37,-11.9 -12,-11.9 h -112 c -6.63,0 -12,-5.32 -12,-11.89 v -62.13" style="stroke-width: 12; stroke-linecap: round; stroke-linejoin: round; stroke-miterlimit: 10; stroke-dasharray: none; stroke-opacity: 1;" id="path12256" fill="none" stroke="#23303d" stroke-width="12" stroke-linecap="round" stroke-linejoin="round" stroke-miterlimit="10" stroke-dasharray="none" stroke-opacity="" data-original="#000000" class=""></path>
        </g>
        <g id="g12258" transform="translate(291,227.69)" stroke-width="12" style="stroke-width: 12;">
          <path d="m 0,0 v -35.68 c 0,-6.57 5.37,-11.9 12,-11.9 h 112 c 6.63,0 12,-5.32 12,-11.89 v -62.13" style="stroke-width: 12; stroke-linecap: round; stroke-linejoin: round; stroke-miterlimit: 10; stroke-dasharray: none; stroke-opacity: 1;" id="path12260" fill="none" stroke="#23303d" stroke-width="12" stroke-linecap="round" stroke-linejoin="round" stroke-miterlimit="10" stroke-dasharray="none" stroke-opacity="" data-original="#000000" class=""></path>
        </g>
        <g id="g12262" transform="translate(196,285.75)" stroke-width="12" style="stroke-width: 12;">
          <path d="M 0,0 H -43" style="stroke-width: 12; stroke-linecap: round; stroke-linejoin: round; stroke-miterlimit: 10; stroke-dasharray: none; stroke-opacity: 1;" id="path12264" fill="none" stroke="#23303d" stroke-width="12" stroke-linecap="round" stroke-linejoin="round" stroke-miterlimit="10" stroke-dasharray="none" stroke-opacity="" data-original="#000000" class=""></path>
        </g>
        <g id="g12266" transform="translate(118,286.08)" stroke-width="12" style="stroke-width: 12;">
          <path d="m 0,0 c -31.78,3.25 -56.58,30.1 -56.58,62.75 0,14.24 4.72,27.36 12.68,37.92 7.95,10.55 19.15,18.52 32.11,22.44 5.8,1.75 10.1,6.75 10.9,12.76 6.17,46.59 46.03,82.55 94.3,82.55 23.48,0 44.95,-8.51 61.54,-22.6 4.63,-3.94 11.05,-4.91 16.62,-2.47 10.15,4.46 21.36,6.93 33.16,6.93 40.72,0 74.55,-29.45 81.39,-68.21 0.91,-5.14 4.26,-9.57 9.02,-11.7 22.06,-9.82 37.44,-31.92 37.44,-57.62 0,-17.42 -7.06,-33.19 -18.47,-44.6 C 302.69,6.73 286.92,-0.33 269.51,-0.33 H 198" style="stroke-width: 12; stroke-linecap: round; stroke-linejoin: round; stroke-miterlimit: 10; stroke-dasharray: none; stroke-opacity: 1;" id="path12268" fill="none" stroke="#23303d" stroke-width="12" stroke-linecap="round" stroke-linejoin="round" stroke-miterlimit="10" stroke-dasharray="none" stroke-opacity="" data-original="#000000" class=""></path>
        </g>
        <g id="g12270" transform="translate(306,227.6891)" stroke-width="12" style="stroke-width: 12;">
          <path d="m 0,0 h -100 c -5.523,0 -10,4.477 -10,10 v 100 c 0,5.523 4.477,10 10,10 H 0 c 5.523,0 10,-4.477 10,-10 V 10 C 10,4.477 5.523,0 0,0 Z" style="stroke-width: 12; stroke-linecap: round; stroke-linejoin: round; stroke-miterlimit: 10; stroke-dasharray: none; stroke-opacity: 1;" id="path12272" fill="none" stroke="#23303d" stroke-width="12" stroke-linecap="round" stroke-linejoin="round" stroke-miterlimit="10" stroke-dasharray="none" stroke-opacity="" data-original="#000000" class=""></path>
        </g>
        <g id="g12274" transform="translate(221,256.6893)" stroke-width="12" style="stroke-width: 12;">
          <path d="m 0,0 v 62 c 0,2.209 1.791,4 4,4 h 62 c 2.209,0 4,-1.791 4,-4 V 0 c 0,-2.209 -1.791,-4 -4,-4 H 4 C 1.791,-4 0,-2.209 0,0 Z" style="stroke-width: 12; stroke-linecap: round; stroke-linejoin: round; stroke-miterlimit: 10; stroke-dasharray: none; stroke-opacity: 1;" id="path12276" fill="none" stroke="#23303d" stroke-width="12" stroke-linecap="round" stroke-linejoin="round" stroke-miterlimit="10" stroke-dasharray="none" stroke-opacity="" data-original="#000000" class=""></path>
        </g>
        <g id="g12278" transform="translate(221,347.6891)" stroke-width="12" style="stroke-width: 12;">
          <path d="M 0,0 V 26.404" style="stroke-width: 12; stroke-linecap: round; stroke-linejoin: round; stroke-miterlimit: 10; stroke-dasharray: none; stroke-opacity: 1;" id="path12280" fill="none" stroke="#23303d" stroke-width="12" stroke-linecap="round" stroke-linejoin="round" stroke-miterlimit="10" stroke-dasharray="none" stroke-opacity="" data-original="#000000" class=""></path>
        </g>
        <g id="g12282" transform="translate(291,347.6891)" stroke-width="12" style="stroke-width: 12;">
          <path d="M 0,0 V 26.404" style="stroke-width: 12; stroke-linecap: round; stroke-linejoin: round; stroke-miterlimit: 10; stroke-dasharray: none; stroke-opacity: 1;" id="path12284" fill="none" stroke="#23303d" stroke-width="12" stroke-linecap="round" stroke-linejoin="round" stroke-miterlimit="10" stroke-dasharray="none" stroke-opacity="" data-original="#000000" class=""></path>
        </g>
        <g id="g12286" transform="translate(342.4043,322.6893)" stroke-width="12" style="stroke-width: 12;">
          <path d="M 0,0 H -26.404" style="stroke-width: 12; stroke-linecap: round; stroke-linejoin: round; stroke-miterlimit: 10; stroke-dasharray: none; stroke-opacity: 1;" id="path12288" fill="none" stroke="#23303d" stroke-width="12" stroke-linecap="round" stroke-linejoin="round" stroke-miterlimit="10" stroke-dasharray="none" stroke-opacity="" data-original="#000000" class=""></path>
        </g>
        <g id="g12290" transform="translate(196,322.6893)" stroke-width="12" style="stroke-width: 12;">
          <path d="M 0,0 H -26.404" style="stroke-width: 12; stroke-linecap: round; stroke-linejoin: round; stroke-miterlimit: 10; stroke-dasharray: none; stroke-opacity: 1;" id="path12292" fill="none" stroke="#23303d" stroke-width="12" stroke-linecap="round" stroke-linejoin="round" stroke-miterlimit="10" stroke-dasharray="none" stroke-opacity="" data-original="#000000" class=""></path>
        </g>
        <g id="g12294" transform="translate(256,347.6891)" stroke-width="12" style="stroke-width: 12;">
          <path d="M 0,0 V 26.404" style="stroke-width: 12; stroke-linecap: round; stroke-linejoin: round; stroke-miterlimit: 10; stroke-dasharray: none; stroke-opacity: 1;" id="path12296" fill="none" stroke="#23303d" stroke-width="12" stroke-linecap="round" stroke-linejoin="round" stroke-miterlimit="10" stroke-dasharray="none" stroke-opacity="" data-original="#000000" class=""></path>
        </g>
        <g id="g12298" transform="translate(72.5,7.98)" stroke-width="12" style="stroke-width: 12;">
          <path d="M 0,0 V 33.22" style="stroke-width: 12; stroke-linecap: round; stroke-linejoin: round; stroke-miterlimit: 10; stroke-dasharray: none; stroke-opacity: 1;" id="path12300" fill="none" stroke="#23303d" stroke-width="12" stroke-linecap="round" stroke-linejoin="round" stroke-miterlimit="10" stroke-dasharray="none" stroke-opacity="" data-original="#000000" class=""></path>
        </g>
        <g id="g12302" transform="translate(97.5,41.2)" stroke-width="12" style="stroke-width: 12;">
          <path d="M 0,0 V -33.22" style="stroke-width: 12; stroke-linecap: round; stroke-linejoin: round; stroke-miterlimit: 10; stroke-dasharray: none; stroke-opacity: 1;" id="path12304" fill="none" stroke="#23303d" stroke-width="12" stroke-linecap="round" stroke-linejoin="round" stroke-miterlimit="10" stroke-dasharray="none" stroke-opacity="" data-original="#000000" class=""></path>
        </g>
      </g>
    </g>
  </g>
</g></svg>