<svg xmlns="http://www.w3.org/2000/svg" version="1.1" xmlns:xlink="http://www.w3.org/1999/xlink" xmlns:svgjs="http://svgjs.com/svgjs" width="512" height="512" x="0" y="0" viewBox="0 0 512 512" style="enable-background:new 0 0 512 512" xml:space="preserve" class=""><g>
<g stroke-width="12" style="stroke-width: 12;">
	<g stroke-width="12" style="stroke-width: 12;">
		<g stroke-width="12" style="stroke-width: 12;">
			<path style="stroke-width: 12;" d="M403.161,250.662c0-11.133-8.99-20.158-20.124-20.158H128.997
				c-11.133,0-20.158,9.025-20.158,20.158v46.42h294.322V250.662z" fill="#e09932" data-original="#ff7e96" stroke-width="12" class=""></path>
			<path style="stroke-width: 12; stroke-linecap: round; stroke-linejoin: round; stroke-miterlimit: 10;" d="
				M403.161,250.662c0-11.133-8.99-20.158-20.124-20.158H128.997c-11.133,0-20.158,9.025-20.158,20.158v46.42h294.322V250.662z" fill="none" stroke="#23303d" stroke-width="12" stroke-linecap="round" stroke-linejoin="round" stroke-miterlimit="10" data-original="#000000" class=""></path>
		</g>
		<g stroke-width="12" style="stroke-width: 12;">
			<path style="stroke-width: 12;" d="M108.839,297.082v184.76c0,11.133,9.025,20.158,20.158,20.158h70.262V297.082H108.839z" fill="#63d9b6" data-original="#868eaf" stroke-width="12" class=""></path>
			<path style="stroke-width: 12;" d="M403.161,297.082H199.259V502h183.779c11.133,0,20.124-9.025,20.124-20.158V297.082z" fill="#edeff0" data-original="#e0e7ef" stroke-width="12" class=""></path>
		</g>
		<g stroke-width="12" style="stroke-width: 12;">
			<path style="stroke-width: 12; stroke-linecap: round; stroke-linejoin: round; stroke-miterlimit: 10;" d="
				M108.839,297.082v184.76c0,11.133,9.025,20.158,20.158,20.158h70.262V297.082H108.839z" fill="none" stroke="#23303d" stroke-width="12" stroke-linecap="round" stroke-linejoin="round" stroke-miterlimit="10" data-original="#000000" class=""></path>
			<path style="stroke-width: 12; stroke-linecap: round; stroke-linejoin: round; stroke-miterlimit: 10;" d="
				M403.161,297.082H199.259V502h183.779c11.133,0,20.124-9.025,20.124-20.158V297.082z" fill="none" stroke="#23303d" stroke-width="12" stroke-linecap="round" stroke-linejoin="round" stroke-miterlimit="10" data-original="#000000" class=""></path>
		</g>
		
			<line style="stroke-width: 12; stroke-linecap: round; stroke-linejoin: round; stroke-miterlimit: 10;" x1="147.29" y1="263.629" x2="147.29" y2="263.629" fill="none" stroke="#23303d" stroke-width="12" stroke-linecap="round" stroke-linejoin="round" stroke-miterlimit="10" data-original="#000000" class=""></line>
		
			<line style="stroke-width: 12; stroke-linecap: round; stroke-linejoin: round; stroke-miterlimit: 10;" x1="183.583" y1="263.629" x2="183.583" y2="263.629" fill="none" stroke="#23303d" stroke-width="12" stroke-linecap="round" stroke-linejoin="round" stroke-miterlimit="10" data-original="#000000" class=""></line>
		
			<line style="stroke-width: 12; stroke-linecap: round; stroke-linejoin: round; stroke-miterlimit: 10;" x1="240.707" y1="339.365" x2="321.402" y2="339.365" fill="none" stroke="#23303d" stroke-width="12" stroke-linecap="round" stroke-linejoin="round" stroke-miterlimit="10" data-original="#000000" class=""></line>
		
			<line style="stroke-width: 12; stroke-linecap: round; stroke-linejoin: round; stroke-miterlimit: 10;" x1="240.707" y1="380.251" x2="289.085" y2="380.251" fill="none" stroke="#23303d" stroke-width="12" stroke-linecap="round" stroke-linejoin="round" stroke-miterlimit="10" data-original="#000000" class=""></line>
		
			<line style="stroke-width: 12; stroke-linecap: round; stroke-linejoin: round; stroke-miterlimit: 10;" x1="331.368" y1="380.251" x2="355.617" y2="380.251" fill="none" stroke="#23303d" stroke-width="12" stroke-linecap="round" stroke-linejoin="round" stroke-miterlimit="10" data-original="#000000" class=""></line>
		
			<line style="stroke-width: 12; stroke-linecap: round; stroke-linejoin: round; stroke-miterlimit: 10;" x1="161.144" y1="339.365" x2="147.29" y2="339.365" fill="none" stroke="#23303d" stroke-width="12" stroke-linecap="round" stroke-linejoin="round" stroke-miterlimit="10" data-original="#000000" class=""></line>
		
			<line style="stroke-width: 12; stroke-linecap: round; stroke-linejoin: round; stroke-miterlimit: 10;" x1="161.144" y1="380.251" x2="147.29" y2="380.251" fill="none" stroke="#23303d" stroke-width="12" stroke-linecap="round" stroke-linejoin="round" stroke-miterlimit="10" data-original="#000000" class=""></line>
		
			<line style="stroke-width: 12; stroke-linecap: round; stroke-linejoin: round; stroke-miterlimit: 10;" x1="161.144" y1="421.138" x2="147.29" y2="421.138" fill="none" stroke="#23303d" stroke-width="12" stroke-linecap="round" stroke-linejoin="round" stroke-miterlimit="10" data-original="#000000" class=""></line>
		
			<polyline style="stroke-width: 12; stroke-linecap: round; stroke-linejoin: round; stroke-miterlimit: 10;" points="
			260.771,421.072 240.707,442.763 260.771,464.454 		" fill="none" stroke="#23303d" stroke-width="12" stroke-linecap="round" stroke-linejoin="round" stroke-miterlimit="10" data-original="#000000" class=""></polyline>
		
			<polyline style="stroke-width: 12; stroke-linecap: round; stroke-linejoin: round; stroke-miterlimit: 10;" points="
			344.429,421.072 364.493,442.763 344.429,464.454 		" fill="none" stroke="#23303d" stroke-width="12" stroke-linecap="round" stroke-linejoin="round" stroke-miterlimit="10" data-original="#000000" class=""></polyline>
		
			<line style="stroke-width: 12; stroke-linecap: round; stroke-linejoin: round; stroke-miterlimit: 10;" x1="312.863" y1="421.072" x2="292.257" y2="464.454" fill="none" stroke="#23303d" stroke-width="12" stroke-linecap="round" stroke-linejoin="round" stroke-miterlimit="10" data-original="#000000" class=""></line>
	</g>
	<path style="stroke-width: 12;" d="M502,191.26c0,55.02-44.54,101.81-98.84,105.48v-46.08c0-11.13-8.99-20.16-20.12-20.16H129
		c-11.14,0-20.16,9.03-20.16,20.16v46.32H89.72c-44.03,0-79.72-35.7-79.72-79.73s35.69-79.72,79.72-79.72c2.67,0,5.3,0.15,7.89,0.4
		C105.38,66,166.27,10,240.25,10c56.14,0,104.73,32.26,128.3,79.23c8.83-2.4,18.14-3.69,27.73-3.69
		C453.26,85.54,502,134.42,502,191.26z" fill="#ffffff" data-original="#f9f5f3" class="" stroke-width="12"></path>
	<path style="stroke-width: 12; stroke-linecap: round; stroke-linejoin: round; stroke-miterlimit: 10;" d="
		M492.015,147.523c-17.11-36.05-54.234-61.983-95.735-61.983c-9.59,0-18.9,1.29-27.73,3.69C344.98,42.26,296.39,10,240.25,10
		c-73.98,0-134.87,56-142.64,127.93c-2.59-0.25-5.22-0.4-7.89-0.4c-44.03,0-79.72,35.69-79.72,79.72s35.69,79.73,79.72,79.73h19.12
		v-46.32c0-11.13,9.02-20.16,20.16-20.16h254.04c11.13,0,20.12,9.03,20.12,20.16v46.08c39.597-2.676,73.998-28.285,89.728-63.292" fill="none" stroke="#23303d" stroke-width="12" stroke-linecap="round" stroke-linejoin="round" stroke-miterlimit="10" data-original="#000000" class=""></path>
	<g stroke-width="12" style="stroke-width: 12;">
		<path style="stroke-width: 12;" d="M349.274,192.079c0,13.702-2.951,26.706-8.251,38.423H170.978
			c-5.3-11.717-8.251-24.721-8.251-38.423c0-51.503,41.76-93.263,93.274-93.263S349.274,140.576,349.274,192.079z" fill="#2470a9" data-original="#a0c8ff" stroke-width="12" class=""></path>
		<circle style="stroke-width: 12;" cx="256" cy="207.063" r="23.441" fill="#63d9b6" data-original="#868eaf" stroke-width="12" class=""></circle>
		<path style="stroke-width: 12; stroke-linecap: round; stroke-linejoin: round; stroke-miterlimit: 10;" d="
			M349.274,192.079c0,13.702-2.951,26.706-8.251,38.423H170.978c-5.3-11.717-8.251-24.721-8.251-38.423
			c0-51.503,41.76-93.263,93.274-93.263S349.274,140.576,349.274,192.079z" fill="none" stroke="#23303d" stroke-width="12" stroke-linecap="round" stroke-linejoin="round" stroke-miterlimit="10" data-original="#000000" class=""></path>
		
			<circle style="stroke-width: 12; stroke-linecap: round; stroke-linejoin: round; stroke-miterlimit: 10;" cx="256" cy="207.063" r="23.441" fill="none" stroke="#23303d" stroke-width="12" stroke-linecap="round" stroke-linejoin="round" stroke-miterlimit="10" data-original="#000000" class=""></circle>
		
			<line style="stroke-width: 12; stroke-linecap: round; stroke-linejoin: round; stroke-miterlimit: 10;" x1="286.758" y1="153.477" x2="267.321" y2="186.531" fill="none" stroke="#23303d" stroke-width="12" stroke-linecap="round" stroke-linejoin="round" stroke-miterlimit="10" data-original="#000000" class=""></line>
	</g>
	
		<line style="stroke-width: 12; stroke-linecap: round; stroke-linejoin: round; stroke-miterlimit: 10;" x1="502" y1="191.26" x2="502" y2="191.26" fill="none" stroke="#23303d" stroke-width="12" stroke-linecap="round" stroke-linejoin="round" stroke-miterlimit="10" data-original="#000000" class=""></line>
</g>















</g></svg>