<svg xmlns="http://www.w3.org/2000/svg" version="1.1" xmlns:xlink="http://www.w3.org/1999/xlink" xmlns:svgjs="http://svgjs.com/svgjs" width="512" height="512" x="0" y="0" viewBox="0 0 512 512" style="enable-background:new 0 0 512 512" xml:space="preserve" class=""><g><path d="M287.071 196.634h-55.906l8.015-31.728 19.938-14.295 19.938 14.295z" style="" fill="#4c5152" data-original="#465a61" class=""></path><path d="M324.78 164.906H187.22c-16.131 0-29.208-13.077-29.208-29.208V36.984c0-16.131 13.077-29.208 29.208-29.208h137.56c16.131 0 29.208 13.077 29.208 29.208v98.713c0 16.132-13.077 29.209-29.208 29.209z" style="" fill="#4c5152" data-original="#596c76" class=""></path><path d="M221.952 164.907h-34.73c-16.13 0-29.21-13.07-29.21-29.21v-98.71c0-16.13 13.08-29.21 29.21-29.21h34.73c-16.13 0-29.21 13.08-29.21 29.21v98.71c0 16.14 13.08 29.21 29.21 29.21z" style="" fill="#4c5152" data-original="#465a61" class=""></path><path d="M158.01 83.259v52.44c0 16.13 13.08 29.21 29.21 29.21h137.56c16.13 0 29.21-13.08 29.21-29.21v-98.71c0-16.14-13.08-29.21-29.21-29.21H187.22c-16.13 0-29.21 13.07-29.21 29.21v11.27" style="stroke-width:15;stroke-linecap:round;stroke-linejoin:round;stroke-miterlimit:10;" fill="none" stroke="#23303d" stroke-width="15" stroke-linecap="round" stroke-linejoin="round" stroke-miterlimit="10" data-original="#000000" class=""></path><path d="M188.012 124.481V48.2c0-5.757 4.667-10.424 10.424-10.424h115.128c5.757 0 10.424 4.667 10.424 10.424v76.281c0 5.757-4.667 10.424-10.424 10.424H198.436c-5.757.001-10.424-4.666-10.424-10.424z" style="" fill="#2470a9" data-original="#ffe177" class=""></path><path d="M188.012 124.481V48.2c0-5.757 4.667-10.424 10.424-10.424h115.128c5.757 0 10.424 4.667 10.424 10.424v76.281c0 5.757-4.667 10.424-10.424 10.424H198.436c-5.757.001-10.424-4.666-10.424-10.424zM287.071 196.634h-55.906l8.015-31.728h39.876zM207.447 196.634h103.341" style="stroke-width:15;stroke-linecap:round;stroke-linejoin:round;stroke-miterlimit:10;" fill="none" stroke="#23303d" stroke-width="15" stroke-linecap="round" stroke-linejoin="round" stroke-miterlimit="10" data-original="#000000" class=""></path><path d="M136.559 504.221H80.653l8.015-31.728 19.938-14.295 19.939 14.295z" style="" fill="#4c5152" data-original="#465a61" class=""></path><path d="M174.268 472.493H36.708c-16.131 0-29.208-13.077-29.208-29.208v-98.713c0-16.131 13.077-29.208 29.208-29.208h137.56c16.131 0 29.208 13.077 29.208 29.208v98.713c.001 16.131-13.076 29.208-29.208 29.208z" style="" fill="#4c5152" data-original="#596c76" class=""></path><path d="M71.44 472.494H36.71c-16.13 0-29.21-13.07-29.21-29.21v-98.71c0-16.13 13.08-29.21 29.21-29.21h34.73c-16.13 0-29.21 13.08-29.21 29.21v98.71c0 16.14 13.08 29.21 29.21 29.21z" style="" fill="#4c5152" data-original="#465a61" class=""></path><path d="M54.21 472.489h120.06c16.13 0 29.21-13.07 29.21-29.2v-98.72c0-16.13-13.08-29.21-29.21-29.21H36.71c-16.13 0-29.21 13.08-29.21 29.21v98.72c0 9.92 4.95 18.69 12.52 23.95" style="stroke-width:15;stroke-linecap:round;stroke-linejoin:round;stroke-miterlimit:10;" fill="none" stroke="#23303d" stroke-width="15" stroke-linecap="round" stroke-linejoin="round" stroke-miterlimit="10" data-original="#000000" class=""></path><path d="M37.5 432.068v-76.281c0-5.757 4.667-10.424 10.424-10.424h115.128c5.757 0 10.424 4.667 10.424 10.424v76.281c0 5.757-4.667 10.424-10.424 10.424H47.924c-5.757.001-10.424-4.666-10.424-10.424z" style="" fill="#e09932" data-original="#fe646f" class=""></path><path d="M37.5 432.068v-76.281c0-5.757 4.667-10.424 10.424-10.424h115.128c5.757 0 10.424 4.667 10.424 10.424v76.281c0 5.757-4.667 10.424-10.424 10.424H47.924c-5.757.001-10.424-4.666-10.424-10.424zM136.559 504.221H80.653l8.015-31.728h39.877zM56.936 504.221h103.341" style="stroke-width:15;stroke-linecap:round;stroke-linejoin:round;stroke-miterlimit:10;" fill="none" stroke="#23303d" stroke-width="15" stroke-linecap="round" stroke-linejoin="round" stroke-miterlimit="10" data-original="#000000" class=""></path><path d="M437.582 504.221h-55.905l8.014-31.728 19.939-14.295 19.938 14.295z" style="" fill="#4c5152" data-original="#465a61" class=""></path><path d="M475.292 472.493h-137.56c-16.131 0-29.208-13.077-29.208-29.208v-98.713c0-16.131 13.077-29.208 29.208-29.208h137.56c16.131 0 29.208 13.077 29.208 29.208v98.713c0 16.131-13.077 29.208-29.208 29.208z" style="" fill="#4c5152" data-original="#596c76" class=""></path><path d="M372.463 472.494h-34.73c-16.13 0-29.21-13.07-29.21-29.21v-98.71c0-16.13 13.08-29.21 29.21-29.21h34.73c-16.13 0-29.21 13.08-29.21 29.21v98.71c0 16.14 13.08 29.21 29.21 29.21z" style="" fill="#4c5152" data-original="#465a61" class=""></path><path d="M475.292 472.493h-137.56c-16.131 0-29.208-13.077-29.208-29.208v-98.713c0-16.131 13.077-29.208 29.208-29.208h137.56c16.131 0 29.208 13.077 29.208 29.208v98.713c0 16.131-13.077 29.208-29.208 29.208z" style="stroke-width:15;stroke-linecap:round;stroke-linejoin:round;stroke-miterlimit:10;" fill="none" stroke="#23303d" stroke-width="15" stroke-linecap="round" stroke-linejoin="round" stroke-miterlimit="10" data-original="#000000" class=""></path><path d="M338.523 432.068v-76.281c0-5.757 4.667-10.424 10.424-10.424h115.128c5.757 0 10.424 4.667 10.424 10.424v76.281c0 5.757-4.667 10.424-10.424 10.424H348.948c-5.758.001-10.425-4.666-10.425-10.424z" style="" fill="#63d9b6" data-original="#9be69d" class=""></path><path d="M455.08 345.359h9c5.75 0 10.42 4.67 10.42 10.43v76.28c0 5.76-4.67 10.42-10.42 10.42H348.95c-5.76 0-10.43-4.66-10.43-10.42v-76.28c0-5.76 4.67-10.43 10.43-10.43h71.13M437.582 504.221h-55.905l8.014-31.728h39.877zM357.959 504.221H461.3M259.12 242.046v-45.41" style="stroke-width:15;stroke-linecap:round;stroke-linejoin:round;stroke-miterlimit:10;" fill="none" stroke="#23303d" stroke-width="15" stroke-linecap="round" stroke-linejoin="round" stroke-miterlimit="10" data-original="#000000" class=""></path><path d="M281.378 242.047h-44.52c-5.629 0-10.193 4.563-10.193 10.193v18.072c0 5.629 4.563 10.193 10.193 10.193h44.52c5.629 0 10.193-4.563 10.193-10.193V252.24c0-5.629-4.564-10.193-10.193-10.193z" style="" fill="#e38082" data-original="#03bed7" class=""></path><path d="M281.378 242.047h-44.52c-5.629 0-10.193 4.563-10.193 10.193v18.072c0 5.629 4.563 10.193 10.193 10.193h44.52c5.629 0 10.193-4.563 10.193-10.193V252.24c0-5.629-4.564-10.193-10.193-10.193z" style="stroke-width:15;stroke-linecap:round;stroke-linejoin:round;stroke-miterlimit:10;" fill="none" stroke="#23303d" stroke-width="15" stroke-linecap="round" stroke-linejoin="round" stroke-miterlimit="10" data-original="#000000" class=""></path><path d="M291.57 261.276h104.063c6.007 0 10.877 4.87 10.877 10.877v43.213M111.72 315.366v-43.213c0-6.007 4.87-10.877 10.877-10.877H226.67" style="stroke-width:15;stroke-linecap:round;stroke-linejoin:round;stroke-miterlimit:10;" fill="none" stroke="#23303d" stroke-width="15" stroke-linecap="round" stroke-linejoin="round" stroke-miterlimit="10" data-original="#000000" class=""></path></g></svg>