<svg xmlns="http://www.w3.org/2000/svg" version="1.1" xmlns:xlink="http://www.w3.org/1999/xlink" xmlns:svgjs="http://svgjs.com/svgjs" width="512" height="512" x="0" y="0" viewBox="0 0 64 64" style="enable-background:new 0 0 512 512" xml:space="preserve" class=""><g><g><g><g><path d="m62 54v8h-14v-4-4z" fill="#2470a9" data-original="#fcd770" class=""></path></g><g><path d="m58 36v8h-10v-4-4z" fill="#2470a9" data-original="#fcd770" class=""></path></g><g><path d="m57 20c2.76 0 5 2.24 5 5s-2.24 5-5 5h-19-10.2c-1.82-3.56-5.52-6-9.8-6-1.34 0-2.62.24-3.8.68v-.01c-.13-.53-.2-1.09-.2-1.67 0-3.87 3.13-7 7-7 0-6.63 5.37-12 12-12 1.68 0 3.27.35 4.71.97l.01.01-.79.78.66 1.42c-.04.09-.07.19-.11.28l-1.48.54v4l1.48.54c.04.09.07.19.11.28l-.66 1.42 2.83 2.83 1.42-.66c.09.04.19.07.28.11l.54 1.48h4l.54-1.48c.09-.04.19-.07.28-.11l1.42.66 2.83-2.83-.66-1.42c.04-.09.07-.19.11-.28l1.48-.54v-1.05c2.96 1.47 5 4.52 5 8.05 0 .34-.02.68-.06 1.01.02 0 .04-.01.06-.01z" fill="#edeff0" data-original="#e6e9ed" class=""></path></g><g><path d="m52 10.95v1.05l-1.48.54c-.04.09-.07.19-.11.28l.66 1.42-2.83 2.83-1.42-.66c-.09.04-.19.07-.28.11l-.54 1.48h-4l-.54-1.48c-.09-.04-.19-.07-.28-.11l-1.42.66-2.83-2.83.66-1.42c-.04-.09-.07-.19-.11-.28l-1.48-.54v-4l1.48-.54c.04-.09.07-.19.11-.28l-.66-1.42.79-.78 2.04-2.05 1.42.66c.09-.04.19-.07.28-.11l.54-1.48h4l.54 1.48c.09.04.19.07.28.11l1.42-.66 2.83 2.83-.66 1.42c.04.09.07.19.11.28l1.48.54zm-4-.95c0-2.21-1.79-4-4-4s-4 1.79-4 4 1.79 4 4 4 4-1.79 4-4z" fill="#2470a9" data-original="#fcd770" class=""></path></g><g><circle cx="50" cy="24" fill="#e38082" r="2" data-original="#ff826e" class=""></circle></g><g><circle cx="42" cy="24" fill="#e38082" r="2" data-original="#ff826e" class=""></circle></g><g><circle cx="34" cy="24" fill="#e38082" r="2" data-original="#ff826e" class=""></circle></g><g><path d="m31.62 51c.01-.01.01-.01.01 0 1.46 1.1 2.37 2.85 2.37 4.77v6.23h-6-9l2-8 1.42-5.68c.04.02.09.03.13.04l6.8 1.57c.85.19 1.61.56 2.27 1.07z" fill="#63d9b6" data-original="#b4dd7f" class=""></path></g><g><path d="m33 48c0 1.2-.53 2.25-1.37 3 0-.01 0-.01-.01 0-.66-.51-1.42-.88-2.27-1.07l-6.8-1.57c-.04-.01-.09-.02-.13-.04-.84-.25-1.42-1.03-1.42-1.91v-.86l-.2-.26c.89-.73 1.66-1.59 2.29-2.55 1.22-1.85 1.91-4.05 1.91-6.36 0-.76-.62-1.38-1.38-1.38h-3.38c-1.36 0-2.68-.27-3.92-.78-1.23-.51-2.36-1.26-3.32-2.22-1.23.61-2 1.87-2 3.24v1.14c0 3.5 1.58 6.75 4.2 8.91l-.2.26v.86c0 .88-.58 1.66-1.42 1.91-.04.02-.09.03-.13.04l-6.8 1.57c-.85.19-1.61.56-2.27 1.07-.01-.01-.01-.01-.01 0-.84-.75-1.37-1.8-1.37-3 0-1.26.58-2.39 1.5-3.12 1.5-1.21 2.5-2.94 2.5-4.87v-5.01c0-3.04 1.23-5.79 3.22-7.78 1.11-1.11 2.47-1.99 3.98-2.54 1.18-.44 2.46-.68 3.8-.68 4.28 0 7.98 2.44 9.8 6 .77 1.5 1.2 3.2 1.2 5v5.01c0 1.93 1 3.66 2.5 4.87.92.73 1.5 1.86 1.5 3.12z" fill="#e09932" data-original="#656d78" class=""></path></g><g><path d="m23.62 35c.76 0 1.38.62 1.38 1.38 0 2.31-.69 4.51-1.91 6.36-.63.96-1.4 1.82-2.29 2.55-.84.69-1.78 1.27-2.8 1.71-1.02-.44-1.96-1.02-2.8-1.71-2.62-2.16-4.2-5.41-4.2-8.91v-1.14c0-1.37.77-2.63 2-3.24.96.96 2.09 1.71 3.32 2.22 1.24.51 2.56.78 3.92.78z" fill="#ffffff" data-original="#f0d0b4" class=""></path></g><g><path d="m22.42 48.32-1.42 5.68h-6l-1.42-5.68c.84-.25 1.42-1.03 1.42-1.91v-.86l.2-.26c.84.69 1.78 1.27 2.8 1.71 1.02-.44 1.96-1.02 2.8-1.71l.2.26v.86c0 .88.58 1.66 1.42 1.91z" fill="#ffffff" data-original="#f0d0b4" class=""></path></g><g><path d="m21 54-2 8h-2l-2-8z" fill="#2470a9" data-original="#ffeaa7" class=""></path></g><g><path d="m4.38 51c.66-.51 1.42-.88 2.27-1.07l6.8-1.57c.04-.01.09-.02.13-.04l1.42 5.68 2 8h-9-6v-6.23c0-1.92.91-3.67 2.37-4.77 0-.01 0-.01.01 0z" fill="#63d9b6" data-original="#b4dd7f" class=""></path></g></g><g><path d="m44 15c2.757 0 5-2.243 5-5s-2.243-5-5-5-5 2.243-5 5 2.243 5 5 5zm0-8c1.654 0 3 1.346 3 3s-1.346 3-3 3-3-1.346-3-3 1.346-3 3-3z" fill="#23303d" data-original="#000000" class=""></path><path d="m47 57h-3c-.552 0-1-.449-1-1v-15h4v4h12v-10h-12v4h-7c-.552 0-1-.449-1-1v-7h18c3.309 0 6-2.691 6-6 0-2.968-2.166-5.439-5-5.917 0-.028 0-.056 0-.083 0-3.598-1.909-6.834-5-8.623v-3.078l-1.321-.48.596-1.273-3.82-3.82-1.273.595-.481-1.321h-5.402l-.479 1.321-1.273-.595-2.087 2.086c-1.435-.528-2.929-.812-4.46-.812-6.852 0-12.482 5.328-12.966 12.058-3.958.479-7.034 3.858-7.034 7.942 0 .358.029.714.077 1.068-4.166 1.884-7.077 6.071-7.077 10.932v5.01c0 1.514-.775 3.004-2.128 4.089-1.189.955-1.872 2.377-1.872 3.901 0 1.057.346 2.08.968 2.928-1.221 1.267-1.968 2.971-1.968 4.845v7.227h34v-7.227c0-1.874-.747-3.578-1.968-4.845.622-.848.968-1.871.968-2.928 0-1.524-.683-2.946-1.872-3.901-1.353-1.085-2.128-2.576-2.128-4.089v-5.01c0-1.404-.255-2.747-.7-4h7.7v7c0 1.654 1.346 3 3 3h1v15c0 1.654 1.346 3 3 3h3v4h16v-10h-16zm2-20h8v6h-8zm-9.03-32.869 1.201.562 1.077-.447.453-1.246h2.598l.3.823.212.447 1.019.423 1.201-.562 1.838 1.837-.56 1.198.445 1.081 1.246.454v2.599l-.823.299-.443.204-.425 1.031.56 1.198-1.838 1.837-1.201-.562-1.077.447-.454 1.246h-2.598l-.3-.823-.212-.447-1.019-.423-1.201.562-1.838-1.837.56-1.198-.445-1.081-1.246-.454v-2.598l.823-.299.443-.204.425-1.031-.56-1.198zm-36.97 51.642c0-2.342 1.594-4.345 3.875-4.872l5.976-1.379 2.869 11.478h-6.72v-6h-2v6h-4zm15-9.871c-3.659-1.747-6-5.437-6-9.518v-1.148c0-.771.331-1.481.893-1.97 2.041 1.769 4.621 2.734 7.349 2.734h3.378c.21 0 .38.17.38.384 0 4.082-2.341 7.771-6 9.518zm-.394 2.017.394.169.394-.169c.588-.252 1.149-.546 1.681-.876.157.736.582 1.373 1.185 1.802l-1.04 4.155h-4.439l-1.039-4.156c.602-.429 1.026-1.065 1.184-1.801.532.33 1.093.624 1.68.876zm2.114 7.081-1.5 6h-.44l-1.5-6zm13.28 6h-4v-6h-2v6h-6.72l2.87-11.477 5.975 1.379c2.281.526 3.875 2.529 3.875 4.871zm-2.124-15.341c.714.573 1.124 1.426 1.124 2.341 0 .62-.197 1.203-.552 1.7-.578-.326-1.198-.592-1.874-.748l-6.8-1.569c-.456-.105-.774-.506-.774-.974v-.844c2.505-2.331 4-5.63 4-9.185 0-1.313-1.067-2.38-2.38-2.38h-3.378c-2.469 0-4.789-.961-6.535-2.707l-.51-.51-.645.322c-1.573.788-2.552 2.371-2.552 4.131v1.148c0 3.552 1.495 6.85 4 9.181v.844c0 .468-.318.869-.774.974l-6.8 1.569c-.676.157-1.296.423-1.874.748-.355-.497-.552-1.08-.552-1.7 0-.915.41-1.768 1.124-2.341 1.828-1.467 2.876-3.526 2.876-5.649v-5.01c0-5.514 4.486-10 10-10s10 4.486 10 10v5.01c0 2.123 1.048 4.182 2.876 5.649zm-12.876-22.659c-1.029 0-2.023.144-2.977.389-.008-.13-.023-.259-.023-.389 0-3.309 2.691-6 6-6h1v-1c0-6.065 4.935-11 11-11 .977 0 1.937.142 2.873.399l-.147.147.596 1.273-1.322.48v5.401l1.321.48-.596 1.273 3.82 3.82 1.273-.595.481 1.322h5.402l.479-1.321 1.273.595 3.82-3.82-.596-1.273 1.248-.453c1.92 1.497 3.075 3.775 3.075 6.272 0 .303-.021.601-.054.895l-.124 1.111h1.118l.121-.006c2.177.033 3.939 1.815 3.939 4 0 2.206-1.794 4-4 4h-28.624c-2.078-3.581-5.946-6-10.376-6zm31 32h12v6h-12z" fill="#23303d" data-original="#000000" class=""></path><path d="m34 21c-1.654 0-3 1.346-3 3s1.346 3 3 3 3-1.346 3-3-1.346-3-3-3zm0 4c-.552 0-1-.449-1-1s.448-1 1-1 1 .449 1 1-.448 1-1 1z" fill="#23303d" data-original="#000000" class=""></path><path d="m42 21c-1.654 0-3 1.346-3 3s1.346 3 3 3 3-1.346 3-3-1.346-3-3-3zm0 4c-.552 0-1-.449-1-1s.448-1 1-1 1 .449 1 1-.448 1-1 1z" fill="#23303d" data-original="#000000" class=""></path><path d="m50 21c-1.654 0-3 1.346-3 3s1.346 3 3 3 3-1.346 3-3-1.346-3-3-3zm0 4c-.552 0-1-.449-1-1s.448-1 1-1 1 .449 1 1-.448 1-1 1z" fill="#23303d" data-original="#000000" class=""></path></g></g></g></svg>