<svg id="Layer_1" data-name="Layer 1" xmlns="http://www.w3.org/2000/svg" viewBox="0 0 100 100">
  <defs>
    <style>
      .consulting-cls-1,
      .consulting-cls-4 {
        fill: #edeff0;
      }

      .consulting-cls-2,
      .consulting-cls-5 {
        fill: #fff;
      }

      .consulting-cls-3,
      .consulting-cls-6 {
        fill: none;
      }

      .consulting-cls-3,
      .consulting-cls-4,
      .consulting-cls-5 {
        stroke: #2470a9;
      }

      .consulting-cls-3,
      .consulting-cls-4,
      .consulting-cls-5,
      .consulting-cls-6 {
        stroke-linecap: round;
        stroke-linejoin: round;
        stroke-width: 0.75px;
      }

      .consulting-cls-6 {
        stroke: #ff7680;
      }

    </style>
  </defs>
  <title>1. Consulting</title>
  <path class="consulting-cls-1" d="M77.16,75.05H22.84V43a9.16,9.16,0,0,1,7.85-9.06l19.15-2.78,19.45,2.79A9.16,9.16,0,0,1,77.16,43Z" />
  <path class="consulting-cls-2" d="M69.41,75.05H30.59V43c0-4.55,2.39-8.41,5.61-9.06l13.68-2.78,13.91,2.79c3.22.64,5.62,4.51,5.62,9.06Z" />
  <path class="consulting-cls-3" d="M77.16,75.05H22.84V43a9.16,9.16,0,0,1,7.85-9.06l19.15-2.78,19.45,2.79A9.16,9.16,0,0,1,77.16,43Z" />
  <rect class="consulting-cls-4" x="35.76" y="24.95" width="28.48" height="8.81" />
  <polygon class="consulting-cls-5" points="46.26 40.33 35.76 33.76 35.76 24.95 50 33.86 46.26 40.33" />
  <polygon class="consulting-cls-5" points="53.74 40.33 64.24 33.76 64.24 24.95 50 33.86 53.74 40.33" />
  <line class="consulting-cls-5" x1="50" y1="43.91" x2="50" y2="75.05" />
  <circle class="consulting-cls-5" cx="55.24" cy="54.32" r="1.59" />
  <circle class="consulting-cls-5" cx="55.24" cy="60.72" r="1.59" />
  <circle class="consulting-cls-5" cx="55.24" cy="67.12" r="1.59" />
  <path class="consulting-cls-2" d="M53.47,42l8,3.38a4.13,4.13,0,0,0,5.35-2,10.49,10.49,0,0,0,1.15-4.41,10.54,10.54,0,0,0-1.15-4.42,4.13,4.13,0,0,0-5.35-2l-8,3.38Z" />
  <path class="consulting-cls-1" d="M61.44,45.37a4.13,4.13,0,0,0,5.35-2,10.49,10.49,0,0,0,1.15-4.41,10.54,10.54,0,0,0-1.15-4.42,4,4,0,0,0-1.43-1.64c0,.1-1.46,8.92-11.89,7.49V42Z" />
  <path class="consulting-cls-6" d="M53.47,42l8,3.38a4.13,4.13,0,0,0,5.35-2,10.49,10.49,0,0,0,1.15-4.41,10.54,10.54,0,0,0-1.15-4.42,4.13,4.13,0,0,0-5.35-2l-8,3.38Z" />
  <line class="consulting-cls-6" x1="54.51" y1="38.94" x2="57.02" y2="38.94" />
  <path class="consulting-cls-2" d="M46.53,42l-8,3.38a4.13,4.13,0,0,1-5.35-2,10.49,10.49,0,0,1-1.15-4.41,10.54,10.54,0,0,1,1.15-4.42,4.13,4.13,0,0,1,5.35-2l8,3.38Z" />
  <path class="consulting-cls-1" d="M38.56,45.37a4.13,4.13,0,0,1-5.35-2,10.49,10.49,0,0,1-1.15-4.41,10.54,10.54,0,0,1,1.15-4.42,4,4,0,0,1,1.43-1.64c0,.1,1.46,8.92,11.89,7.49V42Z" />
  <path class="consulting-cls-6" d="M46.53,42l-8,3.38a4.13,4.13,0,0,1-5.35-2,10.49,10.49,0,0,1-1.15-4.41,10.54,10.54,0,0,1,1.15-4.42,4.13,4.13,0,0,1,5.35-2l8,3.38Z" />
  <line class="consulting-cls-6" x1="45.49" y1="38.94" x2="42.98" y2="38.94" />
  <rect class="consulting-cls-2" x="45.49" y="34.43" width="9.01" height="9.01" rx="4.21" ry="4.21" />
  <path class="consulting-cls-1" d="M50.29,40.76h-.58a4.2,4.2,0,0,1-4.07-3.17,4.1,4.1,0,0,0-.15,1v.59a4.21,4.21,0,0,0,4.22,4.21h.58a4.21,4.21,0,0,0,4.22-4.21v-.59a4.1,4.1,0,0,0-.15-1A4.2,4.2,0,0,1,50.29,40.76Z" />
  <rect class="consulting-cls-6" x="45.49" y="34.43" width="9.01" height="9.01" rx="4.21" ry="4.21" />
  <path class="consulting-cls-5" d="M30.59,51H41.94a0,0,0,0,1,0,0v5.67a5.67,5.67,0,0,1-5.67,5.67h0a5.67,5.67,0,0,1-5.67-5.67V51a0,0,0,0,1,0,0Z" />
</svg>
