<svg xmlns="http://www.w3.org/2000/svg" version="1.1" xmlns:xlink="http://www.w3.org/1999/xlink" xmlns:svgjs="http://svgjs.com/svgjs" width="512" height="512" x="0" y="0" viewBox="0 0 682.66669 682.66669" style="enable-background:new 0 0 512 512" xml:space="preserve" class=""><g><defs id="defs13"><clipPath clipPathUnits="userSpaceOnUse" id="clipPath35"><path d="M 0,512 H 512 V 0 H 0 Z" id="path33" fill="#2470a9" data-original="#000000" class=""></path></clipPath></defs><g id="g15" transform="matrix(1.3333333,0,0,-1.3333333,0,682.66667)"><g id="g17" transform="translate(119.5229,338.6992)"><path d="M 0,0 136.481,-82.203 272.963,0 136.481,82.231 Z" style="fill-opacity:1;fill-rule:evenodd;stroke:none" id="path19" fill="#63d9b6" data-original="#beece1" class=""></path></g><g id="g21" transform="translate(119.5229,177.978)"><path d="M 0,0 136.481,-82.203 V -4.677 78.518 L 0,160.721 Z" style="fill-opacity:1;fill-rule:evenodd;stroke:none" id="path23" fill="#63d9b6" data-original="#7dd9c2" class=""></path></g><g id="g25" transform="translate(256.0044,173.3008)"><path d="M 0,0 V -77.526 L 136.482,4.677 V 165.398 L 0,83.195 Z" style="fill-opacity:1;fill-rule:evenodd;stroke:none" id="path27" fill="#63d9b6" data-original="#7dd9c2" class=""></path></g><g id="g29"><g id="g31" clip-path="url(#clipPath35)"><g id="g37" transform="translate(27.8828,363.9272)"><path d="M 0,0 C 8.305,-13.748 26.134,-18.17 39.882,-9.865 44.077,-7.342 47.393,-3.912 49.774,0 55.131,8.929 55.5,20.466 49.746,29.99 41.469,43.738 23.611,48.16 9.864,39.854 -3.855,31.577 -8.277,13.719 0,0" style="fill-opacity:1;fill-rule:evenodd;stroke:none" id="path39" fill="#e09932" data-original="#bfdbff" class=""></path></g><g id="g41" transform="translate(37.7471,112.9238)"><path d="m 0,0 c 13.747,-8.305 31.605,-3.883 39.881,9.865 5.755,9.524 5.386,21.061 0.029,29.989 -2.381,3.912 -5.698,7.342 -9.892,9.865 C 16.27,58.024 -1.559,53.603 -9.864,39.854 -18.141,26.135 -13.719,8.277 0,0" style="fill-opacity:1;fill-rule:evenodd;stroke:none" id="path43" fill="#e09932" data-original="#bfdbff" class=""></path></g><g id="g45" transform="translate(444.2446,354.0625)"><path d="M 0,0 C 13.719,-8.305 31.577,-3.883 39.854,9.865 48.159,23.584 43.737,41.442 29.989,49.719 16.27,58.024 -1.587,53.603 -9.864,39.854 -15.618,30.331 -15.25,18.793 -9.893,9.865 -7.54,5.953 -4.195,2.523 0,0" style="fill-opacity:1;fill-rule:evenodd;stroke:none" id="path47" fill="#e09932" data-original="#bfdbff" class=""></path></g><g id="g49" transform="translate(434.3804,122.7886)"><path d="M 0,0 C 8.277,-13.748 26.134,-18.17 39.854,-9.865 53.601,-1.587 58.023,16.271 49.718,29.99 41.441,43.738 23.583,48.16 9.864,39.854 5.669,37.332 2.325,33.901 -0.028,29.99 -5.385,21.061 -5.754,9.524 0,0" style="fill-opacity:1;fill-rule:evenodd;stroke:none" id="path51" fill="#e09932" data-original="#bfdbff" class=""></path></g><g id="g53" transform="translate(119.5229,303.2666)"><path d="M 0,0 V 35.433 L 136.481,-46.771 272.963,35.433 V -125.289 L 136.481,-207.492 0,-125.289 v 35.461" style="stroke-width:20;stroke-linecap:round;stroke-linejoin:round;stroke-miterlimit:10;stroke-dasharray:none;stroke-opacity:1" id="path55" fill="none" stroke="#2470a9" stroke-width="20" stroke-linecap="round" stroke-linejoin="round" stroke-miterlimit="10" stroke-dasharray="none" stroke-opacity="" data-original="#000000" class=""></path></g><g id="g57" transform="translate(119.5229,338.6992)"><path d="M 0,0 136.481,82.231 272.963,0" style="stroke-width:20;stroke-linecap:round;stroke-linejoin:round;stroke-miterlimit:10;stroke-dasharray:none;stroke-opacity:1" id="path59" fill="none" stroke="#2470a9" stroke-width="20" stroke-linecap="round" stroke-linejoin="round" stroke-miterlimit="10" stroke-dasharray="none" stroke-opacity="" data-original="#000000" class=""></path></g><g id="g61" transform="translate(256.0044,256.4961)"><path d="M 0,0 V -160.721" style="stroke-width:20;stroke-linecap:round;stroke-linejoin:round;stroke-miterlimit:10;stroke-dasharray:none;stroke-opacity:1" id="path63" fill="none" stroke="#2470a9" stroke-width="20" stroke-linecap="round" stroke-linejoin="round" stroke-miterlimit="10" stroke-dasharray="none" stroke-opacity="" data-original="#000000" class=""></path></g><g id="g65" transform="translate(392.4863,338.6992)"><path d="M 0,0 41.866,25.228" style="stroke-width:20;stroke-linecap:round;stroke-linejoin:round;stroke-miterlimit:10;stroke-dasharray:none;stroke-opacity:1" id="path67" fill="none" stroke="#2470a9" stroke-width="20" stroke-linecap="round" stroke-linejoin="round" stroke-miterlimit="10" stroke-dasharray="none" stroke-opacity="" data-original="#000000" class=""></path></g><g id="g69" transform="translate(444.2446,354.0625)"><path d="M 0,0 C 13.719,-8.305 31.577,-3.883 39.854,9.865 48.159,23.584 43.737,41.442 29.989,49.719 16.27,58.024 -1.587,53.603 -9.864,39.854 -18.169,26.135 -13.747,8.277 0,0 Z" style="stroke-width:20;stroke-linecap:round;stroke-linejoin:round;stroke-miterlimit:10;stroke-dasharray:none;stroke-opacity:1" id="path71" fill="none" stroke="#2470a9" stroke-width="20" stroke-linecap="round" stroke-linejoin="round" stroke-miterlimit="10" stroke-dasharray="none" stroke-opacity="" data-original="#000000" class=""></path></g><g id="g73" transform="translate(119.5229,338.6992)"><path d="M 0,0 -41.866,25.228" style="stroke-width:20;stroke-linecap:round;stroke-linejoin:round;stroke-miterlimit:10;stroke-dasharray:none;stroke-opacity:1" id="path75" fill="none" stroke="#2470a9" stroke-width="20" stroke-linecap="round" stroke-linejoin="round" stroke-miterlimit="10" stroke-dasharray="none" stroke-opacity="" data-original="#000000" class=""></path></g><g id="g77" transform="translate(67.7646,354.0625)"><path d="m 0,0 c -13.748,-8.305 -31.577,-3.883 -39.882,9.865 -8.277,13.719 -3.855,31.577 9.864,39.854 13.747,8.305 31.605,3.884 39.882,-9.865 C 18.141,26.135 13.719,8.277 0,0 Z" style="stroke-width:20;stroke-linecap:round;stroke-linejoin:round;stroke-miterlimit:10;stroke-dasharray:none;stroke-opacity:1" id="path79" fill="none" stroke="#2470a9" stroke-width="20" stroke-linecap="round" stroke-linejoin="round" stroke-miterlimit="10" stroke-dasharray="none" stroke-opacity="" data-original="#000000" class=""></path></g><g id="g81" transform="translate(392.4863,177.978)"><path d="M 0,0 41.866,-25.2" style="stroke-width:20;stroke-linecap:round;stroke-linejoin:round;stroke-miterlimit:10;stroke-dasharray:none;stroke-opacity:1" id="path83" fill="none" stroke="#2470a9" stroke-width="20" stroke-linecap="round" stroke-linejoin="round" stroke-miterlimit="10" stroke-dasharray="none" stroke-opacity="" data-original="#000000" class=""></path></g><g id="g85" transform="translate(444.2446,162.6426)"><path d="M 0,0 C 13.719,8.306 31.577,3.884 39.854,-9.864 48.159,-23.583 43.737,-41.441 29.989,-49.719 16.27,-58.024 -1.587,-53.602 -9.864,-39.854 -18.169,-26.135 -13.747,-8.277 0,0 Z" style="stroke-width:20;stroke-linecap:round;stroke-linejoin:round;stroke-miterlimit:10;stroke-dasharray:none;stroke-opacity:1" id="path87" fill="none" stroke="#2470a9" stroke-width="20" stroke-linecap="round" stroke-linejoin="round" stroke-miterlimit="10" stroke-dasharray="none" stroke-opacity="" data-original="#000000" class=""></path></g><g id="g89" transform="translate(119.5229,177.978)"><path d="M 0,0 -41.866,-25.2" style="stroke-width:20;stroke-linecap:round;stroke-linejoin:round;stroke-miterlimit:10;stroke-dasharray:none;stroke-opacity:1" id="path91" fill="none" stroke="#2470a9" stroke-width="20" stroke-linecap="round" stroke-linejoin="round" stroke-miterlimit="10" stroke-dasharray="none" stroke-opacity="" data-original="#000000" class=""></path></g><g id="g93" transform="translate(67.7646,162.6426)"><path d="m 0,0 c -13.748,8.306 -31.577,3.884 -39.882,-9.864 -8.277,-13.719 -3.855,-31.577 9.864,-39.855 13.747,-8.305 31.605,-3.883 39.882,9.865 C 18.141,-26.135 13.719,-8.277 0,0 Z" style="stroke-width:20;stroke-linecap:round;stroke-linejoin:round;stroke-miterlimit:10;stroke-dasharray:none;stroke-opacity:1" id="path95" fill="none" stroke="#2470a9" stroke-width="20" stroke-linecap="round" stroke-linejoin="round" stroke-miterlimit="10" stroke-dasharray="none" stroke-opacity="" data-original="#000000" class=""></path></g><g id="g97" transform="translate(256.0044,338.6992)"><path d="M 0,0 V 163.301" style="stroke-width:20;stroke-linecap:round;stroke-linejoin:round;stroke-miterlimit:10;stroke-dasharray:none;stroke-opacity:1" id="path99" fill="none" stroke="#2470a9" stroke-width="20" stroke-linecap="round" stroke-linejoin="round" stroke-miterlimit="10" stroke-dasharray="none" stroke-opacity="" data-original="#000000" class=""></path></g><g id="g101" transform="translate(221.6221,467.6445)"><path d="M 0,0 34.382,34.355 68.737,0" style="stroke-width:20;stroke-linecap:round;stroke-linejoin:round;stroke-miterlimit:10;stroke-dasharray:none;stroke-opacity:1" id="path103" fill="none" stroke="#2470a9" stroke-width="20" stroke-linecap="round" stroke-linejoin="round" stroke-miterlimit="10" stroke-dasharray="none" stroke-opacity="" data-original="#000000" class=""></path></g><g id="g105" transform="translate(256.0044,173.3008)"><path d="M 0,0 V -163.301" style="stroke-width:20;stroke-linecap:round;stroke-linejoin:round;stroke-miterlimit:10;stroke-dasharray:none;stroke-opacity:1" id="path107" fill="none" stroke="#2470a9" stroke-width="20" stroke-linecap="round" stroke-linejoin="round" stroke-miterlimit="10" stroke-dasharray="none" stroke-opacity="" data-original="#000000" class=""></path></g><g id="g109" transform="translate(221.6221,44.3838)"><path d="M 0,0 34.382,-34.384 68.737,0" style="stroke-width:20;stroke-linecap:round;stroke-linejoin:round;stroke-miterlimit:10;stroke-dasharray:none;stroke-opacity:1" id="path111" fill="none" stroke="#2470a9" stroke-width="20" stroke-linecap="round" stroke-linejoin="round" stroke-miterlimit="10" stroke-dasharray="none" stroke-opacity="" data-original="#000000" class=""></path></g><g id="g113" transform="translate(119.5229,258.3101)"><path d="M 0,0 V 0.028" style="stroke-width:20;stroke-linecap:round;stroke-linejoin:round;stroke-miterlimit:10;stroke-dasharray:none;stroke-opacity:1" id="path115" fill="none" stroke="#2470a9" stroke-width="20" stroke-linecap="round" stroke-linejoin="round" stroke-miterlimit="10" stroke-dasharray="none" stroke-opacity="" data-original="#000000" class=""></path></g></g></g></g></g></svg>