<svg xmlns="http://www.w3.org/2000/svg" version="1.1" xmlns:xlink="http://www.w3.org/1999/xlink" xmlns:svgjs="http://svgjs.com/svgjs" width="512" height="512" x="0" y="0" viewBox="0 0 682.66669 682.66669" style="enable-background:new 0 0 512 512" xml:space="preserve" class=""><g><defs id="defs13"><clipPath clipPathUnits="userSpaceOnUse" id="clipPath23"><path d="M 0,512 H 512 V 0 H 0 Z" id="path21" fill="#23303d" data-original="#000000"></path></clipPath></defs><g id="g15" transform="matrix(1.3333333,0,0,-1.3333333,0,682.66667)"><g id="g17"><g id="g19" clip-path="url(#clipPath23)"><g id="g25" transform="translate(256,7.5)"><path d="m 0,0 c -0.08,0.02 -0.17,0.03 -0.25,0.05 -206.67,42.53 -268.959,175.92 -242.51,443.87 0,0 146.1,-52.88 242.76,53.08 69.99,-76.72 165.89,-70.17 213.49,-60.72 18.14,3.61 29.27,7.64 29.27,7.64 C 269.22,175.86 206.87,42.47 0,0" style="fill-opacity:1;fill-rule:nonzero;stroke:none" id="path27" fill="#2470a9" data-original="#6cf4cd" class=""></path></g><g id="g29" transform="translate(498.7598,451.4199)"><path d="m 0,0 c 26.46,-268.06 -35.89,-401.45 -242.76,-443.92 -0.08,0.02 -0.17,0.03 -0.25,0.05 181.26,49.18 237.04,186.33 213.74,436.23 C -11.13,-4.03 0,0 0,0" style="fill-opacity:1;fill-rule:nonzero;stroke:none" id="path31" fill="#2470a9" data-original="#36ddbd" class=""></path></g><g id="g33" transform="translate(453.2798,390.6001)"><path d="m 0,0 c -9.94,-1.19 -20.73,-2.02 -32.23,-2.29 -2.45,-0.06 -4.93,-0.09 -7.45,-0.09 -59.99,0.03 -113.63,16.92 -157.6,49.27 -43.97,-32.35 -97.61,-49.24 -157.599,-49.27 -14.29,-0.01 -27.63,0.94 -39.681,2.38 -2.149,-41.46 -1.5,-77.91 1.92,-110.42 4.77,-45.29 14.81,-81.91 30.69,-111.95 15.17,-28.71 35.841,-51.4 63.18,-69.35 26.93,-17.68 60.21,-30.88 101.49,-40.23 41.28,9.35 74.56,22.55 101.49,40.23 27.34,17.95 48.01,40.64 63.18,69.35 15.88,30.04 25.92,66.66 30.69,111.95 C 1.5,-77.91 2.15,-41.46 0,0" style="fill-opacity:1;fill-rule:nonzero;stroke:none" id="path35" fill="#63d9b6" data-original="#edf8f9" class=""></path></g><g id="g37" transform="translate(453.2798,390.6001)"><path d="m 0,0 c -9.94,-1.19 -20.73,-2.02 -32.23,-2.29 1.69,-40.51 1.12,-76.22 -1.69,-108.13 -3.99,-45.29 -12.38,-81.91 -25.66,-111.95 -12.69,-28.71 -29.97,-51.4 -52.84,-69.35 -22.52,-17.68 -50.34,-30.88 -84.86,-40.23 41.28,9.35 74.56,22.55 101.49,40.23 27.34,17.95 48.01,40.64 63.18,69.35 15.88,30.04 25.92,66.66 30.69,111.95 C 1.5,-77.91 2.15,-41.46 0,0" style="fill-opacity:1;fill-rule:nonzero;stroke:none" id="path39" fill="#63d9b6" data-original="#daeeef" class=""></path></g><g id="g41" transform="translate(256,145.7402)"><path d="m 0,0 c -5.53,0 -10.69,0.29 -15.5,0.85 -85.7,9.85 -62.16,103.28 -52.6,135.34 H 68.1 C 78.2,102.33 103.89,0 0,0" style="fill-opacity:1;fill-rule:nonzero;stroke:none" id="path43" fill="#e09932" data-original="#66f1ff" class=""></path></g><g id="g45" transform="translate(256,145.7402)"><path d="m 0,0 c -5.53,0 -10.69,0.29 -15.5,0.85 85.7,9.85 62.16,103.28 52.6,135.34 h 31 C 78.2,102.33 103.89,0 0,0" style="fill-opacity:1;fill-rule:nonzero;stroke:none" id="path47" fill="#e09932" data-original="#66d4ff" class=""></path></g><g id="g49" transform="translate(271,224.8345)"><path d="m 0,0 c 0,-8.284 -6.716,-15 -15,-15 -8.284,0 -15,6.716 -15,15 0,8.285 6.716,15 15,15 C -6.716,15 0,8.285 0,0" style="fill-opacity:1;fill-rule:nonzero;stroke:none" id="path51" fill="#ffffff" data-original="#ffffff" class=""></path></g><g id="g53" transform="translate(357.3257,41.1836)"><path d="m 0,0 c 125.773,63.429 162.943,192.343 141.432,410.234 0,0 -146.096,-52.88 -242.758,53.082 -49.85,-54.647 -112.848,-67.046 -162.175,-66.24" style="stroke-width:15;stroke-linecap:round;stroke-linejoin:round;stroke-miterlimit:10;stroke-dasharray:none;stroke-opacity:1" id="path55" fill="none" stroke="#23303d" stroke-width="15" stroke-linecap="round" stroke-linejoin="round" stroke-miterlimit="10" stroke-dasharray="none" stroke-opacity="" data-original="#000000" class=""></path></g><g id="g57" transform="translate(57.2109,441.2549)"><path d="m 0,0 c -26.653,3.896 -43.969,10.163 -43.969,10.163 -26.464,-268.057 35.886,-401.449 242.758,-443.918 25.277,5.189 48.396,11.736 69.46,19.719" style="stroke-width:15;stroke-linecap:round;stroke-linejoin:round;stroke-miterlimit:10;stroke-dasharray:none;stroke-opacity:1" id="path59" fill="none" stroke="#23303d" stroke-width="15" stroke-linecap="round" stroke-linejoin="round" stroke-miterlimit="10" stroke-dasharray="none" stroke-opacity="" data-original="#000000" class=""></path></g><g id="g61" transform="translate(452.9512,298.3335)"><path d="m 0,0 c -0.439,-6.187 -0.97,-12.237 -1.593,-18.156 -4.769,-45.287 -14.806,-81.907 -30.684,-111.951 -15.173,-28.708 -35.841,-51.392 -63.189,-69.347 -26.929,-17.68 -60.206,-30.881 -101.485,-40.232 -41.279,9.351 -74.556,22.552 -101.486,40.232 -27.347,17.955 -48.016,40.639 -63.188,69.347 -15.878,30.044 -25.916,66.664 -30.685,111.951 -3.422,32.509 -4.067,68.959 -1.919,110.426 12.051,-1.441 25.39,-2.395 39.676,-2.38 59.995,0.031 113.629,16.919 157.602,49.265 43.973,-32.346 97.607,-49.234 157.601,-49.265 14.304,0.02 27.623,0.939 39.676,2.38 C 1.312,73.244 1.71,55.274 1.521,38.256" style="stroke-width:15;stroke-linecap:round;stroke-linejoin:round;stroke-miterlimit:10;stroke-dasharray:none;stroke-opacity:1" id="path63" fill="none" stroke="#23303d" stroke-width="15" stroke-linecap="round" stroke-linejoin="round" stroke-miterlimit="10" stroke-dasharray="none" stroke-opacity="" data-original="#000000" class=""></path></g><g id="g65" transform="translate(296,281.9326)"><path d="m 0,0 h -80 v 36.196 c 0,22.092 17.909,40 40,40 22.091,0 40,-17.908 40,-40 z" style="stroke-width:15;stroke-linecap:round;stroke-linejoin:round;stroke-miterlimit:10;stroke-dasharray:none;stroke-opacity:1" id="path67" fill="none" stroke="#23303d" stroke-width="15" stroke-linecap="round" stroke-linejoin="round" stroke-miterlimit="10" stroke-dasharray="none" stroke-opacity="" data-original="#000000" class=""></path></g><g id="g69" transform="translate(271,224.8345)"><path d="m 0,0 c 0,-8.284 -6.716,-15 -15,-15 -8.284,0 -15,6.716 -15,15 0,8.285 6.716,15 15,15 C -6.716,15 0,8.285 0,0 Z" style="stroke-width:15;stroke-linecap:round;stroke-linejoin:round;stroke-miterlimit:10;stroke-dasharray:none;stroke-opacity:1" id="path71" fill="none" stroke="#23303d" stroke-width="15" stroke-linecap="round" stroke-linejoin="round" stroke-miterlimit="10" stroke-dasharray="none" stroke-opacity="" data-original="#000000" class=""></path></g><g id="g73" transform="translate(256,209.8345)"><path d="M 0,0 V -16.716" style="stroke-width:15;stroke-linecap:round;stroke-linejoin:round;stroke-miterlimit:10;stroke-dasharray:none;stroke-opacity:1" id="path75" fill="none" stroke="#23303d" stroke-width="15" stroke-linecap="round" stroke-linejoin="round" stroke-miterlimit="10" stroke-dasharray="none" stroke-opacity="" data-original="#000000" class=""></path></g><g id="g77" transform="translate(92,355.7227)"><path d="M 0,0 V 0" style="stroke-width:15;stroke-linecap:round;stroke-linejoin:round;stroke-miterlimit:10;stroke-dasharray:none;stroke-opacity:1" id="path79" fill="none" stroke="#23303d" stroke-width="15" stroke-linecap="round" stroke-linejoin="round" stroke-miterlimit="10" stroke-dasharray="none" stroke-opacity="" data-original="#000000" class=""></path></g><g id="g81" transform="translate(419.9995,355.7227)"><path d="M 0,0 V 0" style="stroke-width:15;stroke-linecap:round;stroke-linejoin:round;stroke-miterlimit:10;stroke-dasharray:none;stroke-opacity:1" id="path83" fill="none" stroke="#23303d" stroke-width="15" stroke-linecap="round" stroke-linejoin="round" stroke-miterlimit="10" stroke-dasharray="none" stroke-opacity="" data-original="#000000" class=""></path></g><g id="g85" transform="translate(256,95.1138)"><path d="M 0,0 V 0" style="stroke-width:15;stroke-linecap:round;stroke-linejoin:round;stroke-miterlimit:10;stroke-dasharray:none;stroke-opacity:1" id="path87" fill="none" stroke="#23303d" stroke-width="15" stroke-linecap="round" stroke-linejoin="round" stroke-miterlimit="10" stroke-dasharray="none" stroke-opacity="" data-original="#000000" class=""></path></g><g id="g89" transform="translate(256,394.1289)"><path d="M 0,0 V 0" style="stroke-width:15;stroke-linecap:round;stroke-linejoin:round;stroke-miterlimit:10;stroke-dasharray:none;stroke-opacity:1" id="path91" fill="none" stroke="#23303d" stroke-width="15" stroke-linecap="round" stroke-linejoin="round" stroke-miterlimit="10" stroke-dasharray="none" stroke-opacity="" data-original="#000000" class=""></path></g><g id="g93" transform="translate(178.3296,207.1426)"><path d="M 0,0 C -3.252,28.268 4.857,58.985 9.572,74.79 H 145.769 C 155.872,40.926 181.557,-61.406 77.67,-61.406 c -35.594,0 -55.978,12.013 -66.988,29.169" style="stroke-width:15;stroke-linecap:round;stroke-linejoin:round;stroke-miterlimit:10;stroke-dasharray:none;stroke-opacity:1" id="path95" fill="none" stroke="#23303d" stroke-width="15" stroke-linecap="round" stroke-linejoin="round" stroke-miterlimit="10" stroke-dasharray="none" stroke-opacity="" data-original="#000000" class=""></path></g></g></g></g></g></svg>