<svg xmlns="http://www.w3.org/2000/svg" version="1.1" xmlns:xlink="http://www.w3.org/1999/xlink" xmlns:svgjs="http://svgjs.com/svgjs" width="512" height="512" x="0" y="0" viewBox="0 0 511.988 511.988" style="enable-background:new 0 0 512 512" xml:space="preserve" class=""><g><path d="m350.901 287.133-21.318-15.963a74.166 74.166 0 0 0 1.558-15.171 74.32 74.32 0 0 0-1.558-15.18l21.318-15.963c3.806-2.844 4.878-8.088 2.503-12.208l-10.65-18.449a9.38 9.38 0 0 0-11.825-3.933l-24.502 10.489a74.064 74.064 0 0 0-26.264-15.188l-3.167-26.443a9.393 9.393 0 0 0-9.322-8.275h-21.309c-4.751 0-8.752 3.559-9.322 8.275l-3.158 26.443a74.048 74.048 0 0 0-26.273 15.188l-24.493-10.489a9.378 9.378 0 0 0-11.825 3.933l-10.659 18.449c-2.375 4.121-1.302 9.365 2.503 12.208l21.326 15.963a74.32 74.32 0 0 0-1.558 15.18c0 5.202.536 10.276 1.558 15.171l-21.326 15.963a9.39 9.39 0 0 0-2.503 12.208l10.659 18.457a9.386 9.386 0 0 0 11.825 3.933l24.493-10.489a74.024 74.024 0 0 0 26.273 15.188l3.158 26.443a9.394 9.394 0 0 0 9.322 8.267h21.309c4.751 0 8.76-3.55 9.322-8.267l3.167-26.443a74.079 74.079 0 0 0 26.264-15.188l24.502 10.489a9.39 9.39 0 0 0 11.825-3.933l10.65-18.457a9.388 9.388 0 0 0-2.503-12.208zm-93.878 7.492c-21.335 0-38.626-17.3-38.626-38.626 0-21.335 17.291-38.626 38.626-38.626 21.326 0 38.617 17.291 38.617 38.626 0 21.327-17.291 38.626-38.617 38.626z" style="" fill="#97a2a6" data-original="#8d9ca8" class=""></path><path d="M231.346 186.461a73.93 73.93 0 0 0-23.736 14.294l-24.493-10.489a9.378 9.378 0 0 0-11.825 3.933l-10.659 18.449c-2.375 4.121-1.302 9.365 2.503 12.208l21.326 15.963a74.32 74.32 0 0 0-1.558 15.18c0 5.202.536 10.276 1.558 15.171l-21.326 15.963a9.39 9.39 0 0 0-2.503 12.208l10.659 18.457a9.386 9.386 0 0 0 11.825 3.933l24.493-10.489a73.978 73.978 0 0 0 13.17 9.416c-11.979-17.206-19.002-38.115-19.002-60.659 0-28.536 11.255-54.451 29.568-73.538z" style="" fill="#97a2a6" data-original="#7a8c98" class=""></path><path d="m350.901 287.133-21.318-15.963a74.166 74.166 0 0 0 1.558-15.171 74.32 74.32 0 0 0-1.558-15.18l21.318-15.963c3.806-2.844 4.878-8.088 2.503-12.208l-10.65-18.449a9.38 9.38 0 0 0-11.825-3.933l-24.502 10.489a74.064 74.064 0 0 0-26.264-15.188l-3.167-26.443a9.393 9.393 0 0 0-9.322-8.275h-21.309c-4.751 0-8.752 3.559-9.322 8.275l-3.158 26.443a74.048 74.048 0 0 0-26.273 15.188l-24.493-10.489a9.378 9.378 0 0 0-11.825 3.933l-10.659 18.449c-2.375 4.121-1.302 9.365 2.503 12.208l21.326 15.963a74.32 74.32 0 0 0-1.558 15.18c0 5.202.536 10.276 1.558 15.171l-21.326 15.963a9.39 9.39 0 0 0-2.503 12.208l10.659 18.457a9.386 9.386 0 0 0 11.825 3.933l24.493-10.489a74.024 74.024 0 0 0 26.273 15.188l3.158 26.443a9.394 9.394 0 0 0 9.322 8.267h21.309c4.751 0 8.76-3.55 9.322-8.267l3.167-26.443a74.079 74.079 0 0 0 26.264-15.188l24.502 10.489a9.39 9.39 0 0 0 11.825-3.933l10.65-18.457a9.388 9.388 0 0 0-2.503-12.208zm-93.878 7.492c-21.335 0-38.626-17.3-38.626-38.626 0-21.335 17.291-38.626 38.626-38.626 21.326 0 38.617 17.291 38.617 38.626 0 21.327-17.291 38.626-38.617 38.626z" style="stroke-width:15;stroke-linecap:round;stroke-linejoin:round;stroke-miterlimit:10;" fill="none" stroke="#23303d" stroke-width="15" stroke-linecap="round" stroke-linejoin="round" stroke-miterlimit="10" data-original="#000000" class=""></path><path d="M188.282 495.056H25.456c-9.351 0-16.931-7.58-16.931-16.931V445.03c0-9.351 7.58-16.931 16.931-16.931l81.413-33.479 81.413 33.479c9.351 0 16.931 7.58 16.931 16.931v33.096c0 9.35-7.58 16.93-16.931 16.93z" style="" fill="#97a2a6" data-original="#7a8c98" class=""></path><path d="M188.282 428.099H25.456c-9.351 0-16.931-7.58-16.931-16.931v-33.096c0-9.351 7.58-16.931 16.931-16.931h162.826c9.351 0 16.931 7.58 16.931 16.931v33.096c0 9.351-7.58 16.931-16.931 16.931z" style="" fill="#97a2a6" data-original="#8d9ca8" class=""></path><path d="M51.067 428.098H25.455c-9.347 0-16.929-7.582-16.929-16.929v-33.097c0-9.347 7.582-16.929 16.929-16.929h25.612c-9.347 0-16.929 7.582-16.929 16.929v33.097c0 9.348 7.581 16.929 16.929 16.929z" style="" fill="#97a2a6" data-original="#7a8c98" class=""></path><path d="M51.067 495.056H25.455c-9.347 0-16.929-7.582-16.929-16.929V445.03c0-9.347 7.582-16.929 16.929-16.929h25.612c-9.347 0-16.929 7.582-16.929 16.929v33.097c0 9.347 7.581 16.929 16.929 16.929z" style="" fill="#97a2a6" data-original="#596c76" class=""></path><path d="M188.282 428.099H25.456c-9.351 0-16.931-7.58-16.931-16.931v-33.096c0-9.351 7.58-16.931 16.931-16.931h162.826c9.351 0 16.931 7.58 16.931 16.931v33.096c0 9.351-7.58 16.931-16.931 16.931zM147.784 495.054h40.5c9.35 0 16.93-7.58 16.93-16.93v-33.09c0-9.35-7.58-16.93-16.93-16.93H25.454c-9.35 0-16.93 7.58-16.93 16.93v33.09c0 9.35 7.58 16.93 16.93 16.93h87.33" style="stroke-width:15;stroke-linecap:round;stroke-linejoin:round;stroke-miterlimit:10;" fill="none" stroke="#23303d" stroke-width="15" stroke-linecap="round" stroke-linejoin="round" stroke-miterlimit="10" data-original="#000000" class=""></path><circle cx="92.745" cy="394.62" r="14.124" style="" fill="#e09932" data-original="#ffe177" class=""></circle><circle cx="45.928" cy="394.62" r="14.124" style="" fill="#63d9b6" data-original="#9be69d" class=""></circle><circle cx="45.928" cy="461.578" r="14.124" style="" fill="#e09932" data-original="#ffe177" class=""></circle><circle cx="92.745" cy="461.578" r="14.124" style="" fill="#63d9b6" data-original="#9be69d" class=""></circle><circle cx="45.928" cy="394.62" r="14.124" style="stroke-width:15;stroke-linecap:round;stroke-linejoin:round;stroke-miterlimit:10;" fill="none" stroke="#23303d" stroke-width="15" stroke-linecap="round" stroke-linejoin="round" stroke-miterlimit="10" data-original="#000000" class=""></circle><circle cx="92.745" cy="394.62" r="14.124" style="stroke-width:15;stroke-linecap:round;stroke-linejoin:round;stroke-miterlimit:10;" fill="none" stroke="#23303d" stroke-width="15" stroke-linecap="round" stroke-linejoin="round" stroke-miterlimit="10" data-original="#000000" class=""></circle><circle cx="45.928" cy="461.578" r="14.124" style="stroke-width:15;stroke-linecap:round;stroke-linejoin:round;stroke-miterlimit:10;" fill="none" stroke="#23303d" stroke-width="15" stroke-linecap="round" stroke-linejoin="round" stroke-miterlimit="10" data-original="#000000" class=""></circle><circle cx="92.745" cy="461.578" r="14.124" style="stroke-width:15;stroke-linecap:round;stroke-linejoin:round;stroke-miterlimit:10;" fill="none" stroke="#23303d" stroke-width="15" stroke-linecap="round" stroke-linejoin="round" stroke-miterlimit="10" data-original="#000000" class=""></circle><path d="M135.378 394.62h44.301M135.378 461.578h44.301" style="stroke-width:15;stroke-linecap:round;stroke-linejoin:round;stroke-miterlimit:10;" fill="none" stroke="#23303d" stroke-width="15" stroke-linecap="round" stroke-linejoin="round" stroke-miterlimit="10" data-original="#000000" class=""></path><path d="M503.462 19.965v150.803c0 6.884-5.581 12.465-12.465 12.465H377.333c-6.884 0-12.465-5.581-12.465-12.465V89.757a39.34 39.34 0 0 1 11.52-27.815l42.91-42.918a39.34 39.34 0 0 1 27.82-11.525h43.88c6.883.001 12.464 5.582 12.464 12.466z" style="" fill="#edeff0" data-original="#e8edf2" class=""></path><path d="M450.661 7.511c-10.96 0-19.839 8.879-19.839 19.839V61c0 6.894-5.582 12.464-12.464 12.464h-33.65c-10.96 0-19.839 8.891-19.839 19.851v-3.549a39.337 39.337 0 0 1 11.514-27.815l42.914-42.926a39.337 39.337 0 0 1 27.815-11.514h3.549z" style="" fill="#d9e7ec" data-original="#d9e7ec"></path><path d="M468.164 183.234h22.83c6.89 0 12.47-5.58 12.47-12.47v-150.8c0-6.88-5.58-12.46-12.47-12.46h-43.88c-10.43 0-20.44 4.14-27.82 11.52l-42.91 42.92a39.363 39.363 0 0 0-11.52 27.81v81.01c0 6.89 5.58 12.47 12.47 12.47h55.83" style="stroke-width:15;stroke-linecap:round;stroke-linejoin:round;stroke-miterlimit:10;" fill="none" stroke="#23303d" stroke-width="15" stroke-linecap="round" stroke-linejoin="round" stroke-miterlimit="10" data-original="#000000" class=""></path><path d="M450.666 7.5c-10.961 0-19.846 8.885-19.846 19.846V61c0 6.884-5.581 12.465-12.465 12.465h-33.642c-10.961 0-19.846 8.885-19.846 19.846M402.913 109.402h62.504M402.913 140.653h62.504" style="stroke-width:15;stroke-linecap:round;stroke-linejoin:round;stroke-miterlimit:10;" fill="none" stroke="#23303d" stroke-width="15" stroke-linecap="round" stroke-linejoin="round" stroke-miterlimit="10" data-original="#000000" class=""></path><path d="M491.726 226.609c-1.021-8.151-8.448-13.932-16.608-12.911-8.151 1.021-13.932 8.457-12.911 16.608a207.33 207.33 0 0 1 1.59 25.69c0 45.44-14.453 88.552-41.796 124.675-23.423 30.945-55.558 54.946-91.601 68.687l-2.535-15.037c-1.001-5.94-8.058-8.568-12.701-4.73l-47.701 39.426c-4.643 3.837-3.391 11.261 2.253 13.364l57.99 21.605c5.645 2.103 11.449-2.693 10.448-8.633l-2.724-16.157c43.472-15.322 82.323-43.619 110.292-80.569 31.287-41.334 47.825-90.655 47.825-142.63a237.761 237.761 0 0 0-1.821-29.388z" style="" fill="#63d9b6" data-original="#9be69d" class=""></path><path d="M244.32 29.61 186.33 8.005c-5.645-2.103-11.449 2.694-10.448 8.633l2.724 16.157c-43.472 15.322-82.323 43.619-110.292 80.569-31.287 41.334-47.825 90.655-47.825 142.63 0 9.853.613 19.74 1.821 29.386.942 7.524 7.349 13.028 14.741 13.028.616 0 1.24-.038 1.867-.117 8.151-1.021 13.932-8.457 12.911-16.608a207.33 207.33 0 0 1-1.59-25.69c0-45.44 14.453-88.552 41.796-124.675 23.423-30.945 55.558-54.946 91.601-68.687l2.535 15.037c1.001 5.94 8.058 8.568 12.701 4.73l47.701-39.426c4.643-3.835 3.391-11.259-2.253-13.362z" style="" fill="#2470a9" data-original="#fe646f" class=""></path><path d="M491.726 226.609c-1.021-8.151-8.448-13.932-16.608-12.911-8.151 1.021-13.932 8.457-12.911 16.608a207.33 207.33 0 0 1 1.59 25.69c0 45.44-14.453 88.552-41.796 124.675-23.423 30.945-55.558 54.946-91.601 68.687l-2.535-15.037c-1.001-5.94-8.058-8.568-12.701-4.73l-47.701 39.426c-4.643 3.837-3.391 11.261 2.253 13.364l57.99 21.605c5.645 2.103 11.449-2.693 10.448-8.633l-2.724-16.157c43.472-15.322 82.323-43.619 110.292-80.569 31.287-41.334 47.825-90.655 47.825-142.63a237.761 237.761 0 0 0-1.821-29.388zM149.294 79.544c10.9-6.69 22.4-12.36 34.34-16.91l2.54 15.04c1 5.94 8.06 8.56 12.7 4.73l47.7-39.43c4.64-3.84 3.39-11.26-2.25-13.36l-57.99-21.61c-5.65-2.1-11.45 2.7-10.45 8.63l2.72 16.16c-43.47 15.32-82.32 43.62-110.29 80.57-31.29 41.34-47.82 90.66-47.82 142.63 0 9.85.61 19.74 1.82 29.39.94 7.52 7.35 13.03 14.74 13.03.61 0 1.24-.04 1.87-.12 8.15-1.02 13.93-8.46 12.91-16.61-1.06-8.42-1.59-17.07-1.59-25.69 0-45.44 14.45-88.55 41.79-124.67a206.065 206.065 0 0 1 29.05-31.07" style="stroke-width:15;stroke-linecap:round;stroke-linejoin:round;stroke-miterlimit:10;" fill="none" stroke="#23303d" stroke-width="15" stroke-linecap="round" stroke-linejoin="round" stroke-miterlimit="10" data-original="#000000" class=""></path></g></svg>