<svg id="Layer_1" data-name="Layer 1" xmlns="http://www.w3.org/2000/svg" viewBox="0 0 100 100">
  <defs>
    <style>
      .develpment-cls-1,
      .develpment-cls-3,
      .develpment-cls-6,
      .develpment-cls-8 {
        fill: #fff;
      }

      .develpment-cls-1,
      .develpment-cls-4,
      .develpment-cls-7 {
        stroke: #97a2a6;
        stroke-miterlimit: 10;
      }

      .develpment-cls-1,
      .develpment-cls-11,
      .develpment-cls-12,
      .develpment-cls-4,
      .develpment-cls-6,
      .develpment-cls-7,
      .develpment-cls-8,
      .develpment-cls-9 {
        stroke-width: 0.75px;
      }

      .develpment-cls-2,
      .develpment-cls-7 {
        fill: #edeff0;
      }

      .develpment-cls-11,
      .develpment-cls-12,
      .develpment-cls-4,
      .develpment-cls-9 {
        fill: none;
      }

      .develpment-cls-5 {
        fill: #63d9b6;
      }

      .develpment-cls-6 {
        stroke: #ff7680;
      }

      .develpment-cls-11,
      .develpment-cls-12,
      .develpment-cls-6,
      .develpment-cls-8,
      .develpment-cls-9 {
        stroke-linecap: round;
        stroke-linejoin: round;
      }

      .develpment-cls-8,
      .develpment-cls-9 {
        stroke: #f7931e;
      }

      .develpment-cls-10 {
        fill: #2470a9;
      }

      .develpment-cls-11,
      .develpment-cls-12 {
        stroke: #2470a9;
      }

      .develpment-cls-11 {
        stroke-dasharray: 1 2;
      }

      .develpment-cls-12 {
        stroke-dasharray: 1;
      }

    </style>
  </defs>
  <title>3. Development</title>
  <path class="develpment-cls-1" d="M26.9,29.72H77a2.43,2.43,0,0,1,2.43,2.43V64a0,0,0,0,1,0,0h-55a0,0,0,0,1,0,0V32.15A2.43,2.43,0,0,1,26.9,29.72Z" />
  <path class="develpment-cls-2" d="M36.82,22.41H67.56a0,0,0,0,1,0,0v50.4a0,0,0,0,1,0,0H36.82a.44.44,0,0,1-.44-.44V22.85A.44.44,0,0,1,36.82,22.41Z" transform="translate(99.58 -4.36) rotate(90)" />
  <path class="develpment-cls-3" d="M57.38,61.82v.4c0,.59-.67,1.06-1.5,1.06H48.06c-.83,0-1.5-.47-1.5-1.06v-.4H20.8c-.77,0-1.39.44-1.39,1v1c0,1.08,1.24,2,2.76,2h59.6c1.53,0,2.76-.88,2.76-2v-1c0-.54-.62-1-1.38-1Z" />
  <path class="develpment-cls-2" d="M81.89,64.51H22.29c-1.53,0-2.76-.88-2.76-2v-.14a.69.69,0,0,0-.12.39v1c0,1.08,1.24,2,2.76,2h59.6c1.53,0,2.76-.88,2.76-2v-.66A2.8,2.8,0,0,1,81.89,64.51Z" />
  <path class="develpment-cls-4" d="M57.38,61.82v.4c0,.59-.67,1.06-1.5,1.06H48.06c-.83,0-1.5-.47-1.5-1.06v-.4H20.8c-.77,0-1.39.44-1.39,1v1c0,1.08,1.24,2,2.76,2h59.6c1.53,0,2.76-.88,2.76-2v-1c0-.54-.62-1-1.38-1Z" />
  <path class="develpment-cls-5" d="M36.36,48.3v-2l9-4.17v2.17l-6.74,3,6.74,3v2.19Z" />
  <path class="develpment-cls-5" d="M55.1,38.88h2L48.56,56.33h-2Z" />
  <path class="develpment-cls-5" d="M58.57,50.3l6.73-3-6.73-3V42.1l9,4.17v2l-9,4.17Z" />
  <path class="develpment-cls-6" d="M88.21,25a6,6,0,0,0-8.42,0l-.59.58L78.62,25a6,6,0,1,0-8.43,8.42l.59.58,8.42,8.43L87.63,34l.58-.58A6,6,0,0,0,88.21,25Z" />
  <path class="develpment-cls-7" d="M16.7,66.74h9.94a0,0,0,0,1,0,0V74a.89.89,0,0,1-.89.89H17.59A.89.89,0,0,1,16.7,74v-7.3A0,0,0,0,1,16.7,66.74Z" />
  <path class="develpment-cls-7" d="M23.43,74.93a1.82,1.82,0,0,1-3.63,0Z" />
  <rect class="develpment-cls-1" x="15.39" y="71.29" width="12.55" height="1.67" rx="0.84" ry="0.84" />
  <rect class="develpment-cls-1" x="15.39" y="68.18" width="12.55" height="1.67" rx="0.84" ry="0.84" />
  <path class="develpment-cls-8" d="M33.29,54.77a11.62,11.62,0,1,0-18.84,9.11c1.43,1.14,2.25.87,2.25,2.71v.15h9.94v-.15c0-1.88.89-1.61,2.35-2.79A11.61,11.61,0,0,0,33.29,54.77Z" />
  <path class="develpment-cls-9" d="M18.8,66.74,16.42,53.5c.88,0,.88,2.89,1.75,2.89s.88-2.89,1.75-2.89.87,2.89,1.75,2.89.87-2.89,1.74-2.89.88,2.89,1.75,2.89S26,53.5,26.91,53.5L24.66,66.74" />
  <circle class="develpment-cls-10" cx="21.67" cy="43.15" r="1.51" />
  <circle class="develpment-cls-10" cx="38.53" cy="35.92" r="1.51" />
  <circle class="develpment-cls-10" cx="69.96" cy="51.6" r="1.51" />
  <circle class="develpment-cls-10" cx="79.47" cy="42.44" r="1.51" />
  <polyline class="develpment-cls-11" points="21.67 41.64 21.67 35.92 38.53 35.92" />
  <polyline class="develpment-cls-12" points="79.47 43.95 79.47 51.59 70.92 51.59" />
</svg>
