<svg id="Layer_1" data-name="Layer 1" xmlns="http://www.w3.org/2000/svg" viewBox="0 0 250 250"><defs><style>.cls-1{fill:#2470a9;}.cls-2{fill:none;stroke:#fff;stroke-linecap:round;stroke-linejoin:round;stroke-width:2px;}.cls-3{fill:#63d9b6;}.cls-4{fill:#f7931e;}.cls-5{fill:#ff7680;}</style></defs><rect class="cls-1" width="250" height="250"/><path class="cls-2" d="M65.79,177.27a6.94,6.94,0,0,0,6.94,6.94H177.27a6.94,6.94,0,0,0,6.94-6.94V85.8H65.79Z"/><path class="cls-2" d="M177.27,65.79H72.73a6.94,6.94,0,0,0-6.94,6.94V85.8H184.21V72.73A6.94,6.94,0,0,0,177.27,65.79Z"/><circle class="cls-3" cx="76.92" cy="75.8" r="1.57"/><circle class="cls-4" cx="82.59" cy="75.8" r="1.57"/><circle class="cls-5" cx="88.26" cy="75.8" r="1.57"/><path class="cls-2" d="M200.23,117.43a3,3,0,1,1,3-3"/><path class="cls-2" d="M44.54,154.31a3,3,0,1,1,3-3"/><path class="cls-2" d="M134.08,49.82a3,3,0,1,1,3-3"/><line class="cls-2" x1="46.34" y1="60.95" x2="46.34" y2="70.63"/><line class="cls-2" x1="51.18" y1="65.79" x2="41.5" y2="65.79"/><line class="cls-2" x1="160.53" y1="194.03" x2="160.53" y2="203.71"/><line class="cls-2" x1="165.37" y1="198.87" x2="155.69" y2="198.87"/><circle class="cls-3" cx="189.96" cy="53.43" r="2.29"/><circle class="cls-3" cx="86.04" cy="46.78" r="2.29"/><circle class="cls-3" cx="81.26" cy="202.47" r="2.29"/><circle class="cls-3" cx="41.5" cy="111.37" r="2.29"/><circle class="cls-3" cx="200.23" cy="181.5" r="2.29"/><path class="cls-3" d="M122.35,101.36h11v50.5a72.7,72.7,0,0,1-14.3,1.49c-13.45,0-20.46-6-20.46-17.58,0-11.12,7.43-18.34,19-18.34a18,18,0,0,1,4.79.56Zm.39,25.73a11.16,11.16,0,0,0-3.72-.56c-5.57,0-8.79,3.4-8.79,9.36,0,5.8,3.08,9,8.72,9a26.21,26.21,0,0,0,3.79-.28Z"/><path class="cls-3" d="M151.39,118.78v25.29c0,8.71-.65,12.9-2.57,16.51s-4.14,5.66-9,8.07l-10.23-4.81c4.87-2.26,7.22-4.26,8.72-7.31s2.07-6.73,2.07-16.23V118.78Z"/><path class="cls-3" d="M139.27,101.36h11v11.19h-11V101.36Z"/></svg>