<svg xmlns="http://www.w3.org/2000/svg" viewBox="0 0 256 256"><g fill="none" fill-rule="evenodd"><path d="M71.619 171.834v-10.8c0-1.418.892-2.558 2.368-2.558h.41c1.475 0 2.363 1.14 2.363 2.558v22.737c0 5.544-2.754 9.955-7.551 12.766a14.235 14.235 0 01-7.261 1.97h-1.02c-5.574 0-10.003-2.741-12.832-7.511a14.013 14.013 0 01-1.98-7.225v-1.014c0-5.546 2.756-9.955 7.55-12.77a14.185 14.185 0 017.262-1.97h1.02c3.772 0 6.972 1.454 9.67 3.817zm-20.362 11.43c0 4.004 1.95 7.015 5.478 8.935 1.426.777 2.975 1.194 4.602 1.194 3.952 0 6.882-1.854 8.904-5.186.94-1.55 1.378-3.245 1.378-5.047 0-3.472-1.652-6.182-4.464-8.194a9.626 9.626 0 00-5.718-1.832c-4.306 0-7.405 2.165-9.266 6.01-.628 1.3-.914 2.681-.914 4.12zm43.336-15.248h.713c5.956 0 10.485 2.875 13.356 8.048 1.148 2.069 1.762 4.327 1.762 6.693v1.014c0 5.544-2.748 9.962-7.553 12.767a14.273 14.273 0 01-7.26 1.97h-1.018c-5.574 0-10.003-2.742-12.832-7.512a14.014 14.014 0 01-1.98-7.225v-1.014c0-5.547 2.765-9.94 7.546-12.769a14.126 14.126 0 017.266-1.972zm-9.673 15.247c0 3.888 1.918 6.747 5.219 8.758 1.55.945 3.256 1.372 5.067 1.372 3.86 0 6.715-1.948 8.701-5.19.947-1.546 1.376-3.244 1.376-5.043 0-3.615-1.75-6.377-4.742-8.378a9.598 9.598 0 00-5.44-1.648c-4.306 0-7.405 2.165-9.265 6.01-.629 1.3-.916 2.681-.916 4.12zm46.875-9.72c-.776-.362-2.23-.482-3.068-.514-4.295-.16-7.403 2.246-9.226 6.015-.629 1.3-.916 2.677-.916 4.116 0 4.38 2.311 7.447 6.242 9.317 1.435.682 3.289.812 4.858.812 1.38 0 3.33-.841 4.555-1.42l.212-.1h.95l.105.021c1.17.242 2.052.98 2.052 2.231v.506c0 3.114-5.72 3.827-7.902 3.978-7.703.531-13.463-3.678-15.66-10.987a13.172 13.172 0 01-.552-3.852v-1.012c0-5.547 2.766-9.94 7.547-12.765a14.127 14.127 0 017.265-1.974h1.019c2.74 0 5.263.775 7.525 2.312l.186.128.118.192c.244.403.454.869.454 1.349v.506c0 1.305-.982 2.007-2.167 2.235l-.098.017h-.304c-.767 0-2.51-.79-3.195-1.111zm16.674 3.463c1.996-1.99 4-3.975 6.026-5.931.565-.546 2.704-2.856 3.545-2.856h.921l.105.022c1.172.242 2.051.98 2.051 2.235v.506c0 .855-1.007 1.849-1.562 2.434-1.181 1.245-2.425 2.45-3.633 3.67l-6.21 6.273c2.673 2.666 5.345 5.335 7.997 8.022.734.743 1.468 1.487 2.19 2.241.256.267.633.6.847.97.23.347.371.739.371 1.157v.528l-.03.122c-.289 1.167-1.033 2.108-2.333 2.108h-.409c-.85 0-1.81-.957-2.394-1.504-1.2-1.126-2.36-2.31-3.536-3.46l-3.946-3.855v6.16c0 1.42-.893 2.56-2.368 2.56h-.405c-1.476 0-2.368-1.14-2.368-2.56v-34.714c0-1.42.892-2.555 2.368-2.555h.405c1.475 0 2.368 1.135 2.368 2.555v15.872zm64.07-8.787h.51c1.542 0 2.57 1.034 2.57 2.559 0 2.117-2.034 2.66-3.794 2.66-2.309 0-4.513 1.39-6.104 2.95-1.985 1.946-2.854 4.439-2.854 7.18v12.38c0 1.42-.89 2.56-2.368 2.56h-.405c-1.478 0-2.368-1.14-2.368-2.56v-13.091c0-5.028 2.46-9.132 6.56-12.01 2.45-1.72 5.254-2.628 8.253-2.628zm-36.537 24.537c1.87.65 4.003.557 5.923.225.981-.415 3.492-1.505 4.415-1.345l.145.024.132.065c.564.272 1.102.656 1.39 1.227.673 1.338.35 2.683-.972 3.443l-.44.253c-4.876 2.8-10.063 2.412-14.923-.204-2.324-1.25-4.102-3.105-5.413-5.367l-.307-.529c-3.13-5.393-2.708-11.067.822-16.196 1.22-1.773 2.812-3.142 4.674-4.214l.705-.404c4.592-2.637 9.514-2.457 14.23-.142 2.536 1.245 4.59 3.1 6.007 5.54l.254.44c1.029 1.772-.304 3.317-1.68 4.373-1.595 1.225-3.207 2.7-4.737 4.013-3.41 2.93-6.816 5.866-10.225 8.798zm-4.415-3.085c3.815-3.254 7.63-6.51 11.435-9.778 1.3-1.116 2.726-2.274 4.016-3.447-1.035-1.297-2.764-2.233-4.233-2.79-2.965-1.124-5.889-.747-8.608.815-3.56 2.044-5.075 5.3-4.942 9.353.052 1.595.484 3.133 1.335 4.49.3.48.635.929.997 1.357zM143.844 87.185h15.17v15.428h7.67c3.542 0 7.185-.628 10.54-1.759 1.648-.556 3.498-1.33 5.124-2.303-2.142-2.782-3.235-6.294-3.557-9.756-.437-4.709.518-10.838 3.721-14.523l1.595-1.835 1.9 1.52c4.784 3.823 8.807 9.167 9.516 15.258 5.76-1.686 12.524-1.287 17.601 1.629l2.084 1.195-1.097 2.13c-4.294 8.338-13.271 10.92-22.048 10.463-13.134 32.545-41.727 47.953-76.396 47.953-17.912 0-34.345-6.661-43.703-22.472l-.153-.258-1.363-2.76c-3.164-6.959-4.214-14.583-3.501-22.2l.213-2.282h12.972V87.185h15.17V72.092h30.339V57h18.203v30.185" fill="#364548"/><path d="M192.991 92.892c1.017-7.864-4.898-14.042-8.567-16.975-4.228 4.863-4.885 17.608 1.748 22.974-3.702 3.271-11.502 6.236-19.488 6.236h-97.22c-.776 8.295.688 15.933 4.03 22.471l1.107 2.012a37.301 37.301 0 002.292 3.423c3.997.255 7.682.343 11.053.269h.002c6.625-.146 12.031-.924 16.129-2.336a1.168 1.168 0 011.485.717 1.161 1.161 0 01-.72 1.478 31.83 31.83 0 01-1.7.53l-.002.001c-3.226.916-6.686 1.533-11.15 1.807.265.004-.275.04-.277.04-.151.01-.343.03-.495.04-1.757.097-3.653.118-5.591.118-2.12 0-4.208-.04-6.543-.158l-.06.04c8.101 9.058 20.767 14.49 36.643 14.49 33.6 0 62.1-14.819 74.72-48.088 8.954.914 17.56-1.357 21.474-8.96-6.235-3.579-14.253-2.438-18.87-.129" fill="#22A0C8"/><path d="M192.991 92.892c1.017-7.864-4.898-14.042-8.567-16.975-4.228 4.863-4.885 17.608 1.748 22.974-3.702 3.271-11.502 6.236-19.488 6.236H75.222c-.397 12.703 4.341 22.346 12.724 28.175h.002c6.625-.146 12.031-.924 16.129-2.336a1.168 1.168 0 011.485.717 1.161 1.161 0 01-.72 1.478 31.83 31.83 0 01-1.7.53l-.002.001c-3.226.916-6.983 1.612-11.447 1.886l-.109-.102c11.435 5.836 28.016 5.815 47.026-1.45 21.315-8.147 41.15-23.669 54.99-41.422-.21.094-.412.19-.609.288" fill="#37B0D9"/><path d="M69.647 115.205c.604 4.443 1.91 8.603 3.848 12.393l1.106 2.012a37.232 37.232 0 002.292 3.423c3.998.255 7.683.343 11.055.269 6.625-.146 12.031-.924 16.129-2.336a1.168 1.168 0 011.485.717 1.161 1.161 0 01-.72 1.478 31.83 31.83 0 01-1.7.53l-.002.001c-3.226.916-6.963 1.573-11.427 1.847-.153.01-.42.011-.575.02-1.755.098-3.632.158-5.571.158-2.12 0-4.287-.04-6.621-.158 8.1 9.058 20.845 14.51 36.72 14.51 28.766 0 53.792-10.862 68.318-34.864H69.647" fill="#1C81A5"/><path d="M76.097 115.205c1.72 7.801 5.852 13.926 11.85 18.097 6.626-.146 12.032-.924 16.13-2.336a1.168 1.168 0 011.485.717 1.161 1.161 0 01-.72 1.478 31.83 31.83 0 01-1.7.53l-.002.001c-3.226.916-7.042 1.573-11.506 1.847 11.434 5.835 27.967 5.751 46.976-1.513 11.5-4.396 22.567-10.94 32.496-18.82h-95.01" fill="#1D91B4"/><path d="M82.66 89.7h13.147v13.08H82.66V89.7zm1.095 1.09h1.038v10.9h-1.038v-10.9zm1.95 0h1.08v10.9h-1.08v-10.9zm1.992 0h1.08v10.9h-1.08v-10.9zm1.993 0h1.079v10.9h-1.08v-10.9zm1.992 0h1.08v10.9h-1.08v-10.9zm1.992 0h1.038v10.9h-1.038v-10.9zm4.155-16.182h13.148v13.08H97.83v-13.08zm1.096 1.09h1.037v10.9h-1.037v-10.9zm1.951 0h1.078v10.9h-1.078v-10.9zm1.991 0h1.08v10.9h-1.08v-10.9zm1.992 0h1.08v10.9h-1.08v-10.9zm1.993 0h1.079v10.9h-1.08v-10.9zm1.991 0h1.04v10.9h-1.04v-10.9z" fill="#23A3C2"/><path d="M97.829 89.7h13.148v13.08H97.83V89.7zm1.096 1.09h1.037v10.9h-1.037v-10.9zm1.951 0h1.078v10.9h-1.078v-10.9zm1.991 0h1.08v10.9h-1.08v-10.9zm1.992 0h1.08v10.9h-1.08v-10.9zm1.993 0h1.079v10.9h-1.08v-10.9zm1.991 0h1.04v10.9h-1.04v-10.9z" fill="#34BBDE"/><path d="M113 89.7h13.147v13.08h-13.148V89.7zm1.095 1.09h1.037v10.9h-1.037v-10.9zm1.95 0h1.08v10.9h-1.08v-10.9zm1.992 0h1.08v10.9h-1.08v-10.9zm1.992 0h1.08v10.9h-1.08v-10.9zm1.992 0h1.08v10.9h-1.08v-10.9zm1.992 0h1.038v10.9h-1.038v-10.9z" fill="#23A3C2"/><path d="M113 74.608h13.147v13.08h-13.148v-13.08zm1.095 1.09h1.037v10.9h-1.037v-10.9zm1.95 0h1.08v10.9h-1.08v-10.9zm1.992 0h1.08v10.9h-1.08v-10.9zm1.992 0h1.08v10.9h-1.08v-10.9zm1.992 0h1.08v10.9h-1.08v-10.9zm1.992 0h1.038v10.9h-1.038v-10.9zm4.156 14.002h13.147v13.08h-13.147V89.7zm1.096 1.09h1.037v10.9h-1.037v-10.9zm1.95 0h1.08v10.9h-1.08v-10.9zm1.992 0h1.079v10.9h-1.08v-10.9zm1.992 0h1.08v10.9h-1.08v-10.9zm1.992 0h1.08v10.9h-1.08v-10.9zm1.992 0h1.038v10.9h-1.038v-10.9z" fill="#34BBDE"/><path d="M128.169 74.608h13.147v13.08h-13.147v-13.08zm1.096 1.09h1.037v10.9h-1.037v-10.9zm1.95 0h1.08v10.9h-1.08v-10.9zm1.992 0h1.079v10.9h-1.08v-10.9zm1.992 0h1.08v10.9h-1.08v-10.9zm1.992 0h1.08v10.9h-1.08v-10.9zm1.992 0h1.038v10.9h-1.038v-10.9z" fill="#23A3C2"/><path d="M128.169 59.515h13.147v13.08h-13.147v-13.08zm1.096 1.09h1.037v10.9h-1.037v-10.9zm1.95 0h1.08v10.9h-1.08v-10.9zm1.992 0h1.079v10.9h-1.08v-10.9zm1.992 0h1.08v10.9h-1.08v-10.9zm1.992 0h1.08v10.9h-1.08v-10.9zm1.992 0h1.038v10.9h-1.038v-10.9z" fill="#34BBDE"/><path d="M143.338 89.7h13.148v13.08h-13.148V89.7zm1.095 1.09h1.039v10.9h-1.039v-10.9zm1.951 0h1.079v10.9h-1.079v-10.9zm1.992 0h1.08v10.9h-1.08v-10.9zm1.992 0h1.079v10.9h-1.08v-10.9zm1.993 0h1.078v10.9h-1.078v-10.9zm1.992 0h1.037v10.9h-1.037v-10.9z" fill="#23A3C2"/><path d="M110.154 123.987a3.618 3.618 0 013.626 3.609 3.617 3.617 0 01-3.626 3.608c-2.003 0-3.627-1.615-3.627-3.608a3.618 3.618 0 013.627-3.609" fill="#D3ECEC"/><path d="M110.154 125.01c.332 0 .648.063.94.176-.316.182-.53.523-.53.913 0 .583.474 1.054 1.06 1.054.4 0 .75-.221.93-.549.127.305.198.64.198.992a2.59 2.59 0 01-2.598 2.584 2.591 2.591 0 01-2.598-2.584 2.592 2.592 0 012.598-2.585M46 116.51h168.723c-3.674-.928-11.624-2.18-10.313-6.97-6.68 7.69-22.79 5.395-26.855 1.603-4.528 6.533-30.885 4.05-32.723-1.04-5.676 6.627-23.264 6.627-28.94 0-1.84 5.09-28.196 7.573-32.724 1.04-4.066 3.792-20.174 6.087-26.855-1.603 1.311 4.79-6.639 6.042-10.313 6.97" fill="#364548"/><path d="M119.796 149.991c-8.983-4.24-13.913-10.005-16.656-16.299-3.337.948-7.348 1.553-12.008 1.814a99.593 99.593 0 01-5.54.148c-2.234 0-4.588-.066-7.06-.196 8.238 8.19 18.371 14.496 37.135 14.611 1.385 0 2.76-.027 4.129-.078" fill="#BDD8D7"/><path d="M106.476 139.5c-1.243-1.68-2.448-3.788-3.334-5.809-3.337.949-7.349 1.554-12.01 1.815 3.202 1.728 7.78 3.33 15.344 3.993" fill="#D3ECEC"/></g></svg>