<svg id="Layer_1" data-name="Layer 1" xmlns="http://www.w3.org/2000/svg" viewBox="0 0 500 500"><defs><style>.cls-1,.cls-12,.cls-9{fill:#fff;}.cls-10,.cls-11,.cls-2,.cls-7,.cls-8{fill:none;}.cls-12,.cls-2{stroke:#97a2a6;}.cls-10,.cls-11,.cls-12,.cls-2,.cls-7,.cls-8{stroke-miterlimit:10;}.cls-10,.cls-11,.cls-12,.cls-2,.cls-7,.cls-8,.cls-9{stroke-width:3px;}.cls-3{fill:#ff7680;}.cls-4{fill:#63d9b6;}.cls-5{fill:#f7931e;}.cls-6{fill:#edeff0;}.cls-7{stroke:#ff7680;}.cls-8{stroke:#f7931e;}.cls-9{stroke:#63d9b6;stroke-linejoin:round;}.cls-10,.cls-9{stroke-linecap:round;}.cls-10{stroke:#2470a9;}.cls-11{stroke:#edeff0;}.cls-13{fill:#2470a9;}</style></defs><rect class="cls-1" x="102.28" y="141.25" width="292.28" height="191.5" rx="8.52" transform="translate(496.84 473.99) rotate(-180)"/><rect class="cls-2" x="102.28" y="141.25" width="292.28" height="191.5" rx="8.52" transform="translate(496.84 473.99) rotate(-180)"/><line class="cls-2" x1="102.28" y1="162.97" x2="394.56" y2="162.97"/><circle class="cls-3" cx="137.67" cy="152.62" r="2.24"/><circle class="cls-4" cx="126.94" cy="152.62" r="2.24"/><circle class="cls-5" cx="116.22" cy="152.62" r="2.24"/><rect class="cls-6" x="112.36" y="173.66" width="270.25" height="147.69" rx="4.9" transform="translate(494.97 495.02) rotate(-180)"/><rect class="cls-1" x="248.42" y="87.64" width="162.1" height="165.46" rx="8.52" transform="translate(658.94 340.74) rotate(-180)"/><rect class="cls-7" x="248.42" y="87.64" width="162.1" height="165.46" rx="8.52" transform="translate(658.94 340.74) rotate(-180)"/><line class="cls-7" x1="248.42" y1="109.37" x2="410.52" y2="109.37"/><circle class="cls-3" cx="283.81" cy="99.01" r="2.24"/><circle class="cls-4" cx="273.09" cy="99.01" r="2.24"/><circle class="cls-5" cx="262.36" cy="99.01" r="2.24"/><rect class="cls-6" x="258.5" y="120.06" width="140.07" height="121.66" rx="4.9" transform="translate(657.07 361.77) rotate(-180)"/><rect class="cls-1" x="71.04" y="219.41" width="162.1" height="165.46" rx="8.52" transform="translate(304.17 604.28) rotate(-180)"/><rect class="cls-8" x="71.04" y="219.41" width="162.1" height="165.46" rx="8.52" transform="translate(304.17 604.28) rotate(-180)"/><line class="cls-8" x1="71.04" y1="241.13" x2="233.14" y2="241.13"/><circle class="cls-3" cx="106.42" cy="230.78" r="2.24"/><circle class="cls-4" cx="95.7" cy="230.78" r="2.24"/><circle class="cls-5" cx="84.98" cy="230.78" r="2.24"/><rect class="cls-6" x="81.12" y="251.83" width="140.07" height="121.66" rx="4.9" transform="translate(302.3 625.31) rotate(-180)"/><line class="cls-9" x1="224.46" y1="188.32" x2="129.18" y2="188.32"/><line class="cls-9" x1="224.46" y1="199.43" x2="129.18" y2="199.43"/><line class="cls-10" x1="328.54" y1="270.16" x2="258.65" y2="270.16"/><line class="cls-10" x1="328.54" y1="281.28" x2="258.65" y2="281.28"/><path class="cls-1" d="M369.15,363.3V343.17a5,5,0,0,0-5-5h-5.57a5,5,0,0,1-4.61-3.09l0-.06a5,5,0,0,1,1.08-5.46l3.93-3.93a5,5,0,0,0,0-7.08l-14.23-14.23a5,5,0,0,0-7.08,0l-3.93,3.93a5,5,0,0,1-5.46,1.08l-.06,0a5,5,0,0,1-3.09-4.61v-5.57a5,5,0,0,0-5-5H300a5,5,0,0,0-5,5v5.57a5,5,0,0,1-3.09,4.61l-.06,0a5,5,0,0,1-5.45-1.08l-3.94-3.93a5,5,0,0,0-7.08,0l-14.23,14.23a5,5,0,0,0,0,7.08l3.93,3.93a5,5,0,0,1,1.08,5.46l0,.06a5,5,0,0,1-4.62,3.09h-5.56a5,5,0,0,0-5,5V363.3a5,5,0,0,0,5,5h5.56a5,5,0,0,1,4.62,3.09l0,.06a5,5,0,0,1-1.08,5.45l-3.93,3.94a5,5,0,0,0,0,7.08l14.23,14.23a5,5,0,0,0,7.08,0l3.94-3.93a5,5,0,0,1,5.45-1.08l.06,0a5,5,0,0,1,3.09,4.62v5.56a5,5,0,0,0,5,5H320.1a5,5,0,0,0,5-5v-5.56a5,5,0,0,1,3.09-4.62l.06,0a5,5,0,0,1,5.46,1.08l3.93,3.93a5,5,0,0,0,7.08,0L359,387.93a5,5,0,0,0,0-7.08L355,376.91a5,5,0,0,1-1.08-5.45l0-.06a5,5,0,0,1,4.61-3.09h5.57A5,5,0,0,0,369.15,363.3Z"/><path class="cls-6" d="M318.38,298a5,5,0,0,0,3.09,4.62l.06,0a5.06,5.06,0,0,0,3.57.11v-3.6a5,5,0,0,0-5-5h-1.72Z"/><path class="cls-6" d="M259.51,368.31a5,5,0,0,0-.1-3.57l0-.06a5,5,0,0,0-4.62-3.09h-3.85v1.71a5,5,0,0,0,5,5Z"/><path class="cls-6" d="M352.24,311.83a5,5,0,0,1,0,7.08l-3.94,3.93a5,5,0,0,0-1.08,5.46l0,.06a5,5,0,0,0,4.62,3.09h2a5,5,0,0,1,1.18-1.89l3.93-3.93a5,5,0,0,0,0-7.08l-14.23-14.23h0Z"/><path class="cls-6" d="M364.15,338.17h-1.71v18.42a5,5,0,0,1-5,5h-5.56a5,5,0,0,0-4.62,3.09l0,.06a5,5,0,0,0,1.08,5.46l3.94,3.93a5,5,0,0,1,0,7.08L338,395.44a5,5,0,0,1-7.08,0L327,391.51a5,5,0,0,0-5.46-1.08l-.06,0a5,5,0,0,0-3.09,4.62v5.57a5,5,0,0,1-5,5H295v1.71a5,5,0,0,0,5,5H320.1a5,5,0,0,0,5-5v-5.56a5,5,0,0,1,3.09-4.62l.06,0a5,5,0,0,1,5.46,1.08l3.93,3.93a5,5,0,0,0,7.08,0L359,387.93a5,5,0,0,0,0-7.08L355,376.91a5,5,0,0,1-1.08-5.45l0-.06a5,5,0,0,1,4.61-3.09h5.57a5,5,0,0,0,5-5V343.17A5,5,0,0,0,364.15,338.17Z"/><path class="cls-6" d="M288.24,395.07a5,5,0,0,0-3.08-4.62l-.06,0a5,5,0,0,0-5.46,1.08l-3.94,3.93a5,5,0,0,1-7.07,0l6.71,6.72a5,5,0,0,0,7.08,0l3.94-3.93a5,5,0,0,1,1.88-1.19Z"/><path class="cls-2" d="M369.15,363.3V343.17a5,5,0,0,0-5-5h-5.57a5,5,0,0,1-4.61-3.09l0-.06a5,5,0,0,1,1.08-5.46l3.93-3.93a5,5,0,0,0,0-7.08l-14.23-14.23a5,5,0,0,0-7.08,0l-3.93,3.93a5,5,0,0,1-5.46,1.08l-.06,0a5,5,0,0,1-3.09-4.61v-5.57a5,5,0,0,0-5-5H300a5,5,0,0,0-5,5v5.57a5,5,0,0,1-3.09,4.61l-.06,0a5,5,0,0,1-5.45-1.08l-3.94-3.93a5,5,0,0,0-7.08,0l-14.23,14.23a5,5,0,0,0,0,7.08l3.93,3.93a5,5,0,0,1,1.08,5.46l0,.06a5,5,0,0,1-4.62,3.09h-5.56a5,5,0,0,0-5,5V363.3a5,5,0,0,0,5,5h5.56a5,5,0,0,1,4.62,3.09l0,.06a5,5,0,0,1-1.08,5.45l-3.93,3.94a5,5,0,0,0,0,7.08l14.23,14.23a5,5,0,0,0,7.08,0l3.94-3.93a5,5,0,0,1,5.45-1.08l.06,0a5,5,0,0,1,3.09,4.62v5.56a5,5,0,0,0,5,5H320.1a5,5,0,0,0,5-5v-5.56a5,5,0,0,1,3.09-4.62l.06,0a5,5,0,0,1,5.46,1.08l3.93,3.93a5,5,0,0,0,7.08,0L359,387.93a5,5,0,0,0,0-7.08L355,376.91a5,5,0,0,1-1.08-5.45l0-.06a5,5,0,0,1,4.61-3.09h5.57A5,5,0,0,0,369.15,363.3Z"/><circle class="cls-11" cx="310.03" cy="353.24" r="36.7"/><circle class="cls-6" cx="306.09" cy="349.3" r="15.65"/><circle class="cls-12" cx="310.03" cy="353.24" r="15.65"/><path class="cls-1" d="M429,299.62v-11a2.73,2.73,0,0,0-2.73-2.73h-3a2.74,2.74,0,0,1-2.53-1.69v0a2.72,2.72,0,0,1,.59-3l2.15-2.15a2.73,2.73,0,0,0,0-3.87l-7.78-7.78a2.73,2.73,0,0,0-3.87,0l-2.16,2.15a2.73,2.73,0,0,1-3,.59h0a2.75,2.75,0,0,1-1.69-2.53v-3a2.74,2.74,0,0,0-2.74-2.74h-11a2.74,2.74,0,0,0-2.74,2.74v3a2.73,2.73,0,0,1-1.69,2.53h0a2.73,2.73,0,0,1-3-.59l-2.15-2.15a2.73,2.73,0,0,0-3.87,0l-7.79,7.78a2.75,2.75,0,0,0,0,3.87l2.16,2.15a2.76,2.76,0,0,1,.59,3l0,0a2.73,2.73,0,0,1-2.52,1.69h-3.05a2.73,2.73,0,0,0-2.73,2.73v11a2.74,2.74,0,0,0,2.73,2.74h3.05a2.72,2.72,0,0,1,2.52,1.68l0,0a2.74,2.74,0,0,1-.59,3l-2.16,2.15a2.75,2.75,0,0,0,0,3.87l7.79,7.78a2.73,2.73,0,0,0,3.87,0l2.15-2.15a2.74,2.74,0,0,1,3-.59l0,0a2.72,2.72,0,0,1,1.69,2.52v3a2.74,2.74,0,0,0,2.74,2.74h11a2.74,2.74,0,0,0,2.74-2.74v-3a2.73,2.73,0,0,1,1.69-2.52l0,0a2.74,2.74,0,0,1,3,.59l2.16,2.15a2.73,2.73,0,0,0,3.87,0l7.78-7.78a2.73,2.73,0,0,0,0-3.87l-2.15-2.15a2.71,2.71,0,0,1-.59-3v0a2.73,2.73,0,0,1,2.53-1.68h3A2.74,2.74,0,0,0,429,299.62Z"/><path class="cls-6" d="M401.21,263.9a2.71,2.71,0,0,0,1.69,2.52l0,0a2.79,2.79,0,0,0,1.95.06v-2a2.74,2.74,0,0,0-2.74-2.74h-.93Z"/><path class="cls-6" d="M369,302.36a2.68,2.68,0,0,0-.06-1.95v0a2.74,2.74,0,0,0-2.53-1.69h-2.1v.94a2.74,2.74,0,0,0,2.73,2.74Z"/><path class="cls-6" d="M419.71,271.48a2.73,2.73,0,0,1,0,3.87l-2.15,2.15a2.74,2.74,0,0,0-.59,3l0,0a2.73,2.73,0,0,0,2.52,1.69h1.08a2.65,2.65,0,0,1,.65-1l2.15-2.15a2.73,2.73,0,0,0,0-3.87l-7.78-7.78h0Z"/><path class="cls-6" d="M426.23,285.88h-.94V296a2.73,2.73,0,0,1-2.74,2.73h-3a2.73,2.73,0,0,0-2.52,1.69l0,0a2.75,2.75,0,0,0,.59,3l2.15,2.15a2.73,2.73,0,0,1,0,3.87l-7.78,7.78a2.73,2.73,0,0,1-3.87,0L405.91,315a2.73,2.73,0,0,0-3-.59h0a2.73,2.73,0,0,0-1.69,2.53v3a2.74,2.74,0,0,1-2.74,2.74H388.4v.93a2.74,2.74,0,0,0,2.74,2.74h11a2.74,2.74,0,0,0,2.74-2.74v-3a2.73,2.73,0,0,1,1.69-2.52l0,0a2.74,2.74,0,0,1,3,.59l2.16,2.15a2.73,2.73,0,0,0,3.87,0l7.78-7.78a2.73,2.73,0,0,0,0-3.87l-2.15-2.15a2.71,2.71,0,0,1-.59-3v0a2.73,2.73,0,0,1,2.53-1.68h3a2.74,2.74,0,0,0,2.73-2.74v-11A2.73,2.73,0,0,0,426.23,285.88Z"/><path class="cls-6" d="M384.73,317a2.75,2.75,0,0,0-1.69-2.53h0a2.74,2.74,0,0,0-3,.59l-2.15,2.15a2.73,2.73,0,0,1-3.87,0l3.68,3.67a2.73,2.73,0,0,0,3.87,0l2.15-2.15a2.71,2.71,0,0,1,1-.64Z"/><path class="cls-2" d="M429,299.62v-11a2.73,2.73,0,0,0-2.73-2.73h-3a2.74,2.74,0,0,1-2.53-1.69v0a2.72,2.72,0,0,1,.59-3l2.15-2.15a2.73,2.73,0,0,0,0-3.87l-7.78-7.78a2.73,2.73,0,0,0-3.87,0l-2.16,2.15a2.73,2.73,0,0,1-3,.59h0a2.75,2.75,0,0,1-1.69-2.53v-3a2.74,2.74,0,0,0-2.74-2.74h-11a2.74,2.74,0,0,0-2.74,2.74v3a2.73,2.73,0,0,1-1.69,2.53h0a2.73,2.73,0,0,1-3-.59l-2.15-2.15a2.73,2.73,0,0,0-3.87,0l-7.79,7.78a2.75,2.75,0,0,0,0,3.87l2.16,2.15a2.76,2.76,0,0,1,.59,3l0,0a2.73,2.73,0,0,1-2.52,1.69h-3.05a2.73,2.73,0,0,0-2.73,2.73v11a2.74,2.74,0,0,0,2.73,2.74h3.05a2.72,2.72,0,0,1,2.52,1.68l0,0a2.74,2.74,0,0,1-.59,3l-2.16,2.15a2.75,2.75,0,0,0,0,3.87l7.79,7.78a2.73,2.73,0,0,0,3.87,0l2.15-2.15a2.74,2.74,0,0,1,3-.59l0,0a2.72,2.72,0,0,1,1.69,2.52v3a2.74,2.74,0,0,0,2.74,2.74h11a2.74,2.74,0,0,0,2.74-2.74v-3a2.73,2.73,0,0,1,1.69-2.52l0,0a2.74,2.74,0,0,1,3,.59l2.16,2.15a2.73,2.73,0,0,0,3.87,0l7.78-7.78a2.73,2.73,0,0,0,0-3.87l-2.15-2.15a2.71,2.71,0,0,1-.59-3v0a2.73,2.73,0,0,1,2.53-1.68h3A2.74,2.74,0,0,0,429,299.62Z"/><circle class="cls-11" cx="396.64" cy="294.12" r="20.06"/><circle class="cls-6" cx="394.49" cy="291.96" r="8.56"/><circle class="cls-12" cx="396.64" cy="294.12" r="8.56"/><rect class="cls-13" x="325.26" y="142.99" width="10.71" height="10.71"/><rect class="cls-13" x="325.26" y="156.45" width="10.71" height="10.71"/><rect class="cls-13" x="325.26" y="169.91" width="10.71" height="10.71"/><rect class="cls-13" x="312.26" y="156.45" width="10.71" height="10.71"/><rect class="cls-13" x="312.26" y="169.91" width="10.71" height="10.71"/><rect class="cls-13" x="299.26" y="156.45" width="10.71" height="10.71"/><rect class="cls-13" x="299.26" y="169.91" width="10.71" height="10.71"/><rect class="cls-13" x="286.41" y="169.91" width="10.71" height="10.71"/><rect class="cls-13" x="338.26" y="169.91" width="10.71" height="10.71"/><path class="cls-13" d="M315.36,218.78c-39.43,0-34.84-34.72-34.84-34.72h65.83c11.1,0,14.77-3.52,14.77-3.52s-6.27-8.1,1.07-17.89c8.26,4.74,8,11.77,8,11.77s8.41-2.75,13.61,2c-2.91,9.49-15.75,8.87-15.75,8.87S356.08,218.78,315.36,218.78Z"/><path class="cls-4" d="M152.7,323.1a1.58,1.58,0,0,0-1.93.43L146,332.14a20.41,20.41,0,0,0,6.08,1,19.85,19.85,0,0,0,4.22-.48c.6-.18,1.2-.3,1.74-.48l-4.64-8.37A2.59,2.59,0,0,0,152.7,323.1Z"/><path class="cls-4" d="M143.91,319l-9.58,1.62a19,19,0,0,0,7.53,9.46l3.67-8.85a1.75,1.75,0,0,0,.06-1A1.62,1.62,0,0,0,143.91,319Z"/><path class="cls-4" d="M143.31,312.93a1.61,1.61,0,0,0-.18-2.23L136,304.31a19.4,19.4,0,0,0-2.71,11.81l9.33-2.71A1.22,1.22,0,0,0,143.31,312.93Z"/><path class="cls-4" d="M159.33,319.13a1.62,1.62,0,0,0-.85,1.87l3.8,9.09a19.17,19.17,0,0,0,5.78-5.84,12.21,12.21,0,0,0,1.75-3.68L160.17,319A1.92,1.92,0,0,0,159.33,319.13Z"/><polygon class="cls-4" points="149.45 316.3 152.1 317.56 154.75 316.3 155.35 313.47 153.54 311.18 150.59 311.18 148.79 313.47 149.45 316.3"/><path class="cls-4" d="M195.7,321.84l-7.52-32.7a5.87,5.87,0,0,0-3.14-3.92l-30.47-14.51a5.77,5.77,0,0,0-2.47-.55,7.07,7.07,0,0,0-2.53.49l-30.48,14.57a5.76,5.76,0,0,0-3.13,3.92l-7.53,32.7a6,6,0,0,0,1.15,4.94L130.66,353a5.75,5.75,0,0,0,4.52,2.17H169a5.75,5.75,0,0,0,4.52-2.17l21.08-26.2A5.62,5.62,0,0,0,195.7,321.84Zm-13.25.78a1.32,1.32,0,0,1-.48-.06.22.22,0,0,0-.18-.06c-.12,0-.24-.06-.36-.06a5.77,5.77,0,0,1-1.08-.42c-.18-.06-.37-.18-.55-.24h-.06a14.65,14.65,0,0,0-3.13-.9h-.12a1.52,1.52,0,0,0-.78.3c-.06,0-.06.06-.12.06l-.72-.12a24,24,0,0,1-2.53,5.42,23.43,23.43,0,0,1-8,7.77l.3.72c0,.06-.06.06-.06.12a1.67,1.67,0,0,0-.06,1,13.27,13.27,0,0,0,1.56,2.83V339c.12.18.24.31.36.49a5.48,5.48,0,0,1,.67,1,1.31,1.31,0,0,1,.18.3c0,.06.06.06.06.12a2.19,2.19,0,0,1,.12,1.51,1.77,1.77,0,0,1-.91,1.08,1.6,1.6,0,0,1-.72.18,2.06,2.06,0,0,1-1.81-1.14.21.21,0,0,1-.06-.12c-.06-.12-.12-.18-.18-.3a8.17,8.17,0,0,1-.36-1.09l-.18-.54v-.06a20.23,20.23,0,0,0-1.26-3,1.11,1.11,0,0,0-.79-.54c-.06-.06-.06-.06-.12-.06l-.36-.67a26.86,26.86,0,0,1-3.13.91,21.94,21.94,0,0,1-5.24.6,23.4,23.4,0,0,1-8.43-1.57l-.42.79c-.06.06-.06.06-.12.06a1.56,1.56,0,0,0-.79.54,14,14,0,0,0-1.26,3l-.18.54c-.12.36-.18.66-.36,1.09a1.31,1.31,0,0,0-.18.3.21.21,0,0,0-.06.12,2.19,2.19,0,0,1-1.81,1.14,1.6,1.6,0,0,1-.72-.18,1.9,1.9,0,0,1-.79-2.59.21.21,0,0,0,.06-.12,1.31,1.31,0,0,1,.18-.3c.25-.36.43-.66.67-1s.24-.31.36-.49v-.06a16.59,16.59,0,0,0,1.56-2.83,1.23,1.23,0,0,0-.12-1c0-.06-.06-.06-.06-.12l.36-.78a27.36,27.36,0,0,1-2.59-1.75,23.81,23.81,0,0,1-7.88-11.32l-.85.12c-.06,0-.06-.06-.12-.06a1.34,1.34,0,0,0-.78-.3H128a14.65,14.65,0,0,0-3.13.9h-.06c-.18.06-.37.18-.55.24a5.77,5.77,0,0,1-1.08.42c-.12,0-.24.06-.36.06s-.06.06-.12.06a1.32,1.32,0,0,1-.48.06,1.85,1.85,0,0,1-1.93-1.38,2,2,0,0,1,1.56-2.23A.24.24,0,0,1,122,319c.12,0,.24-.06.36-.06a8.2,8.2,0,0,1,1.14-.12,2,2,0,0,1,.6-.06h.06a15.36,15.36,0,0,0,3.26-.54,1.45,1.45,0,0,0,.66-.67c0-.06.06-.06.06-.12l.78-.24a23.48,23.48,0,0,1,3.37-15.9,2.16,2.16,0,0,1,.31-.48l-.61-.54v-.12a1.12,1.12,0,0,0-.3-.91,17.16,17.16,0,0,0-2.71-1.86,2.43,2.43,0,0,0-.54-.3,11,11,0,0,1-1-.61c-.12-.06-.18-.18-.31-.24s-.06-.06-.12-.06a2,2,0,0,1-.42-2.71,1.73,1.73,0,0,1,1.39-.66,2.1,2.1,0,0,1,1.32.48c0,.06.06.06.12.12s.24.18.3.24a7.73,7.73,0,0,1,.79.85,2.77,2.77,0,0,1,.42.42,16.6,16.6,0,0,0,2.41,2.23,1,1,0,0,0,.54.18c.12,0,.24-.06.36-.06h.12l.6.42a23.25,23.25,0,0,1,11.93-6.75,30.33,30.33,0,0,1,3.25-.48l.06-.78.12-.12a1.25,1.25,0,0,0,.48-.79,15.63,15.63,0,0,0-.18-3.25v-.06c-.06-.24-.06-.42-.12-.6a3.51,3.51,0,0,1-.18-1.15v-.48a1.9,1.9,0,0,1,.54-1.38,2,2,0,0,1,1.33-.6,1.94,1.94,0,0,1,1.87,2v.54c-.06.43-.12.79-.18,1.15a2.13,2.13,0,0,0-.12.6v.06a21.35,21.35,0,0,0-.19,3.25,1.3,1.3,0,0,0,.49.79l.12.12.06.78a24,24,0,0,1,12.58,5,26.48,26.48,0,0,1,2.47,2.29l.73-.48h.12a.76.76,0,0,0,.36.06,1,1,0,0,0,.54-.18,15.91,15.91,0,0,0,2.41-2.17,2.77,2.77,0,0,0,.42-.42,8.71,8.71,0,0,1,.78-.85c.13-.06.19-.18.31-.24l.12-.12a2.23,2.23,0,0,1,1.32-.48,1.73,1.73,0,0,1,1.39.66,2,2,0,0,1-.43,2.71c0,.06-.06.06-.12.12s-.24.18-.3.24a9.15,9.15,0,0,1-1,.61c-.18.12-.36.18-.54.3a17.16,17.16,0,0,0-2.71,1.86,1.4,1.4,0,0,0-.3.91v.12l-.61.54a24.93,24.93,0,0,1,3.38,7.89,23.9,23.9,0,0,1,.42,8.49l.78.24c0,.06.06.06.06.12a1.18,1.18,0,0,0,.66.67,16,16,0,0,0,3.26.54h.06a2.25,2.25,0,0,0,.6.06,8.2,8.2,0,0,1,1.14.12c.12,0,.24.06.36.06s.06.06.12.06h.06a2.31,2.31,0,0,1,1.75,2A2,2,0,0,1,182.45,322.62Z"/><path class="cls-4" d="M168.18,304.31l-7.29,6.57a1.43,1.43,0,0,0-.36.66,1.63,1.63,0,0,0,1.15,1.93l9.21,2.65a19.1,19.1,0,0,0-.42-6.09A19.47,19.47,0,0,0,168.18,304.31Z"/><path class="cls-4" d="M155.29,305.94a1.61,1.61,0,0,0,2.11.36l7.89-5.6a18.29,18.29,0,0,0-10.84-5.24l.54,9.82A1.33,1.33,0,0,0,155.29,305.94Z"/><path class="cls-4" d="M147.58,306.6a1.64,1.64,0,0,0,1.63-1.56l.54-9.64-1.93.36a18.35,18.35,0,0,0-9,4.94l8,5.72A1.43,1.43,0,0,0,147.58,306.6Z"/></svg>