<svg xmlns="http://www.w3.org/2000/svg" version="1.1" xmlns:xlink="http://www.w3.org/1999/xlink" xmlns:svgjs="http://svgjs.com/svgjs" width="512" height="512" x="0" y="0" viewBox="0 0 682.66669 682.66669" style="enable-background:new 0 0 512 512" xml:space="preserve" class=""><g><defs id="defs10246"><clipPath clipPathUnits="userSpaceOnUse" id="clipPath10256"><path d="M 0,512 H 512 V 0 H 0 Z" id="path10254" fill="#23303d" data-original="#000000" class=""></path></clipPath></defs><g id="g10248" transform="matrix(1.3333333,0,0,-1.3333333,0,682.66667)"><g id="g10250"><g id="g10252" clip-path="url(#clipPath10256)"><g id="g10258" transform="translate(362.6621,7.5)"><path d="m 0,0 h -312.45 c -15.627,0 -28.296,12.669 -28.296,28.296 v 440.408 c 0,15.627 12.669,28.296 28.296,28.296 H 0 c 15.627,0 28.296,-12.669 28.296,-28.296 V 28.296 C 28.296,12.669 15.627,0 0,0" style="fill-opacity:1;fill-rule:nonzero;stroke:none" id="path10260" fill="#ffffff" data-original="#ffe8d2" class=""></path></g><g id="g10262" transform="translate(362.6602,504.5)"><path d="m 0,0 h -26.094 v -128.723 c 0,-170.877 -138.54,-309.399 -309.436,-309.399 h -5.213 v -30.584 c 0,-15.626 12.669,-28.294 28.297,-28.294 H 0 c 15.629,0 28.298,12.668 28.298,28.294 V -28.294 C 28.298,-12.668 15.628,0 0,0" style="fill-opacity:1;fill-rule:nonzero;stroke:none" id="path10264" fill="#ffffff" data-original="#f7d4ad" class=""></path></g><g id="g10266" transform="translate(243.79,297)"><path d="m 0,0 h -75.059 c -11.595,0 -20.325,10.558 -18.142,21.942 l 2.948,15.403 c 0.847,4.419 2.562,8.539 4.995,12.157 3.843,5.767 9.482,10.273 16.218,12.72 L -37.315,73.728 -5.836,62.31 c 6.771,-2.46 12.43,-7 16.279,-12.815 V 49.488 C 12.91,45.781 14.632,41.566 15.445,37.04 L 18.183,21.726 C 20.209,10.402 11.507,0 0,0" style="fill-opacity:1;fill-rule:nonzero;stroke:none" id="path10268" fill="#2470a9" data-original="#b8b6ff" class=""></path></g><g id="g10270" transform="translate(223.834,364.3867)"><path d="M 0,0 -17.75,-15.492 -35.487,0 V 23.782 H 0 Z" style="fill-opacity:1;fill-rule:nonzero;stroke:none" id="path10272" fill="#e09932" data-original="#ecbd83" class=""></path></g><g id="g10274" transform="translate(234.2744,430.1201)"><path d="m 0,0 v -20.157 c 0,-15.806 -12.938,-29.118 -28.742,-28.813 -15.317,0.295 -27.638,12.801 -27.638,28.183 V 0 c 0,15.566 12.621,23.69 28.19,23.69 h 0.001 C -12.621,23.69 0,15.566 0,0" style="fill-opacity:1;fill-rule:nonzero;stroke:none" id="path10276" fill="#ffffff" data-original="#f7d4ad" class=""></path></g><g id="g10278" transform="translate(176.7832,324.2139)"><path d="m 0,0 v -27.214 h -8.052 c -11.595,0 -20.325,10.558 -18.142,21.943 l 2.948,15.402 c 0.847,4.419 2.561,8.539 4.995,12.157 C -7.835,20.208 0,11.019 0,0" style="fill-opacity:1;fill-rule:nonzero;stroke:none" id="path10280" fill="#2470a9" data-original="#a09eef" class=""></path></g><g id="g10282" transform="translate(243.79,297)"><path d="m 0,0 h -7.761 v 27.214 c 0,10.999 7.815,20.181 18.204,22.274 2.467,-3.707 4.189,-7.922 5.002,-12.448 L 18.183,21.726 C 20.209,10.402 11.507,0 0,0" style="fill-opacity:1;fill-rule:nonzero;stroke:none" id="path10284" fill="#2470a9" data-original="#a09eef" class=""></path></g><g id="g10286" transform="translate(234.2744,431.4941)"><path d="M 0,0 C -1.056,-0.81 -1.842,-1.391 -1.842,-1.391 -3.839,-2.544 -6.007,-3.6 -8.33,-4.532 c -10.572,-4.23 -20.907,-4.386 -25.907,-0.884 0,0 -5.221,3.895 -7.176,6.382 -1.956,2.487 -8.175,3.117 -13.33,-2.357 -0.54,-0.572 -1.088,-0.949 -1.637,-1.17 v 1.17 c 0,15.579 12.626,28.203 28.206,28.203 7.79,0 14.844,-3.158 19.942,-8.263 C -3.43,13.754 -0.353,7.241 0,0" style="fill-opacity:1;fill-rule:nonzero;stroke:none" id="path10288" fill="#4c5152" data-original="#6e4848" class=""></path></g><g id="g10290" transform="translate(419.0254,166.1562)"><path d="m 0,0 -25.589,20.032 c -1.456,1.14 -3.502,1.14 -4.958,0 L -56.136,0 c -2.639,-2.066 -6.5,-0.186 -6.5,3.166 V 146.79 c 0,2.221 1.801,4.021 4.022,4.021 H 2.479 c 2.221,0 4.022,-1.8 4.022,-4.021 V 3.166 C 6.501,-0.186 2.64,-2.066 0,0" style="fill-opacity:1;fill-rule:nonzero;stroke:none" id="path10292" fill="#63d9b6" data-original="#ff445c" class=""></path></g><g id="g10294" transform="translate(490.0615,368.4619)"><path d="m 0,0 c 0,-12.623 -14.056,-22.36 -18.607,-33.337 -4.72,-11.378 -1.846,-28.16 -10.422,-36.734 -8.576,-8.575 -25.358,-5.699 -36.737,-10.416 -10.976,-4.551 -20.714,-18.605 -33.338,-18.605 -12.623,0 -22.361,14.054 -33.338,18.605 -11.379,4.718 -28.161,1.841 -36.736,10.416 -8.576,8.575 -5.703,25.356 -10.422,36.734 -4.552,10.977 -18.607,20.714 -18.607,33.337 0,12.623 14.055,22.36 18.607,33.337 4.719,11.378 1.846,28.16 10.422,36.734 8.576,8.575 25.357,5.699 36.737,10.416 10.976,4.551 20.714,18.605 33.337,18.605 12.624,0 22.362,-14.054 33.338,-18.605 11.38,-4.718 28.162,-1.841 36.737,-10.416 8.576,-8.575 5.702,-25.356 10.422,-36.734 C -14.056,22.36 0,12.623 0,0" style="fill-opacity:1;fill-rule:nonzero;stroke:none" id="path10296" fill="#e38082" data-original="#ff8b59" class=""></path></g><g id="g10298" transform="translate(392.5977,417.3838)"><path d="m 0,0 15.888,-23.729 c 0.26,-0.389 0.651,-0.673 1.102,-0.801 l 27.48,-7.775 c 1.351,-0.383 1.882,-2.015 1.013,-3.119 l -17.661,-22.44 c -0.29,-0.369 -0.438,-0.828 -0.421,-1.297 l 1.096,-28.533 c 0.054,-1.405 -1.335,-2.413 -2.653,-1.928 l -26.802,9.859 c -0.44,0.162 -0.923,0.162 -1.363,0 l -26.802,-9.859 c -1.318,-0.485 -2.708,0.523 -2.653,1.928 l 1.095,28.533 c 0.018,0.469 -0.131,0.928 -0.422,1.297 l -17.66,22.44 c -0.869,1.104 -0.338,2.736 1.014,3.119 l 27.479,7.775 c 0.452,0.128 0.842,0.412 1.103,0.801 L -3.279,0 C -2.498,1.167 -0.781,1.167 0,0" style="fill-opacity:1;fill-rule:nonzero;stroke:none" id="path10300" fill="#e09932" data-original="#fee07d" class=""></path></g><g id="g10302" transform="translate(21.916,447.2559)"><path d="m 0,0 v 28.949 c 0,15.628 12.668,28.295 28.298,28.295 h 312.444 c 15.629,0 28.298,-12.667 28.298,-28.295 v -8.632" style="stroke-width:15;stroke-linecap:round;stroke-linejoin:round;stroke-miterlimit:10;stroke-dasharray:none;stroke-opacity:1" id="path10304" fill="none" stroke="#23303d" stroke-width="15" stroke-linecap="round" stroke-linejoin="round" stroke-miterlimit="10" stroke-dasharray="none" stroke-opacity="" data-original="#000000" class=""></path></g><g id="g10306" transform="translate(390.9561,187.0449)"><path d="m 0,0 v -151.25 c 0,-15.628 -12.669,-28.295 -28.298,-28.295 h -312.444 c -15.63,0 -28.298,12.667 -28.298,28.295 v 378.434" style="stroke-width:15;stroke-linecap:round;stroke-linejoin:round;stroke-miterlimit:10;stroke-dasharray:none;stroke-opacity:1" id="path10308" fill="none" stroke="#23303d" stroke-width="15" stroke-linecap="round" stroke-linejoin="round" stroke-miterlimit="10" stroke-dasharray="none" stroke-opacity="" data-original="#000000" class=""></path></g><g id="g10310" transform="translate(188.5225,364.1504)"><path d="m 0,0 -13.603,-4.929 c -10.96,-3.974 -19.011,-13.429 -21.21,-24.872 l -2.941,-15.406 c -2.188,-11.383 6.545,-21.941 18.139,-21.941 h 37.744 37.312 c 11.504,0 20.218,10.398 18.19,21.72 l -2.74,15.317 C 68.813,-18.488 60.702,-8.863 49.609,-4.838 L 35.485,0.281" style="stroke-width:15;stroke-linecap:round;stroke-linejoin:round;stroke-miterlimit:10;stroke-dasharray:none;stroke-opacity:1" id="path10312" fill="none" stroke="#23303d" stroke-width="15" stroke-linecap="round" stroke-linejoin="round" stroke-miterlimit="10" stroke-dasharray="none" stroke-opacity="" data-original="#000000" class=""></path></g><g id="g10314" transform="translate(216.6494,383.2207)"><path d="m 0,0 h 7.358 v -18.789 -4.988 -0.011 c -10.169,-8.872 -25.326,-8.872 -35.485,0.011 V -19.07 0 h 7.117" style="stroke-width:15;stroke-linecap:round;stroke-linejoin:round;stroke-miterlimit:10;stroke-dasharray:none;stroke-opacity:1" id="path10316" fill="none" stroke="#23303d" stroke-width="15" stroke-linecap="round" stroke-linejoin="round" stroke-miterlimit="10" stroke-dasharray="none" stroke-opacity="" data-original="#000000" class=""></path></g><g id="g10318" transform="translate(234.4492,430.1201)"><path d="m 0,0 v -20.157 c 0,-15.806 -12.937,-29.118 -28.742,-28.813 -15.317,0.295 -27.637,12.801 -27.637,28.183 V 0 c 0,15.566 12.621,28.187 28.19,28.187 C -12.62,28.187 0,15.566 0,0 Z" style="stroke-width:15;stroke-linecap:round;stroke-linejoin:round;stroke-miterlimit:10;stroke-dasharray:none;stroke-opacity:1" id="path10320" fill="none" stroke="#23303d" stroke-width="15" stroke-linecap="round" stroke-linejoin="round" stroke-miterlimit="10" stroke-dasharray="none" stroke-opacity="" data-original="#000000" class=""></path></g><g id="g10322" transform="translate(200.2021,426.0947)"><path d="m 0,0 c 4.993,-3.502 15.326,-3.344 25.895,0.888 2.315,0.926 4.487,1.988 6.479,3.14" style="stroke-width:15;stroke-linecap:round;stroke-linejoin:round;stroke-miterlimit:10;stroke-dasharray:none;stroke-opacity:1" id="path10324" fill="none" stroke="#23303d" stroke-width="15" stroke-linecap="round" stroke-linejoin="round" stroke-miterlimit="10" stroke-dasharray="none" stroke-opacity="" data-original="#000000" class=""></path></g><g id="g10326" transform="translate(88.2637,168.5957)"><path d="M 0,0 H 233.57" style="stroke-width:15;stroke-linecap:round;stroke-linejoin:round;stroke-miterlimit:10;stroke-dasharray:none;stroke-opacity:1" id="path10328" fill="none" stroke="#23303d" stroke-width="15" stroke-linecap="round" stroke-linejoin="round" stroke-miterlimit="10" stroke-dasharray="none" stroke-opacity="" data-original="#000000" class=""></path></g><g id="g10330" transform="translate(88.2637,128.1553)"><path d="M 0,0 H 233.57" style="stroke-width:15;stroke-linecap:round;stroke-linejoin:round;stroke-miterlimit:10;stroke-dasharray:none;stroke-opacity:1" id="path10332" fill="none" stroke="#23303d" stroke-width="15" stroke-linecap="round" stroke-linejoin="round" stroke-miterlimit="10" stroke-dasharray="none" stroke-opacity="" data-original="#000000" class=""></path></g><g id="g10334" transform="translate(88.2637,87.7158)"><path d="M 0,0 H 233.57" style="stroke-width:15;stroke-linecap:round;stroke-linejoin:round;stroke-miterlimit:10;stroke-dasharray:none;stroke-opacity:1" id="path10336" fill="none" stroke="#23303d" stroke-width="15" stroke-linecap="round" stroke-linejoin="round" stroke-miterlimit="10" stroke-dasharray="none" stroke-opacity="" data-original="#000000" class=""></path></g><g id="g10338" transform="translate(88.2637,47.2754)"><path d="M 0,0 H 233.57" style="stroke-width:15;stroke-linecap:round;stroke-linejoin:round;stroke-miterlimit:10;stroke-dasharray:none;stroke-opacity:1" id="path10340" fill="none" stroke="#23303d" stroke-width="15" stroke-linecap="round" stroke-linejoin="round" stroke-miterlimit="10" stroke-dasharray="none" stroke-opacity="" data-original="#000000" class=""></path></g><g id="g10342" transform="translate(88.2637,249.4756)"><path d="M 0,0 H 233.57" style="stroke-width:15;stroke-linecap:round;stroke-linejoin:round;stroke-miterlimit:10;stroke-dasharray:none;stroke-opacity:1" id="path10344" fill="none" stroke="#23303d" stroke-width="15" stroke-linecap="round" stroke-linejoin="round" stroke-miterlimit="10" stroke-dasharray="none" stroke-opacity="" data-original="#000000" class=""></path></g><g id="g10346" transform="translate(88.2637,209.0361)"><path d="M 0,0 H 233.57" style="stroke-width:15;stroke-linecap:round;stroke-linejoin:round;stroke-miterlimit:10;stroke-dasharray:none;stroke-opacity:1" id="path10348" fill="none" stroke="#23303d" stroke-width="15" stroke-linecap="round" stroke-linejoin="round" stroke-miterlimit="10" stroke-dasharray="none" stroke-opacity="" data-original="#000000" class=""></path></g><g id="g10350" transform="translate(68.0986,168.5957)"><path d="m 0,0 c 0,-4.157 -3.371,-7.528 -7.529,-7.528 -4.159,0 -7.529,3.371 -7.529,7.528 0,4.157 3.37,7.527 7.529,7.527 C -3.371,7.527 0,4.157 0,0" style="fill-opacity:1;fill-rule:nonzero;stroke:none" id="path10352" fill="#23303d" data-original="#000000" class=""></path></g><g id="g10354" transform="translate(68.0986,249.4756)"><path d="m 0,0 c 0,-4.157 -3.371,-7.527 -7.529,-7.527 -4.159,0 -7.529,3.37 -7.529,7.527 0,4.158 3.37,7.528 7.529,7.528 C -3.371,7.528 0,4.158 0,0" style="fill-opacity:1;fill-rule:nonzero;stroke:none" id="path10356" fill="#23303d" data-original="#000000" class=""></path></g><g id="g10358" transform="translate(68.0986,209.0361)"><path d="m 0,0 c 0,-4.158 -3.371,-7.528 -7.529,-7.528 -4.159,0 -7.529,3.37 -7.529,7.528 0,4.157 3.37,7.527 7.529,7.527 C -3.371,7.527 0,4.157 0,0" style="fill-opacity:1;fill-rule:nonzero;stroke:none" id="path10360" fill="#23303d" data-original="#000000" class=""></path></g><g id="g10362" transform="translate(68.0986,128.1553)"><path d="m 0,0 c 0,-4.157 -3.371,-7.527 -7.529,-7.527 -4.159,0 -7.529,3.37 -7.529,7.527 0,4.158 3.37,7.528 7.529,7.528 C -3.371,7.528 0,4.158 0,0" style="fill-opacity:1;fill-rule:nonzero;stroke:none" id="path10364" fill="#23303d" data-original="#000000" class=""></path></g><g id="g10366" transform="translate(68.0986,87.7158)"><path d="m 0,0 c 0,-4.158 -3.371,-7.528 -7.529,-7.528 -4.159,0 -7.529,3.37 -7.529,7.528 0,4.157 3.37,7.527 7.529,7.527 C -3.371,7.527 0,4.157 0,0" style="fill-opacity:1;fill-rule:nonzero;stroke:none" id="path10368" fill="#23303d" data-original="#000000" class=""></path></g><g id="g10370" transform="translate(68.0986,47.2754)"><path d="m 0,0 c 0,-4.157 -3.371,-7.528 -7.529,-7.528 -4.159,0 -7.529,3.371 -7.529,7.528 0,4.157 3.37,7.527 7.529,7.527 C -3.371,7.527 0,4.157 0,0" style="fill-opacity:1;fill-rule:nonzero;stroke:none" id="path10372" fill="#23303d" data-original="#000000" class=""></path></g><g id="g10374" transform="translate(356.3936,288.4697)"><path d="m 0,0 v -119.15 c 0,-3.353 3.854,-5.23 6.495,-3.163 l 25.588,20.035 c 0.723,0.572 1.605,0.853 2.48,0.853 0.873,0 1.756,-0.281 2.479,-0.853 l 25.588,-20.035 c 2.64,-2.067 6.505,-0.19 6.505,3.163 v 83.697" style="stroke-width:15;stroke-linecap:round;stroke-linejoin:round;stroke-miterlimit:10;stroke-dasharray:none;stroke-opacity:1" id="path10376" fill="none" stroke="#23303d" stroke-width="15" stroke-linecap="round" stroke-linejoin="round" stroke-miterlimit="10" stroke-dasharray="none" stroke-opacity="" data-original="#000000" class=""></path></g><g id="g10378" transform="translate(490.084,368.4619)"><path d="m 0,0 c 0,-12.622 -14.099,-22.351 -18.65,-33.327 -4.719,-11.378 -1.808,-28.183 -10.383,-36.758 -8.576,-8.574 -25.383,-5.663 -36.762,-10.381 -10.977,-4.552 -20.708,-18.648 -33.331,-18.648 -12.624,0 -22.353,14.096 -33.331,18.648 -11.38,4.719 -28.187,1.807 -36.763,10.382 -8.575,8.574 -5.663,25.379 -10.382,36.757 -4.551,10.976 -18.65,20.705 -18.65,33.327 0,12.622 14.099,22.351 18.65,33.327 4.719,11.378 1.807,28.183 10.383,36.758 8.576,8.574 25.383,5.663 36.762,10.381 10.978,4.552 20.707,18.648 33.331,18.648 12.624,0 22.354,-14.096 33.331,-18.648 11.379,-4.719 28.187,-1.807 36.762,-10.382 8.576,-8.574 5.664,-25.379 10.383,-36.757 C -14.099,22.351 0,12.622 0,0 Z" style="stroke-width:15;stroke-linecap:round;stroke-linejoin:round;stroke-miterlimit:10;stroke-dasharray:none;stroke-opacity:1" id="path10380" fill="none" stroke="#23303d" stroke-width="15" stroke-linecap="round" stroke-linejoin="round" stroke-miterlimit="10" stroke-dasharray="none" stroke-opacity="" data-original="#000000" class=""></path></g><g id="g10382" transform="translate(392.5977,417.3838)"><path d="m 0,0 15.888,-23.729 c 0.26,-0.389 0.651,-0.673 1.102,-0.801 l 27.48,-7.775 c 1.351,-0.383 1.882,-2.015 1.013,-3.119 l -17.661,-22.44 c -0.29,-0.369 -0.438,-0.828 -0.421,-1.297 l 1.096,-28.533 c 0.054,-1.405 -1.335,-2.413 -2.653,-1.928 l -26.802,9.859 c -0.44,0.162 -0.923,0.162 -1.363,0 l -26.802,-9.859 c -1.318,-0.485 -2.708,0.523 -2.653,1.928 l 1.095,28.533 c 0.018,0.469 -0.131,0.928 -0.422,1.297 l -17.66,22.44 c -0.869,1.104 -0.338,2.736 1.014,3.119 l 27.479,7.775 c 0.452,0.128 0.842,0.412 1.103,0.801 L -3.279,0 C -2.498,1.167 -0.781,1.167 0,0 Z" style="stroke-width:15;stroke-linecap:round;stroke-linejoin:round;stroke-miterlimit:10;stroke-dasharray:none;stroke-opacity:1" id="path10384" fill="none" stroke="#23303d" stroke-width="15" stroke-linecap="round" stroke-linejoin="round" stroke-miterlimit="10" stroke-dasharray="none" stroke-opacity="" data-original="#000000" class=""></path></g></g></g></g></g></svg>