<?xml version="1.0" encoding="utf-8"?>
<!-- Generator: Adobe Illustrator 27.1.0, SVG Export Plug-In . SVG Version: 6.00 Build 0)  -->
<svg version="1.1" xmlns="http://www.w3.org/2000/svg" xmlns:xlink="http://www.w3.org/1999/xlink" x="0px" y="0px"
	 viewBox="0 0 873.3 244.1" style="enable-background:new 0 0 873.3 244.1;" xml:space="preserve">
<style type="text/css">
	.st0{display:none;}
	.st1{fill:#FF165D;}
	.st2{enable-background:new    ;}
	.st3{fill:#FFFFFF;}
	.st4{fill:#3E175C;}
</style>
<g id="Ebene_1">
	<g class="st0">
		
			<image style="display:inline;overflow:visible;enable-background:new    ;" width="870" height="240" xlink:href="2F23AA17.png"  transform="matrix(1 0 0 1 2.2979 3.0638)">
		</image>
	</g>
	<path pointer-events="all" class="st1" d="M540.3,193.6h325c4.1,0,7.5,3.4,7.5,7.5v35c0,4.1-3.4,7.5-7.5,7.5h-325
		c-4.1,0-7.5-3.4-7.5-7.5v-35C532.8,196.9,536.2,193.6,540.3,193.6z"/>
	<g transform="translate(-0.5 -0.5)">
		<g class="st2">
			<path class="st3" d="M635.2,233v-26.9H646c2,0,3.6,0.3,5,0.9c1.3,0.6,2.3,1.4,3,2.4c0.7,1,1,2.2,1,3.6c0,1.1-0.2,2-0.6,2.8
				c-0.4,0.8-1,1.4-1.7,1.9s-1.6,0.9-2.5,1.1v0.3c1,0,2,0.3,2.9,0.9s1.6,1.3,2.2,2.2s0.8,2.1,0.8,3.4c0,1.4-0.4,2.7-1.1,3.8
				c-0.7,1.1-1.7,2-3.1,2.6c-1.4,0.6-3.1,1-5.1,1H635.2z M640.9,217.4h4.2c0.8,0,1.5-0.1,2.1-0.4c0.6-0.3,1.1-0.7,1.4-1.2
				c0.4-0.5,0.5-1.1,0.5-1.8c0-1-0.3-1.8-1-2.4s-1.7-0.9-2.9-0.9h-4.3V217.4z M640.9,228.4h4.6c1.6,0,2.7-0.3,3.5-0.9
				c0.7-0.6,1.1-1.4,1.1-2.4c0-0.7-0.2-1.4-0.5-2c-0.4-0.6-0.9-1-1.5-1.3s-1.4-0.5-2.4-0.5h-4.8V228.4z"/>
			<path class="st3" d="M668.7,233.4c-2.1,0-3.9-0.4-5.4-1.3c-1.5-0.8-2.6-2-3.4-3.6c-0.8-1.6-1.2-3.4-1.2-5.5
				c0-2.1,0.4-3.9,1.2-5.5c0.8-1.6,1.9-2.8,3.4-3.7s3.2-1.3,5.2-1.3c1.3,0,2.6,0.2,3.7,0.6c1.2,0.4,2.2,1.1,3,1.9
				c0.9,0.8,1.5,1.9,2,3.2c0.5,1.3,0.7,2.8,0.7,4.5v1.5h-17v-3.5h11.8c0-0.8-0.2-1.5-0.5-2.1c-0.4-0.6-0.8-1.1-1.5-1.5
				c-0.6-0.4-1.3-0.5-2.1-0.5c-0.8,0-1.6,0.2-2.3,0.6s-1.2,0.9-1.5,1.6c-0.4,0.7-0.6,1.4-0.6,2.2v3.3c0,1,0.2,1.9,0.6,2.6
				c0.4,0.7,0.9,1.3,1.6,1.7c0.7,0.4,1.5,0.6,2.4,0.6c0.6,0,1.2-0.1,1.7-0.3c0.5-0.2,1-0.4,1.3-0.8c0.4-0.4,0.6-0.8,0.8-1.3l5.2,0.3
				c-0.3,1.2-0.8,2.3-1.6,3.3c-0.8,0.9-1.9,1.6-3.1,2.2C671.9,233.2,670.4,233.4,668.7,233.4z"/>
			<path class="st3" d="M684.4,210.2c-0.8,0-1.5-0.3-2.1-0.8c-0.6-0.6-0.9-1.2-0.9-2c0-0.8,0.3-1.4,0.9-2c0.6-0.6,1.3-0.8,2.1-0.8
				s1.5,0.3,2.1,0.8c0.6,0.6,0.9,1.2,0.9,2c0,0.8-0.3,1.4-0.9,2C686,210,685.3,210.2,684.4,210.2z M681.6,233v-20.2h5.6V233H681.6z"
				/>
			<path class="st3" d="M691.8,233v-26.9h5.6v10.1h0.2c0.2-0.5,0.6-1.1,1.1-1.7c0.5-0.6,1.1-1,1.8-1.4s1.7-0.6,2.8-0.6
				c1.5,0,2.8,0.4,4.1,1.1s2.2,1.9,3,3.5c0.7,1.5,1.1,3.5,1.1,5.8c0,2.3-0.4,4.1-1.1,5.7c-0.7,1.5-1.7,2.7-2.9,3.5s-2.6,1.2-4.2,1.2
				c-1.1,0-2-0.2-2.8-0.5c-0.8-0.4-1.4-0.8-1.9-1.4c-0.5-0.5-0.8-1.1-1.1-1.7h-0.2v3.2H691.8z M697.3,222.9c0,1.2,0.2,2.2,0.5,3.1
				c0.3,0.9,0.8,1.6,1.4,2.1s1.4,0.7,2.3,0.7c0.9,0,1.7-0.3,2.3-0.8c0.6-0.5,1.1-1.2,1.4-2.1c0.3-0.9,0.5-1.9,0.5-3.1
				c0-1.2-0.2-2.2-0.5-3.1c-0.3-0.9-0.8-1.6-1.4-2.1c-0.6-0.5-1.4-0.7-2.3-0.7c-0.9,0-1.7,0.2-2.3,0.7s-1.1,1.2-1.4,2
				S697.3,221.7,697.3,222.9z"/>
			<path class="st3" d="M724.3,233.4c-2,0-3.8-0.4-5.3-1.3c-1.5-0.9-2.6-2.1-3.4-3.7c-0.8-1.6-1.2-3.4-1.2-5.4
				c0-2.1,0.4-3.9,1.2-5.5s2-2.8,3.4-3.7c1.5-0.9,3.2-1.3,5.3-1.3s3.8,0.4,5.3,1.3c1.5,0.9,2.6,2.1,3.4,3.7c0.8,1.6,1.2,3.4,1.2,5.5
				c0,2.1-0.4,3.9-1.2,5.4c-0.8,1.6-2,2.8-3.4,3.7C728.1,233,726.4,233.4,724.3,233.4z M724.4,229.1c0.9,0,1.7-0.3,2.3-0.8
				c0.6-0.5,1.1-1.3,1.4-2.2c0.3-0.9,0.5-2,0.5-3.1s-0.2-2.2-0.5-3.1c-0.3-0.9-0.8-1.6-1.4-2.2s-1.4-0.8-2.3-0.8
				c-0.9,0-1.7,0.3-2.4,0.8c-0.6,0.5-1.1,1.3-1.4,2.2c-0.3,0.9-0.5,2-0.5,3.1s0.2,2.2,0.5,3.1c0.3,0.9,0.8,1.6,1.4,2.2
				C722.6,228.8,723.4,229.1,724.4,229.1z"/>
			<path class="st3" d="M747,233.4c-2,0-3.8-0.4-5.3-1.3c-1.5-0.9-2.6-2.1-3.4-3.7c-0.8-1.6-1.2-3.4-1.2-5.4c0-2.1,0.4-3.9,1.2-5.5
				s2-2.8,3.4-3.7c1.5-0.9,3.2-1.3,5.3-1.3s3.8,0.4,5.3,1.3c1.5,0.9,2.6,2.1,3.4,3.7c0.8,1.6,1.2,3.4,1.2,5.5c0,2.1-0.4,3.9-1.2,5.4
				c-0.8,1.6-2,2.8-3.4,3.7C750.8,233,749.1,233.4,747,233.4z M747.1,229.1c0.9,0,1.7-0.3,2.3-0.8c0.6-0.5,1.1-1.3,1.4-2.2
				c0.3-0.9,0.5-2,0.5-3.1s-0.2-2.2-0.5-3.1c-0.3-0.9-0.8-1.6-1.4-2.2s-1.4-0.8-2.3-0.8c-0.9,0-1.7,0.3-2.4,0.8
				c-0.6,0.5-1.1,1.3-1.4,2.2c-0.3,0.9-0.5,2-0.5,3.1s0.2,2.2,0.5,3.1c0.3,0.9,0.8,1.6,1.4,2.2C745.3,228.8,746.1,229.1,747.1,229.1
				z"/>
			<path class="st3" d="M771.4,212.9v4.2h-12.2v-4.2H771.4z M762,208h5.6v18.8c0,0.5,0.1,0.9,0.2,1.2c0.2,0.3,0.4,0.5,0.7,0.6
				c0.3,0.1,0.6,0.2,1,0.2c0.3,0,0.5,0,0.8-0.1c0.3,0,0.5-0.1,0.6-0.1l0.9,4.2c-0.3,0.1-0.7,0.2-1.2,0.3c-0.5,0.1-1.1,0.2-1.9,0.2
				c-1.3,0.1-2.5-0.1-3.5-0.5c-1-0.4-1.8-1.1-2.4-1.9s-0.8-2-0.8-3.3V208z"/>
		</g>
	</g>
</g>
<g id="Ebene_4">
	<g id="Layer_1">
		<g>
			<g>
				<g>
					<path class="st4" d="M339.6,118.6h52v19.1v40.1h-20.3v-13.8c-7.8,10.2-19.7,16.2-35.3,16.2c-31.1,0-54.4-25.1-54.4-57.4
						s23.9-57.4,56.8-57.4c26.3,0,47.9,17.3,53.2,38.9h-22.7c-4.2-10.2-16.2-17.9-30.5-17.9c-21.5,0-35.3,15-35.3,35.9
						c0,22.1,15,37.1,35.3,37.1c16.2,0,28.7-7.8,31.7-22.1h-30.5C339.6,137.2,339.6,118.6,339.6,118.6z"/>
					<path class="st4" d="M441.3,163.5c7.2,0,13.8-3.6,16.2-7.8h19.7c-4.8,16.2-18.5,25.1-36.5,25.1c-25.7,0-41.9-17.9-41.9-41.3
						s16.8-41.3,41.9-41.3c23.3,0,38.9,18.5,38.9,41.3c0,3,0,5.4-0.6,8.4h-58.6C422.7,158.1,431.1,163.5,441.3,163.5z M459.2,131.2
						c-2.4-11.4-10.8-15.6-19.1-15.6c-10.8,0-17.9,6-20.3,15.6H459.2z"/>
					<path class="st4" d="M529.8,118.6h-13.8v59.2h-20.3v-59.2H482V98.9h13.8V73.8h20.3v25.1h13.8V118.6z"/>
					<path class="st4" d="M616,67.8v110.1h-20.3v-9.6c-5.4,7.2-14.4,11.4-25.7,11.4c-20.9,0-38.3-17.9-38.3-41.3
						s17.3-41.3,38.3-41.3c11.4,0,19.7,4.2,25.7,11.4V67.8H616z M596.2,138.4c0-13.2-9-22.1-21.5-22.1c-12.6,0-21.5,9-21.5,22.1
						c0,13.2,9,22.1,21.5,22.1C586.7,160.5,596.2,151.5,596.2,138.4z"/>
					<path class="st4" d="M665.6,163.5c7.2,0,13.8-3.6,16.2-7.8h19.7c-4.8,16.2-18.5,25.1-36.5,25.1c-25.7,0-41.9-17.9-41.9-41.3
						s16.8-41.3,41.9-41.3c23.3,0,38.9,18.5,38.9,41.3c0,3,0,5.4-0.6,8.4h-58.6C647.1,158.1,656,163.5,665.6,163.5z M684.2,131.2
						c-2.4-11.4-10.8-15.6-19.1-15.6c-10.8,0-17.9,6-20.3,15.6H684.2z"/>
					<path class="st4" d="M753,180.2c-23.9,0-41.3-17.9-41.3-41.3S729,97.7,753,97.7c19.7,0,35.9,13.2,39.5,31.1h-21.5
						c-3-6.6-9.6-10.8-17.9-10.8c-12,0-20.9,9-20.9,21.5s9,21.5,20.9,21.5c8.4,0,15-4.2,17.9-10.8h21.5
						C788.9,167.1,772.7,180.2,753,180.2z"/>
					<path class="st4" d="M847.5,177.8L820,142.5v35.3h-20.3V67.8H820v65.8l25.7-34.7H869l-29.9,38.9l31.1,40.1H847.5z"/>
				</g>
			</g>
			<g>
				<path class="st1" d="M112.3,83.3v87.3l26.3-8.4V75L112.3,83.3z M112.3,83.3v87.3l26.3-8.4V75L112.3,83.3z M246.9,147.3
					l-20.3-89.7c-1.2-6-5.4-10.2-10.2-13.2L133.8,5c-5.4-2.4-11.4-2.4-16.8,0L34.5,45c-5.4,2.4-9,7.2-10.2,12.6L4,147.3
					c-1.2,5.4,0,11.4,3.6,16.2L65,235.3c3.6,4.8,9,7.2,15,7.2h91.5c6,0,11.4-2.4,15-7.2l57.4-71.8
					C246.9,158.7,248.1,152.7,246.9,147.3z M185.8,162.3L112.3,185v-14.4L65,185V83.3l73.6-22.7V75l47.3-14.4
					C185.8,60.6,185.8,162.3,185.8,162.3z M138.6,75l-26.3,8.4v87.3l26.3-8.4V75z M112.3,83.3v87.3l26.3-8.4V75L112.3,83.3z
					 M112.3,83.3v87.3l26.3-8.4V75L112.3,83.3z"/>
				<polygon class="st3" points="138.6,60.6 138.6,75 112.3,83.3 112.3,170.7 65,185 65,83.3 				"/>
				<polygon class="st3" points="185.8,60.6 185.8,162.3 112.3,185 112.3,170.7 138.6,162.3 138.6,75 				"/>
			</g>
		</g>
	</g>
	<g id="Isolation_Mode">
	</g>
</g>
</svg>
