<?xml version="1.0" encoding="utf-8"?>
<!-- Generator: Adobe Illustrator 23.0.3, SVG Export Plug-In . SVG Version: 6.00 Build 0)  -->
<svg version="1.1" id="Layer_1" xmlns="http://www.w3.org/2000/svg" xmlns:xlink="http://www.w3.org/1999/xlink" x="0px" y="0px"
	 viewBox="0 0 250 250" style="enable-background:new 0 0 250 250;" xml:space="preserve">
<style type="text/css">
	.st0{fill:url(#SVGID_1_);}
</style>
<linearGradient id="SVGID_1_" gradientUnits="userSpaceOnUse" x1="45.6486" y1="40.2225" x2="206.6045" y2="212.1839">
	<stop  offset="0" style="stop-color:#03DDCD"/>
	<stop  offset="1" style="stop-color:#00B4EF"/>
</linearGradient>
<path class="st0" d="M214,36C168.5-9.4,97.4-12.3,55.5,29.7L29.7,55.5C-12.3,97.4-9.4,168.5,36,214s116.5,48.3,158.4,6.4l25.9-25.9
	C262.3,152.6,259.4,81.5,214,36z M186.2,212c-38,38-102.1,35.6-142.9-5.3C10,173.5,1.4,123.3,22.4,84.7c0.1-0.2,0.3-0.5,0.5-0.6
	c0.7-0.7,1.7-1,2.6-0.7c1.2,0.3,1.9,1.5,1.7,2.7c-5.7,36.5,7.3,74.6,34.7,102.1c30,30,77,32,104.6,4.3c4.2-4.2,7.8-8.9,10.7-14.1
	c0-0.1,0.1-0.2,0.1-0.2c0,0,0.9-1.7,0.9-1.8c14.1-27,8.4-61.9-13.7-86c-1.8-2.2-3.8-4.1-6-5.8c-16.1-14.4-36.9-21.8-57.8-20.4
	c-1.2,0.1-2.2-0.6-2.5-1.7c-0.3-0.9,0-1.9,0.7-2.6c0.1-0.1,0.2-0.2,0.4-0.3c24.5-17.1,58.8-13.1,81.5,9.6
	C221.8,110,224.1,174.1,186.2,212z M82.8,138.7c-9.5-17.8-10.7-38.9-2.2-56.8c0.1-0.3,0.3-0.6,0.6-0.8c0.2-0.2,0.5-0.4,0.8-0.6
	c13.6-6.4,28.9-7.3,43.3-3.2c-17.6,3.1-33.4,15.8-39.6,34C82.5,120.5,81.6,129.8,82.8,138.7z M95.7,114.8
	c6.8-19.9,28.1-31.7,47.6-26.2c6.9,2,12.6,6.5,15.9,12.8c3.5,6.7,4,14.6,1.5,22.2c-2.9,8.4-10.1,14.3-18.2,15.9
	c0.6-0.5,1.3-1,1.9-1.5c8-8,8.4-20.5,0.9-28c-3.2-3.2-7.3-4.8-11.6-5.2l0-0.1c-15.9-1.7-21,11.2-21,11.2c-0.6,1.9-1.1,3.8-1.3,5.7
	c-0.5,2.3-0.5,4.7-0.1,7c0,0,0,0,0,0.1c0.7,5,3.8,9.7,3.8,9.7l0.1-0.1c0,0.1,0.1,0.1,0.1,0.1l-0.2,0c0,0,2.8,5.5,10.1,9.3
	c0,0,0.1,0.1,0.1,0.1c0,0,0,0,0,0v0c1.4,0.7,2.8,1.3,4.4,1.7c16.8,4.8,35.3-5.3,41.1-22.4c0.5-1.5,0.9-3,1.2-4.5
	c4.9,15,4.3,31.3-2.5,45.6c-0.1,0.3-0.3,0.6-0.6,0.8c-0.2,0.2-0.5,0.4-0.8,0.6c-13.7,6.5-29.3,7.3-43.9,3c-0.1-0.1-0.2-0.2-0.4-0.2
	c-11.5-3.2-20.7-10.6-26-20.7C92.1,140.6,91.3,127.6,95.7,114.8z M224.4,167.1c-1.8-0.7-1.5-3.7-1.5-3.7
	c5.5-36.3-7.5-74.2-34.8-101.5c-30-30-77-32-104.6-4.3c-4.2,4.2-7.8,8.9-10.7,14.1c0,0.1-0.1,0.1-0.1,0.2c0,0-0.8,1.6-0.9,1.7
	c-14.7,28-8.1,64.5,16,88.6c6.4,6.4,13.6,11.6,21.4,15.4c3.7,2,7.6,3.7,11.7,4.9c0.4,0.1,0.7,0.1,1.1,0.2c8.8,2.6,17.9,3.8,27.2,3.1
	c1.3-0.1,2.3,0.8,2.5,2c0.2,0.9-0.2,1.8-0.8,2.4c-0.1,0.1-0.3,0.3-0.5,0.4c-24.5,17-58.7,13-81.4-9.7C28.2,140,25.9,75.9,63.8,38
	c38-38,102.1-35.6,142.9,5.3c33.2,33.2,41.8,83.1,21,121.7C226.9,166.5,225.8,167.7,224.4,167.1z"/>
</svg>
