<svg xmlns="http://www.w3.org/2000/svg" version="1.1" xmlns:xlink="http://www.w3.org/1999/xlink" xmlns:svgjs="http://svgjs.com/svgjs" width="512" height="512" x="0" y="0" viewBox="0 0 256 256" style="enable-background:new 0 0 512 512" xml:space="preserve" class=""><g><g><g><g><g><g><g><g><g id="XMLID_200_"><path d="m184.071 59.616h-10.677c-.925-3.15-2.179-6.203-3.787-9.13l7.558-7.553c1.84-1.84 1.84-4.833 0-6.673l-12.356-12.346c-1.85-1.85-4.833-1.85-6.683 0l-7.543 7.548c-2.932-1.608-5.991-2.861-9.14-3.787v-10.677c0-2.604-2.113-4.717-4.717-4.717h-17.462c-2.614 0-4.727 2.113-4.727 4.717v10.677c-3.15.925-6.203 2.189-9.13 3.787l-7.553-7.548c-1.84-1.85-4.833-1.85-6.673 0l-12.346 12.346c-1.85 1.84-1.85 4.833 0 6.673l7.548 7.553c-1.729 3.185-3.064 6.517-4.009 9.949h-10.455c-2.604 0-4.717 2.108-4.717 4.707v17.477c0 2.599 2.113 4.717 4.717 4.717h10.935c.885 2.856 2.068 5.652 3.529 8.316l-7.548 7.553c-1.85 1.85-1.85 4.833 0 6.683l12.346 12.356c1.84 1.84 4.833 1.84 6.673 0l7.553-7.558c2.927 1.598 5.981 2.851 9.13 3.787v10.677c0 2.614 2.113 4.727 4.727 4.727h17.462c2.604 0 4.717-2.113 4.717-4.727v-10.677c3.15-.935 6.208-2.189 9.14-3.787l7.543 7.558c1.85 1.84 4.833 1.84 6.683 0l12.356-12.356c1.84-1.85 1.84-4.833 0-6.683l-7.558-7.543c1.608-2.932 2.861-5.991 3.787-9.14h10.677c2.614 0 4.727-2.113 4.727-4.717v-17.462c0-2.614-2.113-4.727-4.727-4.727zm-56.071 47.866c-18.999 0-34.403-15.404-34.403-34.403s15.404-34.403 34.403-34.403 34.403 15.404 34.403 34.403-15.404 34.403-34.403 34.403z" fill="#2470a9" data-original="#87828e" class=""></path></g><g id="XMLID_199_"><path d="m74.785 82.619v-17.477c0-2.599 2.113-4.707 4.717-4.707h-7.583c-2.604 0-4.717 2.108-4.717 4.707v17.477c0 2.599 2.113 4.717 4.717 4.717h7.583c-2.603 0-4.717-2.119-4.717-4.717zm11.633 27.269c-1.85-1.85-1.85-4.833 0-6.683l7.548-7.553c-1.461-2.664-2.644-5.46-3.529-8.316h-7.583c.885 2.856 2.068 5.652 3.529 8.316l-7.548 7.553c-1.85 1.85-1.85 4.833 0 6.683l12.346 12.356c1.84 1.84 4.833 1.84 6.673 0l.455-.455zm0-73.628 11.891-11.891-.455-.455c-1.84-1.85-4.833-1.85-6.673 0l-12.346 12.346c-1.85 1.84-1.85 4.833 0 6.673l7.548 7.553c-1.729 3.185-3.064 6.517-4.009 9.949h7.583c.945-3.433 2.28-6.764 4.009-9.949l-7.548-7.553c-1.85-1.84-1.85-4.833 0-6.673zm35.702 92.89v-10.677c-3.15-.935-6.203-2.189-9.13-3.787l-2.417 2.417c1.299.516 2.624.971 3.964 1.37v10.677c0 2.614 2.113 4.727 4.727 4.727h7.583c-2.613 0-4.727-2.113-4.727-4.727zm-2.856-116.869c-2.614 0-4.727 2.113-4.727 4.717v10.677c-1.34.394-2.664.849-3.964 1.37l2.417 2.417c2.927-1.598 5.981-2.861 9.13-3.787v-10.677c0-2.604 2.113-4.717 4.727-4.717z" fill="#2470a9" data-original="#a4a4a5" class=""></path></g><g id="XMLID_198_"><path d="m184.071 59.616h-7.583c2.614 0 4.727 2.113 4.727 4.727v17.462c0 2.604-2.113 4.717-4.727 4.717h7.583c2.614 0 4.727-2.113 4.727-4.717v-17.462c0-2.614-2.113-4.727-4.727-4.727zm-6.906-23.356-12.356-12.346c-1.85-1.85-4.833-1.85-6.683 0l-.45.45 11.906 11.896c1.84 1.84 1.84 4.833 0 6.673l-7.558 7.553c1.608 2.927 2.861 5.981 3.787 9.13h7.583c-.925-3.15-2.179-6.203-3.787-9.13l7.558-7.553c1.84-1.84 1.84-4.833 0-6.673zm0 66.945-7.558-7.543c1.608-2.932 2.861-5.991 3.787-9.14h-7.583c-.925 3.15-2.179 6.208-3.787 9.14l7.558 7.543c1.84 1.85 1.84 4.833 0 6.683l-11.906 11.906.45.45c1.85 1.84 4.833 1.84 6.683 0l12.356-12.356c1.84-1.85 1.84-4.833 0-6.683zm-35.722-75.53v-10.677c0-2.604-2.113-4.717-4.717-4.717h-7.583c2.604 0 4.717 2.113 4.717 4.717v10.677c3.15.925 6.208 2.179 9.14 3.787l2.417-2.417c-1.305-.52-2.63-.975-3.974-1.37zm1.557 87.011c-2.932 1.598-5.991 2.851-9.14 3.787v10.677c0 2.614-2.113 4.727-4.717 4.727h7.583c2.604 0 4.717-2.113 4.717-4.727v-10.677c1.34-.399 2.664-.854 3.969-1.37z" fill="#2470a9" data-original="#796e84" class=""></path></g></g></g></g></g><g><path id="XMLID_207_" d="m127.999 243.721 34.764-13.056v-42.875l-34.764 13.057z" fill="#63d9b6" data-original="#5fcdff" class=""></path><path id="XMLID_206_" d="m127.999 243.721-34.764-13.056v-42.875l34.764 13.057z" fill="#63d9b6" data-original="#5fcdff" class=""></path><path d="m162.765 187.788v42.879l-6.916 2.596v-42.879z" fill="#63d9b6" data-original="#30b6ff" class=""></path><path d="m134.917 198.25v42.874l-6.916 2.596v-42.874z" fill="#63d9b6" data-original="#73d7f9" class=""></path><path d="m127.999 174.734-34.764 13.056 34.766 13.055 34.762-13.055z" fill="#63d9b6" data-original="#5fcdff" class=""></path><path d="m128.001 200.846v42.874l-6.916-2.596v-42.874z" fill="#63d9b6" data-original="#30b6ff" class=""></path><path d="m100.153 190.384v42.879l-6.916-2.596v-42.879z" fill="#63d9b6" data-original="#73d7f9" class=""></path><path d="m162.765 187.788-34.764 13.058-6.685-2.513 28.078-10.545-28.078-10.544 6.685-2.508z" fill="#63d9b6" data-original="#30b6ff" class=""></path><path d="m105.686 187.788 28.539 10.72-6.224 2.338-34.764-13.058 34.764-13.052 6.224 2.337z" fill="#63d9b6" data-original="#73d7f9" class=""></path></g><g><g><path id="XMLID_229_" d="m39.257 201.282 34.764-13.057v-42.874l-34.764 13.057z" fill="#63d9b6" data-original="#5fcdff" class=""></path><path id="XMLID_228_" d="m39.257 201.282-34.764-13.057v-42.874l34.764 13.057z" fill="#63d9b6" data-original="#5fcdff" class=""></path><path d="m74.023 145.349v42.879l-6.916 2.595v-42.878z" fill="#63d9b6" data-original="#30b6ff" class=""></path><path d="m46.175 155.81v42.874l-6.916 2.596v-42.874z" fill="#63d9b6" data-original="#73d7f9" class=""></path><path d="m39.257 132.295-34.764 13.056 34.766 13.055 34.762-13.055z" fill="#63d9b6" data-original="#5fcdff" class=""></path><path d="m39.259 158.406v42.874l-6.916-2.596v-42.874z" fill="#63d9b6" data-original="#30b6ff" class=""></path><path d="m11.411 147.945v42.878l-6.916-2.595v-42.879z" fill="#63d9b6" data-original="#73d7f9" class=""></path><path d="m74.023 145.349-34.764 13.057-6.686-2.513 28.079-10.544-28.079-10.545 6.686-2.508z" fill="#63d9b6" data-original="#30b6ff" class=""></path><path d="m16.943 145.349 28.54 10.72-6.224 2.337-34.764-13.057 34.764-13.053 6.224 2.338z" fill="#63d9b6" data-original="#73d7f9" class=""></path></g><g><path id="XMLID_240_" d="m216.743 201.282-34.764-13.057v-42.874l34.764 13.057z" fill="#63d9b6" data-original="#5fcdff" class=""></path><path id="XMLID_239_" d="m216.743 201.282 34.764-13.057v-42.874l-34.764 13.057z" fill="#63d9b6" data-original="#5fcdff" class=""></path><path d="m181.977 145.349v42.879l6.916 2.595v-42.878z" fill="#63d9b6" data-original="#30b6ff" class=""></path><path d="m209.825 155.81v42.874l6.916 2.596v-42.874z" fill="#63d9b6" data-original="#73d7f9" class=""></path><path d="m216.743 132.295-34.764 13.056 34.762 13.055 34.766-13.055z" fill="#63d9b6" data-original="#5fcdff" class=""></path><path d="m216.741 158.406v42.874l6.916-2.596v-42.874z" fill="#63d9b6" data-original="#30b6ff" class=""></path><path d="m244.589 147.945v42.878l6.916-2.595v-42.879z" fill="#63d9b6" data-original="#73d7f9" class=""></path><path d="m181.977 145.349 34.764 13.057 6.686-2.513-28.079-10.544 28.079-10.545-6.686-2.508z" fill="#63d9b6" data-original="#30b6ff" class=""></path><path d="m239.057 145.349-28.54 10.72 6.224 2.337 34.764-13.057-34.764-13.053-6.224 2.338z" fill="#63d9b6" data-original="#73d7f9" class=""></path></g></g></g></g><g fill="#5f266d"><path d="m128 34.676c-21.175 0-38.402 17.228-38.402 38.403s17.228 38.402 38.402 38.402 38.402-17.227 38.402-38.402-17.227-38.403-38.402-38.403zm0 68.806c-16.764 0-30.402-13.639-30.402-30.402 0-16.765 13.639-30.403 30.402-30.403s30.402 13.639 30.402 30.403c0 16.763-13.638 30.402-30.402 30.402z" fill="#23303d" data-original="#5f266d" class=""></path><path d="m252.916 141.608c-.005-.002-32.17-12.082-32.175-12.084v-56.455c0-2.209-1.791-4-4-4h-23.943v-4.726c0-4.812-3.915-8.727-8.728-8.727h-7.777c-.533-1.483-1.136-2.937-1.804-4.354l5.504-5.5c3.399-3.399 3.399-8.93-.001-12.332l-12.354-12.344c-3.401-3.401-8.938-3.403-12.341.001l-5.491 5.495c-1.42-.668-2.877-1.271-4.363-1.806v-7.777c0-4.807-3.91-8.717-8.717-8.717h-17.462c-4.812 0-8.727 3.91-8.727 8.717v7.779c-1.476.533-2.929 1.136-4.354 1.806l-5.493-5.49c-3.423-3.442-8.959-3.407-12.338-.008l-12.337 12.337c-3.434 3.414-3.415 8.951-.009 12.337l5.503 5.507c-.788 1.683-1.485 3.41-2.086 5.167h-7.504c-4.807 0-8.717 3.906-8.717 8.707v3.927h-23.943c-2.209 0-4 1.791-4 4v56.454c-.005.002-32.17 12.082-32.175 12.084-1.579.596-2.591 2.127-2.591 3.743v42.875c0 1.667 1.033 3.159 2.594 3.745l34.764 13.057c.939.351 1.963.32 2.813 0l34.764-13.057c1.561-.586 2.594-2.078 2.594-3.745v-42.875c0-1.653-1.045-3.16-2.591-3.743-.005-.002-32.166-12.081-32.171-12.083v-52.454h19.943v5.55c0 4.807 3.91 8.717 8.717 8.717h8.082c.453 1.197.954 2.379 1.501 3.542l-5.495 5.5c-3.414 3.413-3.417 8.924-.002 12.339l12.348 12.357c3.398 3.399 8.93 3.399 12.33-.001l5.505-5.508c1.415.665 2.868 1.267 4.35 1.802v7.784c0 4.813 3.915 8.728 8.727 8.728h4.734v34.086c-.126.047-32.174 12.084-32.174 12.084-1.546.582-2.591 2.09-2.591 3.743v42.875c0 1.667 1.033 3.159 2.594 3.745l34.764 13.056c.937.351 1.948.323 2.813 0l34.764-13.056c1.561-.586 2.594-2.078 2.594-3.745v-42.877c0-1.647-1.043-3.161-2.591-3.743-.537-.202-31.635-11.881-32.172-12.083v-34.087h4.726c4.807 0 8.717-3.915 8.717-8.728v-7.783c1.484-.536 2.939-1.138 4.357-1.803l5.506 5.518c3.397 3.377 8.925 3.378 12.332-.008l12.363-12.363c3.379-3.398 3.379-8.927-.01-12.335l-5.502-5.491c.668-1.42 1.271-2.876 1.805-4.361h7.776c4.813 0 8.728-3.91 8.728-8.717v-4.736h19.943v52.456c-.005.002-32.166 12.081-32.171 12.083-1.547.584-2.591 2.088-2.591 3.743v42.875c0 1.667 1.033 3.159 2.594 3.745l34.764 13.057c.937.35 1.952.323 2.813 0l34.764-13.057c1.561-.586 2.594-2.078 2.594-3.745v-42.875c-.002-1.63-1.029-3.154-2.593-3.744zm-213.659 12.527-23.387-8.784 23.387-8.784 23.387 8.784zm-30.764-3.009 26.764 10.052v34.328l-26.764-10.051zm61.528 34.329-26.764 10.052v-34.328l26.764-10.052zm57.978 11.12-23.387-8.784 23.387-8.784 23.387 8.784zm-30.764-3.009 26.764 10.052v34.328l-26.764-10.052zm61.528 34.328-26.764 10.052v-34.328l26.764-10.052zm26.035-146.089c0 .395-.326.717-.728.717h-10.677c-1.775 0-3.338 1.17-3.838 2.873-.856 2.916-2.019 5.724-3.456 8.345-.854 1.56-.577 3.498.683 4.754l7.547 7.532c.29.292.29.75.008 1.034l-12.348 12.348c-.293.291-.751.29-1.032.011l-7.543-7.559c-1.254-1.256-3.186-1.535-4.745-.687-2.625 1.43-5.439 2.596-8.365 3.465-1.697.504-2.861 2.064-2.861 3.834v10.677c0 .401-.321.728-.717.728-6.305 0-11.159 0-17.462 0-.407 0-.727-.319-.727-.728v-10.677c0-1.771-1.164-3.33-2.861-3.834-2.922-.868-5.731-2.033-8.352-3.463-1.563-.852-3.493-.57-4.746.683l-7.553 7.558c-.28.281-.736.28-1.015.001l-12.347-12.357c-.285-.285-.292-.734.001-1.027l7.548-7.553c1.257-1.257 1.532-3.192.679-4.75-1.326-2.418-2.407-4.967-3.215-7.576-.519-1.676-2.067-2.818-3.821-2.818h-10.936c-.396 0-.717-.322-.717-.717v-17.477c0-.39.321-.707.717-.707h10.455c1.8 0 3.379-1.203 3.856-2.938.869-3.158 2.104-6.221 3.668-9.104.845-1.556.565-3.482-.687-4.735l-7.557-7.562c-.273-.272-.287-.715.008-1.008l12.354-12.354c.267-.27.711-.29 1.009.009l7.554 7.548c1.257 1.255 3.187 1.532 4.744.681 2.655-1.45 5.462-2.614 8.341-3.46 1.703-.5 2.872-2.063 2.872-3.837v-10.677c0-.395.326-.717.727-.717h17.462c.396 0 .717.322.717.717v10.677c0 1.774 1.169 3.337 2.872 3.837 2.919.858 5.727 2.021 8.346 3.457 1.56.855 3.495.578 4.752-.68l7.542-7.547c.287-.287.737-.291 1.028.001l12.354 12.344c.28.28.281.737.002 1.016l-7.558 7.553c-1.259 1.257-1.535 3.195-.679 4.754 1.438 2.618 2.6 5.421 3.454 8.332.5 1.703 2.063 2.873 3.838 2.873h10.677c.408 0 .728.319.728.727zm31.945 72.33-23.387-8.784 23.387-8.784 23.387 8.784zm-30.764-3.009 26.764 10.052v34.328l-26.764-10.052zm61.528 34.329-26.764 10.052v-34.328l26.764-10.052z" fill="#23303d" data-original="#5f266d" class=""></path><path d="m149.667 227.835c2.209 0 4-1.791 4-4v-.208c0-2.209-1.791-4-4-4s-4 1.791-4 4v.208c0 2.209 1.791 4 4 4z" fill="#23303d" data-original="#5f266d" class=""></path><path d="m149.667 212.626c2.209 0 4-1.791 4-4v-4c0-2.209-1.791-4-4-4s-4 1.791-4 4v4c0 2.209 1.791 4 4 4z" fill="#23303d" data-original="#5f266d" class=""></path></g></g></g></svg>