<svg xmlns="http://www.w3.org/2000/svg" version="1.1" xmlns:xlink="http://www.w3.org/1999/xlink" xmlns:svgjs="http://svgjs.com/svgjs" width="512" height="512" x="0" y="0" viewBox="0 0 512 512" style="enable-background:new 0 0 512 512" xml:space="preserve" class=""><g>
<g>
	<circle style="" cx="256.996" cy="255.102" r="66.994" fill="#63d9b6" data-original="#ffce62" class=""></circle>
	<g>
		<path style="" d="M380.389,270.409c-8.609-8.52-8.609-22.091,0-30.635l13.498-13.378
			c7.113-7.057,8.508-17.813,3.393-26.32l-20.573-34.272c-5.115-8.52-15.496-12.737-25.412-10.344l-18.814,4.544
			c-11.99,2.9-24.205-3.879-27.586-15.323l-5.303-17.934c-2.803-9.45-11.789-15.976-22.006-15.976h-41.172
			c-10.205,0-19.216,6.526-22.019,15.976l-5.291,17.934c-3.381,11.444-15.597,18.224-27.586,15.323l-18.826-4.544
			c-9.903-2.393-20.297,1.825-25.399,10.344l-20.56,34.272c-5.14,8.508-3.745,19.263,3.368,26.32l13.51,13.378
			c8.596,8.544,8.596,22.115,0,30.635L120.1,283.81c-7.113,7.057-8.508,17.813-3.368,26.32l20.56,34.272
			c5.103,8.52,15.496,12.737,25.399,10.332l18.826-4.556c11.989-2.876,24.205,3.903,27.586,15.335l5.291,17.934
			c2.803,9.462,11.813,15.988,22.019,15.988h41.172c10.217,0,19.203-6.526,22.006-15.988l5.303-17.934
			c3.381-11.432,15.596-18.211,27.586-15.335l18.814,4.556c9.916,2.405,20.297-1.813,25.412-10.332l20.573-34.272
			c5.115-8.508,3.72-19.263-3.393-26.32L380.389,270.409z M256.996,322.096c-36.986,0-66.994-31.422-66.994-67.001
			s30.008-66.987,66.994-66.987c37.001,0,66.994,31.407,66.994,66.986C323.99,290.674,293.997,322.096,256.996,322.096z" fill="#2470a9" data-original="#e0e7ef" class=""></path>
		<path style="stroke-width:20;stroke-linecap:round;stroke-linejoin:round;stroke-miterlimit:10;" d="
			M380.388,270.413c-8.607-8.524-8.607-22.096,0-30.639l13.5-13.381c7.112-7.057,8.508-17.81,3.387-26.315l-20.572-34.277
			c-5.111-8.514-15.491-12.734-25.406-10.334l-18.819,4.543c-11.985,2.895-24.207-3.886-27.585-15.324l-5.299-17.934
			c-2.813-9.458-11.797-15.981-22.008-15.981h-41.174c-10.212,0-19.215,6.524-22.018,15.981l-5.289,17.934
			c-3.387,11.438-15.6,18.219-27.595,15.324l-18.819-4.543c-9.905-2.4-20.295,1.819-25.396,10.334l-20.572,34.277
			c-5.131,8.505-3.734,19.258,3.378,26.315l13.51,13.381c8.597,8.543,8.597,22.115,0,30.639l-13.51,13.4
			c-7.112,7.057-8.508,17.81-3.378,26.315l20.572,34.277c5.101,8.514,15.491,12.734,25.396,10.333l18.819-4.553
			c11.995-2.886,24.207,3.895,27.595,15.334l5.289,17.934c2.803,9.457,11.806,15.981,22.018,15.981h41.174
			c10.212,0,19.195-6.524,22.008-15.981l5.299-17.934c3.378-11.438,15.6-18.22,27.585-15.334l18.819,4.553
			c9.915,2.4,20.295-1.819,25.406-10.333l20.572-34.277c5.121-8.505,3.724-19.258-3.387-26.315L380.388,270.413z" fill="none" stroke="#23303d" stroke-width="20" stroke-linecap="round" stroke-linejoin="round" stroke-miterlimit="10" data-original="#000000" class=""></path>
		<path style="stroke-width:20;stroke-linecap:round;stroke-linejoin:round;stroke-miterlimit:10;" d="
			M309.055,213.545c-12.283-15.286-31.036-25.437-52.059-25.437c-37,0-66.994,31.417-66.994,66.994
			c0,35.578,29.994,66.994,66.994,66.994c21.242,0,40.161-10.366,52.435-25.918" fill="none" stroke="#23303d" stroke-width="20" stroke-linecap="round" stroke-linejoin="round" stroke-miterlimit="10" data-original="#000000" class=""></path>
	</g>
	
		<polyline style="stroke-width:20;stroke-linecap:round;stroke-linejoin:round;stroke-miterlimit:10;" points="
		229.028,258.203 246.89,276.065 282.613,240.341 	" fill="none" stroke="#23303d" stroke-width="20" stroke-linecap="round" stroke-linejoin="round" stroke-miterlimit="10" data-original="#000000" class=""></polyline>
	
		<polyline style="stroke-width:20;stroke-linecap:round;stroke-linejoin:round;stroke-miterlimit:10;" points="
		293.546,449.591 272.621,481.026 303.684,501.498 	" fill="none" stroke="#23303d" stroke-width="20" stroke-linecap="round" stroke-linejoin="round" stroke-miterlimit="10" data-original="#000000" class=""></polyline>
	
		<polyline style="stroke-width:20;stroke-linecap:round;stroke-linejoin:round;stroke-miterlimit:10;" points="
		199.843,10.502 230.204,30.949 208.288,61.701 	" fill="none" stroke="#23303d" stroke-width="20" stroke-linecap="round" stroke-linejoin="round" stroke-miterlimit="10" data-original="#000000" class=""></polyline>
	<path style="stroke-width:20;stroke-linecap:round;stroke-linejoin:round;stroke-miterlimit:10;" d="
		M33.842,223.405C47.799,124.301,126.209,45.89,225.313,31.934" fill="none" stroke="#23303d" stroke-width="20" stroke-linecap="round" stroke-linejoin="round" stroke-miterlimit="10" data-original="#000000" class=""></path>
	<path style="stroke-width:20;stroke-linecap:round;stroke-linejoin:round;stroke-miterlimit:10;" d="
		M288.696,31.934C387.8,45.89,466.21,124.301,480.166,223.405" fill="none" stroke="#23303d" stroke-width="20" stroke-linecap="round" stroke-linejoin="round" stroke-miterlimit="10" data-original="#000000" class=""></path>
	<path style="stroke-width:20;stroke-linecap:round;stroke-linejoin:round;stroke-miterlimit:10;" d="
		M225.313,478.258c-99.104-13.957-177.514-92.367-191.471-191.471" fill="none" stroke="#23303d" stroke-width="20" stroke-linecap="round" stroke-linejoin="round" stroke-miterlimit="10" data-original="#000000" class=""></path>
	<path style="stroke-width:20;stroke-linecap:round;stroke-linejoin:round;stroke-miterlimit:10;" d="
		M480.166,286.788C466.21,385.892,387.8,464.302,288.696,478.258" fill="none" stroke="#23303d" stroke-width="20" stroke-linecap="round" stroke-linejoin="round" stroke-miterlimit="10" data-original="#000000" class=""></path>
	
		<polyline style="stroke-width:20;stroke-linecap:round;stroke-linejoin:round;stroke-miterlimit:10;" points="
		62.911,292.04 31.476,271.115 10,302.177 	" fill="none" stroke="#23303d" stroke-width="20" stroke-linecap="round" stroke-linejoin="round" stroke-miterlimit="10" data-original="#000000" class=""></polyline>
	
		<polyline style="stroke-width:20;stroke-linecap:round;stroke-linejoin:round;stroke-miterlimit:10;" points="
		502,198.337 481.553,228.698 449.797,206.782 	" fill="none" stroke="#23303d" stroke-width="20" stroke-linecap="round" stroke-linejoin="round" stroke-miterlimit="10" data-original="#000000" class=""></polyline>
	
		<line style="stroke-width:20;stroke-linecap:round;stroke-linejoin:round;stroke-miterlimit:10;" x1="323.99" y1="255.095" x2="323.99" y2="255.095" fill="none" stroke="#23303d" stroke-width="20" stroke-linecap="round" stroke-linejoin="round" stroke-miterlimit="10" data-original="#000000" class=""></line>
</g>















</g></svg>