<svg id="Layer_1" data-name="Layer 1" xmlns="http://www.w3.org/2000/svg" viewBox="0 0 500 500">
  <defs>
    <style>
      .cls-iteration-1,
      .cls-iteration-2,
      .cls-iteration-3 {
        fill: none;
        stroke-linecap: round;
        stroke-linejoin: round;
        stroke-width: 4px;
      }

      .cls-iteration-1 {
        stroke: #fff;
      }

      .cls-iteration-2 {
        stroke: #f7931e;
      }

      .cls-iteration-3 {
        stroke: #ff7680;
      }

    </style>
  </defs>
  <polygon class="cls-iteration-1" points="276.74 328.01 294.62 381.36 332.36 339.62 276.74 328.01" />
  <rect class="cls-iteration-2" x="294.43" y="156.76" width="56.82" height="178.94" transform="translate(57.14 -60.78) rotate(11.79)" />
  <path class="cls-iteration-3" d="M335.75,120.77h20.16a18.33,18.33,0,0,1,18.33,18.33v12.37a0,0,0,0,1,0,0H317.41a0,0,0,0,1,0,0V139.1A18.33,18.33,0,0,1,335.75,120.77Z" transform="translate(35.12 -67.81) rotate(11.79)" />
  <rect class="cls-iteration-1" x="313.49" y="151.07" width="56.82" height="7.66" transform="translate(38.88 -66.61) rotate(11.79)" />
  <line class="cls-iteration-2" x1="328" y1="174.36" x2="298.81" y2="314.16" />
  <line class="cls-iteration-2" x1="346.86" y1="178.3" x2="317.67" y2="318.1" />
  <path class="cls-iteration-1" d="M126.58,365c15.52,0,15.52,20,31,20s15.52-20,31-20,15.52,20,31,20,15.53-20,31.05-20,15.52,20,31,20" />
  <path class="cls-iteration-1" d="M126.58,318c13.3,0,13.3,20,26.6,20s13.29-20,26.59-20,13.3,20,26.59,20,13.3-20,26.6-20,13.3,20,26.6,20" />
  <path class="cls-iteration-1" d="M126.58,271c13.3,0,13.3,20,26.6,20s13.29-20,26.59-20,13.3,20,26.59,20,13.3-20,26.6-20,13.3,20,26.6,20" />
</svg>
