<svg id="Layer_1" data-name="Layer 1" xmlns="http://www.w3.org/2000/svg" viewBox="0 0 500 500">
  <defs>
    <style>
      .cls-peeled-1,
      .cls-peeled-2 {
        fill: none;
        stroke-linecap: round;
        stroke-linejoin: round;
        stroke-width: 4px;
      }

      .cls-peeled-1 {
        stroke: #63d9b6;
      }

      .cls-peeled-2 {
        stroke: #fff;
      }

    </style>
  </defs>
  <circle class="cls-peeled-1" cx="157.65" cy="275.1" r="51.62" />
  <ellipse class="cls-peeled-2" cx="157.65" cy="275.1" rx="85.36" ry="51.62" />
  <path class="cls-peeled-2" d="M174.06,267.18a8.49,8.49,0,0,1-5.85-14.64,24.87,24.87,0,1,0,12,12A8.49,8.49,0,0,1,174.06,267.18Z" />
  <line class="cls-peeled-2" x1="157.65" y1="202.55" x2="157.65" y2="173.28" />
  <line class="cls-peeled-2" x1="121.37" y1="212.27" x2="106.74" y2="186.92" />
  <line class="cls-peeled-2" x1="193.92" y1="212.27" x2="208.56" y2="186.92" />
  <circle class="cls-peeled-1" cx="342.35" cy="275.1" r="51.62" />
  <ellipse class="cls-peeled-2" cx="342.35" cy="275.1" rx="85.36" ry="51.62" />
  <path class="cls-peeled-2" d="M358.77,267.18a8.49,8.49,0,0,1-5.86-14.64,24.91,24.91,0,1,0,12,12A8.47,8.47,0,0,1,358.77,267.18Z" />
  <line class="cls-peeled-2" x1="342.35" y1="202.55" x2="342.35" y2="173.28" />
  <line class="cls-peeled-2" x1="306.08" y1="212.27" x2="291.44" y2="186.92" />
  <line class="cls-peeled-2" x1="378.63" y1="212.27" x2="393.26" y2="186.92" />
</svg>
