<svg id="Layer_1" data-name="Layer 1" xmlns="http://www.w3.org/2000/svg" viewBox="0 0 500 500">
  <defs>
    <style>
      .cls-window-1,
      .cls-window-2 {
        fill: none;
        stroke-linecap: round;
        stroke-linejoin: round;
        stroke-width: 4px;
      }

      .cls-window-1 {
        stroke: #f7931e;
      }

      .cls-window-2 {
        stroke: #fff;
      }

    </style>
  </defs>
  <rect class="cls-window-1" x="107.75" y="107.75" width="284.51" height="284.51" />
  <rect class="cls-window-2" x="260" y="127.75" width="112.25" height="112.25" />
  <rect class="cls-window-2" x="127.75" y="127.75" width="112.25" height="112.25" />
  <rect class="cls-window-2" x="127.75" y="260" width="112.25" height="112.25" />
  <rect class="cls-window-2" x="260" y="260" width="112.25" height="112.25" />
  <polygon class="cls-window-2" points="337.19 142.48 328.68 161.84 293.84 152.16 298.48 171.9 278.36 183.87 300.03 190.48 286.1 219.13 320.16 208.29 334.1 223.52 343.39 187.39 358.87 190.48 352.68 155.65 338.74 167.26 337.19 142.48" />
  <polygon class="cls-window-2" points="165.29 356.65 173.81 337.29 208.65 346.97 204 327.23 224.13 315.26 202.45 308.65 216.39 280 182.32 290.84 168.39 275.61 159.1 311.74 143.62 308.65 149.81 343.49 163.75 331.87 165.29 356.65" />
  <line class="cls-window-2" x1="208.71" y1="149.02" x2="181.75" y2="175.98" />
  <line class="cls-window-2" x1="199.69" y1="175.49" x2="172.72" y2="202.45" />
  <line class="cls-window-2" x1="323.27" y1="297.79" x2="296.31" y2="324.75" />
  <line class="cls-window-2" x1="314.24" y1="324.27" x2="287.28" y2="351.23" />
</svg>
