<?xml version="1.0" encoding="utf-8"?>
<!-- Generator: Adobe Illustrator 24.0.0, SVG Export Plug-In . SVG Version: 6.00 Build 0)  -->
<svg version="1.1" id="Layer_1" xmlns="http://www.w3.org/2000/svg" xmlns:xlink="http://www.w3.org/1999/xlink" x="0px" y="0px"
	 viewBox="0 0 100 100" style="enable-background:new 0 0 100 100;" xml:space="preserve">
<g>
	<path style="fill:#FFFFFF;" d="M75.3,65.8L64.1,54.6l-0.5,0.5c-0.8,0.8-2,0.8-2.8,0c-0.8-0.8-0.8-2,0-2.8l0.5-0.5L58.5,49l-9.4,9.4
		l2.8,2.8l0.5-0.5c0.8-0.8,2-0.8,2.8,0c0.8,0.8,0.8,2,0,2.8L54.7,64l11.2,11.2c0.3,0.3,0.7,0.6,1.1,0.9l9.1-9.1
		C75.9,66.5,75.6,66.1,75.3,65.8L75.3,65.8z"/>
	
		<rect x="48.6" y="53.1" transform="matrix(0.7071 -0.7071 0.7071 0.7071 -22.7883 55.1797)" style="fill:#CFD1D4;" width="13.3" height="4"/>
	<path style="fill:none;stroke:#63D9B6;stroke-width:0.75;stroke-linecap:round;stroke-linejoin:round;stroke-miterlimit:10;" d="
		M75.3,65.8L64.1,54.6l-0.5,0.5c-0.8,0.8-2,0.8-2.8,0c-0.8-0.8-0.8-2,0-2.8l0.5-0.5L58.5,49l-9.4,9.4l2.8,2.8l0.5-0.5
		c0.8-0.8,2-0.8,2.8,0c0.8,0.8,0.8,2,0,2.8L54.7,64l11.2,11.2c0.3,0.3,0.7,0.6,1.1,0.9l9.1-9.1C75.9,66.5,75.6,66.1,75.3,65.8
		L75.3,65.8z"/>
	<path style="fill:#FFFFFF;" d="M76.2,66.9L67,76.1c3.1,2,7.2,1.1,9.1-2C77.6,71.9,77.6,69.1,76.2,66.9L76.2,66.9z"/>
	<path style="fill:#CFD1D4;" d="M77.2,70.5c0-1.3-0.4-2.5-1-3.6l-2.7,2.7v6.8C75.8,75.4,77.2,73,77.2,70.5L77.2,70.5z"/>
	<path style="fill:none;stroke:#97A2A6;stroke-width:0.75;stroke-miterlimit:10;" d="M76.2,66.9L67,76.1c3.1,2,7.2,1.1,9.1-2
		C77.6,71.9,77.6,69.1,76.2,66.9L76.2,66.9z"/>
	<polygon style="fill:none;stroke:#97A2A6;stroke-width:0.75;stroke-miterlimit:10;" points="34.1,30.3 33.2,26.5 26.6,22.8 
		22.9,26.5 26.6,33.1 30.4,34 51.9,55.6 55.7,51.8 	"/>
	<polygon style="fill:#FFFFFF;" points="34.1,30.3 33.2,26.5 26.6,22.8 22.9,26.5 26.6,33.1 30.4,34 51.9,55.6 55.7,51.8 	"/>
	
		<rect x="42.5" y="43.3" transform="matrix(0.7071 -0.7071 0.7071 0.7071 -18.6112 45.0957)" style="fill:#CFD1D4;" width="5.3" height="3.3"/>
	<polygon style="fill:none;stroke:#97A2A6;stroke-width:0.75;stroke-miterlimit:10;" points="34.1,30.3 33.2,26.5 26.6,22.8 
		22.9,26.5 26.6,33.1 30.4,34 51.9,55.6 55.7,51.8 	"/>
	<path style="fill:#FFFFFF;stroke:#97A2A6;stroke-width:0.75;stroke-miterlimit:10;" d="M76.9,30.6l-6.2,6.2l-5.6-1.9l-1.9-5.6
		l6.2-6.2c-5.5-1.4-11.1,1.9-12.5,7.4c-0.4,1.7-0.4,3.4,0,5.1L35.7,56.8c-5.6-1.4-11.2,1.9-12.6,7.5c-1.4,5.6,1.9,11.2,7.5,12.6
		c5.6,1.4,11.2-1.9,12.6-7.5c0.4-1.7,0.4-3.4,0-5.1l21.3-21.3c5.5,1.4,11.1-1.9,12.5-7.4C77.3,34,77.3,32.2,76.9,30.6z M36,71.5
		h-5.6l-2.8-4.7l2.8-4.7H36l2.8,4.7L36,71.5z"/>
	<line style="fill:#FFFFFF;stroke:#97A2A6;stroke-width:0.75;stroke-miterlimit:10;" x1="60.3" y1="39.7" x2="39.7" y2="60.3"/>
	
		<line style="fill:none;stroke:#63D9B6;stroke-width:0.75;stroke-linecap:round;stroke-linejoin:round;stroke-miterlimit:10;" x1="60.3" y1="60.3" x2="69.7" y2="69.7"/>
</g>
</svg>
