<svg xmlns="http://www.w3.org/2000/svg" version="1.1" xmlns:xlink="http://www.w3.org/1999/xlink" xmlns:svgjs="http://svgjs.com/svgjs" width="512" height="512" x="0" y="0" viewBox="0 0 64 64" style="enable-background:new 0 0 512 512" xml:space="preserve" class=""><g><g><g><g><path d="m62 6v43.5c0-.89-.58-1.69-1.43-1.97-.57-.19-1.04-.62-1.26-1.18-.05-.12-.1-.24-.15-.36-.24-.55-.21-1.18.06-1.72.15-.3.23-.62.23-.94 0-.53-.21-1.06-.61-1.46l-.71-.71c-.04-.04-.09-.09-.14-.11l.01-.01v-34.04c0-.55-.45-1-1-1h-22c-.55 0-1 .45-1 1v27.68.01c-1.25-.45-2.59-.69-4-.69v-28c0-2.21 1.79-4 4-4h24c2.21 0 4 1.79 4 4z" fill="#2470a9" data-original="#fcd770" class=""></path></g><g><path d="m44.27 40.78c-.3-.15-.62-.23-.94-.23-.53 0-1.06.21-1.46.61l-.63.63c-1.24-3.31-3.9-5.93-7.24-7.1v-.01-27.68c0-.55.45-1 1-1h22c.55 0 1 .45 1 1v34.04l-.01.01c-.62-.54-1.51-.65-2.26-.27-.29.15-.61.22-.93.22-.27 0-.54-.05-.79-.16-.12-.05-.24-.1-.36-.15-.56-.22-.99-.69-1.18-1.26-.28-.85-1.08-1.43-1.97-1.43h-1c-.89 0-1.69.58-1.97 1.43-.19.57-.62 1.04-1.18 1.26-.12.05-.24.1-.36.15-.55.24-1.18.21-1.72-.06z" fill="#63d9b6" data-original="#ffeaa7" class=""></path></g><g><path d="m40.69 53.65c.05.12.1.24.15.36.24.55.21 1.18-.06 1.72-.15.3-.23.62-.23.94 0 .47.17.94.5 1.32l-.01.01h-33.04c-3.31 0-6-2.69-6-6s2.69-6 6-6c.84 0 1.64.17 2.36.48 1.09-3.74 4.54-6.48 8.64-6.48.2 0 .4.01.59.02 2.08-3.6 5.96-6.02 10.41-6.02 1.41 0 2.75.24 4 .69 3.34 1.17 6 3.79 7.24 7.1l-.08.08c-.63.63-.79 1.6-.38 2.4.15.29.22.61.22.93 0 .27-.05.54-.16.79-.05.12-.1.24-.15.36-.22.56-.69.99-1.26 1.18-.85.28-1.43 1.08-1.43 1.97v1c0 .89.58 1.69 1.43 1.97.57.19 1.04.62 1.26 1.18z" fill="#ffffff" data-original="#e6e9ed" class=""></path></g><g><path d="m62 50v.5c0 .89-.58 1.69-1.43 1.97-.57.19-1.04.62-1.26 1.18-.05.12-.1.24-.15.36-.11.25-.16.52-.16.79 0 .32.07.64.22.93.41.8.25 1.77-.38 2.4l-.71.71c-.4.4-.93.61-1.46.61-.32 0-.64-.08-.94-.23-.54-.27-1.17-.3-1.72-.06-.12.05-.24.1-.36.15-.56.22-.99.69-1.18 1.26-.28.85-1.08 1.43-1.97 1.43h-1c-.89 0-1.69-.58-1.97-1.43-.19-.57-.62-1.04-1.18-1.26-.12-.05-.24-.1-.36-.15-.25-.11-.52-.16-.79-.16-.32 0-.64.07-.93.22-.8.41-1.77.25-2.4-.38l-.71-.71c-.04-.04-.09-.09-.11-.14-.33-.38-.5-.85-.5-1.32 0-.32.08-.64.23-.94.27-.54.3-1.17.06-1.72-.05-.12-.1-.24-.15-.36-.22-.56-.69-.99-1.26-1.18-.85-.28-1.43-1.08-1.43-1.97v-1c0-.89.58-1.69 1.43-1.97.57-.19 1.04-.62 1.26-1.18l.15-.36c.11-.25.16-.52.16-.79 0-.32-.07-.64-.22-.93-.41-.8-.25-1.77.38-2.4l.08-.08.63-.63c.4-.4.93-.61 1.46-.61.32 0 .64.08.94.23.54.27 1.17.3 1.72.06.12-.05.24-.1.36-.15.56-.22.99-.69 1.18-1.26.28-.85 1.08-1.43 1.97-1.43h1c.89 0 1.69.58 1.97 1.43.19.57.62 1.04 1.18 1.26l.36.15c.25.11.52.16.79.16.32 0 .64-.07.93-.22.75-.38 1.64-.27 2.26.27.05.02.1.07.14.11l.71.71c.4.4.61.93.61 1.46 0 .32-.08.64-.23.94-.27.54-.3 1.17-.06 1.72.05.12.1.24.15.36.22.56.69.99 1.26 1.18.85.28 1.43 1.08 1.43 1.97zm-6 0c0-3.31-2.69-6-6-6s-6 2.69-6 6 2.69 6 6 6 6-2.69 6-6z" fill="#e09932" data-original="#fc6e51" class=""></path></g><g><path d="m50 44c3.31 0 6 2.69 6 6s-2.69 6-6 6-6-2.69-6-6 2.69-6 6-6zm2 6c0-1.1-.9-2-2-2s-2 .9-2 2 .9 2 2 2 2-.9 2-2z" fill="#edeff0" data-original="#ff826e" class=""></path></g><g><path d="m26 20.62c0 .25-.06.5-.17.72l-3.38 6.77c-.28.54-.84.89-1.45.89s-1.17-.35-1.45-.89l-3.38-6.77c-.11-.22-.17-.47-.17-.72 0-.9.72-1.62 1.62-1.62h1.38v-16h4v16h1.38c.9 0 1.62.72 1.62 1.62z" fill="#e38082" data-original="#ccd1d9" class=""></path></g><g><path d="m11.83 22.66c.11.22.17.47.17.72 0 .9-.72 1.62-1.62 1.62h-1.38v16h-4v-16h-1.38c-.9 0-1.62-.72-1.62-1.62 0-.25.06-.5.17-.72l3.38-6.77c.28-.54.84-.89 1.45-.89s1.17.35 1.45.89z" fill="#e38082" data-original="#ccd1d9" class=""></path></g></g><g><path d="m50 43c-3.86 0-7 3.14-7 7s3.14 7 7 7 7-3.14 7-7-3.14-7-7-7zm0 12c-2.757 0-5-2.243-5-5s2.243-5 5-5 5 2.243 5 5-2.243 5-5 5z" fill="#23303d" data-original="#000000" class=""></path><path d="m50 47c-1.654 0-3 1.346-3 3s1.346 3 3 3 3-1.346 3-3-1.346-3-3-3zm0 4c-.551 0-1-.449-1-1s.449-1 1-1 1 .449 1 1-.449 1-1 1z" fill="#23303d" data-original="#000000" class=""></path><path d="m3.618 26h.382v15h2v-17h-2.382c-.341 0-.618-.277-.618-.618 0-.095.022-.191.065-.276l3.382-6.764c.211-.421.895-.421 1.105 0l3.382 6.764c.044.085.066.181.066.276 0 .341-.277.618-.618.618h-2.382v17h2v-15h.382c1.444 0 2.618-1.174 2.618-2.618 0-.404-.096-.809-.276-1.171l-3.382-6.763c-.446-.893-1.343-1.448-2.342-1.448s-1.896.555-2.342 1.447l-3.382 6.764c-.18.362-.276.767-.276 1.171 0 1.444 1.174 2.618 2.618 2.618z" fill="#23303d" data-original="#000000" class=""></path><path d="m18.658 28.552c.446.893 1.343 1.448 2.342 1.448s1.896-.555 2.342-1.447l3.382-6.764c.18-.362.276-.767.276-1.171 0-1.444-1.174-2.618-2.618-2.618h-.382v-15h-2v17h2.382c.341 0 .618.277.618.618 0 .095-.022.191-.065.276l-3.382 6.764c-.211.421-.895.421-1.105 0l-3.382-6.764c-.044-.085-.066-.181-.066-.276 0-.341.277-.618.618-.618h2.382v-17h-2v15h-.382c-1.444 0-2.618 1.174-2.618 2.618 0 .404.096.809.276 1.171z" fill="#23303d" data-original="#000000" class=""></path><path d="m58 1h-24c-2.757 0-5 2.243-5 5v27.043c-4.049.315-7.751 2.526-9.951 5.96-.016 0-.032-.003-.049-.003-4.066 0-7.734 2.511-9.253 6.221-.568-.147-1.152-.221-1.747-.221-3.86 0-7 3.14-7 7s3.14 7 7 7h32.616l.544.544c.942.941 2.373 1.171 3.561.57.281-.144.599-.157.874-.038.129.056.26.11.39.161.28.108.497.345.596.648.416 1.265 1.59 2.115 2.921 2.115h.996c1.331 0 2.505-.85 2.921-2.116.099-.302.316-.538.594-.646.132-.051.263-.104.393-.161.272-.119.591-.104.873.038 1.189.601 2.619.371 3.561-.57l.705-.704c.942-.941 1.171-2.373.57-3.561-.143-.282-.156-.6-.038-.874.056-.129.11-.26.161-.39.108-.28.345-.497.648-.596 1.264-.417 2.114-1.591 2.114-2.922v-.498-.498-43.502c0-2.757-2.243-5-5-5zm-18.115 54.279c-.276.546-.369 1.143-.306 1.721h-31.579c-2.757 0-5-2.243-5-5s2.243-5 5-5c.681 0 1.344.136 1.969.404l1.039.445.316-1.085c.986-3.394 4.143-5.764 7.676-5.764 2.675 0 5.163 1.33 6.653 3.556l1.662-1.112c-1.426-2.13-3.584-3.595-6.017-4.169 2.068-2.667 5.282-4.275 8.702-4.275 4.373 0 8.352 2.639 10.085 6.618-.616.911-.71 2.093-.199 3.102.143.282.156.6.038.874-.056.129-.11.26-.161.39-.108.28-.345.497-.648.596-1.265.417-2.115 1.591-2.115 2.922v.996c0 1.331.85 2.505 2.116 2.921.302.099.538.316.646.594.051.132.104.263.161.393.119.273.105.591-.038.873zm17.115-40.279v6h-22v-6zm-22-2v-6h22v6zm22 10v6h-22v-6zm0 8v8.579c-.578-.063-1.174.03-1.721.306-.281.143-.599.157-.874.038-.128-.056-.259-.109-.39-.161-.279-.108-.497-.345-.596-.648-.416-1.264-1.59-2.114-2.921-2.114h-.996c-1.331 0-2.505.85-2.921 2.116-.099.302-.316.538-.596.646-.131.051-.261.104-.391.161-.273.118-.591.105-.873-.038-1.023-.517-2.225-.416-3.141.223-1.413-2.767-3.77-4.913-6.58-6.093v-3.015zm4 19v.498c0 .465-.297.875-.74 1.021-.872.286-1.56.932-1.886 1.772-.042.107-.086.214-.131.318-.356.82-.325 1.757.087 2.572.21.415.13.915-.199 1.244l-.705.705c-.329.329-.829.409-1.244.199-.814-.412-1.753-.443-2.571-.087-.105.045-.212.089-.321.132-.839.326-1.484 1.014-1.771 1.887-.145.442-.556.739-1.021.739h-.996c-.465 0-.875-.297-1.021-.74-.286-.872-.932-1.56-1.772-1.886-.107-.042-.214-.086-.318-.131-.378-.165-.781-.247-1.186-.247-.473 0-.947.112-1.386.333-.416.209-.916.13-1.244-.199l-.705-.705c-.329-.329-.409-.829-.199-1.244.412-.815.443-1.752.087-2.571-.045-.105-.089-.212-.132-.321-.326-.839-1.014-1.484-1.887-1.771-.442-.144-.739-.555-.739-1.02v-.996c0-.465.297-.875.739-1.021.873-.286 1.561-.932 1.887-1.772.042-.107.086-.214.131-.318.356-.82.325-1.757-.087-2.572-.21-.415-.13-.916.199-1.245l.704-.704c.329-.33.829-.411 1.245-.199.815.412 1.753.443 2.571.087.106-.046.213-.09.32-.131.839-.327 1.485-1.015 1.772-1.887.145-.443.556-.74 1.021-.74h.996c.465 0 .875.297 1.021.74.287.872.932 1.56 1.771 1.886.107.042.214.086.319.131.819.356 1.757.324 2.572-.087.415-.211.915-.13 1.245.199l.704.704c.329.329.409.83.199 1.245-.412.815-.443 1.752-.087 2.571.045.105.089.212.132.321.326.839 1.014 1.484 1.887 1.771.442.145.739.556.739 1.021zm0-3.371c-.04-.015-.076-.035-.116-.049-.302-.099-.538-.316-.646-.594-.051-.132-.104-.263-.161-.393-.118-.273-.104-.591.038-.873.601-1.188.372-2.62-.57-3.561l-.545-.544v-33.615c0-1.103-.897-2-2-2h-22c-1.103 0-2 .897-2 2v26.356c-.653-.156-1.321-.264-2-.317v-27.039c0-1.654 1.346-3 3-3h24c1.654 0 3 1.346 3 3z" fill="#23303d" data-original="#000000" class=""></path><path d="m41 9h2v2h-2z" fill="#23303d" data-original="#000000" class=""></path><path d="m37 9h2v2h-2z" fill="#23303d" data-original="#000000" class=""></path><path d="m37 25h2v2h-2z" fill="#23303d" data-original="#000000" class=""></path><path d="m41 25h2v2h-2z" fill="#23303d" data-original="#000000" class=""></path><path d="m53 17h2v2h-2z" fill="#23303d" data-original="#000000" class=""></path><path d="m49 17h2v2h-2z" fill="#23303d" data-original="#000000" class=""></path><path d="m49 33h2v2h-2z" fill="#23303d" data-original="#000000" class=""></path><path d="m53 33h2v2h-2z" fill="#23303d" data-original="#000000" class=""></path><path d="m30 37c-.762 0-1.519.095-2.25.284l.499 1.937c.568-.147 1.157-.221 1.751-.221 3.196 0 5.984 2.159 6.78 5.25l1.937-.499c-1.024-3.975-4.608-6.751-8.717-6.751z" fill="#23303d" data-original="#000000" class=""></path><path d="m19 43c-2.842 0-5.315 2.019-5.88 4.801l1.96.398c.377-1.854 2.025-3.199 3.92-3.199 1.27 0 2.437.583 3.201 1.601l1.599-1.201c-1.146-1.525-2.895-2.4-4.8-2.4z" fill="#23303d" data-original="#000000" class=""></path></g></g></g></svg>