<svg xmlns="http://www.w3.org/2000/svg" viewBox="0 0 256 257"><g fill="none" fill-rule="evenodd"><path d="M207.38 144.804c-.96-2.906-3.472-4.93-6.723-5.415-1.532-.23-3.287-.132-5.364.297-3.62.747-6.305 1.03-8.265 1.086 7.397-12.49 13.413-26.735 16.876-40.143 5.6-21.68 2.608-31.557-.89-36.025-9.253-11.824-22.755-18.177-39.044-18.372-8.69-.106-16.318 1.61-20.297 2.843-3.705-.653-7.689-1.018-11.87-1.086-7.834-.124-14.757 1.583-20.673 5.094-3.276-1.107-8.531-2.668-14.601-3.665-14.277-2.344-25.783-.517-34.199 5.428-10.191 7.2-14.916 19.706-14.042 37.175.277 5.547 3.38 22.421 8.265 38.425 2.808 9.199 5.802 16.838 8.898 22.706 4.392 8.322 9.091 13.223 14.367 14.983 2.957.985 8.33 1.675 13.98-3.03.717.866 1.672 1.728 2.94 2.529 1.61 1.015 3.58 1.845 5.547 2.337 7.088 1.772 13.728 1.329 19.392-1.155.035 1.008.062 1.97.084 2.801.038 1.349.075 2.67.125 3.907.335 8.359.904 14.858 2.589 19.405.092.25.217.632.348 1.036.84 2.574 2.247 6.882 5.822 10.257 3.704 3.495 8.183 4.568 12.286 4.567 2.057 0 4.02-.27 5.742-.639 6.138-1.315 13.108-3.319 18.15-10.499 4.768-6.787 7.086-17.01 7.505-33.119l.153-1.305.1-.85 1.123.098.289.02c6.251.284 13.895-1.041 18.59-3.222 3.71-1.721 15.596-7.997 12.797-16.47" fill="#000"/><path d="M196.691 146.452c-18.587 3.834-19.865-2.46-19.865-2.46 19.625-29.12 27.83-66.085 20.75-75.132-19.315-24.678-52.75-13.007-53.308-12.704l-.18.033c-3.672-.763-7.781-1.217-12.4-1.292-8.41-.138-14.79 2.205-19.631 5.876 0 0-59.644-24.571-56.87 30.902.59 11.802 16.915 89.296 36.386 65.89 7.117-8.56 13.993-15.797 13.993-15.797 3.416 2.27 7.504 3.426 11.79 3.01l.334-.282c-.104 1.063-.056 2.102.133 3.333-5.016 5.604-3.542 6.588-13.57 8.652-10.146 2.091-4.185 5.814-.294 6.787 4.718 1.18 15.633 2.851 23.009-7.473l-.295 1.178c1.966 1.574 3.346 10.24 3.115 18.095-.232 7.855-.386 13.248 1.163 17.461 1.548 4.212 3.092 13.69 16.274 10.866 11.015-2.36 16.723-8.477 17.517-18.68.563-7.255 1.838-6.183 1.919-12.668l1.023-3.07c1.18-9.833.187-13.006 6.973-11.53l1.65.145c4.994.227 11.531-.804 15.368-2.587 8.261-3.834 13.161-10.235 5.015-8.553h.001" fill="#336791"/><path d="M115.548 96.953c-1.675-.233-3.192-.017-3.96.564-.432.327-.565.705-.6.966-.097.69.387 1.454.684 1.848.84 1.115 2.07 1.881 3.286 2.05.177.025.352.037.526.037 2.029 0 3.873-1.58 4.035-2.746.203-1.46-1.916-2.433-3.971-2.719m55.49.047c-.16-1.145-2.197-1.471-4.13-1.203-1.93.27-3.8 1.14-3.644 2.287.125.892 1.735 2.415 3.642 2.415.16 0 .323-.011.487-.034 1.272-.176 2.206-.984 2.65-1.45.676-.71 1.066-1.501.995-2.016" fill="#FFF"/><path d="M202.876 146.016c-.708-2.143-2.99-2.833-6.78-2.05-11.253 2.322-15.283.713-16.606-.261 8.747-13.326 15.942-29.432 19.824-44.46 1.84-7.12 2.855-13.73 2.938-19.119.091-5.915-.915-10.26-2.993-12.916-8.377-10.703-20.67-16.444-35.552-16.602-10.23-.115-18.874 2.503-20.55 3.24-3.528-.878-7.375-1.417-11.563-1.486-7.68-.124-14.319 1.715-19.815 5.462-2.388-.888-8.558-3.006-16.103-4.221-13.045-2.1-23.411-.51-30.81 4.731-8.826 6.254-12.901 17.433-12.111 33.225.265 5.314 3.292 21.658 8.07 37.312 6.289 20.602 13.125 32.265 20.318 34.664a9.08 9.08 0 002.882.478c2.624 0 5.841-1.183 9.188-5.207a331.145 331.145 0 0112.663-14.329c2.828 1.518 5.934 2.365 9.111 2.45.006.084.014.167.022.25a73.539 73.539 0 00-1.606 1.984c-2.202 2.794-2.66 3.376-9.746 4.835-2.015.416-7.369 1.519-7.447 5.271-.085 4.1 6.328 5.822 7.059 6.005 2.546.637 4.999.952 7.338.952 5.69 0 10.697-1.87 14.698-5.488-.123 14.616.486 29.018 2.241 33.407 1.437 3.592 4.949 12.371 16.04 12.37 1.627 0 3.42-.189 5.39-.61 11.575-2.483 16.602-7.599 18.547-18.878 1.04-6.028 2.826-20.423 3.666-28.144 1.772.553 4.054.806 6.521.806 5.145 0 11.082-1.093 14.805-2.821 4.182-1.943 11.73-6.71 10.361-10.85zM175.31 93.84c-.038 2.28-.352 4.35-.685 6.51-.357 2.323-.728 4.724-.82 7.64-.093 2.838.262 5.788.605 8.64.692 5.763 1.403 11.695-1.348 17.55-.428-.76-.84-1.589-1.219-2.506-.342-.829-1.084-2.16-2.112-4.003-4-7.172-13.365-23.968-8.57-30.822 1.427-2.04 5.051-4.137 14.15-3.009zm-11.027-38.616c13.333.294 23.88 5.282 31.348 14.825 5.728 7.32-.58 40.624-18.837 69.355-.18-.229-.364-.46-.554-.697l-.231-.29c4.718-7.791 3.795-15.5 2.974-22.336-.337-2.805-.656-5.454-.575-7.943.084-2.638.433-4.9.77-7.087.415-2.696.836-5.485.72-8.774a3.64 3.64 0 00.077-1.236c-.298-3.153-3.897-12.59-11.235-21.132-4.014-4.67-9.867-9.9-17.859-13.425 3.438-.713 8.139-1.377 13.402-1.26zM89.67 155.86c-3.687 4.434-6.234 3.584-7.071 3.305-5.457-1.82-11.788-13.352-17.37-31.64-4.83-15.824-7.652-31.735-7.875-36.197-.706-14.111 2.715-23.946 10.167-29.23 12.127-8.601 32.066-3.453 40.078-.842-.115.113-.235.22-.349.335-13.147 13.277-12.835 35.963-12.803 37.35-.001.534.044 1.292.105 2.334.226 3.815.647 10.916-.477 18.958-1.045 7.474 1.258 14.788 6.319 20.068.524.547 1.07 1.06 1.636 1.543a337.49 337.49 0 00-12.36 14.016zm14.05-18.746c-4.08-4.255-5.932-10.175-5.083-16.243 1.187-8.495.749-15.894.513-19.869-.033-.556-.062-1.043-.08-1.428 1.922-1.703 10.822-6.472 17.17-5.018 2.896.664 4.66 2.636 5.394 6.029 3.798 17.564.503 24.885-2.144 30.768-.546 1.212-1.061 2.357-1.502 3.542l-.341.916c-.864 2.317-1.668 4.47-2.166 6.516-4.336-.014-8.554-1.866-11.761-5.213zm.665 23.688c-1.266-.316-2.405-.866-3.073-1.321.558-.263 1.551-.62 3.274-.975 8.336-1.716 9.623-2.927 12.434-6.496.645-.819 1.375-1.746 2.387-2.876l.001-.002c1.507-1.687 2.197-1.401 3.447-.883 1.013.42 2 1.69 2.4 3.087.189.66.402 1.913-.294 2.887-5.873 8.223-14.43 8.117-20.576 6.58zm43.624 40.595c-10.197 2.185-13.808-3.018-16.187-8.966-1.536-3.84-2.29-21.157-1.755-40.28.007-.254-.029-.5-.1-.73a9.653 9.653 0 00-.284-1.352c-.797-2.783-2.737-5.11-5.065-6.075-.925-.383-2.623-1.086-4.663-.565.435-1.792 1.19-3.816 2.008-6.008l.343-.922c.386-1.04.87-2.116 1.384-3.256 2.77-6.155 6.565-14.586 2.447-33.632-1.543-7.133-6.694-10.617-14.503-9.808-4.682.485-8.965 2.374-11.1 3.457-.46.232-.88.457-1.273.676.596-7.188 2.85-20.62 11.276-29.118 5.305-5.35 12.37-7.993 20.98-7.851 16.962.278 27.84 8.983 33.979 16.237 5.29 6.25 8.154 12.547 9.297 15.943-8.597-.874-14.444.824-17.408 5.06-6.448 9.218 3.528 27.108 8.322 35.706.88 1.576 1.638 2.938 1.877 3.517 1.561 3.783 3.582 6.31 5.058 8.154.453.565.892 1.113 1.225 1.591-2.603.751-7.28 2.485-6.854 11.154-.344 4.35-2.789 24.717-4.03 31.912-1.64 9.507-5.138 13.048-14.974 15.156zm42.566-48.71c-2.663 1.236-7.118 2.163-11.351 2.362-4.675.219-7.055-.524-7.615-.98-.263-5.403 1.748-5.967 3.876-6.565.335-.094.661-.185.976-.296.196.16.41.318.645.473 3.757 2.48 10.46 2.747 19.921.794l.104-.02c-1.276 1.193-3.46 2.794-6.556 4.232z" fill="#FFF"/></g></svg>