<svg xmlns="http://www.w3.org/2000/svg" version="1.1" xmlns:xlink="http://www.w3.org/1999/xlink" xmlns:svgjs="http://svgjs.com/svgjs" width="512" height="512" x="0" y="0" viewBox="0 0 60 60" style="enable-background:new 0 0 512 512" xml:space="preserve" class=""><g><g fill="#37cba1"><path d="m27 17.22v-6.22h-2.43a1.608 1.608 0 0 1 -1.22-2.61l5.44-6.8a1.533 1.533 0 0 1 2.42 0l5.44 6.8a1.608 1.608 0 0 1 -1.22 2.61h-2.43v6.22z" fill="#63d9b6" data-original="#37cba1" class=""></path><path d="m10 31.57v-16.57h-2.43a1.608 1.608 0 0 1 -1.22-2.61l5.44-6.8a1.532 1.532 0 0 1 2.42 0l5.44 6.8a1.608 1.608 0 0 1 -1.22 2.61h-2.43v7.35z" fill="#63d9b6" data-original="#37cba1" class=""></path><path d="m44 22.35v-7.35h-2.43a1.608 1.608 0 0 1 -1.22-2.61l5.44-6.8a1.532 1.532 0 0 1 2.42 0l5.44 6.8a1.608 1.608 0 0 1 -1.22 2.61h-2.43v16.57z" fill="#63d9b6" data-original="#37cba1" class=""></path></g><circle cx="30" cy="38" fill="#edeff0" r="21" data-original="#edf5ff" class=""></circle><path d="m21.88 43.83a1.975 1.975 0 0 1 -.24 2.53l-2.14 2.14a2.005 2.005 0 0 1 -3.01-.2 16.946 16.946 0 0 1 1.5-22.31l4.01 1.01.93 3.93a9.988 9.988 0 0 0 -1.05 12.9z" fill="#e38082" data-original="#e84d4d" class=""></path><path d="m42.01 25.99-1.01 4.01-3.93.93a9.868 9.868 0 0 0 -5.12-2.74 6.626 6.626 0 0 0 -.76-.11l-2.38-.01a10 10 0 0 0 -5.88 2.86l-4.94-4.94a16.929 16.929 0 0 1 24.02 0z" fill="#e09932" data-original="#ffcb57" class=""></path><path d="m43.52 48.28a2.01 2.01 0 0 1 -3.02.22l-2.14-2.14a1.988 1.988 0 0 1 -.22-2.55 9.981 9.981 0 0 0 1.72-7.48 9.861 9.861 0 0 0 -2.79-5.4l4.94-4.94h.01a16.765 16.765 0 0 1 4.75 9.21 16.934 16.934 0 0 1 -3.25 13.08z" fill="#2470a9" data-original="#5e72e5" class=""></path><path d="m27.57 36.24 1.6-10.558a.846.846 0 0 1 1.66 0l1.6 10.558z" fill="#3d3d47" data-original="#3d3d47"></path><circle cx="30" cy="38" fill="#4c4c56" r="3" data-original="#4c4c56" class=""></circle></g></svg>