<svg id="Layer_1" data-name="Layer 1" xmlns="http://www.w3.org/2000/svg" viewBox="0 0 500 500">
  <defs>
    <style>
      .projects-cls-1,
      .projects-cls-10,
      .projects-cls-3,
      .projects-cls-4,
      .projects-cls-6,
      .projects-cls-7,
      .projects-cls-9 {
        fill: #fff;
      }

      .projects-cls-1 {
        stroke: #edeff0;
      }

      .projects-cls-1,
      .projects-cls-10,
      .projects-cls-2,
      .projects-cls-4,
      .projects-cls-9 {
        stroke-miterlimit: 10;
      }

      .projects-cls-1,
      .projects-cls-10,
      .projects-cls-2,
      .projects-cls-4,
      .projects-cls-6,
      .projects-cls-7,
      .projects-cls-8,
      .projects-cls-9 {
        stroke-width: 3px;
      }

      .projects-cls-2,
      .projects-cls-5 {
        fill: #edeff0;
      }

      .projects-cls-10,
      .projects-cls-2 {
        stroke: #97a2a6;
      }

      .projects-cls-4,
      .projects-cls-8 {
        stroke: #2470a9;
      }

      .projects-cls-6,
      .projects-cls-9 {
        stroke: #f7931e;
      }

      .projects-cls-6,
      .projects-cls-7,
      .projects-cls-8 {
        stroke-linecap: round;
        stroke-linejoin: round;
      }

      .projects-cls-7 {
        stroke: #ff7680;
      }

      .projects-cls-8 {
        fill: none;
      }

    </style>
  </defs>
  <path class="projects-cls-1" d="M298.12,120.17a13.24,13.24,0,0,1,5.39,1.14,24.51,24.51,0,0,1,49,1,25.06,25.06,0,0,1-.17,2.89,10.82,10.82,0,0,1,0,21.63H298.12a13.32,13.32,0,1,1,0-26.64Z" />
  <path class="projects-cls-1" d="M271.38,397.87a4.35,4.35,0,0,1-4.35,4.35h-17.4a4.34,4.34,0,0,1-4.34-4.35V338.82h26.09Zm0,0" />
  <path class="projects-cls-1" d="M334.25,384.83H182.42l5-17.39H329.27Zm0,0" />
  <path class="projects-cls-1" d="M197.46,341.45v-2.63H171.37v2.63l-15.81,55.23a4.35,4.35,0,0,0,4.18,5.54h17a4.36,4.36,0,0,0,4.19-3.15Zm0,0" />
  <path class="projects-cls-1" d="M319.21,341.45v-2.1H345.3v2.1l15.8,55.23a4.34,4.34,0,0,1-4.18,5.54h-17a4.35,4.35,0,0,1-4.18-3.15Zm0,0" />
  <path class="projects-cls-2" d="M367,334.52H149.63a4.34,4.34,0,0,1-4.35-4.34V156.1h226.1V330.18a4.34,4.34,0,0,1-4.34,4.34Zm0,0" />
  <rect class="projects-cls-3" x="155.72" y="158.72" width="205.23" height="165.36" />
  <path class="projects-cls-4" d="M376,158.72H140.66a4.08,4.08,0,0,1-4.08-4.07v-9.24a4.08,4.08,0,0,1,4.08-4.08H376a4.08,4.08,0,0,1,4.08,4.08v9.24a4.07,4.07,0,0,1-4.08,4.07Zm0,0" />
  <path class="projects-cls-4" d="M376,341.35H140.66a4.08,4.08,0,0,1-4.08-4.08V328a4.08,4.08,0,0,1,4.08-4.08H376a4.08,4.08,0,0,1,4.08,4.08v9.24a4.08,4.08,0,0,1-4.08,4.08Zm0,0" />
  <path class="projects-cls-5" d="M197.46,310.5a12.64,12.64,0,1,1,12.63-12.64,12.65,12.65,0,0,1-12.63,12.64Zm0-17.39a4.76,4.76,0,1,0,4.76,4.75,4.76,4.76,0,0,0-4.76-4.75Zm0,0" />
  <path class="projects-cls-5" d="M319.21,197.75a12.64,12.64,0,1,1,12.63-12.63,12.65,12.65,0,0,1-12.63,12.63Zm0-17.39a4.76,4.76,0,1,0,4.76,4.76,4.76,4.76,0,0,0-4.76-4.76Zm0,0" />
  <path class="projects-cls-5" d="M197.46,259.14a3.94,3.94,0,0,0-3.94,3.94v8.7a3.94,3.94,0,0,0,7.87,0v-8.7A3.94,3.94,0,0,0,197.46,259.14Z" />
  <path class="projects-cls-5" d="M197.46,233.05a3.93,3.93,0,0,0-3.94,3.94v8.7a3.94,3.94,0,0,0,7.87,0V237A3.94,3.94,0,0,0,197.46,233.05Z" />
  <path class="projects-cls-5" d="M203,210.9l5.92-5.91a3.94,3.94,0,1,0-5.57-5.57l-5.91,5.91-5.91-5.91A3.94,3.94,0,1,0,186,205l5.92,5.91L186,216.81a3.94,3.94,0,0,0,5.58,5.57l5.91-5.91,5.91,5.91a3.94,3.94,0,0,0,5.57-5.57Z" />
  <path class="projects-cls-5" d="M255.2,267.43l5.92-5.92a3.94,3.94,0,0,0-5.57-5.56l-5.92,5.91L243.72,256a3.94,3.94,0,0,0-5.57,5.56l5.92,5.92-5.92,5.91a3.94,3.94,0,0,0,2.79,6.72,3.91,3.91,0,0,0,2.78-1.15l5.92-5.91,5.91,5.91a3.95,3.95,0,0,0,5.57,0,4,4,0,0,0,0-5.57Z" />
  <path class="projects-cls-5" d="M324.78,267.43l5.91-5.92a3.94,3.94,0,0,0-5.57-5.56l-5.91,5.91L313.29,256a3.93,3.93,0,0,0-5.56,5.56l5.91,5.92-5.91,5.91a3.94,3.94,0,0,0,0,5.57,3.94,3.94,0,0,0,5.56,0l5.92-5.91,5.91,5.91a3.94,3.94,0,0,0,5.57-5.57Z" />
  <path class="projects-cls-5" d="M330.69,216.61l-8.7-8.7a3.56,3.56,0,0,0-.6-.49,3.9,3.9,0,0,0-.35-.19l-.32-.17-.48-.15a2.5,2.5,0,0,0-.26-.07,3.68,3.68,0,0,0-1.55,0,1.38,1.38,0,0,0-.27.08,3.5,3.5,0,0,0-.46.14,3,3,0,0,0-.31.16,3.35,3.35,0,0,0-.37.2,3.68,3.68,0,0,0-.38.31c-.07.06-.15.11-.22.18l-8.69,8.7a3.93,3.93,0,1,0,5.56,5.56l2-2v12.85H214.85a3.94,3.94,0,0,0,0,7.88H319.21a3.94,3.94,0,0,0,3.93-3.94V220.2l2,2a3.94,3.94,0,0,0,5.57-5.56Z" />
  <polygon class="projects-cls-6" points="418.8 113.55 358.27 111.73 420.62 174.08 418.8 113.55" />
  <polygon class="projects-cls-7" points="322.15 210.2 358.27 111.73 420.62 174.08 322.15 210.2" />
  <polygon class="projects-cls-7" points="322.15 210.2 420.62 174.08 389.44 142.91 322.15 210.2" />
  <path class="projects-cls-8" d="M322.15,210.2s-22.67,19.87-59.88,4.33-77.37,9.55-69.57,44.61,94.52,16.31,134,34c30.56,13.67,25.26,45.81-34,58.21" />
  <path class="projects-cls-7" d="M118.68,266.79,102,284.13A22.94,22.94,0,0,0,95.9,300v29.85c0,3.72,3.75,5.68,6.1,3.2l20.24-21.37Z" />
  <path class="projects-cls-7" d="M171.88,266.79l16.7,17.34A22.94,22.94,0,0,1,194.66,300v29.85c0,3.72-3.75,5.68-6.1,3.2l-20.24-21.37Z" />
  <path class="projects-cls-7" d="M122.56,351.54c0,12.55,22.72,42.72,22.72,42.72S168,364.09,168,351.54a22.72,22.72,0,1,0-45.44,0Z" />
  <path class="projects-cls-9" d="M133.92,340.18c0,6.28,11.36,21.36,11.36,21.36s11.36-15.08,11.36-21.36a11.36,11.36,0,1,0-22.72,0Z" />
  <rect class="projects-cls-2" x="121.15" y="316.53" width="48.26" height="14.38" />
  <path class="projects-cls-10" d="M172.71,316.53a116.76,116.76,0,0,0,8.78-45.28c0-35.89-15-66.61-36.21-79.3-21.23,12.69-36.21,43.41-36.21,79.3a116.76,116.76,0,0,0,8.78,45.28Z" />
  <circle class="projects-cls-9" cx="145.28" cy="248.23" r="16.8" />
  <path class="projects-cls-4" d="M162.7,208.22A60.84,60.84,0,0,0,145.28,192a60.84,60.84,0,0,0-17.42,16.27Z" />
  <path class="projects-cls-10" d="M157.27,378.24a11.88,11.88,0,0,1,4.85,1,22.07,22.07,0,0,1,44.13.88,22.4,22.4,0,0,1-.16,2.6,9.74,9.74,0,0,1,0,19.47H157.27a12,12,0,1,1,0-24Z" />
  <path class="projects-cls-10" d="M133.29,378.24a11.88,11.88,0,0,0-4.85,1,22.07,22.07,0,0,0-44.13.88,22.4,22.4,0,0,0,.16,2.6,9.74,9.74,0,0,0,0,19.47h48.79a12,12,0,0,0,0-24Z" />
</svg>
