<svg id="Layer_1" data-name="Layer 1" xmlns="http://www.w3.org/2000/svg" viewBox="0 0 500 500">
  <defs>
    <style>
      .python-cls-1,
      .python-cls-10,
      .python-cls-13 {
        fill: #fff;
      }

      .python-cls-11,
      .python-cls-12,
      .python-cls-2,
      .python-cls-7,
      .python-cls-8 {
        fill: none;
      }

      .python-cls-13,
      .python-cls-2 {
        stroke: #97a2a6;
      }

      .python-cls-11,
      .python-cls-12,
      .python-cls-13,
      .python-cls-2,
      .python-cls-7,
      .python-cls-8 {
        stroke-miterlimit: 10;
      }

      .python-cls-10,
      .python-cls-11,
      .python-cls-12,
      .python-cls-13,
      .python-cls-2,
      .python-cls-7,
      .python-cls-8 {
        stroke-width: 3px;
      }

      .python-cls-3 {
        fill: #ff7680;
      }

      .python-cls-4 {
        fill: #63d9b6;
      }

      .python-cls-5 {
        fill: #f7931e;
      }

      .python-cls-6 {
        fill: #edeff0;
      }

      .python-cls-11,
      .python-cls-7 {
        stroke: #2470a9;
      }

      .python-cls-10,
      .python-cls-8 {
        stroke: #63d9b6;
      }

      .python-cls-9 {
        fill: #2470a9;
      }

      .python-cls-10,
      .python-cls-11 {
        stroke-linecap: round;
      }

      .python-cls-10 {
        stroke-linejoin: round;
      }

      .python-cls-12 {
        stroke: #edeff0;
      }

    </style>
  </defs>
  <rect class="python-cls-1" x="111.69" y="142.26" width="292.28" height="191.5" rx="8.52" />
  <rect class="python-cls-2" x="111.69" y="142.26" width="292.28" height="191.5" rx="8.52" />
  <line class="python-cls-2" x1="403.98" y1="163.98" x2="111.69" y2="163.98" />
  <circle class="python-cls-3" cx="368.59" cy="153.63" r="2.24" />
  <circle class="python-cls-4" cx="379.31" cy="153.63" r="2.24" />
  <circle class="python-cls-5" cx="390.03" cy="153.63" r="2.24" />
  <rect class="python-cls-6" x="123.64" y="174.67" width="270.25" height="147.69" rx="4.9" />
  <rect class="python-cls-1" x="95.74" y="88.65" width="162.1" height="165.46" rx="8.52" />
  <rect class="python-cls-7" x="95.74" y="88.65" width="162.1" height="165.46" rx="8.52" />
  <line class="python-cls-7" x1="257.83" y1="110.38" x2="95.74" y2="110.38" />
  <circle class="python-cls-3" cx="222.45" cy="100.02" r="2.24" />
  <circle class="python-cls-4" cx="233.17" cy="100.02" r="2.24" />
  <circle class="python-cls-5" cx="243.89" cy="100.02" r="2.24" />
  <rect class="python-cls-6" x="107.69" y="121.07" width="140.07" height="121.66" rx="4.9" />
  <rect class="python-cls-1" x="273.12" y="220.42" width="162.1" height="165.46" rx="8.52" />
  <rect class="python-cls-8" x="273.12" y="220.42" width="162.1" height="165.46" rx="8.52" />
  <line class="python-cls-8" x1="435.22" y1="242.15" x2="273.12" y2="242.15" />
  <circle class="python-cls-3" cx="399.83" cy="231.79" r="2.24" />
  <circle class="python-cls-4" cx="410.56" cy="231.79" r="2.24" />
  <circle class="python-cls-5" cx="421.28" cy="231.79" r="2.24" />
  <rect class="python-cls-6" x="285.07" y="252.84" width="140.07" height="121.66" rx="4.9" />
  <g id="path1948">
    <path class="python-cls-1" d="M142.55,206.64c-6.91,0-11.82-4.6-13.82-12.94-2.25-9.34-2.25-15,0-24.36,1.91-8,8-12.94,16-12.94H152V146.07c0-7.15,2.1-11.67,12.87-13.57a67.17,67.17,0,0,1,11.37-1h.37a72.56,72.56,0,0,1,12,1c7.47,1.24,12.89,6.95,12.89,13.57v22.16a13.24,13.24,0,0,1-13.14,13.32H165.09a13.35,13.35,0,0,0-13,13v12.13Zm21.08-65a2.94,2.94,0,1,0,2.86,3A2.91,2.91,0,0,0,163.63,141.66Z" />
    <path class="python-cls-9" d="M176.56,133a72,72,0,0,1,11.77.95C194.65,135,200,139.77,200,146.07v22.16a11.72,11.72,0,0,1-11.64,11.82H165.09a14.8,14.8,0,0,0-14.54,14.46v10.63h-8c-6.76,0-10.71-4.91-12.36-11.8-2.24-9.25-2.14-14.78,0-23.65C132,162,138,157.9,144.72,157.9h32v-3H153.46v-8.87c0-6.71,1.78-10.35,11.63-12.09a64.66,64.66,0,0,1,11.12-.95h.35m-12.93,16a4.44,4.44,0,1,0-4.37-4.42,4.4,4.4,0,0,0,4.37,4.42m12.93-19h-.36a69.13,69.13,0,0,0-11.63,1c-11.75,2.08-14.11,7.3-14.11,15v8.83h-5.74c-8.55,0-15.4,5.53-17.45,14.1-2.29,9.48-2.29,15.56,0,25.05,2.15,8.95,7.72,14.09,15.28,14.09h11V194.51a11.8,11.8,0,0,1,11.54-11.46h23.24A14.75,14.75,0,0,0,203,168.23V146.07c0-7.36-5.95-13.69-14.14-15a74.71,74.71,0,0,0-12.27-1Zm-12.93,16a1.44,1.44,0,1,1,1.36-1.42,1.4,1.4,0,0,1-1.36,1.42Z" />
  </g>
  <g id="path1950">
    <path class="python-cls-1" d="M176.64,232.07a41.82,41.82,0,0,1-12-1.84C156.47,227.82,152,223.11,152,217V194.81a13.41,13.41,0,0,1,13.13-13.33h23.24c6.95,0,13-6.19,13-13.25V157.9a1.5,1.5,0,0,1,1.5-1.5h8.73c6.65,0,10.93,4.23,13.1,12.93,2.43,9.79,2.42,17.11,0,24.49-2.15,6.49-4.94,12.82-13.06,12.82H200.33a1.5,1.5,0,0,1,1.14,1.46V217c0,6.27-4.4,10.85-12.72,13.26A42.8,42.8,0,0,1,176.64,232.07Zm13.16-16.56a2.94,2.94,0,1,0,2.87,2.92A2.9,2.9,0,0,0,189.8,215.51Z" />
    <path class="python-cls-5" d="M211.6,157.9c6.78,0,10,5.06,11.64,11.79,2.33,9.36,2.43,16.37,0,23.65-2.35,7.09-4.87,11.8-11.64,11.8H176.73v3H200V217c0,6.71-5.78,10.13-11.64,11.82a41.36,41.36,0,0,1-11.69,1.78,40.32,40.32,0,0,1-11.55-1.78c-6.15-1.81-11.63-5.52-11.63-11.82V194.81A11.87,11.87,0,0,1,165.09,183h23.24a14.92,14.92,0,0,0,14.54-14.75V157.9h8.73m-21.8,65a4.44,4.44,0,1,0-4.37-4.45,4.41,4.41,0,0,0,4.37,4.45m21.8-68h-8.73a3,3,0,0,0-3,3v10.33A12,12,0,0,1,188.33,180H165.09a14.93,14.93,0,0,0-14.63,14.83V217c0,6.76,5,12.12,13.78,14.7a43.4,43.4,0,0,0,12.4,1.9,44.32,44.32,0,0,0,12.53-1.9c8.9-2.57,13.8-7.8,13.8-14.7v-8.83h8.63c9.12,0,12.26-7.15,14.49-13.85,2.55-7.66,2.57-15.23.06-25.32-2.32-9.34-7.21-14.07-14.55-14.07Zm-21.8,65a1.44,1.44,0,0,1,0-2.87,1.44,1.44,0,0,1,0,2.87Z" />
  </g>
  <path class="python-cls-10" d="M343.65,268.53h16.14v74a106.36,106.36,0,0,1-20.94,2.18c-19.72,0-30-8.83-30-25.74,0-16.3,10.89-26.88,27.75-26.88a26.2,26.2,0,0,1,7,.83Zm.56,37.7a16.18,16.18,0,0,0-5.44-.82c-8.17,0-12.88,5-12.88,13.7,0,8.5,4.51,13.19,12.77,13.19a37.87,37.87,0,0,0,5.55-.41Z" />
  <path class="python-cls-10" d="M386.18,294.06v37c0,12.76-.95,18.89-3.76,24.18-2.62,5.08-6.06,8.29-13.19,11.83l-15-7.06c7.13-3.31,10.58-6.23,12.78-10.7s3-9.85,3-23.76V294.06Z" />
  <path class="python-cls-10" d="M368.44,268.53h16.14v16.4H368.44v-16.4Z" />
  <line class="python-cls-10" x1="281.8" y1="189.33" x2="377.07" y2="189.33" />
  <line class="python-cls-10" x1="281.8" y1="200.44" x2="377.07" y2="200.44" />
  <line class="python-cls-11" x1="177.72" y1="271.17" x2="247.6" y2="271.17" />
  <line class="python-cls-11" x1="177.72" y1="282.29" x2="247.6" y2="282.29" />
  <path class="python-cls-1" d="M183,340.65V320.52a5,5,0,0,0-5-5h-5.57a5,5,0,0,1-4.61-3.09l0-.06a5,5,0,0,1,1.08-5.46l3.93-3.93a5,5,0,0,0,0-7.08l-14.23-14.24a5,5,0,0,0-7.08,0l-3.93,3.94a5,5,0,0,1-5.46,1.08l-.06,0A5,5,0,0,1,139,282v-5.56a5,5,0,0,0-5-5H113.84a5,5,0,0,0-5,5V282a5,5,0,0,1-3.09,4.62l-.06,0a5,5,0,0,1-5.45-1.08l-3.94-3.94a5,5,0,0,0-7.08,0L75,295.9A5,5,0,0,0,75,303l3.93,3.93A5,5,0,0,1,80,312.37l0,.06a5,5,0,0,1-4.62,3.09H69.78a5,5,0,0,0-5,5v20.13a5,5,0,0,0,5,5h5.57A5,5,0,0,1,80,348.74l0,.07a5,5,0,0,1-1.08,5.45L75,358.2a5,5,0,0,0,0,7.07l14.23,14.24a5,5,0,0,0,7.08,0l3.94-3.94a5,5,0,0,1,5.45-1.08l.06,0a5,5,0,0,1,3.09,4.62v5.56a5,5,0,0,0,5,5H134a5,5,0,0,0,5-5v-5.56a5,5,0,0,1,3.09-4.62l.06,0a5,5,0,0,1,5.46,1.08l3.93,3.94a5,5,0,0,0,7.08,0l14.23-14.24a5,5,0,0,0,0-7.07l-3.93-3.94a5,5,0,0,1-1.08-5.45l0-.07a5,5,0,0,1,4.61-3.08H178A5,5,0,0,0,183,340.65Z" />
  <path class="python-cls-6" d="M132.25,275.32a5,5,0,0,0,3.09,4.61l.06,0a5,5,0,0,0,3.57.1v-3.59a5,5,0,0,0-5-5h-1.72Z" />
  <path class="python-cls-6" d="M73.38,345.66a5,5,0,0,0-.11-3.57l0-.06a5,5,0,0,0-4.62-3.09H64.78v1.71a5,5,0,0,0,5,5Z" />
  <path class="python-cls-6" d="M166.11,289.18a5,5,0,0,1,0,7.08l-3.94,3.93a5,5,0,0,0-1.08,5.46l0,.06a5,5,0,0,0,4.62,3.09h2a4.94,4.94,0,0,1,1.18-1.89l3.93-3.93a5,5,0,0,0,0-7.08l-14.23-14.24h0Z" />
  <path class="python-cls-6" d="M178,315.52H176.3v18.41a5,5,0,0,1-5,5h-5.56a5,5,0,0,0-4.62,3.09l0,.06a5,5,0,0,0,1.08,5.45l3.94,3.94a5,5,0,0,1,0,7.08l-14.24,14.23a5,5,0,0,1-7.08,0l-3.93-3.93a5,5,0,0,0-5.46-1.08l-.06,0a5,5,0,0,0-3.09,4.62V378a5,5,0,0,1-5,5H108.83v1.71a5,5,0,0,0,5,5H134a5,5,0,0,0,5-5v-5.56a5,5,0,0,1,3.09-4.62l.06,0a5,5,0,0,1,5.46,1.08l3.93,3.94a5,5,0,0,0,7.08,0l14.23-14.24a5,5,0,0,0,0-7.07l-3.93-3.94a5,5,0,0,1-1.08-5.45l0-.07a5,5,0,0,1,4.61-3.08H178a5,5,0,0,0,5-5V320.52A5,5,0,0,0,178,315.52Z" />
  <path class="python-cls-6" d="M102.11,372.42A5,5,0,0,0,99,367.8l-.07,0a5,5,0,0,0-5.45,1.08l-3.94,3.93a5,5,0,0,1-7.07,0l6.71,6.72a5,5,0,0,0,7.08,0l3.94-3.94a5,5,0,0,1,1.88-1.18Z" />
  <path class="python-cls-2" d="M183,340.65V320.52a5,5,0,0,0-5-5h-5.57a5,5,0,0,1-4.61-3.09l0-.06a5,5,0,0,1,1.08-5.46l3.93-3.93a5,5,0,0,0,0-7.08l-14.23-14.24a5,5,0,0,0-7.08,0l-3.93,3.94a5,5,0,0,1-5.46,1.08l-.06,0A5,5,0,0,1,139,282v-5.56a5,5,0,0,0-5-5H113.84a5,5,0,0,0-5,5V282a5,5,0,0,1-3.09,4.62l-.06,0a5,5,0,0,1-5.45-1.08l-3.94-3.94a5,5,0,0,0-7.08,0L75,295.9A5,5,0,0,0,75,303l3.93,3.93A5,5,0,0,1,80,312.37l0,.06a5,5,0,0,1-4.62,3.09H69.78a5,5,0,0,0-5,5v20.13a5,5,0,0,0,5,5h5.57A5,5,0,0,1,80,348.74l0,.07a5,5,0,0,1-1.08,5.45L75,358.2a5,5,0,0,0,0,7.07l14.23,14.24a5,5,0,0,0,7.08,0l3.94-3.94a5,5,0,0,1,5.45-1.08l.06,0a5,5,0,0,1,3.09,4.62v5.56a5,5,0,0,0,5,5H134a5,5,0,0,0,5-5v-5.56a5,5,0,0,1,3.09-4.62l.06,0a5,5,0,0,1,5.46,1.08l3.93,3.94a5,5,0,0,0,7.08,0l14.23-14.24a5,5,0,0,0,0-7.07l-3.93-3.94a5,5,0,0,1-1.08-5.45l0-.07a5,5,0,0,1,4.61-3.08H178A5,5,0,0,0,183,340.65Z" />
  <circle class="python-cls-12" cx="123.9" cy="330.59" r="36.7" />
  <circle class="python-cls-6" cx="119.96" cy="326.65" r="15.65" />
  <circle class="python-cls-13" cx="123.9" cy="330.59" r="15.65" />
  <path class="python-cls-1" d="M245,384.53v-11a2.74,2.74,0,0,0-2.74-2.73h-3a2.75,2.75,0,0,1-2.53-1.69v0a2.73,2.73,0,0,1,.59-3l2.15-2.15a2.73,2.73,0,0,0,0-3.87l-7.78-7.78a2.73,2.73,0,0,0-3.87,0l-2.15,2.15a2.74,2.74,0,0,1-3,.59h0a2.75,2.75,0,0,1-1.69-2.53v-3a2.74,2.74,0,0,0-2.73-2.74h-11a2.74,2.74,0,0,0-2.74,2.74v3a2.74,2.74,0,0,1-1.68,2.53h0a2.73,2.73,0,0,1-3-.59l-2.15-2.15a2.73,2.73,0,0,0-3.87,0l-7.78,7.78a2.73,2.73,0,0,0,0,3.87l2.15,2.15a2.75,2.75,0,0,1,.59,3l0,0a2.73,2.73,0,0,1-2.52,1.69h-3a2.74,2.74,0,0,0-2.74,2.73v11a2.74,2.74,0,0,0,2.74,2.73h3a2.73,2.73,0,0,1,2.52,1.69l0,0a2.74,2.74,0,0,1-.59,3l-2.15,2.15a2.73,2.73,0,0,0,0,3.87l7.78,7.78a2.73,2.73,0,0,0,3.87,0l2.15-2.15a2.74,2.74,0,0,1,3-.59l0,0a2.71,2.71,0,0,1,1.68,2.52v3a2.74,2.74,0,0,0,2.74,2.74h11a2.74,2.74,0,0,0,2.73-2.74v-3a2.72,2.72,0,0,1,1.69-2.52l0,0a2.76,2.76,0,0,1,3,.59l2.15,2.15a2.73,2.73,0,0,0,3.87,0l7.78-7.78a2.73,2.73,0,0,0,0-3.87L237.26,392a2.73,2.73,0,0,1-.59-3v0a2.75,2.75,0,0,1,2.53-1.69h3A2.74,2.74,0,0,0,245,384.53Z" />
  <path class="python-cls-6" d="M217.23,348.81a2.73,2.73,0,0,0,1.69,2.52l0,0a2.74,2.74,0,0,0,2,0v-2a2.74,2.74,0,0,0-2.73-2.74h-.94Z" />
  <path class="python-cls-6" d="M185,387.26a2.68,2.68,0,0,0-.06-1.95v0a2.73,2.73,0,0,0-2.52-1.69h-2.11v.94a2.74,2.74,0,0,0,2.74,2.73Z" />
  <path class="python-cls-6" d="M235.74,356.39a2.73,2.73,0,0,1,0,3.87l-2.15,2.15a2.71,2.71,0,0,0-.59,3v0a2.72,2.72,0,0,0,2.52,1.68h1.08a2.69,2.69,0,0,1,.65-1l2.15-2.15a2.73,2.73,0,0,0,0-3.87l-7.78-7.78h0Z" />
  <path class="python-cls-6" d="M242.25,370.79h-.94v10.07a2.73,2.73,0,0,1-2.73,2.73h-3.05a2.73,2.73,0,0,0-2.52,1.69v0a2.72,2.72,0,0,0,.59,3l2.15,2.15a2.73,2.73,0,0,1,0,3.87L228,402.1a2.72,2.72,0,0,1-3.86,0L221.93,400a2.71,2.71,0,0,0-3-.59h0a2.75,2.75,0,0,0-1.69,2.53v3a2.74,2.74,0,0,1-2.74,2.74H204.42v.93a2.74,2.74,0,0,0,2.74,2.74h11a2.74,2.74,0,0,0,2.73-2.74v-3a2.72,2.72,0,0,1,1.69-2.52l0,0a2.76,2.76,0,0,1,3,.59l2.15,2.15a2.73,2.73,0,0,0,3.87,0l7.78-7.78a2.73,2.73,0,0,0,0-3.87L237.26,392a2.73,2.73,0,0,1-.59-3v0a2.75,2.75,0,0,1,2.53-1.69h3a2.74,2.74,0,0,0,2.74-2.73v-11A2.74,2.74,0,0,0,242.25,370.79Z" />
  <path class="python-cls-6" d="M200.75,401.9a2.75,2.75,0,0,0-1.69-2.53h0a2.71,2.71,0,0,0-3,.59l-2.15,2.15a2.73,2.73,0,0,1-3.87,0l3.67,3.67a2.73,2.73,0,0,0,3.87,0l2.15-2.15a2.81,2.81,0,0,1,1-.65Z" />
  <path class="python-cls-2" d="M245,384.53v-11a2.74,2.74,0,0,0-2.74-2.73h-3a2.75,2.75,0,0,1-2.53-1.69v0a2.73,2.73,0,0,1,.59-3l2.15-2.15a2.73,2.73,0,0,0,0-3.87l-7.78-7.78a2.73,2.73,0,0,0-3.87,0l-2.15,2.15a2.74,2.74,0,0,1-3,.59h0a2.75,2.75,0,0,1-1.69-2.53v-3a2.74,2.74,0,0,0-2.73-2.74h-11a2.74,2.74,0,0,0-2.74,2.74v3a2.74,2.74,0,0,1-1.68,2.53h0a2.73,2.73,0,0,1-3-.59l-2.15-2.15a2.73,2.73,0,0,0-3.87,0l-7.78,7.78a2.73,2.73,0,0,0,0,3.87l2.15,2.15a2.75,2.75,0,0,1,.59,3l0,0a2.73,2.73,0,0,1-2.52,1.69h-3a2.74,2.74,0,0,0-2.74,2.73v11a2.74,2.74,0,0,0,2.74,2.73h3a2.73,2.73,0,0,1,2.52,1.69l0,0a2.74,2.74,0,0,1-.59,3l-2.15,2.15a2.73,2.73,0,0,0,0,3.87l7.78,7.78a2.73,2.73,0,0,0,3.87,0l2.15-2.15a2.74,2.74,0,0,1,3-.59l0,0a2.71,2.71,0,0,1,1.68,2.52v3a2.74,2.74,0,0,0,2.74,2.74h11a2.74,2.74,0,0,0,2.73-2.74v-3a2.72,2.72,0,0,1,1.69-2.52l0,0a2.76,2.76,0,0,1,3,.59l2.15,2.15a2.73,2.73,0,0,0,3.87,0l7.78-7.78a2.73,2.73,0,0,0,0-3.87L237.26,392a2.73,2.73,0,0,1-.59-3v0a2.75,2.75,0,0,1,2.53-1.69h3A2.74,2.74,0,0,0,245,384.53Z" />
  <circle class="python-cls-12" cx="212.66" cy="379.03" r="20.06" />
  <circle class="python-cls-6" cx="210.51" cy="376.87" r="8.56" />
  <circle class="python-cls-13" cx="212.66" cy="379.03" r="8.56" />
</svg>
