<svg xmlns="http://www.w3.org/2000/svg" version="1.1" xmlns:xlink="http://www.w3.org/1999/xlink" xmlns:svgjs="http://svgjs.com/svgjs" width="512" height="512" x="0" y="0" viewBox="0 0 511.967 511.967" style="enable-background:new 0 0 512 512" xml:space="preserve" class=""><g><g><g clip-rule="evenodd" fill-rule="evenodd"><path d="m255.983 235.979 60-80h-30v-119.995h-60v119.995h-30z" fill="#e09932" data-original="#ff7d97" class=""></path><path d="m255.983 275.98c-39.846 0-78.788-7.878-114.732-22.767-35.882-14.863-68.954-36.814-97.127-64.986-7.809-7.809-20.472-7.809-28.281 0s-7.809 20.472 0 28.281c31.765 31.765 69.311 56.621 110.252 73.58 40.879 16.933 84.969 25.892 129.888 25.892 44.92 0 89.01-8.959 129.889-25.892 40.941-16.958 78.487-41.814 110.252-73.58 7.809-7.809 7.809-20.472 0-28.281s-20.472-7.809-28.281 0c-28.173 28.173-61.245 50.124-97.127 64.986-35.945 14.889-74.887 22.767-114.733 22.767z" fill="#63d9b6" data-original="#eaf5bc" class=""></path><path d="m367.288 346.256c-36.633 6.459-73.875 9.726-111.305 9.726s-74.672-3.267-111.305-9.726c-36.801-6.489-72.908-16.139-107.898-28.874-10.355-3.754-21.793 1.598-25.547 11.953s1.598 21.793 11.953 25.547c37.442 13.627 75.796 23.904 114.616 30.748 38.988 6.874 78.53 10.351 118.18 10.351s79.192-3.477 118.18-10.351c38.82-6.845 77.174-17.121 114.616-30.748 10.355-3.754 15.707-15.192 11.953-25.547s-15.192-15.707-25.547-11.953c-34.988 12.735-71.095 22.385-107.896 28.874z" fill="#63d9b6" data-original="#eaf5bc" class=""></path><path d="m481.983 435.983h-452c-11.046 0-20 8.954-20 20s8.954 20 20 20h452c11.046 0 20-8.954 20-20s-8.954-20-20-20z" fill="#63d9b6" data-original="#a0e5a5" class=""></path></g><g><path d="m8.771 223.58c133.386 135.909 361.063 135.886 494.423-.002 11.696-11.694 11.696-30.725 0-42.422-11.697-11.695-30.727-11.696-42.424 0-27.106 27.107-58.693 48.243-93.883 62.819-105.552 44.947-235.417 19.372-315.693-62.819-11.697-11.696-30.727-11.695-42.424 0-11.694 11.696-11.694 30.727.001 42.424zm14.143-28.282c3.899-3.898 10.241-3.897 14.139 0 85.817 87.855 224.654 115.214 337.49 67.154 37.628-15.586 71.397-38.181 100.371-67.154 3.898-3.898 10.242-3.897 14.139 0 3.879 3.721 3.879 10.418 0 14.139-125.75 128.131-340.411 128.109-466.138 0-3.899-3.898-3.899-10.241-.001-14.139z" fill="#2470a9" data-original="#000000" class=""></path><path d="m481.983 425.983h-452c-39.755 1.513-39.725 58.502 0 60h452c39.755-1.513 39.724-58.501 0-60zm0 40.001h-452c-13.252-.504-13.242-19.501 0-20h452c13.251.504 13.242 19.5 0 20z" fill="#2470a9" data-original="#000000" class=""></path><path d="m25.77 327.125c2.406-1.125 5.105-1.248 7.591-.346 56.589 20.601 116.661 33.388 176.918 37.6 13.24.45 14.57-18.563 1.401-19.951-58.411-4.083-116.633-16.477-171.491-36.447-7.519-2.725-15.65-2.36-22.896 1.029-7.245 3.39-12.735 9.398-15.461 16.917-5.799 15.01 2.703 33.184 17.935 38.352 151.292 55.505 321.132 55.505 472.421.004 15.521-5.626 23.572-22.833 17.946-38.356-2.726-7.519-8.217-13.527-15.462-16.917-7.246-3.39-15.378-3.755-22.906-1.025-54.847 19.966-113.077 32.362-171.486 36.443-13.178 1.388-11.829 20.419 1.4 19.951 60.255-4.211 120.336-17 176.914-37.596 4.987-1.925 11.019.898 12.737 5.959 1.868 5.155-.806 10.87-5.972 12.743-146.935 53.902-311.827 53.902-458.765-.004-5.063-1.718-7.885-7.75-5.959-12.738.906-2.497 2.729-4.492 5.135-5.618z" fill="#2470a9" data-original="#000000" class=""></path><path d="m247.983 241.979c3.742 5.275 12.258 5.275 16 0l60-80c4.98-6.328.048-16.187-8-16h-20v-109.995c0-5.523-4.478-10-10-10h-60c-5.523 0-10 4.477-10 10v109.995h-20c-8.05-.187-12.979 9.674-8 16zm-22-76c5.523 0 10-4.477 10-10v-109.995h40v109.995c0 5.523 4.478 10 10 10h10l-40 53.333-40-53.333z" fill="#2470a9" data-original="#000000" class=""></path><path d="m265.983 355.982c0-5.523-4.478-10-10-10h-.007c-5.522 0-9.997 4.477-9.997 10 .492 13.249 19.516 13.247 20.004 0z" fill="#2470a9" data-original="#000000" class=""></path></g></g></g></svg>