<svg xmlns="http://www.w3.org/2000/svg" version="1.1" xmlns:xlink="http://www.w3.org/1999/xlink" xmlns:svgjs="http://svgjs.com/svgjs" width="512" height="512" x="0" y="0" viewBox="0 0 511.995 511.995" style="enable-background:new 0 0 512 512" xml:space="preserve" class=""><g>
<g stroke-width="12" style="stroke-width: 12;">
	<g stroke-width="12" style="stroke-width: 12;">
		<path style="stroke-width: 12;" d="M173.344,164.051l-20.008,3.935L53.21,240.194l-8.125,17.125v14.125l3.612,8.453l25.504,25.504
			l10.384-1.568l27.5-20.71l41.5-16.554l92.5-95.5l6.399-16.834C231.394,160.782,203.856,166.135,173.344,164.051z" fill="#2470a9" data-original="#4d66d2" stroke-width="12" class=""></path>
		<path style="stroke-width: 12;" d="M441.381,61.582l-3.245,3.968h-12.05l-30.493,18.019v6.919l-6.137,0.479l60.879,60.103l9.295,3.457
			c9.99-13.728,17.933-28.503,24.231-43.25l-1.526-9.457L441.381,61.582z" fill="#e38082" data-original="#ff4fb9" stroke-width="12" class=""></path>
		<path style="stroke-width: 12;" d="M443.175,63.345l-35.84-35.211h-6.616c-14.747,6.298-29.522,14.241-43.25,24.231v7.023
			l34.423,33.983C407.241,81.096,424.707,71.196,443.175,63.345z" fill="#e38082" data-original="#ff29ab" stroke-width="12" class=""></path>
		<path style="stroke-width: 12;" d="M357.761,259.511h-9.176l-102,99.557c0,0-20.5,48.5-20.75,48.07s-19.241,25.68-19.241,25.68v4.976
			l59.885,59.885c10.015,10.015,26.579,8.835,35.073-2.498l36.801-49.102c15.833-21.126,21.422-48.286,14.92-73.873
			C342.183,328.553,348.883,288.108,357.761,259.511z" fill="#2470a9" data-original="#4d66d2" stroke-width="12" class=""></path>
		<g stroke-width="12" style="stroke-width: 12;">
			<path style="stroke-width: 12;" d="M59.81,238.606l70.318-52.703c13.876-10.4,29.573-17.703,46.034-21.676
				c-11.73-0.631-23.92-2.343-36.373-5.506c-25.587-6.501-52.748-0.913-73.873,14.921l-49.102,36.801
				c-11.333,8.494-12.513,25.058-2.499,35.073l36.91,36.91C42.641,268.174,45.814,249.095,59.81,238.606z" fill="#2470a9" data-original="#2f4dca" stroke-width="12" class=""></path>
		</g>
		
			<rect x="113.398" y="377.17" transform="matrix(0.7071 0.7071 -0.7071 0.7071 327.9491 18.2007)" style="stroke-width: 12;" width="57.214" height="55.6" fill="#e09932" data-original="#fbc700" stroke-width="12" class=""></rect>
		
			<rect x="78.986" y="340.822" transform="matrix(0.7071 0.7071 -0.7071 0.7071 291.601 33.2566)" style="stroke-width: 12;" width="53.341" height="55.6" fill="#e09932" data-original="#eab900" stroke-width="12" class=""></rect>
		<path style="stroke-width: 12;" d="M503.29,45.083l-8.798-3.264l-31.906,9l-19.41,8.569l-5.04,6.162l0,0l45.726,45.726
			C493.961,87.63,499.852,64.081,503.29,45.083L503.29,45.083z" fill="#e38082" data-original="#ff72c7" stroke-width="12" class=""></path>
		<path style="stroke-width: 12;" d="M503.29,45.083c0.284-1.569,0.557-3.117,0.808-4.621c3.2-19.148-13.416-35.765-32.564-32.564
			c-19.719,3.295-45.216,9.304-70.814,20.237l37.416,37.416C458.968,56.17,481.231,49.499,503.29,45.083z" fill="#e38082" data-original="#ff4fb9" stroke-width="12" class=""></path>
		<path style="stroke-width: 12;" d="M384.792,91.33l-204.54,200.906l-60.333,25l-7.405,26.479c37.79,37.79,90.296,90.296,94.081,94.08
			l12.474-12.474c10.699-10.698,18.958-23.583,24.213-37.772c5.255-14.188,13.515-27.073,24.213-37.772L441.872,175.4
			c6.549-6.549,12.44-13.565,17.759-20.874l-64.038-64.038L384.792,91.33z" fill="#ffffff" data-original="#dbedff" stroke-width="12" class=""></path>
		<path style="stroke-width: 12;" d="M124.113,332.115c10.851-10.851,23.919-19.229,38.31-24.558c14.39-5.33,27.458-13.707,38.31-24.558
			l176.86-176.861c5.617-5.617,11.643-10.825,18-15.651L357.47,52.365c-7.309,5.319-14.325,11.21-20.874,17.759L162.218,244.5
			c-10.699,10.698-23.584,18.958-37.772,24.213c-14.188,5.255-27.073,13.515-37.771,24.213l-12.474,12.474
			c2.028,2.028,18.059,18.059,38.313,38.313L124.113,332.115z" fill="#edeff0" data-original="#b5dcff" stroke-width="12" class=""></path>
		<path style="stroke-width: 12;" d="M275.928,236.068c-8.504-8.504-22.292-8.504-30.795,0L140.397,340.802
			c-8.503,8.504-8.503,22.291,0,30.795c8.504,8.504,22.292,8.504,30.795,0l104.735-104.735
			C284.432,258.359,284.432,244.572,275.928,236.068z" fill="#2470a9" data-original="#4d66d2" stroke-width="12" class=""></path>
		<path style="stroke-width: 12;" d="M374.861,137.134c-1.864-1.864-3.895-3.456-6.039-4.795h-3.737l-9.363,8.729l-4.837,12.375v13.375
			c0,0,4.598,14.625,4.837,14.75s6.613,7.125,6.613,7.125l6.487,1.187c2.144-1.339,4.175-2.931,6.039-4.795
			C388.103,171.844,388.103,150.376,374.861,137.134z" fill="#63d9b6" data-original="#1ca8ff" stroke-width="12" class=""></path>
		<path style="stroke-width: 12;" d="M362.783,185.086c-13.241-13.242-13.241-34.71,0-47.952c1.864-1.864,3.895-3.456,6.039-4.795
			c-13.088-8.174-30.535-6.583-41.913,4.795c-13.241,13.242-13.241,34.71,0,47.952c11.378,11.378,28.825,12.969,41.913,4.795
			C366.678,188.542,364.647,186.95,362.783,185.086z" fill="#63d9b6" data-original="#0094fd" stroke-width="12" class=""></path>
	</g>
	<g stroke-width="12" style="stroke-width: 12;">
		<path style="stroke-width: 12; stroke-linecap: round; stroke-linejoin: round; stroke-miterlimit: 10;" d="
			M275.928,236.068c-8.504-8.504-22.292-8.504-30.796,0L140.397,340.802c-8.503,8.504-8.503,22.291,0,30.795
			c8.504,8.504,22.292,8.504,30.795,0l104.735-104.735C284.432,258.359,284.432,244.572,275.928,236.068z" fill="none" stroke="#23303d" stroke-width="12" stroke-linecap="round" stroke-linejoin="round" stroke-miterlimit="10" data-original="#000000" class=""></path>
		<path style="stroke-width: 12; stroke-linecap: round; stroke-linejoin: round; stroke-miterlimit: 10;" d="
			M301.552,495.181l36.801-49.102c15.833-21.126,21.422-48.286,14.92-73.873c-11.091-43.652-4.391-84.097,4.487-112.694
			l-90.266,90.266c-10.77,10.77-19.069,23.756-24.318,38.056c-5.261,14.332-13.838,27.216-24.633,38.012l-11.949,11.949
			l59.885,59.885C276.494,507.694,293.058,506.514,301.552,495.181z" fill="none" stroke="#23303d" stroke-width="12" stroke-linecap="round" stroke-linejoin="round" stroke-miterlimit="10" data-original="#000000" class=""></path>
		<path style="stroke-width: 12; stroke-linecap: round; stroke-linejoin: round; stroke-miterlimit: 10;" d="
			M139.79,158.721c-25.587-6.501-52.748-0.913-73.873,14.92l-49.102,36.801c-11.334,8.494-12.513,25.058-2.498,35.073l59.885,59.885
			l12.474-12.474c10.77-10.77,23.756-19.069,38.056-24.319c14.332-5.261,27.217-13.838,38.012-24.633l89.74-89.74
			C223.887,163.112,183.442,169.812,139.79,158.721z" fill="none" stroke="#23303d" stroke-width="12" stroke-linecap="round" stroke-linejoin="round" stroke-miterlimit="10" data-original="#000000" class=""></path>
		
			<rect x="69.287" y="364.237" transform="matrix(0.7071 0.7071 -0.7071 0.7071 311.2414 27.3328)" style="stroke-width: 12; stroke-linecap: round; stroke-linejoin: round; stroke-miterlimit: 10;" width="106.681" height="50.262" fill="none" stroke="#23303d" stroke-width="12" stroke-linecap="round" stroke-linejoin="round" stroke-miterlimit="10" data-original="#000000" class=""></rect>
		
			<line style="stroke-width: 12; stroke-linecap: round; stroke-linejoin: round; stroke-miterlimit: 10;" x1="57.97" y1="360.252" x2="151.743" y2="454.025" fill="none" stroke="#23303d" stroke-width="12" stroke-linecap="round" stroke-linejoin="round" stroke-miterlimit="10" data-original="#000000" class=""></line>
		
			<line style="stroke-width: 12; stroke-linecap: round; stroke-linejoin: round; stroke-miterlimit: 10;" x1="87.493" y1="451.423" x2="68.374" y2="470.542" fill="none" stroke="#23303d" stroke-width="12" stroke-linecap="round" stroke-linejoin="round" stroke-miterlimit="10" data-original="#000000" class=""></line>
		
			<line style="stroke-width: 12; stroke-linecap: round; stroke-linejoin: round; stroke-miterlimit: 10;" x1="60.572" y1="424.502" x2="41.453" y2="443.621" fill="none" stroke="#23303d" stroke-width="12" stroke-linecap="round" stroke-linejoin="round" stroke-miterlimit="10" data-original="#000000" class=""></line>
		
			<line style="stroke-width: 12; stroke-linecap: round; stroke-linejoin: round; stroke-miterlimit: 10;" x1="113.526" y1="477.456" x2="94.407" y2="496.575" fill="none" stroke="#23303d" stroke-width="12" stroke-linecap="round" stroke-linejoin="round" stroke-miterlimit="10" data-original="#000000" class=""></line>
		
			<line style="stroke-width: 12; stroke-linecap: round; stroke-linejoin: round; stroke-miterlimit: 10;" x1="34.54" y1="398.469" x2="15.42" y2="417.588" fill="none" stroke="#23303d" stroke-width="12" stroke-linecap="round" stroke-linejoin="round" stroke-miterlimit="10" data-original="#000000" class=""></line>
		
			<circle style="stroke-width: 12; stroke-linecap: round; stroke-linejoin: round; stroke-miterlimit: 10;" cx="350.885" cy="161.11" r="33.907" fill="none" stroke="#23303d" stroke-width="12" stroke-linecap="round" stroke-linejoin="round" stroke-miterlimit="10" data-original="#000000" class=""></circle>
		<path style="stroke-width: 12; stroke-linecap: round; stroke-linejoin: round; stroke-miterlimit: 10;" d="
			M400.719,28.134c-14.747,6.298-29.522,14.241-43.25,24.231L459.63,154.526c9.99-13.728,17.933-28.503,24.231-43.25" fill="none" stroke="#23303d" stroke-width="12" stroke-linecap="round" stroke-linejoin="round" stroke-miterlimit="10" data-original="#000000" class=""></path>
		<path style="stroke-width: 12; stroke-linecap: round; stroke-linejoin: round; stroke-miterlimit: 10;" d="
			M420.856,196.416l21.016-21.016c6.549-6.549,12.44-13.565,17.759-20.874L357.469,52.365c-7.309,5.319-14.325,11.21-20.874,17.759
			L162.218,244.5c-10.699,10.698-23.584,18.958-37.772,24.213c-14.188,5.255-27.073,13.515-37.772,24.213L74.2,305.401
			c5.812,5.812,126.581,126.581,132.394,132.394l12.474-12.474c10.699-10.698,18.958-23.583,24.213-37.772
			c5.255-14.188,13.515-27.073,24.213-37.772l128.612-128.612" fill="none" stroke="#23303d" stroke-width="12" stroke-linecap="round" stroke-linejoin="round" stroke-miterlimit="10" data-original="#000000" class=""></path>
		<path style="stroke-width: 12; stroke-linecap: round; stroke-linejoin: round; stroke-miterlimit: 10;" d="
			M454.664,82.08l29.197,29.197c10.933-25.598,16.941-51.096,20.237-70.814c3.2-19.148-13.416-35.765-32.564-32.564
			c-19.719,3.295-45.216,9.304-70.815,20.237l29.197,29.197" fill="none" stroke="#23303d" stroke-width="12" stroke-linecap="round" stroke-linejoin="round" stroke-miterlimit="10" data-original="#000000" class=""></path>
	</g>
</g>















</g></svg>