<svg xmlns="http://www.w3.org/2000/svg" version="1.1" xmlns:xlink="http://www.w3.org/1999/xlink" xmlns:svgjs="http://svgjs.com/svgjs" width="512" height="512" x="0" y="0" viewBox="0 0 512 512" style="enable-background:new 0 0 512 512" xml:space="preserve" class=""><g>
<g stroke-width="12" style="stroke-width: 12;">
	<g stroke-width="12" style="stroke-width: 12;">
		<path style="stroke-width: 12;" d="M82.357,465.604H47.411c-5.398,0-9.775-4.376-9.775-9.775v-49.642h54.496v49.642
			C92.132,461.228,87.756,465.604,82.357,465.604z" fill="#97a2a6" data-original="#7a8c98" class="" stroke-width="12"></path>
		<path style="stroke-width: 12;" d="M92.132,406.189v49.64c0,5.4-4.38,9.78-9.78,9.78h-25.72c5.4,0,9.78-4.38,9.78-9.78v-49.64H92.132z
			" fill="#97a2a6" data-original="#596c76" class="" stroke-width="12"></path>
		<path style="stroke-width: 12;" d="M464.587,465.604H429.64c-5.398,0-9.775-4.376-9.775-9.775v-49.642h54.496v49.642
			C474.361,461.228,469.985,465.604,464.587,465.604z" fill="#97a2a6" data-original="#7a8c98" class="" stroke-width="12"></path>
		<path style="stroke-width: 12;" d="M474.361,406.189v49.64c0,5.4-4.38,9.78-9.78,9.78h-25.72c5.4,0,9.78-4.38,9.78-9.78v-49.64
			H474.361z" fill="#97a2a6" data-original="#596c76" class="" stroke-width="12"></path>
	</g>
	<g stroke-width="12" style="stroke-width: 12;">
		<path style="stroke-width: 12;" d="M56.654,116.127L56.654,116.127c-14.397,4.376-22.521,19.595-18.145,33.993l51.553,169.604
			c4.376,14.397,19.595,22.521,33.992,18.145l0,0c14.397-4.376,22.521-19.595,18.145-33.992L90.647,134.272
			C86.27,119.874,71.051,111.751,56.654,116.127z" fill="#97a2a6" data-original="#7a8c98" class="" stroke-width="12"></path>
		<path style="stroke-width: 12;" d="M143.39,311.813c0,11.68-7.57,22.48-19.33,26.05c-2.81,0.85-5.65,1.23-8.43,1.18
			c5.98-5.13,9.5-12.69,9.5-20.65c0-2.63-0.39-5.3-1.19-7.94l-51.55-169.61c-3.53-11.58-14.07-19.12-25.56-19.32
			c2.78-2.4,6.09-4.26,9.83-5.4c14.39-4.37,29.61,3.75,33.99,18.15l51.55,169.6C143,306.513,143.39,309.183,143.39,311.813z" fill="#97a2a6" data-original="#596c76" class="" stroke-width="12"></path>
		<path style="stroke-width: 12;" d="M455.343,116.127L455.343,116.127c14.397,4.376,22.521,19.595,18.145,33.993l-51.553,169.604
			c-4.376,14.397-19.595,22.521-33.992,18.145l0,0c-14.397-4.376-22.521-19.595-18.145-33.992l51.553-169.604
			C425.727,119.874,440.946,111.751,455.343,116.127z" fill="#97a2a6" data-original="#7a8c98" class="" stroke-width="12"></path>
		<path style="stroke-width: 12;" d="M473.49,150.123l-51.56,169.6c-4.37,14.4-19.59,22.52-33.99,18.15c-5.37-1.63-9.87-4.78-13.16-8.82
			c12.55,1.09,24.58-6.69,28.38-19.22l51.56-169.61c2.74-9.03,0.57-18.39-4.99-25.18c1.87,0.16,3.75,0.52,5.61,1.08
			C469.74,120.503,477.86,135.723,473.49,150.123z" fill="#97a2a6" data-original="#596c76" class="" stroke-width="12"></path>
	</g>
	<g stroke-width="12" style="stroke-width: 12;">
		<path style="stroke-width: 12; stroke-linecap: round; stroke-linejoin: round; stroke-miterlimit: 10;" d="
			M138.82,292.763l-48.17-158.49c-4.38-14.4-19.6-22.52-34-18.15c-14.39,4.38-22.52,19.6-18.14,34l43.36,142.64" fill="none" stroke="#000000" stroke-width="12" stroke-linecap="round" stroke-linejoin="round" stroke-miterlimit="10" data-original="#000000" class=""></path>
		<path style="stroke-width: 12; stroke-linecap: round; stroke-linejoin: round; stroke-miterlimit: 10;" d="
			M373.18,292.763l48.17-158.49c4.38-14.4,19.6-22.52,33.99-18.15c14.4,4.38,22.52,19.6,18.15,34l-5.66,18.62" fill="none" stroke="#000000" stroke-width="12" stroke-linecap="round" stroke-linejoin="round" stroke-miterlimit="10" data-original="#000000" class=""></path>
		
			<line style="stroke-width: 12; stroke-linecap: round; stroke-linejoin: round; stroke-miterlimit: 10;" x1="457.66" y1="202.183" x2="430.13" y2="292.763" fill="none" stroke="#000000" stroke-width="12" stroke-linecap="round" stroke-linejoin="round" stroke-miterlimit="10" data-original="#000000" class=""></line>
	</g>
	<path style="stroke-width: 12;" d="M474.361,292.768H37.636c-16.644,0-30.136,13.492-30.136,30.136v80.926
		c0,16.644,13.492,30.136,30.136,30.136h436.726c16.644,0,30.136-13.492,30.136-30.136v-80.926
		C504.497,306.26,491.005,292.768,474.361,292.768z" fill="#2470a9" data-original="#eef5f6" class="" stroke-width="12"></path>
	<path style="stroke-width: 12;" d="M504.497,322.903v80.93c0,16.64-13.49,30.14-30.14,30.14h-38.96c16.64,0,30.13-13.5,30.13-30.14
		v-80.93c0-16.64-13.49-30.13-30.13-30.13h38.96C491.007,292.774,504.497,306.263,504.497,322.903z" fill="#2470a9" data-original="#d9e7ec" class="" stroke-width="12"></path>
	<path style="stroke-width: 12; stroke-linecap: round; stroke-linejoin: round; stroke-miterlimit: 10;" d="
		M349.08,292.763h125.28c16.65,0,30.14,13.5,30.14,30.14v80.93c0,16.64-13.49,30.13-30.14,30.13H37.64
		c-16.65,0-30.14-13.49-30.14-30.13v-80.93c0-16.64,13.49-30.14,30.14-30.14h139.42" fill="none" stroke="#000000" stroke-width="12" stroke-linecap="round" stroke-linejoin="round" stroke-miterlimit="10" data-original="#000000" class=""></path>
	<g stroke-width="12" style="stroke-width: 12;">
		<path style="stroke-width: 12;" d="M317.345,151.862l-11.88,5.9c-4.14,2.06-9.16,0.37-11.22-3.77l-27.48-55.3
			c-7.35-14.78-22.83-23.25-38.39-22.08c-4.49,0.33-8.99,1.47-13.3,3.48c-19.84,9.28-28.08,33.11-18.39,52.61l31.54,63.45
			l-26.86,13.35l-31.07-62.51c-16.84-33.88-3.99-75.52,29.63-92.87c9.14-4.72,18.83-7.19,28.46-7.61
			c26.44-1.19,52.4,12.98,64.91,38.17l27.82,55.96C323.165,144.782,321.485,149.802,317.345,151.862z" fill="#97a2a6" data-original="#7a8c98" class="" stroke-width="12"></path>
		<path style="stroke-width: 12;" d="M317.345,151.862l-11.88,5.9c-4.14,2.06-9.16,0.37-11.22-3.77l-27.48-55.3
			c-7.35-14.78-22.83-23.25-38.39-22.08c11.74-17.55,0.44-29.65,0.01-30.1c26.44-1.19,52.4,12.98,64.91,38.17l27.82,55.96
			C323.165,144.782,321.485,149.802,317.345,151.862z" fill="#97a2a6" data-original="#596c76" class="" stroke-width="12"></path>
		<path style="stroke-width: 12; stroke-linecap: round; stroke-linejoin: round; stroke-miterlimit: 10;" d="
			M225.855,191.382l-29.17-58.68c-9.69-19.5-1.45-43.33,18.39-52.61c19.26-9.01,42.22-0.44,51.69,18.6l27.48,55.3
			c2.06,4.14,7.08,5.83,11.22,3.77l11.88-5.9c4.14-2.06,5.82-7.08,3.77-11.22l-27.82-55.96c-17.07-34.36-59.16-48.23-93.37-30.56
			c-33.62,17.35-46.47,58.99-29.63,92.87l22.79,45.84" fill="none" stroke="#000000" stroke-width="12" stroke-linecap="round" stroke-linejoin="round" stroke-miterlimit="10" data-original="#000000" class=""></path>
		<path style="stroke-width: 12;" d="M324.755,191.382H201.392c-13.436,0-24.329,10.892-24.329,24.329v80.691
			c0,13.436,10.892,24.329,24.329,24.329h123.362c13.436,0,24.329-10.892,24.329-24.329v-80.691
			C349.083,202.275,338.191,191.382,324.755,191.382z" fill="#e38082" data-original="#fe646f" class="" stroke-width="12"></path>
		<path style="stroke-width: 12;" d="M349.083,215.711v80.69c0,13.44-10.89,24.33-24.33,24.33h-28.72c13.43,0,24.33-10.89,24.33-24.33
			v-80.69c0-13.44-10.9-24.33-24.33-24.33h28.72C338.193,191.381,349.083,202.271,349.083,215.711z" fill="#e38082" data-original="#fd4755" class="" stroke-width="12"></path>
		<path style="stroke-width: 12; stroke-linecap: round; stroke-linejoin: round; stroke-miterlimit: 10;" d="
			M177.06,264.643v31.76c0,13.44,10.9,24.33,24.33,24.33h123.36c13.44,0,24.33-10.89,24.33-24.33v-80.69
			c0-13.44-10.89-24.33-24.33-24.33H201.39c-13.43,0-24.33,10.89-24.33,24.33v14.59" fill="none" stroke="#000000" stroke-width="12" stroke-linecap="round" stroke-linejoin="round" stroke-miterlimit="10" data-original="#000000" class=""></path>
		<path style="stroke-width: 12;" d="M283.544,245.137c0-11.306-9.165-20.471-20.471-20.471c-11.305,0-20.47,9.165-20.47,20.471
			c0,6.691,3.224,12.613,8.188,16.349v14.428c0,6.783,5.499,12.282,12.282,12.282h0c6.783,0,12.282-5.499,12.282-12.282v-14.428
			C280.32,257.75,283.544,251.827,283.544,245.137z" fill="#97a2a6" data-original="#596c76" class="" stroke-width="12"></path>
		<path style="stroke-width: 12; stroke-linecap: round; stroke-linejoin: round; stroke-miterlimit: 10;" d="
			M283.544,245.137c0-11.306-9.165-20.471-20.471-20.471c-11.305,0-20.47,9.165-20.47,20.471c0,6.691,3.224,12.613,8.188,16.349
			v14.428c0,6.783,5.499,12.282,12.282,12.282h0c6.783,0,12.282-5.499,12.282-12.282v-14.428
			C280.32,257.75,283.544,251.827,283.544,245.137z" fill="none" stroke="#000000" stroke-width="12" stroke-linecap="round" stroke-linejoin="round" stroke-miterlimit="10" data-original="#000000" class=""></path>
	</g>
	<path style="stroke-width: 12; stroke-linecap: round; stroke-linejoin: round; stroke-miterlimit: 10;" d="
		M82.357,465.604H47.411c-5.398,0-9.775-4.376-9.775-9.775v-21.864h54.496v21.864C92.132,461.228,87.756,465.604,82.357,465.604z" fill="none" stroke="#000000" stroke-width="12" stroke-linecap="round" stroke-linejoin="round" stroke-miterlimit="10" data-original="#000000" class=""></path>
	<path style="stroke-width: 12; stroke-linecap: round; stroke-linejoin: round; stroke-miterlimit: 10;" d="
		M464.587,465.604H429.64c-5.398,0-9.775-4.376-9.775-9.775v-21.864h54.496v21.864C474.361,461.228,469.985,465.604,464.587,465.604
		z" fill="none" stroke="#000000" stroke-width="12" stroke-linecap="round" stroke-linejoin="round" stroke-miterlimit="10" data-original="#000000" class=""></path>
	<g stroke-width="12" style="stroke-width: 12;">
		<circle style="stroke-width: 12;" cx="79.498" cy="363.366" r="24.748" fill="#e38082" data-original="#fe646f" class="" stroke-width="12"></circle>
		<path style="stroke-width: 12;" d="M104.246,363.366c0,13.67-11.08,24.75-24.75,24.75c-3.65,0-7.12-0.79-10.24-2.22
			c8.56-3.9,14.5-12.52,14.5-22.53c0-10-5.94-18.62-14.5-22.52c3.12-1.43,6.59-2.22,10.24-2.22
			C93.166,338.627,104.246,349.707,104.246,363.366z" fill="#e38082" data-original="#fd4755" class="" stroke-width="12"></path>
		
			<circle style="stroke-width: 12; stroke-linecap: round; stroke-linejoin: round; stroke-miterlimit: 10;" cx="79.498" cy="363.366" r="24.748" fill="none" stroke="#000000" stroke-width="12" stroke-linecap="round" stroke-linejoin="round" stroke-miterlimit="10" data-original="#000000" class=""></circle>
	</g>
	<g stroke-width="12" style="stroke-width: 12;">
		<circle style="stroke-width: 12;" cx="152.315" cy="363.366" r="24.748" fill="#63d9b6" data-original="#ffe177" class="" stroke-width="12"></circle>
		<path style="stroke-width: 12;" d="M177.063,363.366c0,13.67-11.08,24.75-24.75,24.75c-3.65,0-7.12-0.79-10.24-2.22
			c8.56-3.9,14.5-12.52,14.5-22.53c0-10-5.94-18.62-14.5-22.52c3.12-1.43,6.59-2.22,10.24-2.22
			C165.983,338.627,177.063,349.707,177.063,363.366z" fill="#63d9b6" data-original="#ffd15b" class="" stroke-width="12"></path>
		
			<circle style="stroke-width: 12; stroke-linecap: round; stroke-linejoin: round; stroke-miterlimit: 10;" cx="152.315" cy="363.366" r="24.748" fill="none" stroke="#000000" stroke-width="12" stroke-linecap="round" stroke-linejoin="round" stroke-miterlimit="10" data-original="#000000" class=""></circle>
	</g>
	<g stroke-width="12" style="stroke-width: 12;">
		
			<line style="stroke-width: 12; stroke-linecap: round; stroke-linejoin: round; stroke-miterlimit: 10;" x1="459.343" y1="348.323" x2="248.371" y2="348.323" fill="none" stroke="#000000" stroke-width="12" stroke-linecap="round" stroke-linejoin="round" stroke-miterlimit="10" data-original="#000000" class=""></line>
		
			<line style="stroke-width: 12; stroke-linecap: round; stroke-linejoin: round; stroke-miterlimit: 10;" x1="295.7" y1="378.413" x2="248.37" y2="378.413" fill="none" stroke="#000000" stroke-width="12" stroke-linecap="round" stroke-linejoin="round" stroke-miterlimit="10" data-original="#000000" class=""></line>
		
			<line style="stroke-width: 12; stroke-linecap: round; stroke-linejoin: round; stroke-miterlimit: 10;" x1="459.34" y1="378.413" x2="330.7" y2="378.413" fill="none" stroke="#000000" stroke-width="12" stroke-linecap="round" stroke-linejoin="round" stroke-miterlimit="10" data-original="#000000" class=""></line>
	</g>
	<g stroke-width="12" style="stroke-width: 12;">
		
			<line style="stroke-width: 12; stroke-linecap: round; stroke-linejoin: round; stroke-miterlimit: 10;" x1="380.786" y1="63.608" x2="358.817" y2="85.577" fill="none" stroke="#000000" stroke-width="12" stroke-linecap="round" stroke-linejoin="round" stroke-miterlimit="10" data-original="#000000" class=""></line>
		<g stroke-width="12" style="stroke-width: 12;">
			
				<line style="stroke-width: 12; stroke-linecap: round; stroke-linejoin: round; stroke-miterlimit: 10;" x1="397.998" y1="109.86" x2="370.975" y2="111.63" fill="none" stroke="#000000" stroke-width="12" stroke-linecap="round" stroke-linejoin="round" stroke-miterlimit="10" data-original="#000000" class=""></line>
			
				<line style="stroke-width: 12; stroke-linecap: round; stroke-linejoin: round; stroke-miterlimit: 10;" x1="334.534" y1="46.396" x2="332.764" y2="73.42" fill="none" stroke="#000000" stroke-width="12" stroke-linecap="round" stroke-linejoin="round" stroke-miterlimit="10" data-original="#000000" class=""></line>
		</g>
	</g>
</g>















</g></svg>