<svg id="Layer_1" data-name="Layer 1" xmlns="http://www.w3.org/2000/svg" viewBox="0 0 500 500">
  <defs>
    <style>
      .systeme-cls-1,
      .systeme-cls-10,
      .systeme-cls-14,
      .systeme-cls-7,
      .systeme-cls-8,
      .systeme-cls-9 {
        fill: #fff;
      }

      .systeme-cls-11,
      .systeme-cls-12,
      .systeme-cls-13,
      .systeme-cls-15,
      .systeme-cls-2 {
        fill: none;
      }

      .systeme-cls-2 {
        stroke: #2470a9;
      }

      .systeme-cls-12,
      .systeme-cls-13,
      .systeme-cls-14,
      .systeme-cls-2 {
        stroke-miterlimit: 10;
      }

      .systeme-cls-10,
      .systeme-cls-11,
      .systeme-cls-12,
      .systeme-cls-13,
      .systeme-cls-14,
      .systeme-cls-15,
      .systeme-cls-2,
      .systeme-cls-7,
      .systeme-cls-8,
      .systeme-cls-9 {
        stroke-width: 3px;
      }

      .systeme-cls-3 {
        fill: #ff7680;
      }

      .systeme-cls-4 {
        fill: #63d9b6;
      }

      .systeme-cls-5 {
        fill: #f7931e;
      }

      .systeme-cls-6 {
        fill: #edeff0;
      }

      .systeme-cls-7 {
        stroke: #4c5152;
      }

      .systeme-cls-10,
      .systeme-cls-11,
      .systeme-cls-15,
      .systeme-cls-7,
      .systeme-cls-8,
      .systeme-cls-9 {
        stroke-linecap: round;
        stroke-linejoin: round;
      }

      .systeme-cls-11,
      .systeme-cls-8 {
        stroke: #63d9b6;
      }

      .systeme-cls-15,
      .systeme-cls-9 {
        stroke: #f7931e;
      }

      .systeme-cls-10 {
        stroke: #ff7680;
      }

      .systeme-cls-12,
      .systeme-cls-14 {
        stroke: #97a2a6;
      }

      .systeme-cls-13 {
        stroke: #edeff0;
      }

    </style>
  </defs>
  <rect class="systeme-cls-1" x="68.91" y="136.01" width="336.77" height="220.65" rx="8.52" />
  <rect class="systeme-cls-2" x="68.91" y="136.01" width="336.77" height="220.65" rx="8.52" />
  <line class="systeme-cls-2" x1="405.68" y1="161.05" x2="68.91" y2="161.05" />
  <circle class="systeme-cls-3" cx="364.91" cy="149.12" r="2.58" />
  <circle class="systeme-cls-4" cx="377.26" cy="149.12" r="2.58" />
  <circle class="systeme-cls-5" cx="389.62" cy="149.12" r="2.58" />
  <rect class="systeme-cls-6" x="82.68" y="173.37" width="311.39" height="170.17" rx="4.9" />
  <rect class="systeme-cls-1" x="91.78" y="183.03" width="142.11" height="150.84" rx="4.9" />
  <line class="systeme-cls-7" x1="99.38" y1="194.67" x2="107.91" y2="194.67" />
  <line class="systeme-cls-7" x1="99.38" y1="207.43" x2="107.91" y2="207.43" />
  <line class="systeme-cls-7" x1="99.38" y1="220.18" x2="107.91" y2="220.18" />
  <line class="systeme-cls-7" x1="99.38" y1="232.94" x2="107.91" y2="232.94" />
  <line class="systeme-cls-7" x1="99.38" y1="245.7" x2="107.91" y2="245.7" />
  <line class="systeme-cls-7" x1="99.38" y1="258.45" x2="107.91" y2="258.45" />
  <line class="systeme-cls-7" x1="99.38" y1="271.21" x2="107.91" y2="271.21" />
  <line class="systeme-cls-7" x1="99.38" y1="283.97" x2="107.91" y2="283.97" />
  <line class="systeme-cls-7" x1="99.38" y1="296.72" x2="107.91" y2="296.72" />
  <line class="systeme-cls-7" x1="99.38" y1="309.48" x2="107.91" y2="309.48" />
  <line class="systeme-cls-7" x1="99.38" y1="322.24" x2="107.91" y2="322.24" />
  <line class="systeme-cls-8" x1="114.37" y1="194.67" x2="128.29" y2="194.67" />
  <line class="systeme-cls-8" x1="114.37" y1="207.43" x2="150.86" y2="207.43" />
  <line class="systeme-cls-9" x1="114.37" y1="220.18" x2="150.86" y2="220.18" />
  <line class="systeme-cls-10" x1="159.11" y1="220.18" x2="195.6" y2="220.18" />
  <line class="systeme-cls-9" x1="159.11" y1="232.94" x2="224.76" y2="232.94" />
  <line class="systeme-cls-9" x1="159.11" y1="245.7" x2="181.03" y2="245.7" />
  <line class="systeme-cls-9" x1="159.11" y1="258.45" x2="210.18" y2="258.45" />
  <line class="systeme-cls-10" x1="159.11" y1="283.97" x2="195.6" y2="283.97" />
  <line class="systeme-cls-9" x1="159.11" y1="296.72" x2="211.35" y2="296.72" />
  <line class="systeme-cls-9" x1="159.11" y1="309.48" x2="181.03" y2="309.48" />
  <line class="systeme-cls-9" x1="136.94" y1="232.94" x2="150.86" y2="232.94" />
  <line class="systeme-cls-9" x1="136.94" y1="245.7" x2="150.86" y2="245.7" />
  <line class="systeme-cls-9" x1="136.94" y1="258.45" x2="150.86" y2="258.45" />
  <line class="systeme-cls-8" x1="114.37" y1="271.21" x2="150.86" y2="271.21" />
  <line class="systeme-cls-9" x1="114.37" y1="283.97" x2="150.86" y2="283.97" />
  <line class="systeme-cls-9" x1="136.94" y1="296.72" x2="150.86" y2="296.72" />
  <line class="systeme-cls-9" x1="136.94" y1="309.48" x2="150.86" y2="309.48" />
  <circle class="systeme-cls-8" cx="238.37" cy="142.73" r="36.19" />
  <polyline class="systeme-cls-11" points="229.33 133.34 214.81 142.73 229.33 152.13" />
  <polyline class="systeme-cls-11" points="247.42 133.34 261.94 142.73 247.42 152.13" />
  <line class="systeme-cls-11" x1="241.95" y1="128.71" x2="234.66" y2="156.76" />
  <path class="systeme-cls-1" d="M373.39,271.9V251.77a5,5,0,0,0-5-5h-5.56a5,5,0,0,1-4.62-3.08l0-.07a5,5,0,0,1,1.08-5.45l3.94-3.94a5,5,0,0,0,0-7.08L349,212.91a5,5,0,0,0-7.07,0l-3.94,3.94a5,5,0,0,1-5.45,1.07l-.07,0a5,5,0,0,1-3.08-4.62v-5.56a5,5,0,0,0-5-5H304.2a5,5,0,0,0-5,5v5.56a5,5,0,0,1-3.09,4.62l-.06,0a5,5,0,0,1-5.46-1.07l-3.93-3.94a5,5,0,0,0-7.08,0l-14.24,14.23a5,5,0,0,0,0,7.08l3.94,3.94a5,5,0,0,1,1.08,5.45l0,.07a5,5,0,0,1-4.62,3.08h-5.56a5,5,0,0,0-5,5V271.9a5,5,0,0,0,5,5h5.56a5,5,0,0,1,4.62,3.09l0,.06a5,5,0,0,1-1.08,5.46l-3.94,3.93a5,5,0,0,0,0,7.08l14.24,14.23a5,5,0,0,0,7.08,0l3.93-3.93a5,5,0,0,1,5.46-1.08l.06,0a5,5,0,0,1,3.09,4.61V316a5,5,0,0,0,5,5h20.13a5,5,0,0,0,5-5v-5.57a5,5,0,0,1,3.08-4.61l.07,0a5,5,0,0,1,5.45,1.08l3.94,3.93a5,5,0,0,0,7.07,0l14.24-14.23a5,5,0,0,0,0-7.08l-3.94-3.93a5,5,0,0,1-1.08-5.46l0-.06a5,5,0,0,1,4.62-3.09h5.56A5,5,0,0,0,373.39,271.9Z" />
  <path class="systeme-cls-6" d="M322.62,206.56a5,5,0,0,0,3.09,4.62l.06,0a5,5,0,0,0,3.57.1v-3.59a5,5,0,0,0-5-5h-1.71Z" />
  <path class="systeme-cls-6" d="M263.74,276.9a5,5,0,0,0-.1-3.57l0-.06a5,5,0,0,0-4.61-3.09h-3.85v1.72a5,5,0,0,0,5,5Z" />
  <path class="systeme-cls-6" d="M356.47,220.43a5,5,0,0,1,0,7.07l-3.93,3.94a5,5,0,0,0-1.08,5.46l0,.06A5,5,0,0,0,356.1,240h2a5,5,0,0,1,1.18-1.88l3.94-3.94a5,5,0,0,0,0-7.08L349,212.91h0Z" />
  <path class="systeme-cls-6" d="M368.38,246.76h-1.71v18.42a5,5,0,0,1-5,5H356.1a5,5,0,0,0-4.62,3.09l0,.06a5,5,0,0,0,1.08,5.46l3.93,3.93a5,5,0,0,1,0,7.08L342.24,304a5,5,0,0,1-7.08,0l-3.94-3.94a5,5,0,0,0-5.45-1.08l-.06,0a5,5,0,0,0-3.09,4.62v5.56a5,5,0,0,1-5,5H299.2V316a5,5,0,0,0,5,5h20.13a5,5,0,0,0,5-5v-5.57a5,5,0,0,1,3.08-4.61l.07,0a5,5,0,0,1,5.45,1.08l3.94,3.93a5,5,0,0,0,7.07,0l14.24-14.23a5,5,0,0,0,0-7.08l-3.94-3.93a5,5,0,0,1-1.08-5.46l0-.06a5,5,0,0,1,4.62-3.09h5.56a5,5,0,0,0,5-5V251.77A5,5,0,0,0,368.38,246.76Z" />
  <path class="systeme-cls-6" d="M292.48,303.67a5,5,0,0,0-3.09-4.62l-.06,0a5,5,0,0,0-5.46,1.08L279.94,304a5,5,0,0,1-7.08,0l6.72,6.71a5,5,0,0,0,7.08,0l3.93-3.93a4.94,4.94,0,0,1,1.89-1.18Z" />
  <path class="systeme-cls-12" d="M373.39,271.9V251.77a5,5,0,0,0-5-5h-5.56a5,5,0,0,1-4.62-3.08l0-.07a5,5,0,0,1,1.08-5.45l3.94-3.94a5,5,0,0,0,0-7.08L349,212.91a5,5,0,0,0-7.07,0l-3.94,3.94a5,5,0,0,1-5.45,1.07l-.07,0a5,5,0,0,1-3.08-4.62v-5.56a5,5,0,0,0-5-5H304.2a5,5,0,0,0-5,5v5.56a5,5,0,0,1-3.09,4.62l-.06,0a5,5,0,0,1-5.46-1.07l-3.93-3.94a5,5,0,0,0-7.08,0l-14.24,14.23a5,5,0,0,0,0,7.08l3.94,3.94a5,5,0,0,1,1.08,5.45l0,.07a5,5,0,0,1-4.62,3.08h-5.56a5,5,0,0,0-5,5V271.9a5,5,0,0,0,5,5h5.56a5,5,0,0,1,4.62,3.09l0,.06a5,5,0,0,1-1.08,5.46l-3.94,3.93a5,5,0,0,0,0,7.08l14.24,14.23a5,5,0,0,0,7.08,0l3.93-3.93a5,5,0,0,1,5.46-1.08l.06,0a5,5,0,0,1,3.09,4.61V316a5,5,0,0,0,5,5h20.13a5,5,0,0,0,5-5v-5.57a5,5,0,0,1,3.08-4.61l.07,0a5,5,0,0,1,5.45,1.08l3.94,3.93a5,5,0,0,0,7.07,0l14.24-14.23a5,5,0,0,0,0-7.08l-3.94-3.93a5,5,0,0,1-1.08-5.46l0-.06a5,5,0,0,1,4.62-3.09h5.56A5,5,0,0,0,373.39,271.9Z" />
  <circle class="systeme-cls-13" cx="314.27" cy="261.83" r="36.7" />
  <circle class="systeme-cls-6" cx="310.33" cy="257.89" r="15.65" />
  <circle class="systeme-cls-14" cx="314.27" cy="261.83" r="15.65" />
  <path class="systeme-cls-1" d="M301.28,323.36a34.75,34.75,0,0,0,8.65-39.58L283.09,308l-11.39-4.72-3.51-11.81L295,267.24a34.75,34.75,0,0,0-50.4,39.91l-66.37,59.79a15.22,15.22,0,0,0-1.12,21.49h0a15.22,15.22,0,0,0,21.49,1.12L265,329.76A34.75,34.75,0,0,0,301.28,323.36Z" />
  <path class="systeme-cls-6" d="M309.93,283.78l-3.44,3.1A34.74,34.74,0,0,1,259,323.05l-66.36,59.79a15.22,15.22,0,0,1-18,1.78,15.05,15.05,0,0,0,2.51,3.81h0a15.22,15.22,0,0,0,21.49,1.12L265,329.76a34.75,34.75,0,0,0,44.93-46Z" />
  <path class="systeme-cls-6" d="M262.14,284.72l3.52,11.81,4.62,1.92-2.09-7L295,267.24a34.67,34.67,0,0,0-9.48-3.61Z" />
  <path class="systeme-cls-15" d="M301.28,323.36a34.75,34.75,0,0,0,8.65-39.58L283.09,308l-11.39-4.72-3.51-11.81L295,267.24a34.75,34.75,0,0,0-50.4,39.91l-66.37,59.79a15.22,15.22,0,0,0-1.12,21.49h0a15.22,15.22,0,0,0,21.49,1.12L265,329.76A34.75,34.75,0,0,0,301.28,323.36Z" />
  <rect class="systeme-cls-6" x="217.91" y="311.06" width="6.52" height="75.42" rx="3.26" transform="translate(332.25 -49) rotate(47.98)" />
  <rect class="systeme-cls-10" x="365.74" y="314.2" width="65.36" height="21.13" />
  <rect class="systeme-cls-10" x="365.74" y="335.33" width="65.36" height="21.13" />
  <rect class="systeme-cls-10" x="365.74" y="356.46" width="65.36" height="21.13" />
  <line class="systeme-cls-10" x1="374.52" y1="324.76" x2="390.12" y2="324.76" />
  <line class="systeme-cls-10" x1="374.52" y1="345.9" x2="390.12" y2="345.9" />
  <line class="systeme-cls-10" x1="374.52" y1="367.03" x2="390.12" y2="367.03" />
</svg>
