<svg id="Layer_1" data-name="Layer 1" xmlns="http://www.w3.org/2000/svg" viewBox="0 0 500 500">
  <defs>
    <style>
      .cls-knowledge-1,
      .cls-knowledge-2 {
        fill: none;
        stroke-linecap: round;
        stroke-linejoin: round;
        stroke-width: 4px;
      }

      .cls-knowledge-1 {
        stroke: #fff;
      }

      .cls-knowledge-2 {
        stroke: #f7931e;
      }

    </style>
  </defs>
  <path class="cls-knowledge-1" d="M204.49,339.91h91a0,0,0,0,1,0,0v66.82a8.13,8.13,0,0,1-8.13,8.13H212.62a8.13,8.13,0,0,1-8.13-8.13V339.91A0,0,0,0,1,204.49,339.91Z" />
  <path class="cls-knowledge-1" d="M266.13,414.86a16.6,16.6,0,1,1-33.19,0Z" />
  <path class="cls-knowledge-2" d="M356.41,230.37A106.42,106.42,0,0,0,242.32,124.23c-52.5,3.68-94.94,46.25-98.48,98.76a106.24,106.24,0,0,0,40,90.75c13.15,10.43,20.6,8,20.6,24.76v1.41h91v-1.4c0-17.18,8.13-14.66,21.48-25.48A106.18,106.18,0,0,0,356.41,230.37Z" />
  <path class="cls-knowledge-2" d="M223.74,339.91,202,218.74c8,0,8,26.39,16,26.39s8-26.39,16-26.39,8,26.39,16,26.39,8-26.39,16-26.39,8,26.39,16,26.39,8-26.39,16-26.39L277.37,339.91" />
  <line class="cls-knowledge-1" x1="204.49" y1="357.63" x2="295.51" y2="357.63" />
  <line class="cls-knowledge-1" x1="204.49" y1="376.46" x2="295.51" y2="376.46" />
  <line class="cls-knowledge-1" x1="204.49" y1="395.3" x2="295.51" y2="395.3" />
  <line class="cls-knowledge-2" x1="122.55" y1="231.93" x2="83.61" y2="231.93" />
  <line class="cls-knowledge-2" x1="250" y1="108.24" x2="250" y2="68.54" />
  <line class="cls-knowledge-2" x1="163.78" y1="140.31" x2="134.39" y2="110.91" />
  <line class="cls-knowledge-2" x1="163.78" y1="323.56" x2="134.39" y2="352.96" />
  <line class="cls-knowledge-2" x1="377.45" y1="231.93" x2="416.39" y2="231.93" />
  <line class="cls-knowledge-2" x1="336.22" y1="140.31" x2="365.61" y2="110.91" />
  <line class="cls-knowledge-2" x1="336.22" y1="323.56" x2="365.61" y2="352.96" />
</svg>
