<?xml version="1.0" encoding="utf-8"?>
<!-- Generator: Adobe Illustrator 24.0.1, SVG Export Plug-In . SVG Version: 6.00 Build 0)  -->
<svg version="1.1" xmlns="http://www.w3.org/2000/svg" xmlns:xlink="http://www.w3.org/1999/xlink" x="0px" y="0px" width="100px"
	 height="70px" viewBox="0 0 100 70" style="enable-background:new 0 0 100 70;" xml:space="preserve">
<g id="Layer_1">
	<g>
		<g>
			<g>
				<path style="fill:#3E175C;" d="M10.5,59.5h8.7v3.2v6.7h-3.4v-2.3c-1.3,1.7-3.3,2.7-5.9,2.7c-5.2,0-9.1-4.2-9.1-9.6
					c0-5.4,4-9.6,9.5-9.6c4.4,0,8,2.9,8.9,6.5h-3.8c-0.7-1.7-2.7-3-5.1-3c-3.6,0-5.9,2.5-5.9,6c0,3.7,2.5,6.2,5.9,6.2
					c2.7,0,4.8-1.3,5.3-3.7h-5.1V59.5z"/>
				<path style="fill:#3E175C;" d="M27.5,67c1.2,0,2.3-0.6,2.7-1.3l3.3,0c-0.8,2.7-3.1,4.2-6.1,4.2c-4.3,0-7-3-7-6.9
					c0-3.9,2.8-6.9,7-6.9c3.9,0,6.5,3.1,6.5,6.9c0,0.5,0,0.9-0.1,1.4h-9.8C24.4,66.1,25.8,67,27.5,67z M30.5,61.6
					c-0.4-1.9-1.8-2.6-3.2-2.6c-1.8,0-3,1-3.4,2.6H30.5z"/>
				<path style="fill:#3E175C;" d="M42.2,59.5H40v9.9h-3.4v-9.9h-2.3v-3.3h2.3v-4.2H40v4.2h2.3V59.5z"/>
				<path style="fill:#3E175C;" d="M56.7,51v18.4h-3.4v-1.6C52.4,69,51,69.8,49,69.8c-3.5,0-6.4-3-6.4-6.9c0-3.9,2.9-6.9,6.4-6.9
					c1.9,0,3.3,0.7,4.3,1.9V51H56.7z M53.3,62.8c0-2.2-1.5-3.7-3.6-3.7c-2.1,0-3.6,1.5-3.6,3.7c0,2.2,1.5,3.7,3.6,3.7
					C51.8,66.6,53.3,65.1,53.3,62.8z"/>
				<path style="fill:#3E175C;" d="M65,67c1.2,0,2.3-0.6,2.7-1.3l3.3,0c-0.8,2.7-3.1,4.2-6.1,4.2c-4.3,0-7-3-7-6.9
					c0-3.9,2.8-6.9,7-6.9c3.9,0,6.5,3.1,6.5,6.9c0,0.5,0,0.9-0.1,1.4h-9.8C61.9,66.1,63.3,67,65,67z M68,61.6
					c-0.4-1.9-1.8-2.6-3.2-2.6c-1.8,0-3,1-3.4,2.6H68z"/>
				<path style="fill:#3E175C;" d="M79.6,69.8c-4,0-6.9-3-6.9-6.9c0-3.9,2.9-6.9,6.9-6.9c3.3,0,6,2.2,6.6,5.2h-3.6
					c-0.5-1.1-1.6-1.8-3-1.8c-2,0-3.5,1.5-3.5,3.6c0,2.1,1.5,3.6,3.5,3.6c1.4,0,2.5-0.7,3-1.8h3.6C85.5,67.6,82.8,69.8,79.6,69.8z"
					/>
				<path style="fill:#3E175C;" d="M95.3,69.4l-4.6-5.9v5.9h-3.4V51h3.4v11l4.3-5.8H99l-5,6.5l5.2,6.7H95.3z"/>
			</g>
		</g>
		<g>
			<path style="fill:#FF165D;" d="M47.8,13.6v14.6l4.4-1.4V12.2L47.8,13.6z M47.8,13.6v14.6l4.4-1.4V12.2L47.8,13.6z M70.3,24.3
				l-3.4-15c-0.2-1-0.9-1.7-1.7-2.2L51.4,0.5c-0.9-0.4-1.9-0.4-2.8,0L34.8,7.2c-0.9,0.4-1.5,1.2-1.7,2.2l-3.4,15
				c-0.2,0.9,0,1.9,0.6,2.7l9.6,12c0.6,0.8,1.5,1.2,2.5,1.2h15.3c1,0,1.9-0.4,2.5-1.2l9.6-12C70.3,26.3,70.5,25.3,70.3,24.3z
				 M60.1,26.8l-12.3,3.8v-2.4l-7.9,2.4v-17l12.3-3.8v2.4l7.9-2.4V26.8z M52.2,12.2l-4.4,1.4v14.6l4.4-1.4V12.2z M47.8,13.6v14.6
				l4.4-1.4V12.2L47.8,13.6z M47.8,13.6v14.6l4.4-1.4V12.2L47.8,13.6z"/>
			<polygon style="fill:#FFFFFF;" points="52.2,9.8 52.2,12.2 47.8,13.6 47.8,28.2 39.9,30.6 39.9,13.6 			"/>
			<polygon style="fill:#FFFFFF;" points="60.1,9.8 60.1,26.8 47.8,30.6 47.8,28.2 52.2,26.8 52.2,12.2 			"/>
		</g>
	</g>
</g>
<g id="Isolation_Mode">
</g>
</svg>
