<svg xmlns="http://www.w3.org/2000/svg" version="1.1" xmlns:xlink="http://www.w3.org/1999/xlink" xmlns:svgjs="http://svgjs.com/svgjs" width="512" height="512" x="0" y="0" viewBox="0 0 512 512" style="enable-background:new 0 0 512 512" xml:space="preserve" class=""><g><path d="m336.621 395.781c-16.419 0-29.73-13.311-29.73-29.73s13.311-29.73 29.73-29.73c41.443 0 75.159-33.717 75.159-75.159v-155.82c0-16.419 13.31-29.73 29.73-29.73s29.73 13.311 29.73 29.73v155.821c-.001 74.229-60.39 134.618-134.619 134.618z" fill="#2470a9" data-original="#a3defe"></path><path d="m469.655 281.82c-13.962-23.509-33.972-43.018-57.875-56.37v35.712c0 26.222-13.507 49.337-33.92 62.79 8.651 9.743 13.92 22.553 13.92 36.577v23.425c40.78-18.39 70.82-56.516 77.875-102.134z" fill="#2470a9" data-original="#7acefa" class=""></path><path d="m441.51 512c-16.419 0-29.73-13.311-29.73-29.73v-121.74c0-41.443-33.716-75.159-75.159-75.159h-161.242c-74.229 0-134.618-60.39-134.618-134.619v-45.41c0-16.419 13.31-29.73 29.73-29.73 16.419 0 29.73 13.311 29.73 29.73v45.41c0 41.443 33.716 75.159 75.159 75.159h161.242c74.229 0 134.618 60.39 134.618 134.618v121.741c-.001 16.419-13.31 29.73-29.73 29.73z" fill="#63d9b6" data-original="#89d47f" class=""></path><path d="m100.22 150.752v-45.41c0-16.419-13.311-29.73-29.73-29.73-16.42 0-29.73 13.311-29.73 29.73v45.41c0 .127.005.254.005.381h59.464c0-.128-.009-.253-.009-.381z" fill="#63d9b6" data-original="#5ec783" class=""></path><path d="m206.271 225.911h99.459v59.459h-99.459z" fill="#63d9b6" data-original="#5ec783" class=""></path><path d="m256 512c-16.419 0-29.73-13.311-29.73-29.73v-378.81c0-16.419 13.311-29.73 29.73-29.73s29.73 13.311 29.73 29.73v378.81c0 16.419-13.311 29.73-29.73 29.73z" fill="#e09932" data-original="#e8899e" class=""></path><path d="m50.005 11.285-46.216 73.107c-10.201 16.137 1.394 37.185 20.485 37.185h92.432c19.091 0 30.686-21.048 20.485-37.185l-46.216-73.107c-9.512-15.047-31.458-15.047-40.97 0z" fill="#63d9b6" data-original="#89d47f" class=""></path><path d="m256 73.731c-16.419 0-29.73 13.311-29.73 29.73v47.672h59.459v-47.673c.001-16.418-13.31-29.729-29.729-29.729z" fill="#e09932" data-original="#de5c6e" class=""></path><path d="m441.51 75.612c-16.42 0-29.73 13.311-29.73 29.73v45.791h59.46v-45.791c0-16.419-13.31-29.73-29.73-29.73z" fill="#2470a9" data-original="#7acefa" class=""></path><path d="m235.515 11.285-46.216 73.107c-10.201 16.137 1.394 37.185 20.485 37.185h92.432c19.091 0 30.686-21.048 20.485-37.185l-46.216-73.107c-9.512-15.047-31.458-15.047-40.97 0z" fill="#e09932" data-original="#e8899e" class=""></path><path d="m421.025 11.285-46.216 73.107c-10.201 16.137 1.394 37.185 20.485 37.185h92.432c19.091 0 30.686-21.048 20.485-37.185l-46.216-73.107c-9.512-15.047-31.458-15.047-40.97 0z" fill="#2470a9" data-original="#a3defe"></path><path d="m226.27 316.322h59.459v99.459h-59.459z" fill="#e09932" data-original="#de5c6e" class=""></path><path d="m70.49 512c-16.419 0-29.73-13.31-29.73-29.73v-11.33c0-74.228 60.39-134.617 134.618-134.617h161.242c16.42 0 29.73 13.31 29.73 29.73s-13.31 29.73-29.73 29.73h-161.241c-41.443 0-75.159 33.715-75.159 75.158v11.331c0 16.418-13.31 29.728-29.73 29.728z" fill="#2470a9" data-original="#a3defe"></path></g></svg>