<svg id="Layer_1" data-name="Layer 1" xmlns="http://www.w3.org/2000/svg" viewBox="0 0 500 500">
  <defs>
    <style>
      .websites-cls-1,
      .websites-cls-10,
      .websites-cls-14,
      .websites-cls-7,
      .websites-cls-8,
      .websites-cls-9 {
        fill: #fff;
      }

      .websites-cls-11,
      .websites-cls-12,
      .websites-cls-15,
      .websites-cls-2 {
        fill: none;
      }

      .websites-cls-2 {
        stroke: #2470a9;
      }

      .websites-cls-12,
      .websites-cls-13,
      .websites-cls-14,
      .websites-cls-2 {
        stroke-miterlimit: 10;
      }

      .websites-cls-10,
      .websites-cls-11,
      .websites-cls-12,
      .websites-cls-13,
      .websites-cls-14,
      .websites-cls-15,
      .websites-cls-2,
      .websites-cls-7,
      .websites-cls-8,
      .websites-cls-9 {
        stroke-width: 3px;
      }

      .websites-cls-3 {
        fill: #ff7680;
      }

      .websites-cls-4 {
        fill: #63d9b6;
      }

      .websites-cls-5 {
        fill: #f7931e;
      }

      .websites-cls-13,
      .websites-cls-6 {
        fill: #edeff0;
      }

      .websites-cls-7 {
        stroke: #4c5152;
      }

      .websites-cls-10,
      .websites-cls-11,
      .websites-cls-15,
      .websites-cls-7,
      .websites-cls-8,
      .websites-cls-9 {
        stroke-linecap: round;
        stroke-linejoin: round;
      }

      .websites-cls-11,
      .websites-cls-8 {
        stroke: #63d9b6;
      }

      .websites-cls-15,
      .websites-cls-9 {
        stroke: #f7931e;
      }

      .websites-cls-10 {
        stroke: #ff7680;
      }

      .websites-cls-12,
      .websites-cls-13,
      .websites-cls-14 {
        stroke: #97a2a6;
      }

    </style>
  </defs>
  <rect class="websites-cls-1" x="83.11" y="132.89" width="336.77" height="220.65" rx="8.52" />
  <rect class="websites-cls-2" x="83.11" y="132.89" width="336.77" height="220.65" rx="8.52" />
  <line class="websites-cls-2" x1="419.89" y1="157.93" x2="83.11" y2="157.93" />
  <circle class="websites-cls-3" cx="379.11" cy="146" r="2.58" />
  <circle class="websites-cls-4" cx="391.47" cy="146" r="2.58" />
  <circle class="websites-cls-5" cx="403.82" cy="146" r="2.58" />
  <rect class="websites-cls-6" x="96.88" y="170.25" width="311.39" height="170.17" rx="4.9" />
  <line class="websites-cls-7" x1="113.58" y1="185.65" x2="132.68" y2="185.65" />
  <line class="websites-cls-7" x1="113.58" y1="199.59" x2="132.68" y2="199.59" />
  <line class="websites-cls-7" x1="113.58" y1="213.53" x2="132.68" y2="213.53" />
  <line class="websites-cls-7" x1="113.58" y1="227.46" x2="132.68" y2="227.46" />
  <line class="websites-cls-7" x1="113.58" y1="241.4" x2="132.68" y2="241.4" />
  <line class="websites-cls-7" x1="113.58" y1="255.33" x2="132.68" y2="255.33" />
  <line class="websites-cls-7" x1="113.58" y1="269.27" x2="132.68" y2="269.27" />
  <line class="websites-cls-7" x1="113.58" y1="283.2" x2="132.68" y2="283.2" />
  <line class="websites-cls-7" x1="113.58" y1="297.14" x2="132.68" y2="297.14" />
  <line class="websites-cls-7" x1="113.58" y1="311.07" x2="132.68" y2="311.07" />
  <line class="websites-cls-7" x1="113.58" y1="325.01" x2="132.68" y2="325.01" />
  <line class="websites-cls-8" x1="147.13" y1="185.65" x2="178.26" y2="185.65" />
  <line class="websites-cls-8" x1="147.13" y1="199.59" x2="228.75" y2="199.59" />
  <line class="websites-cls-9" x1="147.13" y1="213.53" x2="228.75" y2="213.53" />
  <line class="websites-cls-10" x1="247.21" y1="213.53" x2="328.83" y2="213.53" />
  <line class="websites-cls-9" x1="247.21" y1="227.46" x2="394.05" y2="227.46" />
  <line class="websites-cls-9" x1="247.21" y1="241.4" x2="296.23" y2="241.4" />
  <line class="websites-cls-9" x1="247.21" y1="255.33" x2="361.44" y2="255.33" />
  <line class="websites-cls-10" x1="247.21" y1="283.2" x2="328.83" y2="283.2" />
  <line class="websites-cls-9" x1="247.21" y1="297.14" x2="364.05" y2="297.14" />
  <line class="websites-cls-9" x1="247.21" y1="311.07" x2="296.23" y2="311.07" />
  <line class="websites-cls-9" x1="197.62" y1="227.46" x2="228.75" y2="227.46" />
  <line class="websites-cls-9" x1="197.62" y1="241.4" x2="228.75" y2="241.4" />
  <line class="websites-cls-9" x1="197.62" y1="255.33" x2="228.75" y2="255.33" />
  <line class="websites-cls-8" x1="147.13" y1="269.27" x2="228.75" y2="269.27" />
  <line class="websites-cls-9" x1="147.13" y1="283.2" x2="228.75" y2="283.2" />
  <line class="websites-cls-9" x1="197.62" y1="297.14" x2="228.75" y2="297.14" />
  <line class="websites-cls-9" x1="197.62" y1="311.07" x2="228.75" y2="311.07" />
  <circle class="websites-cls-8" cx="250" cy="137.18" r="36.19" />
  <polyline class="websites-cls-11" points="240.96 127.78 226.44 137.18 240.96 146.57" />
  <polyline class="websites-cls-11" points="259.04 127.78 273.56 137.18 259.04 146.57" />
  <line class="websites-cls-11" x1="253.57" y1="123.15" x2="246.28" y2="151.21" />
  <path class="websites-cls-1" d="M337.32,320.3H162.68a3.8,3.8,0,0,0-3.79,3.8v85.48a3.79,3.79,0,0,0,3.79,3.79H337.32a3.79,3.79,0,0,0,3.79-3.79V324.1A3.8,3.8,0,0,0,337.32,320.3Z" />
  <path class="websites-cls-6" d="M337.32,406.05H162.68a3.79,3.79,0,0,1-3.79-3.79v7.32a3.79,3.79,0,0,0,3.79,3.79H337.32a3.79,3.79,0,0,0,3.79-3.79v-7.32A3.79,3.79,0,0,1,337.32,406.05Z" />
  <path class="websites-cls-12" d="M337.32,320.3H162.68a3.8,3.8,0,0,0-3.79,3.8v85.48a3.79,3.79,0,0,0,3.79,3.79H337.32a3.79,3.79,0,0,0,3.79-3.79V324.1A3.8,3.8,0,0,0,337.32,320.3Z" />
  <path class="websites-cls-4" d="M181.43,330.15H169.9a.9.9,0,0,0-.9.91v5.23a.91.91,0,0,0,.9.92h11.53a.91.91,0,0,0,.89-.92v-5.23A.9.9,0,0,0,181.43,330.15Z" />
  <path class="websites-cls-6" d="M181.43,346.77H169.9a.91.91,0,0,0-.9.92v8.18a.91.91,0,0,0,.9.92h11.53a.91.91,0,0,0,.89-.92v-8.18A.91.91,0,0,0,181.43,346.77Z" />
  <path class="websites-cls-6" d="M198,346.77H186.42a.91.91,0,0,0-.9.92v8.18a.91.91,0,0,0,.9.92H198a.91.91,0,0,0,.89-.92v-8.18A.91.91,0,0,0,198,346.77Z" />
  <path class="websites-cls-6" d="M214.47,346.77H202.93a.91.91,0,0,0-.89.92v8.18a.91.91,0,0,0,.89.92h11.54a.91.91,0,0,0,.89-.92v-8.18A.91.91,0,0,0,214.47,346.77Z" />
  <path class="websites-cls-6" d="M231,346.77H219.45a.91.91,0,0,0-.89.92v8.18a.91.91,0,0,0,.89.92H231a.91.91,0,0,0,.89-.92v-8.18A.91.91,0,0,0,231,346.77Z" />
  <path class="websites-cls-6" d="M247.51,346.77H236a.91.91,0,0,0-.89.92v8.18a.91.91,0,0,0,.89.92h11.54a.91.91,0,0,0,.89-.92v-8.18A.91.91,0,0,0,247.51,346.77Z" />
  <path class="websites-cls-6" d="M264,346.77H252.49a.91.91,0,0,0-.89.92v8.18a.91.91,0,0,0,.89.92H264a.91.91,0,0,0,.89-.92v-8.18A.91.91,0,0,0,264,346.77Z" />
  <path class="websites-cls-6" d="M280.55,346.77H269a.91.91,0,0,0-.89.92v8.18a.91.91,0,0,0,.89.92h11.54a.91.91,0,0,0,.89-.92v-8.18A.91.91,0,0,0,280.55,346.77Z" />
  <path class="websites-cls-6" d="M297.07,346.77H285.53a.91.91,0,0,0-.89.92v8.18a.91.91,0,0,0,.89.92h11.54a.91.91,0,0,0,.89-.92v-8.18A.91.91,0,0,0,297.07,346.77Z" />
  <path class="websites-cls-6" d="M313.59,346.77H302.05a.91.91,0,0,0-.89.92v8.18a.91.91,0,0,0,.89.92h11.54a.91.91,0,0,0,.89-.92v-8.18A.91.91,0,0,0,313.59,346.77Z" />
  <path class="websites-cls-6" d="M330.11,346.77H318.57a.91.91,0,0,0-.89.92v8.18a.91.91,0,0,0,.89.92h11.54a.91.91,0,0,0,.89-.92v-8.18A.91.91,0,0,0,330.11,346.77Z" />
  <path class="websites-cls-6" d="M191.29,362H169.9a.91.91,0,0,0-.9.92v8.18a.91.91,0,0,0,.9.92h21.39a.91.91,0,0,0,.89-.92v-8.18A.91.91,0,0,0,191.29,362Z" />
  <path class="websites-cls-6" d="M208.13,362H196.59a.91.91,0,0,0-.89.92v8.18a.91.91,0,0,0,.89.92h11.54a.91.91,0,0,0,.89-.92v-8.18A.91.91,0,0,0,208.13,362Z" />
  <path class="websites-cls-6" d="M224.65,362H213.11a.91.91,0,0,0-.89.92v8.18a.91.91,0,0,0,.89.92h11.54a.91.91,0,0,0,.89-.92v-8.18A.91.91,0,0,0,224.65,362Z" />
  <path class="websites-cls-6" d="M241.17,362H229.63a.91.91,0,0,0-.89.92v8.18a.91.91,0,0,0,.89.92h11.54a.91.91,0,0,0,.89-.92v-8.18A.91.91,0,0,0,241.17,362Z" />
  <path class="websites-cls-6" d="M257.68,362H246.15a.91.91,0,0,0-.89.92v8.18a.91.91,0,0,0,.89.92h11.53a.9.9,0,0,0,.89-.92v-8.18A.9.9,0,0,0,257.68,362Z" />
  <path class="websites-cls-6" d="M274.2,362H262.67a.91.91,0,0,0-.89.92v8.18a.91.91,0,0,0,.89.92H274.2a.9.9,0,0,0,.89-.92v-8.18A.9.9,0,0,0,274.2,362Z" />
  <path class="websites-cls-6" d="M290.72,362H279.19a.91.91,0,0,0-.89.92v8.18a.91.91,0,0,0,.89.92h11.53a.9.9,0,0,0,.89-.92v-8.18A.9.9,0,0,0,290.72,362Z" />
  <path class="websites-cls-6" d="M307.24,362H295.71a.91.91,0,0,0-.89.92v8.18a.91.91,0,0,0,.89.92h11.53a.9.9,0,0,0,.89-.92v-8.18A.9.9,0,0,0,307.24,362Z" />
  <path class="websites-cls-6" d="M330.11,362H312.23a.91.91,0,0,0-.89.92v8.18a.91.91,0,0,0,.89.92h17.88a.91.91,0,0,0,.89-.92v-8.18A.91.91,0,0,0,330.11,362Z" />
  <path class="websites-cls-6" d="M198,377.21h-28a.91.91,0,0,0-.9.92v8.18a.91.91,0,0,0,.9.92h28a.91.91,0,0,0,.89-.92v-8.18A.91.91,0,0,0,198,377.21Z" />
  <path class="websites-cls-6" d="M214.47,377.21H202.93a.91.91,0,0,0-.89.92v8.18a.91.91,0,0,0,.89.92h11.54a.91.91,0,0,0,.89-.92v-8.18A.91.91,0,0,0,214.47,377.21Z" />
  <path class="websites-cls-6" d="M231,377.21H219.45a.91.91,0,0,0-.89.92v8.18a.91.91,0,0,0,.89.92H231a.91.91,0,0,0,.89-.92v-8.18A.91.91,0,0,0,231,377.21Z" />
  <path class="websites-cls-6" d="M247.51,377.21H236a.91.91,0,0,0-.89.92v8.18a.91.91,0,0,0,.89.92h11.54a.91.91,0,0,0,.89-.92v-8.18A.91.91,0,0,0,247.51,377.21Z" />
  <path class="websites-cls-6" d="M264,377.21H252.49a.91.91,0,0,0-.89.92v8.18a.91.91,0,0,0,.89.92H264a.91.91,0,0,0,.89-.92v-8.18A.91.91,0,0,0,264,377.21Z" />
  <path class="websites-cls-5" d="M297.07,377.21H285.53a.91.91,0,0,0-.89.92v8.18a.91.91,0,0,0,.89.92h11.54a.91.91,0,0,0,.89-.92v-8.18A.91.91,0,0,0,297.07,377.21Z" />
  <path class="websites-cls-6" d="M330.11,377.21H318.57a.91.91,0,0,0-.89.92v8.18a.91.91,0,0,0,.89.92h11.54a.91.91,0,0,0,.89-.92v-8.18A.91.91,0,0,0,330.11,377.21Z" />
  <path class="websites-cls-6" d="M181.43,392.44H169.9a.9.9,0,0,0-.9.91v8.18a.91.91,0,0,0,.9.92h11.53a.91.91,0,0,0,.89-.92v-8.18A.9.9,0,0,0,181.43,392.44Z" />
  <path class="websites-cls-6" d="M247.51,392.44H186.42a.9.9,0,0,0-.9.91v8.18a.91.91,0,0,0,.9.92h61.09a.91.91,0,0,0,.89-.92v-8.18A.9.9,0,0,0,247.51,392.44Z" />
  <path class="websites-cls-6" d="M264,392.44H252.49a.9.9,0,0,0-.89.91v8.18a.91.91,0,0,0,.89.92H264a.91.91,0,0,0,.89-.92v-8.18A.9.9,0,0,0,264,392.44Z" />
  <path class="websites-cls-5" d="M280.55,392.44H269a.9.9,0,0,0-.89.91v8.18a.91.91,0,0,0,.89.92h11.54a.91.91,0,0,0,.89-.92v-8.18A.9.9,0,0,0,280.55,392.44Z" />
  <path class="websites-cls-5" d="M297.07,392.44H285.53a.9.9,0,0,0-.89.91v8.18a.91.91,0,0,0,.89.92h11.54a.91.91,0,0,0,.89-.92v-8.18A.9.9,0,0,0,297.07,392.44Z" />
  <path class="websites-cls-5" d="M313.59,392.44H302.05a.9.9,0,0,0-.89.91v8.18a.91.91,0,0,0,.89.92h11.54a.91.91,0,0,0,.89-.92v-8.18A.9.9,0,0,0,313.59,392.44Z" />
  <path class="websites-cls-6" d="M330.11,392.44H318.57a.9.9,0,0,0-.89.91v8.18a.91.91,0,0,0,.89.92h11.54a.91.91,0,0,0,.89-.92v-8.18A.9.9,0,0,0,330.11,392.44Z" />
  <path class="websites-cls-6" d="M207.11,330.15H195.57a.9.9,0,0,0-.89.91v5.23a.91.91,0,0,0,.89.92h11.54a.91.91,0,0,0,.89-.92v-5.23A.9.9,0,0,0,207.11,330.15Z" />
  <path class="websites-cls-6" d="M223.67,330.15H212.14a.9.9,0,0,0-.89.91v5.23a.91.91,0,0,0,.89.92h11.53a.91.91,0,0,0,.89-.92v-5.23A.9.9,0,0,0,223.67,330.15Z" />
  <path class="websites-cls-6" d="M240.24,330.15H228.7a.9.9,0,0,0-.89.91v5.23a.91.91,0,0,0,.89.92h11.54a.91.91,0,0,0,.89-.92v-5.23A.9.9,0,0,0,240.24,330.15Z" />
  <path class="websites-cls-6" d="M256.8,330.15H245.27a.9.9,0,0,0-.89.91v5.23a.91.91,0,0,0,.89.92H256.8a.9.9,0,0,0,.89-.92v-5.23A.9.9,0,0,0,256.8,330.15Z" />
  <path class="websites-cls-6" d="M280.41,330.15H268.87a.9.9,0,0,0-.89.91v5.23a.91.91,0,0,0,.89.92h11.54a.91.91,0,0,0,.89-.92v-5.23A.9.9,0,0,0,280.41,330.15Z" />
  <path class="websites-cls-6" d="M297,330.15H285.44a.9.9,0,0,0-.89.91v5.23a.91.91,0,0,0,.89.92H297a.9.9,0,0,0,.89-.92v-5.23A.9.9,0,0,0,297,330.15Z" />
  <path class="websites-cls-6" d="M313.54,330.15H302a.9.9,0,0,0-.9.91v5.23a.91.91,0,0,0,.9.92h11.53a.91.91,0,0,0,.89-.92v-5.23A.9.9,0,0,0,313.54,330.15Z" />
  <path class="websites-cls-6" d="M330.11,330.15H318.57a.9.9,0,0,0-.89.91v5.23a.91.91,0,0,0,.89.92h11.54a.91.91,0,0,0,.89-.92v-5.23A.9.9,0,0,0,330.11,330.15Z" />
  <path class="websites-cls-13" d="M403.39,348.58h34.49a0,0,0,0,1,0,0v25.32A3.08,3.08,0,0,1,434.8,377H406.47a3.08,3.08,0,0,1-3.08-3.08V348.58A0,0,0,0,1,403.39,348.58Z" />
  <path class="websites-cls-13" d="M426.75,377a6.29,6.29,0,0,1-12.58,0Z" />
  <rect class="websites-cls-14" x="398.86" y="364.38" width="43.55" height="5.81" rx="2.9" />
  <rect class="websites-cls-14" x="398.86" y="353.58" width="43.55" height="5.81" rx="2.9" />
  <path class="websites-cls-9" d="M461,307.07a40.33,40.33,0,1,0-65.38,31.59c5,4,7.81,3,7.81,9.39v.53h34.49v-.53c0-6.51,3.08-5.55,8.14-9.65A40.26,40.26,0,0,0,461,307.07Z" />
  <path class="websites-cls-15" d="M410.68,348.58l-8.24-45.92c3,0,3,10,6.06,10s3-10,6.06-10,3,10,6.07,10,3-10,6.06-10,3,10,6.07,10,3-10,6.07-10L431,348.58" />
  <line class="websites-cls-9" x1="437.88" y1="238.23" x2="433.32" y2="257.19" />
  <line class="websites-cls-9" x1="446.1" y1="263" x2="454.61" y2="251.77" />
  <line class="websites-cls-9" x1="454.61" y1="271.52" x2="463.52" y2="269.27" />
</svg>
