<svg xmlns="http://www.w3.org/2000/svg" version="1.1" xmlns:xlink="http://www.w3.org/1999/xlink" xmlns:svgjs="http://svgjs.com/svgjs" width="512" height="512" x="0" y="0" viewBox="0 0 512 512" style="enable-background:new 0 0 512 512" xml:space="preserve" class=""><g>
<g stroke-width="12" style="stroke-width: 12;">
	<rect x="178.359" y="7.502" style="stroke-width: 12;" width="155.283" height="124.286" fill="#63d9b6" data-original="#e6fdef" class="" stroke-width="12"></rect>
	<rect x="178.359" y="7.502" style="stroke-width: 12;" width="29.995" height="124.286" fill="#63d9b6" data-original="#c2fae3" class="" stroke-width="12"></rect>
	<rect x="178.359" y="193.812" style="stroke-width: 12;" width="155.283" height="124.286" fill="#63d9b6" data-original="#e6fdef" class="" stroke-width="12"></rect>
	<rect x="178.359" y="193.812" style="stroke-width: 12;" width="29.995" height="124.286" fill="#63d9b6" data-original="#c2fae3" class="" stroke-width="12"></rect>
	<rect x="178.359" y="380.211" style="stroke-width: 12;" width="155.283" height="124.286" fill="#63d9b6" data-original="#e6fdef" class="" stroke-width="12"></rect>
	<rect x="178.359" y="380.211" style="stroke-width: 12;" width="29.995" height="124.286" fill="#63d9b6" data-original="#c2fae3" class="" stroke-width="12"></rect>
	<path style="stroke-width: 12;" d="M442.871,53.968h-62.203c-8.425,0-15.675,6.475-16.071,14.89
		c-0.423,8.985,6.737,16.404,15.63,16.404h54.995c3.865,0,6.999,3.133,6.999,6.999v141.048c0,3.865-3.133,6.999-6.999,6.999h-17.219
		c7.606-6.059,12.696-17.326,4.866-25.927c-6.056-6.652-16.362-6.833-22.65-0.546l-31.057,31.056c-6.004,6.007-6.03,16.096,0,22.129
		l31.057,31.056c7.745,6.369,15.372,6.099,22.883-0.808c7.512-8.621,2.444-19.692-5.099-25.666h24.868
		c16.925,0,30.645-13.72,30.645-30.645V84.613C473.515,67.688,459.796,53.968,442.871,53.968z" fill="#2470a9" data-original="#5b66ad" class="" stroke-width="12"></path>
	<path style="stroke-width: 12;" d="M69.129,240.308h62.203c8.425,0,15.675,6.475,16.071,14.89c0.423,8.986-6.737,16.404-15.63,16.404
		H76.778c-3.865,0-6.999,3.133-6.999,6.999v141.048c0,3.865,3.133,6.999,6.999,6.999h17.219
		c-7.606-6.059-12.696-17.326-4.866-25.927c6.055-6.652,16.362-6.833,22.65-0.546l31.057,31.056c6.004,6.007,6.03,16.096,0,22.129
		l-31.057,31.056c-7.745,6.369-15.372,6.099-22.883-0.808c-7.512-8.621-2.444-19.692,5.099-25.666H69.129
		c-16.925,0-30.645-13.72-30.645-30.645V270.952C38.485,254.028,52.205,240.308,69.129,240.308z" fill="#2470a9" data-original="#5b66ad" class="" stroke-width="12"></path>
	<path style="stroke-width: 12;" d="M142.838,58.581l-31.056-31.057c-6.11-6.112-16.018-6.11-22.128,0
		c-8.617,8.617-3.537,20.209,4.345,26.474H54.132c-8.641,0-15.647,7.006-15.647,15.647s7.006,15.647,15.647,15.647h39.866
		c-7.882,6.265-12.961,17.857-4.345,26.474c7.376,6.11,14.753,6.11,22.129,0l31.056-31.056
		C149.519,73.238,150.019,66.239,142.838,58.581z" fill="#2470a9" data-original="#5b66ad" class="" stroke-width="12"></path>
	<g stroke-width="12" style="stroke-width: 12;">
		<path style="stroke-width: 12;" d="M411.302,488.989c-4.151,0-8.13-1.648-11.065-4.582l-31.057-31.052
			c-6.111-6.11-6.112-16.017-0.002-22.128c6.11-6.111,16.017-6.112,22.129-0.001l19.991,19.988l35.504-48.627
			c6.109-6.112,16.016-6.112,22.129-0.002c6.111,6.11,6.112,16.017,0.002,22.128l-46.568,59.693
			C419.432,487.339,415.452,488.988,411.302,488.989z" fill="#e09932" data-original="#9cf8d2" class="" stroke-width="12"></path>
	</g>
	
		<polyline style="stroke-width: 12; stroke-linecap: round; stroke-linejoin: round; stroke-miterlimit: 10;" points="
		333.646,86.136 333.646,131.787 178.354,131.787 178.354,7.5 333.646,7.5 333.646,53.452 	" fill="none" stroke="#23303d" stroke-width="12" stroke-linecap="round" stroke-linejoin="round" stroke-miterlimit="10" data-original="#000000" class=""></polyline>
	
		<polyline style="stroke-width: 12; stroke-linecap: round; stroke-linejoin: round; stroke-miterlimit: 10;" points="
		272.337,193.816 333.646,193.816 333.646,318.094 178.354,318.094 178.354,193.816 239.663,193.816 	" fill="none" stroke="#23303d" stroke-width="12" stroke-linecap="round" stroke-linejoin="round" stroke-miterlimit="10" data-original="#000000" class=""></polyline>
	
		<polyline style="stroke-width: 12; stroke-linecap: round; stroke-linejoin: round; stroke-miterlimit: 10;" points="
		178.354,458.698 178.354,504.5 333.646,504.5 333.646,380.212 178.354,380.212 178.354,426.014 	" fill="none" stroke="#23303d" stroke-width="12" stroke-linecap="round" stroke-linejoin="round" stroke-miterlimit="10" data-original="#000000" class=""></polyline>
	
		<line style="stroke-width: 12; stroke-linecap: round; stroke-linejoin: round; stroke-miterlimit: 10;" x1="209.415" y1="38.618" x2="302.585" y2="38.618" fill="none" stroke="#23303d" stroke-width="12" stroke-linecap="round" stroke-linejoin="round" stroke-miterlimit="10" data-original="#000000" class=""></line>
	
		<line style="stroke-width: 12; stroke-linecap: round; stroke-linejoin: round; stroke-miterlimit: 10;" x1="209.415" y1="69.615" x2="302.585" y2="69.615" fill="none" stroke="#23303d" stroke-width="12" stroke-linecap="round" stroke-linejoin="round" stroke-miterlimit="10" data-original="#000000" class=""></line>
	
		<line style="stroke-width: 12; stroke-linecap: round; stroke-linejoin: round; stroke-miterlimit: 10;" x1="209.415" y1="100.613" x2="271.528" y2="100.613" fill="none" stroke="#23303d" stroke-width="12" stroke-linecap="round" stroke-linejoin="round" stroke-miterlimit="10" data-original="#000000" class=""></line>
	
		<line style="stroke-width: 12; stroke-linecap: round; stroke-linejoin: round; stroke-miterlimit: 10;" x1="209.415" y1="225.076" x2="302.585" y2="225.076" fill="none" stroke="#23303d" stroke-width="12" stroke-linecap="round" stroke-linejoin="round" stroke-miterlimit="10" data-original="#000000" class=""></line>
	
		<line style="stroke-width: 12; stroke-linecap: round; stroke-linejoin: round; stroke-miterlimit: 10;" x1="209.415" y1="256.074" x2="302.585" y2="256.074" fill="none" stroke="#23303d" stroke-width="12" stroke-linecap="round" stroke-linejoin="round" stroke-miterlimit="10" data-original="#000000" class=""></line>
	
		<line style="stroke-width: 12; stroke-linecap: round; stroke-linejoin: round; stroke-miterlimit: 10;" x1="209.415" y1="287.071" x2="271.528" y2="287.071" fill="none" stroke="#23303d" stroke-width="12" stroke-linecap="round" stroke-linejoin="round" stroke-miterlimit="10" data-original="#000000" class=""></line>
	
		<line style="stroke-width: 12; stroke-linecap: round; stroke-linejoin: round; stroke-miterlimit: 10;" x1="209.415" y1="411.357" x2="302.585" y2="411.357" fill="none" stroke="#23303d" stroke-width="12" stroke-linecap="round" stroke-linejoin="round" stroke-miterlimit="10" data-original="#000000" class=""></line>
	
		<line style="stroke-width: 12; stroke-linecap: round; stroke-linejoin: round; stroke-miterlimit: 10;" x1="209.415" y1="442.354" x2="302.585" y2="442.354" fill="none" stroke="#23303d" stroke-width="12" stroke-linecap="round" stroke-linejoin="round" stroke-miterlimit="10" data-original="#000000" class=""></line>
	
		<line style="stroke-width: 12; stroke-linecap: round; stroke-linejoin: round; stroke-miterlimit: 10;" x1="209.415" y1="473.351" x2="271.528" y2="473.351" fill="none" stroke="#23303d" stroke-width="12" stroke-linecap="round" stroke-linejoin="round" stroke-miterlimit="10" data-original="#000000" class=""></line>
	<path style="stroke-width: 12; stroke-linecap: round; stroke-linejoin: round; stroke-miterlimit: 10;" d="
		M442.871,53.968h-62.203c-8.425,0-15.675,6.475-16.071,14.89c-0.423,8.985,6.737,16.404,15.63,16.404h54.995
		c3.865,0,6.999,3.133,6.999,6.999v141.048c0,3.865-3.133,6.999-6.999,6.999h-17.219c7.606-6.059,12.696-17.326,4.866-25.927
		c-6.056-6.652-16.362-6.833-22.65-0.546l-31.057,31.056c-6.004,6.007-6.03,16.096,0,22.129l31.057,31.056
		c7.745,6.369,15.372,6.099,22.883-0.808c7.512-8.621,2.444-19.692-5.099-25.666h24.868c16.925,0,30.645-13.72,30.645-30.645V84.613
		C473.515,67.688,459.796,53.968,442.871,53.968z" fill="none" stroke="#23303d" stroke-width="12" stroke-linecap="round" stroke-linejoin="round" stroke-miterlimit="10" data-original="#000000" class=""></path>
	<path style="stroke-width: 12; stroke-linecap: round; stroke-linejoin: round; stroke-miterlimit: 10;" d="
		M69.129,240.308h62.203c8.425,0,15.675,6.475,16.071,14.89c0.423,8.986-6.737,16.404-15.63,16.404H76.778
		c-3.865,0-6.999,3.133-6.999,6.999v141.048c0,3.865,3.133,6.999,6.999,6.999h17.219c-7.606-6.059-12.696-17.326-4.866-25.927
		c6.055-6.652,16.362-6.833,22.65-0.546l31.057,31.056c6.004,6.007,6.03,16.096,0,22.129l-31.057,31.056
		c-7.745,6.369-15.372,6.099-22.883-0.808c-7.512-8.621-2.444-19.692,5.099-25.666H69.129c-16.925,0-30.645-13.72-30.645-30.645
		V270.952C38.485,254.028,52.205,240.308,69.129,240.308z" fill="none" stroke="#23303d" stroke-width="12" stroke-linecap="round" stroke-linejoin="round" stroke-miterlimit="10" data-original="#000000" class=""></path>
	<path style="stroke-width: 12; stroke-linecap: round; stroke-linejoin: round; stroke-miterlimit: 10;" d="
		M142.838,58.581l-31.056-31.057c-6.11-6.112-16.018-6.11-22.128,0c-8.617,8.617-3.537,20.209,4.345,26.474H54.132
		c-8.641,0-15.647,7.006-15.647,15.647s7.006,15.647,15.647,15.647h39.866c-7.882,6.265-12.961,17.857-4.345,26.474
		c7.376,6.11,14.753,6.11,22.129,0l31.056-31.056C149.519,73.238,150.019,66.239,142.838,58.581z" fill="none" stroke="#23303d" stroke-width="12" stroke-linecap="round" stroke-linejoin="round" stroke-miterlimit="10" data-original="#000000" class=""></path>
	<g stroke-width="12" style="stroke-width: 12;">
		<path style="stroke-width: 12; stroke-linecap: round; stroke-linejoin: round; stroke-miterlimit: 10;" d="
			M411.302,488.989c-4.151,0-8.13-1.648-11.065-4.582l-31.057-31.052c-6.111-6.11-6.112-16.017-0.002-22.128
			c6.11-6.111,16.017-6.112,22.129-0.001l19.991,19.988l35.504-48.627c6.109-6.112,16.016-6.112,22.129-0.002
			c6.111,6.11,6.112,16.017,0.002,22.128l-46.568,59.693C419.432,487.339,415.452,488.988,411.302,488.989z" fill="none" stroke="#23303d" stroke-width="12" stroke-linecap="round" stroke-linejoin="round" stroke-miterlimit="10" data-original="#000000" class=""></path>
	</g>
</g>















</g></svg>