<svg id="Layer_1" data-name="Layer 1" xmlns="http://www.w3.org/2000/svg" viewBox="0 0 500 500">
  <defs>
    <style>
      .cls-runit-1,
      .cls-runit-2,
      .cls-runit-3 {
        fill: none;
        stroke-width: 4px;
      }

      .cls-runit-1 {
        stroke: #fff;
      }

      .cls-runit-1,
      .cls-runit-2 {
        stroke-linecap: round;
        stroke-linejoin: round;
      }

      .cls-runit-2 {
        stroke: #f7931e;
      }

      .cls-runit-3 {
        stroke: #97a2a6;
        stroke-miterlimit: 10;
      }

    </style>
  </defs>
  <path class="cls-runit-1" d="M158.62,343.08l43.59,43.59a43.81,43.81,0,0,0,46.84,9.85l31.19,31.19,86.88-86.88-31.19-31.19a43.81,43.81,0,0,0-9.85-46.84l-43.59-43.59" />
  <path class="cls-runit-2" d="M139,323.42,115,347.36c-3.36,3.36-3.83,8.34-1,11.13l15.39,15.39c2.79,2.78,7.77,2.32,11.13-1.05l24-23.88M288.69,225.42l16.58-16.5L279.36,183,250,212.38" />
  <path class="cls-runit-3" d="M381.57,261.71c20.12-51.27-14.6-89.32-14.6-89.32l-49.84-49.84a9.73,9.73,0,0,0-6.77-2.85l-10.17-.11a9.72,9.72,0,0,1-6.77-2.85l-5.26-5.26a9.7,9.7,0,0,1-2.83-7.5l.52-8a9.75,9.75,0,0,0-2.82-7.5L269.72,75.14a9.73,9.73,0,0,0-13.76,0l-35.35,35.35a9.73,9.73,0,0,0,0,13.76l12.25,12.26a9.76,9.76,0,0,0,7.41,2.84l11.77-.64a9.71,9.71,0,0,1,7.41,2.84l4.15,4.15a9.69,9.69,0,0,1,2.8,7.79l-1,10.59a9.73,9.73,0,0,0,2.81,7.79l46.87,46.87a10.12,10.12,0,0,0,12,1.56,25,25,0,0,1,36.45,19.51,136.89,136.89,0,0,1,.56,18.67,8.9,8.9,0,0,0,3.27,7.28c5.14,4.22,11.74,2.15,14.18-4.05Z" />
  <rect class="cls-runit-1" x="145.99" y="277.94" width="39.09" height="88.83" rx="19.55" transform="translate(-179.45 211.47) rotate(-45)" />
  <path class="cls-runit-1" d="M226,300a19.54,19.54,0,0,1-1.41,26.07h0a19.56,19.56,0,0,1-27.65,0L147.82,277a19.56,19.56,0,0,1,0-27.65h0a19.56,19.56,0,0,1,27.65,0l26.32,26.33" />
  <path class="cls-runit-1" d="M227.73,246.32,203.11,221.7a19.55,19.55,0,0,1,0-27.64h0a19.54,19.54,0,0,1,27.65,0l24.38,24.38" />
  <path class="cls-runit-1" d="M201.79,275.67,167.14,241a19.53,19.53,0,0,1,0-27.64h0a19.55,19.55,0,0,1,27.64,0l32.8,32.8" />
  <path class="cls-runit-1" d="M254.77,310.81a19.58,19.58,0,0,1-21.85-4l-6.68-6.68" />
  <path class="cls-runit-1" d="M326.08,262.8l-43.59-43.59h0a19.56,19.56,0,0,0-27.65,0h0l-48.11,48.11a19.56,19.56,0,0,0,0,27.65h0a19.56,19.56,0,0,0,27.65,0l22.44-22.44a43.8,43.8,0,0,0,7.33,52.21" />
</svg>
