<svg id="Layer_1" data-name="Layer 1" xmlns="http://www.w3.org/2000/svg" viewBox="0 0 600 400"><defs><style>.cls-1{fill:#e9f9ff;}.cls-10,.cls-11,.cls-12,.cls-13,.cls-2,.cls-24,.cls-25,.cls-3,.cls-9{fill:none;}.cls-11,.cls-15,.cls-2,.cls-23,.cls-25,.cls-3,.cls-5{stroke:#97a2a6;}.cls-10,.cls-11,.cls-12,.cls-13,.cls-2,.cls-3,.cls-5,.cls-9{stroke-linecap:round;stroke-linejoin:round;}.cls-10,.cls-11,.cls-12,.cls-13,.cls-15,.cls-2,.cls-23,.cls-25,.cls-3,.cls-9{stroke-width:2px;}.cls-3{stroke-dasharray:4.9 4.9;}.cls-4{opacity:0.7;}.cls-16,.cls-23,.cls-5,.cls-8{fill:#fff;}.cls-6{fill:#97a2a6;}.cls-15,.cls-7{fill:#edeff0;}.cls-10,.cls-9{stroke:#ff7680;}.cls-10{stroke-dasharray:4.97 4.97;}.cls-11{stroke-dasharray:4.77 4.77;}.cls-12,.cls-13{stroke:#2470a9;}.cls-13{stroke-dasharray:5.01 5.01;}.cls-14{fill:#4c5152;opacity:0.2;}.cls-15,.cls-16,.cls-17,.cls-18,.cls-19,.cls-23,.cls-24,.cls-25{stroke-miterlimit:10;}.cls-16,.cls-17,.cls-18,.cls-19,.cls-24{stroke:#edeff0;}.cls-17,.cls-22{fill:#f7931e;}.cls-18{fill:#ff7680;}.cls-19,.cls-20{fill:#63d9b6;}.cls-21{fill:#2470a9;}</style></defs><circle class="cls-1" cx="300" cy="200" r="184.48"/><line class="cls-2" x1="396.07" y1="54.11" x2="397.84" y2="55.88"/><line class="cls-3" x1="401.3" y1="59.34" x2="448.03" y2="106.07"/><line class="cls-2" x1="449.77" y1="107.8" x2="451.53" y2="109.57"/><g class="cls-4"><path class="cls-5" d="M493.42,167.7h-247a6.58,6.58,0,0,0-6.58,6.58V350.79a6.58,6.58,0,0,0,6.58,6.58h247a6.58,6.58,0,0,0,6.58-6.58V174.28A6.58,6.58,0,0,0,493.42,167.7Z"/><line class="cls-5" x1="239.87" y1="191.41" x2="500" y2="191.41"/><line class="cls-5" x1="477.09" y1="238.83" x2="500" y2="238.83"/><line class="cls-5" x1="477.09" y1="286.25" x2="500" y2="286.25"/><line class="cls-5" x1="239.87" y1="215.12" x2="262.78" y2="215.12"/><line class="cls-5" x1="239.87" y1="238.83" x2="262.78" y2="238.83"/><line class="cls-5" x1="239.87" y1="262.54" x2="262.78" y2="262.54"/><line class="cls-5" x1="239.87" y1="286.25" x2="262.78" y2="286.25"/><line class="cls-5" x1="239.87" y1="309.96" x2="262.78" y2="309.96"/><line class="cls-5" x1="239.87" y1="333.67" x2="500" y2="333.67"/><line class="cls-5" x1="450.45" y1="333.63" x2="450.45" y2="357.38"/><line class="cls-5" x1="477.09" y1="168.43" x2="477.09" y2="357.37"/><line class="cls-5" x1="423.8" y1="333.53" x2="423.8" y2="357.37"/><line class="cls-5" x1="397.04" y1="333.53" x2="397.04" y2="357.37"/><line class="cls-5" x1="370.27" y1="333.53" x2="370.27" y2="357.37"/><line class="cls-5" x1="343.63" y1="333.53" x2="343.63" y2="357.37"/><line class="cls-5" x1="316.99" y1="333.53" x2="316.99" y2="357.37"/><line class="cls-5" x1="287.75" y1="333.53" x2="287.75" y2="357.37"/><line class="cls-5" x1="429.55" y1="167.7" x2="429.55" y2="191.41"/><line class="cls-5" x1="453.32" y1="167.79" x2="453.32" y2="191.41"/><line class="cls-5" x1="405.84" y1="167.7" x2="405.84" y2="191.41"/><line class="cls-5" x1="382.13" y1="167.7" x2="382.13" y2="191.41"/><line class="cls-5" x1="358.42" y1="167.7" x2="358.42" y2="191.41"/><line class="cls-5" x1="334.71" y1="167.7" x2="334.71" y2="191.41"/><line class="cls-5" x1="311" y1="167.7" x2="311" y2="191.41"/><line class="cls-5" x1="287.29" y1="167.7" x2="287.29" y2="191.41"/><line class="cls-5" x1="263.58" y1="167.7" x2="263.58" y2="357.37"/><rect class="cls-5" x="263.58" y="286.25" width="53.28" height="47.29"/><rect class="cls-5" x="316.99" y="286.25" width="53.28" height="47.29"/><rect class="cls-5" x="370.4" y="286.25" width="53.28" height="47.29"/><rect class="cls-5" x="423.8" y="286.25" width="53.28" height="47.29"/><rect class="cls-5" x="423.8" y="238.89" width="53.28" height="47.29"/><rect class="cls-5" x="423.8" y="191.54" width="53.28" height="47.29"/><path class="cls-6" d="M450.66,218.88a.57.57,0,0,0-.68.15l-1.68,3.05a7,7,0,0,0,2.15.35,7.4,7.4,0,0,0,1.49-.17c.22-.07.43-.11.62-.18l-1.64-3A.87.87,0,0,0,450.66,218.88Z"/><path class="cls-6" d="M447.55,217.43l-3.39.58a6.73,6.73,0,0,0,2.66,3.35l1.3-3.14a.55.55,0,0,0,0-.34A.58.58,0,0,0,447.55,217.43Z"/><path class="cls-6" d="M447.34,215.28a.57.57,0,0,0-.07-.79l-2.54-2.26a6.84,6.84,0,0,0-1,4.18l3.31-1A.46.46,0,0,0,447.34,215.28Z"/><path class="cls-6" d="M453,217.48a.58.58,0,0,0-.3.66l1.35,3.22a6.86,6.86,0,0,0,2.05-2.07,4.29,4.29,0,0,0,.61-1.3l-3.41-.58A.6.6,0,0,0,453,217.48Z"/><polygon class="cls-6" points="449.51 216.47 450.45 216.92 451.39 216.47 451.6 215.47 450.96 214.66 449.92 214.66 449.28 215.47 449.51 216.47"/><path class="cls-6" d="M465.9,218.44l-2.67-11.59a2.07,2.07,0,0,0-1.11-1.39l-10.79-5.14a2.08,2.08,0,0,0-.88-.19,2.52,2.52,0,0,0-.9.17l-10.79,5.16a2,2,0,0,0-1.11,1.39L435,218.44a2.11,2.11,0,0,0,.41,1.75l7.46,9.28a2.06,2.06,0,0,0,1.6.77h12a2.06,2.06,0,0,0,1.6-.77l7.46-9.28A2,2,0,0,0,465.9,218.44Zm-4.7.27a.52.52,0,0,1-.17,0,.07.07,0,0,0-.06,0l-.13,0a2.15,2.15,0,0,1-.38-.15,1.11,1.11,0,0,1-.19-.09h0a6.12,6.12,0,0,0-1.11-.32h0c-.13,0-.19.07-.28.11s0,0,0,0l-.25,0a8.83,8.83,0,0,1-.9,1.92,8.33,8.33,0,0,1-2.82,2.75l.11.26s0,0,0,0a.55.55,0,0,0,0,.34,4.88,4.88,0,0,0,.55,1v0c0,.06.09.1.13.17a1.36,1.36,0,0,1,.23.34.23.23,0,0,1,.07.11s0,0,0,0a.7.7,0,0,1,0,.53.65.65,0,0,1-.32.39.57.57,0,0,1-.25.06.71.71,0,0,1-.64-.41.07.07,0,0,1,0,0,.61.61,0,0,1-.07-.1c-.06-.13-.08-.26-.13-.39l-.06-.19v0a7.34,7.34,0,0,0-.45-1.07.37.37,0,0,0-.28-.19s0,0,0,0l-.13-.24a7.9,7.9,0,0,1-1.11.32,7.62,7.62,0,0,1-1.85.22,8.4,8.4,0,0,1-3-.56l-.15.28,0,0a.52.52,0,0,0-.28.19,5.14,5.14,0,0,0-.45,1.07l-.06.19c0,.13-.07.24-.13.39a.44.44,0,0,0-.06.1.07.07,0,0,0,0,0,.77.77,0,0,1-.64.41.58.58,0,0,1-.26-.06.68.68,0,0,1-.28-.92.07.07,0,0,0,0,0,.35.35,0,0,1,.07-.11,3.34,3.34,0,0,1,.23-.34c0-.07.09-.11.13-.17v0a6.05,6.05,0,0,0,.55-1,.42.42,0,0,0,0-.34s0,0,0,0l.13-.28a7.8,7.8,0,0,1-.92-.62,8.4,8.4,0,0,1-2.79-4l-.3,0s0,0-.05,0a.45.45,0,0,0-.27-.1h-.05a5.15,5.15,0,0,0-1.11.32h0l-.19.08a1.58,1.58,0,0,1-.38.15l-.13,0s0,0,0,0a.52.52,0,0,1-.17,0,.66.66,0,0,1-.69-.49.71.71,0,0,1,.56-.79.07.07,0,0,1,.06,0l.13,0a3.15,3.15,0,0,1,.41,0,.71.71,0,0,1,.21,0h0a5.62,5.62,0,0,0,1.15-.19.55.55,0,0,0,.24-.24s0,0,0,0l.28-.09a8.28,8.28,0,0,1,1.19-5.63.55.55,0,0,1,.11-.17l-.22-.19v-.05a.42.42,0,0,0-.1-.32,7.55,7.55,0,0,0-1-.66,1.18,1.18,0,0,0-.19-.1,3.6,3.6,0,0,1-.37-.22s-.06-.06-.1-.08,0,0-.05,0a.72.72,0,0,1-.15-1,.62.62,0,0,1,.49-.24.75.75,0,0,1,.47.17s0,0,.05.05l.1.08a2.56,2.56,0,0,1,.28.3,1.06,1.06,0,0,1,.15.15,6,6,0,0,0,.85.79.39.39,0,0,0,.2.06l.12,0h.05l.21.15a8.24,8.24,0,0,1,4.22-2.39,9.27,9.27,0,0,1,1.16-.17l0-.28,0,0a.45.45,0,0,0,.17-.28,5.87,5.87,0,0,0-.06-1.15v0a.93.93,0,0,0-.05-.21,1.35,1.35,0,0,1-.06-.41v-.17a.67.67,0,0,1,.19-.49.65.65,0,0,1,1.13.49V205c0,.15,0,.28-.06.41a.78.78,0,0,0,0,.21v0a6.86,6.86,0,0,0-.07,1.15.45.45,0,0,0,.17.28l.05,0,0,.28a8.56,8.56,0,0,1,4.46,1.77,11,11,0,0,1,.87.81l.26-.17h0a.3.3,0,0,0,.13,0,.35.35,0,0,0,.19-.06,4.89,4.89,0,0,0,.85-.77.71.71,0,0,0,.15-.15l.28-.3s.06-.06.11-.08l0,0a.79.79,0,0,1,.47-.18.62.62,0,0,1,.49.24.71.71,0,0,1-.15,1s0,0,0,0l-.11.09a3.35,3.35,0,0,1-.36.21,1.18,1.18,0,0,0-.19.11,5.16,5.16,0,0,0-1,.66.46.46,0,0,0-.11.32v0l-.21.19a8.9,8.9,0,0,1,1.19,2.8,8.28,8.28,0,0,1,.15,3l.28.08s0,0,0,.05a.39.39,0,0,0,.23.23,5.4,5.4,0,0,0,1.16.19h0a.82.82,0,0,0,.21,0,2.08,2.08,0,0,1,.41,0l.12,0s0,0,.05,0h0a.83.83,0,0,1,.62.7A.73.73,0,0,1,461.2,218.71Z"/><path class="cls-6" d="M456.15,212.23l-2.58,2.32a.47.47,0,0,0-.13.24.57.57,0,0,0,.4.68l3.27.94a6.91,6.91,0,0,0-.15-2.16A6.84,6.84,0,0,0,456.15,212.23Z"/><path class="cls-6" d="M451.58,212.8a.57.57,0,0,0,.75.13l2.79-2a6.41,6.41,0,0,0-3.84-1.86l.19,3.48A.61.61,0,0,0,451.58,212.8Z"/><path class="cls-6" d="M448.85,213a.59.59,0,0,0,.58-.56l.19-3.41-.68.13a6.38,6.38,0,0,0-3.18,1.75l2.83,2A.46.46,0,0,0,448.85,213Z"/><rect class="cls-6" x="394.82" y="297.56" width="3.48" height="3.48"/><rect class="cls-6" x="394.82" y="301.94" width="3.48" height="3.48"/><rect class="cls-6" x="394.82" y="306.32" width="3.48" height="3.48"/><rect class="cls-6" x="390.59" y="301.94" width="3.48" height="3.48"/><rect class="cls-6" x="390.59" y="306.32" width="3.48" height="3.48"/><rect class="cls-6" x="386.36" y="301.94" width="3.48" height="3.48"/><rect class="cls-6" x="386.36" y="306.32" width="3.48" height="3.48"/><rect class="cls-6" x="382.18" y="306.32" width="3.48" height="3.48"/><rect class="cls-6" x="399.06" y="306.32" width="3.48" height="3.48"/><path class="cls-6" d="M391.61,322.22c-12.84,0-11.34-11.3-11.34-11.3h21.42c3.61,0,4.81-1.14,4.81-1.14a4.81,4.81,0,0,1,.35-5.83,4.55,4.55,0,0,1,2.58,3.84s2.74-.9,4.43.64c-.94,3.09-5.12,2.89-5.12,2.89S404.85,322.22,391.61,322.22Z"/><path class="cls-6" d="M347.67,304.46h.92l2.61-2.62.13-1.1a11.74,11.74,0,0,0-19.1,5.72,1.45,1.45,0,0,1,.92,0l5.22-.86s.27-.44.4-.42a6.52,6.52,0,0,1,8.92-.67Z"/><path class="cls-6" d="M354.92,306.46a11.83,11.83,0,0,0-3.54-5.72l-3.67,3.67a6.51,6.51,0,0,1,2.39,5.17v.65a3.27,3.27,0,1,1,0,6.53h-6.52l-.65.66v3.91l.65.65h6.52a8.49,8.49,0,0,0,4.82-15.52Z"/><path class="cls-6" d="M337,322h6.53v-5.23H337a3.34,3.34,0,0,1-1.35-.29l-.91.28-2.63,2.61-.23.92A8.43,8.43,0,0,0,337,322Z"/><path class="cls-6" d="M337,305a8.48,8.48,0,0,0-5.12,15.21l3.78-3.78a3.26,3.26,0,1,1,2.69-5.95,3.31,3.31,0,0,1,1.63,1.63l3.79-3.79A8.51,8.51,0,0,0,337,305Z"/><path class="cls-6" d="M283.28,307.29a3.31,3.31,0,0,0,.12.94,4.85,4.85,0,0,0,.34.76.49.49,0,0,1,.07.24.4.4,0,0,1-.2.32L283,310a.57.57,0,0,1-.28.09.47.47,0,0,1-.32-.15,3.4,3.4,0,0,1-.38-.49c-.1-.18-.21-.38-.33-.63a3.88,3.88,0,0,1-3.11,1.46,2.89,2.89,0,0,1-2.11-.76,3,3,0,0,1,.18-4.21,3.83,3.83,0,0,1,2.59-.82,8.81,8.81,0,0,1,1.12.08c.39.05.79.14,1.22.23V304a2.34,2.34,0,0,0-.5-1.69,2.42,2.42,0,0,0-1.72-.49,4.69,4.69,0,0,0-1.15.14,7.55,7.55,0,0,0-1.14.36l-.37.14-.17,0c-.15,0-.22-.11-.22-.33v-.52a.71.71,0,0,1,.07-.37.86.86,0,0,1,.3-.22,6.2,6.2,0,0,1,1.33-.48,6.78,6.78,0,0,1,1.65-.2,3.86,3.86,0,0,1,2.77.86,3.47,3.47,0,0,1,.88,2.6v3.43ZM279,308.9a3.63,3.63,0,0,0,1.09-.19,2.32,2.32,0,0,0,1-.68,1.6,1.6,0,0,0,.36-.68,3.46,3.46,0,0,0,.11-.92V306a7.56,7.56,0,0,0-1-.18,8.55,8.55,0,0,0-1-.07,2.37,2.37,0,0,0-1.57.43,1.51,1.51,0,0,0,1,2.73Zm8.49,1.14a.56.56,0,0,1-.4-.11.85.85,0,0,1-.22-.41l-2.49-8.18a2,2,0,0,1-.09-.42c0-.17.08-.26.25-.26h1a.6.6,0,0,1,.41.1.82.82,0,0,1,.21.41l1.78,7,1.65-7a.78.78,0,0,1,.2-.41.76.76,0,0,1,.42-.1h.85a.65.65,0,0,1,.42.1.68.68,0,0,1,.2.41l1.68,7.09,1.82-7.09a.94.94,0,0,1,.22-.41.7.7,0,0,1,.41-.1h1a.24.24,0,0,1,.27.26,1.11,1.11,0,0,1,0,.17,1.73,1.73,0,0,1-.08.26l-2.55,8.18a.73.73,0,0,1-.22.41.62.62,0,0,1-.4.11h-.91a.59.59,0,0,1-.42-.11.69.69,0,0,1-.2-.42l-1.64-6.82L289,309.51a.9.9,0,0,1-.2.42.65.65,0,0,1-.43.11Zm13.59.28a6.71,6.71,0,0,1-1.62-.19,4.47,4.47,0,0,1-1.22-.42.7.7,0,0,1-.33-.3.75.75,0,0,1-.06-.29v-.54q0-.33.24-.33a.63.63,0,0,1,.19,0l.27.11a6,6,0,0,0,1.16.37,6.74,6.74,0,0,0,1.26.13,2.88,2.88,0,0,0,1.54-.35,1.15,1.15,0,0,0,.55-1,1,1,0,0,0-.28-.74,2.67,2.67,0,0,0-1.07-.55l-1.53-.47a3.3,3.3,0,0,1-1.7-1.08,2.54,2.54,0,0,1-.53-1.54,2.36,2.36,0,0,1,.29-1.17,2.64,2.64,0,0,1,.76-.87,3.55,3.55,0,0,1,1.1-.55,4.5,4.5,0,0,1,1.33-.18,5.53,5.53,0,0,1,.71,0l.69.12.6.17a2.53,2.53,0,0,1,.45.19.83.83,0,0,1,.31.26.54.54,0,0,1,.1.35v.5c0,.22-.08.34-.24.34a1,1,0,0,1-.41-.13,4.91,4.91,0,0,0-2-.41,2.6,2.6,0,0,0-1.4.3,1.09,1.09,0,0,0-.18,1.69,3.15,3.15,0,0,0,1.16.58l1.5.48a3.23,3.23,0,0,1,1.64,1,2.37,2.37,0,0,1,.49,1.48,2.72,2.72,0,0,1-.28,1.23,2.76,2.76,0,0,1-.77.93,3.58,3.58,0,0,1-1.17.59,5,5,0,0,1-1.52.22Z"/><path class="cls-6" d="M303.07,315.46a22.81,22.81,0,0,1-12.88,3.94,23.3,23.3,0,0,1-15.73-6c-.33-.29,0-.7.36-.46a31.3,31.3,0,0,0,27.75,1.72c.58-.26,1.08.38.5.8Z"/><path class="cls-6" d="M304.52,313.81c-.44-.57-2.94-.27-4.07-.13-.34,0-.39-.26-.08-.48,2-1.4,5.25-1,5.63-.53s-.1,3.75-2,5.31c-.29.25-.56.12-.44-.2C304,316.73,305,314.38,304.52,313.81Z"/><polygon class="cls-6" points="450.81 258.54 450.81 266.61 455.85 266.61 455.85 264.48 452.94 264.48 452.94 258.54 450.81 258.54"/><polygon class="cls-6" points="441.02 266.61 441.02 258.54 438.9 258.54 438.9 261.41 436.33 261.41 436.33 258.54 434.21 258.54 434.21 266.61 436.33 266.61 436.33 263.53 438.9 263.53 438.9 266.61 441.02 266.61"/><polygon class="cls-6" points="448.48 260.29 448.48 258.54 443.46 258.54 443.46 266.61 448.48 266.61 448.48 264.88 445.58 264.88 445.58 263.39 448.15 263.39 448.15 261.61 445.58 261.61 445.58 260.29 448.48 260.29"/><polygon class="cls-6" points="465.73 258.54 462.44 261.53 459.14 258.54 458.18 258.54 458.18 266.61 460.31 266.61 460.31 262.48 462.44 264.39 464.55 262.47 464.55 266.61 466.69 266.61 466.69 258.54 465.73 258.54"/><path class="cls-6" d="M460.25,272.51a14,14,0,0,0,1.46-1.78l-.47-.33a13.71,13.71,0,0,0,.91-1.34l-1.84-1.1a11.27,11.27,0,0,1-19.19.26l-1.81,1.16c.23.36.47.71.73,1l-.48.33a14.63,14.63,0,0,0,1.8,2.11,9.11,9.11,0,0,0-.79,1c-1.12,1.6-1.54,3.25-.93,3.68s2-.53,3.14-2.14a8,8,0,0,0,.58-.94,13.54,13.54,0,0,0,6.35,2.11,7.9,7.9,0,0,0-.08,1.22c0,2,.6,3.55,1.34,3.55s1.35-1.59,1.35-3.55a8.57,8.57,0,0,0-.09-1.28,13.39,13.39,0,0,0,6.19-2.41,8.91,8.91,0,0,0,.76,1.3c1.13,1.61,2.53,2.57,3.14,2.14s.19-2.08-.93-3.68A8.07,8.07,0,0,0,460.25,272.51Z"/><path class="cls-6" d="M441.12,256.85a11.26,11.26,0,0,1,19.19.27l1.84-1.11a15,15,0,0,0-.91-1.34l.47-.33a14,14,0,0,0-1.46-1.78,8.41,8.41,0,0,0,1.14-1.32c1.12-1.61,1.54-3.26.93-3.69s-2,.53-3.14,2.14a8.91,8.91,0,0,0-.76,1.3,13.38,13.38,0,0,0-6.19-2.4,8.67,8.67,0,0,0,.09-1.28c0-2-.6-3.56-1.35-3.56s-1.34,1.59-1.34,3.56a7.85,7.85,0,0,0,.08,1.21,13.44,13.44,0,0,0-6.35,2.12,9,9,0,0,0-.58-.95c-1.12-1.61-2.53-2.56-3.14-2.14s-.19,2.08.93,3.69a9,9,0,0,0,.79,1,14.63,14.63,0,0,0-1.8,2.11l.48.33c-.26.34-.5.68-.73,1Z"/><path class="cls-6" d="M450.45,297.15v3.22c-2.11,1.06-4.13,2.13-6.07,3.19-1.08-.58-2.19-1.15-3.32-1.72Q445.49,299.5,450.45,297.15Z"/><path class="cls-6" d="M450.45,297.15v3.22q3.06,1.49,5.9,2.95c.08-1,.16-2.06.23-3.09C454.61,299.2,452.57,298.18,450.45,297.15Z"/><path class="cls-6" d="M466.24,301.58a.37.37,0,0,0-.17-.18c-.92-.54-1.86-1.07-2.82-1.61a.6.6,0,0,0-.27-.07.73.73,0,0,0-.29.07L460.26,301c.1-.78.19-1.56.29-2.34a.44.44,0,0,0-.24-.44q-4.5-2.42-9.56-4.83a.63.63,0,0,0-.3-.07.64.64,0,0,0-.31.07q-8.42,4-15.32,8a.37.37,0,0,0-.17.18.46.46,0,0,0,0,.26c.2,1.07.41,2.14.62,3.22a.67.67,0,0,0,.35.44l2.32,1.17-1.87,1.17a.4.4,0,0,0-.15.19.42.42,0,0,0,0,.25q.94,4.83,1.88,9.66a.71.71,0,0,0,.31.44,128.73,128.73,0,0,1,12.18,8.05.26.26,0,0,0,.19.07.28.28,0,0,0,.19-.07c.71-.53,1.44-1.07,2.19-1.61a.55.55,0,0,0,.22-.43c0-.79.07-1.57.11-2.35l1.58,1.17a.31.31,0,0,0,.2.07.41.41,0,0,0,.18,0q3.58-2.43,7.7-4.85a.71.71,0,0,0,.31-.44l3.15-16.1A.46.46,0,0,0,466.24,301.58ZM442.8,315.3c1.66,1,3.24,2,4.76,2.93l.09,2.06c-2-1.32-4.1-2.64-6.33-4Zm-1.19-6.14.63,5.27c-.51.34-1,.68-1.5,1q-.37-2.64-.76-5.28Zm8.83.15q-3.93-2.3-8.35-4.57c-1.87-1-3.8-1.94-5.81-2.9q6.44-3.73,14.17-7.47,4.4,2.13,8.37,4.25l-2.1,1c-1.92-1-3.92-2.05-6-3.07l-.06,0h0l-.13,0h-.16a.79.79,0,0,0-.22.06Q445.28,299,441,301.4a.4.4,0,0,0-.17.17l0,.05a.42.42,0,0,0,0,.15v0s0,.07,0,.1h0a.46.46,0,0,0,.08.19.63.63,0,0,0,.24.19c1.07.53,2.12,1.07,3.15,1.61a.68.68,0,0,0,.28.07.59.59,0,0,0,.26-.07c1.82-1,3.72-2.05,5.68-3.08,2,1,3.87,2.05,5.69,3.08l.05,0h0l.14,0h.06a.68.68,0,0,0,.28-.07c2-1,4-2.05,6.14-3.08l1.8,1Q456.87,305.58,450.44,309.31Zm5.65-8.79c0,.68-.09,1.37-.14,2.05-1.59-.88-3.24-1.75-4.94-2.63,0-.69,0-1.37,0-2.06Q453.64,299.2,456.09,300.52Zm-6.21-.58q-2.83,1.46-5.46,2.93c-.67-.35-1.34-.69-2-1q3.56-2,7.48-4C449.87,298.57,449.87,299.25,449.88,299.94Zm12.4,17.71c-2.41,1.42-4.69,2.83-6.83,4.25l.17-2.06q2.4-1.53,5-3.07a.77.77,0,0,0,.19-.17l0,0h0a.87.87,0,0,0,.07-.17h0l1.53-9.71a.42.42,0,0,0-.19-.44.52.52,0,0,0-.25-.07.72.72,0,0,0-.28.07c-1,.54-2.06,1.07-3.06,1.61l-.05,0,0,0a.47.47,0,0,0-.1.1l0,.05h0a.77.77,0,0,0-.07.16v0l-.66,6.2q-2.64,1.54-5,3.09l-.07.07,0,0h0l0,0,0,.08v0a.43.43,0,0,0,0,.11v0c-.07,2.06-.13,4.13-.2,6.19l-1.42,1q.06-7.47.11-14.94,4.4-2.56,9.4-5.14c.73-.38,1.48-.76,2.23-1.13l.07,0,0,0,2.34-1.16Q463.65,310.18,462.28,317.65Z"/></g><rect class="cls-7" x="200.32" y="110.66" width="149.81" height="6.81" rx="3.4"/><rect class="cls-8" x="117" y="101.76" width="29.81" height="6.81" rx="3.4"/><line class="cls-9" x1="435.74" y1="128.3" x2="437.51" y2="130.07"/><line class="cls-10" x1="441.02" y1="133.58" x2="467.37" y2="159.93"/><line class="cls-9" x1="469.13" y1="161.69" x2="470.9" y2="163.45"/><line class="cls-2" x1="212.71" y1="306.37" x2="214.48" y2="308.14"/><line class="cls-11" x1="217.85" y1="311.52" x2="236.42" y2="330.08"/><line class="cls-2" x1="238.1" y1="331.77" x2="239.87" y2="333.53"/><line class="cls-12" x1="103.41" y1="231.58" x2="105.17" y2="233.35"/><line class="cls-13" x1="108.72" y1="236.89" x2="184.96" y2="313.13"/><line class="cls-12" x1="186.74" y1="314.91" x2="188.5" y2="316.67"/><path class="cls-14" d="M239.87,167.7V302.84H423.48a14.6,14.6,0,0,0,14.58-14.58V167.7Z"/><path class="cls-15" d="M423.48,105.16h-247a6.58,6.58,0,0,0-6.58,6.58V288.26a6.58,6.58,0,0,0,6.58,6.58h247a6.58,6.58,0,0,0,6.58-6.58V111.74A6.58,6.58,0,0,0,423.48,105.16Z"/><rect class="cls-16" x="189.94" y="125.16" width="220.13" height="149.68"/><rect class="cls-17" x="355.03" y="175.05" width="55.03" height="49.89"/><rect class="cls-16" x="355.03" y="224.95" width="55.03" height="49.89"/><rect class="cls-18" x="300" y="224.95" width="55.03" height="49.89"/><rect class="cls-16" x="355.03" y="125.16" width="55.03" height="49.89"/><rect class="cls-16" x="244.97" y="224.95" width="55.03" height="49.89"/><rect class="cls-19" x="189.94" y="224.95" width="55.03" height="49.89"/><path class="cls-20" d="M271.29,234.71h5V257.5a33,33,0,0,1-6.45.67c-6.07,0-9.24-2.72-9.24-7.93,0-5,3.36-8.28,8.56-8.28a8.09,8.09,0,0,1,2.16.25Zm.17,11.61a5,5,0,0,0-1.67-.25c-2.52,0-4,1.53-4,4.22s1.39,4.06,3.93,4.06a12.41,12.41,0,0,0,1.71-.12Z"/><path class="cls-20" d="M284.39,242.57V254c0,3.93-.29,5.82-1.16,7.45a7.86,7.86,0,0,1-4.06,3.65l-4.61-2.18c2.19-1,3.25-1.92,3.93-3.29s.94-3,.94-7.33v-9.71Z"/><path class="cls-20" d="M278.93,234.71h5v5h-5v-5Z"/><path class="cls-21" d="M382.43,133.38c-8.54,0-8,3.7-8,3.7v3.84h8.15v1.15H371.19s-5.46-.62-5.46,8,4.77,8.32,4.77,8.32h2.85v-4s-.16-4.77,4.69-4.77h8.08s4.54.07,4.54-4.39v-7.38s.69-4.46-8.23-4.46Zm-4.5,2.58a1.47,1.47,0,1,1-1.46,1.46,1.46,1.46,0,0,1,1.46-1.46Z"/><path class="cls-22" d="M382.67,166.84c8.54,0,8-3.7,8-3.7V159.3h-8.15v-1.15H393.9s5.47.62,5.47-8-4.77-8.31-4.77-8.31h-2.85v4s.16,4.77-4.69,4.77H379s-4.55-.08-4.55,4.39v7.37s-.68,4.47,8.24,4.47Zm4.49-2.58a1.47,1.47,0,1,1,1.47-1.47,1.46,1.46,0,0,1-1.47,1.47Z"/><path class="cls-8" d="M203.46,258a1.62,1.62,0,0,0,.62.6l12.55,7.23h0a1.6,1.6,0,0,0,1.66,0l12.55-7.23a1.65,1.65,0,0,0,.83-1.45V242.66h0a1.64,1.64,0,0,0-.83-1.45L218.29,234h0a1.6,1.6,0,0,0-1.66,0h0l-12.55,7.24a1.62,1.62,0,0,0-.85,1.45h0v14.48a1.59,1.59,0,0,0,.23.84"/><path class="cls-20" d="M213.43,255.42a1.61,1.61,0,0,1-3.22,0h0V244.35a1.67,1.67,0,0,1,1.82-1.56,2.86,2.86,0,0,1,2.2,1l.49.58,6.75,8.07v-8h0a1.62,1.62,0,0,1,3.23,0h0v11.07a1.68,1.68,0,0,1-1.83,1.56,2.9,2.9,0,0,1-2.2-1l-7.24-8.64v8Z"/><g id="Layer_3"><path class="cls-21" d="M392.06,258.93c.26-2.1.18-2.41,1.75-2.07l.39,0a9,9,0,0,0,3.7-.62c2-.92,3.17-2.46,1.21-2.06-4.48.92-4.78-.59-4.78-.59,4.72-7,6.7-15.91,5-18.09-4.65-5.94-12.7-3.13-12.83-3.06h0a16.56,16.56,0,0,0-3-.31,7.44,7.44,0,0,0-4.73,1.41S364.37,227.67,365,241c.14,2.85,4.07,21.5,8.76,15.87,1.72-2.06,3.37-3.81,3.37-3.81a4.33,4.33,0,0,0,2.84.73l.08-.07a3.64,3.64,0,0,0,0,.8c-1.21,1.35-.85,1.59-3.26,2.09s-1,1.4-.08,1.63a5,5,0,0,0,5.54-1.8l-.07.28c.48.38.44,2.73.51,4.4a16,16,0,0,0,.52,4.16c.34.93.75,3.3,3.92,2.62,2.65-.57,4.68-1.39,4.86-9"/><path class="cls-21" d="M386.17,269.7a4.16,4.16,0,0,1-3-1.1,5.59,5.59,0,0,1-1.4-2.47,2.3,2.3,0,0,0-.09-.25,16.64,16.64,0,0,1-.62-4.67c0-.3,0-.61,0-.94s0-.43,0-.67a7.2,7.2,0,0,1-4.67.27,4,4,0,0,1-2.05-1.16,3.4,3.4,0,0,1-3.36.72c-1.27-.42-2.4-1.6-3.46-3.61a32.75,32.75,0,0,1-2.14-5.46,52.33,52.33,0,0,1-2-9.25c-.21-4.21.93-7.22,3.38-9,2-1.43,4.8-1.87,8.24-1.31a23.55,23.55,0,0,1,3.51.88,9.33,9.33,0,0,1,5-1.22,17.37,17.37,0,0,1,2.86.26,16.63,16.63,0,0,1,4.88-.69,11.67,11.67,0,0,1,9.4,4.43c1.53,2,1,5.79.22,8.67a38.51,38.51,0,0,1-4.07,9.66,11.13,11.13,0,0,0,2-.26c2.18-.45,2.78.83,2.91,1.23.68,2-2.18,3.56-3.08,4a10.91,10.91,0,0,1-4.47.78h-.07l-.27,0,0,.2,0,.32c-.11,3.87-.66,6.34-1.81,8a7.84,7.84,0,0,1-5.75,2.68Zm-2.88-14.25c.95.76,1,2.14,1.11,4.73,0,.31,0,.61,0,.9a17.39,17.39,0,0,0,.42,3.65c.05.12.09.24.13.37.34,1.06.49,1.49,1.88,1.19,1.23-.26,1.86-.49,2.35-1.18.72-1,1.13-3.13,1.2-6.22l1.66,0-1.65-.2c0-.14,0-.26,0-.38.14-1.24.26-2.22,1.14-2.85a2.51,2.51,0,0,1,1.73-.41,2.21,2.21,0,0,1-.63-1.14l-.14-.68.39-.58a35,35,0,0,0,4.67-10.32c.92-3.57.66-5.46.39-5.81-3.69-4.73-10.13-2.8-10.84-2.57l-.12.07-.62.12-.32-.07a14.6,14.6,0,0,0-2.68-.28,5.74,5.74,0,0,0-3.69,1.08l-.76.58-.88-.37c-1.72-.7-6.77-2.12-9.42-.24-1.46,1-2.13,3.07-2,6.06a50.52,50.52,0,0,0,1.92,8.66c1.59,5.13,3,6.56,3.4,6.67a1.49,1.49,0,0,0,.5-.45c1.73-2.08,3.38-3.81,3.45-3.88l1-1,1.16.77a2.83,2.83,0,0,0,1.29.46l2.77-2.36-.4,4.1a1.11,1.11,0,0,0,0,.39l.12.78-.53.58v0l1.29.59Z"/><path class="cls-21" d="M399.11,254.21c-4.48.92-4.78-.59-4.78-.59,4.72-7,6.7-15.91,5-18.09-4.65-5.94-12.7-3.13-12.83-3.06h0a16.56,16.56,0,0,0-3-.31,7.44,7.44,0,0,0-4.73,1.41S364.37,227.67,365,241c.14,2.85,4.07,21.5,8.76,15.87,1.72-2.06,3.37-3.81,3.37-3.81a4.33,4.33,0,0,0,2.84.73l.08-.07a3.11,3.11,0,0,0,0,.8c-1.21,1.35-.85,1.59-3.26,2.09s-1,1.4-.08,1.63a5,5,0,0,0,5.54-1.8l-.07.28c.48.38.81,2.47.75,4.36a12.18,12.18,0,0,0,.28,4.2c.38,1,.75,3.3,3.92,2.62,2.65-.57,4-2,4.22-4.5.13-1.74.44-1.48.46-3.05l.25-.74c.28-2.36,0-3.13,1.67-2.77l.4,0a9,9,0,0,0,3.7-.62c2-.92,3.17-2.46,1.21-2.06Z"/><path class="cls-8" d="M386.32,268.67a4,4,0,0,1-3.86-3c-.5-1.26-.61-6-.5-10.14a.56.56,0,0,1,.57-.54.56.56,0,0,1,.54.57c-.13,4.61.05,8.78.42,9.7.58,1.43,1.44,2.69,3.9,2.16s3.21-1.36,3.6-3.65c.31-1.75.9-6.73,1-7.71a.55.55,0,0,1,.59-.51.54.54,0,0,1,.51.59c-.07,1-.67,6-1,7.82-.47,2.72-1.68,3.95-4.47,4.54A5.64,5.64,0,0,1,386.32,268.67Z"/><path class="cls-8" d="M372,258.44a2.13,2.13,0,0,1-.7-.12c-1.73-.57-3.38-3.38-4.89-8.34a49.78,49.78,0,0,1-1.94-9c-.19-3.81.79-6.5,2.91-8,4.2-3,11.25-.15,11.55,0a.56.56,0,0,1,.3.73.55.55,0,0,1-.72.3h0c-.07,0-6.79-2.72-10.49-.1-1.79,1.28-2.62,3.64-2.45,7a50.89,50.89,0,0,0,1.9,8.72c1.34,4.4,2.87,7.17,4.18,7.61.2.07.82.27,1.7-.79,1.71-2.06,3.28-3.69,3.29-3.71a.56.56,0,0,1,.79,0,.56.56,0,0,1,0,.79s-1.55,1.63-3.23,3.65A2.93,2.93,0,0,1,372,258.44Z"/><path class="cls-8" d="M394.3,254.12a.5.5,0,0,1-.31-.1.54.54,0,0,1-.15-.77c4.76-7.07,6.44-15.61,5-17.43a9.33,9.33,0,0,0-7.54-3.57,14.23,14.23,0,0,0-4.59.66l-.08,0a.55.55,0,0,1-.69-.29.56.56,0,0,1,.22-.71,14.32,14.32,0,0,1,5-.8,10.59,10.59,0,0,1,8.56,4c1.36,1.74.46,6,0,7.72a37,37,0,0,1-5,11A.57.57,0,0,1,394.3,254.12Z"/><path class="cls-8" d="M394.54,257.4a4.31,4.31,0,0,1-2-.38,1.07,1.07,0,0,1-.56-.87c-.12-2.12,1-2.54,1.65-2.73l-.3-.38a7.59,7.59,0,0,1-1.22-2c-.06-.14-.24-.47-.45-.85-1.15-2.07-3.56-6.38-2-8.6.71-1,2.12-1.42,4.19-1.21a12.52,12.52,0,0,0-2.24-3.84,10.72,10.72,0,0,0-8.18-3.91,6.68,6.68,0,0,0-5.05,1.89c-2.87,2.89-2.77,8.14-2.77,8.19a.55.55,0,0,1-.54.57.56.56,0,0,1-.57-.54c0-.23-.11-5.77,3.09-9a7.74,7.74,0,0,1,5.86-2.22,11.79,11.79,0,0,1,8.94,4.22,12,12,0,0,1,2.71,5.09.64.64,0,0,1-.47.74h-.2c-1.4-.22-3.2-.29-3.86.66-1.16,1.65,1.1,5.69,2.06,7.42a10.08,10.08,0,0,1,.51,1,6.32,6.32,0,0,0,1.06,1.7,2.84,2.84,0,0,1,.64,1.06c.05.08.66.92,4.14.2.91-.19,1.46,0,1.63.5.33,1-1.49,2.14-2.5,2.61A9.41,9.41,0,0,1,394.54,257.4Zm-1.47-1.35a3.5,3.5,0,0,0,1.83.23,8.11,8.11,0,0,0,2.74-.57,6.06,6.06,0,0,0,1.58-1h0c-2.28.47-3.89.4-4.8-.19l-.15-.12-.24.08C393.49,254.61,393,254.74,393.07,256.05Z"/><path class="cls-8" d="M378.38,259a6.92,6.92,0,0,1-1.76-.23c-.18,0-1.72-.46-1.7-1.44s1.31-1.17,1.79-1.27c1.71-.35,1.82-.49,2.35-1.17.15-.2.35-.44.62-.74a1.64,1.64,0,0,1,2.08-.5,2.23,2.23,0,0,1,1.22,1.46,1.89,1.89,0,0,1-.24,1.65A5.16,5.16,0,0,1,378.38,259Zm-2.23-1.62a2.47,2.47,0,0,0,.74.32,4.38,4.38,0,0,0,4.95-1.59.79.79,0,0,0,.07-.69,1.17,1.17,0,0,0-.58-.75c-.3-.12-.46-.19-.83.22h0c-.24.27-.42.49-.57.69-.68.86-1,1.15-3,1.56A3.82,3.82,0,0,0,376.15,257.35Zm3.94-2.86Z"/><path class="cls-8" d="M380,255a.57.57,0,0,1-.55-.47,1.8,1.8,0,0,1,0-.22,5.06,5.06,0,0,1-3.51-1.6,5.77,5.77,0,0,1-1.53-4.83,22.3,22.3,0,0,0,.12-4.56c0-.26,0-.45,0-.58s0-.61,1.47-1.35a8.06,8.06,0,0,1,2.67-.84,2.9,2.9,0,0,1,3.49,2.36c1,4.59.08,6.62-.59,8.1-.12.28-.24.54-.33.79l-.08.22a5.47,5.47,0,0,0-.56,2.34.55.55,0,0,1-.46.63Zm-4.4-12.09c0,.09,0,.21,0,.34a23.89,23.89,0,0,1-.13,4.78,4.66,4.66,0,0,0,1.23,3.91,3.91,3.91,0,0,0,2.83,1.26,14.36,14.36,0,0,1,.52-1.57l.08-.22c.11-.29.23-.56.36-.85.64-1.42,1.43-3.18.52-7.41a1.68,1.68,0,0,0-1.3-1.45C378.21,241.37,376.07,242.52,375.61,242.93Z"/><path class="cls-8" d="M378.66,242.69c0,.18.33.66.8.73a.87.87,0,0,0,.89-.5c0-.18-.33-.38-.8-.44s-.87,0-.89.21Z"/><path class="cls-8" d="M379.56,243.61h-.13a1.23,1.23,0,0,1-.79-.49.67.67,0,0,1-.16-.45.33.33,0,0,1,.14-.23,1.42,1.42,0,0,1,.95-.14,1.91,1.91,0,0,1,.65.21c.3.16.32.35.31.45a.83.83,0,0,1-.36.47A1.15,1.15,0,0,1,379.56,243.61Zm-.71-.89a.86.86,0,0,0,.63.52.75.75,0,0,0,.68-.33,1,1,0,0,0-.64-.25A1.15,1.15,0,0,0,378.85,242.72Z"/><path class="cls-8" d="M392.84,242.32c0,.18-.33.66-.8.73a.87.87,0,0,1-.89-.5c0-.18.34-.38.8-.44s.87,0,.89.21Z"/><path class="cls-8" d="M391.94,243.15a1,1,0,0,1-.88-.58c0-.28.41-.49.88-.55s.95,0,1,.29h0a.66.66,0,0,1-.24.48,1.1,1.1,0,0,1-.63.35Zm.3-1-.28,0c-.48.07-.73.26-.72.34a.79.79,0,0,0,.79.42,1,1,0,0,0,.53-.3.54.54,0,0,0,.19-.33C392.74,242.27,392.56,242.18,392.24,242.18Z"/><path class="cls-8" d="M393.51,252.77a.55.55,0,0,1-.46-.86c1.09-1.62.89-3.28.7-4.88a13.15,13.15,0,0,1-.15-2.08,13.46,13.46,0,0,1,.2-1.84,9.42,9.42,0,0,0,.15-2,.56.56,0,0,1,.53-.58.55.55,0,0,1,.58.52,9.85,9.85,0,0,1-.17,2.25,13.83,13.83,0,0,0-.18,1.71,13,13,0,0,0,.14,1.91c.2,1.72.44,3.66-.88,5.62A.54.54,0,0,1,393.51,252.77Z"/></g><path class="cls-8" d="M315,253.92a5.57,5.57,0,0,0-1.63-.53,10.37,10.37,0,0,0-1.76-.15,8.75,8.75,0,0,1-1.44-.12,3.7,3.7,0,0,1-1.25-.44,2.53,2.53,0,0,1-.88-.84,2.59,2.59,0,0,1-.33-1.38,2.42,2.42,0,0,1,.34-1.27,2.69,2.69,0,0,1,.85-.83,3.74,3.74,0,0,1,1.22-.47,6.81,6.81,0,0,1,2.43-.08,4.56,4.56,0,0,1,.95.24,3.5,3.5,0,0,1,.85.46,3,3,0,0,1,.67.7l.1.15.78-.32-.16-.24a5.49,5.49,0,0,0-.7-.8,3.54,3.54,0,0,0-.9-.6A4.76,4.76,0,0,0,313,247a7.75,7.75,0,0,0-1.44-.12,8.06,8.06,0,0,0-1.6.17,5.05,5.05,0,0,0-1.5.59,3.49,3.49,0,0,0-1.13,1.1,3,3,0,0,0-.44,1.67,3.32,3.32,0,0,0,.41,1.74,3.14,3.14,0,0,0,1.08,1.12,4.4,4.4,0,0,0,1.51.58,8.8,8.8,0,0,0,1.72.17,11,11,0,0,1,1.48.11,4.05,4.05,0,0,1,1.37.41,2.68,2.68,0,0,1,1,.82,2.52,2.52,0,0,1,0,2.63,2.9,2.9,0,0,1-1,.87,4.38,4.38,0,0,1-1.34.5,6.82,6.82,0,0,1-1.47.16,6.32,6.32,0,0,1-2.34-.45,5.6,5.6,0,0,1-2-1.34l-.15-.16-.62.54.17.18a8,8,0,0,0,2.06,1.44,6.45,6.45,0,0,0,2.87.61,8,8,0,0,0,1.64-.18,5.23,5.23,0,0,0,1.6-.6,3.87,3.87,0,0,0,1.23-1.11,2.94,2.94,0,0,0,.49-1.73,3.1,3.1,0,0,0-.46-1.75A3.31,3.31,0,0,0,315,253.92Z"/><path class="cls-8" d="M325.76,252a5,5,0,0,0-1.48-1.18,4.17,4.17,0,0,0-1.94-.46,4.26,4.26,0,0,0-1.83.41,4.8,4.8,0,0,0-1.49,1.11,5.3,5.3,0,0,0-1,1.63,5.26,5.26,0,0,0,0,3.8,5.52,5.52,0,0,0,.95,1.61,4.89,4.89,0,0,0,1.48,1.14,4.38,4.38,0,0,0,1.92.46h0a4.3,4.3,0,0,0,1.84-.44,4.68,4.68,0,0,0,1.49-1.12,5.25,5.25,0,0,0,1-1.6,5.15,5.15,0,0,0,.36-1.91,5.35,5.35,0,0,0-.33-1.82A5.27,5.27,0,0,0,325.76,252Zm-3.42,7.7a3.35,3.35,0,0,1-1.53-.35,3.77,3.77,0,0,1-1.2-.94,4.24,4.24,0,0,1-.81-1.36,5,5,0,0,1-.33-1.6,4.34,4.34,0,0,1,.28-1.52,4.36,4.36,0,0,1,2-2.37,3.31,3.31,0,0,1,1.57-.38,3.23,3.23,0,0,1,1.51.36,4.1,4.1,0,0,1,1.23.95,4.48,4.48,0,0,1,.83,1.36,4.41,4.41,0,0,1,.3,1.6,4.66,4.66,0,0,1-1.07,2.9,4.07,4.07,0,0,1-1.23,1A3.43,3.43,0,0,1,322.34,259.65Z"/><path class="cls-8" d="M331.28,259.42a3.47,3.47,0,0,1-.36.08l-.34.05-.34,0a.71.71,0,0,1-.62-.28,1,1,0,0,1-.24-.63v-12h-.82v12a1.83,1.83,0,0,0,.43,1.19,1.53,1.53,0,0,0,1.23.52,4,4,0,0,0,.49,0l.41-.05.43-.09.28-.06-.36-.77Z"/><path class="cls-8" d="M334.83,251.14a4.54,4.54,0,0,0-1.13,1.14v-1.82h-.82v9.83h.82v-6.12a4.65,4.65,0,0,1,.47-1.12,3.52,3.52,0,0,1,.72-.9,3.48,3.48,0,0,1,1-.61,3.69,3.69,0,0,1,1.24-.26h.22v-.81h-.23A3.9,3.9,0,0,0,334.83,251.14Z"/><path class="cls-8" d="M346.56,241.5l-6.8,7.35,8.55-3.94A7,7,0,0,0,346.56,241.5Z"/><path class="cls-8" d="M341.51,239.31a6.85,6.85,0,0,0-2.65.53l-.92,7.69,4.56-8.14A6.4,6.4,0,0,0,341.51,239.31Z"/><path class="cls-8" d="M348.37,245.33l-8.09,4.54,7.59-.9a7,7,0,0,0,.56-2.74A6.8,6.8,0,0,0,348.37,245.33Z"/><path class="cls-8" d="M345.39,252a7.07,7.07,0,0,0,2.19-2.39L340.45,251Z"/><path class="cls-8" d="M342.92,239.46l-4,8.59,7.35-6.8A6.89,6.89,0,0,0,342.92,239.46Z"/><path class="cls-8" d="M342.09,253.13a6.91,6.91,0,0,0,2.18-.54l-4-.48Z"/><path class="cls-8" d="M335.21,243.39a6.94,6.94,0,0,0-.59,2.22l1.08,1.92Z"/><path class="cls-8" d="M338.26,240.13a6.82,6.82,0,0,0-2.44,2.18l1,5.05Z"/><path class="cls-8" d="M368.83,209.88l-1.39-.8,15.42-26.7,1.38.8Z"/><path class="cls-8" d="M367.13,207H398v1.6H367.13Z"/><path class="cls-8" d="M383.16,216.75l-15.42-8.9.8-1.38,15.42,8.9Zm13.4-23.21-15.43-8.9.8-1.38,15.43,8.9Z"/><path class="cls-8" d="M368.54,193.54l-.8-1.38,15.44-8.91.8,1.38Z"/><path class="cls-8" d="M396.27,209.88l-15.42-26.7,1.39-.8,15.42,26.7ZM368.35,191.1H370v17.8h-1.6Zm26.8,0h1.6v17.8h-1.6Z"/><path class="cls-8" d="M382.89,216.08l-.7-1.21,13.42-7.75.69,1.21Z"/><path class="cls-8" d="M398.87,209.42a3.36,3.36,0,1,1-1.24-4.59,3.38,3.38,0,0,1,1.24,4.59m-26.82-15.48a3.37,3.37,0,1,1-1.24-4.6,3.38,3.38,0,0,1,1.24,4.6m-5.82,15.49a3.36,3.36,0,1,1,4.59,1.24,3.38,3.38,0,0,1-4.59-1.24m26.82-15.49a3.36,3.36,0,1,1,4.59,1.23,3.38,3.38,0,0,1-4.59-1.23m-10.5,24.91a3.36,3.36,0,1,1,3.36-3.36h0a3.37,3.37,0,0,1-3.36,3.36m0-31a3.36,3.36,0,0,1-3.36-3.35h0a3.36,3.36,0,1,1,3.37,3.36h0"/><g class="cls-4"><path class="cls-14" d="M176.52,105.16a6.58,6.58,0,0,0-6.58,6.58V240.3H353.55a14.6,14.6,0,0,0,14.58-14.58V105.16Z"/><path class="cls-23" d="M100,225.72a6.58,6.58,0,0,0,6.58,6.58h247a6.58,6.58,0,0,0,6.58-6.58V66.78H100Z"/><rect class="cls-7" x="110" y="127.79" width="80.32" height="94.52"/><rect class="cls-24" x="200.32" y="127.79" width="149.81" height="94.52" rx="3.98"/><rect class="cls-7" x="110" y="76.78" width="80.32" height="40.68"/><path class="cls-7" d="M353.55,42.63h-247A6.58,6.58,0,0,0,100,49.21V66.78H360.13V49.21A6.58,6.58,0,0,0,353.55,42.63Z"/><rect class="cls-8" x="302.11" y="42.63" width="18.08" height="24.15"/><rect class="cls-8" x="288.71" y="42.63" width="9.04" height="24.15"/><rect class="cls-8" x="166.82" y="42.63" width="11.14" height="24.15"/><rect class="cls-8" x="158.56" y="42.63" width="5.57" height="24.15"/><rect class="cls-8" x="181.66" y="42.63" width="5.57" height="24.15"/><path class="cls-25" d="M353.55,42.63h-247A6.58,6.58,0,0,0,100,49.21V66.78H360.13V49.21A6.58,6.58,0,0,0,353.55,42.63Z"/><circle class="cls-6" cx="113.09" cy="54.7" r="2.47"/><circle class="cls-6" cx="121.26" cy="54.7" r="2.47"/><circle class="cls-6" cx="129.44" cy="54.7" r="2.47"/><rect class="cls-7" x="200.32" y="106.82" width="149.81" height="6.81" rx="3.4"/><rect class="cls-7" x="200.32" y="89.88" width="149.81" height="6.81" rx="3.4"/><rect class="cls-6" x="117" y="88.63" width="29.81" height="6.81" rx="3.4"/><rect class="cls-8" x="117" y="136.71" width="29.81" height="6.81" rx="3.4"/><rect class="cls-8" x="117" y="149.84" width="29.81" height="6.81" rx="3.4"/><rect class="cls-8" x="117" y="191.41" width="29.81" height="6.81" rx="3.4"/><path class="cls-6" d="M155.92,206.06V87.31c0-3,2.06-5.47,4.61-5.47h164c2.55,0,4.61,2.45,4.61,5.47V206.06c0,3-2.06,5.47-4.61,5.47h-164C158,211.53,155.92,209.08,155.92,206.06Z"/><rect class="cls-8" x="163.92" y="89.92" width="76.13" height="53.91"/><rect class="cls-8" x="163.92" y="149.53" width="76.13" height="53.91"/><rect class="cls-8" x="245.03" y="89.92" width="76.13" height="53.91"/><rect class="cls-8" x="245.03" y="149.53" width="76.13" height="53.91"/><path class="cls-6" d="M206.42,100.22,202,107.91l-4.44-7.69H182.75L202,133.53l19.23-33.31Z"/><path class="cls-7" d="M206.42,100.22,202,107.91l-4.44-7.69h-7.1l11.54,20,11.54-20Z"/><path class="cls-6" d="M264.76,130.48a4.73,4.73,0,0,0,4.73,4.73H296.7a4.73,4.73,0,0,0,4.73-4.73V103.27a4.73,4.73,0,0,0-4.73-4.73H269.49a4.73,4.73,0,0,0-4.73,4.73v27.21Z"/><path class="cls-8" d="M278.68,114.76v-5.19h4.57a6.42,6.42,0,0,1,1.26.11,3,3,0,0,1,1.07.39,2,2,0,0,1,.75.77,2.56,2.56,0,0,1,.28,1.28,2.36,2.36,0,0,1-.84,2,3.52,3.52,0,0,1-2.14.62Zm-4.88-9V128h10.76a11.39,11.39,0,0,0,2.91-.38,7.69,7.69,0,0,0,2.51-1.15,5.57,5.57,0,0,0,1.76-2,6.81,6.81,0,0,0-.36-6.47,5.32,5.32,0,0,0-3.06-2.07,5.6,5.6,0,0,0,2.26-1.83,4.94,4.94,0,0,0,.76-2.8,5.81,5.81,0,0,0-.52-2.61,4.27,4.27,0,0,0-1.44-1.7,6.4,6.4,0,0,0-2.24-.92,14.24,14.24,0,0,0-2.89-.28Zm4.88,18.41v-6.09H284a4.09,4.09,0,0,1,2.55.73,2.88,2.88,0,0,1,1,2.44,3.13,3.13,0,0,1-.29,1.43,2.37,2.37,0,0,1-.8.89,3.38,3.38,0,0,1-1.15.46,6,6,0,0,1-1.36.14Z"/><path class="cls-6" d="M183.91,158.41h36.15v36.16H183.91Z"/><path class="cls-8" d="M193.41,188.63l2.77-1.68c.53,1,1,1.75,2.18,1.75s1.82-.44,1.82-2.14V175h3.4v11.6c0,3.52-2.06,5.12-5.07,5.12a5.28,5.28,0,0,1-5.1-3.1m12-.37,2.77-1.6a3.7,3.7,0,0,0,3.35,2.06c1.41,0,2.3-.7,2.3-1.67,0-1.17-.92-1.58-2.47-2.26l-.85-.36c-2.45-1.05-4.08-2.36-4.08-5.12,0-2.55,1.94-4.49,5-4.49a5,5,0,0,1,4.83,2.72l-2.65,1.69a2.31,2.31,0,0,0-2.18-1.45,1.48,1.48,0,0,0-1.63,1.45c0,1,.63,1.44,2.09,2.07l.85.36c2.89,1.24,4.51,2.5,4.51,5.34,0,3.06-2.4,4.73-5.63,4.73a6.53,6.53,0,0,1-6.19-3.47"/><path class="cls-6" d="M265,176.49V158.36h36.26v36.26H265"/><path class="cls-8" d="M272.92,176.55V178h4.71v13.42H281V178h4.71v-1.45a10.12,10.12,0,0,0,0-1.49s-2.87,0-6.36,0l-6.35,0v1.48ZM294.1,175a4.37,4.37,0,0,1,2.27,1.3,5.79,5.79,0,0,1,.87,1.16c0,.05-1.57,1.11-2.52,1.7,0,0-.18-.13-.33-.36a2.09,2.09,0,0,0-1.7-1c-1.09-.07-1.81.5-1.81,1.45a1.41,1.41,0,0,0,.16.69c.24.5.7.8,2.1,1.42,2.59,1.11,3.72,1.85,4.4,2.9a5.26,5.26,0,0,1,.42,4.41,4.83,4.83,0,0,1-4,2.88,11.69,11.69,0,0,1-2.77,0,6.89,6.89,0,0,1-3.69-1.93,6.29,6.29,0,0,1-.94-1.4l.35-.22,1.36-.78,1-.6.24.31a4.75,4.75,0,0,0,1.36,1.33,3.37,3.37,0,0,0,3.53-.18,1.36,1.36,0,0,0,.48-1.09,1.4,1.4,0,0,0-.27-.93c-.29-.39-.87-.72-2.5-1.45a9,9,0,0,1-3.42-2.08,5.11,5.11,0,0,1-1-1.81,7,7,0,0,1-.05-2.33,4.41,4.41,0,0,1,3.71-3.45,8.8,8.8,0,0,1,2.76.09l0,0Z"/></g></svg>