<svg xmlns="http://www.w3.org/2000/svg" version="1.1" xmlns:xlink="http://www.w3.org/1999/xlink" xmlns:svgjs="http://svgjs.com/svgjs" width="512" height="512" x="0" y="0" viewBox="0 0 512 512" style="enable-background:new 0 0 512 512" xml:space="preserve" class=""><g transform="matrix(0.8000000000000006,0,0,0.8000000000000006,51.200097465515,51.20010089874259)"><path d="M504.459 233.537a13.1 13.1 0 0 0-7.741-11.934l-42.237-18.94a13.084 13.084 0 0 1-7.103-7.944 200.108 200.108 0 0 0-14.057-33.174 13.045 13.045 0 0 1-.698-10.793l16.073-42.215a13.077 13.077 0 0 0-2.984-13.894L415.467 64.4a13.077 13.077 0 0 0-13.894-2.984l-43.2 16.447a13.035 13.035 0 0 1-10.609-.602 200.228 200.228 0 0 0-33.395-13.556 13.092 13.092 0 0 1-8.141-7.165l-18.502-41.259a13.1 13.1 0 0 0-11.934-7.741l-42.744-.04a13.01 13.01 0 0 0-11.898 7.701l-18.873 42.231a12.984 12.984 0 0 1-7.912 7.071 199.276 199.276 0 0 0-33.166 14 13.033 13.033 0 0 1-10.789.674l-38.2-14.607a13.035 13.035 0 0 0-13.877 2.948L65.63 100.221a13.034 13.034 0 0 0-2.948 13.877l14.984 39.186a13.027 13.027 0 0 1-.578 10.606 199.398 199.398 0 0 0-13.499 33.386 12.994 12.994 0 0 1-7.132 8.108L15.202 223.82a13.01 13.01 0 0 0-7.701 11.898l.041 42.744a13.1 13.1 0 0 0 7.741 11.934l42.237 18.94a13.087 13.087 0 0 1 7.103 7.944 200.108 200.108 0 0 0 14.057 33.174 13.045 13.045 0 0 1 .698 10.793l-16.073 42.215a13.077 13.077 0 0 0 2.984 13.894L96.533 447.6a13.077 13.077 0 0 0 13.894 2.984l43.2-16.447a13.036 13.036 0 0 1 10.609.602 200.228 200.228 0 0 0 33.395 13.556 13.092 13.092 0 0 1 8.141 7.165l18.502 41.259a13.1 13.1 0 0 0 11.934 7.741l42.744.041a13.01 13.01 0 0 0 11.898-7.701l18.873-42.231a12.984 12.984 0 0 1 7.912-7.071 199.276 199.276 0 0 0 33.166-14 13.034 13.034 0 0 1 10.789-.674l42.245 16.153a13.035 13.035 0 0 0 13.877-2.948l30.206-30.205a13.034 13.034 0 0 0 2.948-13.877l-16.53-43.23a13.027 13.027 0 0 1 .578-10.606 199.398 199.398 0 0 0 13.499-33.386 12.99 12.99 0 0 1 7.132-8.108l41.255-18.436a13.01 13.01 0 0 0 7.701-11.898l-.042-42.746z" style="" fill="#ff6167" data-original="#ff6167"></path><path d="M504.459 233.537a13.1 13.1 0 0 0-7.741-11.934l-42.237-18.94a13.084 13.084 0 0 1-7.103-7.944 200.108 200.108 0 0 0-14.057-33.174 13.045 13.045 0 0 1-.698-10.793l16.073-42.215a13.077 13.077 0 0 0-2.984-13.894L415.467 64.4a13.077 13.077 0 0 0-13.894-2.984l-43.2 16.447a13.035 13.035 0 0 1-10.609-.602 200.228 200.228 0 0 0-33.395-13.556 13.092 13.092 0 0 1-8.141-7.165l-18.502-41.259a13.1 13.1 0 0 0-11.934-7.741l-42.744-.04a13.01 13.01 0 0 0-11.898 7.701l-18.873 42.231a12.984 12.984 0 0 1-7.912 7.071 199.276 199.276 0 0 0-33.166 14 13.033 13.033 0 0 1-10.789.674l-38.2-14.607a13.035 13.035 0 0 0-13.877 2.948L65.63 100.221a13.034 13.034 0 0 0-2.948 13.877l14.984 39.186a13.027 13.027 0 0 1-.578 10.606 199.398 199.398 0 0 0-13.499 33.386 12.994 12.994 0 0 1-7.132 8.108L15.202 223.82a13.01 13.01 0 0 0-7.701 11.898l.041 42.744a13.1 13.1 0 0 0 7.741 11.934l42.237 18.94a13.087 13.087 0 0 1 7.103 7.944 200.108 200.108 0 0 0 14.057 33.174 13.045 13.045 0 0 1 .698 10.793l-16.073 42.215a13.077 13.077 0 0 0 2.984 13.894L96.533 447.6a13.077 13.077 0 0 0 13.894 2.984l43.2-16.447a13.036 13.036 0 0 1 10.609.602 200.228 200.228 0 0 0 33.395 13.556 13.092 13.092 0 0 1 8.141 7.165l18.502 41.259a13.1 13.1 0 0 0 11.934 7.741l42.744.041a13.01 13.01 0 0 0 11.898-7.701l18.873-42.231a12.984 12.984 0 0 1 7.912-7.071 199.276 199.276 0 0 0 33.166-14 13.034 13.034 0 0 1 10.789-.674l42.245 16.153a13.035 13.035 0 0 0 13.877-2.948l30.206-30.205a13.034 13.034 0 0 0 2.948-13.877l-16.53-43.23a13.027 13.027 0 0 1 .578-10.606 199.398 199.398 0 0 0 13.499-33.386 12.99 12.99 0 0 1 7.132-8.108l41.255-18.436a13.01 13.01 0 0 0 7.701-11.898l-.042-42.746z" style="" fill="#63d9b6" data-original="#9ad4fe" class=""></path><path d="M339.879 248.417a4.422 4.422 0 0 0-2.614-4.029l-14.259-6.394a4.416 4.416 0 0 1-2.398-2.682 67.603 67.603 0 0 0-4.745-11.2 4.403 4.403 0 0 1-.236-3.644l5.426-14.252a4.414 4.414 0 0 0-1.007-4.69l-10.21-10.21a4.413 4.413 0 0 0-4.69-1.007l-14.584 5.553a4.404 4.404 0 0 1-3.582-.203 67.544 67.544 0 0 0-11.274-4.576 4.422 4.422 0 0 1-2.748-2.419l-6.246-13.929a4.42 4.42 0 0 0-4.029-2.613l-14.43-.014a4.391 4.391 0 0 0-4.017 2.6l-6.372 14.257a4.385 4.385 0 0 1-2.671 2.387 67.326 67.326 0 0 0-11.197 4.726 4.397 4.397 0 0 1-3.642.227l-12.897-4.931a4.401 4.401 0 0 0-4.685.995l-11.04 11.04a4.4 4.4 0 0 0-.995 4.685l5.059 13.229a4.401 4.401 0 0 1-.195 3.58 67.308 67.308 0 0 0-4.557 11.271 4.383 4.383 0 0 1-2.408 2.737l-13.928 6.224a4.393 4.393 0 0 0-2.6 4.017l.014 14.43a4.423 4.423 0 0 0 2.613 4.029l14.259 6.394a4.416 4.416 0 0 1 2.398 2.682 67.603 67.603 0 0 0 4.745 11.2 4.403 4.403 0 0 1 .236 3.644l-5.426 14.252a4.414 4.414 0 0 0 1.007 4.69l10.21 10.21a4.413 4.413 0 0 0 4.69 1.007l14.584-5.553a4.404 4.404 0 0 1 3.582.203 67.544 67.544 0 0 0 11.274 4.576 4.422 4.422 0 0 1 2.748 2.419l6.246 13.929a4.42 4.42 0 0 0 4.029 2.613l14.43.014a4.391 4.391 0 0 0 4.017-2.6l6.372-14.257a4.385 4.385 0 0 1 2.671-2.387 67.326 67.326 0 0 0 11.197-4.726 4.397 4.397 0 0 1 3.642-.227l14.262 5.453a4.401 4.401 0 0 0 4.685-.995l10.198-10.197a4.402 4.402 0 0 0 .995-4.685l-5.58-14.594a4.393 4.393 0 0 1 .195-3.58 67.308 67.308 0 0 0 4.557-11.271 4.383 4.383 0 0 1 2.408-2.737l13.928-6.224a4.393 4.393 0 0 0 2.6-4.017l-.015-14.43zM256 279.74c-13.111 0-23.741-10.629-23.741-23.74 0-13.111 10.629-23.741 23.741-23.741 13.111 0 23.741 10.629 23.741 23.741s-10.63 23.74-23.741 23.74z" style="" fill="#2470a9" data-original="#f6f3f5" class=""></path><path d="M504.459 233.537a13.1 13.1 0 0 0-7.741-11.934l-42.237-18.94a13.084 13.084 0 0 1-7.103-7.944 200.108 200.108 0 0 0-14.057-33.174 13.045 13.045 0 0 1-.698-10.793l16.073-42.215a13.077 13.077 0 0 0-2.984-13.894L415.467 64.4a13.077 13.077 0 0 0-13.894-2.984l-43.2 16.447a13.02 13.02 0 0 1-9.081.054C395.677 123.062 424.5 186.16 424.5 256c0 70.055-29 133.329-75.637 178.502.645-.335 1.294-.662 1.937-1.005a13.034 13.034 0 0 1 10.789-.674l42.245 16.153a13.035 13.035 0 0 0 13.877-2.948l30.206-30.205a13.034 13.034 0 0 0 2.948-13.877l-16.53-43.23a13.027 13.027 0 0 1 .578-10.606 199.398 199.398 0 0 0 13.499-33.386 12.99 12.99 0 0 1 7.132-8.108l41.255-18.436a13.01 13.01 0 0 0 7.701-11.898l-.041-42.745z" style="" fill="#63d9b6" data-original="#70c5ff" class=""></path><path d="m71.065 94.785-5.436 5.436a13.034 13.034 0 0 0-2.948 13.877l14.984 39.186a13.027 13.027 0 0 1-.578 10.606 199.398 199.398 0 0 0-13.499 33.386 12.994 12.994 0 0 1-7.132 8.108L15.201 223.82A13.01 13.01 0 0 0 7.5 235.718l.041 42.744a13.1 13.1 0 0 0 7.741 11.934l42.237 18.94a13.087 13.087 0 0 1 7.103 7.944 200.108 200.108 0 0 0 14.057 33.174 13.045 13.045 0 0 1 .698 10.793l-16.073 42.215a13.077 13.077 0 0 0 2.984 13.894L96.533 447.6a13.077 13.077 0 0 0 13.894 2.984l43.2-16.447a13.036 13.036 0 0 1 10.609.602 200.228 200.228 0 0 0 33.395 13.556 13.092 13.092 0 0 1 8.141 7.165l18.502 41.259a13.1 13.1 0 0 0 11.934 7.741l42.744.041a13.01 13.01 0 0 0 11.898-7.701l18.873-42.231a12.984 12.984 0 0 1 7.912-7.071 199.276 199.276 0 0 0 33.166-14 13.034 13.034 0 0 1 10.789-.674l42.245 16.153a13.035 13.035 0 0 0 13.877-2.948l30.206-30.205a13.034 13.034 0 0 0 2.948-13.877l-16.53-43.23a13.027 13.027 0 0 1 .578-10.606 199.398 199.398 0 0 0 13.499-33.386 12.99 12.99 0 0 1 7.132-8.108l41.255-18.436a13.01 13.01 0 0 0 7.701-11.898l-.041-42.744a13.1 13.1 0 0 0-7.741-11.934l-42.237-18.94a13.084 13.084 0 0 1-7.103-7.944 200.108 200.108 0 0 0-14.057-33.174 13.045 13.045 0 0 1-.698-10.793l16.073-42.215a13.077 13.077 0 0 0-2.984-13.894L415.467 64.4a13.077 13.077 0 0 0-13.894-2.984l-43.2 16.447a13.035 13.035 0 0 1-10.609-.602 200.228 200.228 0 0 0-33.395-13.556 13.092 13.092 0 0 1-8.141-7.165l-18.502-41.259a13.1 13.1 0 0 0-11.934-7.741l-42.744-.04a13.01 13.01 0 0 0-11.898 7.701l-18.873 42.231a12.984 12.984 0 0 1-7.912 7.071 199.276 199.276 0 0 0-33.166 14 13.033 13.033 0 0 1-10.789.674l-38.2-14.607a13.035 13.035 0 0 0-13.877 2.948l-6.21 6.21" style="stroke-width:15;stroke-linecap:round;stroke-linejoin:round;stroke-miterlimit:10;" fill="none" stroke="#23303d" stroke-width="15" stroke-linecap="round" stroke-linejoin="round" stroke-miterlimit="10" data-original="#000000" class=""></path><path d="M165.613 373.321C130.514 346.24 107.905 303.76 107.905 256c0-81.79 66.304-148.094 148.094-148.094M349.984 141.544c33.038 27.161 54.11 68.348 54.11 114.456 0 81.79-66.304 148.094-148.094 148.094" style="stroke-width:15;stroke-linecap:round;stroke-linejoin:round;stroke-miterlimit:10;" fill="none" stroke="#23303d" stroke-width="15" stroke-linecap="round" stroke-linejoin="round" stroke-miterlimit="10" data-original="#000000" class=""></path><path d="m350.296 180.569-.184-39.18 39.18.184M165.526 334.016l.184 39.181-39.181-.184M339.879 248.417a4.422 4.422 0 0 0-2.614-4.029l-14.259-6.394a4.416 4.416 0 0 1-2.398-2.682 67.603 67.603 0 0 0-4.745-11.2 4.403 4.403 0 0 1-.236-3.644l5.426-14.252a4.414 4.414 0 0 0-1.007-4.69l-10.21-10.21a4.413 4.413 0 0 0-4.69-1.007l-14.584 5.553a4.404 4.404 0 0 1-3.582-.203 67.579 67.579 0 0 0-11.274-4.576 4.422 4.422 0 0 1-2.748-2.419l-6.246-13.929a4.42 4.42 0 0 0-4.029-2.613l-14.43-.014a4.391 4.391 0 0 0-4.017 2.6l-6.372 14.257a4.385 4.385 0 0 1-2.671 2.387 67.326 67.326 0 0 0-11.197 4.726 4.397 4.397 0 0 1-3.642.227l-12.896-4.931a4.402 4.402 0 0 0-4.685.995l-11.04 11.04a4.4 4.4 0 0 0-.995 4.685l5.059 13.229a4.4 4.4 0 0 1-.195 3.581 67.308 67.308 0 0 0-4.557 11.271 4.383 4.383 0 0 1-2.408 2.737l-13.928 6.224a4.393 4.393 0 0 0-2.6 4.017l.014 14.43a4.423 4.423 0 0 0 2.613 4.029l14.259 6.394a4.416 4.416 0 0 1 2.398 2.682 67.603 67.603 0 0 0 4.745 11.2 4.403 4.403 0 0 1 .236 3.644l-5.426 14.252a4.414 4.414 0 0 0 1.007 4.69l10.21 10.21a4.413 4.413 0 0 0 4.69 1.007l14.584-5.553a4.404 4.404 0 0 1 3.582.203 67.669 67.669 0 0 0 11.274 4.577 4.422 4.422 0 0 1 2.748 2.419l6.246 13.929a4.42 4.42 0 0 0 4.029 2.613l14.43.014a4.391 4.391 0 0 0 4.017-2.6l6.372-14.257a4.385 4.385 0 0 1 2.671-2.387 67.326 67.326 0 0 0 11.197-4.726 4.397 4.397 0 0 1 3.642-.227l14.262 5.453a4.402 4.402 0 0 0 4.685-.995l10.198-10.197a4.402 4.402 0 0 0 .995-4.685l-5.58-14.594a4.397 4.397 0 0 1 .195-3.58 67.312 67.312 0 0 0 4.558-11.271 4.385 4.385 0 0 1 2.407-2.737l13.927-6.224a4.391 4.391 0 0 0 2.6-4.017l-.015-14.432zm-79.618 30.935a23.837 23.837 0 0 1-4.261.389c-13.111 0-23.741-10.629-23.741-23.74S242.888 232.26 256 232.26s23.741 10.629 23.741 23.741a23.9 23.9 0 0 1-.222 3.207" style="stroke-width:15;stroke-linecap:round;stroke-linejoin:round;stroke-miterlimit:10;" fill="none" stroke="#23303d" stroke-width="15" stroke-linecap="round" stroke-linejoin="round" stroke-miterlimit="10" data-original="#000000" class=""></path></g></svg>