<svg id="Layer_1" data-name="Layer 1" xmlns="http://www.w3.org/2000/svg" viewBox="0 0 250 250"><defs><style>.cls-1{fill:#2470a9;}.cls-2,.cls-4,.cls-5,.cls-6,.cls-7{fill:none;stroke-linecap:round;stroke-linejoin:round;stroke-width:2px;}.cls-2{stroke:#fff;}.cls-3{fill:#63d9b6;}.cls-4,.cls-5,.cls-6,.cls-7{stroke:#63d9b6;}.cls-5{stroke-dasharray:2.86 2.86;}.cls-6{stroke-dasharray:4.95 4.95;}.cls-7{stroke-dasharray:5 5;}</style></defs><rect class="cls-1" width="250" height="250"/><path class="cls-2" d="M146.9,55.43a3,3,0,1,1,3-3"/><path class="cls-2" d="M62.14,166.84a3,3,0,1,1,3-3"/><path class="cls-2" d="M105.16,129.55a3,3,0,1,1,3-3"/><line class="cls-2" x1="69.27" y1="61.17" x2="69.27" y2="70.85"/><line class="cls-2" x1="74.11" y1="66.01" x2="64.43" y2="66.01"/><line class="cls-2" x1="92.84" y1="182.18" x2="92.84" y2="191.86"/><line class="cls-2" x1="97.68" y1="187.02" x2="88" y2="187.02"/><circle class="cls-3" cx="64.43" cy="129.55" r="2.29"/><circle class="cls-3" cx="152.33" cy="160.97" r="2.29"/><circle class="cls-3" cx="164.84" cy="88.85" r="2.29"/><path class="cls-2" d="M192,167.73V154.22a3.35,3.35,0,0,0-3.36-3.36h-3.73a3.36,3.36,0,0,1-3.1-2.07v0a3.34,3.34,0,0,1,.72-3.66l2.64-2.64a3.36,3.36,0,0,0,0-4.75l-9.55-9.56a3.36,3.36,0,0,0-4.75,0l-2.64,2.64a3.34,3.34,0,0,1-3.66.73l0,0a3.35,3.35,0,0,1-2.08-3.1v-3.73a3.35,3.35,0,0,0-3.35-3.36H145.58a3.35,3.35,0,0,0-3.36,3.36v3.73a3.36,3.36,0,0,1-2.07,3.1l0,0a3.34,3.34,0,0,1-3.66-.73l-2.65-2.64a3.35,3.35,0,0,0-4.74,0l-9.56,9.56a3.36,3.36,0,0,0,0,4.75l2.64,2.64a3.34,3.34,0,0,1,.73,3.66l0,0a3.36,3.36,0,0,1-3.1,2.07H116a3.35,3.35,0,0,0-3.36,3.36v13.51a3.35,3.35,0,0,0,3.36,3.35h3.73a3.35,3.35,0,0,1,3.1,2.08l0,0a3.34,3.34,0,0,1-.73,3.66l-2.64,2.64a3.36,3.36,0,0,0,0,4.75l9.56,9.55a3.35,3.35,0,0,0,4.74,0l2.65-2.64a3.34,3.34,0,0,1,3.66-.72h0a3.36,3.36,0,0,1,2.07,3.1v3.74a3.35,3.35,0,0,0,3.36,3.35h13.51a3.35,3.35,0,0,0,3.35-3.35v-3.74a3.35,3.35,0,0,1,2.08-3.1h0a3.34,3.34,0,0,1,3.66.72l2.64,2.64a3.36,3.36,0,0,0,4.75,0l9.55-9.55a3.36,3.36,0,0,0,0-4.75l-2.64-2.64a3.34,3.34,0,0,1-.72-3.66v0a3.35,3.35,0,0,1,3.1-2.08h3.73A3.35,3.35,0,0,0,192,167.73Z"/><path class="cls-2" d="M192,167.73V154.22a3.35,3.35,0,0,0-3.36-3.36h-3.73a3.36,3.36,0,0,1-3.1-2.07v0a3.34,3.34,0,0,1,.72-3.66l2.64-2.64a3.36,3.36,0,0,0,0-4.75l-9.55-9.56a3.36,3.36,0,0,0-4.75,0l-2.64,2.64a3.34,3.34,0,0,1-3.66.73l0,0a3.35,3.35,0,0,1-2.08-3.1v-3.73a3.35,3.35,0,0,0-3.35-3.36H145.58a3.35,3.35,0,0,0-3.36,3.36v3.73a3.36,3.36,0,0,1-2.07,3.1l0,0a3.34,3.34,0,0,1-3.66-.73l-2.65-2.64a3.35,3.35,0,0,0-4.74,0l-9.56,9.56a3.36,3.36,0,0,0,0,4.75l2.64,2.64a3.34,3.34,0,0,1,.73,3.66l0,0a3.36,3.36,0,0,1-3.1,2.07H116a3.35,3.35,0,0,0-3.36,3.36v13.51a3.35,3.35,0,0,0,3.36,3.35h3.73a3.35,3.35,0,0,1,3.1,2.08l0,0a3.34,3.34,0,0,1-.73,3.66l-2.64,2.64a3.36,3.36,0,0,0,0,4.75l9.56,9.55a3.35,3.35,0,0,0,4.74,0l2.65-2.64a3.34,3.34,0,0,1,3.66-.72h0a3.36,3.36,0,0,1,2.07,3.1v3.74a3.35,3.35,0,0,0,3.36,3.35h13.51a3.35,3.35,0,0,0,3.35-3.35v-3.74a3.35,3.35,0,0,1,2.08-3.1h0a3.34,3.34,0,0,1,3.66.72l2.64,2.64a3.36,3.36,0,0,0,4.75,0l9.55-9.55a3.36,3.36,0,0,0,0-4.75l-2.64-2.64a3.34,3.34,0,0,1-.72-3.66v0a3.35,3.35,0,0,1,3.1-2.08h3.73A3.35,3.35,0,0,0,192,167.73Z"/><circle class="cls-2" cx="152.33" cy="160.97" r="24.63"/><circle class="cls-2" cx="152.33" cy="160.97" r="10.5"/><path class="cls-2" d="M74,79.36a16,16,0,0,1,6.49,1.38,29.53,29.53,0,0,1,59,1.18,30.5,30.5,0,0,1-.21,3.47,13,13,0,0,1,0,26.06H74a16,16,0,0,1,0-32.09Z"/><line class="cls-4" x1="105.16" y1="158.34" x2="102.66" y2="158.34"/><line class="cls-5" x1="99.81" y1="158.34" x2="95.53" y2="158.34"/><polyline class="cls-4" points="94.1 158.34 91.6 158.34 91.6 155.84"/><line class="cls-6" x1="91.6" y1="150.89" x2="91.6" y2="123.67"/><line class="cls-4" x1="91.6" y1="121.2" x2="91.6" y2="118.7"/><polyline class="cls-7" points="146.95 79.19 179.56 79.19 179.56 123.54"/></svg>