<svg id="Layer_1" data-name="Layer 1" xmlns="http://www.w3.org/2000/svg" viewBox="0 0 1956.65 399.1"><defs><style>.cls-1,.cls-13,.cls-15,.cls-2,.cls-22,.cls-23,.cls-24,.cls-5,.cls-6,.cls-7,.cls-8{fill:none;}.cls-1,.cls-2{stroke:#979797;}.cls-1,.cls-19,.cls-20,.cls-21,.cls-23,.cls-24,.cls-3,.cls-5,.cls-6,.cls-7,.cls-8{stroke-linecap:round;}.cls-1,.cls-19,.cls-20,.cls-21,.cls-23,.cls-24,.cls-3,.cls-5,.cls-6,.cls-8{stroke-linejoin:round;}.cls-1,.cls-2,.cls-5,.cls-6,.cls-7,.cls-8{stroke-width:2px;}.cls-10,.cls-12,.cls-19,.cls-20,.cls-21,.cls-3,.cls-9{fill:#fff;}.cls-3{stroke:#ff7680;}.cls-10,.cls-13,.cls-15,.cls-19,.cls-20,.cls-21,.cls-22,.cls-23,.cls-24,.cls-3,.cls-9{stroke-width:3px;}.cls-4{fill:#94f0ff;fill-opacity:0.1;}.cls-20,.cls-5,.cls-7{stroke:#63d9b6;}.cls-6{stroke:#96a2a6;}.cls-15,.cls-23,.cls-8{stroke:#2470a9;}.cls-22,.cls-9{stroke:#edeff0;}.cls-10,.cls-13,.cls-15,.cls-22,.cls-9{stroke-miterlimit:10;}.cls-10,.cls-13{stroke:#97a2a6;}.cls-11{fill:#edeff0;}.cls-14{fill:#2470a9;}.cls-16{fill:#ff7680;}.cls-17{fill:#63d9b6;}.cls-18{fill:#f7931e;}.cls-19{stroke:#4c5152;}.cls-21,.cls-24{stroke:#f7931e;}.cls-23{stroke-dasharray:5;}</style></defs><path id="Shape" class="cls-1" d="M-20,321H867.58q103.13,1.16,103.12-85t92-80.18h121.94m208.19,1,262.93.37h68.94q82.1,0,82.09,48.22t54.47,64.66h101.93"/><path id="Path-6" class="cls-1" d="M831.08,322.15q6.33,56.64-50.68,56.65H678.88"/><circle id="Oval-2" class="cls-2" cx="658.91" cy="378.66" r="19.44"/><path id="Path-6-2" data-name="Path-6" class="cls-1" d="M1555.88,100h101.53q57,0,50.68,56.65"/><circle id="Oval-2-2" data-name="Oval-2" class="cls-2" cx="1535.91" cy="100.09" r="19.44"/><path id="Path-6-3" data-name="Path-6" class="cls-3" d="M1599.7,188.54h-55.28q-31,0-27.6-30.85"/><circle id="Oval-2-3" data-name="Oval-2" class="cls-3" cx="1610.57" cy="188.47" r="10.58"/><ellipse id="Oval" class="cls-4" cx="1296.27" cy="199.05" rx="202.25" ry="199.05"/><g id="Icon-_-Plus-green" data-name="Icon-/-Plus-green"><line id="Line" class="cls-5" x1="1153.45" y1="44.7" x2="1153.45" y2="80.89"/><line id="Line-Copy" class="cls-5" x1="1134.69" y1="62.8" x2="1172.22" y2="62.8"/></g><g id="Icon-_-Plus-grey" data-name="Icon-/-Plus-grey"><line id="Line-2" data-name="Line" class="cls-6" x1="1461.23" y1="107" x2="1461.23" y2="124.43"/><line id="Line-Copy-2" data-name="Line-Copy" class="cls-6" x1="1451.84" y1="115.72" x2="1470.61" y2="115.72"/></g><g id="Icon-_-Plus-grey-2" data-name="Icon-/-Plus-grey"><line id="Line-3" data-name="Line" class="cls-6" x1="1114.9" y1="119.56" x2="1114.9" y2="136.99"/><line id="Line-Copy-3" data-name="Line-Copy" class="cls-6" x1="1105.51" y1="128.27" x2="1124.28" y2="128.27"/></g><g id="Icon-_-Plus-grey-3" data-name="Icon-/-Plus-grey"><line id="Line-4" data-name="Line" class="cls-6" x1="897.9" y1="229.55" x2="897.9" y2="246.97"/><line id="Line-Copy-4" data-name="Line-Copy" class="cls-6" x1="888.52" y1="238.26" x2="907.28" y2="238.26"/></g><g id="Icon-_-Circle-blue" data-name="Icon-/-Circle-blue"><ellipse id="Oval-9" class="cls-3" cx="1504.35" cy="204.51" rx="12.13" ry="11.7"/></g><g id="Icon-_-Circle-blue-2" data-name="Icon-/-Circle-blue"><ellipse id="Oval-9-2" data-name="Oval-9" class="cls-3" cx="1433.51" cy="39.48" rx="5.42" ry="5.22"/></g><g id="Icon-_-Star-green-" data-name="Icon-/-Star-green-"><path id="Path-7" class="cls-7" d="M1246.73,344.12q18.62.09,18.61-16.87"/><path id="Path-7-2" data-name="Path-7" class="cls-7" d="M1284.11,344.12q-18.61.09-18.61-16.87"/><path id="Path-7-Copy-2" class="cls-7" d="M1284.11,344.63c-.88-.08-1.52-.12-1.94-.13-14.66-.41-16.67,7.27-16.67,22.74"/><path id="Path-7-Copy-3" class="cls-7" d="M1246.73,344.63c.88-.08,1.52-.12,1.94-.13,14.66-.41,16.67,7.27,16.67,22.74"/></g><g id="Icon-_-Star-green--2" data-name="Icon-/-Star-green-"><path id="Path-7-3" data-name="Path-7" class="cls-3" d="M1065.85,202.48q12.12.06,12.11-11"/><path id="Path-7-4" data-name="Path-7" class="cls-3" d="M1090.18,202.48q-12.12.06-12.11-11"/><path id="Path-7-Copy-2-2" data-name="Path-7-Copy-2" class="cls-3" d="M1090.18,202.81l-1.26-.09c-9.55-.26-10.85,4.74-10.85,14.81"/><path id="Path-7-Copy-3-2" data-name="Path-7-Copy-3" class="cls-3" d="M1065.85,202.81l1.27-.09c9.54-.26,10.84,4.74,10.84,14.81"/></g><g id="Icon-_-Plus-blue" data-name="Icon-/-Plus-blue"><line id="Line-5" data-name="Line" class="cls-8" x1="1357.02" y1="355.86" x2="1357.02" y2="373.29"/><line id="Line-Copy-5" data-name="Line-Copy" class="cls-8" x1="1347.64" y1="364.57" x2="1366.4" y2="364.57"/></g><path class="cls-9" d="M1338.21,73.2a12.41,12.41,0,0,1,5.07,1.07,23.08,23.08,0,0,1,46.14.92,22.19,22.19,0,0,1-.17,2.72,10.18,10.18,0,0,1,0,20.36h-51a12.54,12.54,0,1,1,0-25.07Z"/><path class="cls-9" d="M1209.15,73.2a12.5,12.5,0,0,1,5.08,1.07,23.07,23.07,0,0,1,46.13.92,24.38,24.38,0,0,1-.16,2.72,10.18,10.18,0,0,1,0,20.36h-51a12.54,12.54,0,1,1,0-25.07Z"/><path class="cls-10" d="M1173,120.92h252.19a12.23,12.23,0,0,1,12.23,12.23V293.39a0,0,0,0,1,0,0H1160.81a0,0,0,0,1,0,0V133.15A12.23,12.23,0,0,1,1173,120.92Z"/><path class="cls-11" d="M1222.94,84.17h154.61a0,0,0,0,1,0,0V337.66a0,0,0,0,1,0,0H1222.94a2.23,2.23,0,0,1-2.23-2.23V86.4A2.23,2.23,0,0,1,1222.94,84.17Z" transform="translate(1510.05 -1088.22) rotate(90)"/><path class="cls-12" d="M1326.33,282.39v2.05c0,2.94-3.37,5.33-7.53,5.33h-39.34c-4.16,0-7.53-2.39-7.53-5.33v-2.05h-129.6c-3.86,0-7,2.21-7,4.94v4.9c0,5.43,6.22,9.84,13.89,9.84H1449c7.68,0,13.9-4.41,13.9-9.84v-4.9c0-2.73-3.13-4.94-7-4.94Z"/><path class="cls-11" d="M1449.6,295.92H1149.82c-7.67,0-13.89-4.41-13.89-9.84v-.71a3.71,3.71,0,0,0-.58,2v4.9c0,5.43,6.22,9.84,13.89,9.84H1449c7.68,0,13.9-4.41,13.9-9.84v-3.35C1461.21,293,1455.9,295.92,1449.6,295.92Z"/><path class="cls-13" d="M1326.33,282.39v2.05c0,2.94-3.37,5.33-7.53,5.33h-39.34c-4.16,0-7.53-2.39-7.53-5.33v-2.05h-129.6c-3.86,0-7,2.21-7,4.94v4.9c0,5.43,6.22,9.84,13.89,9.84H1449c7.68,0,13.9-4.41,13.9-9.84v-4.9c0-2.73-3.13-4.94-7-4.94Z"/><rect class="cls-11" x="1160.23" y="289.34" width="30.09" height="6.94" rx="3"/><path class="cls-10" d="M1265.16,55.77a17.26,17.26,0,0,1,7,1.48,31.84,31.84,0,0,1,63.66,1.27,33.12,33.12,0,0,1-.23,3.75,14.05,14.05,0,0,1,0,28.1h-70.39a17.3,17.3,0,0,1,0-34.6Z"/><circle class="cls-14" cx="1299.13" cy="86.02" r="7.61"/><rect class="cls-12" x="1182.89" y="106.97" width="232.49" height="152.32" rx="5.88"/><rect class="cls-15" x="1182.89" y="106.97" width="232.49" height="152.32" rx="5.88"/><line class="cls-15" x1="1415.38" y1="124.25" x2="1182.89" y2="124.25"/><circle class="cls-16" cx="1387.23" cy="116.02" r="1.78"/><circle class="cls-17" cx="1395.76" cy="116.02" r="1.78"/><circle class="cls-18" cx="1404.29" cy="116.02" r="1.78"/><rect class="cls-11" x="1192.39" y="132.76" width="214.96" height="117.48" rx="3.38"/><rect class="cls-12" x="1198.68" y="139.43" width="98.1" height="104.13" rx="3.38"/><line class="cls-19" x1="1210.87" y1="147.46" x2="1216.76" y2="147.46"/><line class="cls-19" x1="1210.87" y1="156.27" x2="1216.76" y2="156.27"/><line class="cls-19" x1="1210.87" y1="165.08" x2="1216.76" y2="165.08"/><line class="cls-19" x1="1210.87" y1="173.88" x2="1216.76" y2="173.88"/><line class="cls-19" x1="1210.87" y1="182.69" x2="1216.76" y2="182.69"/><line class="cls-19" x1="1210.87" y1="191.5" x2="1216.76" y2="191.5"/><line class="cls-19" x1="1210.87" y1="200.3" x2="1216.76" y2="200.3"/><line class="cls-19" x1="1210.87" y1="209.11" x2="1216.76" y2="209.11"/><line class="cls-19" x1="1210.87" y1="217.92" x2="1216.76" y2="217.92"/><line class="cls-19" x1="1210.87" y1="226.72" x2="1216.76" y2="226.72"/><line class="cls-19" x1="1210.87" y1="235.53" x2="1216.76" y2="235.53"/><line class="cls-20" x1="1221.22" y1="147.46" x2="1230.83" y2="147.46"/><line class="cls-20" x1="1221.22" y1="156.27" x2="1246.41" y2="156.27"/><line class="cls-21" x1="1221.22" y1="165.08" x2="1246.41" y2="165.08"/><line class="cls-3" x1="1252.11" y1="165.08" x2="1277.3" y2="165.08"/><line class="cls-21" x1="1252.11" y1="173.88" x2="1297.42" y2="173.88"/><line class="cls-21" x1="1252.11" y1="182.69" x2="1267.24" y2="182.69"/><line class="cls-21" x1="1252.11" y1="191.5" x2="1287.36" y2="191.5"/><line class="cls-3" x1="1252.11" y1="209.11" x2="1277.3" y2="209.11"/><line class="cls-21" x1="1252.11" y1="217.92" x2="1288.17" y2="217.92"/><line class="cls-21" x1="1252.11" y1="226.72" x2="1267.24" y2="226.72"/><line class="cls-21" x1="1236.8" y1="173.88" x2="1246.41" y2="173.88"/><line class="cls-21" x1="1236.8" y1="182.69" x2="1246.41" y2="182.69"/><line class="cls-21" x1="1236.8" y1="191.5" x2="1246.41" y2="191.5"/><line class="cls-20" x1="1221.22" y1="200.3" x2="1246.41" y2="200.3"/><line class="cls-21" x1="1221.22" y1="209.11" x2="1246.41" y2="209.11"/><line class="cls-21" x1="1236.8" y1="217.92" x2="1246.41" y2="217.92"/><line class="cls-21" x1="1236.8" y1="226.72" x2="1246.41" y2="226.72"/><path class="cls-12" d="M1479.9,290.56V272.17a4.58,4.58,0,0,0-4.57-4.58h-5.09a4.56,4.56,0,0,1-4.22-2.82l0,0a4.58,4.58,0,0,1,1-5l3.59-3.59a4.57,4.57,0,0,0,0-6.47l-13-13a4.57,4.57,0,0,0-6.46,0l-3.6,3.6a4.56,4.56,0,0,1-5,1l-.06,0a4.56,4.56,0,0,1-2.82-4.22v-5.09a4.58,4.58,0,0,0-4.57-4.57h-18.4a4.58,4.58,0,0,0-4.57,4.57V237a4.58,4.58,0,0,1-2.82,4.22l-.06,0a4.57,4.57,0,0,1-5-1l-3.59-3.6a4.59,4.59,0,0,0-6.47,0l-13,13a4.57,4.57,0,0,0,0,6.47l3.59,3.59a4.58,4.58,0,0,1,1,5l0,0a4.55,4.55,0,0,1-4.22,2.82h-5.08a4.57,4.57,0,0,0-4.57,4.58v18.39a4.56,4.56,0,0,0,4.57,4.57h5.08a4.57,4.57,0,0,1,4.22,2.82l0,.06a4.58,4.58,0,0,1-1,5l-3.59,3.59a4.57,4.57,0,0,0,0,6.47l13,13a4.59,4.59,0,0,0,6.47,0l3.59-3.6a4.58,4.58,0,0,1,5-1l.06,0a4.58,4.58,0,0,1,2.82,4.22v5.08a4.58,4.58,0,0,0,4.57,4.58h18.4a4.58,4.58,0,0,0,4.57-4.58v-5.08a4.56,4.56,0,0,1,2.82-4.22l.06,0a4.56,4.56,0,0,1,5,1l3.6,3.6a4.57,4.57,0,0,0,6.46,0l13-13a4.57,4.57,0,0,0,0-6.47L1467,303a4.58,4.58,0,0,1-1-5l0-.06a4.58,4.58,0,0,1,4.22-2.82h5.09A4.57,4.57,0,0,0,1479.9,290.56Z"/><path class="cls-11" d="M1433.51,230.86a4.56,4.56,0,0,0,2.82,4.22l.06,0a4.59,4.59,0,0,0,3.26.1v-3.29a4.58,4.58,0,0,0-4.57-4.57h-1.57Z"/><path class="cls-11" d="M1379.71,295.13a4.53,4.53,0,0,0-.09-3.26l0-.05a4.57,4.57,0,0,0-4.22-2.82h-3.52v1.56a4.56,4.56,0,0,0,4.57,4.57Z"/><path class="cls-11" d="M1464.44,243.53a4.57,4.57,0,0,1,0,6.47l-3.59,3.59a4.58,4.58,0,0,0-1,5l0,.05a4.57,4.57,0,0,0,4.22,2.82h1.8a4.7,4.7,0,0,1,1.09-1.72l3.59-3.59a4.57,4.57,0,0,0,0-6.47l-13-13h0Z"/><path class="cls-11" d="M1475.33,267.59h-1.57v16.83a4.58,4.58,0,0,1-4.57,4.58h-5.09a4.57,4.57,0,0,0-4.22,2.82l0,.05a4.58,4.58,0,0,0,1,5l3.59,3.59a4.57,4.57,0,0,1,0,6.47l-13,13a4.59,4.59,0,0,1-6.47,0l-3.6-3.6a4.56,4.56,0,0,0-5-1l-.06,0a4.56,4.56,0,0,0-2.82,4.22v5.08a4.58,4.58,0,0,1-4.57,4.58h-16.83v1.56a4.58,4.58,0,0,0,4.57,4.58h18.4a4.58,4.58,0,0,0,4.57-4.58v-5.08a4.56,4.56,0,0,1,2.82-4.22l.06,0a4.56,4.56,0,0,1,5,1l3.6,3.6a4.57,4.57,0,0,0,6.46,0l13-13a4.57,4.57,0,0,0,0-6.47L1467,303a4.58,4.58,0,0,1-1-5l0-.06a4.58,4.58,0,0,1,4.22-2.82h5.09a4.57,4.57,0,0,0,4.57-4.57V272.17A4.58,4.58,0,0,0,1475.33,267.59Z"/><path class="cls-11" d="M1406,319.59a4.56,4.56,0,0,0-2.82-4.22l-.06,0a4.56,4.56,0,0,0-5,1l-3.6,3.6a4.59,4.59,0,0,1-6.47,0l6.14,6.14a4.59,4.59,0,0,0,6.47,0l3.59-3.6a4.51,4.51,0,0,1,1.73-1.08Z"/><path class="cls-13" d="M1479.9,290.56V272.17a4.58,4.58,0,0,0-4.57-4.58h-5.09a4.56,4.56,0,0,1-4.22-2.82l0,0a4.58,4.58,0,0,1,1-5l3.59-3.59a4.57,4.57,0,0,0,0-6.47l-13-13a4.57,4.57,0,0,0-6.46,0l-3.6,3.6a4.56,4.56,0,0,1-5,1l-.06,0a4.56,4.56,0,0,1-2.82-4.22v-5.09a4.58,4.58,0,0,0-4.57-4.57h-18.4a4.58,4.58,0,0,0-4.57,4.57V237a4.58,4.58,0,0,1-2.82,4.22l-.06,0a4.57,4.57,0,0,1-5-1l-3.59-3.6a4.59,4.59,0,0,0-6.47,0l-13,13a4.57,4.57,0,0,0,0,6.47l3.59,3.59a4.58,4.58,0,0,1,1,5l0,0a4.55,4.55,0,0,1-4.22,2.82h-5.08a4.57,4.57,0,0,0-4.57,4.58v18.39a4.56,4.56,0,0,0,4.57,4.57h5.08a4.57,4.57,0,0,1,4.22,2.82l0,.06a4.58,4.58,0,0,1-1,5l-3.59,3.59a4.57,4.57,0,0,0,0,6.47l13,13a4.59,4.59,0,0,0,6.47,0l3.59-3.6a4.58,4.58,0,0,1,5-1l.06,0a4.58,4.58,0,0,1,2.82,4.22v5.08a4.58,4.58,0,0,0,4.57,4.58h18.4a4.58,4.58,0,0,0,4.57-4.58v-5.08a4.56,4.56,0,0,1,2.82-4.22l.06,0a4.56,4.56,0,0,1,5,1l3.6,3.6a4.57,4.57,0,0,0,6.46,0l13-13a4.57,4.57,0,0,0,0-6.47L1467,303a4.58,4.58,0,0,1-1-5l0-.06a4.58,4.58,0,0,1,4.22-2.82h5.09A4.57,4.57,0,0,0,1479.9,290.56Z"/><circle class="cls-22" cx="1425.88" cy="281.36" r="33.53"/><circle class="cls-11" cx="1422.28" cy="277.76" r="14.3"/><circle class="cls-10" cx="1425.88" cy="281.36" r="14.3"/><path class="cls-12" d="M1396.8,199.3V185.15a3.52,3.52,0,0,0-3.52-3.51h-3.91a3.53,3.53,0,0,1-3.25-2.17l0-.05a3.53,3.53,0,0,1,.76-3.83l2.77-2.77a3.52,3.52,0,0,0,0-5l-10-10a3.52,3.52,0,0,0-5,0l-2.76,2.77a3.53,3.53,0,0,1-3.84.76l0,0a3.5,3.5,0,0,1-2.17-3.25v-3.91a3.52,3.52,0,0,0-3.52-3.51h-14.15a3.51,3.51,0,0,0-3.51,3.51v3.91a3.51,3.51,0,0,1-2.17,3.25l0,0a3.52,3.52,0,0,1-3.83-.76l-2.77-2.77a3.52,3.52,0,0,0-5,0l-10,10a3.5,3.5,0,0,0,0,5l2.76,2.77a3.49,3.49,0,0,1,.76,3.83l0,.05a3.51,3.51,0,0,1-3.24,2.17h-3.91a3.51,3.51,0,0,0-3.52,3.51V199.3a3.52,3.52,0,0,0,3.52,3.52h3.91a3.49,3.49,0,0,1,3.24,2.17l0,0a3.49,3.49,0,0,1-.76,3.83l-2.76,2.77a3.5,3.5,0,0,0,0,5l10,10a3.52,3.52,0,0,0,5,0l2.77-2.77a3.52,3.52,0,0,1,3.83-.76l0,0a3.53,3.53,0,0,1,2.17,3.25v3.91a3.51,3.51,0,0,0,3.51,3.51h14.15a3.52,3.52,0,0,0,3.52-3.51v-3.91a3.52,3.52,0,0,1,2.17-3.25l0,0a3.53,3.53,0,0,1,3.84.76l2.76,2.77a3.52,3.52,0,0,0,5,0l10-10a3.52,3.52,0,0,0,0-5l-2.77-2.77a3.53,3.53,0,0,1-.76-3.83l0,0a3.52,3.52,0,0,1,3.25-2.17h3.91A3.53,3.53,0,0,0,1396.8,199.3Z"/><path class="cls-11" d="M1361.12,153.38a3.5,3.5,0,0,0,2.17,3.25l0,0a3.51,3.51,0,0,0,2.51.07v-2.53a3.52,3.52,0,0,0-3.52-3.51h-1.2Z"/><path class="cls-11" d="M1319.74,202.82a3.51,3.51,0,0,0-.07-2.51l0,0a3.5,3.5,0,0,0-3.25-2.17h-2.7v1.2a3.52,3.52,0,0,0,3.52,3.52Z"/><path class="cls-11" d="M1384.91,163.13a3.52,3.52,0,0,1,0,5l-2.77,2.77a3.51,3.51,0,0,0-.76,3.83l0,0a3.52,3.52,0,0,0,3.25,2.17H1386a3.47,3.47,0,0,1,.83-1.32l2.77-2.77a3.52,3.52,0,0,0,0-5l-10-10h0Z"/><path class="cls-11" d="M1393.28,181.64h-1.21v12.94a3.52,3.52,0,0,1-3.51,3.52h-3.91a3.52,3.52,0,0,0-3.25,2.17l0,0a3.51,3.51,0,0,0,.76,3.83l2.77,2.77a3.52,3.52,0,0,1,0,5l-10,10a3.52,3.52,0,0,1-5,0l-2.77-2.77a3.51,3.51,0,0,0-3.83-.76l0,0a3.5,3.5,0,0,0-2.17,3.25v3.91a3.52,3.52,0,0,1-3.52,3.51h-12.94v1.21a3.51,3.51,0,0,0,3.51,3.51h14.15a3.52,3.52,0,0,0,3.52-3.51v-3.91a3.52,3.52,0,0,1,2.17-3.25l0,0a3.53,3.53,0,0,1,3.84.76l2.76,2.77a3.52,3.52,0,0,0,5,0l10-10a3.52,3.52,0,0,0,0-5l-2.77-2.77a3.53,3.53,0,0,1-.76-3.83l0,0a3.52,3.52,0,0,1,3.25-2.17h3.91a3.53,3.53,0,0,0,3.52-3.52V185.15A3.52,3.52,0,0,0,1393.28,181.64Z"/><path class="cls-11" d="M1339.94,221.63a3.51,3.51,0,0,0-2.17-3.25l0,0a3.51,3.51,0,0,0-3.83.76l-2.77,2.77a3.52,3.52,0,0,1-5,0l4.72,4.72a3.52,3.52,0,0,0,5,0l2.77-2.77a3.51,3.51,0,0,1,1.33-.83Z"/><path class="cls-13" d="M1396.8,199.3V185.15a3.52,3.52,0,0,0-3.52-3.51h-3.91a3.53,3.53,0,0,1-3.25-2.17l0-.05a3.53,3.53,0,0,1,.76-3.83l2.77-2.77a3.52,3.52,0,0,0,0-5l-10-10a3.52,3.52,0,0,0-5,0l-2.76,2.77a3.53,3.53,0,0,1-3.84.76l0,0a3.5,3.5,0,0,1-2.17-3.25v-3.91a3.52,3.52,0,0,0-3.52-3.51h-14.15a3.51,3.51,0,0,0-3.51,3.51v3.91a3.51,3.51,0,0,1-2.17,3.25l0,0a3.52,3.52,0,0,1-3.83-.76l-2.77-2.77a3.52,3.52,0,0,0-5,0l-10,10a3.5,3.5,0,0,0,0,5l2.76,2.77a3.49,3.49,0,0,1,.76,3.83l0,.05a3.51,3.51,0,0,1-3.24,2.17h-3.91a3.51,3.51,0,0,0-3.52,3.51V199.3a3.52,3.52,0,0,0,3.52,3.52h3.91a3.49,3.49,0,0,1,3.24,2.17l0,0a3.49,3.49,0,0,1-.76,3.83l-2.76,2.77a3.5,3.5,0,0,0,0,5l10,10a3.52,3.52,0,0,0,5,0l2.77-2.77a3.52,3.52,0,0,1,3.83-.76l0,0a3.53,3.53,0,0,1,2.17,3.25v3.91a3.51,3.51,0,0,0,3.51,3.51h14.15a3.52,3.52,0,0,0,3.52-3.51v-3.91a3.52,3.52,0,0,1,2.17-3.25l0,0a3.53,3.53,0,0,1,3.84.76l2.76,2.77a3.52,3.52,0,0,0,5,0l10-10a3.52,3.52,0,0,0,0-5l-2.77-2.77a3.53,3.53,0,0,1-.76-3.83l0,0a3.52,3.52,0,0,1,3.25-2.17h3.91A3.53,3.53,0,0,0,1396.8,199.3Z"/><circle class="cls-22" cx="1355.25" cy="192.23" r="25.79"/><circle class="cls-11" cx="1352.48" cy="189.46" r="11"/><circle class="cls-10" cx="1355.25" cy="192.23" r="11"/><line class="cls-23" x1="1299.13" y1="93.63" x2="1299.13" y2="106.97"/><path class="cls-12" d="M1233.57,258.69a34.76,34.76,0,0,0,8.64-39.58l-26.84,24.19L1204,238.57l-3.51-11.81,26.84-24.18a34.75,34.75,0,0,0-50.4,39.9l-66.37,59.8a15.21,15.21,0,0,0-1.12,21.48h0a15.21,15.21,0,0,0,21.49,1.12l66.37-59.79A34.75,34.75,0,0,0,1233.57,258.69Z"/><path class="cls-11" d="M1242.21,219.11l-3.44,3.1a34.73,34.73,0,0,1-47.53,36.17l-66.37,59.8a15.22,15.22,0,0,1-18,1.77,14.88,14.88,0,0,0,2.51,3.81h0a15.21,15.21,0,0,0,21.49,1.12l66.37-59.79a34.75,34.75,0,0,0,44.93-46Z"/><path class="cls-11" d="M1194.43,220.05l3.51,11.82,4.62,1.91-2.09-7,26.84-24.18a34,34,0,0,0-9.48-3.61Z"/><path class="cls-24" d="M1233.57,258.69a34.76,34.76,0,0,0,8.64-39.58l-26.84,24.19L1204,238.57l-3.51-11.81,26.84-24.18a34.75,34.75,0,0,0-50.4,39.9l-66.37,59.8a15.21,15.21,0,0,0-1.12,21.48h0a15.21,15.21,0,0,0,21.49,1.12l66.37-59.79A34.75,34.75,0,0,0,1233.57,258.69Z"/><rect class="cls-11" x="1150.19" y="246.39" width="6.52" height="75.42" rx="3.26" transform="translate(592.47 -763.02) rotate(47.98)"/></svg>