<svg id="Layer_1" data-name="Layer 1" xmlns="http://www.w3.org/2000/svg" viewBox="0 0 500 500"><defs><style>.cls-1,.cls-11,.cls-12,.cls-13,.cls-14,.cls-2,.cls-4{fill:#fff;}.cls-1,.cls-15{stroke:#edeff0;}.cls-1,.cls-15,.cls-2,.cls-5,.cls-7{stroke-miterlimit:10;}.cls-1,.cls-11,.cls-12,.cls-13,.cls-14,.cls-15,.cls-16,.cls-17,.cls-2,.cls-5,.cls-7{stroke-width:3px;}.cls-2,.cls-5{stroke:#97a2a6;}.cls-3{fill:#edeff0;}.cls-15,.cls-16,.cls-17,.cls-5,.cls-7{fill:none;}.cls-6{fill:#2470a9;}.cls-16,.cls-7{stroke:#2470a9;}.cls-8{fill:#ff7680;}.cls-9{fill:#63d9b6;}.cls-10{fill:#f7931e;}.cls-11{stroke:#4c5152;}.cls-11,.cls-12,.cls-13,.cls-14,.cls-16,.cls-17{stroke-linecap:round;stroke-linejoin:round;}.cls-12{stroke:#63d9b6;}.cls-13,.cls-17{stroke:#f7931e;}.cls-14{stroke:#ff7680;}.cls-16{stroke-dasharray:5;}</style></defs><path class="cls-1" d="M311.23,138.57a19.34,19.34,0,0,1,7.87,1.67,35.79,35.79,0,0,1,71.56,1.43,34.36,34.36,0,0,1-.26,4.21,15.8,15.8,0,0,1,0,31.59H311.23a19.45,19.45,0,0,1,0-38.9Z"/><path class="cls-1" d="M111.05,138.57a19.3,19.3,0,0,1,7.87,1.67,35.79,35.79,0,0,1,71.56,1.43,36.47,36.47,0,0,1-.25,4.21,15.8,15.8,0,0,1,0,31.59H111.05a19.45,19.45,0,1,1,0-38.9Z"/><path class="cls-2" d="M123.91,219.12H376.09a12.23,12.23,0,0,1,12.23,12.23V391.58a0,0,0,0,1,0,0H111.68a0,0,0,0,1,0,0V231.34A12.23,12.23,0,0,1,123.91,219.12Z"/><path class="cls-3" d="M173.81,182.37H328.42a0,0,0,0,1,0,0V435.86a0,0,0,0,1,0,0H173.81a2.23,2.23,0,0,1-2.23-2.23v-249A2.23,2.23,0,0,1,173.81,182.37Z" transform="translate(559.11 59.11) rotate(90)"/><path class="cls-4" d="M277.2,380.59v2c0,2.95-3.37,5.34-7.53,5.34H230.33c-4.16,0-7.53-2.39-7.53-5.34v-2H93.19c-3.85,0-7,2.21-7,4.94v4.89c0,5.44,6.23,9.84,13.9,9.84H399.89c7.67,0,13.9-4.4,13.9-9.84v-4.89c0-2.73-3.13-4.94-7-4.94Z"/><path class="cls-3" d="M400.47,394.12H100.69c-7.68,0-13.9-4.41-13.9-9.85v-.71a3.74,3.74,0,0,0-.58,2v4.89c0,5.44,6.23,9.84,13.9,9.84H399.89c7.67,0,13.9-4.4,13.9-9.84v-3.35C412.08,391.14,406.77,394.12,400.47,394.12Z"/><path class="cls-5" d="M277.2,380.59v2c0,2.95-3.37,5.34-7.53,5.34H230.33c-4.16,0-7.53-2.39-7.53-5.34v-2H93.19c-3.85,0-7,2.21-7,4.94v4.89c0,5.44,6.23,9.84,13.9,9.84H399.89c7.67,0,13.9-4.4,13.9-9.84v-4.89c0-2.73-3.13-4.94-7-4.94Z"/><rect class="cls-3" x="111.1" y="387.53" width="30.09" height="6.94" rx="3"/><path class="cls-2" d="M197.93,111.54a26.75,26.75,0,0,1,10.86,2.3,49.39,49.39,0,0,1,98.74,2,48.6,48.6,0,0,1-.35,5.81,21.79,21.79,0,0,1-.07,43.58H197.93a26.84,26.84,0,0,1,0-53.67Z"/><circle class="cls-6" cx="250" cy="165.21" r="7.61"/><rect class="cls-4" x="133.76" y="205.17" width="232.49" height="152.32" rx="5.88"/><rect class="cls-7" x="133.76" y="205.17" width="232.49" height="152.32" rx="5.88"/><line class="cls-7" x1="366.24" y1="222.45" x2="133.76" y2="222.45"/><circle class="cls-8" cx="338.1" cy="214.21" r="1.78"/><circle class="cls-9" cx="346.63" cy="214.21" r="1.78"/><circle class="cls-10" cx="355.15" cy="214.21" r="1.78"/><rect class="cls-3" x="143.26" y="230.95" width="214.96" height="117.48" rx="3.38"/><rect class="cls-4" x="149.55" y="237.63" width="98.1" height="104.13" rx="3.38"/><line class="cls-11" x1="161.74" y1="245.66" x2="167.63" y2="245.66"/><line class="cls-11" x1="161.74" y1="254.47" x2="167.63" y2="254.47"/><line class="cls-11" x1="161.74" y1="263.27" x2="167.63" y2="263.27"/><line class="cls-11" x1="161.74" y1="272.08" x2="167.63" y2="272.08"/><line class="cls-11" x1="161.74" y1="280.89" x2="167.63" y2="280.89"/><line class="cls-11" x1="161.74" y1="289.69" x2="167.63" y2="289.69"/><line class="cls-11" x1="161.74" y1="298.5" x2="167.63" y2="298.5"/><line class="cls-11" x1="161.74" y1="307.31" x2="167.63" y2="307.31"/><line class="cls-11" x1="161.74" y1="316.11" x2="167.63" y2="316.11"/><line class="cls-11" x1="161.74" y1="324.92" x2="167.63" y2="324.92"/><line class="cls-11" x1="161.74" y1="333.73" x2="167.63" y2="333.73"/><line class="cls-12" x1="172.09" y1="245.66" x2="181.7" y2="245.66"/><line class="cls-12" x1="172.09" y1="254.47" x2="197.28" y2="254.47"/><line class="cls-13" x1="172.09" y1="263.27" x2="197.28" y2="263.27"/><line class="cls-14" x1="202.98" y1="263.27" x2="228.17" y2="263.27"/><line class="cls-13" x1="202.98" y1="272.08" x2="248.29" y2="272.08"/><line class="cls-13" x1="202.98" y1="280.89" x2="218.1" y2="280.89"/><line class="cls-13" x1="202.98" y1="289.69" x2="238.23" y2="289.69"/><line class="cls-14" x1="202.98" y1="307.31" x2="228.17" y2="307.31"/><line class="cls-13" x1="202.98" y1="316.11" x2="239.03" y2="316.11"/><line class="cls-13" x1="202.98" y1="324.92" x2="218.1" y2="324.92"/><line class="cls-13" x1="187.67" y1="272.08" x2="197.28" y2="272.08"/><line class="cls-13" x1="187.67" y1="280.89" x2="197.28" y2="280.89"/><line class="cls-13" x1="187.67" y1="289.69" x2="197.28" y2="289.69"/><line class="cls-12" x1="172.09" y1="298.5" x2="197.28" y2="298.5"/><line class="cls-13" x1="172.09" y1="307.31" x2="197.28" y2="307.31"/><line class="cls-13" x1="187.67" y1="316.11" x2="197.28" y2="316.11"/><line class="cls-13" x1="187.67" y1="324.92" x2="197.28" y2="324.92"/><path class="cls-4" d="M430.77,388.76v-18.4a4.58,4.58,0,0,0-4.58-4.57h-5.08a4.56,4.56,0,0,1-4.22-2.82l0-.06a4.55,4.55,0,0,1,1-5l3.6-3.6a4.59,4.59,0,0,0,0-6.47l-13-13a4.57,4.57,0,0,0-6.47,0l-3.59,3.59a4.58,4.58,0,0,1-5,1l-.05,0a4.55,4.55,0,0,1-2.82-4.22v-5.08a4.57,4.57,0,0,0-4.58-4.57H367.55a4.56,4.56,0,0,0-4.57,4.57v5.08a4.56,4.56,0,0,1-2.83,4.22l0,0a4.58,4.58,0,0,1-5-1l-3.59-3.59a4.57,4.57,0,0,0-6.47,0l-13,13a4.59,4.59,0,0,0,0,6.47l3.6,3.6a4.55,4.55,0,0,1,1,5l0,.06a4.56,4.56,0,0,1-4.22,2.82H327.3a4.58,4.58,0,0,0-4.58,4.57v18.4a4.58,4.58,0,0,0,4.58,4.57h5.08a4.56,4.56,0,0,1,4.22,2.82l0,.06a4.56,4.56,0,0,1-1,5l-3.6,3.6a4.57,4.57,0,0,0,0,6.46l13,13a4.57,4.57,0,0,0,6.47,0l3.59-3.59a4.58,4.58,0,0,1,5-1l0,0a4.58,4.58,0,0,1,2.83,4.22V429a4.57,4.57,0,0,0,4.57,4.57h18.39a4.58,4.58,0,0,0,4.58-4.57v-5.09a4.57,4.57,0,0,1,2.82-4.22l.05,0a4.58,4.58,0,0,1,5,1l3.59,3.59a4.57,4.57,0,0,0,6.47,0l13-13a4.57,4.57,0,0,0,0-6.46l-3.6-3.6a4.56,4.56,0,0,1-1-5l0-.06a4.56,4.56,0,0,1,4.22-2.82h5.08A4.58,4.58,0,0,0,430.77,388.76Z"/><path class="cls-3" d="M384.38,329.06a4.57,4.57,0,0,0,2.82,4.22l.05,0a4.56,4.56,0,0,0,3.27.09v-3.28a4.57,4.57,0,0,0-4.58-4.57h-1.56Z"/><path class="cls-3" d="M330.58,393.33a4.59,4.59,0,0,0-.09-3.26l0-.06a4.55,4.55,0,0,0-4.22-2.82h-3.52v1.57a4.58,4.58,0,0,0,4.58,4.57Z"/><path class="cls-3" d="M415.31,341.72a4.57,4.57,0,0,1,0,6.47l-3.6,3.6a4.57,4.57,0,0,0-1,5l0,.06a4.56,4.56,0,0,0,4.22,2.82h1.8a4.52,4.52,0,0,1,1.08-1.72l3.6-3.6a4.59,4.59,0,0,0,0-6.47l-13-13h0Z"/><path class="cls-3" d="M426.19,365.79h-1.56v16.83a4.58,4.58,0,0,1-4.57,4.57H415a4.56,4.56,0,0,0-4.22,2.82l0,.06a4.57,4.57,0,0,0,1,5l3.6,3.6a4.57,4.57,0,0,1,0,6.47l-13,13a4.56,4.56,0,0,1-6.46,0l-3.6-3.59a4.58,4.58,0,0,0-5-1l-.05,0a4.55,4.55,0,0,0-2.82,4.21v5.09a4.58,4.58,0,0,1-4.58,4.57H363V429a4.57,4.57,0,0,0,4.57,4.57h18.39a4.58,4.58,0,0,0,4.58-4.57v-5.09a4.57,4.57,0,0,1,2.82-4.22l.05,0a4.58,4.58,0,0,1,5,1l3.59,3.59a4.57,4.57,0,0,0,6.47,0l13-13a4.57,4.57,0,0,0,0-6.46l-3.6-3.6a4.56,4.56,0,0,1-1-5l0-.06a4.56,4.56,0,0,1,4.22-2.82h5.08a4.58,4.58,0,0,0,4.58-4.57v-18.4A4.58,4.58,0,0,0,426.19,365.79Z"/><path class="cls-3" d="M356.84,417.78a4.57,4.57,0,0,0-2.82-4.21l-.06,0a4.58,4.58,0,0,0-5,1l-3.59,3.59a4.57,4.57,0,0,1-6.47,0l6.14,6.14a4.57,4.57,0,0,0,6.47,0l3.59-3.59a4.51,4.51,0,0,1,1.73-1.08Z"/><path class="cls-5" d="M430.77,388.76v-18.4a4.58,4.58,0,0,0-4.58-4.57h-5.08a4.56,4.56,0,0,1-4.22-2.82l0-.06a4.55,4.55,0,0,1,1-5l3.6-3.6a4.59,4.59,0,0,0,0-6.47l-13-13a4.57,4.57,0,0,0-6.47,0l-3.59,3.59a4.58,4.58,0,0,1-5,1l-.05,0a4.55,4.55,0,0,1-2.82-4.22v-5.08a4.57,4.57,0,0,0-4.58-4.57H367.55a4.56,4.56,0,0,0-4.57,4.57v5.08a4.56,4.56,0,0,1-2.83,4.22l0,0a4.58,4.58,0,0,1-5-1l-3.59-3.59a4.57,4.57,0,0,0-6.47,0l-13,13a4.59,4.59,0,0,0,0,6.47l3.6,3.6a4.55,4.55,0,0,1,1,5l0,.06a4.56,4.56,0,0,1-4.22,2.82H327.3a4.58,4.58,0,0,0-4.58,4.57v18.4a4.58,4.58,0,0,0,4.58,4.57h5.08a4.56,4.56,0,0,1,4.22,2.82l0,.06a4.56,4.56,0,0,1-1,5l-3.6,3.6a4.57,4.57,0,0,0,0,6.46l13,13a4.57,4.57,0,0,0,6.47,0l3.59-3.59a4.58,4.58,0,0,1,5-1l0,0a4.58,4.58,0,0,1,2.83,4.22V429a4.57,4.57,0,0,0,4.57,4.57h18.39a4.58,4.58,0,0,0,4.58-4.57v-5.09a4.57,4.57,0,0,1,2.82-4.22l.05,0a4.58,4.58,0,0,1,5,1l3.59,3.59a4.57,4.57,0,0,0,6.47,0l13-13a4.57,4.57,0,0,0,0-6.46l-3.6-3.6a4.56,4.56,0,0,1-1-5l0-.06a4.56,4.56,0,0,1,4.22-2.82h5.08A4.58,4.58,0,0,0,430.77,388.76Z"/><circle class="cls-15" cx="376.75" cy="379.56" r="33.53"/><circle class="cls-3" cx="373.15" cy="375.96" r="14.3"/><circle class="cls-2" cx="376.75" cy="379.56" r="14.3"/><path class="cls-4" d="M347.66,297.49V283.35a3.52,3.52,0,0,0-3.51-3.52h-3.92a3.51,3.51,0,0,1-3.24-2.17l0,0a3.53,3.53,0,0,1,.76-3.84l2.76-2.76a3.51,3.51,0,0,0,0-5l-10-10a3.52,3.52,0,0,0-5,0l-2.77,2.77a3.51,3.51,0,0,1-3.83.75h-.05a3.53,3.53,0,0,1-2.17-3.25v-3.91a3.52,3.52,0,0,0-3.51-3.52H299a3.53,3.53,0,0,0-3.52,3.52v3.91a3.52,3.52,0,0,1-2.17,3.25h0a3.51,3.51,0,0,1-3.83-.75L286.71,256a3.52,3.52,0,0,0-5,0l-10,10a3.53,3.53,0,0,0,0,5l2.77,2.76a3.55,3.55,0,0,1,.76,3.84l0,0a3.53,3.53,0,0,1-3.25,2.17h-3.91a3.52,3.52,0,0,0-3.51,3.52v14.14a3.51,3.51,0,0,0,3.51,3.52H272a3.53,3.53,0,0,1,3.25,2.17l0,.05a3.53,3.53,0,0,1-.76,3.83l-2.77,2.76a3.53,3.53,0,0,0,0,5l10,10a3.5,3.5,0,0,0,5,0l2.77-2.76a3.49,3.49,0,0,1,3.83-.76l0,0a3.49,3.49,0,0,1,2.17,3.24v3.91A3.52,3.52,0,0,0,299,332h14.15a3.51,3.51,0,0,0,3.51-3.52v-3.91a3.51,3.51,0,0,1,2.17-3.24l.05,0a3.49,3.49,0,0,1,3.83.76l2.77,2.76a3.5,3.5,0,0,0,5,0l10-10a3.51,3.51,0,0,0,0-5l-2.76-2.76a3.52,3.52,0,0,1-.76-3.83l0-.05a3.51,3.51,0,0,1,3.24-2.17h3.92A3.51,3.51,0,0,0,347.66,297.49Z"/><path class="cls-3" d="M312,251.58a3.51,3.51,0,0,0,2.17,3.24l.05,0a3.54,3.54,0,0,0,2.5.08v-2.53a3.52,3.52,0,0,0-3.51-3.52H312Z"/><path class="cls-3" d="M270.61,301a3.56,3.56,0,0,0-.07-2.51l0,0a3.53,3.53,0,0,0-3.25-2.17h-2.7v1.2a3.51,3.51,0,0,0,3.51,3.52Z"/><path class="cls-3" d="M335.77,261.32a3.51,3.51,0,0,1,0,5L333,269.06a3.51,3.51,0,0,0-.76,3.84l0,0a3.51,3.51,0,0,0,3.24,2.17h1.39a3.59,3.59,0,0,1,.83-1.33l2.76-2.76a3.51,3.51,0,0,0,0-5l-10-10h0Z"/><path class="cls-3" d="M344.15,279.83h-1.21v12.94a3.51,3.51,0,0,1-3.52,3.52h-3.91a3.51,3.51,0,0,0-3.24,2.17l0,0a3.51,3.51,0,0,0,.76,3.84l2.76,2.76a3.51,3.51,0,0,1,0,5l-10,10a3.52,3.52,0,0,1-5,0L318,317.32a3.5,3.5,0,0,0-3.83-.76l-.05,0a3.51,3.51,0,0,0-2.17,3.24v3.91a3.52,3.52,0,0,1-3.51,3.52h-13v1.2A3.52,3.52,0,0,0,299,332h14.15a3.51,3.51,0,0,0,3.51-3.52v-3.91a3.51,3.51,0,0,1,2.17-3.24l.05,0a3.49,3.49,0,0,1,3.83.76l2.77,2.76a3.5,3.5,0,0,0,5,0l10-10a3.51,3.51,0,0,0,0-5l-2.76-2.76a3.52,3.52,0,0,1-.76-3.83l0-.05a3.51,3.51,0,0,1,3.24-2.17h3.92a3.51,3.51,0,0,0,3.51-3.52V283.35A3.52,3.52,0,0,0,344.15,279.83Z"/><path class="cls-3" d="M290.8,319.82a3.49,3.49,0,0,0-2.17-3.24l0,0a3.51,3.51,0,0,0-3.84.76L282,320.08a3.52,3.52,0,0,1-5,0l4.72,4.72a3.5,3.5,0,0,0,5,0l2.77-2.76a3.47,3.47,0,0,1,1.32-.83Z"/><path class="cls-5" d="M347.66,297.49V283.35a3.52,3.52,0,0,0-3.51-3.52h-3.92a3.51,3.51,0,0,1-3.24-2.17l0,0a3.53,3.53,0,0,1,.76-3.84l2.76-2.76a3.51,3.51,0,0,0,0-5l-10-10a3.52,3.52,0,0,0-5,0l-2.77,2.77a3.51,3.51,0,0,1-3.83.75h-.05a3.53,3.53,0,0,1-2.17-3.25v-3.91a3.52,3.52,0,0,0-3.51-3.52H299a3.53,3.53,0,0,0-3.52,3.52v3.91a3.52,3.52,0,0,1-2.17,3.25h0a3.51,3.51,0,0,1-3.83-.75L286.71,256a3.52,3.52,0,0,0-5,0l-10,10a3.53,3.53,0,0,0,0,5l2.77,2.76a3.55,3.55,0,0,1,.76,3.84l0,0a3.53,3.53,0,0,1-3.25,2.17h-3.91a3.52,3.52,0,0,0-3.51,3.52v14.14a3.51,3.51,0,0,0,3.51,3.52H272a3.53,3.53,0,0,1,3.25,2.17l0,.05a3.53,3.53,0,0,1-.76,3.83l-2.77,2.76a3.53,3.53,0,0,0,0,5l10,10a3.5,3.5,0,0,0,5,0l2.77-2.76a3.49,3.49,0,0,1,3.83-.76l0,0a3.49,3.49,0,0,1,2.17,3.24v3.91A3.52,3.52,0,0,0,299,332h14.15a3.51,3.51,0,0,0,3.51-3.52v-3.91a3.51,3.51,0,0,1,2.17-3.24l.05,0a3.49,3.49,0,0,1,3.83.76l2.77,2.76a3.5,3.5,0,0,0,5,0l10-10a3.51,3.51,0,0,0,0-5l-2.76-2.76a3.52,3.52,0,0,1-.76-3.83l0-.05a3.51,3.51,0,0,1,3.24-2.17h3.92A3.51,3.51,0,0,0,347.66,297.49Z"/><circle class="cls-15" cx="306.11" cy="290.42" r="25.79"/><circle class="cls-3" cx="303.35" cy="287.65" r="11"/><circle class="cls-2" cx="306.11" cy="290.42" r="11"/><line class="cls-16" x1="250" y1="172.83" x2="250" y2="205.17"/><path class="cls-4" d="M184.43,356.89a34.75,34.75,0,0,0,8.65-39.58l-26.84,24.18-11.39-4.72L151.34,325l26.84-24.19a34.75,34.75,0,0,0-50.4,39.91L61.41,400.47A15.22,15.22,0,0,0,60.29,422h0a15.22,15.22,0,0,0,21.49,1.12l66.37-59.79A34.75,34.75,0,0,0,184.43,356.89Z"/><path class="cls-3" d="M193.08,317.31l-3.44,3.1a34.74,34.74,0,0,1-47.54,36.17L75.74,416.37a15.22,15.22,0,0,1-18,1.78A15.05,15.05,0,0,0,60.29,422h0a15.22,15.22,0,0,0,21.49,1.12l66.37-59.79a34.75,34.75,0,0,0,44.93-46Z"/><path class="cls-3" d="M145.29,318.25l3.52,11.81,4.62,1.92-2.09-7,26.84-24.19a34.67,34.67,0,0,0-9.48-3.61Z"/><path class="cls-17" d="M184.43,356.89a34.75,34.75,0,0,0,8.65-39.58l-26.84,24.18-11.39-4.72L151.34,325l26.84-24.19a34.75,34.75,0,0,0-50.4,39.91L61.41,400.47A15.22,15.22,0,0,0,60.29,422h0a15.22,15.22,0,0,0,21.49,1.12l66.37-59.79A34.75,34.75,0,0,0,184.43,356.89Z"/><rect class="cls-3" x="101.06" y="344.58" width="6.52" height="75.42" rx="3.26" transform="translate(318.52 48.9) rotate(47.98)"/></svg>