<svg xmlns="http://www.w3.org/2000/svg" version="1.1" xmlns:xlink="http://www.w3.org/1999/xlink" xmlns:svgjs="http://svgjs.com/svgjs" width="512" height="512" x="0" y="0" viewBox="0 0 682.66669 682.66669" style="enable-background:new 0 0 512 512" xml:space="preserve" class=""><g transform="matrix(0.6399999999999999,0,0,0.6399999999999999,122.88001739501988,122.87994117736869)"><defs id="defs13"><clipPath clipPathUnits="userSpaceOnUse" id="clipPath23"><path d="M 0,512 H 512 V 0 H 0 Z" id="path21" fill="#23303d" data-original="#000000" class=""></path></clipPath></defs><g id="g15" transform="matrix(1.3333333,0,0,-1.3333333,0,682.66667)"><g id="g17"><g id="g19" clip-path="url(#clipPath23)"><g id="g25" transform="translate(318.1382,256.5132)"><path d="m 0,0 h -203.553 c -9.164,0 -16.592,7.429 -16.592,16.592 v 8.344 c 0,9.163 7.428,16.592 16.592,16.592 H 0 c 9.164,0 16.592,-7.429 16.592,-16.592 V 16.592 C 16.592,7.429 9.164,0 0,0" style="fill-opacity:1;fill-rule:nonzero;stroke:none" id="path27" fill="#e09932" data-original="#fec165" class=""></path></g><g id="g29" transform="translate(318.1382,173.4585)"><path d="m 0,0 h -203.553 c -9.164,0 -16.592,7.429 -16.592,16.592 v 8.344 c 0,9.163 7.428,16.591 16.592,16.591 H 0 c 9.164,0 16.592,-7.428 16.592,-16.591 V 16.592 C 16.592,7.429 9.164,0 0,0" style="fill-opacity:1;fill-rule:nonzero;stroke:none" id="path31" fill="#e09932" data-original="#fec165" class=""></path></g><g id="g33" transform="translate(318.1382,90.4038)"><path d="m 0,0 h -203.553 c -9.164,0 -16.592,7.428 -16.592,16.592 v 8.344 c 0,9.163 7.428,16.591 16.592,16.591 H 0 c 9.164,0 16.592,-7.428 16.592,-16.591 V 16.592 C 16.592,7.428 9.164,0 0,0" style="fill-opacity:1;fill-rule:nonzero;stroke:none" id="path35" fill="#e09932" data-original="#fec165" class=""></path></g><g id="g37" transform="translate(318.1382,7.3491)"><path d="m 0,0 h -203.553 c -9.164,0 -16.592,7.428 -16.592,16.592 v 8.344 c 0,9.163 7.428,16.591 16.592,16.591 H 0 c 9.164,0 16.592,-7.428 16.592,-16.591 V 16.592 C 16.592,7.428 9.164,0 0,0" style="fill-opacity:1;fill-rule:nonzero;stroke:none" id="path39" fill="#e09932" data-original="#fec165" class=""></path></g><g id="g41" transform="translate(318.1382,298.041)"><path d="m 0,0 h -203.553 c -9.164,0 -16.592,7.428 -16.592,16.592 v 8.344 c 0,9.163 7.428,16.591 16.592,16.591 H 0 c 9.164,0 16.592,-7.428 16.592,-16.591 V 16.592 C 16.592,7.428 9.164,0 0,0" style="fill-opacity:1;fill-rule:nonzero;stroke:none" id="path43" fill="#fef056" data-original="#fef056" class=""></path></g><g id="g45" transform="translate(318.1382,214.9858)"><path d="m 0,0 h -203.553 c -9.164,0 -16.592,7.429 -16.592,16.592 v 8.344 c 0,9.163 7.428,16.591 16.592,16.591 H 0 c 9.164,0 16.592,-7.428 16.592,-16.591 V 16.592 C 16.592,7.429 9.164,0 0,0" style="fill-opacity:1;fill-rule:nonzero;stroke:none" id="path47" fill="#fef056" data-original="#fef056" class=""></path></g><g id="g49" transform="translate(318.1382,131.9312)"><path d="m 0,0 h -203.553 c -9.164,0 -16.592,7.428 -16.592,16.592 v 8.344 c 0,9.163 7.428,16.591 16.592,16.591 H 0 c 9.164,0 16.592,-7.428 16.592,-16.591 V 16.592 C 16.592,7.428 9.164,0 0,0" style="fill-opacity:1;fill-rule:nonzero;stroke:none" id="path51" fill="#fef056" data-original="#fef056" class=""></path></g><g id="g53" transform="translate(318.1382,48.8765)"><path d="m 0,0 h -203.553 c -9.164,0 -16.592,7.428 -16.592,16.592 v 8.344 c 0,9.163 7.428,16.591 16.592,16.591 H 0 c 9.164,0 16.592,-7.428 16.592,-16.591 V 16.592 C 16.592,7.428 9.164,0 0,0" style="fill-opacity:1;fill-rule:nonzero;stroke:none" id="path55" fill="#fef056" data-original="#fef056" class=""></path></g><g id="g57" transform="translate(238.0449,115.3442)"><path d="m 0,0 v -8.35 c 0,-9.16 7.43,-16.59 16.59,-16.59 h 19.32 c -9.16,0 -16.59,7.43 -16.59,16.59 V 0 c 0,9.16 7.43,16.59 16.59,16.59 H 16.59 C 7.43,16.59 0,9.16 0,0" style="fill-opacity:1;fill-rule:nonzero;stroke:none" id="path59" fill="#e09932" data-original="#fdb541" class=""></path></g><g id="g61" transform="translate(238.0449,32.2842)"><path d="m 0,0 v -8.34 c 0,-9.17 7.43,-16.6 16.59,-16.6 h 19.32 c -9.16,0 -16.59,7.43 -16.59,16.6 V 0 c 0,9.16 7.43,16.59 16.59,16.59 H 16.59 C 7.43,16.59 0,9.16 0,0" style="fill-opacity:1;fill-rule:nonzero;stroke:none" id="path63" fill="#e09932" data-original="#fdb541" class=""></path></g><g id="g65" transform="translate(334.7285,322.9741)"><path d="m 0,0 v -8.34 c 0,-9.16 -7.43,-16.59 -16.59,-16.59 h -19.32 c 9.16,0 16.59,7.43 16.59,16.59 V 0 c 0,9.17 -7.43,16.59 -16.59,16.59 h 19.32 C -7.43,16.59 0,9.17 0,0" style="fill-opacity:1;fill-rule:nonzero;stroke:none" id="path67" fill="#fee903" data-original="#fee903" class=""></path></g><g id="g69" transform="translate(334.7285,281.4541)"><path d="m 0,0 v -8.35 c 0,-9.16 -7.43,-16.59 -16.59,-16.59 h -19.32 c 9.16,0 16.59,7.43 16.59,16.59 V 0 c 0,9.16 -7.43,16.59 -16.59,16.59 h 19.32 C -7.43,16.59 0,9.16 0,0" style="fill-opacity:1;fill-rule:nonzero;stroke:none" id="path71" fill="#e09932" data-original="#fdb541" class=""></path></g><g id="g73" transform="translate(334.7285,198.394)"><path d="m 0,0 v -8.34 c 0,-9.17 -7.43,-16.6 -16.59,-16.6 h -19.32 c 9.16,0 16.59,7.43 16.59,16.6 V 0 c 0,9.16 -7.43,16.59 -16.59,16.59 h 19.32 C -7.43,16.59 0,9.16 0,0" style="fill-opacity:1;fill-rule:nonzero;stroke:none" id="path75" fill="#e09932" data-original="#fdb541" class=""></path></g><g id="g77" transform="translate(334.7285,239.9238)"><path d="m 0,0 v -8.35 c 0,-9.16 -7.43,-16.59 -16.59,-16.59 h -19.32 c 9.16,0 16.59,7.43 16.59,16.59 V 0 c 0,9.16 -7.43,16.59 -16.59,16.59 h 19.32 C -7.43,16.59 0,9.16 0,0" style="fill-opacity:1;fill-rule:nonzero;stroke:none" id="path79" fill="#fee903" data-original="#fee903" class=""></path></g><g id="g81" transform="translate(334.7285,156.8638)"><path d="m 0,0 v -8.34 c 0,-9.16 -7.43,-16.59 -16.59,-16.59 h -19.32 c 9.16,0 16.59,7.43 16.59,16.59 V 0 c 0,9.17 -7.43,16.59 -16.59,16.59 h 19.32 C -7.43,16.59 0,9.17 0,0" style="fill-opacity:1;fill-rule:nonzero;stroke:none" id="path83" fill="#fee903" data-original="#fee903" class=""></path></g><g id="g85" transform="translate(238.0449,73.814)"><path d="m 0,0 v -8.35 c 0,-9.16 7.43,-16.59 16.59,-16.59 h 19.32 c -9.16,0 -16.59,7.43 -16.59,16.59 V 0 c 0,9.16 7.43,16.59 16.59,16.59 H 16.59 C 7.43,16.59 0,9.16 0,0" style="fill-opacity:1;fill-rule:nonzero;stroke:none" id="path87" fill="#fee903" data-original="#fee903" class=""></path></g><g id="g89" transform="translate(318.1382,298.041)"><path d="m 0,0 h -203.553 c -9.164,0 -16.592,7.428 -16.592,16.592 v 8.344 c 0,9.163 7.428,16.591 16.592,16.591 H 0 c 9.164,0 16.592,-7.428 16.592,-16.591 V 16.592 C 16.592,7.428 9.164,0 0,0 Z" style="stroke-width:15;stroke-linecap:round;stroke-linejoin:round;stroke-miterlimit:10;stroke-dasharray:none;stroke-opacity:1" id="path91" fill="none" stroke="#23303d" stroke-width="15" stroke-linecap="round" stroke-linejoin="round" stroke-miterlimit="10" stroke-dasharray="none" stroke-opacity="" data-original="#000000" class=""></path></g><g id="g93" transform="translate(318.1382,256.5132)"><path d="m 0,0 h -203.553 c -9.164,0 -16.592,7.429 -16.592,16.592 v 8.344 c 0,9.163 7.428,16.592 16.592,16.592 H 0 c 9.164,0 16.592,-7.429 16.592,-16.592 V 16.592 C 16.592,7.429 9.164,0 0,0 Z" style="stroke-width:15;stroke-linecap:round;stroke-linejoin:round;stroke-miterlimit:10;stroke-dasharray:none;stroke-opacity:1" id="path95" fill="none" stroke="#23303d" stroke-width="15" stroke-linecap="round" stroke-linejoin="round" stroke-miterlimit="10" stroke-dasharray="none" stroke-opacity="" data-original="#000000" class=""></path></g><g id="g97" transform="translate(318.1382,214.9858)"><path d="m 0,0 h -203.553 c -9.164,0 -16.592,7.429 -16.592,16.592 v 8.344 c 0,9.163 7.428,16.591 16.592,16.591 H 0 c 9.164,0 16.592,-7.428 16.592,-16.591 V 16.592 C 16.592,7.429 9.164,0 0,0 Z" style="stroke-width:15;stroke-linecap:round;stroke-linejoin:round;stroke-miterlimit:10;stroke-dasharray:none;stroke-opacity:1" id="path99" fill="none" stroke="#23303d" stroke-width="15" stroke-linecap="round" stroke-linejoin="round" stroke-miterlimit="10" stroke-dasharray="none" stroke-opacity="" data-original="#000000" class=""></path></g><g id="g101" transform="translate(318.1382,173.4585)"><path d="m 0,0 h -203.553 c -9.164,0 -16.592,7.429 -16.592,16.592 v 8.344 c 0,9.163 7.428,16.591 16.592,16.591 H 0 c 9.164,0 16.592,-7.428 16.592,-16.591 V 16.592 C 16.592,7.429 9.164,0 0,0 Z" style="stroke-width:15;stroke-linecap:round;stroke-linejoin:round;stroke-miterlimit:10;stroke-dasharray:none;stroke-opacity:1" id="path103" fill="none" stroke="#23303d" stroke-width="15" stroke-linecap="round" stroke-linejoin="round" stroke-miterlimit="10" stroke-dasharray="none" stroke-opacity="" data-original="#000000" class=""></path></g><g id="g105" transform="translate(318.1382,131.9312)"><path d="m 0,0 h -203.553 c -9.164,0 -16.592,7.428 -16.592,16.592 v 8.344 c 0,9.163 7.428,16.591 16.592,16.591 H 0 c 9.164,0 16.592,-7.428 16.592,-16.591 V 16.592 C 16.592,7.428 9.164,0 0,0 Z" style="stroke-width:15;stroke-linecap:round;stroke-linejoin:round;stroke-miterlimit:10;stroke-dasharray:none;stroke-opacity:1" id="path107" fill="none" stroke="#23303d" stroke-width="15" stroke-linecap="round" stroke-linejoin="round" stroke-miterlimit="10" stroke-dasharray="none" stroke-opacity="" data-original="#000000" class=""></path></g><g id="g109" transform="translate(318.1382,90.4038)"><path d="m 0,0 h -203.553 c -9.164,0 -16.592,7.428 -16.592,16.592 v 8.344 c 0,9.163 7.428,16.591 16.592,16.591 H 0 c 9.164,0 16.592,-7.428 16.592,-16.591 V 16.592 C 16.592,7.428 9.164,0 0,0 Z" style="stroke-width:15;stroke-linecap:round;stroke-linejoin:round;stroke-miterlimit:10;stroke-dasharray:none;stroke-opacity:1" id="path111" fill="none" stroke="#23303d" stroke-width="15" stroke-linecap="round" stroke-linejoin="round" stroke-miterlimit="10" stroke-dasharray="none" stroke-opacity="" data-original="#000000" class=""></path></g><g id="g113" transform="translate(318.1382,48.8765)"><path d="m 0,0 h -203.553 c -9.164,0 -16.592,7.428 -16.592,16.592 v 8.344 c 0,9.163 7.428,16.591 16.592,16.591 H 0 c 9.164,0 16.592,-7.428 16.592,-16.591 V 16.592 C 16.592,7.428 9.164,0 0,0 Z" style="stroke-width:15;stroke-linecap:round;stroke-linejoin:round;stroke-miterlimit:10;stroke-dasharray:none;stroke-opacity:1" id="path115" fill="none" stroke="#23303d" stroke-width="15" stroke-linecap="round" stroke-linejoin="round" stroke-miterlimit="10" stroke-dasharray="none" stroke-opacity="" data-original="#000000" class=""></path></g><g id="g117" transform="translate(318.1382,7.3491)"><path d="m 0,0 h -203.553 c -9.164,0 -16.592,7.428 -16.592,16.592 v 8.344 c 0,9.163 7.428,16.591 16.592,16.591 H 0 c 9.164,0 16.592,-7.428 16.592,-16.591 V 16.592 C 16.592,7.428 9.164,0 0,0 Z" style="stroke-width:15;stroke-linecap:round;stroke-linejoin:round;stroke-miterlimit:10;stroke-dasharray:none;stroke-opacity:1" id="path119" fill="none" stroke="#23303d" stroke-width="15" stroke-linecap="round" stroke-linejoin="round" stroke-miterlimit="10" stroke-dasharray="none" stroke-opacity="" data-original="#000000" class=""></path></g><g id="g121" transform="translate(240.4131,394.5117)"><path d="m 0,0 c 0,-60.833 -49.314,-110.147 -110.147,-110.147 -60.833,0 -110.147,49.314 -110.147,110.147 0,60.833 49.314,110.147 110.147,110.147 C -49.314,110.147 0,60.833 0,0" style="fill-opacity:1;fill-rule:nonzero;stroke:none" id="path123" fill="#63d9b6" data-original="#fd8087" class=""></path></g><g id="g125" transform="translate(240.4175,394.5112)"><path d="m 0,0 c 0,-60.833 -49.32,-110.143 -110.153,-110.143 -21.455,0 -41.474,6.134 -58.403,16.749 12.259,-4.716 25.577,-7.297 39.5,-7.297 60.832,0 110.152,49.311 110.152,110.143 0,39.377 -20.662,73.933 -51.74,93.394 C -29.33,86.967 0,46.91 0,0" style="fill-opacity:1;fill-rule:nonzero;stroke:none" id="path127" fill="#63d9b6" data-original="#fe646f" class=""></path></g><g id="g129" transform="translate(78.4785,491.75)"><path d="m 0,0 c 15.438,8.239 33.067,12.909 51.787,12.909 60.833,0 110.148,-49.315 110.148,-110.147 0,-60.833 -49.315,-110.147 -110.148,-110.147 -60.832,0 -110.147,49.314 -110.147,110.147 0,29.425 11.539,56.156 30.339,75.914" style="stroke-width:15;stroke-linecap:round;stroke-linejoin:round;stroke-miterlimit:10;stroke-dasharray:none;stroke-opacity:1" id="path131" fill="none" stroke="#23303d" stroke-width="15" stroke-linecap="round" stroke-linejoin="round" stroke-miterlimit="10" stroke-dasharray="none" stroke-opacity="" data-original="#000000" class=""></path></g><g id="g133" transform="translate(130.2656,452.8916)"><path d="M 0,0 V -116.759" style="stroke-width:15;stroke-linecap:round;stroke-linejoin:round;stroke-miterlimit:10;stroke-dasharray:none;stroke-opacity:1" id="path135" fill="none" stroke="#23303d" stroke-width="15" stroke-linecap="round" stroke-linejoin="round" stroke-miterlimit="10" stroke-dasharray="none" stroke-opacity="" data-original="#000000" class=""></path></g><g id="g137" transform="translate(83.9697,391.4951)"><path d="M 0,0 46.296,-55.363 92.592,0" style="stroke-width:15;stroke-linecap:round;stroke-linejoin:round;stroke-miterlimit:10;stroke-dasharray:none;stroke-opacity:1" id="path139" fill="none" stroke="#23303d" stroke-width="15" stroke-linecap="round" stroke-linejoin="round" stroke-miterlimit="10" stroke-dasharray="none" stroke-opacity="" data-original="#000000" class=""></path></g><g id="g141" transform="translate(475.2896,90.4038)"><path d="m 0,0 h -203.554 c -9.163,0 -16.592,7.428 -16.592,16.592 v 8.344 c 0,9.163 7.429,16.591 16.592,16.591 H 0 c 9.163,0 16.592,-7.428 16.592,-16.591 V 16.592 C 16.592,7.428 9.163,0 0,0" style="fill-opacity:1;fill-rule:nonzero;stroke:none" id="path143" fill="#fef056" data-original="#fef056" class=""></path></g><g id="g145" transform="translate(475.2896,7.3491)"><path d="m 0,0 h -203.554 c -9.163,0 -16.592,7.428 -16.592,16.592 v 8.344 c 0,9.163 7.429,16.591 16.592,16.591 H 0 c 9.163,0 16.592,-7.428 16.592,-16.591 V 16.592 C 16.592,7.428 9.163,0 0,0" style="fill-opacity:1;fill-rule:nonzero;stroke:none" id="path147" fill="#fef056" data-original="#fef056" class=""></path></g><g id="g149" transform="translate(475.2896,48.8765)"><path d="m 0,0 h -203.554 c -9.163,0 -16.592,7.428 -16.592,16.592 v 8.344 c 0,9.163 7.429,16.591 16.592,16.591 H 0 c 9.163,0 16.592,-7.428 16.592,-16.591 V 16.592 C 16.592,7.428 9.163,0 0,0" style="fill-opacity:1;fill-rule:nonzero;stroke:none" id="path151" fill="#e09932" data-original="#fec165" class=""></path></g><g id="g153" transform="translate(491.8813,115.3413)"><path d="m 0,0 v -8.35 c 0,-9.16 -7.43,-16.59 -16.59,-16.59 h -19.32 c 9.16,0 16.59,7.43 16.59,16.59 V 0 c 0,9.16 -7.43,16.59 -16.59,16.59 h 19.32 C -7.43,16.59 0,9.16 0,0" style="fill-opacity:1;fill-rule:nonzero;stroke:none" id="path155" fill="#fee903" data-original="#fee903" class=""></path></g><g id="g157" transform="translate(491.8813,32.2813)"><path d="m 0,0 v -8.34 c 0,-9.17 -7.43,-16.6 -16.59,-16.6 h -19.32 c 9.16,0 16.59,7.43 16.59,16.6 V 0 c 0,9.16 -7.43,16.59 -16.59,16.59 h 19.32 C -7.43,16.59 0,9.16 0,0" style="fill-opacity:1;fill-rule:nonzero;stroke:none" id="path159" fill="#fee903" data-original="#fee903" class=""></path></g><g id="g161" transform="translate(491.8813,73.811)"><path d="m 0,0 v -8.35 c 0,-9.16 -7.43,-16.59 -16.59,-16.59 h -19.32 c 9.16,0 16.59,7.43 16.59,16.59 V 0 c 0,9.16 -7.43,16.59 -16.59,16.59 h 19.32 C -7.43,16.59 0,9.16 0,0" style="fill-opacity:1;fill-rule:nonzero;stroke:none" id="path163" fill="#e09932" data-original="#fdb541" class=""></path></g><g id="g165" transform="translate(435.4512,131.9312)"><path d="M 0,0 H 39.838 C 49.001,0 56.43,-7.428 56.43,-16.592 v -8.344 c 0,-9.163 -7.429,-16.591 -16.592,-16.591 h -203.553 c -9.163,0 -16.592,7.428 -16.592,16.591 v 8.344 c 0,9.164 7.429,16.592 16.592,16.592 h 128.416" style="stroke-width:15;stroke-linecap:round;stroke-linejoin:round;stroke-miterlimit:10;stroke-dasharray:none;stroke-opacity:1" id="path167" fill="none" stroke="#23303d" stroke-width="15" stroke-linecap="round" stroke-linejoin="round" stroke-miterlimit="10" stroke-dasharray="none" stroke-opacity="" data-original="#000000" class=""></path></g><g id="g169" transform="translate(475.2896,48.8765)"><path d="m 0,0 h -203.554 c -9.163,0 -16.592,7.428 -16.592,16.592 v 8.344 c 0,9.163 7.429,16.591 16.592,16.591 H 0 c 9.163,0 16.592,-7.428 16.592,-16.591 V 16.592 C 16.592,7.428 9.163,0 0,0 Z" style="stroke-width:15;stroke-linecap:round;stroke-linejoin:round;stroke-miterlimit:10;stroke-dasharray:none;stroke-opacity:1" id="path171" fill="none" stroke="#23303d" stroke-width="15" stroke-linecap="round" stroke-linejoin="round" stroke-miterlimit="10" stroke-dasharray="none" stroke-opacity="" data-original="#000000" class=""></path></g><g id="g173" transform="translate(475.2896,7.3491)"><path d="m 0,0 h -203.554 c -9.163,0 -16.592,7.428 -16.592,16.592 v 8.344 c 0,9.163 7.429,16.591 16.592,16.591 H 0 c 9.163,0 16.592,-7.428 16.592,-16.591 V 16.592 C 16.592,7.428 9.163,0 0,0 Z" style="stroke-width:15;stroke-linecap:round;stroke-linejoin:round;stroke-miterlimit:10;stroke-dasharray:none;stroke-opacity:1" id="path175" fill="none" stroke="#23303d" stroke-width="15" stroke-linecap="round" stroke-linejoin="round" stroke-miterlimit="10" stroke-dasharray="none" stroke-opacity="" data-original="#000000" class=""></path></g></g></g></g></g></svg>