<svg xmlns="http://www.w3.org/2000/svg" version="1.1" xmlns:xlink="http://www.w3.org/1999/xlink" xmlns:svgjs="http://svgjs.com/svgjs" width="512" height="512" x="0" y="0" viewBox="0 0 515.494 515.494" style="enable-background:new 0 0 512 512" xml:space="preserve" class=""><g transform="matrix(0.7,0,0,0.6999999999999998,77.32394428253178,77.3240982055664)">
<g stroke-width="12" style="stroke-width: 12;">
	<g stroke-width="12" style="stroke-width: 12;">
		<path style="stroke-width: 12;" d="M27.854,292.714h129.554c8.896,0,16.107-7.211,16.107-16.107v-77.586
			c0-8.896-7.212-16.107-16.107-16.107H27.854c-8.896,0-16.107,7.212-16.107,16.107v77.586
			C11.747,285.503,18.959,292.714,27.854,292.714z" fill="#edeff0" data-original="#a0c8ff" stroke-width="12" class=""></path>
		<path style="stroke-width: 12; stroke-linecap: round; stroke-linejoin: round; stroke-miterlimit: 10;" d="
			M27.854,292.714h129.554c8.896,0,16.107-7.211,16.107-16.107v-77.586c0-8.896-7.212-16.107-16.107-16.107H27.854
			c-8.896,0-16.107,7.212-16.107,16.107v77.586C11.747,285.503,18.959,292.714,27.854,292.714z" fill="none" stroke="#23303d" stroke-width="12" stroke-linecap="round" stroke-linejoin="round" stroke-miterlimit="10" data-original="#000000" class=""></path>
		<path style="stroke-width: 12;" d="M70.43,298.853v-6.139h41.338v6.139c0,9.927,2.235,19.727,6.54,28.672l3.82,7.939H60.07l3.82-7.939
			C68.195,318.58,70.43,308.78,70.43,298.853z" fill="#63d9b6" data-original="#b7bcce" stroke-width="12" class=""></path>
		<polygon style="stroke-width: 12;" points="304.152,505.494 192.626,505.494 175.617,489.963 175.617,462.447 192.626,446.916 
			304.152,446.916 323.161,462.447 323.161,489.963 		" fill="#63d9b6" data-original="#b7bcce" stroke-width="12" class=""></polygon>
		<polygon style="stroke-width: 12;" points="304.152,446.916 192.626,446.916 175.617,431.385 175.617,403.869 192.626,388.338 
			304.152,388.338 323.161,403.869 323.161,431.385 		" fill="#e09932" data-original="#e0e7ef" stroke-width="12" class=""></polygon>
		<path style="stroke-width: 12;" d="M341.602,335.464h140.053c12.201,0,22.091-9.891,22.091-22.091v-17.349H319.511v17.349
			C319.511,325.574,329.402,335.464,341.602,335.464z" fill="#63d9b6" data-original="#b7bcce" stroke-width="12" class=""></path>
		<path style="stroke-width: 12;" d="M70.43,298.853v-6.139h41.338v6.139c0,9.927,2.235,19.727,6.54,28.672l3.82,7.939H60.07l3.82-7.939
			C68.195,318.58,70.43,308.78,70.43,298.853z" fill="#63d9b6" data-original="#b7bcce" stroke-width="12" class=""></path>
		<path style="stroke-width: 12; stroke-linecap: round; stroke-linejoin: round; stroke-miterlimit: 10;" d="
			M341.602,335.464h140.053c12.201,0,22.091-9.891,22.091-22.091v-17.349H319.511v17.349
			C319.511,325.574,329.402,335.464,341.602,335.464z" fill="none" stroke="#23303d" stroke-width="12" stroke-linecap="round" stroke-linejoin="round" stroke-miterlimit="10" data-original="#000000" class=""></path>
		<path style="stroke-width: 12; stroke-linecap: round; stroke-linejoin: round; stroke-miterlimit: 10;" d="
			M341.602,335.464h140.053c12.201,0,22.091-9.891,22.091-22.091v-17.349H319.511v17.349
			C319.511,325.574,329.402,335.464,341.602,335.464z" fill="none" stroke="#23303d" stroke-width="12" stroke-linecap="round" stroke-linejoin="round" stroke-miterlimit="10" data-original="#000000" class=""></path>
		<path style="stroke-width: 12; stroke-linecap: round; stroke-linejoin: round; stroke-miterlimit: 10;" d="
			M70.43,298.853v-6.139h41.338v6.139c0,9.927,2.235,19.727,6.54,28.672l3.82,7.939H60.07l3.82-7.939
			C68.195,318.58,70.43,308.78,70.43,298.853z" fill="none" stroke="#23303d" stroke-width="12" stroke-linecap="round" stroke-linejoin="round" stroke-miterlimit="10" data-original="#000000" class=""></path>
		
			<line style="stroke-width: 12; stroke-linecap: round; stroke-linejoin: round; stroke-miterlimit: 10;" x1="133.882" y1="335.464" x2="48.644" y2="335.464" fill="none" stroke="#23303d" stroke-width="12" stroke-linecap="round" stroke-linejoin="round" stroke-miterlimit="10" data-original="#000000" class=""></line>
	</g>
	<path style="stroke-width: 12;" d="M306.034,129.976c23.981,0,44.198-20.229,44.198-44.198c0-23.761-20.375-44.198-44.198-44.198
		c-4.011,0-7.901,0.543-11.592,1.544C284.587,23.486,264.273,10,240.805,10c-30.929,0-56.387,23.414-59.632,53.486
		c-1.086-0.108-2.183-0.169-3.299-0.169c-18.408,0-33.329,14.922-33.329,33.329c0,18.408,14.922,33.329,33.329,33.329H306.034z" fill="#2470a9" data-original="#f9f5f3" stroke-width="12" class=""></path>
	<path style="stroke-width: 12; stroke-linecap: round; stroke-linejoin: round; stroke-miterlimit: 10;" d="
		M306.034,129.976c23.981,0,44.198-20.229,44.198-44.198c0-23.761-20.375-44.198-44.198-44.198c-4.011,0-7.901,0.543-11.592,1.544
		C284.587,23.486,264.273,10,240.805,10c-30.929,0-56.387,23.414-59.632,53.486c-1.086-0.108-2.183-0.169-3.299-0.169
		c-18.408,0-33.329,14.922-33.329,33.329c0,18.408,14.922,33.329,33.329,33.329H306.034z" fill="none" stroke="#23303d" stroke-width="12" stroke-linecap="round" stroke-linejoin="round" stroke-miterlimit="10" data-original="#000000" class=""></path>
	<g stroke-width="12" style="stroke-width: 12;">
		<g stroke-width="12" style="stroke-width: 12;">
			
				<polygon style="stroke-width: 12; stroke-linecap: round; stroke-linejoin: round; stroke-miterlimit: 10;" points="
				304.152,505.494 192.626,505.494 175.617,489.963 175.617,462.447 192.626,446.916 304.152,446.916 323.161,462.447 
				323.161,489.963 			" fill="none" stroke="#23303d" stroke-width="12" stroke-linecap="round" stroke-linejoin="round" stroke-miterlimit="10" data-original="#000000" class=""></polygon>
			
				<line style="stroke-width: 12; stroke-linecap: round; stroke-linejoin: round; stroke-miterlimit: 10;" x1="214.37" y1="476.205" x2="214.37" y2="476.205" fill="none" stroke="#23303d" stroke-width="12" stroke-linecap="round" stroke-linejoin="round" stroke-miterlimit="10" data-original="#000000" class=""></line>
		</g>
		<g stroke-width="12" style="stroke-width: 12;">
			
				<polygon style="stroke-width: 12; stroke-linecap: round; stroke-linejoin: round; stroke-miterlimit: 10;" points="
				304.152,446.916 192.626,446.916 175.617,431.385 175.617,403.869 192.626,388.338 304.152,388.338 323.161,403.869 
				323.161,431.385 			" fill="none" stroke="#23303d" stroke-width="12" stroke-linecap="round" stroke-linejoin="round" stroke-miterlimit="10" data-original="#000000" class=""></polygon>
			
				<line style="stroke-width: 12; stroke-linecap: round; stroke-linejoin: round; stroke-miterlimit: 10;" x1="214.37" y1="417.627" x2="214.37" y2="417.627" fill="none" stroke="#23303d" stroke-width="12" stroke-linecap="round" stroke-linejoin="round" stroke-miterlimit="10" data-original="#000000" class=""></line>
		</g>
	</g>
	<g stroke-width="12" style="stroke-width: 12;">
		<path style="stroke-width: 12;" d="M367.039,183.222h-15.161c-8.896,0-16.107,7.212-16.107,16.107v80.587
			c0,8.896,7.212,16.107,16.107,16.107H471.38c8.896,0,16.107-7.212,16.107-16.107v-80.587c0-8.896-7.212-16.107-16.107-16.107
			h-16.295H367.039z" fill="#edeff0" data-original="#a0c8ff" stroke-width="12" class=""></path>
		<path style="stroke-width: 12; stroke-linecap: round; stroke-linejoin: round; stroke-miterlimit: 10;" d="
			M367.039,183.222h-15.161c-8.896,0-16.107,7.212-16.107,16.107v80.587c0,8.896,7.212,16.107,16.107,16.107H471.38
			c8.896,0,16.107-7.212,16.107-16.107v-80.587c0-8.896-7.212-16.107-16.107-16.107h-16.295" fill="none" stroke="#23303d" stroke-width="12" stroke-linecap="round" stroke-linejoin="round" stroke-miterlimit="10" data-original="#000000" class=""></path>
		<path style="stroke-width: 12; stroke-linecap: round; stroke-linejoin: round; stroke-miterlimit: 10;" d="
			M341.602,335.464h140.053c12.201,0,22.091-9.891,22.091-22.091v-17.349H319.511v17.349
			C319.511,325.574,329.402,335.464,341.602,335.464z" fill="none" stroke="#23303d" stroke-width="12" stroke-linecap="round" stroke-linejoin="round" stroke-miterlimit="10" data-original="#000000" class=""></path>
		
			<line style="stroke-width: 12; stroke-linecap: round; stroke-linejoin: round; stroke-miterlimit: 10;" x1="411.629" y1="183.222" x2="411.629" y2="183.222" fill="none" stroke="#23303d" stroke-width="12" stroke-linecap="round" stroke-linejoin="round" stroke-miterlimit="10" data-original="#000000" class=""></line>
	</g>
	<path style="stroke-width: 12; stroke-linecap: round; stroke-linejoin: round; stroke-miterlimit: 10;" d="
		M454.786,381.697v46.449c0,10.366-8.404,18.77-18.77,18.77h-57.962" fill="none" stroke="#23303d" stroke-width="12" stroke-linecap="round" stroke-linejoin="round" stroke-miterlimit="10" data-original="#000000" class=""></path>
	
		<polyline style="stroke-width: 12; stroke-linecap: round; stroke-linejoin: round; stroke-miterlimit: 10;" points="
		400.303,424.829 378.054,447.077 399.98,469.003 	" fill="none" stroke="#23303d" stroke-width="12" stroke-linecap="round" stroke-linejoin="round" stroke-miterlimit="10" data-original="#000000" class=""></polyline>
	
		<polyline style="stroke-width: 12; stroke-linecap: round; stroke-linejoin: round; stroke-miterlimit: 10;" points="
		225.301,314.089 247.55,336.339 269.475,314.413 	" fill="none" stroke="#23303d" stroke-width="12" stroke-linecap="round" stroke-linejoin="round" stroke-miterlimit="10" data-original="#000000" class=""></polyline>
	<path style="stroke-width: 12; stroke-linecap: round; stroke-linejoin: round; stroke-miterlimit: 10;" d="
		M45.31,381.697v46.449c0,10.366,8.404,18.77,18.77,18.77h57.962" fill="none" stroke="#23303d" stroke-width="12" stroke-linecap="round" stroke-linejoin="round" stroke-miterlimit="10" data-original="#000000" class=""></path>
	
		<polyline style="stroke-width: 12; stroke-linecap: round; stroke-linejoin: round; stroke-miterlimit: 10;" points="
		99.793,424.829 122.042,447.077 100.116,469.003 	" fill="none" stroke="#23303d" stroke-width="12" stroke-linecap="round" stroke-linejoin="round" stroke-miterlimit="10" data-original="#000000" class=""></polyline>
	
		<line style="stroke-width: 12; stroke-linecap: round; stroke-linejoin: round; stroke-miterlimit: 10;" x1="247.388" y1="129.976" x2="247.388" y2="336.339" fill="none" stroke="#23303d" stroke-width="12" stroke-linecap="round" stroke-linejoin="round" stroke-miterlimit="10" data-original="#000000" class=""></line>
</g>















</g></svg>