<svg id="Layer_1" data-name="Layer 1" xmlns="http://www.w3.org/2000/svg" viewBox="0 0 250 250"><defs><style>.cls-1{fill:#2470a9;}.cls-2,.cls-3{fill:none;stroke-linecap:round;stroke-linejoin:round;stroke-width:2px;}.cls-2{stroke:#fff;}.cls-3{stroke:#63d9b6;}.cls-4{fill:#63d9b6;}</style></defs><rect class="cls-1" width="250" height="250"/><path class="cls-2" d="M185.77,111.92V159a9.56,9.56,0,0,1-9.55,9.55H72A9.56,9.56,0,0,1,62.41,159v-47.1"/><line class="cls-2" x1="62.41" y1="148.9" x2="185.77" y2="148.9"/><circle class="cls-2" cx="124.09" cy="158.09" r="3.35"/><path class="cls-2" d="M133.4,168.57v3.87c0,5.45,1.71,7.75,4.9,12.17H109.88c3.18-4.42,4.9-6.72,4.9-12.17v-3.87Z"/><line class="cls-2" x1="99.22" y1="184.61" x2="148.96" y2="184.61"/><path class="cls-2" d="M169.05,96.94a15,15,0,0,1-30,0Z"/><path class="cls-3" d="M79.13,96.94a15,15,0,0,1-30,0Z"/><path class="cls-2" d="M109.1,96.94a15,15,0,0,1-30,0Z"/><path class="cls-3" d="M139.08,96.94a15,15,0,0,1-30,0Z"/><path class="cls-3" d="M199,96.94a15,15,0,0,1-30,0Z"/><polygon class="cls-3" points="199.02 96.94 176.08 72.78 124.09 72.78 72.1 72.78 49.16 96.94 199.02 96.94"/><polygon class="cls-2" points="169.05 96.94 155.28 72.78 124.09 72.78 92.89 72.78 79.13 96.94 169.05 96.94"/><polygon class="cls-3" points="139.08 96.94 134.49 72.78 124.09 72.78 113.69 72.78 109.1 96.94 139.08 96.94"/><path class="cls-2" d="M67.18,190.68a3,3,0,1,1,3-3"/><path class="cls-2" d="M52.19,68.63a3,3,0,1,1,3-3"/><line class="cls-2" x1="173.89" y1="184.61" x2="173.89" y2="194.29"/><line class="cls-2" x1="178.73" y1="189.45" x2="169.05" y2="189.45"/><line class="cls-2" x1="114.72" y1="42.18" x2="114.72" y2="51.86"/><line class="cls-2" x1="119.56" y1="47.02" x2="109.88" y2="47.02"/><line class="cls-2" x1="199.02" y1="65.6" x2="199.02" y2="75.28"/><line class="cls-2" x1="203.86" y1="70.44" x2="194.18" y2="70.44"/><circle class="cls-4" cx="124.09" cy="205.53" r="2.29"/><circle class="cls-4" cx="209.86" cy="137.96" r="2.29"/><circle class="cls-4" cx="151.46" cy="47.02" r="2.29"/><circle class="cls-4" cx="40.14" cy="133.39" r="2.29"/><path class="cls-4" d="M122.85,116.36h4.82v22.12a31.69,31.69,0,0,1-6.26.65c-5.89,0-9-2.64-9-7.69,0-4.88,3.26-8,8.3-8a7.65,7.65,0,0,1,2.1.25Zm.17,11.27a5,5,0,0,0-1.63-.24c-2.44,0-3.85,1.49-3.85,4.09s1.35,4,3.82,4a11.75,11.75,0,0,0,1.66-.12Z"/><path class="cls-4" d="M135.57,124v11.08c0,3.81-.29,5.65-1.13,7.23a7.68,7.68,0,0,1-3.94,3.54L126,143.73c2.13-1,3.16-1.87,3.82-3.2s.91-2.95.91-7.11V124Z"/><path class="cls-4" d="M130.26,116.36h4.83v4.91h-4.83v-4.91Z"/></svg>