<svg xmlns="http://www.w3.org/2000/svg" version="1.1" xmlns:xlink="http://www.w3.org/1999/xlink" xmlns:svgjs="http://svgjs.com/svgjs" width="512" height="512" x="0" y="0" viewBox="0 0 682.66669 682.66669" style="enable-background:new 0 0 512 512" xml:space="preserve" class=""><g><defs id="defs6403"><clipPath clipPathUnits="userSpaceOnUse" id="clipPath6413"><path d="M 0,512 H 512 V 0 H 0 Z" id="path6411" fill="#23303d" data-original="#000000"></path></clipPath></defs><g id="g6405" transform="matrix(1.3333333,0,0,-1.3333333,0,682.66667)"><g id="g6407"><g id="g6409" clip-path="url(#clipPath6413)"><g id="g6415" transform="translate(183.7178,380.334)"><path d="m 0,0 -108.679,-104.528 c 3.43,-28.865 8.844,-55.883 26.701,-71.011 l 147.373,-119.684 17.829,-13.708 c 26.843,-20.633 52.27,8.202 31.861,29.517 -0.283,0.311 -0.596,0.624 -0.907,0.936 6.887,-5.79 14.627,-7.436 21.401,-6.329 14.91,2.412 25.114,18.193 11.395,32.922 26.815,-21.399 49.719,12.687 28.714,31.39 23.415,-7.379 48.926,22.961 24.605,48.731 -0.17,0.199 -0.368,0.426 -0.566,0.624 l -60.973,90.707 -81.778,52.364 z" style="fill-opacity:1;fill-rule:evenodd;stroke:none" id="path6417" fill="#e09932" data-original="#ffbc85" class=""></path></g><g id="g6419" transform="translate(246.9014,82.5566)"><path d="M 0,0 C 22.677,24.152 -10.403,51.938 -28.687,35.563 L -48.273,16.944 c -0.228,-0.227 -0.426,-0.425 -0.653,-0.596 -16.44,-16.518 13.437,-54.152 38.155,-27.814 z" style="fill-opacity:1;fill-rule:evenodd;stroke:none" id="path6421" fill="#ffe5c1" data-original="#ffe5c1" class=""></path></g><g id="g6423" transform="translate(184.0576,151.8076)"><path d="m 0,0 -20.692,-21.684 -0.085,-0.113 c -10.375,-11.012 -3.175,-27.899 9.098,-34.483 7.597,-4.087 17.121,-4.258 25.597,3.377 l 22.167,0.34 -1.928,18.875 2.834,2.667 C 59.158,-9.962 27.155,26.423 2.183,2.299 Z" style="fill-opacity:1;fill-rule:evenodd;stroke:none" id="path6425" fill="#ffe5c1" data-original="#ffe5c1" class=""></path></g><g id="g6427" transform="translate(147.0947,181.5225)"><path d="M 0,0 -19.389,-20.576 -22.11,-23.5 c -19.134,-20.292 15.136,-52.25 34.894,-31.531 l 3.402,3.519 c 0.283,0.312 21.06,2.469 23.328,2.725 l -0.368,21.371 6.632,6.953 C 68.597,3.463 32.938,34.966 11.225,11.892 Z" style="fill-opacity:1;fill-rule:evenodd;stroke:none" id="path6429" fill="#ffe5c1" data-original="#ffe5c1" class=""></path></g><g id="g6431" transform="translate(101.7402,204.7949)"><path d="m 0,0 -6.576,-7.123 c -20.239,-21.968 9.922,-56.99 32.542,-36.726 l 18.566,2.867 0.822,17.71 C 63.694,-2.525 31.72,34.398 6.549,7.096 Z" style="fill-opacity:1;fill-rule:evenodd;stroke:none" id="path6433" fill="#ffe5c1" data-original="#ffe5c1" class=""></path></g><g id="g6435" transform="translate(352.8018,443.5674)"><path d="m 0,0 -38.182,-39.79 c -2.24,-2.328 -2.154,-6.046 0.17,-8.26 l 9.325,-8.968 120.869,-116.278 7.256,-6.982 c 2.325,-2.214 6.038,-2.128 8.249,0.171 l 19.927,20.774 18.255,19.016 c 7.993,8.344 7.738,21.712 -0.596,29.715 L 127.614,-93.63 29.679,0.596 C 21.345,8.6 7.994,8.344 0,0" style="fill-opacity:1;fill-rule:evenodd;stroke:none" id="path6437" fill="#2470a9" data-original="#7bacdf" class=""></path></g><g id="g6439" transform="translate(129.5195,441.9785)"><path d="m 0,0 -89.998,-86.592 -25.597,-24.606 c -8.334,-8.004 -8.589,-21.371 -0.595,-29.716 l 38.182,-39.79 c 2.211,-2.299 5.924,-2.384 8.248,-0.171 l 15.28,14.702 108.678,104.528 13.492,12.999 c 2.325,2.213 2.411,5.932 0.17,8.259 L 29.679,-0.597 C 21.685,7.748 8.334,8.003 0,0" style="fill-opacity:1;fill-rule:evenodd;stroke:none" id="path6441" fill="#2470a9" data-original="#7bacdf" class=""></path></g><g id="g6443" transform="translate(300.6738,291.4434)"><path d="m 0,0 -27.326,-6.244 10.715,-10.869 82.77,-82.25 0.568,-0.624 c 9.977,-10.558 11.564,-21.854 8.389,-31.049 16.357,6.243 26.759,28.523 8.221,48.163 l -0.566,0.624 -24.833,24.663 z" style="fill-opacity:1;fill-rule:evenodd;stroke:none" id="path6445" fill="#e09932" data-original="#f5a96c" class=""></path></g><g id="g6447" transform="translate(183.7178,380.334)"><path d="m 0,0 -17.404,-16.717 54.395,-26.82 19.985,15.468 z" style="fill-opacity:1;fill-rule:evenodd;stroke:none" id="path6449" fill="#e09932" data-original="#f5a96c" class=""></path></g><g id="g6451" transform="translate(240.6934,352.2646)"><path d="m 0,0 -19.984,-15.468 -18.822,-14.531 c -47.537,-36.782 -8.107,-73.11 20.097,-60.65 l 31.72,19.1 19.643,4.484 27.326,6.244 57.939,-57.586 24.832,-24.663 c 15.618,5.846 37.7,22.705 61.539,61.077 L 83.422,34.285 61.709,16.943 C 58.138,14.105 59.215,14.645 54.708,14.787 38.409,15.298 17.687,13.68 5.527,4.286 Z" style="fill-opacity:1;fill-rule:evenodd;stroke:none" id="path6453" fill="#ffe5c1" data-original="#ffe5c1" class=""></path></g><g id="g6455" transform="translate(240.6084,293.3447)"><path d="m 0,0 -31.72,-19.101 c -8.645,-3.831 -18.368,-3.064 -26.304,0.909 6.887,-13.226 24.689,-20.037 39.4,-13.537 l 31.72,19.1 19.643,4.483 26.986,6.16 c -12.5,10.7 -14.74,12.26 -40.11,6.442 z" style="fill-opacity:1;fill-rule:evenodd;stroke:none" id="path6457" fill="#fed1a3" data-original="#fed1a3" class=""></path></g><g id="g6459" transform="translate(425.2549,289.2578)"><path d="m 0,0 c -21.231,-34.143 -41.046,-51.256 -56.154,-58.749 -1.7,-0.852 -3.345,-1.561 -4.932,-2.157 l 19.275,-19.157 c 15.619,5.846 37.701,22.705 61.54,61.077 z" style="fill-opacity:1;fill-rule:evenodd;stroke:none" id="path6461" fill="#fed1a3" data-original="#fed1a3" class=""></path></g><g id="g6463" transform="translate(324.1152,386.5498)"><path d="m 0,0 101.14,-97.292 19.728,-18.986 7.257,-6.983 c 2.324,-2.214 6.037,-2.128 8.248,0.171 l 19.928,20.775 18.255,19.015 c 7.993,8.345 7.738,21.712 -0.596,29.716 L 156.301,-36.612 58.365,57.613 C 50.031,65.617 36.681,65.361 28.687,57.018 L -9.495,17.228 c -2.24,-2.329 -2.154,-6.046 0.17,-8.26 z" style="fill-opacity:1;fill-rule:evenodd;stroke:none" id="path6465" fill="#63d9b6" data-original="#fe636e" class=""></path></g><g id="g6467" transform="translate(455.2158,308.501)"><path d="m 0,0 -19.927,-20.804 c -2.239,-2.299 -5.925,-2.383 -8.249,-0.141 l 17.944,-17.284 7.256,-6.983 c 2.325,-2.214 6.038,-2.128 8.248,0.171 L 25.2,-24.267 43.455,-5.251 c 7.993,8.345 7.738,21.712 -0.596,29.716 l -22.337,21.484 1.9,-1.845 -4.677,4.513 c 8.221,-8.004 8.476,-21.314 0.51,-29.601 z m 17.745,48.646 v -0.029 z" style="fill-opacity:1;fill-rule:evenodd;stroke:none" id="path6469" fill="#63d9b6" data-original="#fb2a39" class=""></path></g><g id="g6471" transform="translate(98.7363,412.3477)"><path d="m 0,0 c 8.333,7.919 21.6,7.606 29.564,-0.681 l 38.183,-39.791 c 2.211,-2.327 2.154,-6.045 -0.17,-8.258 l 17.404,16.716 13.493,12.999 c 2.324,2.213 2.41,5.932 0.17,8.259 l -38.182,39.79 c -7.994,8.345 -21.345,8.6 -29.679,0.597 z" style="fill-opacity:1;fill-rule:evenodd;stroke:none" id="path6473" fill="#2470a9" data-original="#3987d0" class=""></path></g><g id="g6475" transform="translate(88.5029,180.8701)"><path d="m 0,0 c 0.198,-18.59 21.912,-35.42 39.203,-19.924 l 12.16,12.885 7.229,7.691 C 66.16,9.224 65.14,20.52 59.612,28.948 59.584,24.011 57.939,19.072 54.17,14.786 L 41.301,1.135 34.81,-5.79 C 22.195,-17.058 7.257,-11.183 0,0" style="fill-opacity:1;fill-rule:evenodd;stroke:none" id="path6477" fill="#fed1a3" data-original="#fed1a3" class=""></path></g><g id="g6479" transform="translate(120.251,138.6953)"><path d="m 0,0 c 4.535,-15.213 25.71,-26.82 39.628,-12.204 l 3.401,3.519 c 0.029,0.057 0.057,0.085 0.085,0.114 l 20.693,21.683 c 0.737,0.824 1.445,1.589 2.182,2.299 l 6.633,6.953 c 12.303,12.885 7.625,27.985 -2.721,35.562 1.87,-6.953 0.369,-14.986 -6.604,-22.28 L 56.663,28.693 C 55.927,27.984 55.218,27.218 54.48,26.423 V 26.395 L 33.788,4.711 C 33.76,4.683 33.731,4.654 33.675,4.626 L 30.302,1.078 C 21.061,-8.628 8.646,-6.783 0,0" style="fill-opacity:1;fill-rule:evenodd;stroke:none" id="path6481" fill="#fed1a3" data-original="#fed1a3" class=""></path></g><g id="g6483" transform="translate(198.6279,99.501)"><path d="m 0,0 15.108,14.332 4.479,4.286 2.834,2.667 C 34.213,32.496 30.67,48.049 20.976,56.507 23.045,49.1 21.515,40.727 14.371,33.943 L 11.564,31.275 3.571,23.698 -8.051,12.629 -8.702,12.062 c -8.476,-7.635 -18,-7.464 -25.597,-3.406 -1.871,1.022 -3.629,2.271 -5.216,3.718 1.871,-6.727 6.888,-12.942 13.266,-16.348 7.597,-4.087 17.121,-4.257 25.597,3.377 z" style="fill-opacity:1;fill-rule:evenodd;stroke:none" id="path6485" fill="#fed1a3" data-original="#fed1a3" class=""></path></g><g id="g6487" transform="translate(246.9014,82.5566)"><path d="M 0,0 C 11.338,12.091 8.73,25.061 1.02,32.979 0.85,27.615 -1.418,21.854 -6.634,16.319 L -17.405,4.825 c -13.238,-14.077 -27.949,-9.848 -36.226,-0.341 0.113,-17.227 23.13,-36.98 42.86,-15.95 z" style="fill-opacity:1;fill-rule:evenodd;stroke:none" id="path6489" fill="#fed1a3" data-original="#fed1a3" class=""></path></g><g id="g6491" transform="translate(127.7061,160.9463)"><path d="m 0,0 c -22.62,-20.265 -52.781,14.758 -32.542,36.726 l 13.125,14.218 C 5.98,78.503 38.323,40.613 18.85,19.98" style="stroke-width:15;stroke-linecap:round;stroke-linejoin:round;stroke-miterlimit:10;stroke-dasharray:none;stroke-opacity:1" id="path6493" fill="none" stroke="#23303d" stroke-width="15" stroke-linecap="round" stroke-linejoin="round" stroke-miterlimit="10" stroke-dasharray="none" stroke-opacity="" data-original="#000000" class=""></path></g><g id="g6495" transform="translate(218.2148,118.1191)"><path d="M 0,0 C 18.283,16.376 51.363,-11.41 28.687,-35.563 L 17.915,-47.028 c -25.002,-26.651 -55.332,12.204 -37.53,28.41" style="stroke-width:15;stroke-linecap:round;stroke-linejoin:round;stroke-miterlimit:10;stroke-dasharray:none;stroke-opacity:1" id="path6497" fill="none" stroke="#23303d" stroke-width="15" stroke-linecap="round" stroke-linejoin="round" stroke-miterlimit="10" stroke-dasharray="none" stroke-opacity="" data-original="#000000" class=""></path></g><g id="g6499" transform="translate(163.3652,130.124)"><path d="M 0,0 C -17.178,-17.994 12.926,-51.824 35.263,-30.623 L 57.684,-9.338 C 80.503,12.346 45.892,50.264 20.692,21.684" style="stroke-width:15;stroke-linecap:round;stroke-linejoin:round;stroke-miterlimit:10;stroke-dasharray:none;stroke-opacity:1" id="path6501" fill="none" stroke="#23303d" stroke-width="15" stroke-linecap="round" stroke-linejoin="round" stroke-miterlimit="10" stroke-dasharray="none" stroke-opacity="" data-original="#000000" class=""></path></g><g id="g6503" transform="translate(124.9844,158.0225)"><path d="M 0,0 33.335,35.392 C 55.048,58.466 90.707,26.963 67.889,3.037 L 34.895,-31.531 C 15.137,-52.25 -19.134,-20.292 0,0 Z" style="stroke-width:15;stroke-linecap:round;stroke-linejoin:round;stroke-miterlimit:10;stroke-dasharray:none;stroke-opacity:1" id="path6505" fill="none" stroke="#23303d" stroke-width="15" stroke-linecap="round" stroke-linejoin="round" stroke-miterlimit="10" stroke-dasharray="none" stroke-opacity="" data-original="#000000" class=""></path></g><g id="g6507" transform="translate(329.1895,187.9648)"><path d="M 0,0 30.217,-28.126" style="stroke-width:15;stroke-linecap:round;stroke-linejoin:round;stroke-miterlimit:10;stroke-dasharray:none;stroke-opacity:1" id="path6509" fill="none" stroke="#23303d" stroke-width="15" stroke-linecap="round" stroke-linejoin="round" stroke-miterlimit="10" stroke-dasharray="none" stroke-opacity="" data-original="#000000" class=""></path></g><g id="g6511" transform="translate(300.4463,156.6035)"><path d="M 0,0 30.245,-28.154" style="stroke-width:15;stroke-linecap:round;stroke-linejoin:round;stroke-miterlimit:10;stroke-dasharray:none;stroke-opacity:1" id="path6513" fill="none" stroke="#23303d" stroke-width="15" stroke-linecap="round" stroke-linejoin="round" stroke-miterlimit="10" stroke-dasharray="none" stroke-opacity="" data-original="#000000" class=""></path></g><g id="g6515" transform="translate(283.4961,115.167)"><path d="M 0,0 15.392,-14.304" style="stroke-width:15;stroke-linecap:round;stroke-linejoin:round;stroke-miterlimit:10;stroke-dasharray:none;stroke-opacity:1" id="path6517" fill="none" stroke="#23303d" stroke-width="15" stroke-linecap="round" stroke-linejoin="round" stroke-miterlimit="10" stroke-dasharray="none" stroke-opacity="" data-original="#000000" class=""></path></g><g id="g6519" transform="translate(324.1152,386.5498)"><path d="m 0,0 -21.713,-17.342 c -3.571,-2.838 -2.494,-2.299 -7.001,-2.156 -16.299,0.511 -37.02,-1.107 -49.181,-10.501 l -44.333,-34.285 c -47.537,-36.782 -8.107,-73.111 20.097,-60.651 l 31.72,19.101 46.97,10.728 m 82.77,-82.249 c 15.618,5.846 37.7,22.705 61.539,61.077" style="stroke-width:15;stroke-linecap:round;stroke-linejoin:round;stroke-miterlimit:10;stroke-dasharray:none;stroke-opacity:1" id="path6521" fill="none" stroke="#23303d" stroke-width="15" stroke-linecap="round" stroke-linejoin="round" stroke-miterlimit="10" stroke-dasharray="none" stroke-opacity="" data-original="#000000" class=""></path></g><g id="g6523" transform="translate(240.6934,352.2646)"><path d="m 0,0 -56.976,28.069 m 116.956,-88.89 82.771,-82.249 c 25.312,-25.912 -0.426,-56.791 -24.038,-49.356 21.005,-18.703 -1.9,-52.789 -28.715,-31.389 19.984,-21.4 -10.742,-45.098 -32.796,-26.593 22.054,-21.428 -3.713,-51.399 -30.954,-30.453 l -17.829,13.708 m -174.102,190.694 c 3.458,-28.864 8.872,-55.883 26.73,-71.011" style="stroke-width:15;stroke-linecap:round;stroke-linejoin:round;stroke-miterlimit:10;stroke-dasharray:none;stroke-opacity:1" id="path6525" fill="none" stroke="#23303d" stroke-width="15" stroke-linecap="round" stroke-linejoin="round" stroke-miterlimit="10" stroke-dasharray="none" stroke-opacity="" data-original="#000000" class=""></path></g><g id="g6527" transform="translate(392.543,320.4775)"><path d="m 0,0 59.697,-57.188 c 2.324,-2.214 6.037,-2.128 8.248,0.17 l 38.183,39.79 c 7.993,8.345 7.738,21.712 -0.596,29.716 L -10.063,123.686 c -8.333,8.003 -21.684,7.748 -29.678,-0.596 L -77.923,83.3 c -2.212,-2.328 -2.154,-6.046 0.17,-8.26 l 52.894,-50.888" style="stroke-width:15;stroke-linecap:round;stroke-linejoin:round;stroke-miterlimit:10;stroke-dasharray:none;stroke-opacity:1" id="path6529" fill="none" stroke="#23303d" stroke-width="15" stroke-linecap="round" stroke-linejoin="round" stroke-miterlimit="10" stroke-dasharray="none" stroke-opacity="" data-original="#000000" class=""></path></g><g id="g6531" transform="translate(109.6211,309.0684)"><path d="m 0,0 -49.861,-47.965 c -2.325,-2.213 -6.037,-2.128 -8.248,0.171 l -38.183,39.79 c -7.993,8.345 -7.738,21.712 0.596,29.716 L 19.898,132.91 c 8.334,8.003 21.685,7.748 29.679,-0.597 l 38.182,-39.79 c 2.24,-2.327 2.154,-6.045 -0.17,-8.258 L 23.924,23.018" style="stroke-width:15;stroke-linecap:round;stroke-linejoin:round;stroke-miterlimit:10;stroke-dasharray:none;stroke-opacity:1" id="path6533" fill="none" stroke="#23303d" stroke-width="15" stroke-linecap="round" stroke-linejoin="round" stroke-miterlimit="10" stroke-dasharray="none" stroke-opacity="" data-original="#000000" class=""></path></g></g></g></g></g></svg>