<svg id="Layer_1" data-name="Layer 1" xmlns="http://www.w3.org/2000/svg" viewBox="0 0 1956.65 399.1"><defs><style>.cls-1,.cls-10,.cls-11,.cls-12,.cls-16,.cls-2,.cls-20,.cls-22,.cls-23,.cls-5,.cls-6,.cls-8,.cls-9{fill:none;}.cls-1,.cls-2{stroke:#979797;}.cls-1,.cls-10,.cls-11,.cls-12,.cls-18,.cls-22,.cls-4,.cls-5,.cls-6,.cls-7,.cls-8{stroke-linecap:round;}.cls-1,.cls-12,.cls-18,.cls-22,.cls-4,.cls-7{stroke-linejoin:round;}.cls-1,.cls-10,.cls-11,.cls-12,.cls-2,.cls-4,.cls-5,.cls-6,.cls-8,.cls-9{stroke-width:2px;}.cls-3{fill:#37a9ef;fill-opacity:0.1;}.cls-13,.cls-15,.cls-18,.cls-21,.cls-4,.cls-7{fill:#fff;}.cls-11,.cls-4,.cls-7{stroke:#ff7680;}.cls-12,.cls-18,.cls-23,.cls-5,.cls-9{stroke:#63d9b6;}.cls-20,.cls-21,.cls-22,.cls-6{stroke:#2470a9;}.cls-13,.cls-16,.cls-17,.cls-18,.cls-20,.cls-21,.cls-22,.cls-23,.cls-7{stroke-width:3px;}.cls-10,.cls-8{stroke:#96a2a6;}.cls-8{stroke-dasharray:3;}.cls-10{stroke-dasharray:6;}.cls-11{stroke-dasharray:15;}.cls-13,.cls-16,.cls-17{stroke:#97a2a6;}.cls-13,.cls-16,.cls-17,.cls-20,.cls-21,.cls-23{stroke-miterlimit:10;}.cls-14,.cls-17{fill:#edeff0;}.cls-19{fill:#63d9b6;}.cls-22{stroke-dasharray:5;}.cls-24{fill:#ff7680;}.cls-25{fill:#f7931e;}.cls-26{fill:#2470a9;}</style></defs><title>14</title><path id="Shape" class="cls-1" d="M-20,321H867.58q103.13,1.16,103.12-85t92-80.18l108.12.24m323.3.73,161.64.37h68.94q82.1,0,82.09,48.22t54.47,64.66h101.93"/><path id="Path-6" class="cls-1" d="M831.08,322.15q6.33,56.64-50.68,56.65H678.88"/><circle id="Oval-2" class="cls-2" cx="658.91" cy="378.66" r="19.44"/><path id="Path-6-2" data-name="Path-6" class="cls-1" d="M1701.34,213.18H1599.82q-57,0-50.68-56.65"/><circle id="Oval-2-2" data-name="Oval-2" class="cls-2" cx="1721.31" cy="213.04" r="19.44"/><ellipse id="Oval" class="cls-3" cx="1296.27" cy="199.05" rx="202.25" ry="199.05"/><g id="Icon-_-Plus-grey" data-name="Icon-/-Plus-grey"><line id="Line" class="cls-4" x1="1530.51" y1="238.26" x2="1530.51" y2="255.69"/><line id="Line-Copy" class="cls-4" x1="1521.13" y1="246.97" x2="1539.89" y2="246.97"/></g><g id="Icon-_-Plus-grey-2" data-name="Icon-/-Plus-grey"><line id="Line-2" data-name="Line" class="cls-5" x1="1303.55" y1="336.47" x2="1303.55" y2="373.81"/><line id="Line-Copy-2" data-name="Line-Copy" class="cls-5" x1="1283.44" y1="355.14" x2="1323.65" y2="355.14"/></g><g id="Icon-_-Star-green-" data-name="Icon-/-Star-green-"><path id="Path-7" class="cls-6" d="M1124.71,26.2q18.6.09,18.6-16.88"/><path id="Path-7-2" data-name="Path-7" class="cls-6" d="M1162.08,26.2q-18.61.09-18.61-16.88"/><path id="Path-7-Copy-2" class="cls-6" d="M1162.08,26.7c-.88-.07-1.52-.11-1.94-.13-14.66-.4-16.67,7.28-16.67,22.75"/><path id="Path-7-Copy-3" class="cls-6" d="M1124.71,26.7c.87-.07,1.52-.11,1.93-.13,14.67-.4,16.67,7.28,16.67,22.75"/></g><g id="Icon-_-Star-green--2" data-name="Icon-/-Star-green-"><path id="Path-7-3" data-name="Path-7" class="cls-7" d="M1653.93,91.86q18.61.11,18.61-16.87"/><path id="Path-7-4" data-name="Path-7" class="cls-7" d="M1691.3,91.86Q1672.7,92,1672.7,75"/><path id="Path-7-Copy-2-2" data-name="Path-7-Copy-2" class="cls-7" d="M1691.3,92.37c-.87-.07-1.52-.12-1.94-.13-14.66-.41-16.66,7.27-16.66,22.75"/><path id="Path-7-Copy-3-2" data-name="Path-7-Copy-3" class="cls-7" d="M1653.93,92.37c.88-.07,1.52-.12,1.94-.13,14.66-.41,16.67,7.27,16.67,22.75"/></g><g id="Icon-_-Line-grey" data-name="Icon-/-Line-grey"><line id="Line-3" data-name="Line" class="cls-8" x1="1392.3" y1="316.98" x2="1528.03" y2="316.98"/></g><g id="Icon-_-Plus-blue" data-name="Icon-/-Plus-blue"><line id="Line-4" data-name="Line" class="cls-1" x1="1154.18" y1="350.02" x2="1154.18" y2="367.44"/><line id="Line-Copy-3" data-name="Line-Copy" class="cls-1" x1="1144.8" y1="358.73" x2="1163.57" y2="358.73"/></g><g id="Icon-_-Plus-blue-2" data-name="Icon-/-Plus-blue"><line id="Line-5" data-name="Line" class="cls-1" x1="1358.71" y1="74.72" x2="1358.71" y2="92.14"/><line id="Line-Copy-4" data-name="Line-Copy" class="cls-1" x1="1349.33" y1="83.43" x2="1368.09" y2="83.43"/></g><g id="Icon-_-Circle-green" data-name="Icon-/-Circle-green"><circle id="Oval-9" class="cls-9" cx="1085.12" cy="312.78" r="12.73"/></g><g id="Icon-_-Circle-grey" data-name="Icon-/-Circle-grey"><circle id="Oval-9-2" data-name="Oval-9" class="cls-10" cx="1516.6" cy="100.04" r="15.62"/></g><g id="Icon-_-Circle-grey-2" data-name="Icon-/-Circle-grey"><circle id="Oval-9-3" data-name="Oval-9" class="cls-10" cx="1537.47" cy="123.06" r="7.79"/></g><g id="Icon-_-Line-green" data-name="Icon-/-Line-green"><line id="Line-6" data-name="Line" class="cls-11" x1="1251.48" y1="38.11" x2="1358.71" y2="38.11"/></g><g id="Icon-_-Line-green-2" data-name="Icon-/-Line-green"><line id="Line-7" data-name="Line" class="cls-11" x1="1292.99" y1="24.66" x2="1400.22" y2="24.66"/></g><polygon class="cls-7" points="1072.39 101.25 1038.73 81.81 1038.73 120.69 1072.39 101.25"/><polygon class="cls-4" points="1561.69 314.73 1528.03 295.29 1528.03 334.16 1561.69 314.73"/><rect class="cls-12" x="1561.62" y="38.67" width="29.21" height="29.21" transform="translate(423.99 1130.16) rotate(-45)"/><rect class="cls-3" x="1052.05" y="227" width="29.21" height="29.21" transform="translate(141.57 825) rotate(-45)"/><rect class="cls-3" x="1058.92" y="254.53" width="15.3" height="15.3" transform="translate(127 830.97) rotate(-45)"/><line class="cls-1" x1="1494.14" y1="156.84" x2="1438.41" y2="156.84"/><path class="cls-13" d="M1198,137.42h252.19a12.23,12.23,0,0,1,12.23,12.23V309.88a0,0,0,0,1,0,0H1185.74a0,0,0,0,1,0,0V149.64A12.23,12.23,0,0,1,1198,137.42Z"/><path class="cls-14" d="M1247.87,100.66h154.61a0,0,0,0,1,0,0V354.16a0,0,0,0,1,0,0H1247.87a2.23,2.23,0,0,1-2.23-2.23v-249A2.23,2.23,0,0,1,1247.87,100.66Z" transform="translate(1551.47 -1096.65) rotate(90)"/><path class="cls-15" d="M1351.26,298.89v2c0,2.95-3.37,5.33-7.53,5.33h-39.34c-4.16,0-7.53-2.38-7.53-5.33v-2H1167.25c-3.85,0-7,2.21-7,4.94v4.89c0,5.44,6.22,9.84,13.9,9.84H1474c7.67,0,13.89-4.4,13.89-9.84v-4.89c0-2.73-3.12-4.94-7-4.94Z"/><path class="cls-14" d="M1474.53,312.41H1174.75c-7.68,0-13.9-4.4-13.9-9.84v-.71a3.74,3.74,0,0,0-.58,2v4.89c0,5.44,6.23,9.84,13.9,9.84H1474c7.67,0,13.89-4.4,13.89-9.84v-3.35C1486.14,309.44,1480.83,312.41,1474.53,312.41Z"/><path class="cls-16" d="M1351.26,298.89v2c0,2.95-3.37,5.33-7.53,5.33h-39.34c-4.16,0-7.53-2.38-7.53-5.33v-2H1167.25c-3.85,0-7,2.21-7,4.94v4.89c0,5.44,6.22,9.84,13.9,9.84H1474c7.67,0,13.89-4.4,13.89-9.84v-4.89c0-2.73-3.12-4.94-7-4.94Z"/><rect class="cls-14" x="1185.16" y="305.83" width="30.09" height="6.94" rx="3"/><rect class="cls-15" x="1209.96" y="159.28" width="132.64" height="126.83"/><rect class="cls-17" x="1372.71" y="185.04" width="115.27" height="163.73" rx="6.94"/><rect class="cls-15" x="1360.38" y="208.36" width="139.93" height="104.28" rx="1.45" transform="translate(1690.85 -1169.84) rotate(90)"/><rect class="cls-18" x="1365.87" y="213.85" width="128.94" height="93.3" transform="translate(1690.85 -1169.84) rotate(90)"/><circle class="cls-19" cx="1430.35" cy="339.8" r="2.96"/><rect class="cls-7" x="1390.37" y="282.13" width="11.04" height="35.31"/><rect class="cls-20" x="1407.6" y="266.21" width="11.04" height="51.23"/><rect class="cls-7" x="1424.82" y="277.76" width="11.04" height="39.68"/><rect class="cls-20" x="1442.05" y="298.51" width="11.04" height="18.93"/><rect class="cls-7" x="1459.28" y="282.13" width="11.04" height="35.31"/><line class="cls-20" x1="1395.89" y1="238.28" x2="1464.8" y2="238.28"/><line class="cls-20" x1="1395.89" y1="225.7" x2="1464.8" y2="225.7"/><line class="cls-20" x1="1395.89" y1="213.12" x2="1464.8" y2="213.12"/><circle class="cls-21" cx="1413.73" cy="213.12" r="5.22"/><circle class="cls-21" cx="1447.16" cy="225.7" r="5.22"/><circle class="cls-21" cx="1426.57" cy="238.28" r="5.22"/><rect class="cls-17" x="1429.93" y="49.32" width="58.7" height="111.48" rx="6.77"/><rect class="cls-15" x="1409.54" y="81.71" width="99.48" height="46.7" rx="0.77" transform="translate(1564.34 -1354.22) rotate(90)"/><line class="cls-16" x1="1442.44" y1="64.74" x2="1476.12" y2="64.74"/><line class="cls-16" x1="1442.44" y1="73.87" x2="1476.12" y2="73.87"/><line class="cls-16" x1="1442.44" y1="82.99" x2="1476.12" y2="82.99"/><line class="cls-16" x1="1442.44" y1="92.22" x2="1462.74" y2="92.22"/><line class="cls-16" x1="1442.44" y1="101.25" x2="1462.74" y2="101.25"/><line class="cls-22" x1="1203.29" y1="151.05" x2="1229.56" y2="151.05"/><rect class="cls-15" x="1103.9" y="60.88" width="186.82" height="167.64" rx="9.81"/><rect class="cls-23" x="1103.9" y="60.88" width="186.82" height="167.64" rx="9.81"/><line class="cls-23" x1="1290.72" y1="85.91" x2="1103.9" y2="85.91"/><circle class="cls-24" cx="1249.94" cy="73.98" r="2.58"/><circle class="cls-19" cx="1262.3" cy="73.98" r="2.58"/><circle class="cls-25" cx="1274.66" cy="73.98" r="2.58"/><rect class="cls-14" x="1117.68" y="98.24" width="161.43" height="117.16" rx="5.65"/><path class="cls-19" d="M1175.66,151.43H1168a7.65,7.65,0,0,0-.86-2.65,6.64,6.64,0,0,0-1.66-2,7.56,7.56,0,0,0-2.34-1.27,9.12,9.12,0,0,0-2.86-.43,8.57,8.57,0,0,0-4.85,1.37,8.86,8.86,0,0,0-3.2,4,15.88,15.88,0,0,0-1.14,6.35,16.1,16.1,0,0,0,1.14,6.44,8.31,8.31,0,0,0,8,5.27,9.49,9.49,0,0,0,2.83-.4,7.39,7.39,0,0,0,2.32-1.19,6.66,6.66,0,0,0,1.69-1.89,7.66,7.66,0,0,0,.94-2.56l7.67,0a14.16,14.16,0,0,1-1.48,4.76,14.59,14.59,0,0,1-3.17,4.08,14.89,14.89,0,0,1-4.73,2.83,17.21,17.21,0,0,1-6.19,1,16.85,16.85,0,0,1-8.57-2.17,15.36,15.36,0,0,1-6-6.28,21.08,21.08,0,0,1-2.18-10,20.87,20.87,0,0,1,2.21-10,15.39,15.39,0,0,1,6-6.28,16.79,16.79,0,0,1,8.5-2.16,18.3,18.3,0,0,1,5.79.88,14.66,14.66,0,0,1,4.73,2.54,13.41,13.41,0,0,1,3.37,4.09A15.44,15.44,0,0,1,1175.66,151.43Z"/><path class="cls-19" d="M1181.1,138.88h9.35l9.87,24.09h.42l9.87-24.09H1220v35.85h-7.35V151.4h-.3L1203,174.56h-5l-9.28-23.25h-.3v23.42h-7.35Z"/><path class="cls-19" d="M1245.64,149.19a4.43,4.43,0,0,0-1.8-3.29,7.2,7.2,0,0,0-4.33-1.17,8.48,8.48,0,0,0-3.13.51,4.52,4.52,0,0,0-2,1.43,3.4,3.4,0,0,0-.68,2.07,2.92,2.92,0,0,0,.42,1.68,3.8,3.8,0,0,0,1.23,1.23,8.35,8.35,0,0,0,1.82.9,17.18,17.18,0,0,0,2.2.63l3.23.77a23.82,23.82,0,0,1,4.3,1.4,13.35,13.35,0,0,1,3.4,2.16,8.92,8.92,0,0,1,2.23,3,9.76,9.76,0,0,1,.82,4,9.9,9.9,0,0,1-1.68,5.7,10.6,10.6,0,0,1-4.76,3.73,19.06,19.06,0,0,1-7.48,1.32,19.64,19.64,0,0,1-7.56-1.33,10.94,10.94,0,0,1-5-3.95,11.64,11.64,0,0,1-1.89-6.48h7.34a5.43,5.43,0,0,0,1,3,5.56,5.56,0,0,0,2.47,1.8,9.64,9.64,0,0,0,3.51.61,9.22,9.22,0,0,0,3.35-.56,5.29,5.29,0,0,0,2.22-1.56,3.63,3.63,0,0,0,.78-2.29,3,3,0,0,0-.71-2,5.45,5.45,0,0,0-2.06-1.4,21.06,21.06,0,0,0-3.32-1.06l-3.9-1a16.36,16.36,0,0,1-7.16-3.44,8,8,0,0,1-2.61-6.32,9.37,9.37,0,0,1,1.74-5.69,11.63,11.63,0,0,1,4.84-3.8,17.16,17.16,0,0,1,7-1.37,16.61,16.61,0,0,1,7,1.37,11,11,0,0,1,4.65,3.8,10,10,0,0,1,1.71,5.63Z"/><circle class="cls-26" cx="1429.93" cy="117.86" r="7.61"/><circle class="cls-26" cx="1279.11" cy="260.5" r="7.61"/><circle class="cls-26" cx="1372.71" cy="256.44" r="7.61"/><polyline class="cls-22" points="1422.32 117.86 1355.41 117.86 1355.41 256.44 1365.1 256.44"/><line class="cls-22" x1="1355.41" y1="173.6" x2="1290.72" y2="173.6"/><polyline class="cls-22" points="1203.29 229.54 1203.29 260.5 1279.11 260.5"/></svg>