<svg id="Layer_1" data-name="Layer 1" xmlns="http://www.w3.org/2000/svg" viewBox="0 0 1956.65 399.1"><defs><style>.cls-1,.cls-10,.cls-12,.cls-16,.cls-19,.cls-2,.cls-20,.cls-21,.cls-4,.cls-5,.cls-7,.cls-8,.cls-9{fill:none;}.cls-1,.cls-2{stroke:#979797;}.cls-1,.cls-12,.cls-18,.cls-19,.cls-20,.cls-4,.cls-5,.cls-6,.cls-7,.cls-8,.cls-9{stroke-linecap:round;}.cls-1,.cls-18,.cls-19,.cls-20,.cls-4,.cls-5,.cls-6,.cls-9{stroke-linejoin:round;}.cls-1,.cls-10,.cls-11,.cls-12,.cls-2,.cls-4,.cls-5,.cls-7,.cls-8,.cls-9{stroke-width:2px;}.cls-3{fill:#94f0ff;fill-opacity:0.1;}.cls-12,.cls-18,.cls-20,.cls-4,.cls-7{stroke:#63d9b6;}.cls-10,.cls-11,.cls-5,.cls-8{stroke:#96a2a6;}.cls-11,.cls-13,.cls-15,.cls-18,.cls-6{fill:#fff;}.cls-19,.cls-6{stroke:#ff7680;}.cls-13,.cls-16,.cls-18,.cls-19,.cls-20,.cls-21,.cls-6{stroke-width:3px;}.cls-8{stroke-dasharray:5;}.cls-9{stroke:#2470a9;}.cls-12{stroke-dasharray:10;}.cls-13,.cls-16{stroke:#97a2a6;}.cls-13,.cls-16,.cls-21{stroke-miterlimit:10;}.cls-14{fill:#edeff0;}.cls-17{fill:#63d9b6;}.cls-21{stroke:#edeff0;}</style></defs><title>13</title><path id="Shape" class="cls-1" d="M-20,321H867.58q103.13,1.16,103.12-85t92-80.18h121.94m208.19,1,262.93.37h68.94q82.1,0,82.09,48.22t54.47,64.66h101.93"/><path id="Path-6" class="cls-1" d="M831.08,322.15q6.33,56.64-50.68,56.65H678.88"/><circle id="Oval-2" class="cls-2" cx="658.91" cy="378.66" r="19.44"/><path id="Path-6-2" data-name="Path-6" class="cls-1" d="M1555.88,100h101.53q57,0,50.68,56.65"/><circle id="Oval-2-2" data-name="Oval-2" class="cls-2" cx="1535.91" cy="100.09" r="19.44"/><ellipse id="Oval" class="cls-3" cx="1296.27" cy="199.05" rx="202.25" ry="199.05"/><g id="Icon-_-Plus-green" data-name="Icon-/-Plus-green"><line id="Line" class="cls-4" x1="1072.42" y1="31.83" x2="1072.42" y2="68.02"/><line id="Line-Copy" class="cls-4" x1="1053.65" y1="49.93" x2="1091.19" y2="49.93"/></g><g id="Icon-_-Plus-grey" data-name="Icon-/-Plus-grey"><line id="Line-2" data-name="Line" class="cls-5" x1="1549.28" y1="229.55" x2="1549.28" y2="246.97"/><line id="Line-Copy-2" data-name="Line-Copy" class="cls-5" x1="1539.89" y1="238.26" x2="1558.66" y2="238.26"/></g><g id="Icon-_-Plus-grey-2" data-name="Icon-/-Plus-grey"><line id="Line-3" data-name="Line" class="cls-5" x1="897.9" y1="229.55" x2="897.9" y2="246.97"/><line id="Line-Copy-3" data-name="Line-Copy" class="cls-5" x1="888.52" y1="238.26" x2="907.28" y2="238.26"/></g><g id="Icon-_-Circle-blue" data-name="Icon-/-Circle-blue"><ellipse id="Oval-9" class="cls-6" cx="1483.53" cy="49.93" rx="12.13" ry="11.7"/></g><g id="Icon-_-Circle-blue-2" data-name="Icon-/-Circle-blue"><ellipse id="Oval-9-2" data-name="Oval-9" class="cls-6" cx="1511.06" cy="49.93" rx="5.42" ry="5.22"/></g><g id="Icon-_-Star-green-" data-name="Icon-/-Star-green-"><path id="Path-7" class="cls-7" d="M1300.77,363.36q18.6.11,18.6-16.87"/><path id="Path-7-2" data-name="Path-7" class="cls-7" d="M1338.14,363.36q-18.62.11-18.61-16.87"/><path id="Path-7-Copy-2" class="cls-7" d="M1338.14,363.87c-.88-.07-1.52-.12-1.94-.13-14.66-.41-16.67,7.27-16.67,22.75"/><path id="Path-7-Copy-3" class="cls-7" d="M1300.77,363.87c.87-.07,1.52-.12,1.94-.13,14.66-.41,16.66,7.27,16.66,22.75"/></g><g id="Icon-_-Star-green--2" data-name="Icon-/-Star-green-"><path id="Path-7-3" data-name="Path-7" class="cls-6" d="M1036.87,254.23q18.62.11,18.61-16.87"/><path id="Path-7-4" data-name="Path-7" class="cls-6" d="M1074.24,254.23q-18.6.11-18.6-16.87"/><path id="Path-7-Copy-2-2" data-name="Path-7-Copy-2" class="cls-6" d="M1074.24,254.74c-.87-.07-1.52-.12-1.93-.13-14.67-.41-16.67,7.27-16.67,22.75"/><path id="Path-7-Copy-3-2" data-name="Path-7-Copy-3" class="cls-6" d="M1036.87,254.74c.88-.07,1.52-.12,1.94-.13,14.66-.41,16.67,7.27,16.67,22.75"/></g><g id="Icon-_-Line-grey" data-name="Icon-/-Line-grey"><line id="Line-4" data-name="Line" class="cls-8" x1="1165.92" y1="38.87" x2="1363.16" y2="38.87"/></g><g id="Icon-_-Plus-blue" data-name="Icon-/-Plus-blue"><line id="Line-5" data-name="Line" class="cls-9" x1="1163.57" y1="337.78" x2="1163.57" y2="355.2"/><line id="Line-Copy-4" data-name="Line-Copy" class="cls-9" x1="1154.18" y1="346.49" x2="1172.95" y2="346.49"/></g><g id="Icon-_-Circle-grey" data-name="Icon-/-Circle-grey"><circle id="Oval-9-3" data-name="Oval-9" class="cls-10" cx="1048.29" cy="353.86" r="24.13"/></g><g id="Icon-_-Circle-grey-2" data-name="Icon-/-Circle-grey"><circle id="Oval-9-4" data-name="Oval-9" class="cls-11" cx="1068.66" cy="334.14" r="13.1"/></g><g id="Icon-_-Line-green" data-name="Icon-/-Line-green"><line id="Line-6" data-name="Line" class="cls-12" x1="1495.66" y1="286.83" x2="1602.89" y2="286.83"/></g><polygon class="cls-7" points="1662.38 194.69 1642.95 228.35 1681.82 228.35 1662.38 194.69"/><polygon class="cls-9" points="978.32 90.85 958.89 124.51 997.76 124.51 978.32 90.85"/><path class="cls-13" d="M1163.25,106.87h252.19a12.23,12.23,0,0,1,12.23,12.23V279.34a0,0,0,0,1,0,0H1151a0,0,0,0,1,0,0V119.1A12.23,12.23,0,0,1,1163.25,106.87Z"/><path class="cls-14" d="M1213.15,70.12h154.61a0,0,0,0,1,0,0V323.61a0,0,0,0,1,0,0H1213.15a2.23,2.23,0,0,1-2.23-2.23v-249A2.23,2.23,0,0,1,1213.15,70.12Z" transform="translate(1486.21 -1092.48) rotate(90)"/><path class="cls-15" d="M1316.55,268.34v2.05c0,2.94-3.37,5.33-7.53,5.33h-39.35c-4.15,0-7.53-2.39-7.53-5.33v-2.05h-129.6c-3.86,0-7,2.21-7,4.94v4.9c0,5.43,6.22,9.84,13.89,9.84h299.79c7.67,0,13.89-4.41,13.89-9.84v-4.9c0-2.73-3.12-4.94-7-4.94Z"/><path class="cls-14" d="M1439.82,281.87H1140c-7.67,0-13.89-4.41-13.89-9.84v-.71a3.71,3.71,0,0,0-.58,2v4.9c0,5.43,6.22,9.84,13.89,9.84h299.79c7.67,0,13.89-4.41,13.89-9.84v-3.35C1451.43,278.9,1446.11,281.87,1439.82,281.87Z"/><path class="cls-16" d="M1316.55,268.34v2.05c0,2.94-3.37,5.33-7.53,5.33h-39.35c-4.15,0-7.53-2.39-7.53-5.33v-2.05h-129.6c-3.86,0-7,2.21-7,4.94v4.9c0,5.43,6.22,9.84,13.89,9.84h299.79c7.67,0,13.89-4.41,13.89-9.84v-4.9c0-2.73-3.12-4.94-7-4.94Z"/><rect class="cls-14" x="1150.45" y="275.29" width="30.09" height="6.94" rx="3"/><line class="cls-16" x1="1332.84" y1="229.99" x2="1404.53" y2="229.99"/><line class="cls-16" x1="1332.84" y1="217.86" x2="1404.53" y2="217.86"/><line class="cls-16" x1="1332.84" y1="205.74" x2="1404.53" y2="205.74"/><line class="cls-16" x1="1332.84" y1="193.48" x2="1376.05" y2="193.48"/><line class="cls-16" x1="1332.84" y1="181.48" x2="1376.05" y2="181.48"/><path class="cls-6" d="M1180.16,133.59c0,15.39-12.23,27.87-27.3,27.87s-27.3-12.48-27.3-27.87Z"/><path class="cls-6" d="M1234.75,133.59c0,15.39-12.22,27.87-27.3,27.87s-27.29-12.48-27.29-27.87Z"/><path class="cls-6" d="M1289.35,133.59c0,15.39-12.23,27.87-27.3,27.87s-27.3-12.48-27.3-27.87Z"/><path class="cls-6" d="M1343.94,133.59c0,15.39-12.22,27.87-27.3,27.87s-27.29-12.48-27.29-27.87Z"/><path class="cls-6" d="M1398.54,133.59c0,15.39-12.23,27.87-27.3,27.87s-27.3-12.48-27.3-27.87Z"/><path class="cls-6" d="M1453.13,133.59c0,15.39-12.22,27.87-27.3,27.87s-27.29-12.48-27.29-27.87Z"/><polygon class="cls-6" points="1433.54 76.12 1145.15 76.12 1125.56 133.59 1453.13 133.59 1433.54 76.12"/><polygon class="cls-6" points="1385.48 76.12 1193.21 76.12 1180.15 133.59 1398.54 133.59 1385.48 76.12"/><polygon class="cls-6" points="1337.41 76.12 1241.28 76.12 1234.75 133.59 1343.94 133.59 1337.41 76.12"/><line class="cls-6" x1="1289.35" y1="133.59" x2="1289.35" y2="76.12"/><rect class="cls-6" x="1130.22" y="184.05" width="78.19" height="78.19" rx="26.32"/><rect class="cls-14" x="1145.22" y="189.05" width="48.19" height="58.19" rx="16.32" transform="translate(1387.46 -951.17) rotate(90)"/><path class="cls-13" d="M1208.41,212.21a10.94,10.94,0,1,1,0,21.87Z"/><line class="cls-13" x1="1213.88" y1="213.68" x2="1213.88" y2="189.72"/><circle class="cls-13" cx="1213.88" cy="189.72" r="4.14"/><path class="cls-13" d="M1130.22,212.21a10.94,10.94,0,0,0,0,21.87Z"/><line class="cls-13" x1="1124.75" y1="213.68" x2="1124.75" y2="189.72"/><circle class="cls-13" cx="1124.75" cy="189.72" r="4.14"/><circle class="cls-17" cx="1155.89" cy="219.66" r="5.13"/><circle class="cls-17" cx="1182.75" cy="219.66" r="5.13"/><path class="cls-18" d="M1163,252.1h12.61a6.8,6.8,0,0,1,6.8,6.8v3.35a0,0,0,0,1,0,0h-26.2a0,0,0,0,1,0,0v-3.35A6.8,6.8,0,0,1,1163,252.1Z"/><line class="cls-19" x1="1169.32" y1="184.05" x2="1169.32" y2="188.85"/><rect class="cls-15" x="1110.75" y="236.35" width="117.13" height="21.06" rx="6.32"/><rect class="cls-20" x="1110.75" y="236.35" width="117.13" height="21.06" rx="6.32"/><path class="cls-15" d="M1210.12,312h-81.6c-3.43,0-6.27-3-6.47-6.88l-2.58-47.73h99.7l-2.58,47.73C1216.38,309,1213.54,312,1210.12,312Z"/><path class="cls-14" d="M1216.59,294.61c-.21,3.86-3,6.88-6.47,6.88h-81.6c-3.43,0-6.27-3-6.47-6.88l-2-37.2h-.57l2.58,47.73c.2,3.86,3,6.88,6.47,6.88h81.6c3.42,0,6.26-3,6.47-6.88l2.58-47.73h-.57Z"/><polygon class="cls-14" points="1120.06 268.3 1218.58 268.3 1219.16 257.41 1119.47 257.41 1120.06 268.3"/><path class="cls-20" d="M1210.12,312h-81.6c-3.43,0-6.27-3-6.47-6.88l-2.58-47.73h99.7l-2.58,47.73C1216.38,309,1213.54,312,1210.12,312Z"/><rect class="cls-18" x="1139.64" y="268.3" width="7.99" height="32.83" rx="3.11"/><rect class="cls-18" x="1156.76" y="268.3" width="7.99" height="32.83" rx="3.11"/><rect class="cls-18" x="1173.88" y="268.3" width="7.99" height="32.83" rx="3.11"/><rect class="cls-18" x="1191.01" y="268.3" width="7.99" height="32.83" rx="3.11"/><circle class="cls-20" cx="1169.32" cy="246.88" r="4.57"/><line class="cls-20" x1="1169.32" y1="246.88" x2="1116.5" y2="247.04"/><path class="cls-15" d="M1481.78,272.92V252.79a5,5,0,0,0-5-5h-5.56a5,5,0,0,1-4.62-3.09l0-.06a5,5,0,0,1,1.07-5.46l3.94-3.93a5,5,0,0,0,0-7.08l-14.24-14.24a5,5,0,0,0-7.07,0l-3.94,3.94a5,5,0,0,1-5.45,1.08l-.07,0a5,5,0,0,1-3.08-4.62v-5.56a5,5,0,0,0-5-5h-20.13a5,5,0,0,0-5,5v5.56a5,5,0,0,1-3.09,4.62l-.06,0a5,5,0,0,1-5.46-1.08l-3.93-3.94a5,5,0,0,0-7.08,0l-14.23,14.24a5,5,0,0,0,0,7.08l3.93,3.93a5,5,0,0,1,1.08,5.46l0,.06a5,5,0,0,1-4.61,3.09h-5.57a5,5,0,0,0-5,5v20.13a5,5,0,0,0,5,5h5.57a5,5,0,0,1,4.61,3.08l0,.07a5,5,0,0,1-1.08,5.45l-3.93,3.94a5,5,0,0,0,0,7.07L1388,311.78a5,5,0,0,0,7.08,0l3.93-3.94a5,5,0,0,1,5.46-1.08l.06,0a5,5,0,0,1,3.09,4.62V317a5,5,0,0,0,5,5h20.13a5,5,0,0,0,5-5v-5.56a5,5,0,0,1,3.08-4.62l.07,0a5,5,0,0,1,5.45,1.08l3.94,3.94a5,5,0,0,0,7.07,0l14.24-14.24a5,5,0,0,0,0-7.07l-3.94-3.94a5,5,0,0,1-1.07-5.45l0-.07a5,5,0,0,1,4.62-3.08h5.56A5,5,0,0,0,1481.78,272.92Z"/><path class="cls-14" d="M1431,207.59a5,5,0,0,0,3.09,4.61l.06,0a5,5,0,0,0,3.57.1v-3.59a5,5,0,0,0-5-5H1431Z"/><path class="cls-14" d="M1372.13,277.93a5,5,0,0,0-.1-3.57l0-.06a5,5,0,0,0-4.62-3.09h-3.85v1.71a5,5,0,0,0,5,5Z"/><path class="cls-14" d="M1464.86,221.45a5,5,0,0,1,0,7.08l-3.93,3.93a5,5,0,0,0-1.08,5.46l0,.06a5,5,0,0,0,4.62,3.09h2a4.94,4.94,0,0,1,1.18-1.89l3.94-3.93a5,5,0,0,0,0-7.08l-14.24-14.24h0Z"/><path class="cls-14" d="M1476.77,247.79h-1.71V266.2a5,5,0,0,1-5,5h-5.57a5,5,0,0,0-4.62,3.09l0,.06a5,5,0,0,0,1.08,5.45l3.93,3.94a5,5,0,0,1,0,7.08l-14.23,14.23a5,5,0,0,1-7.08,0l-3.94-3.93a5,5,0,0,0-5.45-1.08l-.06,0a5,5,0,0,0-3.09,4.62v5.56a5,5,0,0,1-5,5h-18.41V317a5,5,0,0,0,5,5h20.13a5,5,0,0,0,5-5v-5.56a5,5,0,0,1,3.08-4.62l.07,0a5,5,0,0,1,5.45,1.08l3.94,3.94a5,5,0,0,0,7.07,0l14.24-14.24a5,5,0,0,0,0-7.07l-3.94-3.94a5,5,0,0,1-1.07-5.45l0-.07a5,5,0,0,1,4.62-3.08h5.56a5,5,0,0,0,5-5V252.79A5,5,0,0,0,1476.77,247.79Z"/><path class="cls-14" d="M1400.87,304.69a5,5,0,0,0-3.09-4.62l-.06,0a5,5,0,0,0-5.46,1.08l-3.93,3.93a5,5,0,0,1-7.08,0l6.72,6.72a5,5,0,0,0,7.08,0l3.93-3.94a5,5,0,0,1,1.89-1.18Z"/><path class="cls-16" d="M1481.78,272.92V252.79a5,5,0,0,0-5-5h-5.56a5,5,0,0,1-4.62-3.09l0-.06a5,5,0,0,1,1.07-5.46l3.94-3.93a5,5,0,0,0,0-7.08l-14.24-14.24a5,5,0,0,0-7.07,0l-3.94,3.94a5,5,0,0,1-5.45,1.08l-.07,0a5,5,0,0,1-3.08-4.62v-5.56a5,5,0,0,0-5-5h-20.13a5,5,0,0,0-5,5v5.56a5,5,0,0,1-3.09,4.62l-.06,0a5,5,0,0,1-5.46-1.08l-3.93-3.94a5,5,0,0,0-7.08,0l-14.23,14.24a5,5,0,0,0,0,7.08l3.93,3.93a5,5,0,0,1,1.08,5.46l0,.06a5,5,0,0,1-4.61,3.09h-5.57a5,5,0,0,0-5,5v20.13a5,5,0,0,0,5,5h5.57a5,5,0,0,1,4.61,3.08l0,.07a5,5,0,0,1-1.08,5.45l-3.93,3.94a5,5,0,0,0,0,7.07L1388,311.78a5,5,0,0,0,7.08,0l3.93-3.94a5,5,0,0,1,5.46-1.08l.06,0a5,5,0,0,1,3.09,4.62V317a5,5,0,0,0,5,5h20.13a5,5,0,0,0,5-5v-5.56a5,5,0,0,1,3.08-4.62l.07,0a5,5,0,0,1,5.45,1.08l3.94,3.94a5,5,0,0,0,7.07,0l14.24-14.24a5,5,0,0,0,0-7.07l-3.94-3.94a5,5,0,0,1-1.07-5.45l0-.07a5,5,0,0,1,4.62-3.08h5.56A5,5,0,0,0,1481.78,272.92Z"/><circle class="cls-21" cx="1422.66" cy="262.86" r="36.7"/><circle class="cls-14" cx="1418.72" cy="258.92" r="15.65"/><circle class="cls-13" cx="1422.66" cy="262.86" r="15.65"/><path class="cls-17" d="M1264.6,210.28a17.2,17.2,0,0,0,6.13-2.34,7.86,7.86,0,0,0,2.94-3.42,10.82,10.82,0,0,0,.79-4.08v-8.25a14.21,14.21,0,0,1,.62-4.54,4.5,4.5,0,0,1,2.36-2.65,11.84,11.84,0,0,1,5.07-.86v-9a52.9,52.9,0,0,0-7.85.54,16.32,16.32,0,0,0-6.2,2.15,10.58,10.58,0,0,0-4.07,4.76,20.18,20.18,0,0,0-1.46,8.37v6.25q0,4.35-1.89,6.3t-6.78,1.94v10.85q4.89,0,6.78,1.95t1.89,6.3v6.27a20.23,20.23,0,0,0,1.46,8.38,10.64,10.64,0,0,0,4.07,4.76,16.14,16.14,0,0,0,6.2,2.14,52.9,52.9,0,0,0,7.85.54v-9a11.84,11.84,0,0,1-5.07-.86,4.52,4.52,0,0,1-2.36-2.66,14,14,0,0,1-.62-4.5v-8.25a10.9,10.9,0,0,0-.79-4.11,7.86,7.86,0,0,0-2.94-3.42,17.2,17.2,0,0,0-6.13-2.34l-.2,0v-1.14Z"/><path class="cls-17" d="M1317.66,203.52q-1.9-2-1.9-6.3V191a20.18,20.18,0,0,0-1.46-8.37,10.58,10.58,0,0,0-4.07-4.76,16.34,16.34,0,0,0-6.18-2.15,52.89,52.89,0,0,0-7.87-.54v9a11.84,11.84,0,0,1,5.07.86,4.5,4.5,0,0,1,2.36,2.65,14.21,14.21,0,0,1,.62,4.54v8.25a10.82,10.82,0,0,0,.79,4.08,7.86,7.86,0,0,0,2.94,3.42,17.28,17.28,0,0,0,6.13,2.34l.2,0v1.14l-.2,0a17.28,17.28,0,0,0-6.13,2.34,7.86,7.86,0,0,0-2.94,3.42,10.9,10.9,0,0,0-.79,4.11v8.25a14,14,0,0,1-.62,4.5,4.52,4.52,0,0,1-2.36,2.66,11.84,11.84,0,0,1-5.07.86v9a52.89,52.89,0,0,0,7.87-.54,16.16,16.16,0,0,0,6.18-2.14,10.64,10.64,0,0,0,4.07-4.76,20.23,20.23,0,0,0,1.46-8.38v-6.27q0-4.35,1.9-6.3c1.28-1.3,3.53-1.95,6.77-1.95V205.46C1321.19,205.46,1318.94,204.81,1317.66,203.52Z"/></svg>