<svg id="Layer_1" data-name="Layer 1" xmlns="http://www.w3.org/2000/svg" viewBox="0 0 250 250"><defs><style>.cls-1{fill:#2470a9;}.cls-2{fill:none;stroke:#fff;stroke-linecap:round;stroke-linejoin:round;stroke-width:3px;}.cls-3{fill:#63d9b6;}</style></defs><rect class="cls-1" x="-551.16" y="-551.16" width="812.32" height="812.32"/><path class="cls-2" d="M171.75,211.87a4.4,4.4,0,1,1-4.4-4.39"/><path class="cls-2" d="M191.71,56a4.4,4.4,0,1,1-4.39-4.4"/><circle class="cls-2" cx="44.35" cy="96.3" r="3.86"/><circle class="cls-2" cx="112.47" cy="214.23" r="3.86"/><line class="cls-2" x1="39.93" y1="147.52" x2="39.93" y2="159.13"/><line class="cls-2" x1="43.25" y1="153.33" x2="36.6" y2="153.33"/><line class="cls-2" x1="195.04" y1="102.72" x2="195.04" y2="114.34"/><line class="cls-2" x1="198.37" y1="108.53" x2="191.71" y2="108.53"/><circle class="cls-3" cx="195.04" cy="169.48" r="3.84"/><circle class="cls-3" cx="57.14" cy="202.65" r="3.84"/><circle class="cls-3" cx="109.84" cy="49.1" r="3.84"/><path class="cls-2" d="M161.47,119q0-.63,0-1.26V92.14a26.33,26.33,0,0,0-26.32-26.32H109.63A26.32,26.32,0,0,0,83.31,92.14v25.55q0,.63,0,1.26Z"/><path class="cls-2" d="M147,119a16.26,16.26,0,0,0,4.53-11.26V92.14a16.34,16.34,0,0,0-16.32-16.32H109.63A16.35,16.35,0,0,0,93.3,92.14v15.55A16.31,16.31,0,0,0,97.83,119Z"/><path class="cls-2" d="M161.5,94a10.94,10.94,0,0,1,0,21.87Z"/><line class="cls-2" x1="166.97" y1="95.46" x2="166.97" y2="75.64"/><circle class="cls-2" cx="166.97" cy="71.5" r="4.14"/><path class="cls-2" d="M83.31,94a10.94,10.94,0,1,0,0,21.87Z"/><line class="cls-2" x1="77.84" y1="95.46" x2="77.84" y2="75.64"/><circle class="cls-2" cx="77.84" cy="71.5" r="4.14"/><circle class="cls-2" cx="108.97" cy="101.43" r="5.13"/><circle class="cls-2" cx="135.83" cy="101.43" r="5.13"/><line class="cls-2" x1="122.4" y1="65.82" x2="122.4" y2="70.62"/><rect class="cls-2" x="63.84" y="119.13" width="117.13" height="21.06" rx="6.32"/><rect class="cls-2" x="63.84" y="119.13" width="117.13" height="21.06" rx="6.32"/><path class="cls-2" d="M163.2,194.79H81.6c-3.43,0-6.26-3-6.47-6.88l-2.58-47.72h99.7l-2.58,47.72C169.46,191.78,166.63,194.79,163.2,194.79Z"/><path class="cls-2" d="M163.2,194.79H81.6c-3.43,0-6.26-3-6.47-6.88l-2.58-47.72h99.7l-2.58,47.72C169.46,191.78,166.63,194.79,163.2,194.79Z"/><rect class="cls-2" x="92.72" y="151.07" width="7.99" height="32.83" rx="3.11"/><rect class="cls-2" x="109.84" y="151.07" width="7.99" height="32.83" rx="3.11"/><rect class="cls-2" x="126.97" y="151.07" width="7.99" height="32.83" rx="3.11"/><rect class="cls-2" x="144.09" y="151.07" width="7.99" height="32.83" rx="3.11"/><circle class="cls-2" cx="122.4" cy="129.66" r="4.57"/><line class="cls-2" x1="122.4" y1="129.66" x2="69.59" y2="129.82"/></svg>