<svg xmlns="http://www.w3.org/2000/svg" version="1.1" xmlns:xlink="http://www.w3.org/1999/xlink" xmlns:svgjs="http://svgjs.com/svgjs" width="512" height="512" x="0" y="0" viewBox="0 0 682.66669 682.66669" style="enable-background:new 0 0 512 512" xml:space="preserve" class=""><g transform="matrix(0.6,0,0,0.6,136.53333282470703,136.53326797485352)">
  <defs id="defs2917" stroke-width="12" style="stroke-width: 12;">
    <clipPath clipPathUnits="userSpaceOnUse" id="clipPath2927" stroke-width="12" style="stroke-width: 12;">
      <path d="M 0,512 H 512 V 0 H 0 Z" id="path2925" fill="#23303d" data-original="#000000" class="" stroke-width="12" style="stroke-width: 12;"></path>
    </clipPath>
  </defs>
  <g id="g2919" transform="matrix(1.3333333,0,0,-1.3333333,0,682.66667)" stroke-width="12" style="stroke-width: 12;">
    <g id="g2921" stroke-width="12" style="stroke-width: 12;">
      <g id="g2923" clip-path="url(#clipPath2927)" stroke-width="12" style="stroke-width: 12;">
        <g id="g2929" transform="translate(482,10)" stroke-width="12" style="stroke-width: 12;">
          <path d="m 0,0 h -452 c -11.046,0 -20,8.954 -20,20 v 452 c 0,11.046 8.954,20 20,20 H 0 c 11.046,0 20,-8.954 20,-20 V 20 C 20,8.954 11.046,0 0,0" style="fill-opacity: 1; fill-rule: nonzero; stroke: none; stroke-width: 12;" id="path2931" fill="#edeff0" data-original="#e2e5ee" class="" stroke-width="12"></path>
        </g>
        <g id="g2933" transform="translate(482,502)" stroke-width="12" style="stroke-width: 12;">
          <path d="m 0,0 h -22 c 11.046,0 20,-8.954 20,-20 v -452 c 0,-11.046 -8.954,-20 -20,-20 H 0 c 11.046,0 20,8.954 20,20 V -20 C 20,-8.954 11.046,0 0,0" style="fill-opacity: 1; fill-rule: nonzero; stroke: none; stroke-width: 12;" id="path2935" fill="#edeff0" data-original="#ced3e2" class="" stroke-width="12"></path>
        </g>
        <g id="g2937" transform="translate(482,502)" stroke-width="12" style="stroke-width: 12;">
          <path d="m 0,0 h -452 c -11.046,0 -20,-8.954 -20,-20 V -94 H 20 v 74 C 20,-8.954 11.046,0 0,0" style="fill-opacity: 1; fill-rule: nonzero; stroke: none; stroke-width: 12;" id="path2939" fill="#4c5152" data-original="#355f7e" class="" stroke-width="12"></path>
        </g>
        <g id="g2941" transform="translate(482,502)" stroke-width="12" style="stroke-width: 12;">
          <path d="m 0,0 h -22 c 11.046,0 20,-8.954 20,-20 v -74 h 22 v 74 C 20,-8.954 11.046,0 0,0" style="fill-opacity: 1; fill-rule: nonzero; stroke: none; stroke-width: 12;" id="path2943" fill="#2b4d66" data-original="#2b4d66" class="" stroke-width="12"></path>
        </g>
        <g id="g2945" transform="translate(83,455)" stroke-width="12" style="stroke-width: 12;">
          <path d="m 0,0 c 0,-8.837 -7.163,-16 -16,-16 -8.837,0 -16,7.163 -16,16 0,8.837 7.163,16 16,16 C -7.163,16 0,8.837 0,0" style="fill-opacity: 1; fill-rule: nonzero; stroke: none; stroke-width: 12;" id="path2947" fill="#63d9b6" data-original="#97d57e" class="" stroke-width="12"></path>
        </g>
        <g id="g2949" transform="translate(146,455)" stroke-width="12" style="stroke-width: 12;">
          <path d="m 0,0 c 0,-8.837 -7.163,-16 -16,-16 -8.837,0 -16,7.163 -16,16 0,8.837 7.163,16 16,16 C -7.163,16 0,8.837 0,0" style="fill-opacity: 1; fill-rule: nonzero; stroke: none; stroke-width: 12;" id="path2951" fill="#e09932" data-original="#ffea84" class="" stroke-width="12"></path>
        </g>
        <g id="g2953" transform="translate(209,455)" stroke-width="12" style="stroke-width: 12;">
          <path d="m 0,0 c 0,-8.837 -7.163,-16 -16,-16 -8.837,0 -16,7.163 -16,16 0,8.837 7.163,16 16,16 C -7.163,16 0,8.837 0,0" style="fill-opacity: 1; fill-rule: nonzero; stroke: none; stroke-width: 12;" id="path2955" fill="#ea7f87" data-original="#ea7f87" class="" stroke-width="12"></path>
        </g>
        <g id="g2957" transform="translate(99.9286,208)" stroke-width="12" style="stroke-width: 12;">
          <path d="m 0,0 c 0,0 57.679,-95 156.071,-95 98.393,0 156.072,95 156.072,95 0,0 -57.679,95 -156.072,95 C 57.679,95 0,0 0,0" style="fill-opacity: 1; fill-rule: nonzero; stroke: none; stroke-width: 12;" id="path2959" fill="#ffffff" data-original="#d5f1fe" class="" stroke-width="12"></path>
        </g>
        <g id="g2961" transform="translate(396.1686,229.4612)" stroke-width="12" style="stroke-width: 12;">
          <path d="m 0,0 c -13.701,-19.958 -71.221,-95.071 -160.95,-95.071 -44.016,0 -80.278,18.08 -107.425,38.856 26.215,-27.129 70.111,-60.246 128.206,-60.246 98.393,0 156.072,95 156.072,95 0,0 -5.471,9.003 -15.903,21.461" style="fill-opacity: 1; fill-rule: nonzero; stroke: none; stroke-width: 12;" id="path2963" fill="#ffffff" data-original="#b4e7fd" class="" stroke-width="12"></path>
        </g>
        <g id="g2965" transform="translate(317.9196,208)" stroke-width="12" style="stroke-width: 12;">
          <path d="m 0,0 c 0,-34.197 -27.722,-61.92 -61.92,-61.92 -34.197,0 -61.919,27.723 -61.919,61.92 0,34.197 27.722,61.92 61.919,61.92 C -27.722,61.92 0,34.197 0,0" style="fill-opacity: 1; fill-rule: nonzero; stroke: none; stroke-width: 12;" id="path2967" fill="#2470a9" data-original="#a0cafe" class="" stroke-width="12"></path>
        </g>
        <g id="g2969" transform="translate(294.1496,256.7523)" stroke-width="12" style="stroke-width: 12;">
          <path d="m 0,0 c 8.241,-10.516 13.167,-23.753 13.167,-38.15 0,-34.197 -27.722,-61.919 -61.919,-61.919 -14.396,0 -27.634,4.926 -38.15,13.167 11.335,-14.464 28.951,-23.77 48.752,-23.77 34.198,0 61.92,27.722 61.92,61.92 C 23.77,-28.951 14.464,-11.335 0,0" style="fill-opacity: 1; fill-rule: nonzero; stroke: none; stroke-width: 12;" id="path2971" fill="#2470a9" data-original="#a0cafe" class="" stroke-width="12"></path>
        </g>
        <g id="g2973" transform="translate(282.2946,208)" stroke-width="12" style="stroke-width: 12;">
          <path d="m 0,0 c 0,-14.522 -11.773,-26.295 -26.295,-26.295 -14.522,0 -26.294,11.773 -26.294,26.295 0,14.522 11.772,26.295 26.294,26.295 C -11.773,26.295 0,14.522 0,0" style="fill-opacity: 1; fill-rule: nonzero; stroke: none; stroke-width: 12;" id="path2975" fill="#4c5152" data-original="#355f7e" class="" stroke-width="12"></path>
        </g>
        <g id="g2977" transform="translate(92,339)" stroke-width="12" style="stroke-width: 12;">
          <path d="m 0,0 c 0,-11.046 -8.954,-20 -20,-20 -11.046,0 -20,8.954 -20,20 0,11.046 8.954,20 20,20 C -8.954,20 0,11.046 0,0" style="fill-opacity: 1; fill-rule: nonzero; stroke: none; stroke-width: 12;" id="path2979" fill="#e09932" data-original="#ffea84" class="" stroke-width="12"></path>
        </g>
        <g id="g2981" transform="translate(276,347)" stroke-width="12" style="stroke-width: 12;">
          <path d="m 0,0 c 0,-11.046 -8.954,-20 -20,-20 -11.046,0 -20,8.954 -20,20 0,11.046 8.954,20 20,20 C -8.954,20 0,11.046 0,0" style="fill-opacity: 1; fill-rule: nonzero; stroke: none; stroke-width: 12;" id="path2983" fill="#e09932" data-original="#ffea84" class="" stroke-width="12"></path>
        </g>
        <g id="g2985" transform="translate(420,339)" stroke-width="12" style="stroke-width: 12;">
          <path d="m 0,0 c 0,-11.046 8.954,-20 20,-20 11.046,0 20,8.954 20,20 C 40,11.046 31.046,20 20,20 8.954,20 0,11.046 0,0" style="fill-opacity: 1; fill-rule: nonzero; stroke: none; stroke-width: 12;" id="path2987" fill="#e09932" data-original="#ffea84" class="" stroke-width="12"></path>
        </g>
        <g id="g2989" transform="translate(92,77)" stroke-width="12" style="stroke-width: 12;">
          <path d="m 0,0 c 0,11.046 -8.954,20 -20,20 -11.046,0 -20,-8.954 -20,-20 0,-11.046 8.954,-20 20,-20 11.046,0 20,8.954 20,20" style="fill-opacity: 1; fill-rule: nonzero; stroke: none; stroke-width: 12;" id="path2991" fill="#e09932" data-original="#ffea84" class="" stroke-width="12"></path>
        </g>
        <g id="g2993" transform="translate(420,77)" stroke-width="12" style="stroke-width: 12;">
          <path d="M 0,0 C 0,11.046 8.954,20 20,20 31.046,20 40,11.046 40,0 40,-11.046 31.046,-20 20,-20 8.954,-20 0,-11.046 0,0" style="fill-opacity: 1; fill-rule: nonzero; stroke: none; stroke-width: 12;" id="path2995" fill="#e09932" data-original="#ffea84" class="" stroke-width="12"></path>
        </g>
        <g id="g2997" transform="translate(276,69)" stroke-width="12" style="stroke-width: 12;">
          <path d="m 0,0 c 0,11.046 -8.954,20 -20,20 -11.046,0 -20,-8.954 -20,-20 0,-11.046 8.954,-20 20,-20 11.046,0 20,8.954 20,20" style="fill-opacity: 1; fill-rule: nonzero; stroke: none; stroke-width: 12;" id="path2999" fill="#e09932" data-original="#ffea84" class="" stroke-width="12"></path>
        </g>
        <g id="g3001" transform="translate(83,455)" stroke-width="12" style="stroke-width: 12;">
          <path d="m 0,0 c 0,-8.837 -7.163,-16 -16,-16 -8.837,0 -16,7.163 -16,16 0,8.837 7.163,16 16,16 C -7.163,16 0,8.837 0,0 Z" style="stroke-width: 12; stroke-linecap: round; stroke-linejoin: round; stroke-miterlimit: 10; stroke-dasharray: none; stroke-opacity: 1;" id="path3003" fill="none" stroke="#23303d" stroke-width="12" stroke-linecap="round" stroke-linejoin="round" stroke-miterlimit="10" stroke-dasharray="none" stroke-opacity="" data-original="#000000" class=""></path>
        </g>
        <g id="g3005" transform="translate(146,455)" stroke-width="12" style="stroke-width: 12;">
          <path d="m 0,0 c 0,-8.837 -7.163,-16 -16,-16 -8.837,0 -16,7.163 -16,16 0,8.837 7.163,16 16,16 C -7.163,16 0,8.837 0,0 Z" style="stroke-width: 12; stroke-linecap: round; stroke-linejoin: round; stroke-miterlimit: 10; stroke-dasharray: none; stroke-opacity: 1;" id="path3007" fill="none" stroke="#23303d" stroke-width="12" stroke-linecap="round" stroke-linejoin="round" stroke-miterlimit="10" stroke-dasharray="none" stroke-opacity="" data-original="#000000" class=""></path>
        </g>
        <g id="g3009" transform="translate(209,455)" stroke-width="12" style="stroke-width: 12;">
          <path d="m 0,0 c 0,-8.837 -7.163,-16 -16,-16 -8.837,0 -16,7.163 -16,16 0,8.837 7.163,16 16,16 C -7.163,16 0,8.837 0,0 Z" style="stroke-width: 12; stroke-linecap: round; stroke-linejoin: round; stroke-miterlimit: 10; stroke-dasharray: none; stroke-opacity: 1;" id="path3011" fill="none" stroke="#23303d" stroke-width="12" stroke-linecap="round" stroke-linejoin="round" stroke-miterlimit="10" stroke-dasharray="none" stroke-opacity="" data-original="#000000" class=""></path>
        </g>
        <g id="g3013" transform="translate(10,169.4583)" stroke-width="12" style="stroke-width: 12;">
          <path d="m 0,0 v 312.542 c 0,11.045 8.954,20 20,20 h 452 c 11.046,0 20,-8.955 20,-20 V 180.073" style="stroke-width: 12; stroke-linecap: round; stroke-linejoin: round; stroke-miterlimit: 10; stroke-dasharray: none; stroke-opacity: 1;" id="path3015" fill="none" stroke="#23303d" stroke-width="12" stroke-linecap="round" stroke-linejoin="round" stroke-miterlimit="10" stroke-dasharray="none" stroke-opacity="" data-original="#000000" class=""></path>
        </g>
        <g id="g3017" transform="translate(502,314.4844)" stroke-width="12" style="stroke-width: 12;">
          <path d="m 0,0 v -284.484 c 0,-11.046 -8.954,-20 -20,-20 h -452 c -11.046,0 -20,8.954 -20,20 v 104.468" style="stroke-width: 12; stroke-linecap: round; stroke-linejoin: round; stroke-miterlimit: 10; stroke-dasharray: none; stroke-opacity: 1;" id="path3019" fill="none" stroke="#23303d" stroke-width="12" stroke-linecap="round" stroke-linejoin="round" stroke-miterlimit="10" stroke-dasharray="none" stroke-opacity="" data-original="#000000" class=""></path>
        </g>
        <g id="g3021" transform="translate(10,408)" stroke-width="12" style="stroke-width: 12;">
          <path d="M 0,0 H 492" style="stroke-width: 12; stroke-linecap: round; stroke-linejoin: round; stroke-miterlimit: 10; stroke-dasharray: none; stroke-opacity: 1;" id="path3023" fill="none" stroke="#23303d" stroke-width="12" stroke-linecap="round" stroke-linejoin="round" stroke-miterlimit="10" stroke-dasharray="none" stroke-opacity="" data-original="#000000" class=""></path>
        </g>
        <g id="g3025" transform="translate(188.9364,287.6105)" stroke-width="12" style="stroke-width: 12;">
          <path d="m 0,0 c -57.001,-26.893 -89.008,-79.61 -89.008,-79.61 0,0 57.679,-95 156.072,-95 98.392,0 156.071,95 156.071,95 0,0 -57.679,95 -156.071,95 -11.919,0 -23.24,-1.394 -33.934,-3.845" style="stroke-width: 12; stroke-linecap: round; stroke-linejoin: round; stroke-miterlimit: 10; stroke-dasharray: none; stroke-opacity: 1;" id="path3027" fill="none" stroke="#23303d" stroke-width="12" stroke-linecap="round" stroke-linejoin="round" stroke-miterlimit="10" stroke-dasharray="none" stroke-opacity="" data-original="#000000" class=""></path>
        </g>
        <g id="g3029" transform="translate(282.2946,208)" stroke-width="12" style="stroke-width: 12;">
          <path d="m 0,0 c 0,-14.522 -11.773,-26.295 -26.295,-26.295 -14.522,0 -26.294,11.773 -26.294,26.295 0,14.522 11.772,26.295 26.294,26.295 C -11.773,26.295 0,14.522 0,0 Z" style="stroke-width: 12; stroke-linecap: round; stroke-linejoin: round; stroke-miterlimit: 10; stroke-dasharray: none; stroke-opacity: 1;" id="path3031" fill="none" stroke="#23303d" stroke-width="12" stroke-linecap="round" stroke-linejoin="round" stroke-miterlimit="10" stroke-dasharray="none" stroke-opacity="" data-original="#000000" class=""></path>
        </g>
        <g id="g3033" transform="translate(317.9196,208)" stroke-width="12" style="stroke-width: 12;">
          <path d="m 0,0 c 0,-34.197 -27.722,-61.92 -61.92,-61.92 -34.197,0 -61.919,27.723 -61.919,61.92 0,34.197 27.722,61.92 61.919,61.92 C -27.722,61.92 0,34.197 0,0 Z" style="stroke-width: 12; stroke-linecap: round; stroke-linejoin: round; stroke-miterlimit: 10; stroke-dasharray: none; stroke-opacity: 1;" id="path3035" fill="none" stroke="#23303d" stroke-width="12" stroke-linecap="round" stroke-linejoin="round" stroke-miterlimit="10" stroke-dasharray="none" stroke-opacity="" data-original="#000000" class=""></path>
        </g>
        <g id="g3037" transform="translate(92,339)" stroke-width="12" style="stroke-width: 12;">
          <path d="m 0,0 c 0,-11.046 -8.954,-20 -20,-20 -11.046,0 -20,8.954 -20,20 0,11.046 8.954,20 20,20 C -8.954,20 0,11.046 0,0 Z" style="stroke-width: 12; stroke-linecap: round; stroke-linejoin: round; stroke-miterlimit: 10; stroke-dasharray: none; stroke-opacity: 1;" id="path3039" fill="none" stroke="#23303d" stroke-width="12" stroke-linecap="round" stroke-linejoin="round" stroke-miterlimit="10" stroke-dasharray="none" stroke-opacity="" data-original="#000000" class=""></path>
        </g>
        <g id="g3041" transform="translate(276,347)" stroke-width="12" style="stroke-width: 12;">
          <path d="m 0,0 c 0,-11.046 -8.954,-20 -20,-20 -11.046,0 -20,8.954 -20,20 0,11.046 8.954,20 20,20 C -8.954,20 0,11.046 0,0 Z" style="stroke-width: 12; stroke-linecap: round; stroke-linejoin: round; stroke-miterlimit: 10; stroke-dasharray: none; stroke-opacity: 1;" id="path3043" fill="none" stroke="#23303d" stroke-width="12" stroke-linecap="round" stroke-linejoin="round" stroke-miterlimit="10" stroke-dasharray="none" stroke-opacity="" data-original="#000000" class=""></path>
        </g>
        <g id="g3045" transform="translate(92,339)" stroke-width="12" style="stroke-width: 12;">
          <path d="M 0,0 H 40 C 51.046,0 60,-8.954 60,-20 V -73" style="stroke-width: 12; stroke-linecap: round; stroke-linejoin: round; stroke-miterlimit: 10; stroke-dasharray: none; stroke-opacity: 1;" id="path3047" fill="none" stroke="#23303d" stroke-width="12" stroke-linecap="round" stroke-linejoin="round" stroke-miterlimit="10" stroke-dasharray="none" stroke-opacity="" data-original="#000000" class=""></path>
        </g>
        <g id="g3049" transform="translate(420,339)" stroke-width="12" style="stroke-width: 12;">
          <path d="m 0,0 c 0,-11.046 8.954,-20 20,-20 11.046,0 20,8.954 20,20 C 40,11.046 31.046,20 20,20 8.954,20 0,11.046 0,0 Z" style="stroke-width: 12; stroke-linecap: round; stroke-linejoin: round; stroke-miterlimit: 10; stroke-dasharray: none; stroke-opacity: 1;" id="path3051" fill="none" stroke="#23303d" stroke-width="12" stroke-linecap="round" stroke-linejoin="round" stroke-miterlimit="10" stroke-dasharray="none" stroke-opacity="" data-original="#000000" class=""></path>
        </g>
        <g id="g3053" transform="translate(420,339)" stroke-width="12" style="stroke-width: 12;">
          <path d="M 0,0 H -40 C -51.046,0 -60,-8.954 -60,-20 V -74" style="stroke-width: 12; stroke-linecap: round; stroke-linejoin: round; stroke-miterlimit: 10; stroke-dasharray: none; stroke-opacity: 1;" id="path3055" fill="none" stroke="#23303d" stroke-width="12" stroke-linecap="round" stroke-linejoin="round" stroke-miterlimit="10" stroke-dasharray="none" stroke-opacity="" data-original="#000000" class=""></path>
        </g>
        <g id="g3057" transform="translate(92,77)" stroke-width="12" style="stroke-width: 12;">
          <path d="m 0,0 c 0,11.046 -8.954,20 -20,20 -11.046,0 -20,-8.954 -20,-20 0,-11.046 8.954,-20 20,-20 11.046,0 20,8.954 20,20 z" style="stroke-width: 12; stroke-linecap: round; stroke-linejoin: round; stroke-miterlimit: 10; stroke-dasharray: none; stroke-opacity: 1;" id="path3059" fill="none" stroke="#23303d" stroke-width="12" stroke-linecap="round" stroke-linejoin="round" stroke-miterlimit="10" stroke-dasharray="none" stroke-opacity="" data-original="#000000" class=""></path>
        </g>
        <g id="g3061" transform="translate(92,77)" stroke-width="12" style="stroke-width: 12;">
          <path d="M 0,0 H 40 C 51.046,0 60,8.954 60,20 V 73" style="stroke-width: 12; stroke-linecap: round; stroke-linejoin: round; stroke-miterlimit: 10; stroke-dasharray: none; stroke-opacity: 1;" id="path3063" fill="none" stroke="#23303d" stroke-width="12" stroke-linecap="round" stroke-linejoin="round" stroke-miterlimit="10" stroke-dasharray="none" stroke-opacity="" data-original="#000000" class=""></path>
        </g>
        <g id="g3065" transform="translate(420,77)" stroke-width="12" style="stroke-width: 12;">
          <path d="M 0,0 C 0,11.046 8.954,20 20,20 31.046,20 40,11.046 40,0 40,-11.046 31.046,-20 20,-20 8.954,-20 0,-11.046 0,0 Z" style="stroke-width: 12; stroke-linecap: round; stroke-linejoin: round; stroke-miterlimit: 10; stroke-dasharray: none; stroke-opacity: 1;" id="path3067" fill="none" stroke="#23303d" stroke-width="12" stroke-linecap="round" stroke-linejoin="round" stroke-miterlimit="10" stroke-dasharray="none" stroke-opacity="" data-original="#000000" class=""></path>
        </g>
        <g id="g3069" transform="translate(420,77)" stroke-width="12" style="stroke-width: 12;">
          <path d="M 0,0 H -40 C -51.046,0 -60,8.954 -60,20 V 74" style="stroke-width: 12; stroke-linecap: round; stroke-linejoin: round; stroke-miterlimit: 10; stroke-dasharray: none; stroke-opacity: 1;" id="path3071" fill="none" stroke="#23303d" stroke-width="12" stroke-linecap="round" stroke-linejoin="round" stroke-miterlimit="10" stroke-dasharray="none" stroke-opacity="" data-original="#000000" class=""></path>
        </g>
        <g id="g3073" transform="translate(256,303)" stroke-width="12" style="stroke-width: 12;">
          <path d="M 0,0 V 24" style="stroke-width: 12; stroke-linecap: round; stroke-linejoin: round; stroke-miterlimit: 10; stroke-dasharray: none; stroke-opacity: 1;" id="path3075" fill="none" stroke="#23303d" stroke-width="12" stroke-linecap="round" stroke-linejoin="round" stroke-miterlimit="10" stroke-dasharray="none" stroke-opacity="" data-original="#000000" class=""></path>
        </g>
        <g id="g3077" transform="translate(276,69)" stroke-width="12" style="stroke-width: 12;">
          <path d="m 0,0 c 0,11.046 -8.954,20 -20,20 -11.046,0 -20,-8.954 -20,-20 0,-11.046 8.954,-20 20,-20 11.046,0 20,8.954 20,20 z" style="stroke-width: 12; stroke-linecap: round; stroke-linejoin: round; stroke-miterlimit: 10; stroke-dasharray: none; stroke-opacity: 1;" id="path3079" fill="none" stroke="#23303d" stroke-width="12" stroke-linecap="round" stroke-linejoin="round" stroke-miterlimit="10" stroke-dasharray="none" stroke-opacity="" data-original="#000000" class=""></path>
        </g>
        <g id="g3081" transform="translate(256,113)" stroke-width="12" style="stroke-width: 12;">
          <path d="M 0,0 V -24" style="stroke-width: 12; stroke-linecap: round; stroke-linejoin: round; stroke-miterlimit: 10; stroke-dasharray: none; stroke-opacity: 1;" id="path3083" fill="none" stroke="#23303d" stroke-width="12" stroke-linecap="round" stroke-linejoin="round" stroke-miterlimit="10" stroke-dasharray="none" stroke-opacity="" data-original="#000000" class=""></path>
        </g>
      </g>
    </g>
  </g>
</g></svg>