<?xml version="1.0" encoding="utf-8"?>
<!-- Generator: Adobe Illustrator 27.1.1, SVG Export Plug-In . SVG Version: 6.00 Build 0)  -->
<svg version="1.1" id="Ebene_1" xmlns="http://www.w3.org/2000/svg" xmlns:xlink="http://www.w3.org/1999/xlink" x="0px" y="0px"
	 viewBox="0 0 574 1063.9" style="enable-background:new 0 0 574 1063.9;" xml:space="preserve">
<style type="text/css">
	.st0{display:none;}
	.st1{fill:#FFFFFF;stroke:#2470A9;stroke-width:2;stroke-miterlimit:10;}
	.st2{fill:none;}
	.st3{enable-background:new    ;}
	.st4{fill:#2470A9;}
	.st5{fill:#FFFFFF;}
	.st6{fill:#2470A9;stroke:#FFFFFF;stroke-width:2;stroke-miterlimit:10;}
	.st7{fill:none;stroke:#2470A9;stroke-width:2;stroke-miterlimit:10;}
	.st8{fill:none;stroke:#4C5152;stroke-width:2;stroke-miterlimit:10;}
	.st9{fill:#4C5152;}
	.st10{fill:#63D9B6;}
	.st11{fill:#E6E6E6;stroke:#2470A9;stroke-miterlimit:10;}
	.st12{fill:#97A2A6;}
	.st13{fill:#23303D;}
</style>
<g id="Ebene_1_00000081621590208206573010000007638410074473595294_" class="st0">
	
		<image style="display:inline;overflow:visible;opacity:0.32;enable-background:new    ;" width="3334" height="2500" xlink:href="Quellen/Microservice-Architecture-01.png"  transform="matrix(0.24 0 0 0.24 502 -29)">
	</image>
</g>
<g id="Ebene_4">
</g>
<g id="Microservice">
	<g>
		<path class="st1" d="M430.5,1041.9H142.2c-60.8,0-110.5-47-110.5-104.4V541.8c0-57.5,49.7-104.4,110.5-104.4h288.3
			c60.8,0,110.5,47,110.5,104.4v395.6C541,994.9,491.3,1041.9,430.5,1041.9z"/>
		<rect x="51.2" y="463.6" class="st2" width="467.1" height="69.4"/>
		<g class="st3">
			<path d="M147.4,463.6h3.3l4.3,19.7l4.3-19.7h3.3l0.4,24.3h-2.7l-0.3-17.6l-4.1,17.6H154l-4.1-17.6l-0.3,17.6h-2.8L147.4,463.6z"
				/>
			<path d="M166.7,464.6h3.2v3.4h-3.2V464.6z M166.7,470.5h3.2v17.3h-3.2V470.5z"/>
			<path d="M173.1,481.2v-4c0-4.3,0.9-6.9,5.1-6.9c3.8,0,4.7,1.9,4.7,5.5v1H180v-1c0-2.2-0.4-3.1-1.8-3.1c-1.6,0-1.9,1-1.9,3.9v5.5
				c0,3,0.5,3.7,1.9,3.7c1.6,0,1.8-1.2,1.8-3v-1.4h2.9v1.2c0,3.5-1,5.6-4.7,5.6C173.9,488.1,173.1,485.4,173.1,481.2z"/>
			<path d="M185.8,470.5h3.2v2.5c1.3-2.1,2.5-2.7,3.8-2.7c0.1,0,0.3,0,0.5,0v3.5c-0.5-0.2-1.1-0.4-1.8-0.4c-1,0-1.8,0.4-2.6,1.7
				v12.7h-3.2V470.5z"/>
			<path d="M195.1,481.7v-5c0-3.9,1.2-6.4,5.1-6.4c3.8,0,5,2.5,5,6.4v5c0,3.9-1.2,6.4-5,6.4C196.3,488.1,195.1,485.6,195.1,481.7z
				 M202,481.9v-5.4c0-2,0-3.8-1.8-3.8c-1.9,0-1.9,1.9-1.9,3.8v5.4c0,1.9,0,3.8,1.9,3.8C202,485.8,202,483.9,202,481.9z"/>
			<path d="M207.2,483.3l2.7-0.8c0.3,2.2,1,3.3,2.5,3.3c1.1,0,1.8-0.7,1.8-1.8c0-1-0.4-1.7-1.4-2.6l-3-2.5c-1.2-1-2.1-2.2-2.1-4.2
				c0-2.7,1.8-4.3,4.5-4.3c2.8,0,4.2,2,4.4,4.6l-2.2,0.8c-0.2-1.8-0.8-3-2.1-3c-1,0-1.7,0.8-1.7,1.8c0,0.6,0.2,1.2,0.9,1.7l3.1,2.8
				c1.2,1.1,2.5,2.5,2.5,4.7c0,3-1.9,4.4-4.8,4.4C209.3,488.1,207.5,486.2,207.2,483.3z"/>
			<path d="M219,481.2v-4c0-4.6,1.1-6.9,5.1-6.9c4.3,0,4.9,2.8,4.9,7.6v1.4h-6.8v3.5c0,2.1,0.6,3,1.9,3c1.4,0,1.7-1.1,1.7-2.8v-1
				h3.1v0.7c0,3.5-1.4,5.6-4.9,5.6C220,488.1,219,485.7,219,481.2z M225.9,477.5V476c0-2.1-0.2-3.3-1.8-3.3c-1.6,0-1.9,0.9-1.9,3.9
				v0.9H225.9z"/>
			<path d="M232,470.5h3.2v2.5c1.3-2.1,2.5-2.7,3.8-2.7c0.1,0,0.3,0,0.5,0v3.5c-0.5-0.2-1.1-0.4-1.8-0.4c-1,0-1.8,0.4-2.6,1.7v12.7
				H232V470.5z"/>
			<path d="M240.4,470.5h3.2l2.1,13.9l2.2-13.9h3.1l-3.3,17.3h-3.9L240.4,470.5z"/>
			<path d="M253.3,464.6h3.2v3.4h-3.2V464.6z M253.3,470.5h3.2v17.3h-3.2V470.5z"/>
			<path d="M259.7,481.2v-4c0-4.3,0.9-6.9,5.1-6.9c3.8,0,4.7,1.9,4.7,5.5v1h-2.9v-1c0-2.2-0.4-3.1-1.8-3.1c-1.6,0-1.9,1-1.9,3.9v5.5
				c0,3,0.5,3.7,1.9,3.7c1.6,0,1.8-1.2,1.8-3v-1.4h2.9v1.2c0,3.5-1,5.6-4.7,5.6C260.5,488.1,259.7,485.4,259.7,481.2z"/>
			<path d="M272,481.2v-4c0-4.6,1.1-6.9,5.1-6.9c4.3,0,4.9,2.8,4.9,7.6v1.4h-6.8v3.5c0,2.1,0.6,3,1.9,3c1.4,0,1.7-1.1,1.7-2.8v-1
				h3.1v0.7c0,3.5-1.4,5.6-4.9,5.6C273.1,488.1,272,485.7,272,481.2z M278.9,477.5V476c0-2.1-0.2-3.3-1.8-3.3
				c-1.6,0-1.9,0.9-1.9,3.9v0.9H278.9z"/>
			<path d="M295.9,463.6h3.3l5.2,24.3h-3.2l-1.1-6.1h-4.9l-1.2,6.1h-3.2L295.9,463.6z M299.6,479.3l-2-10.9l-2,10.9H299.6z"/>
			<path d="M306.7,470.5h3.2v2.5c1.3-2.1,2.5-2.7,3.8-2.7c0.1,0,0.3,0,0.5,0v3.5c-0.5-0.2-1.1-0.4-1.8-0.4c-1,0-1.8,0.4-2.6,1.7
				v12.7h-3.2V470.5z"/>
			<path d="M315.9,481.2v-4c0-4.3,0.9-6.9,5.1-6.9c3.8,0,4.7,1.9,4.7,5.5v1h-2.9v-1c0-2.2-0.4-3.1-1.8-3.1c-1.6,0-1.9,1-1.9,3.9v5.5
				c0,3,0.5,3.7,1.9,3.7c1.6,0,1.8-1.2,1.8-3v-1.4h2.9v1.2c0,3.5-1,5.6-4.7,5.6C316.7,488.1,315.9,485.4,315.9,481.2z"/>
			<path d="M328.6,463.6h3.2v8.8c1.2-1.1,2.6-2,4.3-2c2,0,2.6,1.9,2.6,3.5v14h-3.2v-13.1c0-1.2-0.3-2-1.4-2c-0.8,0-1.6,0.5-2.3,1.1
				v13.9h-3.2V463.6z"/>
			<path d="M342.1,464.6h3.2v3.4h-3.2V464.6z M342.1,470.5h3.2v17.3h-3.2V470.5z"/>
			<path d="M349.6,484v-11.3h-1.8v-2.1h1.8v-5.1h3.2v5.1h2.8v2.1h-2.8v11.1c0,1.3,0.3,1.9,1.6,1.9c0.3,0,0.8,0,1.2-0.1v2.4
				c-0.8,0.1-1.4,0.2-2.2,0.2C350.7,488.1,349.6,486.5,349.6,484z"/>
			<path d="M357.7,481.2v-4c0-4.6,1.1-6.9,5.1-6.9c4.3,0,4.9,2.8,4.9,7.6v1.4h-6.8v3.5c0,2.1,0.6,3,1.9,3c1.4,0,1.7-1.1,1.7-2.8v-1
				h3.1v0.7c0,3.5-1.4,5.6-4.9,5.6C358.7,488.1,357.7,485.7,357.7,481.2z M364.6,477.5V476c0-2.1-0.2-3.3-1.8-3.3
				c-1.6,0-1.9,0.9-1.9,3.9v0.9H364.6z"/>
			<path d="M370.3,481.2v-4c0-4.3,0.9-6.9,5.1-6.9c3.8,0,4.7,1.9,4.7,5.5v1h-2.9v-1c0-2.2-0.4-3.1-1.8-3.1c-1.6,0-1.9,1-1.9,3.9v5.5
				c0,3,0.5,3.7,1.9,3.7c1.6,0,1.8-1.2,1.8-3v-1.4h2.9v1.2c0,3.5-1,5.6-4.7,5.6C371.1,488.1,370.3,485.4,370.3,481.2z"/>
			<path d="M383.8,484v-11.3H382v-2.1h1.8v-5.1h3.2v5.1h2.8v2.1h-2.8v11.1c0,1.3,0.3,1.9,1.6,1.9c0.3,0,0.8,0,1.2-0.1v2.4
				c-0.8,0.1-1.4,0.2-2.2,0.2C384.9,488.1,383.8,486.5,383.8,484z"/>
			<path d="M392.1,484.6v-14h3.2v13.1c0,1.2,0.3,2,1.4,2c0.7,0,1.5-0.5,2.2-1.1v-14h3.2v17.3h-3.2v-1.7c-1.1,1.1-2.5,2-4.2,2
				C392.6,488.1,392.1,486.3,392.1,484.6z"/>
			<path d="M405.5,470.5h3.2v2.5c1.3-2.1,2.5-2.7,3.8-2.7c0.1,0,0.3,0,0.5,0v3.5c-0.5-0.2-1.1-0.4-1.8-0.4c-1,0-1.8,0.4-2.6,1.7
				v12.7h-3.2V470.5z"/>
			<path d="M414.7,481.2v-4c0-4.6,1.1-6.9,5.1-6.9c4.3,0,4.9,2.8,4.9,7.6v1.4h-6.8v3.5c0,2.1,0.6,3,1.9,3c1.4,0,1.7-1.1,1.7-2.8v-1
				h3.1v0.7c0,3.5-1.4,5.6-4.9,5.6C415.8,488.1,414.7,485.7,414.7,481.2z M421.6,477.5V476c0-2.1-0.2-3.3-1.8-3.3
				c-1.6,0-1.9,0.9-1.9,3.9v0.9H421.6z"/>
		</g>
		<g>
			<rect x="379.1" y="606.6" class="st4" width="151" height="62.2"/>
			<rect x="379.3" y="629.8" class="st2" width="150.5" height="15.3"/>
			<g class="st3">
				<path class="st5" d="M401.5,630.6l4.6,11.6l4.6-11.6h2.4v14.2h-1.9v-5.5l0.2-6l-4.7,11.5h-1.4l-4.7-11.5l0.2,5.9v5.5h-1.9v-14.2
					H401.5z"/>
				<path class="st5" d="M416.3,631.4c0-0.3,0.1-0.5,0.3-0.7c0.2-0.2,0.4-0.3,0.8-0.3s0.6,0.1,0.8,0.3c0.2,0.2,0.3,0.4,0.3,0.7
					s-0.1,0.5-0.3,0.7c-0.2,0.2-0.4,0.3-0.8,0.3s-0.6-0.1-0.8-0.3C416.4,632,416.3,631.7,416.3,631.4z M418.2,644.8h-1.8v-10.6h1.8
					V644.8z"/>
				<path class="st5" d="M425.4,643.5c0.6,0,1.2-0.2,1.7-0.6c0.5-0.4,0.7-0.9,0.8-1.5h1.7c0,0.6-0.2,1.2-0.6,1.7
					c-0.4,0.5-0.9,1-1.5,1.3c-0.6,0.3-1.3,0.5-2,0.5c-1.4,0-2.6-0.5-3.4-1.4s-1.3-2.3-1.3-3.9v-0.3c0-1,0.2-1.9,0.6-2.7
					c0.4-0.8,0.9-1.4,1.6-1.9c0.7-0.4,1.5-0.7,2.5-0.7c1.2,0,2.2,0.4,3,1.1c0.8,0.7,1.2,1.6,1.3,2.8h-1.7c-0.1-0.7-0.3-1.2-0.8-1.7
					c-0.5-0.4-1-0.7-1.7-0.7c-0.9,0-1.6,0.3-2.1,1c-0.5,0.7-0.8,1.6-0.8,2.9v0.3c0,1.2,0.2,2.2,0.8,2.8
					C423.7,643.2,424.4,643.5,425.4,643.5z"/>
				<path class="st5" d="M436.7,635.9c-0.3,0-0.6-0.1-0.9-0.1c-1.2,0-2,0.5-2.4,1.5v7.5h-1.8v-10.6h1.8l0,1.2
					c0.6-0.9,1.4-1.4,2.5-1.4c0.4,0,0.6,0,0.8,0.1V635.9z"/>
				<path class="st5" d="M437.7,639.4c0-1,0.2-2,0.6-2.8c0.4-0.8,1-1.5,1.7-1.9c0.7-0.4,1.6-0.7,2.5-0.7c1.4,0,2.6,0.5,3.5,1.5
					s1.3,2.3,1.3,4v0.1c0,1-0.2,2-0.6,2.8c-0.4,0.8-1,1.5-1.7,1.9s-1.6,0.7-2.5,0.7c-1.4,0-2.6-0.5-3.5-1.5s-1.3-2.3-1.3-4V639.4z
					 M439.5,639.7c0,1.2,0.3,2.1,0.8,2.8c0.5,0.7,1.3,1.1,2.2,1.1c0.9,0,1.6-0.4,2.2-1.1c0.5-0.7,0.8-1.7,0.8-3
					c0-1.2-0.3-2.1-0.8-2.8c-0.6-0.7-1.3-1.1-2.2-1.1c-0.9,0-1.6,0.4-2.2,1.1S439.5,638.3,439.5,639.7z"/>
				<path class="st5" d="M455.7,642c0-0.5-0.2-0.9-0.6-1.1c-0.4-0.3-1-0.5-1.9-0.7c-0.9-0.2-1.6-0.4-2.2-0.7s-0.9-0.6-1.2-1
					c-0.3-0.4-0.4-0.8-0.4-1.3c0-0.9,0.4-1.6,1.1-2.2s1.7-0.9,2.8-0.9c1.2,0,2.2,0.3,2.9,0.9c0.7,0.6,1.1,1.4,1.1,2.4h-1.8
					c0-0.5-0.2-0.9-0.6-1.3s-0.9-0.5-1.6-0.5c-0.7,0-1.2,0.1-1.5,0.4s-0.6,0.7-0.6,1.1c0,0.4,0.2,0.8,0.5,1c0.3,0.2,1,0.4,1.9,0.6
					c0.9,0.2,1.6,0.4,2.2,0.7c0.6,0.3,1,0.6,1.2,1c0.3,0.4,0.4,0.9,0.4,1.4c0,0.9-0.4,1.7-1.1,2.3c-0.8,0.6-1.7,0.9-2.9,0.9
					c-0.8,0-1.6-0.1-2.2-0.4c-0.7-0.3-1.2-0.7-1.5-1.3c-0.4-0.5-0.6-1.1-0.6-1.7h1.8c0,0.6,0.3,1.1,0.7,1.4c0.5,0.4,1,0.5,1.8,0.5
					c0.7,0,1.2-0.1,1.6-0.4C455.5,642.8,455.7,642.5,455.7,642z"/>
				<path class="st5" d="M464.3,645c-1.4,0-2.6-0.5-3.5-1.4s-1.3-2.2-1.3-3.8v-0.3c0-1,0.2-2,0.6-2.8s1-1.5,1.7-1.9
					c0.7-0.5,1.5-0.7,2.3-0.7c1.4,0,2.4,0.5,3.2,1.4s1.1,2.2,1.1,3.9v0.8h-7.2c0,1,0.3,1.9,0.9,2.5c0.6,0.6,1.3,1,2.2,1
					c0.6,0,1.2-0.1,1.6-0.4c0.4-0.3,0.8-0.6,1.2-1l1.1,0.9C467.4,644.3,466,645,464.3,645z M464,635.5c-0.7,0-1.3,0.3-1.8,0.8
					c-0.5,0.5-0.8,1.3-0.9,2.2h5.3v-0.1c-0.1-0.9-0.3-1.6-0.7-2.1C465.4,635.8,464.8,635.5,464,635.5z"/>
				<path class="st5" d="M475.6,635.9c-0.3,0-0.6-0.1-0.9-0.1c-1.2,0-2,0.5-2.4,1.5v7.5h-1.8v-10.6h1.8l0,1.2
					c0.6-0.9,1.4-1.4,2.5-1.4c0.4,0,0.6,0,0.8,0.1V635.9z"/>
				<path class="st5" d="M480.9,642.4l2.6-8.1h1.8l-3.8,10.6h-1.4l-3.8-10.6h1.8L480.9,642.4z"/>
				<path class="st5" d="M487.1,631.4c0-0.3,0.1-0.5,0.3-0.7c0.2-0.2,0.4-0.3,0.8-0.3s0.6,0.1,0.8,0.3c0.2,0.2,0.3,0.4,0.3,0.7
					s-0.1,0.5-0.3,0.7c-0.2,0.2-0.4,0.3-0.8,0.3s-0.6-0.1-0.8-0.3C487.2,632,487.1,631.7,487.1,631.4z M489.1,644.8h-1.8v-10.6h1.8
					V644.8z"/>
				<path class="st5" d="M496.2,643.5c0.6,0,1.2-0.2,1.7-0.6c0.5-0.4,0.7-0.9,0.8-1.5h1.7c0,0.6-0.2,1.2-0.6,1.7
					c-0.4,0.5-0.9,1-1.5,1.3c-0.6,0.3-1.3,0.5-2,0.5c-1.4,0-2.6-0.5-3.4-1.4s-1.3-2.3-1.3-3.9v-0.3c0-1,0.2-1.9,0.6-2.7
					c0.4-0.8,0.9-1.4,1.6-1.9c0.7-0.4,1.5-0.7,2.5-0.7c1.2,0,2.2,0.4,3,1.1c0.8,0.7,1.2,1.6,1.3,2.8h-1.7c-0.1-0.7-0.3-1.2-0.8-1.7
					c-0.5-0.4-1-0.7-1.7-0.7c-0.9,0-1.6,0.3-2.1,1c-0.5,0.7-0.8,1.6-0.8,2.9v0.3c0,1.2,0.2,2.2,0.8,2.8
					C494.6,643.2,495.3,643.5,496.2,643.5z"/>
				<path class="st5" d="M506.8,645c-1.4,0-2.6-0.5-3.5-1.4s-1.3-2.2-1.3-3.8v-0.3c0-1,0.2-2,0.6-2.8s1-1.5,1.7-1.9
					c0.7-0.5,1.5-0.7,2.3-0.7c1.4,0,2.4,0.5,3.2,1.4s1.1,2.2,1.1,3.9v0.8h-7.2c0,1,0.3,1.9,0.9,2.5c0.6,0.6,1.3,1,2.2,1
					c0.6,0,1.2-0.1,1.6-0.4c0.4-0.3,0.8-0.6,1.2-1l1.1,0.9C509.9,644.3,508.6,645,506.8,645z M506.6,635.5c-0.7,0-1.3,0.3-1.8,0.8
					c-0.5,0.5-0.8,1.3-0.9,2.2h5.3v-0.1c-0.1-0.9-0.3-1.6-0.7-2.1C507.9,635.8,507.3,635.5,506.6,635.5z"/>
			</g>
		</g>
		<g>
			<rect x="43.1" y="740.6" class="st4" width="151" height="62.2"/>
			<rect x="43.3" y="763.8" class="st2" width="150.5" height="15.3"/>
			<g class="st3">
				<path class="st5" d="M65.5,764.6l4.6,11.6l4.6-11.6h2.4v14.2h-1.9v-5.5l0.2-6l-4.7,11.5h-1.4l-4.7-11.5l0.2,5.9v5.5h-1.9v-14.2
					H65.5z"/>
				<path class="st5" d="M80.3,765.4c0-0.3,0.1-0.5,0.3-0.7s0.4-0.3,0.8-0.3s0.6,0.1,0.8,0.3s0.3,0.4,0.3,0.7s-0.1,0.5-0.3,0.7
					s-0.4,0.3-0.8,0.3s-0.6-0.1-0.8-0.3S80.3,765.7,80.3,765.4z M82.2,778.8h-1.8v-10.6h1.8V778.8z"/>
				<path class="st5" d="M89.4,777.5c0.6,0,1.2-0.2,1.7-0.6s0.7-0.9,0.8-1.5h1.7c0,0.6-0.2,1.2-0.6,1.7s-0.9,1-1.5,1.3
					s-1.3,0.5-2,0.5c-1.4,0-2.6-0.5-3.4-1.4s-1.3-2.3-1.3-3.9v-0.3c0-1,0.2-1.9,0.6-2.7s0.9-1.4,1.6-1.9s1.5-0.7,2.5-0.7
					c1.2,0,2.2,0.4,3,1.1s1.2,1.6,1.3,2.8h-1.7c-0.1-0.7-0.3-1.2-0.8-1.7s-1-0.7-1.7-0.7c-0.9,0-1.6,0.3-2.1,1s-0.8,1.6-0.8,2.9v0.3
					c0,1.2,0.3,2.2,0.8,2.8S88.4,777.5,89.4,777.5z"/>
				<path class="st5" d="M100.7,769.9c-0.3,0-0.6-0.1-0.9-0.1c-1.2,0-2,0.5-2.4,1.5v7.5h-1.8v-10.6h1.8l0,1.2
					c0.6-0.9,1.4-1.4,2.5-1.4c0.4,0,0.6,0,0.8,0.1V769.9z"/>
				<path class="st5" d="M101.7,773.4c0-1,0.2-2,0.6-2.8s1-1.5,1.7-1.9s1.6-0.7,2.5-0.7c1.4,0,2.6,0.5,3.5,1.5s1.3,2.3,1.3,4v0.1
					c0,1-0.2,2-0.6,2.8s-1,1.5-1.7,1.9s-1.6,0.7-2.5,0.7c-1.4,0-2.6-0.5-3.5-1.5s-1.3-2.3-1.3-4V773.4z M103.5,773.7
					c0,1.2,0.3,2.1,0.8,2.8s1.3,1.1,2.2,1.1c0.9,0,1.6-0.4,2.2-1.1s0.8-1.7,0.8-3c0-1.2-0.3-2.1-0.8-2.8s-1.3-1.1-2.2-1.1
					c-0.9,0-1.6,0.4-2.2,1.1S103.5,772.3,103.5,773.7z"/>
				<path class="st5" d="M119.7,776c0-0.5-0.2-0.9-0.6-1.1s-1-0.5-1.9-0.7s-1.6-0.4-2.2-0.7s-0.9-0.6-1.2-1s-0.4-0.8-0.4-1.3
					c0-0.9,0.4-1.6,1.1-2.2s1.7-0.9,2.8-0.9c1.2,0,2.2,0.3,2.9,0.9s1.1,1.4,1.1,2.4h-1.8c0-0.5-0.2-0.9-0.6-1.3s-0.9-0.5-1.6-0.5
					c-0.7,0-1.2,0.1-1.5,0.4s-0.6,0.7-0.6,1.1c0,0.4,0.2,0.8,0.5,1s1,0.4,1.9,0.6s1.6,0.4,2.2,0.7s1,0.6,1.2,1s0.4,0.9,0.4,1.4
					c0,0.9-0.4,1.7-1.1,2.3s-1.7,0.9-2.9,0.9c-0.8,0-1.6-0.1-2.2-0.4s-1.2-0.7-1.5-1.3s-0.6-1.1-0.6-1.7h1.8c0,0.6,0.3,1.1,0.7,1.4
					s1,0.5,1.8,0.5c0.7,0,1.2-0.1,1.6-0.4S119.7,776.5,119.7,776z"/>
				<path class="st5" d="M128.3,779c-1.4,0-2.6-0.5-3.5-1.4s-1.3-2.2-1.3-3.8v-0.3c0-1,0.2-2,0.6-2.8s1-1.5,1.7-1.9s1.5-0.7,2.3-0.7
					c1.4,0,2.4,0.5,3.2,1.4s1.1,2.2,1.1,3.9v0.8h-7.2c0,1,0.3,1.9,0.9,2.5s1.3,1,2.2,1c0.6,0,1.2-0.1,1.6-0.4s0.8-0.6,1.2-1l1.1,0.9
					C131.4,778.3,130,779,128.3,779z M128,769.5c-0.7,0-1.3,0.3-1.8,0.8s-0.8,1.3-0.9,2.2h5.3v-0.1c-0.1-0.9-0.3-1.6-0.7-2.1
					S128.8,769.5,128,769.5z"/>
				<path class="st5" d="M139.6,769.9c-0.3,0-0.6-0.1-0.9-0.1c-1.2,0-2,0.5-2.4,1.5v7.5h-1.8v-10.6h1.8l0,1.2
					c0.6-0.9,1.4-1.4,2.5-1.4c0.4,0,0.6,0,0.8,0.1V769.9z"/>
				<path class="st5" d="M144.9,776.4l2.6-8.1h1.8l-3.8,10.6h-1.4l-3.8-10.6h1.8L144.9,776.4z"/>
				<path class="st5" d="M151.1,765.4c0-0.3,0.1-0.5,0.3-0.7s0.4-0.3,0.8-0.3s0.6,0.1,0.8,0.3s0.3,0.4,0.3,0.7s-0.1,0.5-0.3,0.7
					s-0.4,0.3-0.8,0.3s-0.6-0.1-0.8-0.3S151.1,765.7,151.1,765.4z M153.1,778.8h-1.8v-10.6h1.8V778.8z"/>
				<path class="st5" d="M160.2,777.5c0.6,0,1.2-0.2,1.7-0.6s0.7-0.9,0.8-1.5h1.7c0,0.6-0.2,1.2-0.6,1.7s-0.9,1-1.5,1.3
					s-1.3,0.5-2,0.5c-1.4,0-2.6-0.5-3.4-1.4s-1.3-2.3-1.3-3.9v-0.3c0-1,0.2-1.9,0.6-2.7s0.9-1.4,1.6-1.9s1.5-0.7,2.5-0.7
					c1.2,0,2.2,0.4,3,1.1s1.2,1.6,1.3,2.8h-1.7c-0.1-0.7-0.3-1.2-0.8-1.7s-1-0.7-1.7-0.7c-0.9,0-1.6,0.3-2.1,1s-0.8,1.6-0.8,2.9v0.3
					c0,1.2,0.3,2.2,0.8,2.8S159.3,777.5,160.2,777.5z"/>
				<path class="st5" d="M170.8,779c-1.4,0-2.6-0.5-3.5-1.4s-1.3-2.2-1.3-3.8v-0.3c0-1,0.2-2,0.6-2.8s1-1.5,1.7-1.9s1.5-0.7,2.3-0.7
					c1.4,0,2.4,0.5,3.2,1.4s1.1,2.2,1.1,3.9v0.8h-7.2c0,1,0.3,1.9,0.9,2.5s1.3,1,2.2,1c0.6,0,1.2-0.1,1.6-0.4s0.8-0.6,1.2-1l1.1,0.9
					C173.9,778.3,172.6,779,170.8,779z M170.6,769.5c-0.7,0-1.3,0.3-1.8,0.8s-0.8,1.3-0.9,2.2h5.3v-0.1c-0.1-0.9-0.3-1.6-0.7-2.1
					S171.3,769.5,170.6,769.5z"/>
			</g>
		</g>
		<g>
			<rect x="211.3" y="740.6" class="st4" width="151" height="62.2"/>
			<rect x="211.5" y="763.8" class="st2" width="150.5" height="15.3"/>
			<g class="st3">
				<path class="st5" d="M233.7,764.6l4.6,11.6l4.6-11.6h2.4v14.2h-1.9v-5.5l0.2-6l-4.7,11.5h-1.4l-4.7-11.5l0.2,5.9v5.5h-1.9v-14.2
					H233.7z"/>
				<path class="st5" d="M248.5,765.4c0-0.3,0.1-0.5,0.3-0.7s0.4-0.3,0.8-0.3s0.6,0.1,0.8,0.3s0.3,0.4,0.3,0.7s-0.1,0.5-0.3,0.7
					s-0.4,0.3-0.8,0.3s-0.6-0.1-0.8-0.3S248.5,765.7,248.5,765.4z M250.5,778.8h-1.8v-10.6h1.8V778.8z"/>
				<path class="st5" d="M257.6,777.5c0.6,0,1.2-0.2,1.7-0.6s0.7-0.9,0.8-1.5h1.7c0,0.6-0.2,1.2-0.6,1.7s-0.9,1-1.5,1.3
					s-1.3,0.5-2,0.5c-1.4,0-2.6-0.5-3.4-1.4s-1.3-2.3-1.3-3.9v-0.3c0-1,0.2-1.9,0.6-2.7s0.9-1.4,1.6-1.9s1.5-0.7,2.5-0.7
					c1.2,0,2.2,0.4,3,1.1s1.2,1.6,1.3,2.8h-1.7c-0.1-0.7-0.3-1.2-0.8-1.7s-1-0.7-1.7-0.7c-0.9,0-1.6,0.3-2.1,1s-0.8,1.6-0.8,2.9v0.3
					c0,1.2,0.3,2.2,0.8,2.8S256.7,777.5,257.6,777.5z"/>
				<path class="st5" d="M268.9,769.9c-0.3,0-0.6-0.1-0.9-0.1c-1.2,0-2,0.5-2.4,1.5v7.5h-1.8v-10.6h1.8l0,1.2
					c0.6-0.9,1.4-1.4,2.5-1.4c0.4,0,0.6,0,0.8,0.1V769.9z"/>
				<path class="st5" d="M269.9,773.4c0-1,0.2-2,0.6-2.8s1-1.5,1.7-1.9s1.6-0.7,2.5-0.7c1.4,0,2.6,0.5,3.5,1.5s1.3,2.3,1.3,4v0.1
					c0,1-0.2,2-0.6,2.8s-1,1.5-1.7,1.9s-1.6,0.7-2.5,0.7c-1.4,0-2.6-0.5-3.5-1.5s-1.3-2.3-1.3-4V773.4z M271.7,773.7
					c0,1.2,0.3,2.1,0.8,2.8s1.3,1.1,2.2,1.1c0.9,0,1.6-0.4,2.2-1.1s0.8-1.7,0.8-3c0-1.2-0.3-2.1-0.8-2.8s-1.3-1.1-2.2-1.1
					c-0.9,0-1.6,0.4-2.2,1.1S271.7,772.3,271.7,773.7z"/>
				<path class="st5" d="M287.9,776c0-0.5-0.2-0.9-0.6-1.1s-1-0.5-1.9-0.7s-1.6-0.4-2.2-0.7s-0.9-0.6-1.2-1s-0.4-0.8-0.4-1.3
					c0-0.9,0.4-1.6,1.1-2.2s1.7-0.9,2.8-0.9c1.2,0,2.2,0.3,2.9,0.9c0.7,0.6,1.1,1.4,1.1,2.4h-1.8c0-0.5-0.2-0.9-0.6-1.3
					s-0.9-0.5-1.6-0.5c-0.7,0-1.2,0.1-1.5,0.4s-0.6,0.7-0.6,1.1c0,0.4,0.2,0.8,0.5,1s1,0.4,1.9,0.6s1.6,0.4,2.2,0.7
					c0.6,0.3,1,0.6,1.2,1c0.3,0.4,0.4,0.9,0.4,1.4c0,0.9-0.4,1.7-1.1,2.3c-0.8,0.6-1.7,0.9-2.9,0.9c-0.8,0-1.6-0.1-2.2-0.4
					s-1.2-0.7-1.5-1.3s-0.6-1.1-0.6-1.7h1.8c0,0.6,0.3,1.1,0.7,1.4s1,0.5,1.8,0.5c0.7,0,1.2-0.1,1.6-0.4S287.9,776.5,287.9,776z"/>
				<path class="st5" d="M296.5,779c-1.4,0-2.6-0.5-3.5-1.4s-1.3-2.2-1.3-3.8v-0.3c0-1,0.2-2,0.6-2.8s1-1.5,1.7-1.9
					c0.7-0.5,1.5-0.7,2.3-0.7c1.4,0,2.4,0.5,3.2,1.4s1.1,2.2,1.1,3.9v0.8h-7.2c0,1,0.3,1.9,0.9,2.5c0.6,0.6,1.3,1,2.2,1
					c0.6,0,1.2-0.1,1.6-0.4c0.4-0.3,0.8-0.6,1.2-1l1.1,0.9C299.6,778.3,298.3,779,296.5,779z M296.3,769.5c-0.7,0-1.3,0.3-1.8,0.8
					c-0.5,0.5-0.8,1.3-0.9,2.2h5.3v-0.1c-0.1-0.9-0.3-1.6-0.7-2.1C297.6,769.8,297,769.5,296.3,769.5z"/>
				<path class="st5" d="M307.8,769.9c-0.3,0-0.6-0.1-0.9-0.1c-1.2,0-2,0.5-2.4,1.5v7.5h-1.8v-10.6h1.8l0,1.2
					c0.6-0.9,1.4-1.4,2.5-1.4c0.4,0,0.6,0,0.8,0.1V769.9z"/>
				<path class="st5" d="M313.1,776.4l2.6-8.1h1.8l-3.8,10.6h-1.4l-3.8-10.6h1.8L313.1,776.4z"/>
				<path class="st5" d="M319.3,765.4c0-0.3,0.1-0.5,0.3-0.7c0.2-0.2,0.4-0.3,0.8-0.3s0.6,0.1,0.8,0.3c0.2,0.2,0.3,0.4,0.3,0.7
					s-0.1,0.5-0.3,0.7c-0.2,0.2-0.4,0.3-0.8,0.3s-0.6-0.1-0.8-0.3C319.4,766,319.3,765.7,319.3,765.4z M321.3,778.8h-1.8v-10.6h1.8
					V778.8z"/>
				<path class="st5" d="M328.4,777.5c0.6,0,1.2-0.2,1.7-0.6c0.5-0.4,0.7-0.9,0.8-1.5h1.7c0,0.6-0.2,1.2-0.6,1.7
					c-0.4,0.5-0.9,1-1.5,1.3c-0.6,0.3-1.3,0.5-2,0.5c-1.4,0-2.6-0.5-3.4-1.4s-1.3-2.3-1.3-3.9v-0.3c0-1,0.2-1.9,0.6-2.7
					c0.4-0.8,0.9-1.4,1.6-1.9c0.7-0.4,1.5-0.7,2.5-0.7c1.2,0,2.2,0.4,3,1.1c0.8,0.7,1.2,1.6,1.3,2.8h-1.7c-0.1-0.7-0.3-1.2-0.8-1.7
					c-0.5-0.4-1-0.7-1.7-0.7c-0.9,0-1.6,0.3-2.1,1c-0.5,0.7-0.8,1.6-0.8,2.9v0.3c0,1.2,0.3,2.2,0.8,2.8
					C326.8,777.2,327.5,777.5,328.4,777.5z"/>
				<path class="st5" d="M339,779c-1.4,0-2.6-0.5-3.5-1.4s-1.3-2.2-1.3-3.8v-0.3c0-1,0.2-2,0.6-2.8s1-1.5,1.7-1.9
					c0.7-0.5,1.5-0.7,2.3-0.7c1.4,0,2.4,0.5,3.2,1.4s1.1,2.2,1.1,3.9v0.8H336c0,1,0.3,1.9,0.9,2.5c0.6,0.6,1.3,1,2.2,1
					c0.6,0,1.2-0.1,1.6-0.4c0.4-0.3,0.8-0.6,1.2-1l1.1,0.9C342.1,778.3,340.8,779,339,779z M338.8,769.5c-0.7,0-1.3,0.3-1.8,0.8
					c-0.5,0.5-0.8,1.3-0.9,2.2h5.3v-0.1c-0.1-0.9-0.3-1.6-0.7-2.1C340.2,769.8,339.6,769.5,338.8,769.5z"/>
			</g>
		</g>
		<g>
			<rect x="379.1" y="740.6" class="st4" width="151" height="62.2"/>
			<rect x="379.3" y="763.8" class="st2" width="150.5" height="15.3"/>
			<g class="st3">
				<path class="st5" d="M401.5,764.6l4.6,11.6l4.6-11.6h2.4v14.2h-1.9v-5.5l0.2-6l-4.7,11.5h-1.4l-4.7-11.5l0.2,5.9v5.5h-1.9v-14.2
					H401.5z"/>
				<path class="st5" d="M416.3,765.4c0-0.3,0.1-0.5,0.3-0.7c0.2-0.2,0.4-0.3,0.8-0.3s0.6,0.1,0.8,0.3c0.2,0.2,0.3,0.4,0.3,0.7
					s-0.1,0.5-0.3,0.7c-0.2,0.2-0.4,0.3-0.8,0.3s-0.6-0.1-0.8-0.3C416.4,766,416.3,765.7,416.3,765.4z M418.2,778.8h-1.8v-10.6h1.8
					V778.8z"/>
				<path class="st5" d="M425.4,777.5c0.6,0,1.2-0.2,1.7-0.6c0.5-0.4,0.7-0.9,0.8-1.5h1.7c0,0.6-0.2,1.2-0.6,1.7
					c-0.4,0.5-0.9,1-1.5,1.3c-0.6,0.3-1.3,0.5-2,0.5c-1.4,0-2.6-0.5-3.4-1.4s-1.3-2.3-1.3-3.9v-0.3c0-1,0.2-1.9,0.6-2.7
					c0.4-0.8,0.9-1.4,1.6-1.9c0.7-0.4,1.5-0.7,2.5-0.7c1.2,0,2.2,0.4,3,1.1c0.8,0.7,1.2,1.6,1.3,2.8h-1.7c-0.1-0.7-0.3-1.2-0.8-1.7
					c-0.5-0.4-1-0.7-1.7-0.7c-0.9,0-1.6,0.3-2.1,1c-0.5,0.7-0.8,1.6-0.8,2.9v0.3c0,1.2,0.2,2.2,0.8,2.8
					C423.7,777.2,424.4,777.5,425.4,777.5z"/>
				<path class="st5" d="M436.7,769.9c-0.3,0-0.6-0.1-0.9-0.1c-1.2,0-2,0.5-2.4,1.5v7.5h-1.8v-10.6h1.8l0,1.2
					c0.6-0.9,1.4-1.4,2.5-1.4c0.4,0,0.6,0,0.8,0.1V769.9z"/>
				<path class="st5" d="M437.7,773.4c0-1,0.2-2,0.6-2.8c0.4-0.8,1-1.5,1.7-1.9c0.7-0.4,1.6-0.7,2.5-0.7c1.4,0,2.6,0.5,3.5,1.5
					s1.3,2.3,1.3,4v0.1c0,1-0.2,2-0.6,2.8c-0.4,0.8-1,1.5-1.7,1.9s-1.6,0.7-2.5,0.7c-1.4,0-2.6-0.5-3.5-1.5s-1.3-2.3-1.3-4V773.4z
					 M439.5,773.7c0,1.2,0.3,2.1,0.8,2.8c0.5,0.7,1.3,1.1,2.2,1.1c0.9,0,1.6-0.4,2.2-1.1c0.5-0.7,0.8-1.7,0.8-3
					c0-1.2-0.3-2.1-0.8-2.8c-0.6-0.7-1.3-1.1-2.2-1.1c-0.9,0-1.6,0.4-2.2,1.1S439.5,772.3,439.5,773.7z"/>
				<path class="st5" d="M455.7,776c0-0.5-0.2-0.9-0.6-1.1c-0.4-0.3-1-0.5-1.9-0.7c-0.9-0.2-1.6-0.4-2.2-0.7s-0.9-0.6-1.2-1
					c-0.3-0.4-0.4-0.8-0.4-1.3c0-0.9,0.4-1.6,1.1-2.2s1.7-0.9,2.8-0.9c1.2,0,2.2,0.3,2.9,0.9c0.7,0.6,1.1,1.4,1.1,2.4h-1.8
					c0-0.5-0.2-0.9-0.6-1.3s-0.9-0.5-1.6-0.5c-0.7,0-1.2,0.1-1.5,0.4s-0.6,0.7-0.6,1.1c0,0.4,0.2,0.8,0.5,1c0.3,0.2,1,0.4,1.9,0.6
					c0.9,0.2,1.6,0.4,2.2,0.7c0.6,0.3,1,0.6,1.2,1c0.3,0.4,0.4,0.9,0.4,1.4c0,0.9-0.4,1.7-1.1,2.3c-0.8,0.6-1.7,0.9-2.9,0.9
					c-0.8,0-1.6-0.1-2.2-0.4c-0.7-0.3-1.2-0.7-1.5-1.3c-0.4-0.5-0.6-1.1-0.6-1.7h1.8c0,0.6,0.3,1.1,0.7,1.4c0.5,0.4,1,0.5,1.8,0.5
					c0.7,0,1.2-0.1,1.6-0.4C455.5,776.8,455.7,776.5,455.7,776z"/>
				<path class="st5" d="M464.3,779c-1.4,0-2.6-0.5-3.5-1.4s-1.3-2.2-1.3-3.8v-0.3c0-1,0.2-2,0.6-2.8s1-1.5,1.7-1.9
					c0.7-0.5,1.5-0.7,2.3-0.7c1.4,0,2.4,0.5,3.2,1.4s1.1,2.2,1.1,3.9v0.8h-7.2c0,1,0.3,1.9,0.9,2.5c0.6,0.6,1.3,1,2.2,1
					c0.6,0,1.2-0.1,1.6-0.4c0.4-0.3,0.8-0.6,1.2-1l1.1,0.9C467.4,778.3,466,779,464.3,779z M464,769.5c-0.7,0-1.3,0.3-1.8,0.8
					c-0.5,0.5-0.8,1.3-0.9,2.2h5.3v-0.1c-0.1-0.9-0.3-1.6-0.7-2.1C465.4,769.8,464.8,769.5,464,769.5z"/>
				<path class="st5" d="M475.6,769.9c-0.3,0-0.6-0.1-0.9-0.1c-1.2,0-2,0.5-2.4,1.5v7.5h-1.8v-10.6h1.8l0,1.2
					c0.6-0.9,1.4-1.4,2.5-1.4c0.4,0,0.6,0,0.8,0.1V769.9z"/>
				<path class="st5" d="M480.9,776.4l2.6-8.1h1.8l-3.8,10.6h-1.4l-3.8-10.6h1.8L480.9,776.4z"/>
				<path class="st5" d="M487.1,765.4c0-0.3,0.1-0.5,0.3-0.7c0.2-0.2,0.4-0.3,0.8-0.3s0.6,0.1,0.8,0.3c0.2,0.2,0.3,0.4,0.3,0.7
					s-0.1,0.5-0.3,0.7c-0.2,0.2-0.4,0.3-0.8,0.3s-0.6-0.1-0.8-0.3C487.2,766,487.1,765.7,487.1,765.4z M489.1,778.8h-1.8v-10.6h1.8
					V778.8z"/>
				<path class="st5" d="M496.2,777.5c0.6,0,1.2-0.2,1.7-0.6c0.5-0.4,0.7-0.9,0.8-1.5h1.7c0,0.6-0.2,1.2-0.6,1.7
					c-0.4,0.5-0.9,1-1.5,1.3c-0.6,0.3-1.3,0.5-2,0.5c-1.4,0-2.6-0.5-3.4-1.4s-1.3-2.3-1.3-3.9v-0.3c0-1,0.2-1.9,0.6-2.7
					c0.4-0.8,0.9-1.4,1.6-1.9c0.7-0.4,1.5-0.7,2.5-0.7c1.2,0,2.2,0.4,3,1.1c0.8,0.7,1.2,1.6,1.3,2.8h-1.7c-0.1-0.7-0.3-1.2-0.8-1.7
					c-0.5-0.4-1-0.7-1.7-0.7c-0.9,0-1.6,0.3-2.1,1c-0.5,0.7-0.8,1.6-0.8,2.9v0.3c0,1.2,0.2,2.2,0.8,2.8
					C494.6,777.2,495.3,777.5,496.2,777.5z"/>
				<path class="st5" d="M506.8,779c-1.4,0-2.6-0.5-3.5-1.4s-1.3-2.2-1.3-3.8v-0.3c0-1,0.2-2,0.6-2.8s1-1.5,1.7-1.9
					c0.7-0.5,1.5-0.7,2.3-0.7c1.4,0,2.4,0.5,3.2,1.4s1.1,2.2,1.1,3.9v0.8h-7.2c0,1,0.3,1.9,0.9,2.5c0.6,0.6,1.3,1,2.2,1
					c0.6,0,1.2-0.1,1.6-0.4c0.4-0.3,0.8-0.6,1.2-1l1.1,0.9C509.9,778.3,508.6,779,506.8,779z M506.6,769.5c-0.7,0-1.3,0.3-1.8,0.8
					c-0.5,0.5-0.8,1.3-0.9,2.2h5.3v-0.1c-0.1-0.9-0.3-1.6-0.7-2.1C507.9,769.8,507.3,769.5,506.6,769.5z"/>
			</g>
		</g>
		<g>
			<g>
				<path class="st6" d="M176.7,913.3H53v54.9c0,0,0,1.6,0,2.5c0,10.9,27.7,19.7,61.8,19.7s61.8-8.8,61.8-19.7c0-0.8,0-2.5,0-2.5
					L176.7,913.3L176.7,913.3z"/>
				<ellipse class="st6" cx="114.8" cy="913.3" rx="61.8" ry="19.7"/>
			</g>
			<rect x="38.6" y="948.7" class="st2" width="150.5" height="47.3"/>
			<g class="st3">
				<path class="st5" d="M73.3,963.7v-14.2h4c1.2,0,2.3,0.3,3.3,0.8s1.7,1.3,2.2,2.3s0.8,2.2,0.8,3.5v0.9c0,1.3-0.3,2.5-0.8,3.5
					s-1.3,1.8-2.2,2.3s-2.1,0.8-3.4,0.8H73.3z M75.1,951v11.2h2c1.4,0,2.6-0.4,3.4-1.3s1.2-2.2,1.2-3.8v-0.8c0-1.6-0.4-2.9-1.1-3.8
					c-0.8-0.9-1.8-1.4-3.2-1.4H75.1z"/>
				<path class="st5" d="M92.6,963.7c-0.1-0.2-0.2-0.6-0.3-1.1c-0.8,0.9-1.8,1.3-3,1.3c-1,0-1.9-0.3-2.6-0.9s-1-1.3-1-2.2
					c0-1.1,0.4-2,1.3-2.6s2-0.9,3.5-0.9h1.8v-0.8c0-0.6-0.2-1.1-0.6-1.5s-0.9-0.6-1.7-0.6c-0.6,0-1.2,0.2-1.6,0.5s-0.7,0.7-0.7,1.2
					H86c0-0.5,0.2-1,0.6-1.5s0.9-0.9,1.5-1.2s1.3-0.4,2.1-0.4c1.2,0,2.2,0.3,2.9,0.9s1,1.4,1.1,2.5v4.9c0,1,0.1,1.7,0.4,2.3v0.2
					H92.6z M89.6,962.4c0.6,0,1.1-0.1,1.6-0.4s0.9-0.7,1.1-1.1v-2.2h-1.4c-2.2,0-3.3,0.6-3.3,1.9c0,0.6,0.2,1,0.6,1.3
					S89,962.4,89.6,962.4z"/>
				<path class="st5" d="M99.4,950.6v2.6h2v1.4h-2v6.6c0,0.4,0.1,0.7,0.3,1s0.5,0.3,0.9,0.3c0.2,0,0.5,0,0.9-0.1v1.5
					c-0.5,0.1-0.9,0.2-1.4,0.2c-0.8,0-1.4-0.2-1.8-0.7s-0.6-1.2-0.6-2.1v-6.6h-1.9v-1.4h1.9v-2.6H99.4z"/>
				<path class="st5" d="M110,963.7c-0.1-0.2-0.2-0.6-0.3-1.1c-0.8,0.9-1.8,1.3-3,1.3c-1,0-1.9-0.3-2.6-0.9s-1-1.3-1-2.2
					c0-1.1,0.4-2,1.3-2.6s2-0.9,3.5-0.9h1.8v-0.8c0-0.6-0.2-1.1-0.6-1.5s-0.9-0.6-1.7-0.6c-0.6,0-1.2,0.2-1.6,0.5s-0.7,0.7-0.7,1.2
					h-1.8c0-0.5,0.2-1,0.6-1.5s0.9-0.9,1.5-1.2s1.3-0.4,2.1-0.4c1.2,0,2.2,0.3,2.9,0.9s1,1.4,1.1,2.5v4.9c0,1,0.1,1.7,0.4,2.3v0.2
					H110z M107,962.4c0.6,0,1.1-0.1,1.6-0.4s0.9-0.7,1.1-1.1v-2.2h-1.4c-2.2,0-3.3,0.6-3.3,1.9c0,0.6,0.2,1,0.6,1.3
					S106.4,962.4,107,962.4z"/>
				<path class="st5" d="M123.3,958.6c0,1.6-0.4,2.9-1.1,3.9s-1.7,1.5-3,1.5c-1.3,0-2.4-0.5-3.1-1.4l-0.1,1.2h-1.7v-15h1.8v5.6
					c0.7-0.9,1.7-1.4,3-1.4s2.3,0.5,3,1.5s1.1,2.3,1.1,4V958.6z M121.5,958.4c0-1.2-0.2-2.2-0.7-2.9s-1.2-1-2.1-1
					c-1.2,0-2,0.6-2.6,1.7v4.6c0.6,1.1,1.4,1.7,2.6,1.7c0.9,0,1.5-0.3,2-1S121.5,959.7,121.5,958.4z"/>
				<path class="st5" d="M132.1,963.7c-0.1-0.2-0.2-0.6-0.3-1.1c-0.8,0.9-1.8,1.3-3,1.3c-1,0-1.9-0.3-2.6-0.9s-1-1.3-1-2.2
					c0-1.1,0.4-2,1.3-2.6s2-0.9,3.5-0.9h1.8v-0.8c0-0.6-0.2-1.1-0.6-1.5s-0.9-0.6-1.7-0.6c-0.6,0-1.2,0.2-1.6,0.5s-0.7,0.7-0.7,1.2
					h-1.8c0-0.5,0.2-1,0.6-1.5s0.9-0.9,1.5-1.2s1.3-0.4,2.1-0.4c1.2,0,2.2,0.3,2.9,0.9s1,1.4,1.1,2.5v4.9c0,1,0.1,1.7,0.4,2.3v0.2
					H132.1z M129.1,962.4c0.6,0,1.1-0.1,1.6-0.4s0.9-0.7,1.1-1.1v-2.2h-1.4c-2.2,0-3.3,0.6-3.3,1.9c0,0.6,0.2,1,0.6,1.3
					S128.5,962.4,129.1,962.4z"/>
				<path class="st5" d="M142.6,960.9c0-0.5-0.2-0.9-0.6-1.1s-1-0.5-1.9-0.7s-1.6-0.4-2.2-0.7s-0.9-0.6-1.2-1s-0.4-0.8-0.4-1.3
					c0-0.9,0.4-1.6,1.1-2.2s1.7-0.9,2.8-0.9c1.2,0,2.2,0.3,2.9,0.9s1.1,1.4,1.1,2.4h-1.8c0-0.5-0.2-0.9-0.6-1.3s-0.9-0.5-1.6-0.5
					c-0.7,0-1.2,0.1-1.5,0.4s-0.6,0.7-0.6,1.1c0,0.4,0.2,0.8,0.5,1s1,0.4,1.9,0.6s1.6,0.4,2.2,0.7s1,0.6,1.2,1s0.4,0.9,0.4,1.4
					c0,0.9-0.4,1.7-1.1,2.3s-1.7,0.9-2.9,0.9c-0.8,0-1.6-0.1-2.2-0.4s-1.2-0.7-1.5-1.3s-0.6-1.1-0.6-1.7h1.8c0,0.6,0.3,1.1,0.7,1.4
					s1,0.5,1.8,0.5c0.7,0,1.2-0.1,1.6-0.4S142.6,961.4,142.6,960.9z"/>
				<path class="st5" d="M151.2,963.9c-1.4,0-2.6-0.5-3.5-1.4s-1.3-2.2-1.3-3.8v-0.3c0-1,0.2-2,0.6-2.8s1-1.5,1.7-1.9
					s1.5-0.7,2.3-0.7c1.4,0,2.4,0.5,3.2,1.4s1.1,2.2,1.1,3.9v0.8h-7.2c0,1,0.3,1.9,0.9,2.5s1.3,1,2.2,1c0.6,0,1.2-0.1,1.6-0.4
					s0.8-0.6,1.2-1l1.1,0.9C154.3,963.2,153,963.9,151.2,963.9z M151,954.5c-0.7,0-1.3,0.3-1.8,0.8s-0.8,1.3-0.9,2.2h5.3v-0.1
					c-0.1-0.9-0.3-1.6-0.7-2.1S151.7,954.5,151,954.5z"/>
			</g>
		</g>
		<g>
			<g>
				<path class="st6" d="M349.7,913.3H226v54.9c0,0,0,1.6,0,2.5c0,10.9,27.7,19.7,61.8,19.7s61.8-8.8,61.8-19.7c0-0.8,0-2.5,0-2.5
					v-54.9H349.7z"/>
				<ellipse class="st6" cx="287.8" cy="913.3" rx="61.8" ry="19.7"/>
			</g>
			<rect x="211.6" y="948.7" class="st2" width="150.5" height="47.3"/>
			<g class="st3">
				<path class="st5" d="M246.3,963.7v-14.2h4c1.2,0,2.3,0.3,3.3,0.8s1.7,1.3,2.2,2.3s0.8,2.2,0.8,3.5v0.9c0,1.3-0.3,2.5-0.8,3.5
					s-1.3,1.8-2.2,2.3s-2.1,0.8-3.4,0.8H246.3z M248.1,951v11.2h2c1.4,0,2.6-0.4,3.4-1.3s1.2-2.2,1.2-3.8v-0.8
					c0-1.6-0.4-2.9-1.1-3.8c-0.8-0.9-1.8-1.4-3.2-1.4H248.1z"/>
				<path class="st5" d="M265.6,963.7c-0.1-0.2-0.2-0.6-0.3-1.1c-0.8,0.9-1.8,1.3-3,1.3c-1,0-1.9-0.3-2.6-0.9s-1-1.3-1-2.2
					c0-1.1,0.4-2,1.3-2.6s2-0.9,3.5-0.9h1.8v-0.8c0-0.6-0.2-1.1-0.6-1.5s-0.9-0.6-1.7-0.6c-0.6,0-1.2,0.2-1.6,0.5s-0.7,0.7-0.7,1.2
					H259c0-0.5,0.2-1,0.6-1.5s0.9-0.9,1.5-1.2s1.3-0.4,2.1-0.4c1.2,0,2.2,0.3,2.9,0.9s1,1.4,1.1,2.5v4.9c0,1,0.1,1.7,0.4,2.3v0.2
					H265.6z M262.6,962.4c0.6,0,1.1-0.1,1.6-0.4s0.9-0.7,1.1-1.1v-2.2h-1.4c-2.2,0-3.3,0.6-3.3,1.9c0,0.6,0.2,1,0.6,1.3
					S262,962.4,262.6,962.4z"/>
				<path class="st5" d="M272.4,950.6v2.6h2v1.4h-2v6.6c0,0.4,0.1,0.7,0.3,1s0.5,0.3,0.9,0.3c0.2,0,0.5,0,0.9-0.1v1.5
					c-0.5,0.1-0.9,0.2-1.4,0.2c-0.8,0-1.4-0.2-1.8-0.7s-0.6-1.2-0.6-2.1v-6.6h-1.9v-1.4h1.9v-2.6H272.4z"/>
				<path class="st5" d="M283,963.7c-0.1-0.2-0.2-0.6-0.3-1.1c-0.8,0.9-1.8,1.3-3,1.3c-1,0-1.9-0.3-2.6-0.9s-1-1.3-1-2.2
					c0-1.1,0.4-2,1.3-2.6s2-0.9,3.5-0.9h1.8v-0.8c0-0.6-0.2-1.1-0.6-1.5s-0.9-0.6-1.7-0.6c-0.6,0-1.2,0.2-1.6,0.5s-0.7,0.7-0.7,1.2
					h-1.8c0-0.5,0.2-1,0.6-1.5s0.9-0.9,1.5-1.2s1.3-0.4,2.1-0.4c1.2,0,2.2,0.3,2.9,0.9s1,1.4,1.1,2.5v4.9c0,1,0.1,1.7,0.4,2.3v0.2
					H283z M280,962.4c0.6,0,1.1-0.1,1.6-0.4s0.9-0.7,1.1-1.1v-2.2h-1.4c-2.2,0-3.3,0.6-3.3,1.9c0,0.6,0.2,1,0.6,1.3
					S279.4,962.4,280,962.4z"/>
				<path class="st5" d="M296.3,958.6c0,1.6-0.4,2.9-1.1,3.9s-1.7,1.5-3,1.5c-1.3,0-2.4-0.5-3.1-1.4l-0.1,1.2h-1.7v-15h1.8v5.6
					c0.7-0.9,1.7-1.4,3-1.4c1.3,0,2.3,0.5,3,1.5s1.1,2.3,1.1,4V958.6z M294.5,958.4c0-1.2-0.2-2.2-0.7-2.9c-0.5-0.7-1.2-1-2.1-1
					c-1.2,0-2,0.6-2.6,1.7v4.6c0.6,1.1,1.4,1.7,2.6,1.7c0.9,0,1.5-0.3,2-1C294.3,960.7,294.5,959.7,294.5,958.4z"/>
				<path class="st5" d="M305.1,963.7c-0.1-0.2-0.2-0.6-0.3-1.1c-0.8,0.9-1.8,1.3-3,1.3c-1,0-1.9-0.3-2.6-0.9c-0.7-0.6-1-1.3-1-2.2
					c0-1.1,0.4-2,1.3-2.6c0.8-0.6,2-0.9,3.5-0.9h1.8v-0.8c0-0.6-0.2-1.1-0.6-1.5c-0.4-0.4-0.9-0.6-1.7-0.6c-0.6,0-1.2,0.2-1.6,0.5
					c-0.4,0.3-0.7,0.7-0.7,1.2h-1.8c0-0.5,0.2-1,0.6-1.5c0.4-0.5,0.9-0.9,1.5-1.2c0.6-0.3,1.3-0.4,2.1-0.4c1.2,0,2.2,0.3,2.9,0.9
					c0.7,0.6,1,1.4,1.1,2.5v4.9c0,1,0.1,1.7,0.4,2.3v0.2H305.1z M302.1,962.4c0.6,0,1.1-0.1,1.6-0.4s0.9-0.7,1.1-1.1v-2.2h-1.4
					c-2.2,0-3.3,0.6-3.3,1.9c0,0.6,0.2,1,0.6,1.3C301.1,962.2,301.5,962.4,302.1,962.4z"/>
				<path class="st5" d="M315.6,960.9c0-0.5-0.2-0.9-0.6-1.1c-0.4-0.3-1-0.5-1.9-0.7c-0.9-0.2-1.6-0.4-2.2-0.7s-0.9-0.6-1.2-1
					c-0.3-0.4-0.4-0.8-0.4-1.3c0-0.9,0.4-1.6,1.1-2.2s1.7-0.9,2.8-0.9c1.2,0,2.2,0.3,2.9,0.9c0.7,0.6,1.1,1.4,1.1,2.4h-1.8
					c0-0.5-0.2-0.9-0.6-1.3s-0.9-0.5-1.6-0.5c-0.7,0-1.2,0.1-1.5,0.4s-0.6,0.7-0.6,1.1c0,0.4,0.2,0.8,0.5,1c0.3,0.2,1,0.4,1.9,0.6
					c0.9,0.2,1.6,0.4,2.2,0.7c0.6,0.3,1,0.6,1.2,1c0.3,0.4,0.4,0.9,0.4,1.4c0,0.9-0.4,1.7-1.1,2.3c-0.8,0.6-1.7,0.9-2.9,0.9
					c-0.8,0-1.6-0.1-2.2-0.4c-0.7-0.3-1.2-0.7-1.5-1.3c-0.4-0.5-0.6-1.1-0.6-1.7h1.8c0,0.6,0.3,1.1,0.7,1.4c0.5,0.4,1,0.5,1.8,0.5
					c0.7,0,1.2-0.1,1.6-0.4C315.4,961.8,315.6,961.4,315.6,960.9z"/>
				<path class="st5" d="M324.2,963.9c-1.4,0-2.6-0.5-3.5-1.4s-1.3-2.2-1.3-3.8v-0.3c0-1,0.2-2,0.6-2.8s1-1.5,1.7-1.9
					c0.7-0.5,1.5-0.7,2.3-0.7c1.4,0,2.4,0.5,3.2,1.4s1.1,2.2,1.1,3.9v0.8h-7.2c0,1,0.3,1.9,0.9,2.5c0.6,0.6,1.3,1,2.2,1
					c0.6,0,1.2-0.1,1.6-0.4c0.4-0.3,0.8-0.6,1.2-1l1.1,0.9C327.3,963.2,326,963.9,324.2,963.9z M324,954.5c-0.7,0-1.3,0.3-1.8,0.8
					c-0.5,0.5-0.8,1.3-0.9,2.2h5.3v-0.1c-0.1-0.9-0.3-1.6-0.7-2.1C325.3,954.7,324.7,954.5,324,954.5z"/>
			</g>
		</g>
		<g>
			<g>
				<path class="st6" d="M517.7,913.3H394v54.9c0,0,0,1.6,0,2.5c0,10.9,27.7,19.7,61.8,19.7s61.8-8.8,61.8-19.7c0-0.8,0-2.5,0-2.5
					v-54.9H517.7z"/>
				<ellipse class="st6" cx="455.8" cy="913.3" rx="61.8" ry="19.7"/>
			</g>
			<rect x="379.6" y="948.7" class="st2" width="150.5" height="47.3"/>
			<g class="st3">
				<path class="st5" d="M414.3,963.7v-14.2h4c1.2,0,2.3,0.3,3.3,0.8c1,0.5,1.7,1.3,2.2,2.3s0.8,2.2,0.8,3.5v0.9
					c0,1.3-0.3,2.5-0.8,3.5s-1.3,1.8-2.2,2.3c-1,0.5-2.1,0.8-3.4,0.8H414.3z M416.1,951v11.2h2c1.4,0,2.6-0.4,3.4-1.3
					c0.8-0.9,1.2-2.2,1.2-3.8v-0.8c0-1.6-0.4-2.9-1.1-3.8c-0.8-0.9-1.8-1.4-3.2-1.4H416.1z"/>
				<path class="st5" d="M433.6,963.7c-0.1-0.2-0.2-0.6-0.3-1.1c-0.8,0.9-1.8,1.3-3,1.3c-1,0-1.9-0.3-2.6-0.9c-0.7-0.6-1-1.3-1-2.2
					c0-1.1,0.4-2,1.3-2.6c0.8-0.6,2-0.9,3.5-0.9h1.8v-0.8c0-0.6-0.2-1.1-0.6-1.5c-0.4-0.4-0.9-0.6-1.7-0.6c-0.6,0-1.2,0.2-1.6,0.5
					c-0.4,0.3-0.7,0.7-0.7,1.2H427c0-0.5,0.2-1,0.6-1.5c0.4-0.5,0.9-0.9,1.5-1.2c0.6-0.3,1.3-0.4,2.1-0.4c1.2,0,2.2,0.3,2.9,0.9
					c0.7,0.6,1,1.4,1.1,2.5v4.9c0,1,0.1,1.7,0.4,2.3v0.2H433.6z M430.6,962.4c0.6,0,1.1-0.1,1.6-0.4s0.9-0.7,1.1-1.1v-2.2h-1.4
					c-2.2,0-3.3,0.6-3.3,1.9c0,0.6,0.2,1,0.6,1.3C429.5,962.2,430,962.4,430.6,962.4z"/>
				<path class="st5" d="M440.4,950.6v2.6h2v1.4h-2v6.6c0,0.4,0.1,0.7,0.3,1s0.5,0.3,0.9,0.3c0.2,0,0.5,0,0.9-0.1v1.5
					c-0.5,0.1-0.9,0.2-1.4,0.2c-0.8,0-1.4-0.2-1.8-0.7s-0.6-1.2-0.6-2.1v-6.6h-1.9v-1.4h1.9v-2.6H440.4z"/>
				<path class="st5" d="M451,963.7c-0.1-0.2-0.2-0.6-0.3-1.1c-0.8,0.9-1.8,1.3-3,1.3c-1,0-1.9-0.3-2.6-0.9c-0.7-0.6-1-1.3-1-2.2
					c0-1.1,0.4-2,1.3-2.6c0.8-0.6,2-0.9,3.5-0.9h1.8v-0.8c0-0.6-0.2-1.1-0.6-1.5c-0.4-0.4-0.9-0.6-1.7-0.6c-0.6,0-1.2,0.2-1.6,0.5
					c-0.4,0.3-0.7,0.7-0.7,1.2h-1.8c0-0.5,0.2-1,0.6-1.5c0.4-0.5,0.9-0.9,1.5-1.2c0.6-0.3,1.3-0.4,2.1-0.4c1.2,0,2.2,0.3,2.9,0.9
					c0.7,0.6,1,1.4,1.1,2.5v4.9c0,1,0.1,1.7,0.4,2.3v0.2H451z M448,962.4c0.6,0,1.1-0.1,1.6-0.4s0.9-0.7,1.1-1.1v-2.2h-1.4
					c-2.2,0-3.3,0.6-3.3,1.9c0,0.6,0.2,1,0.6,1.3C447,962.2,447.4,962.4,448,962.4z"/>
				<path class="st5" d="M464.3,958.6c0,1.6-0.4,2.9-1.1,3.9s-1.7,1.5-3,1.5c-1.3,0-2.4-0.5-3.1-1.4l-0.1,1.2h-1.7v-15h1.8v5.6
					c0.7-0.9,1.7-1.4,3-1.4c1.3,0,2.3,0.5,3,1.5s1.1,2.3,1.1,4V958.6z M462.5,958.4c0-1.2-0.2-2.2-0.7-2.9c-0.5-0.7-1.2-1-2.1-1
					c-1.2,0-2,0.6-2.6,1.7v4.6c0.6,1.1,1.4,1.7,2.6,1.7c0.9,0,1.5-0.3,2-1C462.3,960.7,462.5,959.7,462.5,958.4z"/>
				<path class="st5" d="M473.1,963.7c-0.1-0.2-0.2-0.6-0.3-1.1c-0.8,0.9-1.8,1.3-3,1.3c-1,0-1.9-0.3-2.6-0.9c-0.7-0.6-1-1.3-1-2.2
					c0-1.1,0.4-2,1.3-2.6c0.8-0.6,2-0.9,3.5-0.9h1.8v-0.8c0-0.6-0.2-1.1-0.6-1.5c-0.4-0.4-0.9-0.6-1.7-0.6c-0.6,0-1.2,0.2-1.6,0.5
					c-0.4,0.3-0.7,0.7-0.7,1.2h-1.8c0-0.5,0.2-1,0.6-1.5c0.4-0.5,0.9-0.9,1.5-1.2c0.6-0.3,1.3-0.4,2.1-0.4c1.2,0,2.2,0.3,2.9,0.9
					c0.7,0.6,1,1.4,1.1,2.5v4.9c0,1,0.1,1.7,0.4,2.3v0.2H473.1z M470.1,962.4c0.6,0,1.1-0.1,1.6-0.4s0.9-0.7,1.1-1.1v-2.2h-1.4
					c-2.2,0-3.3,0.6-3.3,1.9c0,0.6,0.2,1,0.6,1.3C469.1,962.2,469.5,962.4,470.1,962.4z"/>
				<path class="st5" d="M483.6,960.9c0-0.5-0.2-0.9-0.6-1.1c-0.4-0.3-1-0.5-1.9-0.7c-0.9-0.2-1.6-0.4-2.2-0.7s-0.9-0.6-1.2-1
					c-0.3-0.4-0.4-0.8-0.4-1.3c0-0.9,0.4-1.6,1.1-2.2s1.7-0.9,2.8-0.9c1.2,0,2.2,0.3,2.9,0.9c0.7,0.6,1.1,1.4,1.1,2.4h-1.8
					c0-0.5-0.2-0.9-0.6-1.3s-0.9-0.5-1.6-0.5c-0.7,0-1.2,0.1-1.5,0.4s-0.6,0.7-0.6,1.1c0,0.4,0.2,0.8,0.5,1c0.3,0.2,1,0.4,1.9,0.6
					c0.9,0.2,1.6,0.4,2.2,0.7c0.6,0.3,1,0.6,1.2,1c0.3,0.4,0.4,0.9,0.4,1.4c0,0.9-0.4,1.7-1.1,2.3c-0.8,0.6-1.7,0.9-2.9,0.9
					c-0.8,0-1.6-0.1-2.2-0.4c-0.7-0.3-1.2-0.7-1.5-1.3c-0.4-0.5-0.6-1.1-0.6-1.7h1.8c0,0.6,0.3,1.1,0.7,1.4c0.5,0.4,1,0.5,1.8,0.5
					c0.7,0,1.2-0.1,1.6-0.4C483.4,961.8,483.6,961.4,483.6,960.9z"/>
				<path class="st5" d="M492.2,963.9c-1.4,0-2.6-0.5-3.5-1.4s-1.3-2.2-1.3-3.8v-0.3c0-1,0.2-2,0.6-2.8s1-1.5,1.7-1.9
					c0.7-0.5,1.5-0.7,2.3-0.7c1.4,0,2.4,0.5,3.2,1.4s1.1,2.2,1.1,3.9v0.8h-7.2c0,1,0.3,1.9,0.9,2.5c0.6,0.6,1.3,1,2.2,1
					c0.6,0,1.2-0.1,1.6-0.4c0.4-0.3,0.8-0.6,1.2-1l1.1,0.9C495.3,963.2,494,963.9,492.2,963.9z M492,954.5c-0.7,0-1.3,0.3-1.8,0.8
					c-0.5,0.5-0.8,1.3-0.9,2.2h5.3v-0.1c-0.1-0.9-0.3-1.6-0.7-2.1C493.3,954.7,492.7,954.5,492,954.5z"/>
			</g>
		</g>
		<g>
			<g>
				<g>
					<line class="st7" x1="87.3" y1="814" x2="87.3" y2="870.3"/>
					<g>
						<polygon class="st4" points="81.5,866.3 87.3,888 93.1,866.3 						"/>
					</g>
				</g>
			</g>
			<g>
				<g>
					<line class="st7" x1="140.3" y1="888" x2="140.3" y2="831.7"/>
					<g>
						<polygon class="st4" points="146.1,835.7 140.3,814 134.5,835.7 						"/>
					</g>
				</g>
			</g>
		</g>
		<g>
			<g>
				<g>
					<line class="st7" x1="260.3" y1="814" x2="260.3" y2="870.3"/>
					<g>
						<polygon class="st4" points="254.5,866.3 260.3,888 266.1,866.3 						"/>
					</g>
				</g>
			</g>
			<g>
				<g>
					<line class="st7" x1="313.3" y1="888" x2="313.3" y2="831.7"/>
					<g>
						<polygon class="st4" points="319.1,835.7 313.3,814 307.5,835.7 						"/>
					</g>
				</g>
			</g>
		</g>
		<g>
			<g>
				<g>
					<line class="st7" x1="428.3" y1="814" x2="428.3" y2="870.3"/>
					<g>
						<polygon class="st4" points="422.5,866.3 428.3,888 434.1,866.3 						"/>
					</g>
				</g>
			</g>
			<g>
				<g>
					<line class="st7" x1="481.3" y1="888" x2="481.3" y2="831.7"/>
					<g>
						<polygon class="st4" points="487.1,835.7 481.3,814 475.5,835.7 						"/>
					</g>
				</g>
			</g>
		</g>
		<g>
			<g>
				<line class="st8" x1="288" y1="591" x2="123.8" y2="730.8"/>
				<g>
					<polygon class="st9" points="123.2,725.2 113,740 129.2,732.3 					"/>
				</g>
			</g>
		</g>
		<g>
			<g>
				<line class="st8" x1="288" y1="591" x2="288" y2="726.8"/>
				<g>
					<polygon class="st9" points="283.4,723.7 288,741 292.6,723.7 					"/>
				</g>
			</g>
		</g>
		<g>
			<g>
				<line class="st8" x1="288" y1="590" x2="443.5" y2="730.5"/>
				<g>
					<polygon class="st9" points="438,731.8 454,740 444.2,724.9 					"/>
				</g>
			</g>
		</g>
		<g>
			<g>
				<line class="st8" x1="365" y1="559" x2="443.5" y2="600.4"/>
				<g>
					<polygon class="st9" points="438.5,603 456,607 442.8,594.8 					"/>
				</g>
			</g>
		</g>
		<g>
			<g>
				<line class="st8" x1="454" y1="669" x2="454" y2="725.8"/>
				<g>
					<polygon class="st9" points="449.4,722.7 454,740 458.6,722.7 					"/>
				</g>
			</g>
		</g>
		<g>
			<g>
				<line class="st8" x1="454" y1="669" x2="301" y2="735.4"/>
				<g>
					<polygon class="st9" points="302.1,729.8 288,741 305.8,738.4 					"/>
				</g>
			</g>
		</g>
		<g>
			<rect x="214.3" y="529.6" class="st10" width="151" height="62.2"/>
			<rect x="214.5" y="551.8" class="st2" width="150.5" height="15.3"/>
			<g class="st3">
				<path class="st5" d="M292.2,552.6v9.7c0,1.3-0.4,2.4-1.3,3.3c-0.8,0.9-2,1.3-3.4,1.4l-0.5,0c-1.6,0-2.8-0.4-3.7-1.3
					s-1.4-2-1.4-3.5v-9.7h1.9v9.6c0,1,0.3,1.8,0.8,2.4s1.4,0.9,2.4,0.9c1.1,0,1.9-0.3,2.4-0.8c0.6-0.6,0.8-1.4,0.8-2.4v-9.6H292.2z"
					/>
				<path class="st5" d="M297.2,566.8h-1.9v-14.2h1.9V566.8z"/>
			</g>
		</g>
	</g>
</g>
<g id="Monolithic">
	<g>
		<path class="st1" d="M431.5,408H142.2c-60.8,0-110.5-49.7-110.5-110.5V135.7c0-60.8,49.7-110.5,110.5-110.5h289.3
			c60.8,0,110.5,49.7,110.5,110.5v161.8C542,358.3,492.3,408,431.5,408z"/>
		<rect x="65.7" y="52.1" class="st2" width="440.9" height="28.1"/>
		<g class="st3">
			<path d="M159.5,52.1h3.3l4.3,19.7l4.3-19.7h3.3l0.4,24.3h-2.7l-0.3-17.6l-4.1,17.6h-1.9l-4.1-17.6l-0.3,17.6h-2.8L159.5,52.1z"/>
			<path d="M178.3,70.2v-5c0-3.9,1.2-6.4,5.1-6.4c3.8,0,5,2.5,5,6.4v5c0,3.9-1.2,6.4-5,6.4C179.5,76.6,178.3,74.1,178.3,70.2z
				 M185.2,70.4V65c0-2,0-3.8-1.8-3.8c-1.9,0-1.9,1.9-1.9,3.8v5.4c0,1.9,0,3.8,1.9,3.8C185.2,74.2,185.2,72.4,185.2,70.4z"/>
			<path d="M191.4,59h3.2v1.7c1.1-1.1,2.6-2,4.2-2c2.1,0,2.6,1.9,2.6,3.5v14h-3.2V63.2c0-1.2-0.3-2-1.4-2c-0.7,0-1.5,0.5-2.2,1.1v14
				h-3.2V59z"/>
			<path d="M204.3,70.2v-5c0-3.9,1.2-6.4,5.1-6.4c3.8,0,5,2.5,5,6.4v5c0,3.9-1.2,6.4-5,6.4C205.5,76.6,204.3,74.1,204.3,70.2z
				 M211.2,70.4V65c0-2,0-3.8-1.8-3.8c-1.9,0-1.9,1.9-1.9,3.8v5.4c0,1.9,0,3.8,1.9,3.8C211.2,74.2,211.2,72.4,211.2,70.4z"/>
			<path d="M217.6,52.1h3.2v24.3h-3.2V52.1z"/>
			<path d="M224.4,53.1h3.2v3.4h-3.2V53.1z M224.4,59h3.2v17.3h-3.2V59z"/>
			<path d="M231.9,72.5V61.1h-1.8V59h1.8v-5.1h3.2V59h2.8v2.1h-2.8v11.1c0,1.3,0.3,1.9,1.6,1.9c0.3,0,0.8,0,1.2-0.1v2.4
				c-0.8,0.1-1.4,0.2-2.2,0.2C232.9,76.6,231.9,75,231.9,72.5z"/>
			<path d="M240.4,52.1h3.2v8.8c1.2-1.1,2.6-2,4.3-2c2,0,2.6,1.9,2.6,3.5v14h-3.2V63.2c0-1.2-0.3-2-1.4-2c-0.8,0-1.6,0.5-2.3,1.1
				v13.9h-3.2V52.1z"/>
			<path d="M253.9,53.1h3.2v3.4h-3.2V53.1z M253.9,59h3.2v17.3h-3.2V59z"/>
			<path d="M260.2,69.7v-4c0-4.3,0.9-6.9,5.1-6.9c3.8,0,4.7,1.9,4.7,5.5v1h-2.9v-1c0-2.2-0.4-3.1-1.8-3.1c-1.6,0-1.9,1-1.9,3.9v5.5
				c0,3,0.5,3.7,1.9,3.7c1.6,0,1.8-1.2,1.8-3v-1.4h2.9V71c0,3.5-1,5.6-4.7,5.6C261,76.6,260.2,73.9,260.2,69.7z"/>
			<path d="M283.8,52.1h3.3l5.2,24.3h-3.2l-1.1-6.1H283l-1.2,6.1h-3.2L283.8,52.1z M287.5,67.8l-2-10.9l-2,10.9H287.5z"/>
			<path d="M294.6,59h3.2v2.5c1.3-2.1,2.5-2.7,3.8-2.7c0.2,0,0.3,0,0.5,0v3.5c-0.5-0.2-1.1-0.4-1.8-0.4c-1,0-1.8,0.4-2.6,1.7v12.7
				h-3.2V59z"/>
			<path d="M303.8,69.7v-4c0-4.3,0.9-6.9,5.1-6.9c3.8,0,4.7,1.9,4.7,5.5v1h-2.9v-1c0-2.2-0.4-3.1-1.8-3.1c-1.6,0-1.9,1-1.9,3.9v5.5
				c0,3,0.5,3.7,1.9,3.7c1.6,0,1.8-1.2,1.8-3v-1.4h2.9V71c0,3.5-1,5.6-4.7,5.6C304.6,76.6,303.8,73.9,303.8,69.7z"/>
			<path d="M316.5,52.1h3.2v8.8c1.2-1.1,2.6-2,4.3-2c2,0,2.6,1.9,2.6,3.5v14h-3.2V63.2c0-1.2-0.3-2-1.4-2c-0.8,0-1.6,0.5-2.3,1.1
				v13.9h-3.2V52.1z"/>
			<path d="M330,53.1h3.2v3.4H330V53.1z M330,59h3.2v17.3H330V59z"/>
			<path d="M337.5,72.5V61.1h-1.8V59h1.8v-5.1h3.2V59h2.8v2.1h-2.8v11.1c0,1.3,0.3,1.9,1.6,1.9c0.3,0,0.8,0,1.2-0.1v2.4
				c-0.8,0.1-1.4,0.2-2.2,0.2C338.5,76.6,337.5,75,337.5,72.5z"/>
			<path d="M345.6,69.7v-4c0-4.6,1.1-6.9,5.1-6.9c4.3,0,4.9,2.8,4.9,7.6v1.4h-6.8v3.5c0,2.1,0.6,3,1.9,3c1.4,0,1.7-1.1,1.7-2.8v-1
				h3.1V71c0,3.5-1.4,5.6-4.9,5.6C346.6,76.6,345.6,74.2,345.6,69.7z M352.5,66v-1.6c0-2.1-0.2-3.3-1.8-3.3c-1.6,0-1.9,0.9-1.9,3.9
				V66H352.5z"/>
			<path d="M358.2,69.7v-4c0-4.3,0.9-6.9,5.1-6.9c3.8,0,4.7,1.9,4.7,5.5v1h-2.9v-1c0-2.2-0.4-3.1-1.8-3.1c-1.6,0-1.9,1-1.9,3.9v5.5
				c0,3,0.5,3.7,1.9,3.7c1.6,0,1.8-1.2,1.8-3v-1.4h2.9V71c0,3.5-1,5.6-4.7,5.6C359,76.6,358.2,73.9,358.2,69.7z"/>
			<path d="M371.7,72.5V61.1h-1.8V59h1.8v-5.1h3.2V59h2.8v2.1h-2.8v11.1c0,1.3,0.3,1.9,1.6,1.9c0.3,0,0.8,0,1.2-0.1v2.4
				c-0.8,0.1-1.4,0.2-2.2,0.2C372.7,76.6,371.7,75,371.7,72.5z"/>
			<path d="M380,73.1V59h3.2v13.1c0,1.2,0.3,2,1.4,2c0.7,0,1.5-0.5,2.2-1.1V59h3.2v17.3h-3.2v-1.7c-1.1,1.1-2.5,2-4.2,2
				C380.5,76.6,380,74.7,380,73.1z"/>
			<path d="M393.4,59h3.2v2.5c1.3-2.1,2.5-2.7,3.8-2.7c0.2,0,0.3,0,0.5,0v3.5c-0.5-0.2-1.1-0.4-1.8-0.4c-1,0-1.8,0.4-2.6,1.7v12.7
				h-3.2V59z"/>
			<path d="M402.6,69.7v-4c0-4.6,1.1-6.9,5.1-6.9c4.3,0,4.9,2.8,4.9,7.6v1.4h-6.8v3.5c0,2.1,0.6,3,1.9,3c1.4,0,1.7-1.1,1.7-2.8v-1
				h3.1V71c0,3.5-1.4,5.6-4.9,5.6C403.6,76.6,402.6,74.2,402.6,69.7z M409.5,66v-1.6c0-2.1-0.2-3.3-1.8-3.3c-1.6,0-1.9,0.9-1.9,3.9
				V66H409.5z"/>
		</g>
		<rect x="57.7" y="98.2" class="st11" width="179" height="249"/>
		<rect x="71.7" y="112.2" class="st10" width="151" height="62.2"/>
		<rect x="71.7" y="188.3" class="st12" width="151" height="62.2"/>
		<rect x="71.7" y="264.4" class="st13" width="151" height="62.2"/>
		<rect x="71.9" y="135.4" class="st2" width="150.5" height="15.3"/>
		<g class="st3">
			<path class="st5" d="M149.7,136.2v9.7c0,1.3-0.4,2.4-1.3,3.3s-2,1.3-3.4,1.4l-0.5,0c-1.6,0-2.8-0.4-3.7-1.3s-1.4-2-1.4-3.5v-9.7
				h1.9v9.6c0,1,0.3,1.8,0.8,2.4s1.4,0.9,2.4,0.9c1.1,0,1.9-0.3,2.4-0.8s0.8-1.4,0.8-2.4v-9.6H149.7z"/>
			<path class="st5" d="M154.6,150.4h-1.9v-14.2h1.9V150.4z"/>
		</g>
		<rect x="71.9" y="199.4" class="st2" width="150.5" height="47.3"/>
		<g class="st3">
			<path class="st5" d="M108.4,214.4v-14.2h4.6c1.5,0,2.7,0.3,3.5,1s1.2,1.6,1.2,2.8c0,0.7-0.2,1.3-0.6,1.8s-0.9,0.9-1.5,1.2
				c0.8,0.2,1.4,0.6,1.8,1.2s0.7,1.3,0.7,2.2c0,1.3-0.4,2.3-1.2,3s-2,1.1-3.5,1.1H108.4z M110.3,206.2h2.8c0.8,0,1.5-0.2,2-0.6
				s0.7-1,0.7-1.7c0-0.8-0.2-1.4-0.7-1.7s-1.1-0.5-2.1-0.5h-2.8V206.2z M110.3,207.7v5.1h3.1c0.9,0,1.6-0.2,2.1-0.7s0.8-1.1,0.8-1.9
				c0-1.7-0.9-2.6-2.8-2.6H110.3z"/>
			<path class="st5" d="M127.1,213.3c-0.7,0.8-1.7,1.2-3.1,1.2c-1.1,0-2-0.3-2.6-1s-0.9-1.6-0.9-2.9v-6.9h1.8v6.8
				c0,1.6,0.7,2.4,2,2.4c1.4,0,2.3-0.5,2.8-1.5v-7.7h1.8v10.6h-1.7L127.1,213.3z"/>
			<path class="st5" d="M137.7,211.6c0-0.5-0.2-0.9-0.6-1.1s-1-0.5-1.9-0.7s-1.6-0.4-2.2-0.7s-0.9-0.6-1.2-1s-0.4-0.8-0.4-1.3
				c0-0.9,0.4-1.6,1.1-2.2s1.7-0.9,2.8-0.9c1.2,0,2.2,0.3,2.9,0.9s1.1,1.4,1.1,2.4h-1.8c0-0.5-0.2-0.9-0.6-1.3s-0.9-0.5-1.6-0.5
				c-0.7,0-1.2,0.1-1.5,0.4s-0.6,0.7-0.6,1.1c0,0.4,0.2,0.8,0.5,1s1,0.4,1.9,0.6s1.6,0.4,2.2,0.7s1,0.6,1.2,1s0.4,0.9,0.4,1.4
				c0,0.9-0.4,1.7-1.1,2.3s-1.7,0.9-2.9,0.9c-0.8,0-1.6-0.1-2.2-0.4s-1.2-0.7-1.5-1.3s-0.6-1.1-0.6-1.7h1.8c0,0.6,0.3,1.1,0.7,1.4
				s1,0.5,1.8,0.5c0.7,0,1.2-0.1,1.6-0.4S137.7,212,137.7,211.6z"/>
			<path class="st5" d="M141.9,201c0-0.3,0.1-0.5,0.3-0.7s0.4-0.3,0.8-0.3s0.6,0.1,0.8,0.3s0.3,0.4,0.3,0.7s-0.1,0.5-0.3,0.7
				s-0.4,0.3-0.8,0.3s-0.6-0.1-0.8-0.3S141.9,201.3,141.9,201z M143.9,214.4h-1.8v-10.6h1.8V214.4z"/>
			<path class="st5" d="M148.5,203.8l0.1,1.3c0.8-1,1.9-1.5,3.2-1.5c2.2,0,3.4,1.3,3.4,3.8v7h-1.8v-7c0-0.8-0.2-1.3-0.5-1.7
				s-0.9-0.5-1.6-0.5c-0.6,0-1.1,0.2-1.5,0.5s-0.8,0.7-1,1.2v7.5h-1.8v-10.6H148.5z"/>
			<path class="st5" d="M162.2,214.6c-1.4,0-2.6-0.5-3.5-1.4s-1.3-2.2-1.3-3.8v-0.3c0-1,0.2-2,0.6-2.8s1-1.5,1.7-1.9
				s1.5-0.7,2.3-0.7c1.4,0,2.4,0.5,3.2,1.4s1.1,2.2,1.1,3.9v0.8h-7.2c0,1,0.3,1.9,0.9,2.5s1.3,1,2.2,1c0.6,0,1.2-0.1,1.6-0.4
				s0.8-0.6,1.2-1l1.1,0.9C165.3,213.9,164,214.6,162.2,214.6z M162,205.1c-0.7,0-1.3,0.3-1.8,0.8s-0.8,1.3-0.9,2.2h5.3V208
				c-0.1-0.9-0.3-1.6-0.7-2.1S162.7,205.1,162,205.1z"/>
			<path class="st5" d="M174.5,211.6c0-0.5-0.2-0.9-0.6-1.1s-1-0.5-1.9-0.7s-1.6-0.4-2.2-0.7s-0.9-0.6-1.2-1s-0.4-0.8-0.4-1.3
				c0-0.9,0.4-1.6,1.1-2.2s1.7-0.9,2.8-0.9c1.2,0,2.2,0.3,2.9,0.9s1.1,1.4,1.1,2.4h-1.8c0-0.5-0.2-0.9-0.6-1.3s-0.9-0.5-1.6-0.5
				c-0.7,0-1.2,0.1-1.5,0.4s-0.6,0.7-0.6,1.1c0,0.4,0.2,0.8,0.5,1s1,0.4,1.9,0.6s1.6,0.4,2.2,0.7s1,0.6,1.2,1s0.4,0.9,0.4,1.4
				c0,0.9-0.4,1.7-1.1,2.3s-1.7,0.9-2.9,0.9c-0.8,0-1.6-0.1-2.2-0.4s-1.2-0.7-1.5-1.3s-0.6-1.1-0.6-1.7h1.8c0,0.6,0.3,1.1,0.7,1.4
				s1,0.5,1.8,0.5c0.7,0,1.2-0.1,1.6-0.4S174.5,212,174.5,211.6z"/>
			<path class="st5" d="M184.9,211.6c0-0.5-0.2-0.9-0.6-1.1s-1-0.5-1.9-0.7s-1.6-0.4-2.2-0.7s-0.9-0.6-1.2-1s-0.4-0.8-0.4-1.3
				c0-0.9,0.4-1.6,1.1-2.2s1.7-0.9,2.8-0.9c1.2,0,2.2,0.3,2.9,0.9s1.1,1.4,1.1,2.4h-1.8c0-0.5-0.2-0.9-0.6-1.3s-0.9-0.5-1.6-0.5
				c-0.7,0-1.2,0.1-1.5,0.4s-0.6,0.7-0.6,1.1c0,0.4,0.2,0.8,0.5,1s1,0.4,1.9,0.6s1.6,0.4,2.2,0.7s1,0.6,1.2,1s0.4,0.9,0.4,1.4
				c0,0.9-0.4,1.7-1.1,2.3s-1.7,0.9-2.9,0.9c-0.8,0-1.6-0.1-2.2-0.4s-1.2-0.7-1.5-1.3s-0.6-1.1-0.6-1.7h1.8c0,0.6,0.3,1.1,0.7,1.4
				s1,0.5,1.8,0.5c0.7,0,1.2-0.1,1.6-0.4S184.9,212,184.9,211.6z"/>
		</g>
		<g class="st3">
			<path class="st5" d="M126.4,236.9h6.7v1.5h-8.6v-14.2h1.9V236.9z"/>
			<path class="st5" d="M134.5,233c0-1,0.2-2,0.6-2.8s1-1.5,1.7-1.9s1.6-0.7,2.5-0.7c1.4,0,2.6,0.5,3.5,1.5s1.3,2.3,1.3,4v0.1
				c0,1-0.2,2-0.6,2.8s-1,1.5-1.7,1.9s-1.6,0.7-2.5,0.7c-1.4,0-2.6-0.5-3.5-1.5s-1.3-2.3-1.3-4V233z M136.3,233.2
				c0,1.2,0.3,2.1,0.8,2.8s1.3,1.1,2.2,1.1c0.9,0,1.6-0.4,2.2-1.1s0.8-1.7,0.8-3c0-1.2-0.3-2.1-0.8-2.8s-1.3-1.1-2.2-1.1
				c-0.9,0-1.6,0.4-2.2,1.1S136.3,231.9,136.3,233.2z"/>
			<path class="st5" d="M146,233c0-1.6,0.4-3,1.1-3.9s1.8-1.5,3-1.5c1.3,0,2.3,0.5,3,1.4l0.1-1.2h1.7v10.3c0,1.4-0.4,2.4-1.2,3.2
				s-1.9,1.2-3.3,1.2c-0.8,0-1.5-0.2-2.2-0.5s-1.3-0.8-1.7-1.3l0.9-1.1c0.8,1,1.7,1.4,2.8,1.4c0.9,0,1.6-0.2,2.1-0.7
				s0.7-1.2,0.7-2.1v-0.9c-0.7,0.8-1.7,1.2-3,1.2c-1.2,0-2.2-0.5-3-1.5S146,234.7,146,233z M147.8,233.2c0,1.2,0.2,2.1,0.7,2.8
				s1.2,1,2.1,1c1.1,0,2-0.5,2.5-1.6v-4.8c-0.6-1-1.4-1.5-2.5-1.5c-0.9,0-1.6,0.3-2.1,1S147.8,231.9,147.8,233.2z"/>
			<path class="st5" d="M157.6,225c0-0.3,0.1-0.5,0.3-0.7s0.4-0.3,0.8-0.3s0.6,0.1,0.8,0.3s0.3,0.4,0.3,0.7s-0.1,0.5-0.3,0.7
				s-0.4,0.3-0.8,0.3s-0.6-0.1-0.8-0.3S157.6,225.3,157.6,225z M159.6,238.4h-1.8v-10.6h1.8V238.4z"/>
			<path class="st5" d="M166.7,237.1c0.6,0,1.2-0.2,1.7-0.6s0.7-0.9,0.8-1.5h1.7c0,0.6-0.2,1.2-0.6,1.7s-0.9,1-1.5,1.3
				s-1.3,0.5-2,0.5c-1.4,0-2.6-0.5-3.4-1.4s-1.3-2.3-1.3-3.9v-0.3c0-1,0.2-1.9,0.6-2.7s0.9-1.4,1.6-1.9s1.5-0.7,2.5-0.7
				c1.2,0,2.2,0.4,3,1.1s1.2,1.6,1.3,2.8h-1.7c-0.1-0.7-0.3-1.2-0.8-1.7s-1-0.7-1.7-0.7c-0.9,0-1.6,0.3-2.1,1s-0.8,1.6-0.8,2.9v0.3
				c0,1.2,0.3,2.2,0.8,2.8S165.8,237.1,166.7,237.1z"/>
		</g>
		<rect x="71.9" y="275.4" class="st2" width="150.5" height="47.3"/>
		<g class="st3">
			<path class="st5" d="M93.1,290.4v-14.2h4c1.2,0,2.3,0.3,3.3,0.8s1.7,1.3,2.2,2.3s0.8,2.2,0.8,3.5v0.9c0,1.3-0.3,2.5-0.8,3.5
				s-1.3,1.8-2.2,2.3s-2.1,0.8-3.4,0.8H93.1z M94.9,277.7v11.2h2c1.4,0,2.6-0.4,3.4-1.3s1.2-2.2,1.2-3.8v-0.8c0-1.6-0.4-2.9-1.1-3.8
				c-0.8-0.9-1.8-1.4-3.2-1.4H94.9z"/>
			<path class="st5" d="M112.4,290.4c-0.1-0.2-0.2-0.6-0.3-1.1c-0.8,0.9-1.8,1.3-3,1.3c-1,0-1.9-0.3-2.6-0.9s-1-1.3-1-2.2
				c0-1.1,0.4-2,1.3-2.6s2-0.9,3.5-0.9h1.8v-0.8c0-0.6-0.2-1.1-0.6-1.5s-0.9-0.6-1.7-0.6c-0.6,0-1.2,0.2-1.6,0.5s-0.7,0.7-0.7,1.2
				h-1.8c0-0.5,0.2-1,0.6-1.5s0.9-0.9,1.5-1.2s1.3-0.4,2.1-0.4c1.2,0,2.2,0.3,2.9,0.9s1,1.4,1.1,2.5v4.9c0,1,0.1,1.7,0.4,2.3v0.2
				H112.4z M109.4,289c0.6,0,1.1-0.1,1.6-0.4s0.9-0.7,1.1-1.1v-2.2h-1.4c-2.2,0-3.3,0.6-3.3,1.9c0,0.6,0.2,1,0.6,1.3
				S108.8,289,109.4,289z"/>
			<path class="st5" d="M119.2,277.3v2.6h2v1.4h-2v6.6c0,0.4,0.1,0.7,0.3,1s0.5,0.3,0.9,0.3c0.2,0,0.5,0,0.9-0.1v1.5
				c-0.5,0.1-0.9,0.2-1.4,0.2c-0.8,0-1.4-0.2-1.8-0.7s-0.6-1.2-0.6-2.1v-6.6h-1.9v-1.4h1.9v-2.6H119.2z"/>
			<path class="st5" d="M129.8,290.4c-0.1-0.2-0.2-0.6-0.3-1.1c-0.8,0.9-1.8,1.3-3,1.3c-1,0-1.9-0.3-2.6-0.9s-1-1.3-1-2.2
				c0-1.1,0.4-2,1.3-2.6s2-0.9,3.5-0.9h1.8v-0.8c0-0.6-0.2-1.1-0.6-1.5s-0.9-0.6-1.7-0.6c-0.6,0-1.2,0.2-1.6,0.5s-0.7,0.7-0.7,1.2
				h-1.8c0-0.5,0.2-1,0.6-1.5s0.9-0.9,1.5-1.2s1.3-0.4,2.1-0.4c1.2,0,2.2,0.3,2.9,0.9s1,1.4,1.1,2.5v4.9c0,1,0.1,1.7,0.4,2.3v0.2
				H129.8z M126.8,289c0.6,0,1.1-0.1,1.6-0.4s0.9-0.7,1.1-1.1v-2.2h-1.4c-2.2,0-3.3,0.6-3.3,1.9c0,0.6,0.2,1,0.6,1.3
				S126.2,289,126.8,289z"/>
			<path class="st5" d="M147.3,286.7h-6l-1.3,3.7H138l5.4-14.2h1.6l5.4,14.2h-1.9L147.3,286.7z M141.9,285.1h4.8l-2.4-6.7
				L141.9,285.1z"/>
			<path class="st5" d="M156.4,289.1c0.6,0,1.2-0.2,1.7-0.6s0.7-0.9,0.8-1.5h1.7c0,0.6-0.2,1.2-0.6,1.7s-0.9,1-1.5,1.3
				s-1.3,0.5-2,0.5c-1.4,0-2.6-0.5-3.4-1.4s-1.3-2.3-1.3-3.9v-0.3c0-1,0.2-1.9,0.6-2.7s0.9-1.4,1.6-1.9s1.5-0.7,2.5-0.7
				c1.2,0,2.2,0.4,3,1.1s1.2,1.6,1.3,2.8h-1.7c-0.1-0.7-0.3-1.2-0.8-1.7s-1-0.7-1.7-0.7c-0.9,0-1.6,0.3-2.1,1s-0.8,1.6-0.8,2.9v0.3
				c0,1.2,0.3,2.2,0.8,2.8S155.5,289.1,156.4,289.1z"/>
			<path class="st5" d="M166.9,289.1c0.6,0,1.2-0.2,1.7-0.6s0.7-0.9,0.8-1.5h1.7c0,0.6-0.2,1.2-0.6,1.7s-0.9,1-1.5,1.3
				s-1.3,0.5-2,0.5c-1.4,0-2.6-0.5-3.4-1.4s-1.3-2.3-1.3-3.9v-0.3c0-1,0.2-1.9,0.6-2.7s0.9-1.4,1.6-1.9s1.5-0.7,2.5-0.7
				c1.2,0,2.2,0.4,3,1.1s1.2,1.6,1.3,2.8h-1.7c-0.1-0.7-0.3-1.2-0.8-1.7s-1-0.7-1.7-0.7c-0.9,0-1.6,0.3-2.1,1s-0.8,1.6-0.8,2.9v0.3
				c0,1.2,0.3,2.2,0.8,2.8S166,289.1,166.9,289.1z"/>
			<path class="st5" d="M177.5,290.6c-1.4,0-2.6-0.5-3.5-1.4s-1.3-2.2-1.3-3.8v-0.3c0-1,0.2-2,0.6-2.8s1-1.5,1.7-1.9
				s1.5-0.7,2.3-0.7c1.4,0,2.4,0.5,3.2,1.4s1.1,2.2,1.1,3.9v0.8h-7.2c0,1,0.3,1.9,0.9,2.5s1.3,1,2.2,1c0.6,0,1.2-0.1,1.6-0.4
				s0.8-0.6,1.2-1l1.1,0.9C180.6,289.9,179.3,290.6,177.5,290.6z M177.3,281.1c-0.7,0-1.3,0.3-1.8,0.8s-0.8,1.3-0.9,2.2h5.3V284
				c-0.1-0.9-0.3-1.6-0.7-2.1S178,281.1,177.3,281.1z"/>
			<path class="st5" d="M189.9,287.6c0-0.5-0.2-0.9-0.6-1.1s-1-0.5-1.9-0.7s-1.6-0.4-2.2-0.7s-0.9-0.6-1.2-1s-0.4-0.8-0.4-1.3
				c0-0.9,0.4-1.6,1.1-2.2s1.7-0.9,2.8-0.9c1.2,0,2.2,0.3,2.9,0.9s1.1,1.4,1.1,2.4h-1.8c0-0.5-0.2-0.9-0.6-1.3s-0.9-0.5-1.6-0.5
				c-0.7,0-1.2,0.1-1.5,0.4s-0.6,0.7-0.6,1.1c0,0.4,0.2,0.8,0.5,1s1,0.4,1.9,0.6s1.6,0.4,2.2,0.7s1,0.6,1.2,1s0.4,0.9,0.4,1.4
				c0,0.9-0.4,1.7-1.1,2.3s-1.7,0.9-2.9,0.9c-0.8,0-1.6-0.1-2.2-0.4s-1.2-0.7-1.5-1.3s-0.6-1.1-0.6-1.7h1.8c0,0.6,0.3,1.1,0.7,1.4
				s1,0.5,1.8,0.5c0.7,0,1.2-0.1,1.6-0.4S189.9,288,189.9,287.6z"/>
			<path class="st5" d="M200.2,287.6c0-0.5-0.2-0.9-0.6-1.1s-1-0.5-1.9-0.7s-1.6-0.4-2.2-0.7s-0.9-0.6-1.2-1s-0.4-0.8-0.4-1.3
				c0-0.9,0.4-1.6,1.1-2.2s1.7-0.9,2.8-0.9c1.2,0,2.2,0.3,2.9,0.9s1.1,1.4,1.1,2.4h-1.8c0-0.5-0.2-0.9-0.6-1.3s-0.9-0.5-1.6-0.5
				c-0.7,0-1.2,0.1-1.5,0.4s-0.6,0.7-0.6,1.1c0,0.4,0.2,0.8,0.5,1s1,0.4,1.9,0.6s1.6,0.4,2.2,0.7s1,0.6,1.2,1s0.4,0.9,0.4,1.4
				c0,0.9-0.4,1.7-1.1,2.3s-1.7,0.9-2.9,0.9c-0.8,0-1.6-0.1-2.2-0.4s-1.2-0.7-1.5-1.3s-0.6-1.1-0.6-1.7h1.8c0,0.6,0.3,1.1,0.7,1.4
				s1,0.5,1.8,0.5c0.7,0,1.2-0.1,1.6-0.4S200.2,288,200.2,287.6z"/>
		</g>
		<g class="st3">
			<path class="st5" d="M126.5,312.9h6.7v1.5h-8.6v-14.2h1.9V312.9z"/>
			<path class="st5" d="M141.6,314.4c-0.1-0.2-0.2-0.6-0.3-1.1c-0.8,0.9-1.8,1.3-3,1.3c-1,0-1.9-0.3-2.6-0.9s-1-1.3-1-2.2
				c0-1.1,0.4-2,1.3-2.6s2-0.9,3.5-0.9h1.8v-0.8c0-0.6-0.2-1.1-0.6-1.5s-0.9-0.6-1.7-0.6c-0.6,0-1.2,0.2-1.6,0.5s-0.7,0.7-0.7,1.2
				H135c0-0.5,0.2-1,0.6-1.5s0.9-0.9,1.5-1.2s1.3-0.4,2.1-0.4c1.2,0,2.2,0.3,2.9,0.9s1,1.4,1.1,2.5v4.9c0,1,0.1,1.7,0.4,2.3v0.2
				H141.6z M138.6,313c0.6,0,1.1-0.1,1.6-0.4s0.9-0.7,1.1-1.1v-2.2h-1.4c-2.2,0-3.3,0.6-3.3,1.9c0,0.6,0.2,1,0.6,1.3
				S138,313,138.6,313z"/>
			<path class="st5" d="M149.4,311.7l2.5-7.9h1.9l-4.2,12.2c-0.7,1.8-1.7,2.6-3.1,2.6l-0.3,0l-0.7-0.1V317l0.5,0
				c0.6,0,1.1-0.1,1.4-0.4s0.6-0.7,0.8-1.4l0.4-1.1l-3.8-10.4h2L149.4,311.7z"/>
			<path class="st5" d="M159.8,314.6c-1.4,0-2.6-0.5-3.5-1.4s-1.3-2.2-1.3-3.8v-0.3c0-1,0.2-2,0.6-2.8s1-1.5,1.7-1.9
				s1.5-0.7,2.3-0.7c1.4,0,2.4,0.5,3.2,1.4s1.1,2.2,1.1,3.9v0.8h-7.2c0,1,0.3,1.9,0.9,2.5s1.3,1,2.2,1c0.6,0,1.2-0.1,1.6-0.4
				s0.8-0.6,1.2-1l1.1,0.9C162.9,313.9,161.5,314.6,159.8,314.6z M159.5,305.1c-0.7,0-1.3,0.3-1.8,0.8s-0.8,1.3-0.9,2.2h5.3V308
				c-0.1-0.9-0.3-1.6-0.7-2.1S160.3,305.1,159.5,305.1z"/>
			<path class="st5" d="M171.1,305.4c-0.3,0-0.6-0.1-0.9-0.1c-1.2,0-2,0.5-2.4,1.5v7.5H166v-10.6h1.8l0,1.2c0.6-0.9,1.4-1.4,2.5-1.4
				c0.4,0,0.6,0,0.8,0.1V305.4z"/>
		</g>
		<g>
			<g>
				<path class="st6" d="M512,182H361v67c0,0,0,2,0,3c0,13.3,33.8,24,75.5,24s75.5-10.7,75.5-24c0-1,0-3,0-3V182z"/>
				<ellipse class="st6" cx="436.5" cy="182" rx="75.5" ry="24"/>
			</g>
			<rect x="361.2" y="228.7" class="st2" width="150.5" height="47.3"/>
			<g class="st3">
				<path class="st5" d="M395.9,243.7v-14.2h4c1.2,0,2.3,0.3,3.3,0.8c1,0.5,1.7,1.3,2.2,2.3s0.8,2.2,0.8,3.5v0.9
					c0,1.3-0.3,2.5-0.8,3.5s-1.3,1.8-2.2,2.3c-1,0.5-2.1,0.8-3.4,0.8H395.9z M397.8,231v11.2h2c1.4,0,2.6-0.4,3.4-1.3
					c0.8-0.9,1.2-2.2,1.2-3.8v-0.8c0-1.6-0.4-2.9-1.1-3.8c-0.8-0.9-1.8-1.4-3.2-1.4H397.8z"/>
				<path class="st5" d="M415.3,243.7c-0.1-0.2-0.2-0.6-0.3-1.1c-0.8,0.9-1.8,1.3-3,1.3c-1,0-1.9-0.3-2.6-0.9c-0.7-0.6-1-1.3-1-2.2
					c0-1.1,0.4-2,1.3-2.6c0.8-0.6,2-0.9,3.5-0.9h1.8v-0.8c0-0.6-0.2-1.1-0.6-1.5c-0.4-0.4-0.9-0.6-1.7-0.6c-0.6,0-1.2,0.2-1.6,0.5
					c-0.4,0.3-0.7,0.7-0.7,1.2h-1.8c0-0.5,0.2-1,0.6-1.5c0.4-0.5,0.9-0.9,1.5-1.2c0.6-0.3,1.3-0.4,2.1-0.4c1.2,0,2.2,0.3,2.9,0.9
					c0.7,0.6,1,1.4,1.1,2.5v4.9c0,1,0.1,1.7,0.4,2.3v0.2H415.3z M412.3,242.4c0.6,0,1.1-0.1,1.6-0.4s0.9-0.7,1.1-1.1v-2.2h-1.4
					c-2.2,0-3.3,0.6-3.3,1.9c0,0.6,0.2,1,0.6,1.3C411.2,242.2,411.7,242.4,412.3,242.4z"/>
				<path class="st5" d="M422.1,230.6v2.6h2v1.4h-2v6.6c0,0.4,0.1,0.7,0.3,1s0.5,0.3,0.9,0.3c0.2,0,0.5,0,0.9-0.1v1.5
					c-0.5,0.1-0.9,0.2-1.4,0.2c-0.8,0-1.4-0.2-1.8-0.7s-0.6-1.2-0.6-2.1v-6.6h-1.9v-1.4h1.9v-2.6H422.1z"/>
				<path class="st5" d="M432.7,243.7c-0.1-0.2-0.2-0.6-0.3-1.1c-0.8,0.9-1.8,1.3-3,1.3c-1,0-1.9-0.3-2.6-0.9c-0.7-0.6-1-1.3-1-2.2
					c0-1.1,0.4-2,1.3-2.6c0.8-0.6,2-0.9,3.5-0.9h1.8v-0.8c0-0.6-0.2-1.1-0.6-1.5c-0.4-0.4-0.9-0.6-1.7-0.6c-0.6,0-1.2,0.2-1.6,0.5
					c-0.4,0.3-0.7,0.7-0.7,1.2h-1.8c0-0.5,0.2-1,0.6-1.5c0.4-0.5,0.9-0.9,1.5-1.2c0.6-0.3,1.3-0.4,2.1-0.4c1.2,0,2.2,0.3,2.9,0.9
					c0.7,0.6,1,1.4,1.1,2.5v4.9c0,1,0.1,1.7,0.4,2.3v0.2H432.7z M429.7,242.4c0.6,0,1.1-0.1,1.6-0.4s0.9-0.7,1.1-1.1v-2.2H431
					c-2.2,0-3.3,0.6-3.3,1.9c0,0.6,0.2,1,0.6,1.3C428.6,242.2,429.1,242.4,429.7,242.4z"/>
				<path class="st5" d="M446,238.6c0,1.6-0.4,2.9-1.1,3.9s-1.7,1.5-3,1.5c-1.3,0-2.4-0.5-3.1-1.4l-0.1,1.2h-1.7v-15h1.8v5.6
					c0.7-0.9,1.7-1.4,3-1.4c1.3,0,2.3,0.5,3,1.5s1.1,2.3,1.1,4V238.6z M444.2,238.4c0-1.2-0.2-2.2-0.7-2.9c-0.5-0.7-1.2-1-2.1-1
					c-1.2,0-2,0.6-2.6,1.7v4.6c0.6,1.1,1.4,1.7,2.6,1.7c0.9,0,1.5-0.3,2-1C444,240.7,444.2,239.7,444.2,238.4z"/>
				<path class="st5" d="M454.8,243.7c-0.1-0.2-0.2-0.6-0.3-1.1c-0.8,0.9-1.8,1.3-3,1.3c-1,0-1.9-0.3-2.6-0.9c-0.7-0.6-1-1.3-1-2.2
					c0-1.1,0.4-2,1.3-2.6c0.8-0.6,2-0.9,3.5-0.9h1.8v-0.8c0-0.6-0.2-1.1-0.6-1.5c-0.4-0.4-0.9-0.6-1.7-0.6c-0.6,0-1.2,0.2-1.6,0.5
					c-0.4,0.3-0.7,0.7-0.7,1.2h-1.8c0-0.5,0.2-1,0.6-1.5c0.4-0.5,0.9-0.9,1.5-1.2c0.6-0.3,1.3-0.4,2.1-0.4c1.2,0,2.2,0.3,2.9,0.9
					c0.7,0.6,1,1.4,1.1,2.5v4.9c0,1,0.1,1.7,0.4,2.3v0.2H454.8z M451.8,242.4c0.6,0,1.1-0.1,1.6-0.4s0.9-0.7,1.1-1.1v-2.2h-1.4
					c-2.2,0-3.3,0.6-3.3,1.9c0,0.6,0.2,1,0.6,1.3C450.7,242.2,451.2,242.4,451.8,242.4z"/>
				<path class="st5" d="M465.3,240.9c0-0.5-0.2-0.9-0.6-1.1c-0.4-0.3-1-0.5-1.9-0.7c-0.9-0.2-1.6-0.4-2.2-0.7s-0.9-0.6-1.2-1
					c-0.3-0.4-0.4-0.8-0.4-1.3c0-0.9,0.4-1.6,1.1-2.2s1.7-0.9,2.8-0.9c1.2,0,2.2,0.3,2.9,0.9c0.7,0.6,1.1,1.4,1.1,2.4h-1.8
					c0-0.5-0.2-0.9-0.6-1.3s-0.9-0.5-1.6-0.5c-0.7,0-1.2,0.1-1.5,0.4s-0.6,0.7-0.6,1.1c0,0.4,0.2,0.8,0.5,1c0.3,0.2,1,0.4,1.9,0.6
					c0.9,0.2,1.6,0.4,2.2,0.7c0.6,0.3,1,0.6,1.2,1c0.3,0.4,0.4,0.9,0.4,1.4c0,0.9-0.4,1.7-1.1,2.3c-0.8,0.6-1.7,0.9-2.9,0.9
					c-0.8,0-1.6-0.1-2.2-0.4c-0.7-0.3-1.2-0.7-1.5-1.3c-0.4-0.5-0.6-1.1-0.6-1.7h1.8c0,0.6,0.3,1.1,0.7,1.4c0.5,0.4,1,0.5,1.8,0.5
					c0.7,0,1.2-0.1,1.6-0.4C465.1,241.8,465.3,241.4,465.3,240.9z"/>
				<path class="st5" d="M473.9,243.9c-1.4,0-2.6-0.5-3.5-1.4s-1.3-2.2-1.3-3.8v-0.3c0-1,0.2-2,0.6-2.8s1-1.5,1.7-1.9
					c0.7-0.5,1.5-0.7,2.3-0.7c1.4,0,2.4,0.5,3.2,1.4s1.1,2.2,1.1,3.9v0.8h-7.2c0,1,0.3,1.9,0.9,2.5c0.6,0.6,1.3,1,2.2,1
					c0.6,0,1.2-0.1,1.6-0.4c0.4-0.3,0.8-0.6,1.2-1l1.1,0.9C477,243.2,475.6,243.9,473.9,243.9z M473.6,234.5c-0.7,0-1.3,0.3-1.8,0.8
					c-0.5,0.5-0.8,1.3-0.9,2.2h5.3v-0.1c-0.1-0.9-0.3-1.6-0.7-2.1C475,234.7,474.4,234.5,473.6,234.5z"/>
			</g>
		</g>
		<g>
			<g>
				<g>
					<line class="st7" x1="347" y1="205" x2="267.7" y2="205"/>
					<g>
						<polygon class="st4" points="271.7,199.2 250,205 271.7,210.8 						"/>
					</g>
				</g>
			</g>
			<g>
				<g>
					<line class="st7" x1="250" y1="242" x2="329.3" y2="242"/>
					<g>
						<polygon class="st4" points="325.3,247.8 347,242 325.3,236.2 						"/>
					</g>
				</g>
			</g>
		</g>
	</g>
</g>
</svg>
