<svg id="Layer_1" data-name="Layer 1" xmlns="http://www.w3.org/2000/svg" viewBox="0 0 1956.65 399.1"><defs><style>.cls-1,.cls-11,.cls-14,.cls-2,.cls-21,.cls-5,.cls-7,.cls-8,.cls-9{fill:none;}.cls-1,.cls-2{stroke:#979797;}.cls-1,.cls-10,.cls-11,.cls-19,.cls-21,.cls-22,.cls-23,.cls-4,.cls-5,.cls-6,.cls-8,.cls-9{stroke-linecap:round;}.cls-1,.cls-10,.cls-11,.cls-19,.cls-21,.cls-22,.cls-23,.cls-4,.cls-6{stroke-linejoin:round;}.cls-1,.cls-11,.cls-2,.cls-4,.cls-5,.cls-7,.cls-8,.cls-9{stroke-width:2px;}.cls-3{fill:#46e83d;}.cls-12,.cls-3{fill-opacity:0.1;}.cls-10,.cls-13,.cls-19,.cls-22,.cls-23,.cls-4,.cls-6{fill:#fff;}.cls-10,.cls-4{stroke:#ff7680;}.cls-19,.cls-5,.cls-9{stroke:#2470a9;}.cls-21,.cls-6{stroke:#f7931e;}.cls-10,.cls-14,.cls-19,.cls-21,.cls-22,.cls-6{stroke-width:3px;}.cls-11,.cls-22,.cls-23,.cls-7{stroke:#63d9b6;}.cls-8{stroke:#96a2a6;stroke-dasharray:6;}.cls-9{stroke-dasharray:15;}.cls-12{fill:#37a9ef;}.cls-14{stroke:#97a2a6;stroke-miterlimit:10;}.cls-15{fill:#ff7680;}.cls-16{fill:#63d9b6;}.cls-17{fill:#f7931e;}.cls-18{fill:#edeff0;}.cls-20{fill:#2470a9;}.cls-23{stroke-width:8px;}</style></defs><path id="Shape" class="cls-1" d="M-20,321H867.58q103.13,1.16,103.12-85t92-80.18l108.12.24m323.3.73,161.64.37h68.94q82.1,0,82.09,48.22t54.47,64.66h101.93"/><path id="Path-6" class="cls-1" d="M831.08,322.15q6.33,56.64-50.68,56.65H678.88"/><circle id="Oval-2" class="cls-2" cx="658.91" cy="378.66" r="19.44"/><path id="Path-6-2" data-name="Path-6" class="cls-1" d="M1701.34,213.18H1599.82q-57,0-50.68-56.65"/><circle id="Oval-2-2" data-name="Oval-2" class="cls-2" cx="1721.31" cy="213.04" r="19.44"/><ellipse id="Oval" class="cls-3" cx="1296.27" cy="199.05" rx="202.25" ry="199.05"/><g id="Icon-_-Plus-grey" data-name="Icon-/-Plus-grey"><line id="Line" class="cls-4" x1="1504.27" y1="204.33" x2="1504.27" y2="221.76"/><line id="Line-Copy" class="cls-4" x1="1494.89" y1="213.04" x2="1513.65" y2="213.04"/></g><g id="Icon-_-Star-green-" data-name="Icon-/-Star-green-"><path id="Path-7" class="cls-5" d="M1113,43q18.62.11,18.61-16.87"/><path id="Path-7-2" data-name="Path-7" class="cls-5" d="M1150.39,43q-18.62.11-18.61-16.87"/><path id="Path-7-Copy-2" class="cls-5" d="M1150.39,43.48c-.88-.07-1.52-.12-1.94-.13-14.66-.41-16.67,7.27-16.67,22.75"/><path id="Path-7-Copy-3" class="cls-5" d="M1113,43.48c.88-.07,1.52-.12,1.94-.13,14.66-.41,16.67,7.27,16.67,22.75"/></g><g id="Icon-_-Star-green--2" data-name="Icon-/-Star-green-"><path id="Path-7-3" data-name="Path-7" class="cls-6" d="M1520.2,117.56q18.61.1,18.61-16.87"/><path id="Path-7-4" data-name="Path-7" class="cls-6" d="M1557.58,117.56q-18.61.1-18.61-16.87"/><path id="Path-7-Copy-2-2" data-name="Path-7-Copy-2" class="cls-6" d="M1557.58,118.07c-.88-.08-1.52-.12-1.94-.13-14.67-.41-16.67,7.27-16.67,22.74"/><path id="Path-7-Copy-3-2" data-name="Path-7-Copy-3" class="cls-6" d="M1520.2,118.07c.88-.08,1.52-.12,1.94-.13,14.66-.41,16.67,7.27,16.67,22.74"/></g><g id="Icon-_-Plus-blue" data-name="Icon-/-Plus-blue"><line id="Line-2" data-name="Line" class="cls-1" x1="1239.43" y1="344.55" x2="1239.43" y2="361.98"/><line id="Line-Copy-2" data-name="Line-Copy" class="cls-1" x1="1230.04" y1="353.27" x2="1248.81" y2="353.27"/></g><g id="Icon-_-Plus-blue-2" data-name="Icon-/-Plus-blue"><line id="Line-3" data-name="Line" class="cls-1" x1="1358.71" y1="74.72" x2="1358.71" y2="92.14"/><line id="Line-Copy-3" data-name="Line-Copy" class="cls-1" x1="1349.33" y1="83.43" x2="1368.09" y2="83.43"/></g><g id="Icon-_-Circle-green" data-name="Icon-/-Circle-green"><circle id="Oval-9" class="cls-7" cx="1085.12" cy="295.31" r="12.73"/></g><g id="Icon-_-Circle-grey" data-name="Icon-/-Circle-grey"><circle id="Oval-9-2" data-name="Oval-9" class="cls-8" cx="1471.41" cy="41.72" r="15.62"/></g><g id="Icon-_-Circle-grey-2" data-name="Icon-/-Circle-grey"><circle id="Oval-9-3" data-name="Oval-9" class="cls-8" cx="1492.28" cy="64.74" r="7.79"/></g><g id="Icon-_-Line-green" data-name="Icon-/-Line-green"><line id="Line-4" data-name="Line" class="cls-9" x1="1251.48" y1="38.11" x2="1358.71" y2="38.11"/></g><g id="Icon-_-Line-green-2" data-name="Icon-/-Line-green"><line id="Line-5" data-name="Line" class="cls-9" x1="1292.99" y1="24.66" x2="1400.22" y2="24.66"/></g><polygon class="cls-10" points="1072.39 101.25 1038.73 81.81 1038.73 120.69 1072.39 101.25"/><rect class="cls-11" x="1295.25" y="310.91" width="29.21" height="29.21" transform="translate(153.48 1021.55) rotate(-45)"/><rect class="cls-12" x="1070.52" y="184.36" width="29.21" height="29.21" transform="translate(177.14 825.57) rotate(-45)"/><rect class="cls-12" x="1077.4" y="211.89" width="15.3" height="15.3" transform="translate(162.57 831.54) rotate(-45)"/><line class="cls-1" x1="1494.14" y1="156.84" x2="1438.41" y2="156.84"/><rect class="cls-13" x="1173.5" y="89.11" width="262.28" height="191.5" rx="8.52"/><rect class="cls-14" x="1173.5" y="89.11" width="262.28" height="191.5" rx="8.52"/><line class="cls-14" x1="1435.78" y1="110.84" x2="1173.5" y2="110.84"/><circle class="cls-15" cx="1400.39" cy="100.48" r="2.24"/><circle class="cls-16" cx="1411.12" cy="100.48" r="2.24"/><circle class="cls-17" cx="1421.84" cy="100.48" r="2.24"/><rect class="cls-18" x="1185.45" y="121.53" width="240.25" height="147.69" rx="4.9"/><path class="cls-19" d="M1353.63,167.31s-44.24-16.83-81.37-16-43.54,22.72-41.12,49.1,28.15,43.06,46.36,43.54c22.94.61,45.94-7.8,45.94-7.8s37-12.5,48.76-27.24S1383.65,179.63,1353.63,167.31Z"/><path class="cls-20" d="M1277.36,197.69a13.72,13.72,0,0,1-.81,4.79,10.63,10.63,0,0,1-2.34,3.77,10.31,10.31,0,0,1-3.66,2.42,13,13,0,0,1-4.8.84,12.47,12.47,0,0,1-4.74-.85,10.46,10.46,0,0,1-6-6.19,14.74,14.74,0,0,1,0-9.61,10.38,10.38,0,0,1,2.32-3.75,10.18,10.18,0,0,1,3.67-2.4,13.89,13.89,0,0,1,9.54,0,10.31,10.31,0,0,1,6,6.18A13.6,13.6,0,0,1,1277.36,197.69Zm-5.83,0a8.76,8.76,0,0,0-1.57-5.54,5.09,5.09,0,0,0-4.21-2,5.22,5.22,0,0,0-3,.89,5.62,5.62,0,0,0-2,2.6,10.67,10.67,0,0,0-.7,4,10.53,10.53,0,0,0,.69,4,5.66,5.66,0,0,0,2,2.61,5.17,5.17,0,0,0,3,.91,5.1,5.1,0,0,0,4.21-2A8.74,8.74,0,0,0,1271.53,197.69Z"/><path class="cls-20" d="M1296.3,201.91a6.75,6.75,0,0,1-4.63,6.72,15.54,15.54,0,0,1-5.57.88,13.57,13.57,0,0,1-5.37-1,7.89,7.89,0,0,1-3.3-2.39,4.84,4.84,0,0,1-1.07-2.89,2.21,2.21,0,0,1,.69-1.64,2.34,2.34,0,0,1,1.72-.68,2,2,0,0,1,1.41.45,4.67,4.67,0,0,1,.93,1.25,6.36,6.36,0,0,0,2.14,2.32,6.48,6.48,0,0,0,3.4.77,4.91,4.91,0,0,0,2.87-.78,2.19,2.19,0,0,0,1.11-1.78,2.4,2.4,0,0,0-1.16-2.23,14,14,0,0,0-3.82-1.34,31.84,31.84,0,0,1-4.89-1.57,8,8,0,0,1-3-2.16,5,5,0,0,1-1.13-3.3,5.83,5.83,0,0,1,1-3.3,7.14,7.14,0,0,1,3.08-2.48,11.75,11.75,0,0,1,4.91-.93,16.29,16.29,0,0,1,4.06.47,9.89,9.89,0,0,1,3,1.26,6.14,6.14,0,0,1,1.83,1.74,3.43,3.43,0,0,1,.63,1.88,2.17,2.17,0,0,1-.67,1.64,2.68,2.68,0,0,1-1.91.63,2.35,2.35,0,0,1-1.52-.51,10,10,0,0,1-1.44-1.53,5.26,5.26,0,0,0-1.55-1.36,4.93,4.93,0,0,0-2.43-.51,4.74,4.74,0,0,0-2.62.67,1.93,1.93,0,0,0-1,1.67,1.8,1.8,0,0,0,.76,1.5,6.55,6.55,0,0,0,2.07,1c.87.25,2.06.57,3.58.94a19.33,19.33,0,0,1,4.42,1.57,7.38,7.38,0,0,1,2.6,2.16A4.86,4.86,0,0,1,1296.3,201.91Z"/><path class="cls-20" d="M1317.71,202.31a5,5,0,0,1-.65,2.32,8.19,8.19,0,0,1-2,2.36,10.49,10.49,0,0,1-3.36,1.8,14.37,14.37,0,0,1-4.56.68q-5.39,0-8.41-3.14a11.69,11.69,0,0,1-3-8.43,13.9,13.9,0,0,1,1.38-6.32,10,10,0,0,1,4-4.25,13.61,13.61,0,0,1,10.4-.84,10.83,10.83,0,0,1,3.19,1.7,8.12,8.12,0,0,1,2,2.23,4.41,4.41,0,0,1,.69,2.2,2.31,2.31,0,0,1-.78,1.77,2.68,2.68,0,0,1-1.88.72,1.9,1.9,0,0,1-1.21-.37,5.78,5.78,0,0,1-1.07-1.2,8.73,8.73,0,0,0-2.23-2.43,5.47,5.47,0,0,0-7.1,1.2,8.72,8.72,0,0,0-1.58,5.51,10.58,10.58,0,0,0,.41,3,6.77,6.77,0,0,0,1.17,2.34,5,5,0,0,0,1.85,1.47,5.56,5.56,0,0,0,2.39.5,5.37,5.37,0,0,0,3-.81,6.89,6.89,0,0,0,2.2-2.47,5.87,5.87,0,0,1,1.15-1.53,2.34,2.34,0,0,1,3.28.26A2.58,2.58,0,0,1,1317.71,202.31Z"/><path class="cls-20" d="M1333.11,206.23a18.43,18.43,0,0,1-4.08,2.46,11.34,11.34,0,0,1-4.42.82,8.37,8.37,0,0,1-3.93-.88,6.46,6.46,0,0,1-2.61-2.4,6.22,6.22,0,0,1-.91-3.28,5.86,5.86,0,0,1,1.51-4.07,7.54,7.54,0,0,1,4.15-2.25c.37-.09,1.29-.28,2.75-.58s2.72-.57,3.76-.82,2.17-.55,3.4-.91a6.1,6.1,0,0,0-.93-3.37c-.55-.72-1.68-1.08-3.4-1.08a7.09,7.09,0,0,0-3.33.62,5.37,5.37,0,0,0-1.92,1.85A17.64,17.64,0,0,1,1322,194a1.81,1.81,0,0,1-1.41.4,2.49,2.49,0,0,1-1.7-.63,2.07,2.07,0,0,1-.71-1.61,4.9,4.9,0,0,1,1.09-3,7.75,7.75,0,0,1,3.38-2.39,15.41,15.41,0,0,1,5.73-.93,16.29,16.29,0,0,1,6,.9,5.65,5.65,0,0,1,3.1,2.87,12.56,12.56,0,0,1,.9,5.19c0,1.37,0,2.52,0,3.47s0,2,0,3.18a11.8,11.8,0,0,0,.54,3.42,10.4,10.4,0,0,1,.55,2.29,2.16,2.16,0,0,1-.84,1.63,2.87,2.87,0,0,1-1.91.73,2.57,2.57,0,0,1-1.77-.84A12.59,12.59,0,0,1,1333.11,206.23Zm-.38-8.41a30.87,30.87,0,0,1-3.72,1c-1.63.35-2.75.6-3.38.76a4.82,4.82,0,0,0-1.79,1,2.48,2.48,0,0,0-.85,2,3,3,0,0,0,1,2.25,3.72,3.72,0,0,0,2.62.93,6.79,6.79,0,0,0,3.19-.76,5,5,0,0,0,2.14-1.95,9,9,0,0,0,.79-4.34Z"/><path class="cls-20" d="M1345.74,201.12V206a3.78,3.78,0,0,1-.83,2.66,2.76,2.76,0,0,1-2.11.88,2.68,2.68,0,0,1-2.06-.89,3.84,3.84,0,0,1-.81-2.65V189.79q0-3.91,2.83-3.92a2.37,2.37,0,0,1,2.09.92,5.07,5.07,0,0,1,.7,2.7,10.29,10.29,0,0,1,2.14-2.7,4.43,4.43,0,0,1,2.93-.92,7.52,7.52,0,0,1,3.56.92,2.73,2.73,0,0,1,1.72,2.42,2.43,2.43,0,0,1-2.32,2.45,7.49,7.49,0,0,1-1.55-.39,7.17,7.17,0,0,0-2.16-.39,3.13,3.13,0,0,0-2.08.67,4.28,4.28,0,0,0-1.26,2,14.06,14.06,0,0,0-.62,3.14C1345.8,197.89,1345.74,199.37,1345.74,201.12Z"/><polygon class="cls-13" points="1219.17 291.7 1142.03 291.7 1127.2 236.89 1233.99 236.89 1219.17 291.7"/><path class="cls-18" d="M1136.82,272.45,1142,291.7h77.14L1234,236.89S1204,287.42,1136.82,272.45Z"/><polygon class="cls-21" points="1219.17 291.7 1142.03 291.7 1127.2 236.89 1233.99 236.89 1219.17 291.7"/><line class="cls-21" x1="1165.41" y1="236.89" x2="1165.41" y2="291.7"/><line class="cls-21" x1="1195.78" y1="236.89" x2="1195.78" y2="291.7"/><line class="cls-21" x1="1134.62" y1="264.29" x2="1226.58" y2="264.29"/><line class="cls-21" x1="1167.12" y1="311.71" x2="1195.78" y2="311.71"/><path class="cls-21" d="M1219.17,291.7h-78.94c-7.2,0-13,4.48-13,10h0c0,5.53,5.83,10,13,10h6.88"/><line class="cls-21" x1="1215.79" y1="311.71" x2="1228.05" y2="311.71"/><circle class="cls-21" cx="1157.12" cy="311.71" r="10"/><circle class="cls-21" cx="1205.79" cy="311.71" r="10"/><polyline class="cls-21" points="1142.03 291.7 1121.75 216.73 1108.04 216.73"/><path class="cls-10" d="M1204.3,112.71a25.35,25.35,0,0,1-25.09,25.61c-13.85,0-25.08-11.46-25.08-25.61Z"/><path class="cls-10" d="M1254.47,112.71a25.35,25.35,0,0,1-25.09,25.61c-13.85,0-25.08-11.46-25.08-25.61Z"/><path class="cls-10" d="M1304.64,112.71a25.35,25.35,0,0,1-25.09,25.61c-13.85,0-25.08-11.46-25.08-25.61Z"/><path class="cls-10" d="M1354.81,112.71c0,14.15-11.23,25.61-25.08,25.61a25.35,25.35,0,0,1-25.09-25.61Z"/><path class="cls-10" d="M1405,112.71c0,14.15-11.23,25.61-25.08,25.61a25.35,25.35,0,0,1-25.09-25.61Z"/><path class="cls-10" d="M1455.15,112.71c0,14.15-11.23,25.61-25.08,25.61A25.35,25.35,0,0,1,1405,112.71Z"/><polygon class="cls-10" points="1437.15 59.9 1172.13 59.9 1154.13 112.71 1455.15 112.71 1437.15 59.9"/><polygon class="cls-10" points="1392.98 59.9 1216.3 59.9 1204.3 112.71 1404.98 112.71 1392.98 59.9"/><polygon class="cls-10" points="1348.81 59.9 1260.47 59.9 1254.47 112.71 1354.81 112.71 1348.81 59.9"/><line class="cls-10" x1="1304.64" y1="112.71" x2="1304.64" y2="59.9"/><rect class="cls-13" x="1390.09" y="231.9" width="25.09" height="25.09" rx="3.02"/><rect class="cls-13" x="1390.09" y="201.76" width="25.09" height="25.09" rx="3.02"/><rect class="cls-13" x="1359.44" y="231.48" width="25.09" height="25.09" rx="3.02"/><circle class="cls-22" cx="1435.78" cy="280.61" r="42.15"/><polyline class="cls-23" points="1414.98 283.13 1427.17 295.31 1456.58 265.9"/></svg>