<svg id="Layer_1" data-name="Layer 1" xmlns="http://www.w3.org/2000/svg" viewBox="0 0 1956.65 399.1"><defs><style>.cls-1,.cls-11,.cls-14,.cls-19,.cls-2,.cls-20,.cls-23,.cls-24,.cls-26,.cls-4,.cls-5,.cls-6,.cls-9{fill:none;}.cls-1,.cls-2{stroke:#979797;}.cls-1,.cls-11,.cls-12,.cls-22,.cls-23,.cls-26,.cls-27,.cls-4,.cls-5,.cls-6,.cls-7,.cls-8{stroke-linecap:round;}.cls-1,.cls-22,.cls-4,.cls-5,.cls-6,.cls-7,.cls-8{stroke-linejoin:round;}.cls-1,.cls-10,.cls-11,.cls-12,.cls-2,.cls-26,.cls-27,.cls-4,.cls-5,.cls-6,.cls-9{stroke-width:2px;}.cls-3{fill:#e597ff;fill-opacity:0.1;}.cls-11,.cls-12,.cls-20,.cls-22,.cls-26,.cls-4{stroke:#63d9b6;}.cls-19,.cls-23,.cls-5{stroke:#2470a9;}.cls-10,.cls-6,.cls-9{stroke:#96a2a6;}.cls-10,.cls-12,.cls-13,.cls-22,.cls-25,.cls-27,.cls-7,.cls-8{fill:#fff;}.cls-27,.cls-7,.cls-8{stroke:#ff7680;}.cls-14,.cls-19,.cls-20,.cls-22,.cls-23,.cls-24,.cls-25,.cls-7,.cls-8{stroke-width:3px;}.cls-7{stroke-dasharray:15;}.cls-11{stroke-dasharray:10;}.cls-14,.cls-25{stroke:#97a2a6;}.cls-14,.cls-19,.cls-20,.cls-23,.cls-24,.cls-25{stroke-miterlimit:10;}.cls-15{fill:#ff7680;}.cls-16{fill:#63d9b6;}.cls-17{fill:#f7931e;}.cls-18{fill:#edeff0;}.cls-21{fill:#2470a9;}.cls-24{stroke:#edeff0;}</style></defs><title>8</title><path id="Shape" class="cls-1" d="M-20,321H867.58q103.13,1.16,103.12-85t92-80.18h160.41m271,1,161.64.37h68.94q82.1,0,82.09,48.22t54.47,64.66h101.93"/><path id="Path-6" class="cls-1" d="M831.08,322.15q6.33,56.64-50.68,56.65H678.88"/><circle id="Oval-2" class="cls-2" cx="658.91" cy="378.66" r="19.44"/><path id="Path-6-2" data-name="Path-6" class="cls-1" d="M1555.88,100h101.53q57,0,50.68,56.65"/><circle id="Oval-2-2" data-name="Oval-2" class="cls-2" cx="1535.91" cy="100.09" r="19.44"/><ellipse id="Oval" class="cls-3" cx="1296.27" cy="199.05" rx="202.25" ry="199.05"/><g id="Icon-_-Plus-green" data-name="Icon-/-Plus-green"><line id="Line" class="cls-4" x1="1072.42" y1="31.83" x2="1072.42" y2="68.02"/><line id="Line-Copy" class="cls-4" x1="1053.65" y1="49.93" x2="1091.19" y2="49.93"/></g><g id="Icon-_-Plus-grey" data-name="Icon-/-Plus-grey"><line id="Line-2" data-name="Line" class="cls-5" x1="1527.55" y1="231.87" x2="1527.55" y2="249.3"/><line id="Line-Copy-2" data-name="Line-Copy" class="cls-5" x1="1518.17" y1="240.58" x2="1536.93" y2="240.58"/></g><g id="Icon-_-Plus-grey-2" data-name="Icon-/-Plus-grey"><line id="Line-3" data-name="Line" class="cls-6" x1="897.9" y1="229.55" x2="897.9" y2="246.97"/><line id="Line-Copy-3" data-name="Line-Copy" class="cls-6" x1="888.52" y1="238.26" x2="907.28" y2="238.26"/></g><g id="Icon-_-Star-green-" data-name="Icon-/-Star-green-"><path id="Path-7" class="cls-5" d="M1545.54,53.26q18.62.09,18.61-16.87"/><path id="Path-7-2" data-name="Path-7" class="cls-5" d="M1582.91,53.26q-18.6.09-18.6-16.87"/><path id="Path-7-Copy-2" class="cls-5" d="M1582.91,53.76c-.87-.07-1.52-.11-1.94-.12-14.66-.41-16.66,7.27-16.66,22.74"/><path id="Path-7-Copy-3" class="cls-5" d="M1545.54,53.76c.87-.07,1.52-.11,1.94-.12,14.66-.41,16.67,7.27,16.67,22.74"/></g><g id="Icon-_-Star-green--2" data-name="Icon-/-Star-green-"><path id="Path-7-3" data-name="Path-7" class="cls-1" d="M1364.24,364.12q18.6.09,18.61-16.87"/><path id="Path-7-4" data-name="Path-7" class="cls-1" d="M1401.61,364.12q-18.6.09-18.61-16.87"/><path id="Path-7-Copy-2-2" data-name="Path-7-Copy-2" class="cls-1" d="M1401.61,364.62c-.87-.07-1.52-.11-1.94-.13-14.66-.4-16.67,7.28-16.67,22.75"/><path id="Path-7-Copy-3-2" data-name="Path-7-Copy-3" class="cls-1" d="M1364.24,364.62c.87-.07,1.52-.11,1.94-.13,14.66-.4,16.67,7.28,16.67,22.75"/></g><g id="Icon-_-Line-grey" data-name="Icon-/-Line-grey"><line id="Line-4" data-name="Line" class="cls-7" x1="1248.97" y1="42.16" x2="1446.2" y2="42.16"/></g><g id="Icon-_-Plus-blue" data-name="Icon-/-Plus-blue"><line id="Line-5" data-name="Line" class="cls-5" x1="1163.57" y1="337.78" x2="1163.57" y2="355.2"/><line id="Line-Copy-4" data-name="Line-Copy" class="cls-5" x1="1154.18" y1="346.49" x2="1172.95" y2="346.49"/></g><g id="Icon-_-Plus-blue-2" data-name="Icon-/-Plus-blue"><line id="Line-6" data-name="Line" class="cls-8" x1="1293.08" y1="359.23" x2="1293.08" y2="392.49"/><line id="Line-Copy-5" data-name="Line-Copy" class="cls-8" x1="1275.17" y1="375.86" x2="1311" y2="375.86"/></g><g id="Icon-_-Circle-grey" data-name="Icon-/-Circle-grey"><circle id="Oval-9" class="cls-9" cx="1058" cy="338.49" r="24.13"/></g><g id="Icon-_-Circle-grey-2" data-name="Icon-/-Circle-grey"><circle id="Oval-9-2" data-name="Oval-9" class="cls-10" cx="1038.28" cy="318.12" r="13.1"/></g><g id="Icon-_-Line-green" data-name="Icon-/-Line-green"><line id="Line-7" data-name="Line" class="cls-11" x1="1473.93" y1="286.83" x2="1581.17" y2="286.83"/></g><polygon class="cls-12" points="1582.91 191.69 1563.48 225.35 1602.35 225.35 1582.91 191.69"/><polygon class="cls-12" points="1563.48 177.85 1544.04 211.52 1582.91 211.52 1563.48 177.85"/><polygon class="cls-5" points="1012.01 86.34 992.57 120 1031.44 120 1012.01 86.34"/><rect class="cls-13" x="1150.41" y="74.04" width="292.28" height="191.5" rx="8.52"/><rect class="cls-14" x="1150.41" y="74.04" width="292.28" height="191.5" rx="8.52"/><line class="cls-14" x1="1442.69" y1="95.77" x2="1150.41" y2="95.77"/><circle class="cls-15" cx="1407.3" cy="85.42" r="2.24"/><circle class="cls-16" cx="1418.03" cy="85.42" r="2.24"/><circle class="cls-17" cx="1428.75" cy="85.42" r="2.24"/><rect class="cls-18" x="1162.36" y="106.46" width="270.25" height="147.69" rx="4.9"/><rect class="cls-13" x="1134.45" y="20.44" width="162.1" height="165.46" rx="8.52"/><rect class="cls-19" x="1134.45" y="20.44" width="162.1" height="165.46" rx="8.52"/><line class="cls-19" x1="1296.55" y1="42.16" x2="1134.45" y2="42.16"/><circle class="cls-15" cx="1261.16" cy="31.81" r="2.24"/><circle class="cls-16" cx="1271.88" cy="31.81" r="2.24"/><circle class="cls-17" cx="1282.61" cy="31.81" r="2.24"/><rect class="cls-18" x="1146.4" y="52.86" width="140.07" height="121.66" rx="4.9"/><rect class="cls-13" x="1311.83" y="152.21" width="162.1" height="165.46" rx="8.52"/><rect class="cls-20" x="1311.83" y="152.21" width="162.1" height="165.46" rx="8.52"/><line class="cls-20" x1="1473.93" y1="173.93" x2="1311.83" y2="173.93"/><circle class="cls-15" cx="1438.55" cy="163.58" r="2.24"/><circle class="cls-16" cx="1449.27" cy="163.58" r="2.24"/><circle class="cls-17" cx="1459.99" cy="163.58" r="2.24"/><rect class="cls-18" x="1323.79" y="184.62" width="140.07" height="121.66" rx="4.9"/><g id="path1948"><path class="cls-13" d="M1181.27,138.43c-6.91,0-11.82-4.6-13.83-13-2.25-9.33-2.25-15,0-24.35,1.91-8,8-12.95,16-12.95h7.23V77.86c0-7.16,2.11-11.67,12.87-13.58a69.42,69.42,0,0,1,11.38-1h.37a73.62,73.62,0,0,1,12,1c7.47,1.25,12.89,7,12.89,13.58V100a13.24,13.24,0,0,1-13.13,13.32h-23.24a13.34,13.34,0,0,0-13,13v12.13Zm21.07-65a2.93,2.93,0,1,0,2.87,2.94A2.91,2.91,0,0,0,1202.34,73.45Z"/><path class="cls-21" d="M1215.27,64.81a73.19,73.19,0,0,1,11.78,1c6.31,1,11.63,5.79,11.63,12.1V100a11.72,11.72,0,0,1-11.63,11.82H1203.8a14.79,14.79,0,0,0-14.53,14.46v10.63h-8c-6.77,0-10.72-4.91-12.37-11.8-2.23-9.25-2.14-14.79,0-23.65,1.85-7.73,7.77-11.8,14.54-11.8h32v-3h-23.27V77.86c0-6.72,1.79-10.36,11.63-12.1a66.91,66.91,0,0,1,11.12-1h.35m-12.93,16a4.43,4.43,0,1,0-4.37-4.42,4.4,4.4,0,0,0,4.37,4.42m12.93-19h-.36a70.16,70.16,0,0,0-11.63,1c-11.75,2.07-14.11,7.3-14.11,15v8.82h-5.73c-8.55,0-15.41,5.54-17.46,14.1-2.28,9.48-2.28,15.57,0,25,2.15,9,7.72,14.1,15.29,14.1h11V126.3a11.79,11.79,0,0,1,11.53-11.46h23.25A14.74,14.74,0,0,0,1241.68,100V77.86c0-7.36-5.94-13.69-14.14-15.06a75.82,75.82,0,0,0-12.27-1Zm-12.93,16a1.4,1.4,0,0,1-1.37-1.42,1.37,1.37,0,1,1,2.74,0,1.4,1.4,0,0,1-1.37,1.42Z"/></g><g id="path1950"><path class="cls-13" d="M1215.35,163.85a42.2,42.2,0,0,1-12-1.83c-8.2-2.41-12.71-7.12-12.71-13.27V126.6a13.41,13.41,0,0,1,13.14-13.33h23.24c6.94,0,13-6.19,13-13.25V89.68a1.5,1.5,0,0,1,1.5-1.5h8.73c6.65,0,10.93,4.23,13.09,12.94,2.43,9.79,2.42,17.11,0,24.49-2.16,6.48-4.94,12.82-13.06,12.82h-11.27a1.49,1.49,0,0,1,1.13,1.46v8.86c0,6.27-4.39,10.86-12.71,13.27A43.25,43.25,0,0,1,1215.35,163.85Zm13.16-16.55a2.94,2.94,0,1,0,2.87,2.92A2.89,2.89,0,0,0,1228.51,147.3Z"/><path class="cls-17" d="M1250.32,89.68c6.77,0,10,5.07,11.63,11.8,2.33,9.35,2.43,16.36,0,23.65-2.35,7.08-4.87,11.8-11.63,11.8h-34.88v3h23.24v8.86c0,6.72-5.77,10.13-11.63,11.83a41.44,41.44,0,0,1-11.7,1.77,40.31,40.31,0,0,1-11.55-1.77c-6.15-1.81-11.63-5.52-11.63-11.83V126.6a11.87,11.87,0,0,1,11.63-11.83h23.25A14.93,14.93,0,0,0,1241.59,100V89.68h8.73m-21.81,65a4.44,4.44,0,1,0-4.36-4.45,4.42,4.42,0,0,0,4.36,4.45m21.81-68h-8.73a3,3,0,0,0-3,3V100a12,12,0,0,1-11.54,11.75H1203.8a14.93,14.93,0,0,0-14.63,14.83v22.15c0,6.77,5,12.13,13.79,14.71a43.66,43.66,0,0,0,12.39,1.89,44.6,44.6,0,0,0,12.53-1.89c8.9-2.58,13.8-7.8,13.8-14.71v-8.82h8.64c9.12,0,12.25-7.15,14.48-13.85,2.55-7.66,2.57-15.24.06-25.32-2.31-9.34-7.21-14.08-14.54-14.08Zm-21.81,65a1.44,1.44,0,1,1,1.37-1.45,1.41,1.41,0,0,1-1.37,1.45Z"/></g><path class="cls-22" d="M1382.36,200.32h16.14v74a107,107,0,0,1-20.94,2.18c-19.71,0-30-8.83-30-25.74,0-16.3,10.89-26.88,27.76-26.88a26.53,26.53,0,0,1,7,.82Zm.57,37.7a16.25,16.25,0,0,0-5.45-.83c-8.16,0-12.88,5-12.88,13.71,0,8.5,4.51,13.19,12.78,13.19a38,38,0,0,0,5.55-.41Z"/><path class="cls-22" d="M1424.9,225.85v37c0,12.75-1,18.89-3.76,24.18-2.62,5.08-6.07,8.29-13.2,11.83l-15-7.06c7.12-3.31,10.57-6.24,12.77-10.7s3-9.86,3-23.77V225.85Z"/><path class="cls-22" d="M1407.15,200.32h16.14v16.4h-16.14v-16.4Z"/><line class="cls-22" x1="1320.51" y1="121.11" x2="1415.79" y2="121.11"/><line class="cls-22" x1="1320.51" y1="132.23" x2="1415.79" y2="132.23"/><line class="cls-23" x1="1216.44" y1="202.96" x2="1286.32" y2="202.96"/><line class="cls-23" x1="1216.44" y1="214.08" x2="1286.32" y2="214.08"/><path class="cls-13" d="M1221.74,272.44V252.31a5,5,0,0,0-5-5h-5.56a5,5,0,0,1-4.62-3.08l0-.07a5,5,0,0,1,1.08-5.45l3.94-3.94a5,5,0,0,0,0-7.07l-14.24-14.24a5,5,0,0,0-7.07,0l-3.94,3.94a5,5,0,0,1-5.46,1.07l-.06,0a5,5,0,0,1-3.08-4.62v-5.56a5,5,0,0,0-5-5h-20.13a5,5,0,0,0-5,5v5.56a5,5,0,0,1-3.09,4.62l-.06,0a5,5,0,0,1-5.46-1.07l-3.93-3.94a5,5,0,0,0-7.08,0l-14.24,14.24a5,5,0,0,0,0,7.07l3.94,3.94a5,5,0,0,1,1.08,5.45l0,.07a5,5,0,0,1-4.62,3.08h-5.56a5,5,0,0,0-5,5v20.13a5,5,0,0,0,5,5h5.56a5,5,0,0,1,4.62,3.09l0,.06a5,5,0,0,1-1.08,5.46l-3.94,3.93a5,5,0,0,0,0,7.08l14.24,14.23a5,5,0,0,0,7.08,0l3.93-3.93a5,5,0,0,1,5.46-1.08l.06,0a5,5,0,0,1,3.09,4.61v5.57a5,5,0,0,0,5,5h20.13a5,5,0,0,0,5-5v-5.57a5,5,0,0,1,3.08-4.61l.06,0a5,5,0,0,1,5.46,1.08l3.94,3.93a5,5,0,0,0,7.07,0l14.24-14.23a5,5,0,0,0,0-7.08l-3.94-3.93a5,5,0,0,1-1.08-5.46l0-.06a5,5,0,0,1,4.62-3.09h5.56A5,5,0,0,0,1221.74,272.44Z"/><path class="cls-18" d="M1171,207.1a5,5,0,0,0,3.08,4.62l.07,0a5,5,0,0,0,3.57.1v-3.59a5,5,0,0,0-5-5H1171Z"/><path class="cls-18" d="M1112.09,277.44a5,5,0,0,0-.1-3.57l0-.06a5,5,0,0,0-4.61-3.09h-3.86v1.72a5,5,0,0,0,5,5Z"/><path class="cls-18" d="M1204.82,221a5,5,0,0,1,0,7.08l-3.94,3.93a5,5,0,0,0-1.07,5.46l0,.06a5,5,0,0,0,4.62,3.08h2a5,5,0,0,1,1.18-1.88l3.94-3.94a5,5,0,0,0,0-7.07l-14.24-14.24h0Z"/><path class="cls-18" d="M1216.73,247.3H1215v18.42a5,5,0,0,1-5,5h-5.56a5,5,0,0,0-4.62,3.09l0,.06a5,5,0,0,0,1.07,5.46l3.94,3.93a5,5,0,0,1,0,7.08l-14.23,14.24a5,5,0,0,1-7.08,0l-3.94-3.94a5,5,0,0,0-5.45-1.08l-.07,0a5,5,0,0,0-3.08,4.62v5.56a5,5,0,0,1-5,5h-18.41v1.71a5,5,0,0,0,5,5h20.13a5,5,0,0,0,5-5v-5.57a5,5,0,0,1,3.08-4.61l.06,0a5,5,0,0,1,5.46,1.08l3.94,3.93a5,5,0,0,0,7.07,0l14.24-14.23a5,5,0,0,0,0-7.08l-3.94-3.93a5,5,0,0,1-1.08-5.46l0-.06a5,5,0,0,1,4.62-3.09h5.56a5,5,0,0,0,5-5V252.31A5,5,0,0,0,1216.73,247.3Z"/><path class="cls-18" d="M1140.83,304.21a5,5,0,0,0-3.09-4.62l-.06,0a5,5,0,0,0-5.46,1.08l-3.93,3.94a5,5,0,0,1-7.08,0l6.72,6.71a5,5,0,0,0,7.08,0l3.93-3.93a4.94,4.94,0,0,1,1.89-1.18Z"/><path class="cls-14" d="M1221.74,272.44V252.31a5,5,0,0,0-5-5h-5.56a5,5,0,0,1-4.62-3.08l0-.07a5,5,0,0,1,1.08-5.45l3.94-3.94a5,5,0,0,0,0-7.07l-14.24-14.24a5,5,0,0,0-7.07,0l-3.94,3.94a5,5,0,0,1-5.46,1.07l-.06,0a5,5,0,0,1-3.08-4.62v-5.56a5,5,0,0,0-5-5h-20.13a5,5,0,0,0-5,5v5.56a5,5,0,0,1-3.09,4.62l-.06,0a5,5,0,0,1-5.46-1.07l-3.93-3.94a5,5,0,0,0-7.08,0l-14.24,14.24a5,5,0,0,0,0,7.07l3.94,3.94a5,5,0,0,1,1.08,5.45l0,.07a5,5,0,0,1-4.62,3.08h-5.56a5,5,0,0,0-5,5v20.13a5,5,0,0,0,5,5h5.56a5,5,0,0,1,4.62,3.09l0,.06a5,5,0,0,1-1.08,5.46l-3.94,3.93a5,5,0,0,0,0,7.08l14.24,14.23a5,5,0,0,0,7.08,0l3.93-3.93a5,5,0,0,1,5.46-1.08l.06,0a5,5,0,0,1,3.09,4.61v5.57a5,5,0,0,0,5,5h20.13a5,5,0,0,0,5-5v-5.57a5,5,0,0,1,3.08-4.61l.06,0a5,5,0,0,1,5.46,1.08l3.94,3.93a5,5,0,0,0,7.07,0l14.24-14.23a5,5,0,0,0,0-7.08l-3.94-3.93a5,5,0,0,1-1.08-5.46l0-.06a5,5,0,0,1,4.62-3.09h5.56A5,5,0,0,0,1221.74,272.44Z"/><circle class="cls-24" cx="1162.62" cy="262.37" r="36.7"/><circle class="cls-18" cx="1158.68" cy="258.43" r="15.65"/><circle class="cls-25" cx="1162.62" cy="262.37" r="15.65"/><path class="cls-13" d="M1283.7,316.32v-11a2.74,2.74,0,0,0-2.74-2.74h-3a2.72,2.72,0,0,1-2.52-1.68l0,0a2.74,2.74,0,0,1,.59-3l2.15-2.15a2.73,2.73,0,0,0,0-3.87l-7.78-7.78a2.73,2.73,0,0,0-3.87,0l-2.15,2.15a2.74,2.74,0,0,1-3,.59l0,0a2.72,2.72,0,0,1-1.68-2.52v-3a2.74,2.74,0,0,0-2.74-2.74h-11a2.73,2.73,0,0,0-2.73,2.74v3a2.73,2.73,0,0,1-1.69,2.52l0,0a2.76,2.76,0,0,1-3-.59l-2.15-2.15a2.73,2.73,0,0,0-3.87,0l-7.78,7.78a2.73,2.73,0,0,0,0,3.87l2.15,2.15a2.71,2.71,0,0,1,.59,3v0a2.74,2.74,0,0,1-2.53,1.68h-3a2.74,2.74,0,0,0-2.74,2.74v11a2.74,2.74,0,0,0,2.74,2.73h3a2.75,2.75,0,0,1,2.53,1.69v0a2.72,2.72,0,0,1-.59,3l-2.15,2.15a2.73,2.73,0,0,0,0,3.87l7.78,7.78a2.73,2.73,0,0,0,3.87,0l2.15-2.15a2.72,2.72,0,0,1,3-.59h0a2.74,2.74,0,0,1,1.69,2.53v3a2.73,2.73,0,0,0,2.73,2.73h11a2.74,2.74,0,0,0,2.74-2.73v-3a2.73,2.73,0,0,1,1.68-2.53h0a2.71,2.71,0,0,1,3,.59l2.15,2.15a2.73,2.73,0,0,0,3.87,0l7.78-7.78a2.73,2.73,0,0,0,0-3.87l-2.15-2.15a2.76,2.76,0,0,1-.59-3l0,0a2.73,2.73,0,0,1,2.52-1.69h3A2.74,2.74,0,0,0,1283.7,316.32Z"/><path class="cls-18" d="M1255.94,280.6a2.73,2.73,0,0,0,1.69,2.52h0a2.68,2.68,0,0,0,1.95.06v-2a2.74,2.74,0,0,0-2.74-2.74h-.94Z"/><path class="cls-18" d="M1223.76,319.05a2.79,2.79,0,0,0-.06-1.95l0,0a2.71,2.71,0,0,0-2.52-1.69h-2.11v.94a2.74,2.74,0,0,0,2.74,2.73Z"/><path class="cls-18" d="M1274.45,288.18a2.72,2.72,0,0,1,0,3.86l-2.15,2.16a2.73,2.73,0,0,0-.59,3v0a2.75,2.75,0,0,0,2.53,1.69h1.08a2.78,2.78,0,0,1,.64-1l2.15-2.15a2.73,2.73,0,0,0,0-3.87l-7.78-7.78h0Z"/><path class="cls-18" d="M1281,302.57H1280v10.07a2.74,2.74,0,0,1-2.74,2.74h-3a2.73,2.73,0,0,0-2.53,1.69v0a2.73,2.73,0,0,0,.59,3l2.15,2.15a2.73,2.73,0,0,1,0,3.87l-7.78,7.79a2.75,2.75,0,0,1-3.87,0l-2.15-2.16a2.73,2.73,0,0,0-3-.58h0a2.73,2.73,0,0,0-1.69,2.52v3.05a2.73,2.73,0,0,1-2.73,2.73h-10.07v.94a2.73,2.73,0,0,0,2.73,2.73h11a2.74,2.74,0,0,0,2.74-2.73v-3a2.73,2.73,0,0,1,1.68-2.53h0a2.71,2.71,0,0,1,3,.59l2.15,2.15a2.73,2.73,0,0,0,3.87,0l7.78-7.78a2.73,2.73,0,0,0,0-3.87l-2.15-2.15a2.76,2.76,0,0,1-.59-3l0,0a2.73,2.73,0,0,1,2.52-1.69h3a2.74,2.74,0,0,0,2.74-2.73v-11A2.74,2.74,0,0,0,1281,302.57Z"/><path class="cls-18" d="M1239.47,333.68a2.73,2.73,0,0,0-1.69-2.52h0a2.72,2.72,0,0,0-3,.58l-2.15,2.16a2.75,2.75,0,0,1-3.87,0l3.67,3.67a2.73,2.73,0,0,0,3.87,0l2.15-2.15a2.65,2.65,0,0,1,1-.65Z"/><path class="cls-14" d="M1283.7,316.32v-11a2.74,2.74,0,0,0-2.74-2.74h-3a2.72,2.72,0,0,1-2.52-1.68l0,0a2.74,2.74,0,0,1,.59-3l2.15-2.15a2.73,2.73,0,0,0,0-3.87l-7.78-7.78a2.73,2.73,0,0,0-3.87,0l-2.15,2.15a2.74,2.74,0,0,1-3,.59l0,0a2.72,2.72,0,0,1-1.68-2.52v-3a2.74,2.74,0,0,0-2.74-2.74h-11a2.73,2.73,0,0,0-2.73,2.74v3a2.73,2.73,0,0,1-1.69,2.52l0,0a2.76,2.76,0,0,1-3-.59l-2.15-2.15a2.73,2.73,0,0,0-3.87,0l-7.78,7.78a2.73,2.73,0,0,0,0,3.87l2.15,2.15a2.71,2.71,0,0,1,.59,3v0a2.74,2.74,0,0,1-2.53,1.68h-3a2.74,2.74,0,0,0-2.74,2.74v11a2.74,2.74,0,0,0,2.74,2.73h3a2.75,2.75,0,0,1,2.53,1.69v0a2.72,2.72,0,0,1-.59,3l-2.15,2.15a2.73,2.73,0,0,0,0,3.87l7.78,7.78a2.73,2.73,0,0,0,3.87,0l2.15-2.15a2.72,2.72,0,0,1,3-.59h0a2.74,2.74,0,0,1,1.69,2.53v3a2.73,2.73,0,0,0,2.73,2.73h11a2.74,2.74,0,0,0,2.74-2.73v-3a2.73,2.73,0,0,1,1.68-2.53h0a2.71,2.71,0,0,1,3,.59l2.15,2.15a2.73,2.73,0,0,0,3.87,0l7.78-7.78a2.73,2.73,0,0,0,0-3.87l-2.15-2.15a2.76,2.76,0,0,1-.59-3l0,0a2.73,2.73,0,0,1,2.52-1.69h3A2.74,2.74,0,0,0,1283.7,316.32Z"/><circle class="cls-24" cx="1251.38" cy="310.81" r="20.06"/><circle class="cls-18" cx="1249.22" cy="308.66" r="8.56"/><circle class="cls-25" cx="1251.38" cy="310.81" r="8.56"/><circle class="cls-7" cx="1462.23" cy="42.16" r="17.85"/><circle class="cls-26" cx="1599.02" cy="286.83" r="16.11"/><rect class="cls-12" x="1020.27" y="214.22" width="30.67" height="30.67" transform="translate(141 799.51) rotate(-45)"/><rect class="cls-27" x="1007.98" y="220.47" width="16.94" height="16.94" transform="translate(135.83 785.79) rotate(-45)"/><line class="cls-1" x1="1494.14" y1="156.84" x2="1473.93" y2="156.84"/></svg>