<svg xmlns="http://www.w3.org/2000/svg" version="1.1" xmlns:xlink="http://www.w3.org/1999/xlink" xmlns:svgjs="http://svgjs.com/svgjs" width="512" height="512" x="0" y="0" viewBox="0 0 682.66669 682.66669" style="enable-background:new 0 0 512 512" xml:space="preserve" class=""><g transform="matrix(0.6,0,0,0.6,136.53333282470703,136.53324356079102)">
  <defs id="defs1942" stroke-width="12" style="stroke-width: 12;">
    <clipPath clipPathUnits="userSpaceOnUse" id="clipPath1952" stroke-width="12" style="stroke-width: 12;">
      <path d="M 0,512 H 512 V 0 H 0 Z" id="path1950" fill="#000000" data-original="#000000" stroke-width="12" style="stroke-width: 12;"></path>
    </clipPath>
  </defs>
  <g id="g1944" transform="matrix(1.3333333,0,0,-1.3333333,0,682.66667)" stroke-width="12" style="stroke-width: 12;">
    <g id="g1946" stroke-width="12" style="stroke-width: 12;">
      <g id="g1948" clip-path="url(#clipPath1952)" stroke-width="12" style="stroke-width: 12;">
        <g id="g1954" transform="translate(482,131)" stroke-width="12" style="stroke-width: 12;">
          <path d="m 0,0 h -452 c -11.046,0 -20,8.954 -20,20 v 331 c 0,11.046 8.954,20 20,20 H 0 c 11.046,0 20,-8.954 20,-20 V 20 C 20,8.954 11.046,0 0,0" style="fill-opacity: 1; fill-rule: nonzero; stroke: none; stroke-width: 12;" id="path1956" fill="#edeff0" data-original="#d5f1fe" class="" stroke-width="12"></path>
        </g>
        <g id="g1958" transform="translate(482,502)" stroke-width="12" style="stroke-width: 12;">
          <path d="m 0,0 h -22 c 11.046,0 20,-8.954 20,-20 v -331 c 0,-11.046 -8.954,-20 -20,-20 H 0 c 11.046,0 20,8.954 20,20 V -20 C 20,-8.954 11.046,0 0,0" style="fill-opacity: 1; fill-rule: nonzero; stroke: none; stroke-width: 12;" id="path1960" fill="#edeff0" data-original="#b4e7fd" class="" stroke-width="12"></path>
        </g>
        <g id="g1962" transform="translate(482,502)" stroke-width="12" style="stroke-width: 12;">
          <path d="m 0,0 h -452 c -11.046,0 -20,-8.954 -20,-20 V -94 H 20 v 74 C 20,-8.954 11.046,0 0,0" style="fill-opacity: 1; fill-rule: nonzero; stroke: none; stroke-width: 12;" id="path1964" fill="#2470a9" data-original="#a0cafe" class="" stroke-width="12"></path>
        </g>
        <g id="g1966" transform="translate(482,502)" stroke-width="12" style="stroke-width: 12;">
          <path d="m 0,0 h -22 c 11.046,0 20,-8.954 20,-20 v -74 h 22 v 74 C 20,-8.954 11.046,0 0,0" style="fill-opacity: 1; fill-rule: nonzero; stroke: none; stroke-width: 12;" id="path1968" fill="#2470a9" data-original="#81b8fd" class="" stroke-width="12"></path>
        </g>
        <g id="g1970" transform="translate(83,455)" stroke-width="12" style="stroke-width: 12;">
          <path d="m 0,0 c 0,-8.837 -7.163,-16 -16,-16 -8.837,0 -16,7.163 -16,16 0,8.837 7.163,16 16,16 C -7.163,16 0,8.837 0,0" style="fill-opacity: 1; fill-rule: nonzero; stroke: none; stroke-width: 12;" id="path1972" fill="#63d9b6" data-original="#97d57e" class="" stroke-width="12"></path>
        </g>
        <g id="g1974" transform="translate(146,455)" stroke-width="12" style="stroke-width: 12;">
          <path d="m 0,0 c 0,-8.837 -7.163,-16 -16,-16 -8.837,0 -16,7.163 -16,16 0,8.837 7.163,16 16,16 C -7.163,16 0,8.837 0,0" style="fill-opacity: 1; fill-rule: nonzero; stroke: none; stroke-width: 12;" id="path1976" fill="#e09932" data-original="#ffea84" class="" stroke-width="12"></path>
        </g>
        <g id="g1978" transform="translate(209,455)" stroke-width="12" style="stroke-width: 12;">
          <path d="m 0,0 c 0,-8.837 -7.163,-16 -16,-16 -8.837,0 -16,7.163 -16,16 0,8.837 7.163,16 16,16 C -7.163,16 0,8.837 0,0" style="fill-opacity: 1; fill-rule: nonzero; stroke: none; stroke-width: 12;" id="path1980" fill="#e38082" data-original="#ea7f87" class="" stroke-width="12"></path>
        </g>
        <g id="g1982" transform="translate(217,132)" stroke-width="12" style="stroke-width: 12;">
          <path d="m 0,0 v 97 l 31,31 v 61.5 L -9,229 v -71 l -27,-17 -27,17 v 71 l -40,-39.5 V 128 L -72,97 V 0 Z" style="fill-opacity: 1; fill-rule: nonzero; stroke: none; stroke-width: 12;" id="path1984" fill="#9b9b9b" data-original="#9b9b9b" class="" stroke-width="12"></path>
        </g>
        <g id="g1986" transform="translate(208,361)" stroke-width="12" style="stroke-width: 12;">
          <path d="M 0,0 V -31 L 16.071,-47.071 C 17.946,-48.946 19,-51.49 19,-54.142 v -32.716 c 0,-2.652 -1.054,-5.196 -2.929,-7.071 L -9.071,-119.071 C -10.946,-120.946 -12,-123.49 -12,-126.142 V -229 H 9 v 97 l 31,31 v 61.5 z" style="fill-opacity: 1; fill-rule: nonzero; stroke: none; stroke-width: 12;" id="path1988" fill="#828282" data-original="#828282" class="" stroke-width="12"></path>
        </g>
        <g id="g1990" transform="translate(291,234)" stroke-width="12" style="stroke-width: 12;">
          <path d="M 0,0 V -102 H 36 72 V 0 Z" style="fill-opacity: 1; fill-rule: nonzero; stroke: none; stroke-width: 12;" id="path1992" fill="#e38082" data-original="#ea7f87" class="" stroke-width="12"></path>
        </g>
        <path d="m 344,132 h 19 v 102 h -19 z" style="fill-opacity: 1; fill-rule: nonzero; stroke: none; stroke-width: 12;" id="path1994" fill="#e38082" data-original="#e5646e" class="" stroke-width="12"></path>
        <g id="g1996" transform="translate(394.6033,53)" stroke-width="12" style="stroke-width: 12;">
          <path d="m 0,0 c -2.771,9.074 -6.399,17.773 -10.785,26.007 l 39.887,39.888 -60.811,60.811 -39.887,-39.888 c -8.235,4.387 -16.934,8.014 -26.007,10.785 V 154 h -86 V 97.603 c -9.074,-2.771 -17.773,-6.398 -26.007,-10.785 l -39.888,39.888 -60.811,-60.811 39.888,-39.888 C -274.808,17.773 -278.435,9.074 -281.207,0 h -56.396 v -43 h 148 c 0,27.062 21.938,49 49,49 27.062,0 49,-21.938 49,-49 h 148 V 0 Z" style="fill-opacity: 1; fill-rule: nonzero; stroke: none; stroke-width: 12;" id="path1998" fill="#2470a9" data-original="#a0cafe" class="" stroke-width="12"></path>
        </g>
        <g id="g2000" transform="translate(394.6033,53)" stroke-width="12" style="stroke-width: 12;">
          <path d="M 0,0 C -2.771,9.074 -6.399,17.773 -10.785,26.007 L 29.102,65.895 -31.709,126.706 -51,107.415 c 9.902,-22.98 15.397,-48.304 15.397,-74.915 0,-26.837 -5.591,-52.365 -15.652,-75.5 H 56.397 V 0 Z" style="fill-opacity: 1; fill-rule: nonzero; stroke: none; stroke-width: 12;" id="path2002" fill="#2470a9" data-original="#81b8fd" class="" stroke-width="12"></path>
        </g>
        <g id="g2004" transform="translate(254,116)" stroke-width="12" style="stroke-width: 12;">
          <path d="m 0,0 c -58.542,0 -106,-47.458 -106,-106 h 57 c 0,27.062 21.938,49 49,49 27.062,0 49,-21.938 49,-49 h 57 C 106,-47.458 58.542,0 0,0" style="fill-opacity: 1; fill-rule: nonzero; stroke: none; stroke-width: 12;" id="path2006" fill="#edeff0" data-original="#d5f1fe" class="" stroke-width="12"></path>
        </g>
        <g id="g2008" transform="translate(254,116)" stroke-width="12" style="stroke-width: 12;">
          <path d="M 0,0 C -3.373,0 -6.707,-0.165 -10,-0.473 43.852,-5.513 86,-50.831 86,-106 h 20 C 106,-47.458 58.542,0 0,0" style="fill-opacity: 1; fill-rule: nonzero; stroke: none; stroke-width: 12;" id="path2010" fill="#edeff0" data-original="#b4e7fd" class="" stroke-width="12"></path>
        </g>
        <g id="g2012" transform="translate(337,361)" stroke-width="12" style="stroke-width: 12;">
          <path d="m 0,0 h -10 -10 l -18,-58 13,-12 v -57 H 5 v 57 l 13,12 z" style="fill-opacity: 1; fill-rule: nonzero; stroke: none; stroke-width: 12;" id="path2014" fill="#9b9b9b" data-original="#9b9b9b" class="" stroke-width="12"></path>
        </g>
        <g id="g2016" transform="translate(337,361)" stroke-width="12" style="stroke-width: 12;">
          <path d="m 0,0 h -10 -3 l 12.342,-42.316 c 1.022,-3.505 0.053,-7.289 -2.529,-9.871 l -1.884,-1.884 C -6.946,-55.946 -8,-58.49 -8,-61.142 V -127 H 5 v 57 l 13,12 z" style="fill-opacity: 1; fill-rule: nonzero; stroke: none; stroke-width: 12;" id="path2018" fill="#828282" data-original="#828282" class="" stroke-width="12"></path>
        </g>
        <g id="g2020" transform="translate(83,455)" stroke-width="12" style="stroke-width: 12;">
          <path d="m 0,0 c 0,-8.837 -7.163,-16 -16,-16 -8.837,0 -16,7.163 -16,16 0,8.837 7.163,16 16,16 C -7.163,16 0,8.837 0,0 Z" style="stroke-width: 12; stroke-linecap: round; stroke-linejoin: round; stroke-miterlimit: 10; stroke-dasharray: none; stroke-opacity: 1;" id="path2022" fill="none" stroke="#000000" stroke-width="12" stroke-linecap="round" stroke-linejoin="round" stroke-miterlimit="10" stroke-dasharray="none" stroke-opacity="" data-original="#000000" class=""></path>
        </g>
        <g id="g2024" transform="translate(146,455)" stroke-width="12" style="stroke-width: 12;">
          <path d="m 0,0 c 0,-8.837 -7.163,-16 -16,-16 -8.837,0 -16,7.163 -16,16 0,8.837 7.163,16 16,16 C -7.163,16 0,8.837 0,0 Z" style="stroke-width: 12; stroke-linecap: round; stroke-linejoin: round; stroke-miterlimit: 10; stroke-dasharray: none; stroke-opacity: 1;" id="path2026" fill="none" stroke="#000000" stroke-width="12" stroke-linecap="round" stroke-linejoin="round" stroke-miterlimit="10" stroke-dasharray="none" stroke-opacity="" data-original="#000000" class=""></path>
        </g>
        <g id="g2028" transform="translate(209,455)" stroke-width="12" style="stroke-width: 12;">
          <path d="m 0,0 c 0,-8.837 -7.163,-16 -16,-16 -8.837,0 -16,7.163 -16,16 0,8.837 7.163,16 16,16 C -7.163,16 0,8.837 0,0 Z" style="stroke-width: 12; stroke-linecap: round; stroke-linejoin: round; stroke-miterlimit: 10; stroke-dasharray: none; stroke-opacity: 1;" id="path2030" fill="none" stroke="#000000" stroke-width="12" stroke-linecap="round" stroke-linejoin="round" stroke-miterlimit="10" stroke-dasharray="none" stroke-opacity="" data-original="#000000" class=""></path>
        </g>
        <g id="g2032" transform="translate(502,371.4844)" stroke-width="12" style="stroke-width: 12;">
          <path d="m 0,0 v 36.516 74 c 0,11.05 -8.95,20 -20,20 h -452 c -11.05,0 -20,-8.95 -20,-20 v -74 -257 c 0,-11.05 8.95,-20 20,-20 h 66.4" style="stroke-width: 12; stroke-linecap: round; stroke-linejoin: round; stroke-miterlimit: 10; stroke-dasharray: none; stroke-opacity: 1;" id="path2034" fill="none" stroke="#000000" stroke-width="12" stroke-linecap="round" stroke-linejoin="round" stroke-miterlimit="10" stroke-dasharray="none" stroke-opacity="" data-original="#000000" class=""></path>
        </g>
        <g id="g2036" transform="translate(411.6,131)" stroke-width="12" style="stroke-width: 12;">
          <path d="m 0,0 h 70.4 c 11.05,0 20,8.95 20,20 v 185.542" style="stroke-width: 12; stroke-linecap: round; stroke-linejoin: round; stroke-miterlimit: 10; stroke-dasharray: none; stroke-opacity: 1;" id="path2038" fill="none" stroke="#000000" stroke-width="12" stroke-linecap="round" stroke-linejoin="round" stroke-miterlimit="10" stroke-dasharray="none" stroke-opacity="" data-original="#000000" class=""></path>
        </g>
        <g id="g2040" transform="translate(10,408)" stroke-width="12" style="stroke-width: 12;">
          <path d="M 0,0 H 492" style="stroke-width: 12; stroke-linecap: round; stroke-linejoin: round; stroke-miterlimit: 10; stroke-dasharray: none; stroke-opacity: 1;" id="path2042" fill="none" stroke="#000000" stroke-width="12" stroke-linecap="round" stroke-linejoin="round" stroke-miterlimit="10" stroke-dasharray="none" stroke-opacity="" data-original="#000000" class=""></path>
        </g>
        <g id="g2044" transform="translate(394.6033,53)" stroke-width="12" style="stroke-width: 12;">
          <path d="m 0,0 c -2.771,9.074 -6.399,17.773 -10.785,26.007 l 39.887,39.888 -60.811,60.811 -39.887,-39.888 c -8.235,4.387 -16.934,8.014 -26.007,10.785 V 154 h -86 V 97.603 c -9.074,-2.771 -17.773,-6.398 -26.007,-10.785 l -39.888,39.888 -60.811,-60.811 39.888,-39.888 C -274.808,17.773 -278.435,9.074 -281.207,0 h -56.396 v -43 h 148 c 0,27.062 21.938,49 49,49 27.062,0 49,-21.938 49,-49 h 148 V 0 Z" style="stroke-width: 12; stroke-linecap: round; stroke-linejoin: round; stroke-miterlimit: 10; stroke-dasharray: none; stroke-opacity: 1;" id="path2046" fill="none" stroke="#000000" stroke-width="12" stroke-linecap="round" stroke-linejoin="round" stroke-miterlimit="10" stroke-dasharray="none" stroke-opacity="" data-original="#000000" class=""></path>
        </g>
        <g id="g2048" transform="translate(181.5082,87.337)" stroke-width="12" style="stroke-width: 12;">
          <path d="m 0,0 c -20.624,-19.339 -33.508,-46.833 -33.508,-77.337 h 57 c 0,27.062 21.938,49 49,49 27.062,0 49,-21.938 49,-49 h 57 c 0,58.542 -47.458,106 -106,106 -15.343,0 -29.925,-3.26 -43.091,-9.125" style="stroke-width: 12; stroke-linecap: round; stroke-linejoin: round; stroke-miterlimit: 10; stroke-dasharray: none; stroke-opacity: 1;" id="path2050" fill="none" stroke="#000000" stroke-width="12" stroke-linecap="round" stroke-linejoin="round" stroke-miterlimit="10" stroke-dasharray="none" stroke-opacity="" data-original="#000000" class=""></path>
        </g>
        <g id="g2052" transform="translate(154,333.5417)" stroke-width="12" style="stroke-width: 12;">
          <path d="m 0,0 v 27.458 l -40,-39.5 v -61.5 l 31,-31 v -49" style="stroke-width: 12; stroke-linecap: round; stroke-linejoin: round; stroke-miterlimit: 10; stroke-dasharray: none; stroke-opacity: 1;" id="path2054" fill="none" stroke="#000000" stroke-width="12" stroke-linecap="round" stroke-linejoin="round" stroke-miterlimit="10" stroke-dasharray="none" stroke-opacity="" data-original="#000000" class=""></path>
        </g>
        <g id="g2056" transform="translate(217,207)" stroke-width="12" style="stroke-width: 12;">
          <path d="m 0,0 v 22 l 31,31 v 61.5 L -9,154 V 83 L -36,66 -63,83 v 8.417" style="stroke-width: 12; stroke-linecap: round; stroke-linejoin: round; stroke-miterlimit: 10; stroke-dasharray: none; stroke-opacity: 1;" id="path2058" fill="none" stroke="#000000" stroke-width="12" stroke-linecap="round" stroke-linejoin="round" stroke-miterlimit="10" stroke-dasharray="none" stroke-opacity="" data-original="#000000" class=""></path>
        </g>
        <g id="g2060" transform="translate(363,180)" stroke-width="12" style="stroke-width: 12;">
          <path d="M 0,0 V 54 H -72 V 27" style="stroke-width: 12; stroke-linecap: round; stroke-linejoin: round; stroke-miterlimit: 10; stroke-dasharray: none; stroke-opacity: 1;" id="path2062" fill="none" stroke="#000000" stroke-width="12" stroke-linecap="round" stroke-linejoin="round" stroke-miterlimit="10" stroke-dasharray="none" stroke-opacity="" data-original="#000000" class=""></path>
        </g>
        <g id="g2064" transform="translate(337,361)" stroke-width="12" style="stroke-width: 12;">
          <path d="m 0,0 h -10 -10 l -18,-58 13,-12 v -57 H 5 v 57 l 13,12 z" style="stroke-width: 12; stroke-linecap: round; stroke-linejoin: round; stroke-miterlimit: 10; stroke-dasharray: none; stroke-opacity: 1;" id="path2066" fill="none" stroke="#000000" stroke-width="12" stroke-linecap="round" stroke-linejoin="round" stroke-miterlimit="10" stroke-dasharray="none" stroke-opacity="" data-original="#000000" class=""></path>
        </g>
      </g>
    </g>
  </g>
</g></svg>