<svg id="Layer_1" data-name="Layer 1" xmlns="http://www.w3.org/2000/svg" viewBox="0 0 1956.65 399.1"><defs><style>.cls-1,.cls-10,.cls-11,.cls-15,.cls-2,.cls-21,.cls-24,.cls-5,.cls-6,.cls-7,.cls-8,.cls-9{fill:none;}.cls-1,.cls-11,.cls-2,.cls-8{stroke:#979797;}.cls-1,.cls-10,.cls-11,.cls-16,.cls-21,.cls-23,.cls-4,.cls-5,.cls-6,.cls-8,.cls-9{stroke-linecap:round;}.cls-1,.cls-16,.cls-21,.cls-23,.cls-4{stroke-linejoin:round;}.cls-1,.cls-10,.cls-11,.cls-2,.cls-5,.cls-6,.cls-7,.cls-8,.cls-9{stroke-width:2px;}.cls-3{fill:#46e83d;fill-opacity:0.1;}.cls-12,.cls-14,.cls-16,.cls-20,.cls-23,.cls-4{fill:#fff;}.cls-4{stroke:#ff7680;}.cls-12,.cls-15,.cls-16,.cls-20,.cls-21,.cls-23,.cls-24,.cls-4{stroke-width:3px;}.cls-16,.cls-5,.cls-7,.cls-9{stroke:#63d9b6;}.cls-10,.cls-21,.cls-6{stroke:#2470a9;}.cls-6,.cls-8,.cls-9{stroke-dasharray:10;}.cls-12,.cls-15{stroke:#97a2a6;}.cls-12,.cls-15,.cls-20,.cls-24{stroke-miterlimit:10;}.cls-13{fill:#edeff0;}.cls-17{fill:#ff7680;}.cls-18{fill:#63d9b6;}.cls-19{fill:#f7931e;}.cls-20,.cls-24{stroke:#edeff0;}.cls-21{stroke-dasharray:5;}.cls-22{fill:#2470a9;}.cls-23{stroke:#f7931e;}</style></defs><title>15</title><path id="Shape" class="cls-1" d="M-20,321H867.58q103.13,1.16,103.12-85t92-80.18l108.12.24m323.3.73,161.64.37h68.94q82.1,0,82.09,48.22t54.47,64.66h101.93"/><path id="Path-6" class="cls-1" d="M831.08,322.15q6.33,56.64-50.68,56.65H678.88"/><circle id="Oval-2" class="cls-2" cx="658.91" cy="378.66" r="19.44"/><path id="Path-6-2" data-name="Path-6" class="cls-1" d="M1517.11,156.6q-6.31-56.65,50.68-56.65h101.52"/><circle id="Oval-2-2" data-name="Oval-2" class="cls-2" cx="1689.28" cy="100.09" r="19.44"/><path id="Path-6-3" data-name="Path-6" class="cls-1" d="M1625,56.42h42.73q24,0,21.33,23.84"/><ellipse id="Oval" class="cls-3" cx="1296.27" cy="199.05" rx="202.25" ry="199.05"/><g id="Icon-_-Plus-grey" data-name="Icon-/-Plus-grey"><line id="Line" class="cls-4" x1="1156.53" y1="25.43" x2="1156.53" y2="42.86"/><line id="Line-Copy" class="cls-4" x1="1147.15" y1="34.14" x2="1165.91" y2="34.14"/></g><g id="Icon-_-Plus-grey-2" data-name="Icon-/-Plus-grey"><line id="Line-2" data-name="Line" class="cls-4" x1="1571.26" y1="119.95" x2="1571.26" y2="137.37"/><line id="Line-Copy-2" data-name="Line-Copy" class="cls-4" x1="1561.88" y1="128.66" x2="1580.64" y2="128.66"/></g><g id="Icon-_-Plus-grey-3" data-name="Icon-/-Plus-grey"><line id="Line-3" data-name="Line" class="cls-5" x1="1339.87" y1="337.91" x2="1339.87" y2="375.25"/><line id="Line-Copy-3" data-name="Line-Copy" class="cls-5" x1="1319.76" y1="356.58" x2="1359.97" y2="356.58"/></g><g id="Icon-_-Star-green-" data-name="Icon-/-Star-green-"><path id="Path-7" class="cls-4" d="M1529.44,285.52q18.61.09,18.61-16.87"/><path id="Path-7-2" data-name="Path-7" class="cls-4" d="M1566.82,285.52q-18.61.09-18.61-16.87"/><path id="Path-7-Copy-2" class="cls-4" d="M1566.82,286c-.88-.07-1.52-.11-1.94-.13-14.66-.4-16.67,7.28-16.67,22.75"/><path id="Path-7-Copy-3" class="cls-4" d="M1529.44,286c.88-.07,1.52-.11,1.94-.13,14.66-.4,16.67,7.28,16.67,22.75"/></g><g id="Icon-_-Star-green--2" data-name="Icon-/-Star-green-"><path id="Path-7-3" data-name="Path-7" class="cls-4" d="M990.42,96.82Q1009,96.93,1009,80"/><path id="Path-7-4" data-name="Path-7" class="cls-4" d="M1027.79,96.82q-18.6.11-18.61-16.87"/><path id="Path-7-Copy-2-2" data-name="Path-7-Copy-2" class="cls-4" d="M1027.79,97.33c-.87-.07-1.52-.12-1.94-.13-14.66-.41-16.67,7.27-16.67,22.75"/><path id="Path-7-Copy-3-2" data-name="Path-7-Copy-3" class="cls-4" d="M990.42,97.33c.87-.07,1.52-.12,1.94-.13C1007,96.79,1009,104.47,1009,120"/></g><g id="Icon-_-Line-grey" data-name="Icon-/-Line-grey"><line id="Line-4" data-name="Line" class="cls-6" x1="1249.97" y1="31.68" x2="1447.2" y2="31.68"/></g><g id="Icon-_-Plus-blue" data-name="Icon-/-Plus-blue"><line id="Line-5" data-name="Line" class="cls-1" x1="1140.32" y1="339.15" x2="1140.32" y2="356.58"/><line id="Line-Copy-4" data-name="Line-Copy" class="cls-1" x1="1130.94" y1="347.86" x2="1149.7" y2="347.86"/></g><g id="Icon-_-Circle-green" data-name="Icon-/-Circle-green"><circle id="Oval-9" class="cls-7" cx="1086.98" cy="286.47" r="12.73"/></g><g id="Icon-_-Circle-grey" data-name="Icon-/-Circle-grey"><circle id="Oval-9-2" data-name="Oval-9" class="cls-8" cx="1064.94" cy="59.84" r="24.13"/></g><g id="Icon-_-Line-green" data-name="Icon-/-Line-green"><line id="Line-6" data-name="Line" class="cls-9" x1="1485.13" y1="208.42" x2="1592.36" y2="208.42"/></g><polygon class="cls-10" points="1056.5 213.47 1032.6 199.66 1032.6 227.26 1056.5 213.47"/><polygon class="cls-11" points="1494.53 33.74 1480.73 57.64 1508.33 57.64 1494.53 33.74"/><polygon class="cls-11" points="1494.53 58.7 1480.73 82.6 1508.33 82.6 1494.53 58.7"/><rect class="cls-1" x="1599.32" y="45.83" width="21.18" height="21.18" transform="translate(431.64 1154.9) rotate(-45)"/><rect class="cls-10" x="1638.35" y="189.51" width="29.21" height="29.21" transform="translate(339.81 1228.6) rotate(-45)"/><rect class="cls-10" x="1641.99" y="210.51" width="21.92" height="21.92" transform="translate(327.53 1233.68) rotate(-45)"/><line class="cls-1" x1="1494.14" y1="156.84" x2="1436.73" y2="156.84"/><path class="cls-12" d="M1172.18,131.87h252.19a12.23,12.23,0,0,1,12.23,12.23V304.33a0,0,0,0,1,0,0H1159.95a0,0,0,0,1,0,0V144.09A12.23,12.23,0,0,1,1172.18,131.87Z"/><path class="cls-13" d="M1222.08,95.12h154.61a0,0,0,0,1,0,0V348.61a0,0,0,0,1,0,0H1222.08a2.23,2.23,0,0,1-2.23-2.23v-249A2.23,2.23,0,0,1,1222.08,95.12Z" transform="translate(1520.13 -1076.41) rotate(90)"/><rect class="cls-14" x="1290.49" y="157.4" width="128.49" height="120.57" transform="translate(1572.41 -1137.05) rotate(90)"/><path class="cls-14" d="M1325.47,293.34v2c0,2.95-3.37,5.33-7.53,5.33H1278.6c-4.16,0-7.53-2.38-7.53-5.33v-2H1141.46c-3.85,0-7,2.21-7,4.94v4.89c0,5.44,6.22,9.84,13.9,9.84h299.78c7.67,0,13.89-4.4,13.89-9.84v-4.89c0-2.73-3.12-4.94-7-4.94Z"/><path class="cls-13" d="M1448.74,306.86H1149c-7.68,0-13.9-4.4-13.9-9.84v-.71a3.74,3.74,0,0,0-.58,2v4.89c0,5.44,6.22,9.84,13.9,9.84h299.78c7.67,0,13.89-4.4,13.89-9.84v-3.35C1460.35,303.89,1455,306.86,1448.74,306.86Z"/><path class="cls-15" d="M1325.47,293.34v2c0,2.95-3.37,5.33-7.53,5.33H1278.6c-4.16,0-7.53-2.38-7.53-5.33v-2H1141.46c-3.85,0-7,2.21-7,4.94v4.89c0,5.44,6.22,9.84,13.9,9.84h299.78c7.67,0,13.89-4.4,13.89-9.84v-4.89c0-2.73-3.12-4.94-7-4.94Z"/><rect class="cls-13" x="1159.37" y="300.28" width="30.09" height="6.94" rx="3"/><line class="cls-15" x1="1318.89" y1="176.55" x2="1390.57" y2="176.55"/><line class="cls-15" x1="1318.89" y1="188.68" x2="1390.57" y2="188.68"/><line class="cls-15" x1="1318.89" y1="200.8" x2="1390.57" y2="200.8"/><line class="cls-15" x1="1318.89" y1="213.06" x2="1362.09" y2="213.06"/><line class="cls-15" x1="1318.89" y1="225.06" x2="1362.09" y2="225.06"/><rect class="cls-14" x="1108.4" y="70.71" width="162.1" height="165.46" rx="8.52"/><rect class="cls-16" x="1108.4" y="70.71" width="162.1" height="165.46" rx="8.52"/><line class="cls-16" x1="1270.5" y1="92.44" x2="1108.4" y2="92.44"/><circle class="cls-17" cx="1235.11" cy="82.08" r="2.24"/><circle class="cls-18" cx="1245.83" cy="82.08" r="2.24"/><circle class="cls-19" cx="1256.55" cy="82.08" r="2.24"/><rect class="cls-13" x="1120.35" y="103.13" width="140.07" height="121.66" rx="4.9"/><circle class="cls-18" cx="1215.2" cy="128.92" r="1.93"/><polygon class="cls-18" points="1227.45 137.16 1221.07 131 1216.02 137.16 1227.45 137.16"/><path class="cls-18" d="M1217.65,147.48s-2.45-12.33-18.48-9c-1.63-5.57-1.34-9.65,2.23-13.44,4.82-5.12,12.39-2.3,12.39-2.3v-4.23a18.63,18.63,0,0,0-8-1.41c-10.32,0-16,7.72-18.49,12.91l-29,53.37,8.16-1.55-15,29,10.47-1.86,8-22.79C1192.64,186.15,1221.74,178,1217.65,147.48Zm-10.09,4.3c-.08.37-.08.74-.15,1.12a7.69,7.69,0,0,1-.22,1.33c-.08.45-.23,1-.3,1.49s-.3,1-.45,1.63-.37,1.11-.59,1.78-.44,1.19-.74,1.86l-.45.89-.22.44-.22.45c-.15.3-.37.59-.52,1s-.37.6-.6.89c-.07.15-.22.3-.29.45l-.3.45-.67.89a16.72,16.72,0,0,1-1.56,1.7c-.52.6-1.11,1-1.7,1.64l-.89.74c-.3.22-.6.44-1,.67a45.9,45.9,0,0,1-3.93,2.45c-1.34.66-2.75,1.33-4.09,1.85s-2.67,1-3.93,1.34-2.23.67-3.31.89l-.25.07c-2.23.6-4.09,1-5.42,1.34s-2.08.44-2.08.44a12.83,12.83,0,0,0,1.93-.59c1.33-.22,3.26-.67,5.49-1.19l.33-.07c1-.28,2.14-.63,3.31-1s2.6-.89,3.86-1.48a33.33,33.33,0,0,0,4-1.93,26,26,0,0,0,3.78-2.53,6.58,6.58,0,0,0,.89-.74l.89-.74c.52-.52,1.12-1,1.64-1.64a16.51,16.51,0,0,0,1.41-1.7l.67-.89.29-.45.3-.45c.15-.29.37-.59.52-.89a6.4,6.4,0,0,1,.52-.89l.22-.44.23-.45a5.24,5.24,0,0,0,.37-.89l.66-1.78c.15-.59.38-1.19.52-1.71s.23-1.11.38-1.56.14-1,.22-1.48a8.92,8.92,0,0,0,.15-1.26c.07-.37.07-.74.14-1.12.08-1.33.08-2.07.08-2.07l1.19.07S1207.63,150.45,1207.56,151.78Z"/><path class="cls-20" d="M1331,81.77a16,16,0,0,1,6.49,1.37,29.52,29.52,0,0,1,59,1.18,28.53,28.53,0,0,1-.21,3.48,13,13,0,0,1,0,26.05H1331a16,16,0,1,1,0-32.08Z"/><path class="cls-20" d="M1379.31,97.86a10.6,10.6,0,0,1,4.33.92,19.73,19.73,0,1,1,39.3,3.11,8.71,8.71,0,0,1,0,17.41h-43.6a10.72,10.72,0,0,1,0-21.44Z"/><polyline class="cls-21" points="1365.1 287.16 1333.62 287.16 1333.62 267.53"/><circle class="cls-22" cx="1333.62" cy="263.45" r="7.61"/><circle class="cls-22" cx="1311.87" cy="153.44" r="7.61"/><path class="cls-23" d="M1177.46,250.47l44.12-44.12a1.47,1.47,0,0,1,2.51,1V272.1a1.47,1.47,0,0,1-2.61.93l-11.74-14.36-7.84,17a1.48,1.48,0,0,1-1.34.86,1.51,1.51,0,0,1-.58-.12L1189.69,272a1.42,1.42,0,0,1-.79-.82,1.46,1.46,0,0,1,0-1.14l7.87-17h-18.3a1.48,1.48,0,0,1-1-2.51Z"/><polyline class="cls-21" points="1270.49 113.85 1311.87 113.85 1311.87 153.44"/><path class="cls-14" d="M1484.14,294.25V274.12a5,5,0,0,0-5-5h-5.56A5,5,0,0,1,1469,266l0-.06a5,5,0,0,1,1.08-5.45l3.94-3.94a5,5,0,0,0,0-7.08l-14.24-14.23a5,5,0,0,0-7.08,0l-3.93,3.93a5,5,0,0,1-5.46,1.08l-.06,0a5,5,0,0,1-3.08-4.62v-5.56a5,5,0,0,0-5-5H1415a5,5,0,0,0-5,5v5.56a5,5,0,0,1-3.09,4.62l-.06,0a5,5,0,0,1-5.46-1.08l-3.93-3.93a5,5,0,0,0-7.08,0l-14.24,14.23a5,5,0,0,0,0,7.08l3.94,3.94a5,5,0,0,1,1.08,5.45l0,.06a5,5,0,0,1-4.62,3.09h-5.56a5,5,0,0,0-5,5v20.13a5,5,0,0,0,5,5h5.56a5,5,0,0,1,4.62,3.09l0,.06a5,5,0,0,1-1.08,5.46l-3.94,3.93a5,5,0,0,0,0,7.08l14.24,14.23a5,5,0,0,0,7.08,0l3.93-3.93a5,5,0,0,1,5.46-1.08l.06,0a5,5,0,0,1,3.09,4.61v5.57a5,5,0,0,0,5,5h20.13a5,5,0,0,0,5-5v-5.57a5,5,0,0,1,3.08-4.61l.06,0a5,5,0,0,1,5.46,1.08l3.93,3.93a5,5,0,0,0,7.08,0l14.24-14.23a5,5,0,0,0,0-7.08l-3.94-3.93a5,5,0,0,1-1.08-5.46l0-.06a5,5,0,0,1,4.62-3.09h5.56A5,5,0,0,0,1484.14,294.25Z"/><path class="cls-13" d="M1433.37,228.91a5,5,0,0,0,3.08,4.62l.07,0a5,5,0,0,0,3.57.11v-3.59a5,5,0,0,0-5-5h-1.71Z"/><path class="cls-13" d="M1374.49,299.25a5,5,0,0,0-.1-3.57l0-.06a5,5,0,0,0-4.61-3.09h-3.86v1.72a5,5,0,0,0,5,5Z"/><path class="cls-13" d="M1467.22,242.78a5,5,0,0,1,0,7.07l-3.94,3.94a5,5,0,0,0-1.07,5.45l0,.07a5,5,0,0,0,4.62,3.08h2a5,5,0,0,1,1.18-1.88l3.94-3.94a5,5,0,0,0,0-7.08l-14.24-14.23h0Z"/><path class="cls-13" d="M1479.13,269.11h-1.71v18.42a5,5,0,0,1-5,5h-5.56a5,5,0,0,0-4.62,3.09l0,.06a5,5,0,0,0,1.07,5.46l3.94,3.93a5,5,0,0,1,0,7.08L1453,326.39a5,5,0,0,1-7.07,0l-3.94-3.94a5,5,0,0,0-5.45-1.08l-.07,0a5,5,0,0,0-3.08,4.62v5.56a5,5,0,0,1-5,5H1410v1.72a5,5,0,0,0,5,5h20.13a5,5,0,0,0,5-5v-5.57a5,5,0,0,1,3.08-4.61l.06,0a5,5,0,0,1,5.46,1.08l3.93,3.93a5,5,0,0,0,7.08,0l14.24-14.23a5,5,0,0,0,0-7.08l-3.94-3.93a5,5,0,0,1-1.08-5.46l0-.06a5,5,0,0,1,4.62-3.09h5.56a5,5,0,0,0,5-5V274.12A5,5,0,0,0,1479.13,269.11Z"/><path class="cls-13" d="M1403.23,326a5,5,0,0,0-3.09-4.62l-.06,0a5,5,0,0,0-5.46,1.08l-3.93,3.94a5,5,0,0,1-7.08,0l6.72,6.71a5,5,0,0,0,7.08,0l3.93-3.93a4.94,4.94,0,0,1,1.89-1.18Z"/><path class="cls-15" d="M1484.14,294.25V274.12a5,5,0,0,0-5-5h-5.56A5,5,0,0,1,1469,266l0-.06a5,5,0,0,1,1.08-5.45l3.94-3.94a5,5,0,0,0,0-7.08l-14.24-14.23a5,5,0,0,0-7.08,0l-3.93,3.93a5,5,0,0,1-5.46,1.08l-.06,0a5,5,0,0,1-3.08-4.62v-5.56a5,5,0,0,0-5-5H1415a5,5,0,0,0-5,5v5.56a5,5,0,0,1-3.09,4.62l-.06,0a5,5,0,0,1-5.46-1.08l-3.93-3.93a5,5,0,0,0-7.08,0l-14.24,14.23a5,5,0,0,0,0,7.08l3.94,3.94a5,5,0,0,1,1.08,5.45l0,.06a5,5,0,0,1-4.62,3.09h-5.56a5,5,0,0,0-5,5v20.13a5,5,0,0,0,5,5h5.56a5,5,0,0,1,4.62,3.09l0,.06a5,5,0,0,1-1.08,5.46l-3.94,3.93a5,5,0,0,0,0,7.08l14.24,14.23a5,5,0,0,0,7.08,0l3.93-3.93a5,5,0,0,1,5.46-1.08l.06,0a5,5,0,0,1,3.09,4.61v5.57a5,5,0,0,0,5,5h20.13a5,5,0,0,0,5-5v-5.57a5,5,0,0,1,3.08-4.61l.06,0a5,5,0,0,1,5.46,1.08l3.93,3.93a5,5,0,0,0,7.08,0l14.24-14.23a5,5,0,0,0,0-7.08l-3.94-3.93a5,5,0,0,1-1.08-5.46l0-.06a5,5,0,0,1,4.62-3.09h5.56A5,5,0,0,0,1484.14,294.25Z"/><circle class="cls-24" cx="1425.02" cy="284.18" r="36.7"/><circle class="cls-13" cx="1421.08" cy="280.24" r="15.65"/><circle class="cls-12" cx="1425.02" cy="284.18" r="15.65"/></svg>