<?xml version="1.0" encoding="UTF-8"?>
<svg width="742px" height="298px" viewBox="0 0 742 298" version="1.1" xmlns="http://www.w3.org/2000/svg" xmlns:xlink="http://www.w3.org/1999/xlink">
    <!-- Generator: Sketch 59.1 (86144) - https://sketch.com -->
    <title>Group 204</title>
    <desc>Created with Sketch.</desc>
    <defs>
        <polygon id="path-1" points="0 297 740.791971 297 740.791971 0 0 0"></polygon>
    </defs>
    <g id="DESKTOP" stroke="none" stroke-width="1" fill="none" fill-rule="evenodd">
        <g id="Footer-ex4" transform="translate(-640.000000, -1858.000000)">
            <g id="Group-204" transform="translate(641.000000, 1858.000000)">
                <polygon id="Fill-1" fill="#2470A9" points="603 122 614 122 614 27 603 27"></polygon>
                <polygon id="Stroke-2" stroke="#FFFFFF" stroke-width="2" stroke-linecap="round" stroke-linejoin="round" points="603 122 614 122 614 27 603 27"></polygon>
                <path d="M603,32.5 L606,32.5 L603,32.5 Z" id="Fill-3" fill="#2470A9"></path>
                <line x1="603" y1="32.5" x2="606" y2="32.5" id="Stroke-4" stroke="#FFFFFF" stroke-width="2" stroke-linecap="round" stroke-linejoin="round"></line>
                <path d="M603,38.5 L606,38.5 L603,38.5 Z" id="Fill-5" fill="#2470A9"></path>
                <line x1="603" y1="38.5" x2="606" y2="38.5" id="Stroke-6" stroke="#FFFFFF" stroke-width="2" stroke-linecap="round" stroke-linejoin="round"></line>
                <path d="M603,43.5 L606,43.5 L603,43.5 Z" id="Fill-7" fill="#2470A9"></path>
                <line x1="603" y1="43.5" x2="606" y2="43.5" id="Stroke-8" stroke="#FFFFFF" stroke-width="2" stroke-linecap="round" stroke-linejoin="round"></line>
                <path d="M603,49.5 L606,49.5 L603,49.5 Z" id="Fill-9" fill="#2470A9"></path>
                <line x1="603" y1="49.5" x2="606" y2="49.5" id="Stroke-10" stroke="#FFFFFF" stroke-width="2" stroke-linecap="round" stroke-linejoin="round"></line>
                <path d="M603,55.5 L606,55.5 L603,55.5 Z" id="Fill-11" fill="#2470A9"></path>
                <line x1="603" y1="55.5" x2="606" y2="55.5" id="Stroke-12" stroke="#FFFFFF" stroke-width="2" stroke-linecap="round" stroke-linejoin="round"></line>
                <path d="M603,61.5 L606,61.5 L603,61.5 Z" id="Fill-13" fill="#2470A9"></path>
                <line x1="603" y1="61.5" x2="606" y2="61.5" id="Stroke-14" stroke="#FFFFFF" stroke-width="2" stroke-linecap="round" stroke-linejoin="round"></line>
                <path d="M603,66.5 L606,66.5 L603,66.5 Z" id="Fill-15" fill="#2470A9"></path>
                <line x1="603" y1="66.5" x2="606" y2="66.5" id="Stroke-16" stroke="#FFFFFF" stroke-width="2" stroke-linecap="round" stroke-linejoin="round"></line>
                <path d="M603,71.5 L606,71.5 L603,71.5 Z" id="Fill-17" fill="#2470A9"></path>
                <line x1="603" y1="71.5" x2="606" y2="71.5" id="Stroke-18" stroke="#FFFFFF" stroke-width="2" stroke-linecap="round" stroke-linejoin="round"></line>
                <path d="M603,78.5 L606,78.5 L603,78.5 Z" id="Fill-19" fill="#2470A9"></path>
                <line x1="603" y1="78.5" x2="606" y2="78.5" id="Stroke-20" stroke="#FFFFFF" stroke-width="2" stroke-linecap="round" stroke-linejoin="round"></line>
                <path d="M603,83.5 L606,83.5 L603,83.5 Z" id="Fill-21" fill="#2470A9"></path>
                <line x1="603" y1="83.5" x2="606" y2="83.5" id="Stroke-22" stroke="#FFFFFF" stroke-width="2" stroke-linecap="round" stroke-linejoin="round"></line>
                <path d="M603,89.5 L606,89.5 L603,89.5 Z" id="Fill-23" fill="#2470A9"></path>
                <line x1="603" y1="89.5" x2="606" y2="89.5" id="Stroke-24" stroke="#FFFFFF" stroke-width="2" stroke-linecap="round" stroke-linejoin="round"></line>
                <path d="M603,94.5 L606,94.5 L603,94.5 Z" id="Fill-25" fill="#2470A9"></path>
                <line x1="603" y1="94.5" x2="606" y2="94.5" id="Stroke-26" stroke="#FFFFFF" stroke-width="2" stroke-linecap="round" stroke-linejoin="round"></line>
                <path d="M603,100.5 L606,100.5 L603,100.5 Z" id="Fill-27" fill="#2470A9"></path>
                <line x1="603" y1="100.5" x2="606" y2="100.5" id="Stroke-28" stroke="#FFFFFF" stroke-width="2" stroke-linecap="round" stroke-linejoin="round"></line>
                <path d="M603,106.5 L606,106.5 L603,106.5 Z" id="Fill-29" fill="#2470A9"></path>
                <line x1="603" y1="106.5" x2="606" y2="106.5" id="Stroke-30" stroke="#FFFFFF" stroke-width="2" stroke-linecap="round" stroke-linejoin="round"></line>
                <path d="M603,111.5 L606,111.5 L603,111.5 Z" id="Fill-31" fill="#2470A9"></path>
                <line x1="603" y1="111.5" x2="606" y2="111.5" id="Stroke-32" stroke="#FFFFFF" stroke-width="2" stroke-linecap="round" stroke-linejoin="round"></line>
                <path d="M603,117.5 L606,117.5 L603,117.5 Z" id="Fill-33" fill="#2470A9"></path>
                <line x1="603" y1="117.5" x2="606" y2="117.5" id="Stroke-34" stroke="#FFFFFF" stroke-width="2" stroke-linecap="round" stroke-linejoin="round"></line>
                <polygon id="Fill-35" fill="#2470A9" points="593 83.8072509 599.25243 83 604 121.192335 597.74757 122"></polygon>
                <polygon id="Stroke-36" stroke="#FFFFFF" stroke-width="2" stroke-linecap="round" stroke-linejoin="round" points="593 83.8072509 599.25243 83 604 121.192335 597.74757 122"></polygon>
                <polygon id="Fill-37" fill="#2470A9" points="598 84.0983607 593.150327 74 591 85"></polygon>
                <polygon id="Stroke-38" stroke="#FFFFFF" stroke-width="2" stroke-linecap="round" stroke-linejoin="round" points="598 84.0983607 593.150327 74 591 85"></polygon>
                <polygon id="Fill-39" fill="#2470A9" points="598 122.394562 601.754951 122 602 123.605438 598.245049 124"></polygon>
                <polygon id="Stroke-40" stroke="#FFFFFF" stroke-width="2" stroke-linecap="round" stroke-linejoin="round" points="598 122.394562 601.754951 122 602 123.605438 598.245049 124"></polygon>
                <polygon id="Fill-41" fill="#2470A9" points="596 77.68 594 78 594.612903 74"></polygon>
                <polygon id="Stroke-42" stroke="#FFFFFF" stroke-width="2" points="596 77.68 594 78 594.612903 74"></polygon>
                <g id="Group-45" transform="translate(597.000000, 99.000000)">
                    <line x1="2.8284" y1="20.8284857" x2="0.256971429" y2="0.257057143" id="Fill-43" fill="#2470A9"></line>
                    <line x1="2.8284" y1="20.8284857" x2="0.256971429" y2="0.257057143" id="Stroke-44" stroke="#FFFFFF" stroke-width="2" stroke-linecap="round" stroke-linejoin="round"></line>
                </g>
                <polygon id="Fill-46" fill="#2470A9" points="613.708809 127 594.291191 127 591 97 617 97"></polygon>
                <polygon id="Stroke-47" stroke="#FFFFFF" stroke-width="2" points="613.708809 127 594.291191 127 591 97 617 97"></polygon>
                <polygon id="Fill-48" fill="#2470A9" points="613.708809 127 594.291191 127 591 97 617 97"></polygon>
                <polygon id="Stroke-49" stroke="#FFFFFF" stroke-width="2" stroke-linecap="round" stroke-linejoin="round" points="613.708809 127 594.291191 127 591 97 617 97"></polygon>
                <polygon id="Fill-50" fill="#2470A9" points="0 135 740 135 740 128 0 128"></polygon>
                <polygon id="Stroke-51" stroke="#FFFFFF" stroke-width="2" points="0 135 740 135 740 128 0 128"></polygon>
                <polygon id="Fill-53" fill="#2470A9" points="21 140 58 140 58 134 21 134"></polygon>
                <polygon id="Stroke-54" stroke="#FFFFFF" stroke-width="2" points="21 140 58 140 58 134 21 134"></polygon>
                <polygon id="Fill-55" fill="#2470A9" points="21 297 58 297 58 291 21 291"></polygon>
                <polygon id="Stroke-56" stroke="#FFFFFF" stroke-width="2" points="21 297 58 297 58 291 21 291"></polygon>
                <polygon id="Fill-58" fill="#2470A9" points="36 291 43 291 43 140 36 140"></polygon>
                <polygon id="Stroke-59" stroke="#FFFFFF" stroke-width="2" points="36 291 43 291 43 140 36 140"></polygon>
                <polygon id="Fill-60" fill="#2470A9" points="683 140 720 140 720 134 683 134"></polygon>
                <polygon id="Stroke-61" stroke="#FFFFFF" stroke-width="2" points="683 140 720 140 720 134 683 134"></polygon>
                <polygon id="Fill-62" fill="#2470A9" points="683 297 720 297 720 291 683 291"></polygon>
                <polygon id="Stroke-63" stroke="#FFFFFF" stroke-width="2" points="683 297 720 297 720 291 683 291"></polygon>
                <polygon id="Fill-65" fill="#2470A9" points="698 291 705 291 705 140 698 140"></polygon>
                <polygon id="Stroke-66" stroke="#FFFFFF" stroke-width="2" points="698 291 705 291 705 140 698 140"></polygon>
                <g id="Group-203">
                    <path d="M563.135036,127.868109 L518.741606,127.868109 C517.845416,127.868109 517.118978,127.141832 517.118978,126.24584 L517.118978,89.3080248 C517.118978,88.4120332 517.845416,87.6857559 518.741606,87.6857559 L563.135036,87.6857559 C564.031226,87.6857559 564.757874,88.4120332 564.757874,89.3080248 L564.757874,126.24584 C564.77181,127.127689 564.067423,127.853966 563.18538,127.868109 C563.168737,127.868109 563.151679,127.868109 563.135036,127.868109" id="Fill-67" fill="#2470A9"></path>
                    <path d="M563.135036,127.868109 L518.741606,127.868109 C517.845416,127.868109 517.118978,127.141832 517.118978,126.24584 L517.118978,89.3080248 C517.118978,88.4120332 517.845416,87.6857559 518.741606,87.6857559 L563.135036,87.6857559 C564.031226,87.6857559 564.757874,88.4120332 564.757874,89.3080248 L564.757874,126.24584 C564.77181,127.127689 564.067423,127.853966 563.18538,127.868109 C563.168737,127.868109 563.151679,127.868109 563.135036,127.868109 Z" id="Stroke-69" stroke="#FFFFFF" stroke-width="2" stroke-linecap="round" stroke-linejoin="round"></path>
                    <mask id="mask-2" fill="white">
                        <use xlink:href="#path-1"></use>
                    </mask>
                    <g id="Clip-72"></g>
                    <polygon id="Fill-71" fill="#2470A9" mask="url(#mask-2)" points="538.754015 97.5441176 561.179146 97.5441176 561.179146 91.7621849 538.754015 91.7621849"></polygon>
                    <polygon id="Stroke-73" stroke="#FFFFFF" stroke-width="2" stroke-linecap="round" stroke-linejoin="round" mask="url(#mask-2)" points="538.754015 97.5441176 561.179146 97.5441176 561.179146 91.7621849 538.754015 91.7621849"></polygon>
                    <polygon id="Fill-74" fill="#2470A9" mask="url(#mask-2)" points="538.754015 106.487395 543.788321 106.487395 543.788321 101.454202 538.754015 101.454202"></polygon>
                    <polygon id="Stroke-75" stroke="#FFFFFF" stroke-width="2" stroke-linecap="round" stroke-linejoin="round" mask="url(#mask-2)" points="538.754015 106.487395 543.788321 106.487395 543.788321 101.454202 538.754015 101.454202"></polygon>
                    <polygon id="Fill-76" fill="#2470A9" mask="url(#mask-2)" points="547.449635 106.487395 552.484358 106.487395 552.484358 101.454202 547.449635 101.454202"></polygon>
                    <polygon id="Stroke-77" stroke="#FFFFFF" stroke-width="2" stroke-linecap="round" stroke-linejoin="round" mask="url(#mask-2)" points="547.449635 106.487395 552.484358 106.487395 552.484358 101.454202 547.449635 101.454202"></polygon>
                    <polygon id="Fill-78" fill="#2470A9" mask="url(#mask-2)" points="556.186861 106.487395 561.221584 106.487395 561.221584 101.454202 556.186861 101.454202"></polygon>
                    <polygon id="Stroke-79" stroke="#FFFFFF" stroke-width="2" stroke-linecap="round" stroke-linejoin="round" mask="url(#mask-2)" points="556.186861 106.487395 561.221584 106.487395 561.221584 101.454202 556.186861 101.454202"></polygon>
                    <polygon id="Fill-80" fill="#2470A9" mask="url(#mask-2)" points="538.754015 115.181092 543.788321 115.181092 543.788321 110.147899 538.754015 110.147899"></polygon>
                    <polygon id="Stroke-81" stroke="#FFFFFF" stroke-width="2" stroke-linecap="round" stroke-linejoin="round" mask="url(#mask-2)" points="538.754015 115.181092 543.788321 115.181092 543.788321 110.147899 538.754015 110.147899"></polygon>
                    <polygon id="Fill-82" fill="#2470A9" mask="url(#mask-2)" points="547.449635 115.181092 552.484358 115.181092 552.484358 110.147899 547.449635 110.147899"></polygon>
                    <polygon id="Stroke-83" stroke="#FFFFFF" stroke-width="2" stroke-linecap="round" stroke-linejoin="round" mask="url(#mask-2)" points="547.449635 115.181092 552.484358 115.181092 552.484358 110.147899 547.449635 110.147899"></polygon>
                    <polygon id="Fill-84" fill="#2470A9" mask="url(#mask-2)" points="556.186861 115.181092 561.221584 115.181092 561.221584 110.147899 556.186861 110.147899"></polygon>
                    <polygon id="Stroke-85" stroke="#FFFFFF" stroke-width="2" stroke-linecap="round" stroke-linejoin="round" mask="url(#mask-2)" points="556.186861 115.181092 561.221584 115.181092 561.221584 110.147899 556.186861 110.147899"></polygon>
                    <polygon id="Fill-86" fill="#2470A9" mask="url(#mask-2)" points="538.754015 123.87479 543.788321 123.87479 543.788321 118.841597 538.754015 118.841597"></polygon>
                    <polygon id="Stroke-87" stroke="#FFFFFF" stroke-width="2" stroke-linecap="round" stroke-linejoin="round" mask="url(#mask-2)" points="538.754015 123.87479 543.788321 123.87479 543.788321 118.841597 538.754015 118.841597"></polygon>
                    <polygon id="Fill-88" fill="#2470A9" mask="url(#mask-2)" points="547.449635 123.87479 552.484358 123.87479 552.484358 118.841597 547.449635 118.841597"></polygon>
                    <polygon id="Stroke-89" stroke="#FFFFFF" stroke-width="2" stroke-linecap="round" stroke-linejoin="round" mask="url(#mask-2)" points="547.449635 123.87479 552.484358 123.87479 552.484358 118.841597 547.449635 118.841597"></polygon>
                    <polygon id="Fill-90" fill="#2470A9" mask="url(#mask-2)" points="556.186861 123.87479 561.221584 123.87479 561.221584 118.841597 556.186861 118.841597"></polygon>
                    <polygon id="Stroke-91" stroke="#FFFFFF" stroke-width="2" stroke-linecap="round" stroke-linejoin="round" mask="url(#mask-2)" points="556.186861 123.87479 561.221584 123.87479 561.221584 118.841597 556.186861 118.841597"></polygon>
                    <path d="M533.470232,83.8587403 L533.470232,79.4910933 C533.472236,76.0015513 530.644704,73.1709 527.153974,73.1684031 L527.146069,73.1684031 C523.655755,73.1663244 520.824061,75.9932319 520.821905,79.4827739 L520.821905,79.4910933 L520.821905,83.8587403 C520.821905,85.1320134 521.198098,86.3765849 521.903733,87.4360513 L522.52782,88.3927739 C523.238864,89.4497445 523.615397,90.6963958 523.609572,91.9700849 L523.609572,105.156219 C523.609572,106.429492 523.233455,107.673648 522.52782,108.73353 L521.903733,109.690253 C521.192689,110.747639 520.81574,111.993875 520.821905,113.267564 L520.821905,117.635211 C520.819901,121.124753 523.647434,123.95582 527.137747,123.957902 L527.146069,123.957902 C530.635966,123.960396 533.46766,121.133072 533.470232,117.64353 L533.470232,117.635211 L533.470232,113.267564 C533.470232,111.994707 533.094039,110.750135 532.387988,109.690253 L531.763901,108.73353 C531.052857,107.67656 530.676324,106.430324 530.682565,105.156219 L530.682565,91.9700849 C530.682565,90.6972277 531.058682,89.4526563 531.763901,88.3927739 L532.387988,87.4360513 C533.099032,86.3790807 533.476397,85.1328454 533.470232,83.8587403" id="Fill-92" fill="#2470A9" mask="url(#mask-2)"></path>
                    <path d="M533.470232,83.8587403 L533.470232,79.4910933 C533.472236,76.0015513 530.644704,73.1709 527.153974,73.1684031 L527.146069,73.1684031 C523.655755,73.1663244 520.824061,75.9932319 520.821905,79.4827739 L520.821905,79.4910933 L520.821905,83.8587403 C520.821905,85.1320134 521.198098,86.3765849 521.903733,87.4360513 L522.52782,88.3927739 C523.238864,89.4497445 523.615397,90.6963958 523.609572,91.9700849 L523.609572,105.156219 C523.609572,106.429492 523.233455,107.673648 522.52782,108.73353 L521.903733,109.690253 C521.192689,110.747639 520.81574,111.993875 520.821905,113.267564 L520.821905,117.635211 C520.819901,121.124753 523.647434,123.95582 527.137747,123.957902 L527.146069,123.957902 C530.635966,123.960396 533.46766,121.133072 533.470232,117.64353 L533.470232,117.635211 L533.470232,113.267564 C533.470232,111.994707 533.094039,110.750135 532.387988,109.690253 L531.763901,108.73353 C531.052857,107.67656 530.676324,106.430324 530.682565,105.156219 L530.682565,91.9700849 C530.682565,90.6972277 531.058682,89.4526563 531.763901,88.3927739 L532.387988,87.4360513 C533.099032,86.3790807 533.476397,85.1328454 533.470232,83.8587403 Z" id="Stroke-93" stroke="#FFFFFF" stroke-width="2" stroke-linecap="round" stroke-linejoin="round" mask="url(#mask-2)"></path>
                    <path d="M655.458561,79.2831101 C655.510568,79.1337782 655.55259,78.9807025 655.583378,78.8255471 C655.631225,78.6491773 655.659101,78.467816 655.66659,78.2847908 C655.742312,77.9137487 655.797648,77.538963 655.832597,77.1616815 C655.895006,76.7760807 655.936612,76.3871521 655.957415,75.9969756 C655.999436,75.5810092 656.040626,75.2066395 656.082648,74.7906731 C656.222444,73.1725639 656.278196,71.5477992 656.248655,69.9238664 C656.263218,69.1048286 656.234926,68.2857908 656.16586,67.4696647 L656.082648,66.2217655 L656.041042,65.597816 L655.999436,64.9738664 L655.749801,62.5196647 L655.375349,60.065463 L655.292137,59.4415134 L655.16732,58.8175639 L654.917685,57.6112613 C654.751261,56.7793286 654.584838,55.9473958 654.376809,55.1570597 L653.752721,52.702858 C653.544692,51.9125218 653.253451,51.0805891 653.003816,50.2902529 C652.504546,48.667984 651.838853,47.1289084 651.256371,45.5066395 C650.96513,44.7163034 650.549072,43.9675639 650.216225,43.1772277 L649.134473,40.847816 L650.673889,42.9276479 C651.173159,43.6347908 651.714035,44.300337 652.171699,45.0490765 C653.087028,46.5049588 654.085568,47.9192445 654.917685,49.4583202 C655.333743,50.2070597 655.791407,50.9557992 656.207466,51.7461353 L657.372429,54.1171437 C657.775174,54.9020723 658.136312,55.7073832 658.454181,56.5297487 L658.995057,57.7360513 L659.244692,58.3600008 L659.494327,58.9839504 L660.409239,61.4797487 L661.200166,64.0171437 L661.408196,64.6410933 L661.574619,65.3066395 L661.907466,66.5961353 C662.157101,67.4696647 662.323524,68.3431941 662.531553,69.2167235 C662.906006,70.9637824 663.197247,72.7524378 663.446882,74.5826899 C663.488488,75.0402529 663.529677,75.497816 663.613305,75.955379 L663.738123,77.3280681 C663.779728,77.7856311 663.779728,78.2431941 663.821334,78.7423538 L663.821334,80.3230261 L655.458561,79.2831101 Z" id="Fill-94" fill="#2470A9" mask="url(#mask-2)"></path>
                    <path d="M655.458561,79.2831101 C655.510568,79.1337782 655.55259,78.9807025 655.583378,78.8255471 C655.631225,78.6491773 655.659101,78.467816 655.66659,78.2847908 C655.742312,77.9137487 655.797648,77.538963 655.832597,77.1616815 C655.895006,76.7760807 655.936612,76.3871521 655.957415,75.9969756 C655.999436,75.5810092 656.040626,75.2066395 656.082648,74.7906731 C656.222444,73.1725639 656.278196,71.5477992 656.248655,69.9238664 C656.263218,69.1048286 656.234926,68.2857908 656.16586,67.4696647 L656.082648,66.2217655 L656.041042,65.597816 L655.999436,64.9738664 L655.749801,62.5196647 L655.375349,60.065463 L655.292137,59.4415134 L655.16732,58.8175639 L654.917685,57.6112613 C654.751261,56.7793286 654.584838,55.9473958 654.376809,55.1570597 L653.752721,52.702858 C653.544692,51.9125218 653.253451,51.0805891 653.003816,50.2902529 C652.504546,48.667984 651.838853,47.1289084 651.256371,45.5066395 C650.96513,44.7163034 650.549072,43.9675639 650.216225,43.1772277 L649.134473,40.847816 L650.673889,42.9276479 C651.173159,43.6347908 651.714035,44.300337 652.171699,45.0490765 C653.087028,46.5049588 654.085568,47.9192445 654.917685,49.4583202 C655.333743,50.2070597 655.791407,50.9557992 656.207466,51.7461353 L657.372429,54.1171437 C657.775174,54.9020723 658.136312,55.7073832 658.454181,56.5297487 L658.995057,57.7360513 L659.244692,58.3600008 L659.494327,58.9839504 L660.409239,61.4797487 L661.200166,64.0171437 L661.408196,64.6410933 L661.574619,65.3066395 L661.907466,66.5961353 C662.157101,67.4696647 662.323524,68.3431941 662.531553,69.2167235 C662.906006,70.9637824 663.197247,72.7524378 663.446882,74.5826899 C663.488488,75.0402529 663.529677,75.497816 663.613305,75.955379 L663.738123,77.3280681 C663.779728,77.7856311 663.779728,78.2431941 663.821334,78.7423538 L663.821334,80.3230261 L655.458561,79.2831101 Z" id="Stroke-95" stroke="#FFFFFF" stroke-width="2" stroke-linecap="round" stroke-linejoin="round" mask="url(#mask-2)"></path>
                    <path d="M670.810866,72.7109244 C671.060917,71.2966387 671.310136,69.757563 671.559771,68.3016807 C671.809406,66.8457983 672.017435,65.3067227 672.225464,63.8092437 C672.641523,60.8142857 673.057581,57.8193277 673.432034,54.8243697 C674.181355,48.7928571 674.76342,42.7613445 675.179479,36.7298319 C675.595537,30.6983193 675.803566,24.6252101 675.720355,18.5521008 C675.678749,15.5155462 675.553931,12.4789916 675.262691,9.44243697 C675.019712,6.40962605 674.589092,3.39511765 673.973326,0.415966387 C674.925683,3.33105882 675.690399,6.30438655 676.261647,9.31764706 C676.885734,12.312605 677.384588,15.3491597 677.759041,18.4273109 C678.549968,24.5420168 679.007216,30.6567227 679.298457,36.8130252 C679.590114,42.9693277 679.672909,49.1256303 679.631304,55.2819328 C679.590114,58.360084 679.548092,61.4382353 679.46488,64.5163866 C679.423274,66.0554622 679.340063,67.5945378 679.298457,69.1336134 C679.256851,70.6726891 679.174055,72.2117647 679.048822,73.792437 L670.810866,72.7109244 Z" id="Fill-96" fill="#2470A9" mask="url(#mask-2)"></path>
                    <path d="M670.810866,72.7109244 C671.060917,71.2966387 671.310136,69.757563 671.559771,68.3016807 C671.809406,66.8457983 672.017435,65.3067227 672.225464,63.8092437 C672.641523,60.8142857 673.057581,57.8193277 673.432034,54.8243697 C674.181355,48.7928571 674.76342,42.7613445 675.179479,36.7298319 C675.595537,30.6983193 675.803566,24.6252101 675.720355,18.5521008 C675.678749,15.5155462 675.553931,12.4789916 675.262691,9.44243697 C675.019712,6.40962605 674.589092,3.39511765 673.973326,0.415966387 C674.925683,3.33105882 675.690399,6.30438655 676.261647,9.31764706 C676.885734,12.312605 677.384588,15.3491597 677.759041,18.4273109 C678.549968,24.5420168 679.007216,30.6567227 679.298457,36.8130252 C679.590114,42.9693277 679.672909,49.1256303 679.631304,55.2819328 C679.590114,58.360084 679.548092,61.4382353 679.46488,64.5163866 C679.423274,66.0554622 679.340063,67.5945378 679.298457,69.1336134 C679.256851,70.6726891 679.174055,72.2117647 679.048822,73.792437 L670.810866,72.7109244 Z" id="Stroke-97" stroke="#FFFFFF" stroke-width="2" stroke-linecap="round" stroke-linejoin="round" mask="url(#mask-2)"></path>
                    <path d="M653.294974,86.1051252 C653.347397,85.9557933 653.389003,85.8027176 653.419791,85.6475622 C653.467638,85.4711924 653.495514,85.2894151 653.503003,85.1068059 C653.578726,84.7357639 653.634061,84.3609782 653.66901,83.9836966 C653.731419,83.5980958 653.773025,83.2091672 653.794244,82.8189908 C653.83585,82.4030244 653.877039,82.0286546 653.919061,81.6126882 C654.058857,79.994579 654.114609,78.3698143 654.085069,76.7458815 C654.099631,75.9268437 654.071339,75.1078059 654.002273,74.2916798 L653.919061,73.0437807 L653.877455,72.4198311 L653.83585,71.7958815 L653.586215,69.3416798 L653.211762,66.8874782 L653.128966,66.2635286 L653.003733,65.639579 L652.754098,64.4332765 C652.587674,63.6013437 652.421251,62.7694109 652.213222,61.9790748 L651.589134,59.5248731 C651.381105,58.734537 651.089864,57.9026042 650.840229,57.1122681 C650.340959,55.4899992 649.675266,53.9509235 649.092784,52.3286546 C648.801543,51.5383185 648.385485,50.789579 648.052638,49.9992429 L646.970886,47.6698311 L648.510302,49.749663 C649.009572,50.4568059 649.550448,51.1223521 650.008112,51.8710916 C650.923441,53.3269739 651.921981,54.7412597 652.754098,56.2803353 C653.170156,57.0290748 653.62782,57.7778143 654.043879,58.5681504 L655.208842,60.9391588 C655.611587,61.7236714 655.972726,62.5289824 656.290594,63.3517639 L656.83147,64.5580664 L657.081105,65.182016 L657.33074,65.8059655 L658.245653,68.3017639 L659.03658,70.8391588 L659.244609,71.4631084 L659.411032,72.1286546 L659.743879,73.4181504 C659.993514,74.2916798 660.159937,75.1652092 660.367966,76.0387387 C660.742419,77.7857975 661.03366,79.5744529 661.283295,81.404705 C661.324901,81.8622681 661.366091,82.3198311 661.449718,82.7773941 L661.574536,84.1500832 C661.616142,84.6076462 661.616142,85.0652092 661.657747,85.5643689 L661.657747,87.1450412 L653.294974,86.1051252 Z" id="Fill-98" fill="#2470A9" mask="url(#mask-2)"></path>
                    <path d="M653.294974,86.1051252 C653.347397,85.9557933 653.389003,85.8027176 653.419791,85.6475622 C653.467638,85.4711924 653.495514,85.2894151 653.503003,85.1068059 C653.578726,84.7357639 653.634061,84.3609782 653.66901,83.9836966 C653.731419,83.5980958 653.773025,83.2091672 653.794244,82.8189908 C653.83585,82.4030244 653.877039,82.0286546 653.919061,81.6126882 C654.058857,79.994579 654.114609,78.3698143 654.085069,76.7458815 C654.099631,75.9268437 654.071339,75.1078059 654.002273,74.2916798 L653.919061,73.0437807 L653.877455,72.4198311 L653.83585,71.7958815 L653.586215,69.3416798 L653.211762,66.8874782 L653.128966,66.2635286 L653.003733,65.639579 L652.754098,64.4332765 C652.587674,63.6013437 652.421251,62.7694109 652.213222,61.9790748 L651.589134,59.5248731 C651.381105,58.734537 651.089864,57.9026042 650.840229,57.1122681 C650.340959,55.4899992 649.675266,53.9509235 649.092784,52.3286546 C648.801543,51.5383185 648.385485,50.789579 648.052638,49.9992429 L646.970886,47.6698311 L648.510302,49.749663 C649.009572,50.4568059 649.550448,51.1223521 650.008112,51.8710916 C650.923441,53.3269739 651.921981,54.7412597 652.754098,56.2803353 C653.170156,57.0290748 653.62782,57.7778143 654.043879,58.5681504 L655.208842,60.9391588 C655.611587,61.7236714 655.972726,62.5289824 656.290594,63.3517639 L656.83147,64.5580664 L657.081105,65.182016 L657.33074,65.8059655 L658.245653,68.3017639 L659.03658,70.8391588 L659.244609,71.4631084 L659.411032,72.1286546 L659.743879,73.4181504 C659.993514,74.2916798 660.159937,75.1652092 660.367966,76.0387387 C660.742419,77.7857975 661.03366,79.5744529 661.283295,81.404705 C661.324901,81.8622681 661.366091,82.3198311 661.449718,82.7773941 L661.574536,84.1500832 C661.616142,84.6076462 661.616142,85.0652092 661.657747,85.5643689 L661.657747,87.1450412 L653.294974,86.1051252 Z" id="Stroke-99" stroke="#FFFFFF" stroke-width="2" stroke-linecap="round" stroke-linejoin="round" mask="url(#mask-2)"></path>
                    <path d="M667.06634,86.3131084 C666.983128,84.7324361 666.900333,83.0269739 666.775099,81.404705 C666.650282,79.7824361 666.56707,78.0769739 666.400647,76.454705 C666.151012,73.1269739 665.818165,69.8408395 665.485318,66.5131084 C664.778019,59.8992429 663.945902,53.2853773 662.86415,46.7131084 C661.782399,40.1408395 660.492618,33.6101672 658.86999,27.1210916 C658.037873,23.8765538 657.122961,20.6736126 656.040793,17.5122681 C654.98026,14.3280454 653.715858,11.2157849 652.254661,8.19462101 C654.066596,11.0693647 655.719596,14.0410286 657.205756,17.0963017 C658.661961,20.1744529 660.035369,23.2942008 661.241523,26.4139487 C663.696267,32.7366378 665.818165,39.1841168 667.73245,45.6731924 C669.645902,52.1622681 671.310136,58.734537 672.807946,65.3068059 C673.557267,68.5929403 674.305756,71.9206714 674.97145,75.2068059 L675.96999,80.1984025 C676.302836,81.8622681 676.594077,83.5261336 676.885734,85.2315958 L667.06634,86.3131084 Z" id="Fill-100" fill="#2470A9" mask="url(#mask-2)"></path>
                    <path d="M667.06634,86.3131084 C666.983128,84.7324361 666.900333,83.0269739 666.775099,81.404705 C666.650282,79.7824361 666.56707,78.0769739 666.400647,76.454705 C666.151012,73.1269739 665.818165,69.8408395 665.485318,66.5131084 C664.778019,59.8992429 663.945902,53.2853773 662.86415,46.7131084 C661.782399,40.1408395 660.492618,33.6101672 658.86999,27.1210916 C658.037873,23.8765538 657.122961,20.6736126 656.040793,17.5122681 C654.98026,14.3280454 653.715858,11.2157849 652.254661,8.19462101 C654.066596,11.0693647 655.719596,14.0410286 657.205756,17.0963017 C658.661961,20.1744529 660.035369,23.2942008 661.241523,26.4139487 C663.696267,32.7366378 665.818165,39.1841168 667.73245,45.6731924 C669.645902,52.1622681 671.310136,58.734537 672.807946,65.3068059 C673.557267,68.5929403 674.305756,71.9206714 674.97145,75.2068059 L675.96999,80.1984025 C676.302836,81.8622681 676.594077,83.5261336 676.885734,85.2315958 L667.06634,86.3131084 Z" id="Stroke-101" stroke="#FFFFFF" stroke-width="2" stroke-linecap="round" stroke-linejoin="round" mask="url(#mask-2)"></path>
                    <path d="M685.788968,81.1965971 L685.788968,79.6159248 C685.788968,79.1167651 685.83099,78.6592021 685.87218,78.2016391 L685.996997,76.82895 C686.039019,76.371387 686.080209,75.9138239 686.16342,75.4562609 C686.413055,73.6260088 686.704296,71.8373534 687.079165,70.0902945 C687.287194,69.2167651 687.453201,68.3432357 687.703253,67.4697063 L688.035683,66.1802105 L688.202107,65.5146643 L688.410136,64.8907147 L689.200647,62.3533197 L690.115975,59.8575214 L690.36561,59.2335718 L690.615661,58.6096223 L691.156121,57.4033197 C691.488968,56.6129836 691.821815,55.7810508 692.237873,54.9907147 L693.402836,52.6197063 C693.818895,51.8293702 694.276559,51.0806307 694.692618,50.3318912 C695.524734,48.7928155 696.523274,47.3785298 697.438603,45.9226475 C697.896683,45.173908 698.437143,44.5083618 698.936829,43.8012189 L700.475829,41.721387 L699.394077,44.0507987 C699.061231,44.8411349 698.645172,45.5898744 698.353931,46.3802105 C697.691566,47.9446601 697.108669,49.5411391 696.606486,51.1638239 C696.356851,51.9541601 696.06561,52.7444962 695.857581,53.576429 L695.233493,56.0306307 C695.009238,56.8384374 694.829085,57.6578912 694.692618,58.4848324 L694.442982,59.6911349 L694.318165,60.3150845 L694.234953,60.939034 L693.860501,63.3932357 L693.610866,65.8474374 L693.56926,66.471387 L693.52807,67.0953366 L693.444442,68.3432357 C693.361231,69.1751685 693.402836,69.9655046 693.361231,70.7974374 C693.333771,72.4213702 693.389523,74.0461349 693.52807,75.6642441 C693.56926,76.0802105 693.610866,76.4545803 693.652472,76.8705466 C693.694493,77.286513 693.736099,77.6608828 693.777289,78.0352525 C693.819311,78.4096223 693.902523,78.8255887 693.944128,79.1583618 C693.985318,79.3247483 693.985318,79.5327315 694.02734,79.6991181 C694.057712,79.8542735 694.099734,80.0073492 694.152158,80.1566811 L685.788968,81.1965971 Z" id="Fill-102" fill="#2470A9" mask="url(#mask-2)"></path>
                    <path d="M685.788968,81.1965971 L685.788968,79.6159248 C685.788968,79.1167651 685.83099,78.6592021 685.87218,78.2016391 L685.996997,76.82895 C686.039019,76.371387 686.080209,75.9138239 686.16342,75.4562609 C686.413055,73.6260088 686.704296,71.8373534 687.079165,70.0902945 C687.287194,69.2167651 687.453201,68.3432357 687.703253,67.4697063 L688.035683,66.1802105 L688.202107,65.5146643 L688.410136,64.8907147 L689.200647,62.3533197 L690.115975,59.8575214 L690.36561,59.2335718 L690.615661,58.6096223 L691.156121,57.4033197 C691.488968,56.6129836 691.821815,55.7810508 692.237873,54.9907147 L693.402836,52.6197063 C693.818895,51.8293702 694.276559,51.0806307 694.692618,50.3318912 C695.524734,48.7928155 696.523274,47.3785298 697.438603,45.9226475 C697.896683,45.173908 698.437143,44.5083618 698.936829,43.8012189 L700.475829,41.721387 L699.394077,44.0507987 C699.061231,44.8411349 698.645172,45.5898744 698.353931,46.3802105 C697.691566,47.9446601 697.108669,49.5411391 696.606486,51.1638239 C696.356851,51.9541601 696.06561,52.7444962 695.857581,53.576429 L695.233493,56.0306307 C695.009238,56.8384374 694.829085,57.6578912 694.692618,58.4848324 L694.442982,59.6911349 L694.318165,60.3150845 L694.234953,60.939034 L693.860501,63.3932357 L693.610866,65.8474374 L693.56926,66.471387 L693.52807,67.0953366 L693.444442,68.3432357 C693.361231,69.1751685 693.402836,69.9655046 693.361231,70.7974374 C693.333771,72.4213702 693.389523,74.0461349 693.52807,75.6642441 C693.56926,76.0802105 693.610866,76.4545803 693.652472,76.8705466 C693.694493,77.286513 693.736099,77.6608828 693.777289,78.0352525 C693.819311,78.4096223 693.902523,78.8255887 693.944128,79.1583618 C693.985318,79.3247483 693.985318,79.5327315 694.02734,79.6991181 C694.057712,79.8542735 694.099734,80.0073492 694.152158,80.1566811 L685.788968,81.1965971 Z" id="Stroke-103" stroke="#FFFFFF" stroke-width="2" stroke-linecap="round" stroke-linejoin="round" mask="url(#mask-2)"></path>
                    <path d="M688.951261,87.1864714 L688.951261,85.6057992 C688.951261,85.1066395 688.992867,84.6490765 689.034057,84.1915134 L689.159291,82.8188244 C689.200896,82.3612613 689.242086,81.9036983 689.325298,81.4461353 C689.575349,79.6158832 689.866174,77.8272277 690.241042,76.0801689 C690.449072,75.2066395 690.615495,74.3331101 690.86513,73.4595807 L691.197561,72.1700849 L691.3644,71.5045387 L691.572429,70.8805891 L692.362524,68.3431941 L693.277853,65.8473958 L693.527904,65.2234462 L693.777539,64.5994966 L694.317999,63.3931941 C694.650845,62.602858 694.984108,61.7709252 695.400166,60.9805891 L696.56513,58.6095807 C696.981188,57.8192445 697.438436,57.070505 697.854495,56.3217655 C698.686612,54.7826899 699.685568,53.3684042 700.600896,51.9125218 C701.058561,51.1637824 701.59902,50.4982361 702.098707,49.7910933 L703.638123,47.7112613 L702.555955,50.0406731 C702.223108,50.8310092 701.80705,51.5797487 701.515809,52.3700849 C700.853444,53.9345345 700.270546,55.5310134 699.76878,57.1536983 C699.518728,57.9440345 699.227488,58.7343706 699.019458,59.5663034 L698.395371,62.020505 C698.171115,62.8283118 697.990962,63.6477655 697.854495,64.4747067 L697.605276,65.6810092 L697.480458,66.3049588 L697.397247,66.9289084 L697.022378,69.3831101 L696.773159,71.8373118 L696.731137,72.4612613 L696.689947,73.0852109 L696.60632,74.3331101 C696.523108,75.1650429 696.56513,75.955379 696.523108,76.7873118 C696.495648,78.4112445 696.5514,80.0360092 696.689947,81.6541185 C696.731137,82.0700849 696.773159,82.4444546 696.814349,82.860421 C696.856371,83.2763874 696.897977,83.6507571 696.939582,84.0251269 C696.981188,84.3994966 697.0644,84.815463 697.106006,85.1482361 C697.147612,85.3146227 697.147612,85.5226059 697.189218,85.6889924 C697.220006,85.8441479 697.262028,85.9972235 697.314035,86.1465555 L688.951261,87.1864714 Z" id="Fill-104" fill="#2470A9" mask="url(#mask-2)"></path>
                    <path d="M688.951261,87.1864714 L688.951261,85.6057992 C688.951261,85.1066395 688.992867,84.6490765 689.034057,84.1915134 L689.159291,82.8188244 C689.200896,82.3612613 689.242086,81.9036983 689.325298,81.4461353 C689.575349,79.6158832 689.866174,77.8272277 690.241042,76.0801689 C690.449072,75.2066395 690.615495,74.3331101 690.86513,73.4595807 L691.197561,72.1700849 L691.3644,71.5045387 L691.572429,70.8805891 L692.362524,68.3431941 L693.277853,65.8473958 L693.527904,65.2234462 L693.777539,64.5994966 L694.317999,63.3931941 C694.650845,62.602858 694.984108,61.7709252 695.400166,60.9805891 L696.56513,58.6095807 C696.981188,57.8192445 697.438436,57.070505 697.854495,56.3217655 C698.686612,54.7826899 699.685568,53.3684042 700.600896,51.9125218 C701.058561,51.1637824 701.59902,50.4982361 702.098707,49.7910933 L703.638123,47.7112613 L702.555955,50.0406731 C702.223108,50.8310092 701.80705,51.5797487 701.515809,52.3700849 C700.853444,53.9345345 700.270546,55.5310134 699.76878,57.1536983 C699.518728,57.9440345 699.227488,58.7343706 699.019458,59.5663034 L698.395371,62.020505 C698.171115,62.8283118 697.990962,63.6477655 697.854495,64.4747067 L697.605276,65.6810092 L697.480458,66.3049588 L697.397247,66.9289084 L697.022378,69.3831101 L696.773159,71.8373118 L696.731137,72.4612613 L696.689947,73.0852109 L696.60632,74.3331101 C696.523108,75.1650429 696.56513,75.955379 696.523108,76.7873118 C696.495648,78.4112445 696.5514,80.0360092 696.689947,81.6541185 C696.731137,82.0700849 696.773159,82.4444546 696.814349,82.860421 C696.856371,83.2763874 696.897977,83.6507571 696.939582,84.0251269 C696.981188,84.3994966 697.0644,84.815463 697.106006,85.1482361 C697.147612,85.3146227 697.147612,85.5226059 697.189218,85.6889924 C697.220006,85.8441479 697.262028,85.9972235 697.314035,86.1465555 L688.951261,87.1864714 Z" id="Stroke-105" stroke="#FFFFFF" stroke-width="2" stroke-linecap="round" stroke-linejoin="round" mask="url(#mask-2)"></path>
                    <path d="M678.383212,87.9769739 C678.341606,87.5610076 678.3,87.1866378 678.258394,86.8122681 L678.175182,85.6891588 C678.133577,84.9404193 678.091971,84.2332765 678.050365,83.484537 C677.967153,82.0286546 677.925547,80.5727723 677.883942,79.0752933 C677.80073,76.1635286 677.842336,73.2517639 677.925547,70.3399992 C678.083234,64.5364361 678.55546,58.746184 679.340146,52.9942008 C679.756204,50.1240328 680.213869,47.2538647 680.754745,44.4252933 C680.879562,43.7181504 681.045985,43.0110076 681.212409,42.3038647 L681.670073,40.1824361 C682.00292,38.7681504 682.335766,37.3954613 682.710219,35.9811756 C684.194715,30.4255286 686.128555,25.000079 688.493431,19.7584866 C686.787591,25.1893437 685.548985,30.7558059 684.790511,36.397142 C684.582482,37.8114277 684.416058,39.1841168 684.249635,40.5984025 L684.041606,42.7198311 C683.958394,43.4269739 683.916788,44.1341168 683.875182,44.8412597 C683.667153,47.6698311 683.54192,50.4568059 683.50073,53.2853773 C683.430832,58.9084109 683.653007,64.5318605 684.166007,70.132016 C684.416058,72.9189908 684.748905,75.7059655 685.164964,78.4513437 C685.372993,79.8240328 685.581022,81.1967218 685.830241,82.5694109 C685.955474,83.2349571 686.080292,83.9421 686.205109,84.6076462 L686.413139,85.6059655 C686.49635,85.9387387 686.537956,86.2715118 686.621168,86.5626882 L678.383212,87.9769739 Z" id="Fill-106" fill="#2470A9" mask="url(#mask-2)"></path>
                    <path d="M678.383212,87.9769739 C678.341606,87.5610076 678.3,87.1866378 678.258394,86.8122681 L678.175182,85.6891588 C678.133577,84.9404193 678.091971,84.2332765 678.050365,83.484537 C677.967153,82.0286546 677.925547,80.5727723 677.883942,79.0752933 C677.80073,76.1635286 677.842336,73.2517639 677.925547,70.3399992 C678.083234,64.5364361 678.55546,58.746184 679.340146,52.9942008 C679.756204,50.1240328 680.213869,47.2538647 680.754745,44.4252933 C680.879562,43.7181504 681.045985,43.0110076 681.212409,42.3038647 L681.670073,40.1824361 C682.00292,38.7681504 682.335766,37.3954613 682.710219,35.9811756 C684.194715,30.4255286 686.128555,25.000079 688.493431,19.7584866 C686.787591,25.1893437 685.548985,30.7558059 684.790511,36.397142 C684.582482,37.8114277 684.416058,39.1841168 684.249635,40.5984025 L684.041606,42.7198311 C683.958394,43.4269739 683.916788,44.1341168 683.875182,44.8412597 C683.667153,47.6698311 683.54192,50.4568059 683.50073,53.2853773 C683.430832,58.9084109 683.653007,64.5318605 684.166007,70.132016 C684.416058,72.9189908 684.748905,75.7059655 685.164964,78.4513437 C685.372993,79.8240328 685.581022,81.1967218 685.830241,82.5694109 C685.955474,83.2349571 686.080292,83.9421 686.205109,84.6076462 L686.413139,85.6059655 C686.49635,85.9387387 686.537956,86.2715118 686.621168,86.5626882 L678.383212,87.9769739 Z" id="Stroke-107" stroke="#FFFFFF" stroke-width="2" stroke-linecap="round" stroke-linejoin="round" mask="url(#mask-2)"></path>
                    <path d="M661.990345,86.6457983 C661.990345,86.3546218 662.032366,86.0218487 662.032366,85.6890756 L662.073556,84.6491597 C662.073556,83.9836134 662.115578,83.2764706 662.115578,82.5693277 C662.115578,81.1966387 662.115578,79.7823529 662.073556,78.4096639 C662.032366,75.6226891 661.865527,72.8357143 661.657498,70.0487395 C661.239775,64.4419286 660.531644,58.8604916 659.536016,53.3268908 C659.03633,50.539916 658.453848,47.7945378 657.788155,45.0491597 C657.621731,44.3420168 657.455724,43.6764706 657.247695,43.0109244 L656.706819,40.9726891 C656.290761,39.6 655.915892,38.2689076 655.499834,36.8962185 C653.800651,31.4740966 651.65795,26.2013067 649.092534,21.1310924 C652.283702,25.900979 655.080447,30.9233571 657.455724,36.147479 C658.079812,37.4369748 658.620272,38.7680672 659.202753,40.0991597 L660.03487,42.0957983 C660.326111,42.7613445 660.576162,43.4268908 660.825381,44.1340336 C661.865527,46.8378151 662.780855,49.5831933 663.654578,52.3285714 C665.380388,57.878395 666.811213,63.5155714 667.940396,69.2168067 C668.522461,72.0869748 669.021731,74.9571429 669.43779,77.8273109 C669.645819,79.2831933 669.853848,80.7390756 670.020688,82.194958 C670.103483,82.9436975 670.186695,83.6508403 670.269907,84.3995798 L670.353534,85.5226891 C670.394724,85.8970588 670.394724,86.2714286 670.43633,86.687395 L661.990345,86.687395 L661.990345,86.6457983 Z" id="Fill-108" fill="#2470A9" mask="url(#mask-2)"></path>
                    <path d="M661.990345,86.6457983 C661.990345,86.3546218 662.032366,86.0218487 662.032366,85.6890756 L662.073556,84.6491597 C662.073556,83.9836134 662.115578,83.2764706 662.115578,82.5693277 C662.115578,81.1966387 662.115578,79.7823529 662.073556,78.4096639 C662.032366,75.6226891 661.865527,72.8357143 661.657498,70.0487395 C661.239775,64.4419286 660.531644,58.8604916 659.536016,53.3268908 C659.03633,50.539916 658.453848,47.7945378 657.788155,45.0491597 C657.621731,44.3420168 657.455724,43.6764706 657.247695,43.0109244 L656.706819,40.9726891 C656.290761,39.6 655.915892,38.2689076 655.499834,36.8962185 C653.800651,31.4740966 651.65795,26.2013067 649.092534,21.1310924 C652.283702,25.900979 655.080447,30.9233571 657.455724,36.147479 C658.079812,37.4369748 658.620272,38.7680672 659.202753,40.0991597 L660.03487,42.0957983 C660.326111,42.7613445 660.576162,43.4268908 660.825381,44.1340336 C661.865527,46.8378151 662.780855,49.5831933 663.654578,52.3285714 C665.380388,57.878395 666.811213,63.5155714 667.940396,69.2168067 C668.522461,72.0869748 669.021731,74.9571429 669.43779,77.8273109 C669.645819,79.2831933 669.853848,80.7390756 670.020688,82.194958 C670.103483,82.9436975 670.186695,83.6508403 670.269907,84.3995798 L670.353534,85.5226891 C670.394724,85.8970588 670.394724,86.2714286 670.43633,86.687395 L661.990345,86.687395 L661.990345,86.6457983 Z" id="Stroke-109" stroke="#FFFFFF" stroke-width="2" stroke-linecap="round" stroke-linejoin="round" mask="url(#mask-2)"></path>
                    <path d="M680.214035,86.6457983 C680.255641,86.1882353 680.255641,85.8554622 680.296831,85.4810924 L680.380042,84.3579832 C680.46367,83.6092437 680.546882,82.9021008 680.630093,82.1533613 C680.796101,80.697479 681.00413,79.2415966 681.212159,77.7857143 C681.628218,74.8739496 682.127904,72.0037815 682.710385,69.1752101 C683.82459,63.4706471 685.254999,57.8326387 686.995787,52.2869748 C687.869093,49.5415966 688.784838,46.7962185 689.824984,44.092437 C690.074203,43.4268908 690.324254,42.7613445 690.615495,42.0542017 L691.40559,40.057563 C691.988488,38.7264706 692.529364,37.3953782 693.153451,36.1058824 C695.528728,30.8817605 698.325057,25.8597983 701.515809,21.0894958 C698.940407,26.1551345 696.796874,31.4287563 695.108926,36.8546218 C694.650845,38.1857143 694.276809,39.5584034 693.90194,40.9310924 L693.36148,42.9693277 C693.194641,43.6348739 692.986612,44.3420168 692.820604,45.007563 C692.154495,47.7529412 691.572429,50.4983193 691.073159,53.2852941 C690.076699,58.818895 689.368568,64.4003319 688.951261,70.0071429 C688.743232,72.7941176 688.617999,75.5810924 688.535203,78.3680672 C688.493181,79.7823529 688.493181,81.155042 688.493181,82.5277311 C688.493181,83.2348739 688.493181,83.9004202 688.535203,84.607563 L688.576809,85.647479 C688.576809,85.9802521 688.617999,86.3546218 688.617999,86.6042017 L680.214035,86.6042017 L680.214035,86.6457983 Z" id="Fill-110" fill="#2470A9" mask="url(#mask-2)"></path>
                    <path d="M680.214035,86.6457983 C680.255641,86.1882353 680.255641,85.8554622 680.296831,85.4810924 L680.380042,84.3579832 C680.46367,83.6092437 680.546882,82.9021008 680.630093,82.1533613 C680.796101,80.697479 681.00413,79.2415966 681.212159,77.7857143 C681.628218,74.8739496 682.127904,72.0037815 682.710385,69.1752101 C683.82459,63.4706471 685.254999,57.8326387 686.995787,52.2869748 C687.869093,49.5415966 688.784838,46.7962185 689.824984,44.092437 C690.074203,43.4268908 690.324254,42.7613445 690.615495,42.0542017 L691.40559,40.057563 C691.988488,38.7264706 692.529364,37.3953782 693.153451,36.1058824 C695.528728,30.8817605 698.325057,25.8597983 701.515809,21.0894958 C698.940407,26.1551345 696.796874,31.4287563 695.108926,36.8546218 C694.650845,38.1857143 694.276809,39.5584034 693.90194,40.9310924 L693.36148,42.9693277 C693.194641,43.6348739 692.986612,44.3420168 692.820604,45.007563 C692.154495,47.7529412 691.572429,50.4983193 691.073159,53.2852941 C690.076699,58.818895 689.368568,64.4003319 688.951261,70.0071429 C688.743232,72.7941176 688.617999,75.5810924 688.535203,78.3680672 C688.493181,79.7823529 688.493181,81.155042 688.493181,82.5277311 C688.493181,83.2348739 688.493181,83.9004202 688.535203,84.607563 L688.576809,85.647479 C688.576809,85.9802521 688.617999,86.3546218 688.617999,86.6042017 L680.214035,86.6042017 L680.214035,86.6457983 Z" id="Stroke-111" stroke="#FFFFFF" stroke-width="2" stroke-linecap="round" stroke-linejoin="round" mask="url(#mask-2)"></path>
                    <path d="M671.10219,86.6041601 C671.185401,85.1482777 671.268613,83.6092021 671.351825,82.1117231 C671.435036,80.6142441 671.476642,79.0751685 671.518248,77.5776895 C671.60146,74.5411349 671.684672,71.5461769 671.684672,68.5096223 C671.726277,62.436513 671.643066,56.4050004 671.393431,50.3318912 C671.143796,44.2587819 670.686131,38.2272693 669.89562,32.1957567 C669.521168,29.2007987 669.021898,26.2058408 668.439416,23.2108828 C667.848613,20.2296517 667.084314,17.2850256 666.151095,14.3923954 C667.411752,17.1826979 668.509314,20.0437147 669.437956,22.9613029 C670.394891,25.8730676 671.227007,28.826429 671.934307,31.821387 C673.390511,37.7697063 674.555474,43.8428155 675.512409,49.9159248 C676.469343,55.989034 677.259854,62.1037399 677.925547,68.2184458 C678.258394,71.2965971 678.549635,74.3331517 678.79927,77.4113029 C678.924088,78.9503786 679.048905,80.4894542 679.132117,82.0285298 C679.215328,83.5676055 679.340146,85.1066811 679.423358,86.6873534 L671.10219,86.6041601 Z" id="Fill-112" fill="#2470A9" mask="url(#mask-2)"></path>
                    <path d="M671.10219,86.6041601 C671.185401,85.1482777 671.268613,83.6092021 671.351825,82.1117231 C671.435036,80.6142441 671.476642,79.0751685 671.518248,77.5776895 C671.60146,74.5411349 671.684672,71.5461769 671.684672,68.5096223 C671.726277,62.436513 671.643066,56.4050004 671.393431,50.3318912 C671.143796,44.2587819 670.686131,38.2272693 669.89562,32.1957567 C669.521168,29.2007987 669.021898,26.2058408 668.439416,23.2108828 C667.848613,20.2296517 667.084314,17.2850256 666.151095,14.3923954 C667.411752,17.1826979 668.509314,20.0437147 669.437956,22.9613029 C670.394891,25.8730676 671.227007,28.826429 671.934307,31.821387 C673.390511,37.7697063 674.555474,43.8428155 675.512409,49.9159248 C676.469343,55.989034 677.259854,62.1037399 677.925547,68.2184458 C678.258394,71.2965971 678.549635,74.3331517 678.79927,77.4113029 C678.924088,78.9503786 679.048905,80.4894542 679.132117,82.0285298 C679.215328,83.5676055 679.340146,85.1066811 679.423358,86.6873534 L671.10219,86.6041601 Z" id="Stroke-113" stroke="#FFFFFF" stroke-width="2" stroke-linecap="round" stroke-linejoin="round" mask="url(#mask-2)"></path>
                    <polygon id="Fill-114" fill="#2470A9" mask="url(#mask-2)" points="694.900813 127.868109 655.624901 127.868109 652.254828 91.6374366 698.270886 91.6374366"></polygon>
                    <polygon id="Stroke-115" stroke="#FFFFFF" stroke-width="2" mask="url(#mask-2)" points="694.900813 127.868109 655.624901 127.868109 652.254828 91.6374366 698.270886 91.6374366"></polygon>
                    <polygon id="Fill-116" fill="#2470A9" mask="url(#mask-2)" points="694.900813 127.868109 655.624901 127.868109 652.254828 91.6374366 698.270886 91.6374366"></polygon>
                    <polygon id="Stroke-117" stroke="#FFFFFF" stroke-width="2" mask="url(#mask-2)" points="694.900813 127.868109 655.624901 127.868109 652.254828 91.6374366 698.270886 91.6374366"></polygon>
                    <polygon id="Fill-118" fill="#2470A9" mask="url(#mask-2)" points="648.218978 91.637395 702.348175 91.637395 702.348175 85.189916 648.218978 85.189916"></polygon>
                    <polygon id="Stroke-119" stroke="#FFFFFF" stroke-width="2" mask="url(#mask-2)" points="648.218978 91.637395 702.348175 91.637395 702.348175 85.189916 648.218978 85.189916"></polygon>
                    <polygon id="Fill-120" fill="#2470A9" mask="url(#mask-2)" points="648.218978 91.6789916 702.348175 91.6789916 702.348175 88.4344538 648.218978 88.4344538"></polygon>
                    <polygon id="Stroke-121" stroke="#FFFFFF" stroke-width="2" mask="url(#mask-2)" points="648.218978 91.6789916 702.348175 91.6789916 702.348175 88.4344538 648.218978 88.4344538"></polygon>
                    <polygon id="Fill-122" fill="#2470A9" mask="url(#mask-2)" points="648.218978 91.637395 702.348175 91.637395 702.348175 85.189916 648.218978 85.189916"></polygon>
                    <polygon id="Stroke-123" stroke="#FFFFFF" stroke-width="2" mask="url(#mask-2)" points="648.218978 91.637395 702.348175 91.637395 702.348175 85.189916 648.218978 85.189916"></polygon>
                    <polygon id="Fill-124" fill="#2470A9" mask="url(#mask-2)" points="492.19708 277.407983 501.724818 277.407983 501.724818 240.386975 492.19708 240.386975"></polygon>
                    <polygon id="Stroke-125" stroke="#FFFFFF" stroke-width="2" mask="url(#mask-2)" points="492.19708 277.407983 501.724818 277.407983 501.724818 240.386975 492.19708 240.386975"></polygon>
                    <path d="M501.225631,272.790691 L492.696434,272.790691 C491.510667,272.781605 490.542083,273.735416 490.53293,274.920504 L490.53293,274.953782 L490.53293,278.863866 L446.887988,281.401261 C443.714711,281.588029 441.235419,284.212777 441.23001,287.391176 L552.692054,287.391176 C552.686645,284.212777 550.207353,281.588029 547.03366,281.401261 L503.389134,278.863866 L503.389134,274.953782 C503.398288,273.768693 502.444682,272.799908 501.258915,272.790691 L501.225631,272.790691 Z" id="Fill-126" fill="#2470A9" mask="url(#mask-2)"></path>
                    <path d="M501.225631,272.790691 L492.696434,272.790691 C491.510667,272.781605 490.542083,273.735416 490.53293,274.920504 L490.53293,274.953782 L490.53293,278.863866 L446.887988,281.401261 C443.714711,281.588029 441.235419,284.212777 441.23001,287.391176 L552.692054,287.391176 C552.686645,284.212777 550.207353,281.588029 547.03366,281.401261 L503.389134,278.863866 L503.389134,274.953782 C503.398288,273.768693 502.444682,272.799908 501.258915,272.790691 L501.225631,272.790691 Z" id="Stroke-127" stroke="#FFFFFF" stroke-width="2" mask="url(#mask-2)"></path>
                    <path d="M501.225631,272.790691 L492.696434,272.790691 C491.510667,272.781605 490.542083,273.735416 490.53293,274.920504 L490.53293,274.953782 L490.53293,278.863866 L446.887988,281.401261 C443.714711,281.588029 441.235419,284.212777 441.23001,287.391176 L552.692054,287.391176 C552.686645,284.212777 550.207353,281.588029 547.03366,281.401261 L503.389134,278.863866 L503.389134,274.953782 C503.398288,273.768693 502.444682,272.799908 501.258915,272.790691 L501.225631,272.790691 Z" id="Fill-128" fill="#2470A9" mask="url(#mask-2)"></path>
                    <path d="M501.225631,272.790691 L492.696434,272.790691 C491.510667,272.781605 490.542083,273.735416 490.53293,274.920504 L490.53293,274.953782 L490.53293,278.863866 L446.887988,281.401261 C443.714711,281.588029 441.235419,284.212777 441.23001,287.391176 L552.692054,287.391176 C552.686645,284.212777 550.207353,281.588029 547.03366,281.401261 L503.389134,278.863866 L503.389134,274.953782 C503.398288,273.768693 502.444682,272.799908 501.258915,272.790691 L501.225631,272.790691 Z" id="Stroke-129" stroke="#FFFFFF" stroke-width="2" mask="url(#mask-2)"></path>
                    <path d="M506.051742,242.258829 L487.86999,242.258829 C486.515304,242.256577 485.417326,241.158842 485.415245,239.804871 L485.415245,222.209493 L508.46488,222.209493 L508.46488,239.804871 C508.497333,241.127229 507.45053,242.226212 506.12788,242.258241 C506.102501,242.258829 506.077121,242.259073 506.051742,242.258829" id="Fill-130" fill="#2470A9" mask="url(#mask-2)"></path>
                    <path d="M506.051742,242.258829 L487.86999,242.258829 C486.515304,242.256577 485.417326,241.158842 485.415245,239.804871 L485.415245,222.209493 L508.46488,222.209493 L508.46488,239.804871 C508.497333,241.127229 507.45053,242.226212 506.12788,242.258241 C506.102501,242.258829 506.077121,242.259073 506.051742,242.258829 Z" id="Stroke-131" stroke="#FFFFFF" stroke-width="2" mask="url(#mask-2)"></path>
                    <path d="M490.574286,222.20941 L490.574286,239.804788 C490.574286,241.135881 491.198374,242.258574 491.905673,242.258574 L487.828301,242.258574 C486.474031,242.256494 485.376053,241.159175 485.373556,239.804788 L485.373556,222.20941 L490.574286,222.20941 Z" id="Fill-132" fill="#2470A9" mask="url(#mask-2)"></path>
                    <path d="M506.051742,242.258829 L487.86999,242.258829 C486.515304,242.256577 485.417326,241.158842 485.415245,239.804871 L485.415245,222.209493 L508.46488,222.209493 L508.46488,239.804871 C508.497333,241.127229 507.45053,242.226212 506.12788,242.258241 C506.102501,242.258829 506.077121,242.259073 506.051742,242.258829" id="Fill-133" fill="#2470A9" mask="url(#mask-2)"></path>
                    <path d="M506.051742,242.258829 L487.86999,242.258829 C486.515304,242.256577 485.417326,241.158842 485.415245,239.804871 L485.415245,222.209493 L508.46488,222.209493 L508.46488,239.804871 C508.497333,241.127229 507.45053,242.226212 506.12788,242.258241 C506.102501,242.258829 506.077121,242.259073 506.051742,242.258829 Z" id="Stroke-134" stroke="#FFFFFF" stroke-width="2" mask="url(#mask-2)"></path>
                    <path d="M503.472096,256.651344 L490.408279,256.651344 C489.44552,256.644272 488.667491,255.865999 488.660418,254.904285 L488.660418,242.258491 L505.219542,242.258491 L505.219542,254.904285 C505.266556,255.821907 504.560921,256.604339 503.643096,256.651344 C503.586096,256.654255 503.529096,256.654255 503.472096,256.651344" id="Fill-135" fill="#2470A9" mask="url(#mask-2)"></path>
                    <path d="M503.472096,256.651344 L490.408279,256.651344 C489.44552,256.644272 488.667491,255.865999 488.660418,254.904285 L488.660418,242.258491 L505.219542,242.258491 L505.219542,254.904285 C505.266556,255.821907 504.560921,256.604339 503.643096,256.651344 C503.586096,256.654255 503.529096,256.654255 503.472096,256.651344 Z" id="Stroke-136" stroke="#FFFFFF" stroke-width="2" mask="url(#mask-2)"></path>
                    <path d="M492.405109,242.258657 L492.405109,254.904035 C492.405109,255.860758 492.821168,256.65151 493.362044,256.65151 L490.449635,256.65151 C489.487292,256.644439 488.708847,255.866166 488.70219,254.904035 L488.70219,242.258657 L492.405109,242.258657 Z" id="Fill-137" fill="#2470A9" mask="url(#mask-2)"></path>
                    <path d="M492.405109,242.258657 L492.405109,254.904035 C492.405109,255.860758 492.821168,256.65151 493.362044,256.65151 L490.449635,256.65151 C489.487292,256.644439 488.708847,255.866166 488.70219,254.904035 L488.70219,242.258657 L492.405109,242.258657 Z" id="Stroke-138" stroke="#FFFFFF" stroke-width="2" mask="url(#mask-2)"></path>
                    <path d="M503.472096,256.651344 L490.408279,256.651344 C489.44552,256.644272 488.667491,255.865999 488.660418,254.904285 L488.660418,242.258491 L505.219542,242.258491 L505.219542,254.904285 C505.266556,255.821907 504.560921,256.604339 503.643096,256.651344 C503.586096,256.654255 503.529096,256.654255 503.472096,256.651344" id="Fill-139" fill="#2470A9" mask="url(#mask-2)"></path>
                    <path d="M503.472096,256.651344 L490.408279,256.651344 C489.44552,256.644272 488.667491,255.865999 488.660418,254.904285 L488.660418,242.258491 L505.219542,242.258491 L505.219542,254.904285 C505.266556,255.821907 504.560921,256.604339 503.643096,256.651344 C503.586096,256.654255 503.529096,256.654255 503.472096,256.651344 Z" id="Stroke-140" stroke="#FFFFFF" stroke-width="2" mask="url(#mask-2)"></path>
                    <path d="M517.451908,222.20941 L476.386945,222.20941 C470.621207,222.204418 465.948455,217.533116 465.943879,211.768238 L527.853706,211.768238 C527.899134,217.488608 523.298777,222.163238 517.577142,222.208994 C517.53512,222.20941 517.49393,222.20941 517.451908,222.20941" id="Fill-141" fill="#2470A9" mask="url(#mask-2)"></path>
                    <path d="M517.451908,222.20941 L476.386945,222.20941 C470.621207,222.204418 465.948455,217.533116 465.943879,211.768238 L527.853706,211.768238 C527.899134,217.488608 523.298777,222.163238 517.577142,222.208994 C517.53512,222.20941 517.49393,222.20941 517.451908,222.20941 Z" id="Stroke-142" stroke="#FFFFFF" stroke-width="2" mask="url(#mask-2)"></path>
                    <path d="M517.451908,222.20941 L476.386945,222.20941 C470.621207,222.204418 465.948455,217.533116 465.943879,211.768238 L527.853706,211.768238 C527.899134,217.488608 523.298777,222.163238 517.577142,222.208994 C517.53512,222.20941 517.49393,222.20941 517.451908,222.20941" id="Fill-143" fill="#2470A9" mask="url(#mask-2)"></path>
                    <path d="M517.451908,222.20941 L476.386945,222.20941 C470.621207,222.204418 465.948455,217.533116 465.943879,211.768238 L527.853706,211.768238 C527.899134,217.488608 523.298777,222.163238 517.577142,222.208994 C517.53512,222.20941 517.49393,222.20941 517.451908,222.20941 Z" id="Stroke-144" stroke="#FFFFFF" stroke-width="2" mask="url(#mask-2)"></path>
                    <path d="M477.427007,211.81025 C477.427007,217.550587 480.381022,222.251007 484.00073,222.251007 L476.428467,222.251007 C470.66273,222.246431 465.989978,217.574297 465.985401,211.81025 L477.427007,211.81025 Z" id="Fill-145" fill="#2470A9" mask="url(#mask-2)"></path>
                    <path d="M517.451908,222.20941 L476.386945,222.20941 C470.621207,222.204418 465.948455,217.533116 465.943879,211.768238 L527.853706,211.768238 C527.899134,217.488608 523.298777,222.163238 517.577142,222.208994 C517.53512,222.20941 517.49393,222.20941 517.451908,222.20941" id="Fill-146" fill="#2470A9" mask="url(#mask-2)"></path>
                    <path d="M517.451908,222.20941 L476.386945,222.20941 C470.621207,222.204418 465.948455,217.533116 465.943879,211.768238 L527.853706,211.768238 C527.899134,217.488608 523.298777,222.163238 517.577142,222.208994 C517.53512,222.20941 517.49393,222.20941 517.451908,222.20941 Z" id="Stroke-147" stroke="#FFFFFF" stroke-width="2" mask="url(#mask-2)"></path>
                    <path d="M548.822461,285.727145 C551.809761,285.727145 554.23122,288.148069 554.23122,291.134708 C554.23122,294.121346 551.809761,296.542271 548.822461,296.542271 C545.835162,296.542271 543.413702,294.121346 543.413702,291.134708 C543.436585,288.158052 545.845147,285.750023 548.822461,285.727145" id="Fill-148" fill="#2470A9" mask="url(#mask-2)"></path>
                    <path d="M548.822461,285.727145 C551.809761,285.727145 554.23122,288.148069 554.23122,291.134708 C554.23122,294.121346 551.809761,296.542271 548.822461,296.542271 C545.835162,296.542271 543.413702,294.121346 543.413702,291.134708 C543.436585,288.158052 545.845147,285.750023 548.822461,285.727145 Z" id="Stroke-149" stroke="#FFFFFF" stroke-width="2" mask="url(#mask-2)"></path>
                    <path d="M443.809572,296.542271 C440.822273,296.542271 438.400813,294.121346 438.400813,291.134708 C438.400813,288.148069 440.822273,285.727145 443.809572,285.727145 C446.796872,285.727145 449.218331,288.148069 449.218331,291.134708 C449.218331,294.121346 446.796872,296.542271 443.809572,296.542271" id="Fill-150" fill="#2470A9" mask="url(#mask-2)"></path>
                    <path d="M443.809572,296.542271 C440.822273,296.542271 438.400813,294.121346 438.400813,291.134708 C438.400813,288.148069 440.822273,285.727145 443.809572,285.727145 C446.796872,285.727145 449.218331,288.148069 449.218331,291.134708 C449.218331,294.121346 446.796872,296.542271 443.809572,296.542271 Z" id="Stroke-151" stroke="#FFFFFF" stroke-width="2" mask="url(#mask-2)"></path>
                    <path d="M500.559688,296.542271 C497.572388,296.542271 495.150928,294.121346 495.150928,291.134708 C495.150928,288.148069 497.572388,285.727145 500.559688,285.727145 C503.546987,285.727145 505.968447,288.148069 505.968447,291.134708 C505.968447,294.121346 503.546987,296.542271 500.559688,296.542271" id="Fill-152" fill="#2470A9" mask="url(#mask-2)"></path>
                    <path d="M500.559688,296.542271 C497.572388,296.542271 495.150928,294.121346 495.150928,291.134708 C495.150928,288.148069 497.572388,285.727145 500.559688,285.727145 C503.546987,285.727145 505.968447,288.148069 505.968447,291.134708 C505.968447,294.121346 503.546987,296.542271 500.559688,296.542271 Z" id="Stroke-153" stroke="#FFFFFF" stroke-width="2" mask="url(#mask-2)"></path>
                    <path d="M449.135036,211.81025 L545.036496,211.81025 C549.425496,211.81025 552.983212,208.252906 552.983212,203.864876 C552.978635,195.665347 546.33127,189.019868 538.129927,189.014876 L456.083212,189.014876 C447.881869,189.019868 441.234504,195.665347 441.229923,203.864876 C441.22535,208.238763 444.760599,211.791948 449.135036,211.81025" id="Fill-154" fill="#2470A9" mask="url(#mask-2)"></path>
                    <path d="M449.135036,211.81025 L545.036496,211.81025 C549.425496,211.81025 552.983212,208.252906 552.983212,203.864876 C552.978635,195.665347 546.33127,189.019868 538.129927,189.014876 L456.083212,189.014876 C447.881869,189.019868 441.234504,195.665347 441.229923,203.864876 C441.22535,208.238763 444.760599,211.791948 449.135036,211.81025 Z" id="Stroke-155" stroke="#FFFFFF" stroke-width="2" mask="url(#mask-2)"></path>
                    <g id="Group-158" mask="url(#mask-2)">
                        <g transform="translate(585.394161, 281.193277)">
                            <polyline id="Fill-156" stroke="none" fill="#2470A9" fill-rule="evenodd" points="0.332763504 0.166220168 85.9159752 0.166220168 85.9159752 11.3973126 0.332763504 11.3973126"></polyline>
                            <polyline id="Stroke-157" stroke="#FFFFFF" stroke-width="2" fill="none" points="0.332763504 0.166220168 85.9159752 0.166220168 85.9159752 11.3973126 0.332763504 11.3973126"></polyline>
                        </g>
                    </g>
                    <polygon id="Fill-159" fill="#2470A9" mask="url(#mask-2)" points="580.651095 281.318067 676.386547 281.318067 676.386547 170.296639 580.651095 170.296639"></polygon>
                    <polygon id="Stroke-160" stroke="#FFFFFF" stroke-width="2" mask="url(#mask-2)" points="580.651095 281.318067 676.386547 281.318067 676.386547 170.296639 580.651095 170.296639"></polygon>
                    <polygon id="Fill-161" fill="#2470A9" mask="url(#mask-2)" points="580.651095 194.547895 676.386547 194.547895 676.386547 170.296639 580.651095 170.296639"></polygon>
                    <polygon id="Stroke-162" stroke="#FFFFFF" stroke-width="2" mask="url(#mask-2)" points="580.651095 194.547895 676.386547 194.547895 676.386547 170.296639 580.651095 170.296639"></polygon>
                    <path d="M628.497644,178.948906 C630.404855,178.948906 631.951345,180.494637 631.951345,182.401427 C631.951345,184.308217 630.404855,185.853948 628.497644,185.853948 C626.590432,185.853948 625.044359,184.308217 625.044359,182.401427 C625.044359,180.494637 626.590432,178.948906 628.497644,178.948906" id="Fill-163" fill="#2470A9" mask="url(#mask-2)"></path>
                    <path d="M628.497644,178.948906 C630.404855,178.948906 631.951345,180.494637 631.951345,182.401427 C631.951345,184.308217 630.404855,185.853948 628.497644,185.853948 C626.590432,185.853948 625.044359,184.308217 625.044359,182.401427 C625.044359,180.494637 626.590432,178.948906 628.497644,178.948906 Z" id="Stroke-164" stroke="#FFFFFF" stroke-width="2" mask="url(#mask-2)"></path>
                    <polygon id="Fill-165" fill="#2470A9" mask="url(#mask-2)" points="580.651095 223.498739 676.386547 223.498739 676.386547 199.247899 580.651095 199.247899"></polygon>
                    <polygon id="Stroke-166" stroke="#FFFFFF" stroke-width="2" mask="url(#mask-2)" points="580.651095 223.498739 676.386547 223.498739 676.386547 199.247899 580.651095 199.247899"></polygon>
                    <path d="M628.497644,207.9 C630.404855,207.9 631.951345,209.445731 631.951345,211.352521 C631.951345,213.259311 630.404855,214.805042 628.497644,214.805042 C626.590432,214.805042 625.044359,213.259311 625.044359,211.352521 C625.044359,209.445731 626.590432,207.9 628.497644,207.9" id="Fill-167" fill="#2470A9" mask="url(#mask-2)"></path>
                    <path d="M628.497644,207.9 C630.404855,207.9 631.951345,209.445731 631.951345,211.352521 C631.951345,213.259311 630.404855,214.805042 628.497644,214.805042 C626.590432,214.805042 625.044359,213.259311 625.044359,211.352521 C625.044359,209.445731 626.590432,207.9 628.497644,207.9 Z" id="Stroke-168" stroke="#FFFFFF" stroke-width="2" mask="url(#mask-2)"></path>
                    <polygon id="Fill-169" fill="#2470A9" mask="url(#mask-2)" points="580.651095 252.45 676.386547 252.45 676.386547 228.19916 580.651095 228.19916"></polygon>
                    <polygon id="Stroke-170" stroke="#FFFFFF" stroke-width="2" mask="url(#mask-2)" points="580.651095 252.45 676.386547 252.45 676.386547 228.19916 580.651095 228.19916"></polygon>
                    <path d="M628.497644,236.851094 C630.404855,236.851094 631.951345,238.397241 631.951345,240.304031 C631.951345,242.210821 630.404855,243.756552 628.497644,243.756552 C626.590432,243.756552 625.044359,242.210821 625.044359,240.304031 C625.044359,238.397241 626.590432,236.851094 628.497644,236.851094" id="Fill-171" fill="#2470A9" mask="url(#mask-2)"></path>
                    <path d="M628.497644,236.851094 C630.404855,236.851094 631.951345,238.397241 631.951345,240.304031 C631.951345,242.210821 630.404855,243.756552 628.497644,243.756552 C626.590432,243.756552 625.044359,242.210821 625.044359,240.304031 C625.044359,238.397241 626.590432,236.851094 628.497644,236.851094 Z" id="Stroke-172" stroke="#FFFFFF" stroke-width="2" mask="url(#mask-2)"></path>
                    <polygon id="Fill-173" fill="#2470A9" mask="url(#mask-2)" points="580.651095 281.359664 676.386547 281.359664 676.386547 257.108824 580.651095 257.108824"></polygon>
                    <polygon id="Stroke-174" stroke="#FFFFFF" stroke-width="2" mask="url(#mask-2)" points="580.651095 281.359664 676.386547 281.359664 676.386547 257.108824 580.651095 257.108824"></polygon>
                    <path d="M628.497644,265.760758 C630.404855,265.760758 631.951345,267.306905 631.951345,269.213695 C631.951345,271.120485 630.404855,272.666216 628.497644,272.666216 C626.590432,272.666216 625.044359,271.120485 625.044359,269.213695 C625.044359,267.306905 626.590432,265.760758 628.497644,265.760758" id="Fill-175" fill="#2470A9" mask="url(#mask-2)"></path>
                    <path d="M628.497644,265.760758 C630.404855,265.760758 631.951345,267.306905 631.951345,269.213695 C631.951345,271.120485 630.404855,272.666216 628.497644,272.666216 C626.590432,272.666216 625.044359,271.120485 625.044359,269.213695 C625.044359,267.306905 626.590432,265.760758 628.497644,265.760758 Z" id="Stroke-176" stroke="#FFFFFF" stroke-width="2" mask="url(#mask-2)"></path>
                    <polygon id="Fill-177" fill="#2470A9" mask="url(#mask-2)" points="576.781752 170.296639 680.172263 170.296639 680.172263 165.055462 576.781752 165.055462"></polygon>
                    <polygon id="Stroke-178" stroke="#FFFFFF" stroke-width="2" mask="url(#mask-2)" points="576.781752 170.296639 680.172263 170.296639 680.172263 165.055462 576.781752 165.055462"></polygon>
                    <g id="Group-181" mask="url(#mask-2)">
                        <g transform="translate(580.401460, 281.193277)">
                            <polyline id="Fill-179" stroke="none" fill="#2470A9" fill-rule="evenodd" points="0.249468613 4.57571345 0.249468613 0.166053782 5.32538102 0.166053782"></polyline>
                            <polyline id="Stroke-180" stroke="#FFFFFF" stroke-width="2" fill="none" points="0.249468613 4.57571345 0.249468613 0.166053782 5.32538102 0.166053782"></polyline>
                        </g>
                    </g>
                    <polygon id="Fill-182" fill="#2470A9" mask="url(#mask-2)" points="580.651095 296.58445 585.727007 296.58445 585.727007 281.359664 580.651095 281.359664"></polygon>
                    <polygon id="Stroke-183" stroke="#FFFFFF" stroke-width="2" mask="url(#mask-2)" points="580.651095 296.58445 585.727007 296.58445 585.727007 281.359664 580.651095 281.359664"></polygon>
                    <polygon id="Fill-184" fill="#2470A9" mask="url(#mask-2)" points="671.268613 296.58445 676.344109 296.58445 676.344109 281.359664 671.268613 281.359664"></polygon>
                    <polygon id="Stroke-185" stroke="#FFFFFF" stroke-width="2" mask="url(#mask-2)" points="671.268613 296.58445 676.344109 296.58445 676.344109 281.359664 671.268613 281.359664"></polygon>
                    <path d="M446.222628,114.09958 C450.037051,114.09958 453.129197,117.191042 453.129197,121.004622 C453.129197,124.818202 450.037051,127.909664 446.222628,127.909664 L503.805109,127.909664 C507.617453,127.905088 510.707102,124.816122 510.711679,121.004622 C510.707102,117.193122 507.617453,114.104155 503.805109,114.09958 L446.222628,114.09958 Z" id="Fill-186" fill="#2470A9" mask="url(#mask-2)"></path>
                    <path d="M446.222628,114.09958 C450.037051,114.09958 453.129197,117.191042 453.129197,121.004622 C453.129197,124.818202 450.037051,127.909664 446.222628,127.909664 L503.805109,127.909664 C507.617453,127.905088 510.707102,124.816122 510.711679,121.004622 C510.707102,117.193122 507.617453,114.104155 503.805109,114.09958 L446.222628,114.09958 Z" id="Stroke-187" stroke="#FFFFFF" stroke-width="2" stroke-linecap="round" stroke-linejoin="round" mask="url(#mask-2)"></path>
                    <g id="Group-190" mask="url(#mask-2)">
                        <g transform="translate(453.087591, 120.630252)">
                            <line x1="0.0414394161" y1="0.501736415" x2="49.2195416" y2="0.501736415" id="Fill-188" stroke="none" fill="#2470A9" fill-rule="evenodd"></line>
                            <line x1="0.0414394161" y1="0.501736415" x2="49.2195416" y2="0.501736415" id="Stroke-189" stroke="#FFFFFF" stroke-width="2" fill="none" stroke-linecap="round" stroke-linejoin="round"></line>
                        </g>
                    </g>
                    <path d="M481.379562,76.1633622 C476.719708,76.5793286 473.266423,73.1268076 473.682482,68.467984 C478.342336,68.0936143 481.79562,71.5045387 481.379562,76.1633622" id="Fill-191" fill="#2470A9" mask="url(#mask-2)"></path>
                    <path d="M481.379562,76.1633622 C476.719708,76.5793286 473.266423,73.1268076 473.682482,68.467984 C478.342336,68.0936143 481.79562,71.5045387 481.379562,76.1633622 Z" id="Stroke-192" stroke="#FFFFFF" stroke-width="2" stroke-linecap="round" stroke-linejoin="round" mask="url(#mask-2)"></path>
                    <g id="Group-195" mask="url(#mask-2)">
                        <g transform="translate(481.379562, 68.218487)">
                            <path d="M0.291324088,8.77680756 C0.291324088,8.77680756 -0.457581022,3.74361429 5.24200292,0.249496639" id="Fill-193" stroke="none" fill="#2470A9" fill-rule="evenodd"></path>
                            <path d="M0.291324088,8.77680756 C0.291324088,8.77680756 -0.457581022,3.74361429 5.24200292,0.249496639" id="Stroke-194" stroke="#FFFFFF" stroke-width="2" fill="none" stroke-linecap="round" stroke-linejoin="round"></path>
                        </g>
                    </g>
                    <path d="M489.118082,76.1633622 C488.007206,75.8717697 486.834753,75.9154462 485.748009,76.2881521 C482.86514,77.2032782 479.76925,77.2032782 476.886381,76.2881521 C475.799636,75.9154462 474.627184,75.8717697 473.515892,76.1633622 C469.064483,77.3280681 466.942169,83.7755471 468.73122,90.5142025 C470.520688,97.252858 475.596184,101.745295 480.006819,100.580589 C480.862235,100.331009 481.772155,100.331009 482.627571,100.580589 C487.079812,101.745295 492.113702,97.252858 493.902753,90.5142025 C495.69222,83.7755471 493.528717,77.3696647 489.118082,76.1633622" id="Fill-196" fill="#2470A9" mask="url(#mask-2)"></path>
                    <path d="M489.118082,76.1633622 C488.007206,75.8717697 486.834753,75.9154462 485.748009,76.2881521 C482.86514,77.2032782 479.76925,77.2032782 476.886381,76.2881521 C475.799636,75.9154462 474.627184,75.8717697 473.515892,76.1633622 C469.064483,77.3280681 466.942169,83.7755471 468.73122,90.5142025 C470.520688,97.252858 475.596184,101.745295 480.006819,100.580589 C480.862235,100.331009 481.772155,100.331009 482.627571,100.580589 C487.079812,101.745295 492.113702,97.252858 493.902753,90.5142025 C495.69222,83.7755471 493.528717,77.3696647 489.118082,76.1633622 Z" id="Stroke-197" stroke="#FFFFFF" stroke-width="2" stroke-linecap="round" stroke-linejoin="round" mask="url(#mask-2)"></path>
                    <path d="M446.222628,100.331051 C450.037051,100.332715 453.127949,103.425425 453.126285,107.239005 C453.12462,111.050505 450.034555,114.139471 446.222628,114.141135 L503.805109,114.141135 C507.617453,114.136559 510.707102,111.048009 510.711679,107.236093 C510.707102,103.424593 507.617453,100.335626 503.805109,100.331051 L446.222628,100.331051 Z" id="Fill-198" fill="#2470A9" mask="url(#mask-2)"></path>
                    <path d="M446.222628,100.331051 C450.037051,100.332715 453.127949,103.425425 453.126285,107.239005 C453.12462,111.050505 450.034555,114.139471 446.222628,114.141135 L503.805109,114.141135 C507.617453,114.136559 510.707102,111.048009 510.711679,107.236093 C510.707102,103.424593 507.617453,100.335626 503.805109,100.331051 L446.222628,100.331051 Z" id="Stroke-199" stroke="#FFFFFF" stroke-width="2" stroke-linecap="round" stroke-linejoin="round" mask="url(#mask-2)"></path>
                    <g id="Group-202" mask="url(#mask-2)">
                        <g transform="translate(453.087591, 106.903361)">
                            <line x1="0.0414394161" y1="0.445938375" x2="49.2195416" y2="0.445938375" id="Fill-200" stroke="none" fill="#2470A9" fill-rule="evenodd"></line>
                            <line x1="0.0414394161" y1="0.445938375" x2="49.2195416" y2="0.445938375" id="Stroke-201" stroke="#FFFFFF" stroke-width="2" fill="none" stroke-linecap="round" stroke-linejoin="round"></line>
                        </g>
                    </g>
                </g>
            </g>
        </g>
    </g>
</svg>